<?xml version="1.0" encoding="UTF-8" standalone="no"?> <svg width="303.036mm" height="139.7mm"  viewBox="0 0 859 396"  xmlns="http://www.w3.org/2000/svg" xmlns:xlink="http://www.w3.org/1999/xlink"  version="1.2" baseProfile="tiny"> <title>Generated with ETE http://etetoolkit.org</title> <desc>Generated with ETE http://etetoolkit.org</desc> <defs> </defs> <g fill="none" stroke="black" stroke-width="1" fill-rule="evenodd" stroke-linecap="square" stroke-linejoin="bevel" >      <g fill="none" stroke="none" transform="matrix(1,0,0,1,0,0)" font-family="Ubuntu" font-size="11pt" font-weight="400" font-style="normal"  > <path vector-effect="non-scaling-stroke" fill-rule="evenodd" d="M0,0 L859,0 L859,396 L0,396 L0,0"/> </g>      <g fill="none" stroke="none" transform="matrix(1,0,0,1,1,1)" font-family="Ubuntu" font-size="11pt" font-weight="400" font-style="normal"  > <path vector-effect="non-scaling-stroke" fill-rule="evenodd" d="M0,0 L857,0 L857,344 L0,344 L0,0"/> </g>                                                                                                                                                                              <g fill="none" stroke="#000000" stroke-opacity="1" stroke-width="1" stroke-linecap="butt" stroke-linejoin="bevel" transform="matrix(1,0,0,1,1,1)" font-family="Ubuntu" font-size="11pt" font-weight="400" font-style="normal"  > <polyline fill="none" vector-effect="non-scaling-stroke" points="3,8.5 3,84.5 " /> </g>                  <g fill="#0030c1" fill-opacity="1" stroke="#0030c1" stroke-opacity="1" stroke-width="1" stroke-linecap="square" stroke-linejoin="bevel" transform="matrix(1,0,0,1,1,46)" font-family="Ubuntu" font-size="11pt" font-weight="400" font-style="normal"  > <path vector-effect="non-scaling-stroke" fill-rule="evenodd" d="M3,1.5 C3,2.32843 2.32843,3 1.5,3 C0.671573,3 0,2.32843 0,1.5 C0,0.671573 0.671573,0 1.5,0 C2.32843,0 3,0.671573 3,1.5 "/> </g>                              <g fill="#0030c1" fill-opacity="1" stroke="#0030c1" stroke-opacity="1" stroke-width="1" stroke-linecap="square" stroke-linejoin="bevel" transform="matrix(1,0,0,1,4,8)" font-family="Ubuntu" font-size="11pt" font-weight="400" font-style="normal"  > <path vector-effect="non-scaling-stroke" fill-rule="evenodd" d="M3,1.5 C3,2.32843 2.32843,3 1.5,3 C0.671573,3 0,2.32843 0,1.5 C0,0.671573 0.671573,0 1.5,0 C2.32843,0 3,0.671573 3,1.5 "/> </g>          <g fill="none" stroke="#000000" stroke-opacity="1" stroke-width="1" stroke-linecap="square" stroke-linejoin="bevel" transform="matrix(1,0,0,1,7,1.5)" font-family="Arial" font-size="10pt" font-weight="400" font-style="normal"  > <text fill="#000000" fill-opacity="1" stroke="none" xml:space="preserve" x="0" y="13" font-family="Arial" font-size="10pt" font-weight="400" font-style="normal"   >AWT24645.1</text> </g>                  <g fill="none" stroke="#000000" stroke-opacity="1" stroke-width="1" stroke-linecap="square" stroke-linejoin="bevel" transform="matrix(1,0,0,1,257,1)" font-family="Verdana" font-size="10pt" font-weight="400" font-style="normal"  > <text fill="#000000" fill-opacity="1" stroke="none" xml:space="preserve" x="0" y="14" font-family="Verdana" font-size="10pt" font-weight="400" font-style="normal"   >('PDGF-D', 'PDGFA [Protopterus annectens]', 'None')</text> </g>                  <g fill="#0030c1" fill-opacity="1" stroke="#0030c1" stroke-opacity="1" stroke-width="1" stroke-linecap="square" stroke-linejoin="bevel" transform="matrix(1,0,0,1,4,25)" font-family="Ubuntu" font-size="11pt" font-weight="400" font-style="normal"  > <path vector-effect="non-scaling-stroke" fill-rule="evenodd" d="M3,1.5 C3,2.32843 2.32843,3 1.5,3 C0.671573,3 0,2.32843 0,1.5 C0,0.671573 0.671573,0 1.5,0 C2.32843,0 3,0.671573 3,1.5 "/> </g>          <g fill="none" stroke="#000000" stroke-opacity="1" stroke-width="1" stroke-linecap="square" stroke-linejoin="bevel" transform="matrix(1,0,0,1,7,18.5)" font-family="Arial" font-size="10pt" font-weight="400" font-style="normal"  > <text fill="#000000" fill-opacity="1" stroke="none" xml:space="preserve" x="0" y="13" font-family="Arial" font-size="10pt" font-weight="400" font-style="normal"   >AWT24645.1_1</text> </g>                  <g fill="none" stroke="#000000" stroke-opacity="1" stroke-width="1" stroke-linecap="square" stroke-linejoin="bevel" transform="matrix(1,0,0,1,257,18)" font-family="Verdana" font-size="10pt" font-weight="400" font-style="normal"  > <text fill="#000000" fill-opacity="1" stroke="none" xml:space="preserve" x="0" y="14" font-family="Verdana" font-size="10pt" font-weight="400" font-style="normal"   >('PDGF-D', 'PDGFA [Protopterus annectens]', 'None')</text> </g>      <g fill="none" stroke="#000000" stroke-opacity="1" stroke-width="1" stroke-linecap="butt" stroke-linejoin="bevel" transform="matrix(1,0,0,1,4,35)" font-family="Ubuntu" font-size="11pt" font-weight="400" font-style="normal"  > <polyline fill="none" vector-effect="non-scaling-stroke" points="12.1698,8 12.1698,93 " /> </g>            <g fill="none" stroke="#000000" stroke-opacity="1" stroke-width="1" stroke-linecap="butt" stroke-linejoin="bevel" transform="matrix(1,0,0,1,4,35)" font-family="Ubuntu" font-size="11pt" font-weight="400" font-style="normal"  > <polyline fill="none" vector-effect="non-scaling-stroke" points="0,50.5 9.16976,50.5 " /> </g>      <g fill="#0030c1" fill-opacity="1" stroke="#0030c1" stroke-opacity="1" stroke-width="1" stroke-linecap="square" stroke-linejoin="bevel" transform="matrix(1,0,0,1,13.1698,84)" font-family="Ubuntu" font-size="11pt" font-weight="400" font-style="normal"  > <path vector-effect="non-scaling-stroke" fill-rule="evenodd" d="M3,1.5 C3,2.32843 2.32843,3 1.5,3 C0.671573,3 0,2.32843 0,1.5 C0,0.671573 0.671573,0 1.5,0 C2.32843,0 3,0.671573 3,1.5 "/> </g>                        <g fill="none" stroke="#000000" stroke-opacity="1" stroke-width="1" stroke-linecap="butt" stroke-linejoin="bevel" transform="matrix(1,0,0,1,16.1698,35)" font-family="Ubuntu" font-size="11pt" font-weight="400" font-style="normal"  > <polyline fill="none" vector-effect="non-scaling-stroke" points="0,8 9.34488,8 " /> </g>      <g fill="#0030c1" fill-opacity="1" stroke="#0030c1" stroke-opacity="1" stroke-width="1" stroke-linecap="square" stroke-linejoin="bevel" transform="matrix(1,0,0,1,25.5146,41.5)" font-family="Ubuntu" font-size="11pt" font-weight="400" font-style="normal"  > <path vector-effect="non-scaling-stroke" fill-rule="evenodd" d="M3,1.5 C3,2.32843 2.32843,3 1.5,3 C0.671573,3 0,2.32843 0,1.5 C0,0.671573 0.671573,0 1.5,0 C2.32843,0 3,0.671573 3,1.5 "/> </g>          <g fill="none" stroke="#000000" stroke-opacity="1" stroke-width="1" stroke-linecap="square" stroke-linejoin="bevel" transform="matrix(1,0,0,1,28.5146,35)" font-family="Arial" font-size="10pt" font-weight="400" font-style="normal"  > <text fill="#000000" fill-opacity="1" stroke="none" xml:space="preserve" x="0" y="13" font-family="Arial" font-size="10pt" font-weight="400" font-style="normal"   >PDGF-A</text> </g>              <g fill="none" stroke="#000000" stroke-opacity="1" stroke-width="1" stroke-linecap="butt" stroke-linejoin="bevel" transform="matrix(1,0,0,1,16.1698,51)" font-family="Ubuntu" font-size="11pt" font-weight="400" font-style="normal"  > <polyline fill="none" vector-effect="non-scaling-stroke" points="21.199,20.5 21.199,133.5 " /> </g>            <g fill="none" stroke="#000000" stroke-opacity="1" stroke-width="1" stroke-linecap="butt" stroke-linejoin="bevel" transform="matrix(1,0,0,1,16.1698,51)" font-family="Ubuntu" font-size="11pt" font-weight="400" font-style="normal"  > <polyline fill="none" vector-effect="non-scaling-stroke" points="0,77 18.199,77 " /> </g>      <g fill="#0030c1" fill-opacity="1" stroke="#0030c1" stroke-opacity="1" stroke-width="1" stroke-linecap="square" stroke-linejoin="bevel" transform="matrix(1,0,0,1,34.3688,126.5)" font-family="Ubuntu" font-size="11pt" font-weight="400" font-style="normal"  > <path vector-effect="non-scaling-stroke" fill-rule="evenodd" d="M3,1.5 C3,2.32843 2.32843,3 1.5,3 C0.671573,3 0,2.32843 0,1.5 C0,0.671573 0.671573,0 1.5,0 C2.32843,0 3,0.671573 3,1.5 "/> </g>                  <g fill="none" stroke="#000000" stroke-opacity="1" stroke-width="1" stroke-linecap="butt" stroke-linejoin="bevel" transform="matrix(1,0,0,1,37.3688,51)" font-family="Ubuntu" font-size="11pt" font-weight="400" font-style="normal"  > <polyline fill="none" vector-effect="non-scaling-stroke" points="11.1038,8 11.1038,33 " /> </g>            <g fill="none" stroke="#000000" stroke-opacity="1" stroke-width="1" stroke-linecap="butt" stroke-linejoin="bevel" transform="matrix(1,0,0,1,37.3688,51)" font-family="Ubuntu" font-size="11pt" font-weight="400" font-style="normal"  > <polyline fill="none" vector-effect="non-scaling-stroke" points="0,20.5 8.10377,20.5 " /> </g>      <g fill="#0030c1" fill-opacity="1" stroke="#0030c1" stroke-opacity="1" stroke-width="1" stroke-linecap="square" stroke-linejoin="bevel" transform="matrix(1,0,0,1,45.4725,70)" font-family="Ubuntu" font-size="11pt" font-weight="400" font-style="normal"  > <path vector-effect="non-scaling-stroke" fill-rule="evenodd" d="M3,1.5 C3,2.32843 2.32843,3 1.5,3 C0.671573,3 0,2.32843 0,1.5 C0,0.671573 0.671573,0 1.5,0 C2.32843,0 3,0.671573 3,1.5 "/> </g>                        <g fill="none" stroke="#000000" stroke-opacity="1" stroke-width="1" stroke-linecap="butt" stroke-linejoin="bevel" transform="matrix(1,0,0,1,48.4725,51)" font-family="Ubuntu" font-size="11pt" font-weight="400" font-style="normal"  > <polyline fill="none" vector-effect="non-scaling-stroke" points="0,8 26.3843,8 " /> </g>      <g fill="#0030c1" fill-opacity="1" stroke="#0030c1" stroke-opacity="1" stroke-width="1" stroke-linecap="square" stroke-linejoin="bevel" transform="matrix(1,0,0,1,74.8568,57.5)" font-family="Ubuntu" font-size="11pt" font-weight="400" font-style="normal"  > <path vector-effect="non-scaling-stroke" fill-rule="evenodd" d="M3,1.5 C3,2.32843 2.32843,3 1.5,3 C0.671573,3 0,2.32843 0,1.5 C0,0.671573 0.671573,0 1.5,0 C2.32843,0 3,0.671573 3,1.5 "/> </g>          <g fill="none" stroke="#000000" stroke-opacity="1" stroke-width="1" stroke-linecap="square" stroke-linejoin="bevel" transform="matrix(1,0,0,1,77.8568,51)" font-family="Arial" font-size="10pt" font-weight="400" font-style="normal"  > <text fill="#000000" fill-opacity="1" stroke="none" xml:space="preserve" x="0" y="13" font-family="Arial" font-size="10pt" font-weight="400" font-style="normal"   >PDGF-B</text> </g>              <g fill="none" stroke="#000000" stroke-opacity="1" stroke-width="1" stroke-linecap="butt" stroke-linejoin="bevel" transform="matrix(1,0,0,1,48.4725,67)" font-family="Ubuntu" font-size="11pt" font-weight="400" font-style="normal"  > <polyline fill="none" vector-effect="non-scaling-stroke" points="19.9101,8.5 19.9101,25.5 " /> </g>            <g fill="none" stroke="#000000" stroke-opacity="1" stroke-width="1" stroke-linecap="butt" stroke-linejoin="bevel" transform="matrix(1,0,0,1,48.4725,67)" font-family="Ubuntu" font-size="11pt" font-weight="400" font-style="normal"  > <polyline fill="none" vector-effect="non-scaling-stroke" points="0,17 16.9101,17 " /> </g>      <g fill="#0030c1" fill-opacity="1" stroke="#0030c1" stroke-opacity="1" stroke-width="1" stroke-linecap="square" stroke-linejoin="bevel" transform="matrix(1,0,0,1,65.3826,82.5)" font-family="Ubuntu" font-size="11pt" font-weight="400" font-style="normal"  > <path vector-effect="non-scaling-stroke" fill-rule="evenodd" d="M3,1.5 C3,2.32843 2.32843,3 1.5,3 C0.671573,3 0,2.32843 0,1.5 C0,0.671573 0.671573,0 1.5,0 C2.32843,0 3,0.671573 3,1.5 "/> </g>                              <g fill="#0030c1" fill-opacity="1" stroke="#0030c1" stroke-opacity="1" stroke-width="1" stroke-linecap="square" stroke-linejoin="bevel" transform="matrix(1,0,0,1,68.3826,74)" font-family="Ubuntu" font-size="11pt" font-weight="400" font-style="normal"  > <path vector-effect="non-scaling-stroke" fill-rule="evenodd" d="M3,1.5 C3,2.32843 2.32843,3 1.5,3 C0.671573,3 0,2.32843 0,1.5 C0,0.671573 0.671573,0 1.5,0 C2.32843,0 3,0.671573 3,1.5 "/> </g>          <g fill="none" stroke="#000000" stroke-opacity="1" stroke-width="1" stroke-linecap="square" stroke-linejoin="bevel" transform="matrix(1,0,0,1,71.3826,67.5)" font-family="Arial" font-size="10pt" font-weight="400" font-style="normal"  > <text fill="#000000" fill-opacity="1" stroke="none" xml:space="preserve" x="0" y="13" font-family="Arial" font-size="10pt" font-weight="400" font-style="normal"   >AWT24646.1</text> </g>                  <g fill="none" stroke="#000000" stroke-opacity="1" stroke-width="1" stroke-linecap="square" stroke-linejoin="bevel" transform="matrix(1,0,0,1,257,67)" font-family="Verdana" font-size="10pt" font-weight="400" font-style="normal"  > <text fill="#000000" fill-opacity="1" stroke="none" xml:space="preserve" x="0" y="14" font-family="Verdana" font-size="10pt" font-weight="400" font-style="normal"   >('PDGF-D', 'PDGFB [Protopterus annectens]', 'None')</text> </g>                  <g fill="#0030c1" fill-opacity="1" stroke="#0030c1" stroke-opacity="1" stroke-width="1" stroke-linecap="square" stroke-linejoin="bevel" transform="matrix(1,0,0,1,68.3826,91)" font-family="Ubuntu" font-size="11pt" font-weight="400" font-style="normal"  > <path vector-effect="non-scaling-stroke" fill-rule="evenodd" d="M3,1.5 C3,2.32843 2.32843,3 1.5,3 C0.671573,3 0,2.32843 0,1.5 C0,0.671573 0.671573,0 1.5,0 C2.32843,0 3,0.671573 3,1.5 "/> </g>          <g fill="none" stroke="#000000" stroke-opacity="1" stroke-width="1" stroke-linecap="square" stroke-linejoin="bevel" transform="matrix(1,0,0,1,71.3826,84.5)" font-family="Arial" font-size="10pt" font-weight="400" font-style="normal"  > <text fill="#000000" fill-opacity="1" stroke="none" xml:space="preserve" x="0" y="13" font-family="Arial" font-size="10pt" font-weight="400" font-style="normal"   >AWT24646.1_1</text> </g>                  <g fill="none" stroke="#000000" stroke-opacity="1" stroke-width="1" stroke-linecap="square" stroke-linejoin="bevel" transform="matrix(1,0,0,1,257,84)" font-family="Verdana" font-size="10pt" font-weight="400" font-style="normal"  > <text fill="#000000" fill-opacity="1" stroke="none" xml:space="preserve" x="0" y="14" font-family="Verdana" font-size="10pt" font-weight="400" font-style="normal"   >('PDGF-D', 'PDGFB [Protopterus annectens]', 'None')</text> </g>      <g fill="none" stroke="#000000" stroke-opacity="1" stroke-width="1" stroke-linecap="butt" stroke-linejoin="bevel" transform="matrix(1,0,0,1,37.3688,101)" font-family="Ubuntu" font-size="11pt" font-weight="400" font-style="normal"  > <polyline fill="none" vector-effect="non-scaling-stroke" points="50.397,16 50.397,151 " /> </g>            <g fill="none" stroke="#000000" stroke-opacity="1" stroke-width="1" stroke-linecap="butt" stroke-linejoin="bevel" transform="matrix(1,0,0,1,37.3688,101)" font-family="Ubuntu" font-size="11pt" font-weight="400" font-style="normal"  > <polyline fill="none" vector-effect="non-scaling-stroke" points="0,83.5 47.397,83.5 " /> </g>      <g fill="#0030c1" fill-opacity="1" stroke="#0030c1" stroke-opacity="1" stroke-width="1" stroke-linecap="square" stroke-linejoin="bevel" transform="matrix(1,0,0,1,84.7658,183)" font-family="Ubuntu" font-size="11pt" font-weight="400" font-style="normal"  > <path vector-effect="non-scaling-stroke" fill-rule="evenodd" d="M3,1.5 C3,2.32843 2.32843,3 1.5,3 C0.671573,3 0,2.32843 0,1.5 C0,0.671573 0.671573,0 1.5,0 C2.32843,0 3,0.671573 3,1.5 "/> </g>                  <g fill="none" stroke="#000000" stroke-opacity="1" stroke-width="1" stroke-linecap="butt" stroke-linejoin="bevel" transform="matrix(1,0,0,1,87.7658,101)" font-family="Ubuntu" font-size="11pt" font-weight="400" font-style="normal"  > <polyline fill="none" vector-effect="non-scaling-stroke" points="54.9763,8 54.9763,24 " /> </g>            <g fill="none" stroke="#000000" stroke-opacity="1" stroke-width="1" stroke-linecap="butt" stroke-linejoin="bevel" transform="matrix(1,0,0,1,87.7658,101)" font-family="Ubuntu" font-size="11pt" font-weight="400" font-style="normal"  > <polyline fill="none" vector-effect="non-scaling-stroke" points="0,16 51.9763,16 " /> </g>      <g fill="#0030c1" fill-opacity="1" stroke="#0030c1" stroke-opacity="1" stroke-width="1" stroke-linecap="square" stroke-linejoin="bevel" transform="matrix(1,0,0,1,139.742,115.5)" font-family="Ubuntu" font-size="11pt" font-weight="400" font-style="normal"  > <path vector-effect="non-scaling-stroke" fill-rule="evenodd" d="M3,1.5 C3,2.32843 2.32843,3 1.5,3 C0.671573,3 0,2.32843 0,1.5 C0,0.671573 0.671573,0 1.5,0 C2.32843,0 3,0.671573 3,1.5 "/> </g>                        <g fill="none" stroke="#000000" stroke-opacity="1" stroke-width="1" stroke-linecap="butt" stroke-linejoin="bevel" transform="matrix(1,0,0,1,142.742,101)" font-family="Ubuntu" font-size="11pt" font-weight="400" font-style="normal"  > <polyline fill="none" vector-effect="non-scaling-stroke" points="0,8 24.8544,8 " /> </g>      <g fill="#0030c1" fill-opacity="1" stroke="#0030c1" stroke-opacity="1" stroke-width="1" stroke-linecap="square" stroke-linejoin="bevel" transform="matrix(1,0,0,1,167.597,107.5)" font-family="Ubuntu" font-size="11pt" font-weight="400" font-style="normal"  > <path vector-effect="non-scaling-stroke" fill-rule="evenodd" d="M3,1.5 C3,2.32843 2.32843,3 1.5,3 C0.671573,3 0,2.32843 0,1.5 C0,0.671573 0.671573,0 1.5,0 C2.32843,0 3,0.671573 3,1.5 "/> </g>          <g fill="none" stroke="#000000" stroke-opacity="1" stroke-width="1" stroke-linecap="square" stroke-linejoin="bevel" transform="matrix(1,0,0,1,170.597,101)" font-family="Arial" font-size="10pt" font-weight="400" font-style="normal"  > <text fill="#000000" fill-opacity="1" stroke="none" xml:space="preserve" x="0" y="13" font-family="Arial" font-size="10pt" font-weight="400" font-style="normal"   >VEGF-C</text> </g>                    <g fill="none" stroke="#000000" stroke-opacity="1" stroke-width="1" stroke-linecap="butt" stroke-linejoin="bevel" transform="matrix(1,0,0,1,142.742,117)" font-family="Ubuntu" font-size="11pt" font-weight="400" font-style="normal"  > <polyline fill="none" vector-effect="non-scaling-stroke" points="0,8 22.4047,8 " /> </g>      <g fill="#0030c1" fill-opacity="1" stroke="#0030c1" stroke-opacity="1" stroke-width="1" stroke-linecap="square" stroke-linejoin="bevel" transform="matrix(1,0,0,1,165.147,123.5)" font-family="Ubuntu" font-size="11pt" font-weight="400" font-style="normal"  > <path vector-effect="non-scaling-stroke" fill-rule="evenodd" d="M3,1.5 C3,2.32843 2.32843,3 1.5,3 C0.671573,3 0,2.32843 0,1.5 C0,0.671573 0.671573,0 1.5,0 C2.32843,0 3,0.671573 3,1.5 "/> </g>          <g fill="none" stroke="#000000" stroke-opacity="1" stroke-width="1" stroke-linecap="square" stroke-linejoin="bevel" transform="matrix(1,0,0,1,168.147,117)" font-family="Arial" font-size="10pt" font-weight="400" font-style="normal"  > <text fill="#000000" fill-opacity="1" stroke="none" xml:space="preserve" x="0" y="13" font-family="Arial" font-size="10pt" font-weight="400" font-style="normal"   >VEGF-D</text> </g>              <g fill="none" stroke="#000000" stroke-opacity="1" stroke-width="1" stroke-linecap="butt" stroke-linejoin="bevel" transform="matrix(1,0,0,1,87.7658,133)" font-family="Ubuntu" font-size="11pt" font-weight="400" font-style="normal"  > <polyline fill="none" vector-effect="non-scaling-stroke" points="13.8944,54 13.8944,184 " /> </g>            <g fill="none" stroke="#000000" stroke-opacity="1" stroke-width="1" stroke-linecap="butt" stroke-linejoin="bevel" transform="matrix(1,0,0,1,87.7658,133)" font-family="Ubuntu" font-size="11pt" font-weight="400" font-style="normal"  > <polyline fill="none" vector-effect="non-scaling-stroke" points="0,119 10.8944,119 " /> </g>      <g fill="#0030c1" fill-opacity="1" stroke="#0030c1" stroke-opacity="1" stroke-width="1" stroke-linecap="square" stroke-linejoin="bevel" transform="matrix(1,0,0,1,98.6602,250.5)" font-family="Ubuntu" font-size="11pt" font-weight="400" font-style="normal"  > <path vector-effect="non-scaling-stroke" fill-rule="evenodd" d="M3,1.5 C3,2.32843 2.32843,3 1.5,3 C0.671573,3 0,2.32843 0,1.5 C0,0.671573 0.671573,0 1.5,0 C2.32843,0 3,0.671573 3,1.5 "/> </g>                  <g fill="none" stroke="#000000" stroke-opacity="1" stroke-width="1" stroke-linecap="butt" stroke-linejoin="bevel" transform="matrix(1,0,0,1,101.66,133)" font-family="Ubuntu" font-size="11pt" font-weight="400" font-style="normal"  > <polyline fill="none" vector-effect="non-scaling-stroke" points="13.4654,16 13.4654,92 " /> </g>            <g fill="none" stroke="#000000" stroke-opacity="1" stroke-width="1" stroke-linecap="butt" stroke-linejoin="bevel" transform="matrix(1,0,0,1,101.66,133)" font-family="Ubuntu" font-size="11pt" font-weight="400" font-style="normal"  > <polyline fill="none" vector-effect="non-scaling-stroke" points="0,54 10.4654,54 " /> </g>      <g fill="#0030c1" fill-opacity="1" stroke="#0030c1" stroke-opacity="1" stroke-width="1" stroke-linecap="square" stroke-linejoin="bevel" transform="matrix(1,0,0,1,112.126,185.5)" font-family="Ubuntu" font-size="11pt" font-weight="400" font-style="normal"  > <path vector-effect="non-scaling-stroke" fill-rule="evenodd" d="M3,1.5 C3,2.32843 2.32843,3 1.5,3 C0.671573,3 0,2.32843 0,1.5 C0,0.671573 0.671573,0 1.5,0 C2.32843,0 3,0.671573 3,1.5 "/> </g>                  <g fill="none" stroke="#000000" stroke-opacity="1" stroke-width="1" stroke-linecap="butt" stroke-linejoin="bevel" transform="matrix(1,0,0,1,115.126,133)" font-family="Ubuntu" font-size="11pt" font-weight="400" font-style="normal"  > <polyline fill="none" vector-effect="non-scaling-stroke" points="61.771,8 61.771,24 " /> </g>            <g fill="none" stroke="#000000" stroke-opacity="1" stroke-width="1" stroke-linecap="butt" stroke-linejoin="bevel" transform="matrix(1,0,0,1,115.126,133)" font-family="Ubuntu" font-size="11pt" font-weight="400" font-style="normal"  > <polyline fill="none" vector-effect="non-scaling-stroke" points="0,16 58.771,16 " /> </g>      <g fill="#0030c1" fill-opacity="1" stroke="#0030c1" stroke-opacity="1" stroke-width="1" stroke-linecap="square" stroke-linejoin="bevel" transform="matrix(1,0,0,1,173.897,147.5)" font-family="Ubuntu" font-size="11pt" font-weight="400" font-style="normal"  > <path vector-effect="non-scaling-stroke" fill-rule="evenodd" d="M3,1.5 C3,2.32843 2.32843,3 1.5,3 C0.671573,3 0,2.32843 0,1.5 C0,0.671573 0.671573,0 1.5,0 C2.32843,0 3,0.671573 3,1.5 "/> </g>                        <g fill="none" stroke="#000000" stroke-opacity="1" stroke-width="1" stroke-linecap="butt" stroke-linejoin="bevel" transform="matrix(1,0,0,1,176.897,133)" font-family="Ubuntu" font-size="11pt" font-weight="400" font-style="normal"  > <polyline fill="none" vector-effect="non-scaling-stroke" points="0,8 25.1034,8 " /> </g>      <g fill="#0030c1" fill-opacity="1" stroke="#0030c1" stroke-opacity="1" stroke-width="1" stroke-linecap="square" stroke-linejoin="bevel" transform="matrix(1,0,0,1,202,139.5)" font-family="Ubuntu" font-size="11pt" font-weight="400" font-style="normal"  > <path vector-effect="non-scaling-stroke" fill-rule="evenodd" d="M3,1.5 C3,2.32843 2.32843,3 1.5,3 C0.671573,3 0,2.32843 0,1.5 C0,0.671573 0.671573,0 1.5,0 C2.32843,0 3,0.671573 3,1.5 "/> </g>          <g fill="none" stroke="#000000" stroke-opacity="1" stroke-width="1" stroke-linecap="square" stroke-linejoin="bevel" transform="matrix(1,0,0,1,205,133)" font-family="Arial" font-size="10pt" font-weight="400" font-style="normal"  > <text fill="#000000" fill-opacity="1" stroke="none" xml:space="preserve" x="0" y="13" font-family="Arial" font-size="10pt" font-weight="400" font-style="normal"   >PDGF-D</text> </g>                    <g fill="none" stroke="#000000" stroke-opacity="1" stroke-width="1" stroke-linecap="butt" stroke-linejoin="bevel" transform="matrix(1,0,0,1,176.897,149)" font-family="Ubuntu" font-size="11pt" font-weight="400" font-style="normal"  > <polyline fill="none" vector-effect="non-scaling-stroke" points="0,8 21.8872,8 " /> </g>      <g fill="#0030c1" fill-opacity="1" stroke="#0030c1" stroke-opacity="1" stroke-width="1" stroke-linecap="square" stroke-linejoin="bevel" transform="matrix(1,0,0,1,198.784,155.5)" font-family="Ubuntu" font-size="11pt" font-weight="400" font-style="normal"  > <path vector-effect="non-scaling-stroke" fill-rule="evenodd" d="M3,1.5 C3,2.32843 2.32843,3 1.5,3 C0.671573,3 0,2.32843 0,1.5 C0,0.671573 0.671573,0 1.5,0 C2.32843,0 3,0.671573 3,1.5 "/> </g>          <g fill="none" stroke="#000000" stroke-opacity="1" stroke-width="1" stroke-linecap="square" stroke-linejoin="bevel" transform="matrix(1,0,0,1,201.784,149)" font-family="Arial" font-size="10pt" font-weight="400" font-style="normal"  > <text fill="#000000" fill-opacity="1" stroke="none" xml:space="preserve" x="0" y="13" font-family="Arial" font-size="10pt" font-weight="400" font-style="normal"   >PDGF-C</text> </g>              <g fill="none" stroke="#000000" stroke-opacity="1" stroke-width="1" stroke-linecap="butt" stroke-linejoin="bevel" transform="matrix(1,0,0,1,115.126,165)" font-family="Ubuntu" font-size="11pt" font-weight="400" font-style="normal"  > <polyline fill="none" vector-effect="non-scaling-stroke" points="3,22 3,98 " /> </g>                  <g fill="#0030c1" fill-opacity="1" stroke="#0030c1" stroke-opacity="1" stroke-width="1" stroke-linecap="square" stroke-linejoin="bevel" transform="matrix(1,0,0,1,115.126,223.5)" font-family="Ubuntu" font-size="11pt" font-weight="400" font-style="normal"  > <path vector-effect="non-scaling-stroke" fill-rule="evenodd" d="M3,1.5 C3,2.32843 2.32843,3 1.5,3 C0.671573,3 0,2.32843 0,1.5 C0,0.671573 0.671573,0 1.5,0 C2.32843,0 3,0.671573 3,1.5 "/> </g>                  <g fill="none" stroke="#000000" stroke-opacity="1" stroke-width="1" stroke-linecap="butt" stroke-linejoin="bevel" transform="matrix(1,0,0,1,118.126,165)" font-family="Ubuntu" font-size="11pt" font-weight="400" font-style="normal"  > <polyline fill="none" vector-effect="non-scaling-stroke" points="8.20154,8 8.20154,36 " /> </g>            <g fill="none" stroke="#000000" stroke-opacity="1" stroke-width="1" stroke-linecap="butt" stroke-linejoin="bevel" transform="matrix(1,0,0,1,118.126,165)" font-family="Ubuntu" font-size="11pt" font-weight="400" font-style="normal"  > <polyline fill="none" vector-effect="non-scaling-stroke" points="0,22 5.20154,22 " /> </g>      <g fill="#0030c1" fill-opacity="1" stroke="#0030c1" stroke-opacity="1" stroke-width="1" stroke-linecap="square" stroke-linejoin="bevel" transform="matrix(1,0,0,1,123.327,185.5)" font-family="Ubuntu" font-size="11pt" font-weight="400" font-style="normal"  > <path vector-effect="non-scaling-stroke" fill-rule="evenodd" d="M3,1.5 C3,2.32843 2.32843,3 1.5,3 C0.671573,3 0,2.32843 0,1.5 C0,0.671573 0.671573,0 1.5,0 C2.32843,0 3,0.671573 3,1.5 "/> </g>                        <g fill="none" stroke="#000000" stroke-opacity="1" stroke-width="1" stroke-linecap="butt" stroke-linejoin="bevel" transform="matrix(1,0,0,1,126.327,165)" font-family="Ubuntu" font-size="11pt" font-weight="400" font-style="normal"  > <polyline fill="none" vector-effect="non-scaling-stroke" points="0,8 31.1798,8 " /> </g>      <g fill="#0030c1" fill-opacity="1" stroke="#0030c1" stroke-opacity="1" stroke-width="1" stroke-linecap="square" stroke-linejoin="bevel" transform="matrix(1,0,0,1,157.507,171.5)" font-family="Ubuntu" font-size="11pt" font-weight="400" font-style="normal"  > <path vector-effect="non-scaling-stroke" fill-rule="evenodd" d="M3,1.5 C3,2.32843 2.32843,3 1.5,3 C0.671573,3 0,2.32843 0,1.5 C0,0.671573 0.671573,0 1.5,0 C2.32843,0 3,0.671573 3,1.5 "/> </g>          <g fill="none" stroke="#000000" stroke-opacity="1" stroke-width="1" stroke-linecap="square" stroke-linejoin="bevel" transform="matrix(1,0,0,1,160.507,165)" font-family="Arial" font-size="10pt" font-weight="400" font-style="normal"  > <text fill="#000000" fill-opacity="1" stroke="none" xml:space="preserve" x="0" y="13" font-family="Arial" font-size="10pt" font-weight="400" font-style="normal"   >PlGF-1</text> </g>              <g fill="none" stroke="#000000" stroke-opacity="1" stroke-width="1" stroke-linecap="butt" stroke-linejoin="bevel" transform="matrix(1,0,0,1,126.327,181)" font-family="Ubuntu" font-size="11pt" font-weight="400" font-style="normal"  > <polyline fill="none" vector-effect="non-scaling-stroke" points="17.5351,8 17.5351,32 " /> </g>            <g fill="none" stroke="#000000" stroke-opacity="1" stroke-width="1" stroke-linecap="butt" stroke-linejoin="bevel" transform="matrix(1,0,0,1,126.327,181)" font-family="Ubuntu" font-size="11pt" font-weight="400" font-style="normal"  > <polyline fill="none" vector-effect="non-scaling-stroke" points="0,20 14.5351,20 " /> </g>      <g fill="#0030c1" fill-opacity="1" stroke="#0030c1" stroke-opacity="1" stroke-width="1" stroke-linecap="square" stroke-linejoin="bevel" transform="matrix(1,0,0,1,140.862,199.5)" font-family="Ubuntu" font-size="11pt" font-weight="400" font-style="normal"  > <path vector-effect="non-scaling-stroke" fill-rule="evenodd" d="M3,1.5 C3,2.32843 2.32843,3 1.5,3 C0.671573,3 0,2.32843 0,1.5 C0,0.671573 0.671573,0 1.5,0 C2.32843,0 3,0.671573 3,1.5 "/> </g>                              <g fill="#0030c1" fill-opacity="1" stroke="#0030c1" stroke-opacity="1" stroke-width="1" stroke-linecap="square" stroke-linejoin="bevel" transform="matrix(1,0,0,1,143.862,187.5)" font-family="Ubuntu" font-size="11pt" font-weight="400" font-style="normal"  > <path vector-effect="non-scaling-stroke" fill-rule="evenodd" d="M3,1.5 C3,2.32843 2.32843,3 1.5,3 C0.671573,3 0,2.32843 0,1.5 C0,0.671573 0.671573,0 1.5,0 C2.32843,0 3,0.671573 3,1.5 "/> </g>          <g fill="none" stroke="#000000" stroke-opacity="1" stroke-width="1" stroke-linecap="square" stroke-linejoin="bevel" transform="matrix(1,0,0,1,146.862,181)" font-family="Arial" font-size="10pt" font-weight="400" font-style="normal"  > <text fill="#000000" fill-opacity="1" stroke="none" xml:space="preserve" x="0" y="13" font-family="Arial" font-size="10pt" font-weight="400" font-style="normal"   >VEGF-A165</text> </g>              <g fill="none" stroke="#000000" stroke-opacity="1" stroke-width="1" stroke-linecap="butt" stroke-linejoin="bevel" transform="matrix(1,0,0,1,143.862,197)" font-family="Ubuntu" font-size="11pt" font-weight="400" font-style="normal"  > <polyline fill="none" vector-effect="non-scaling-stroke" points="3.25762,8 3.25762,24 " /> </g>            <g fill="none" stroke="#000000" stroke-opacity="1" stroke-width="1" stroke-linecap="butt" stroke-linejoin="bevel" transform="matrix(1,0,0,1,143.862,197)" font-family="Ubuntu" font-size="11pt" font-weight="400" font-style="normal"  > <polyline fill="none" vector-effect="non-scaling-stroke" points="0,16 0.257618,16 " /> </g>      <g fill="#0030c1" fill-opacity="1" stroke="#0030c1" stroke-opacity="1" stroke-width="1" stroke-linecap="square" stroke-linejoin="bevel" transform="matrix(1,0,0,1,144.12,211.5)" font-family="Ubuntu" font-size="11pt" font-weight="400" font-style="normal"  > <path vector-effect="non-scaling-stroke" fill-rule="evenodd" d="M3,1.5 C3,2.32843 2.32843,3 1.5,3 C0.671573,3 0,2.32843 0,1.5 C0,0.671573 0.671573,0 1.5,0 C2.32843,0 3,0.671573 3,1.5 "/> </g>                              <g fill="#0030c1" fill-opacity="1" stroke="#0030c1" stroke-opacity="1" stroke-width="1" stroke-linecap="square" stroke-linejoin="bevel" transform="matrix(1,0,0,1,147.12,203.5)" font-family="Ubuntu" font-size="11pt" font-weight="400" font-style="normal"  > <path vector-effect="non-scaling-stroke" fill-rule="evenodd" d="M3,1.5 C3,2.32843 2.32843,3 1.5,3 C0.671573,3 0,2.32843 0,1.5 C0,0.671573 0.671573,0 1.5,0 C2.32843,0 3,0.671573 3,1.5 "/> </g>          <g fill="none" stroke="#000000" stroke-opacity="1" stroke-width="1" stroke-linecap="square" stroke-linejoin="bevel" transform="matrix(1,0,0,1,150.12,197)" font-family="Arial" font-size="10pt" font-weight="400" font-style="normal"  > <text fill="#000000" fill-opacity="1" stroke="none" xml:space="preserve" x="0" y="13" font-family="Arial" font-size="10pt" font-weight="400" font-style="normal"   >VEGF-A206</text> </g>                          <g fill="#0030c1" fill-opacity="1" stroke="#0030c1" stroke-opacity="1" stroke-width="1" stroke-linecap="square" stroke-linejoin="bevel" transform="matrix(1,0,0,1,147.12,219.5)" font-family="Ubuntu" font-size="11pt" font-weight="400" font-style="normal"  > <path vector-effect="non-scaling-stroke" fill-rule="evenodd" d="M3,1.5 C3,2.32843 2.32843,3 1.5,3 C0.671573,3 0,2.32843 0,1.5 C0,0.671573 0.671573,0 1.5,0 C2.32843,0 3,0.671573 3,1.5 "/> </g>          <g fill="none" stroke="#000000" stroke-opacity="1" stroke-width="1" stroke-linecap="square" stroke-linejoin="bevel" transform="matrix(1,0,0,1,150.12,213)" font-family="Arial" font-size="10pt" font-weight="400" font-style="normal"  > <text fill="#000000" fill-opacity="1" stroke="none" xml:space="preserve" x="0" y="13" font-family="Arial" font-size="10pt" font-weight="400" font-style="normal"   >VEGF-A121</text> </g>              <g fill="none" stroke="#000000" stroke-opacity="1" stroke-width="1" stroke-linecap="butt" stroke-linejoin="bevel" transform="matrix(1,0,0,1,118.126,229)" font-family="Ubuntu" font-size="11pt" font-weight="400" font-style="normal"  > <polyline fill="none" vector-effect="non-scaling-stroke" points="29.2626,17 29.2626,51 " /> </g>            <g fill="none" stroke="#000000" stroke-opacity="1" stroke-width="1" stroke-linecap="butt" stroke-linejoin="bevel" transform="matrix(1,0,0,1,118.126,229)" font-family="Ubuntu" font-size="11pt" font-weight="400" font-style="normal"  > <polyline fill="none" vector-effect="non-scaling-stroke" points="0,34 26.2626,34 " /> </g>      <g fill="#0030c1" fill-opacity="1" stroke="#0030c1" stroke-opacity="1" stroke-width="1" stroke-linecap="square" stroke-linejoin="bevel" transform="matrix(1,0,0,1,144.388,261.5)" font-family="Ubuntu" font-size="11pt" font-weight="400" font-style="normal"  > <path vector-effect="non-scaling-stroke" fill-rule="evenodd" d="M3,1.5 C3,2.32843 2.32843,3 1.5,3 C0.671573,3 0,2.32843 0,1.5 C0,0.671573 0.671573,0 1.5,0 C2.32843,0 3,0.671573 3,1.5 "/> </g>                  <g fill="none" stroke="#000000" stroke-opacity="1" stroke-width="1" stroke-linecap="butt" stroke-linejoin="bevel" transform="matrix(1,0,0,1,147.388,229)" font-family="Ubuntu" font-size="11pt" font-weight="400" font-style="normal"  > <polyline fill="none" vector-effect="non-scaling-stroke" points="3.49529,8.5 3.49529,25.5 " /> </g>            <g fill="none" stroke="#000000" stroke-opacity="1" stroke-width="1" stroke-linecap="butt" stroke-linejoin="bevel" transform="matrix(1,0,0,1,147.388,229)" font-family="Ubuntu" font-size="11pt" font-weight="400" font-style="normal"  > <polyline fill="none" vector-effect="non-scaling-stroke" points="0,17 0.49529,17 " /> </g>      <g fill="#0030c1" fill-opacity="1" stroke="#0030c1" stroke-opacity="1" stroke-width="1" stroke-linecap="square" stroke-linejoin="bevel" transform="matrix(1,0,0,1,147.884,244.5)" font-family="Ubuntu" font-size="11pt" font-weight="400" font-style="normal"  > <path vector-effect="non-scaling-stroke" fill-rule="evenodd" d="M3,1.5 C3,2.32843 2.32843,3 1.5,3 C0.671573,3 0,2.32843 0,1.5 C0,0.671573 0.671573,0 1.5,0 C2.32843,0 3,0.671573 3,1.5 "/> </g>                              <g fill="#0030c1" fill-opacity="1" stroke="#0030c1" stroke-opacity="1" stroke-width="1" stroke-linecap="square" stroke-linejoin="bevel" transform="matrix(1,0,0,1,150.884,236)" font-family="Ubuntu" font-size="11pt" font-weight="400" font-style="normal"  > <path vector-effect="non-scaling-stroke" fill-rule="evenodd" d="M3,1.5 C3,2.32843 2.32843,3 1.5,3 C0.671573,3 0,2.32843 0,1.5 C0,0.671573 0.671573,0 1.5,0 C2.32843,0 3,0.671573 3,1.5 "/> </g>          <g fill="none" stroke="#000000" stroke-opacity="1" stroke-width="1" stroke-linecap="square" stroke-linejoin="bevel" transform="matrix(1,0,0,1,153.884,229.5)" font-family="Arial" font-size="10pt" font-weight="400" font-style="normal"  > <text fill="#000000" fill-opacity="1" stroke="none" xml:space="preserve" x="0" y="13" font-family="Arial" font-size="10pt" font-weight="400" font-style="normal"   >AFH40436.1</text> </g>                  <g fill="none" stroke="#000000" stroke-opacity="1" stroke-width="1" stroke-linecap="square" stroke-linejoin="bevel" transform="matrix(1,0,0,1,257,229)" font-family="Verdana" font-size="10pt" font-weight="400" font-style="normal"  > <text fill="#000000" fill-opacity="1" stroke="none" xml:space="preserve" x="0" y="14" font-family="Verdana" font-size="10pt" font-weight="400" font-style="normal"   >('PDGF-D', 'vascular endothelial growth factor A, partial [Protopterus annectens]', 'None')</text> </g>                  <g fill="#0030c1" fill-opacity="1" stroke="#0030c1" stroke-opacity="1" stroke-width="1" stroke-linecap="square" stroke-linejoin="bevel" transform="matrix(1,0,0,1,150.884,253)" font-family="Ubuntu" font-size="11pt" font-weight="400" font-style="normal"  > <path vector-effect="non-scaling-stroke" fill-rule="evenodd" d="M3,1.5 C3,2.32843 2.32843,3 1.5,3 C0.671573,3 0,2.32843 0,1.5 C0,0.671573 0.671573,0 1.5,0 C2.32843,0 3,0.671573 3,1.5 "/> </g>          <g fill="none" stroke="#000000" stroke-opacity="1" stroke-width="1" stroke-linecap="square" stroke-linejoin="bevel" transform="matrix(1,0,0,1,153.884,246.5)" font-family="Arial" font-size="10pt" font-weight="400" font-style="normal"  > <text fill="#000000" fill-opacity="1" stroke="none" xml:space="preserve" x="0" y="13" font-family="Arial" font-size="10pt" font-weight="400" font-style="normal"   >AFH40436.1_1</text> </g>                  <g fill="none" stroke="#000000" stroke-opacity="1" stroke-width="1" stroke-linecap="square" stroke-linejoin="bevel" transform="matrix(1,0,0,1,257,246)" font-family="Verdana" font-size="10pt" font-weight="400" font-style="normal"  > <text fill="#000000" fill-opacity="1" stroke="none" xml:space="preserve" x="0" y="14" font-family="Verdana" font-size="10pt" font-weight="400" font-style="normal"   >('PDGF-D', 'vascular endothelial growth factor A, partial [Protopterus annectens]', 'None')</text> </g>      <g fill="none" stroke="#000000" stroke-opacity="1" stroke-width="1" stroke-linecap="butt" stroke-linejoin="bevel" transform="matrix(1,0,0,1,147.388,263)" font-family="Ubuntu" font-size="11pt" font-weight="400" font-style="normal"  > <polyline fill="none" vector-effect="non-scaling-stroke" points="3,8.5 3,25.5 " /> </g>                  <g fill="#0030c1" fill-opacity="1" stroke="#0030c1" stroke-opacity="1" stroke-width="1" stroke-linecap="square" stroke-linejoin="bevel" transform="matrix(1,0,0,1,147.388,278.5)" font-family="Ubuntu" font-size="11pt" font-weight="400" font-style="normal"  > <path vector-effect="non-scaling-stroke" fill-rule="evenodd" d="M3,1.5 C3,2.32843 2.32843,3 1.5,3 C0.671573,3 0,2.32843 0,1.5 C0,0.671573 0.671573,0 1.5,0 C2.32843,0 3,0.671573 3,1.5 "/> </g>                              <g fill="#0030c1" fill-opacity="1" stroke="#0030c1" stroke-opacity="1" stroke-width="1" stroke-linecap="square" stroke-linejoin="bevel" transform="matrix(1,0,0,1,150.388,270)" font-family="Ubuntu" font-size="11pt" font-weight="400" font-style="normal"  > <path vector-effect="non-scaling-stroke" fill-rule="evenodd" d="M3,1.5 C3,2.32843 2.32843,3 1.5,3 C0.671573,3 0,2.32843 0,1.5 C0,0.671573 0.671573,0 1.5,0 C2.32843,0 3,0.671573 3,1.5 "/> </g>          <g fill="none" stroke="#000000" stroke-opacity="1" stroke-width="1" stroke-linecap="square" stroke-linejoin="bevel" transform="matrix(1,0,0,1,153.388,263.5)" font-family="Arial" font-size="10pt" font-weight="400" font-style="normal"  > <text fill="#000000" fill-opacity="1" stroke="none" xml:space="preserve" x="0" y="13" font-family="Arial" font-size="10pt" font-weight="400" font-style="normal"   >AFH40435.1_1</text> </g>                  <g fill="none" stroke="#000000" stroke-opacity="1" stroke-width="1" stroke-linecap="square" stroke-linejoin="bevel" transform="matrix(1,0,0,1,257,263)" font-family="Verdana" font-size="10pt" font-weight="400" font-style="normal"  > <text fill="#000000" fill-opacity="1" stroke="none" xml:space="preserve" x="0" y="14" font-family="Verdana" font-size="10pt" font-weight="400" font-style="normal"   >('PDGF-D', 'vascular endothelial growth factor A, partial [Protopterus annectens]', 'None')</text> </g>                  <g fill="#0030c1" fill-opacity="1" stroke="#0030c1" stroke-opacity="1" stroke-width="1" stroke-linecap="square" stroke-linejoin="bevel" transform="matrix(1,0,0,1,150.388,287)" font-family="Ubuntu" font-size="11pt" font-weight="400" font-style="normal"  > <path vector-effect="non-scaling-stroke" fill-rule="evenodd" d="M3,1.5 C3,2.32843 2.32843,3 1.5,3 C0.671573,3 0,2.32843 0,1.5 C0,0.671573 0.671573,0 1.5,0 C2.32843,0 3,0.671573 3,1.5 "/> </g>          <g fill="none" stroke="#000000" stroke-opacity="1" stroke-width="1" stroke-linecap="square" stroke-linejoin="bevel" transform="matrix(1,0,0,1,153.388,280.5)" font-family="Arial" font-size="10pt" font-weight="400" font-style="normal"  > <text fill="#000000" fill-opacity="1" stroke="none" xml:space="preserve" x="0" y="13" font-family="Arial" font-size="10pt" font-weight="400" font-style="normal"   >AFH40435.1</text> </g>                  <g fill="none" stroke="#000000" stroke-opacity="1" stroke-width="1" stroke-linecap="square" stroke-linejoin="bevel" transform="matrix(1,0,0,1,257,280)" font-family="Verdana" font-size="10pt" font-weight="400" font-style="normal"  > <text fill="#000000" fill-opacity="1" stroke="none" xml:space="preserve" x="0" y="14" font-family="Verdana" font-size="10pt" font-weight="400" font-style="normal"   >('PDGF-D', 'vascular endothelial growth factor A, partial [Protopterus annectens]', 'None')</text> </g>      <g fill="none" stroke="#000000" stroke-opacity="1" stroke-width="1" stroke-linecap="butt" stroke-linejoin="bevel" transform="matrix(1,0,0,1,101.66,297)" font-family="Ubuntu" font-size="11pt" font-weight="400" font-style="normal"  > <polyline fill="none" vector-effect="non-scaling-stroke" points="9.8048,8 9.8048,32 " /> </g>            <g fill="none" stroke="#000000" stroke-opacity="1" stroke-width="1" stroke-linecap="butt" stroke-linejoin="bevel" transform="matrix(1,0,0,1,101.66,297)" font-family="Ubuntu" font-size="11pt" font-weight="400" font-style="normal"  > <polyline fill="none" vector-effect="non-scaling-stroke" points="0,20 6.8048,20 " /> </g>      <g fill="#0030c1" fill-opacity="1" stroke="#0030c1" stroke-opacity="1" stroke-width="1" stroke-linecap="square" stroke-linejoin="bevel" transform="matrix(1,0,0,1,108.465,315.5)" font-family="Ubuntu" font-size="11pt" font-weight="400" font-style="normal"  > <path vector-effect="non-scaling-stroke" fill-rule="evenodd" d="M3,1.5 C3,2.32843 2.32843,3 1.5,3 C0.671573,3 0,2.32843 0,1.5 C0,0.671573 0.671573,0 1.5,0 C2.32843,0 3,0.671573 3,1.5 "/> </g>                        <g fill="none" stroke="#000000" stroke-opacity="1" stroke-width="1" stroke-linecap="butt" stroke-linejoin="bevel" transform="matrix(1,0,0,1,111.465,297)" font-family="Ubuntu" font-size="11pt" font-weight="400" font-style="normal"  > <polyline fill="none" vector-effect="non-scaling-stroke" points="0,8 34.402,8 " /> </g>      <g fill="#0030c1" fill-opacity="1" stroke="#0030c1" stroke-opacity="1" stroke-width="1" stroke-linecap="square" stroke-linejoin="bevel" transform="matrix(1,0,0,1,145.867,303.5)" font-family="Ubuntu" font-size="11pt" font-weight="400" font-style="normal"  > <path vector-effect="non-scaling-stroke" fill-rule="evenodd" d="M3,1.5 C3,2.32843 2.32843,3 1.5,3 C0.671573,3 0,2.32843 0,1.5 C0,0.671573 0.671573,0 1.5,0 C2.32843,0 3,0.671573 3,1.5 "/> </g>          <g fill="none" stroke="#000000" stroke-opacity="1" stroke-width="1" stroke-linecap="square" stroke-linejoin="bevel" transform="matrix(1,0,0,1,148.867,297)" font-family="Arial" font-size="10pt" font-weight="400" font-style="normal"  > <text fill="#000000" fill-opacity="1" stroke="none" xml:space="preserve" x="0" y="13" font-family="Arial" font-size="10pt" font-weight="400" font-style="normal"   >VEGF-F</text> </g>              <g fill="none" stroke="#000000" stroke-opacity="1" stroke-width="1" stroke-linecap="butt" stroke-linejoin="bevel" transform="matrix(1,0,0,1,111.465,313)" font-family="Ubuntu" font-size="11pt" font-weight="400" font-style="normal"  > <polyline fill="none" vector-effect="non-scaling-stroke" points="27.3868,8 27.3868,24 " /> </g>            <g fill="none" stroke="#000000" stroke-opacity="1" stroke-width="1" stroke-linecap="butt" stroke-linejoin="bevel" transform="matrix(1,0,0,1,111.465,313)" font-family="Ubuntu" font-size="11pt" font-weight="400" font-style="normal"  > <polyline fill="none" vector-effect="non-scaling-stroke" points="0,16 24.3868,16 " /> </g>      <g fill="#0030c1" fill-opacity="1" stroke="#0030c1" stroke-opacity="1" stroke-width="1" stroke-linecap="square" stroke-linejoin="bevel" transform="matrix(1,0,0,1,135.852,327.5)" font-family="Ubuntu" font-size="11pt" font-weight="400" font-style="normal"  > <path vector-effect="non-scaling-stroke" fill-rule="evenodd" d="M3,1.5 C3,2.32843 2.32843,3 1.5,3 C0.671573,3 0,2.32843 0,1.5 C0,0.671573 0.671573,0 1.5,0 C2.32843,0 3,0.671573 3,1.5 "/> </g>                        <g fill="none" stroke="#000000" stroke-opacity="1" stroke-width="1" stroke-linecap="butt" stroke-linejoin="bevel" transform="matrix(1,0,0,1,138.852,313)" font-family="Ubuntu" font-size="11pt" font-weight="400" font-style="normal"  > <polyline fill="none" vector-effect="non-scaling-stroke" points="0,8 3.88739,8 " /> </g>      <g fill="#0030c1" fill-opacity="1" stroke="#0030c1" stroke-opacity="1" stroke-width="1" stroke-linecap="square" stroke-linejoin="bevel" transform="matrix(1,0,0,1,142.739,319.5)" font-family="Ubuntu" font-size="11pt" font-weight="400" font-style="normal"  > <path vector-effect="non-scaling-stroke" fill-rule="evenodd" d="M3,1.5 C3,2.32843 2.32843,3 1.5,3 C0.671573,3 0,2.32843 0,1.5 C0,0.671573 0.671573,0 1.5,0 C2.32843,0 3,0.671573 3,1.5 "/> </g>          <g fill="none" stroke="#000000" stroke-opacity="1" stroke-width="1" stroke-linecap="square" stroke-linejoin="bevel" transform="matrix(1,0,0,1,145.739,313)" font-family="Arial" font-size="10pt" font-weight="400" font-style="normal"  > <text fill="#000000" fill-opacity="1" stroke="none" xml:space="preserve" x="0" y="13" font-family="Arial" font-size="10pt" font-weight="400" font-style="normal"   >VEGF-B167</text> </g>                    <g fill="none" stroke="#000000" stroke-opacity="1" stroke-width="1" stroke-linecap="butt" stroke-linejoin="bevel" transform="matrix(1,0,0,1,138.852,329)" font-family="Ubuntu" font-size="11pt" font-weight="400" font-style="normal"  > <polyline fill="none" vector-effect="non-scaling-stroke" points="0,8 7.47646,8 " /> </g>      <g fill="#0030c1" fill-opacity="1" stroke="#0030c1" stroke-opacity="1" stroke-width="1" stroke-linecap="square" stroke-linejoin="bevel" transform="matrix(1,0,0,1,146.328,335.5)" font-family="Ubuntu" font-size="11pt" font-weight="400" font-style="normal"  > <path vector-effect="non-scaling-stroke" fill-rule="evenodd" d="M3,1.5 C3,2.32843 2.32843,3 1.5,3 C0.671573,3 0,2.32843 0,1.5 C0,0.671573 0.671573,0 1.5,0 C2.32843,0 3,0.671573 3,1.5 "/> </g>          <g fill="none" stroke="#000000" stroke-opacity="1" stroke-width="1" stroke-linecap="square" stroke-linejoin="bevel" transform="matrix(1,0,0,1,149.328,329)" font-family="Arial" font-size="10pt" font-weight="400" font-style="normal"  > <text fill="#000000" fill-opacity="1" stroke="none" xml:space="preserve" x="0" y="13" font-family="Arial" font-size="10pt" font-weight="400" font-style="normal"   >VEGF-B186</text> </g>                                                                                                                                                                              <g fill="none" stroke="#000000" stroke-opacity="1" stroke-width="1" stroke-linecap="square" stroke-linejoin="bevel" transform="matrix(1,0,0,1,1,346)" font-family="Ubuntu" font-size="11pt" font-weight="400" font-style="normal"  > <polyline fill="none" vector-effect="none" points="0,5 50,5 " /> </g>      <g fill="none" stroke="#000000" stroke-opacity="1" stroke-width="1" stroke-linecap="square" stroke-linejoin="bevel" transform="matrix(1,0,0,1,1,346)" font-family="Ubuntu" font-size="11pt" font-weight="400" font-style="normal"  > <polyline fill="none" vector-effect="none" points="0,0 0,10 " /> </g>      <g fill="none" stroke="#000000" stroke-opacity="1" stroke-width="1" stroke-linecap="square" stroke-linejoin="bevel" transform="matrix(1,0,0,1,1,346)" font-family="Ubuntu" font-size="11pt" font-weight="400" font-style="normal"  > <polyline fill="none" vector-effect="none" points="50,0 50,10 " /> </g>      <g fill="none" stroke="#000000" stroke-opacity="1" stroke-width="1" stroke-linecap="square" stroke-linejoin="bevel" transform="matrix(1,0,0,1,1,356)" font-family="Ubuntu" font-size="11pt" font-weight="400" font-style="normal"  > <text fill="#000000" fill-opacity="1" stroke="none" xml:space="preserve" x="0" y="14" font-family="Ubuntu" font-size="11pt" font-weight="400" font-style="normal"   >1.10317</text> </g>     </g> </svg> 