<?xml version="1.0" encoding="UTF-8" standalone="no"?>
<!-- Created with Inkscape (http://www.inkscape.org/) -->

<svg
   xmlns:dc="http://purl.org/dc/elements/1.1/"
   xmlns:cc="http://creativecommons.org/ns#"
   xmlns:rdf="http://www.w3.org/1999/02/22-rdf-syntax-ns#"
   xmlns:svg="http://www.w3.org/2000/svg"
   xmlns="http://www.w3.org/2000/svg"
   xmlns:sodipodi="http://sodipodi.sourceforge.net/DTD/sodipodi-0.dtd"
   xmlns:inkscape="http://www.inkscape.org/namespaces/inkscape"
   version="1.1"
   width="297mm"
   height="210mm"
   viewBox="0 0 1122.5197 793.7008"
   id="svg2"
   xml:space="preserve"
   sodipodi:docname="Danio_rerio.svg"
   inkscape:version="0.92.3 (unknown)"><metadata
   id="metadata13"><rdf:RDF><cc:Work
       rdf:about=""><dc:format>image/svg+xml</dc:format><dc:type
         rdf:resource="http://purl.org/dc/dcmitype/StillImage" /><dc:title /></cc:Work></rdf:RDF></metadata><sodipodi:namedview
   pagecolor="#ffffff"
   bordercolor="#666666"
   borderopacity="1"
   objecttolerance="10"
   gridtolerance="10"
   guidetolerance="10"
   inkscape:pageopacity="0"
   inkscape:pageshadow="2"
   inkscape:window-width="2025"
   inkscape:window-height="1179"
   id="namedview11"
   showgrid="false"
   units="mm"
   inkscape:zoom="0.92386167"
   inkscape:cx="368.0491"
   inkscape:cy="396.85039"
   inkscape:window-x="75"
   inkscape:window-y="34"
   inkscape:window-maximized="0"
   inkscape:current-layer="svg2" /><defs
   id="defs17">
	
	
	
	
</defs>
<g
   id="Calque_1"
   transform="translate(0,541.70079)">
</g>
<g
   id="Calque_2"
   transform="translate(0,541.70079)">
</g>
<path
   style="fill:#231f20;stroke:#231f20;stroke-width:0.49999994;stroke-miterlimit:10"
   d="M 661.02734 244.21289 L 629.64648 253.92969 L 555.61914 281.45898 L 529.87109 283.88867 L 467.91406 274.98242 L 381.01172 272.55273 L 289.2832 279.83984 C 289.2832 279.83984 233.76343 291.98633 229.74023 291.98633 C 225.71704 291.98633 157.32227 304.94141 157.32227 304.94141 L 117.08984 325.18359 L 116.28516 347.85547 L 130.76953 381.86133 L 162.95508 415.86914 L 195.14062 435.30273 L 216.86523 445.01953 L 245.83203 444.20898 L 267.55859 454.73438 L 294.11133 466.88086 L 344.80273 483.88477 L 402.73828 493.59961 L 466.30469 496.83984 L 476.76367 509.79492 L 505.73047 529.22656 L 530.67578 531.65625 C 530.67578 531.65625 541.93955 525.17909 543.54883 522.75 C 545.15811 520.3209 554.81445 500.07814 554.81445 500.07812 L 558.0332 482.26562 C 558.0332 482.26563 576.53961 478.2168 585.39062 478.2168 C 591.95215 478.2168 590.11183 475.99675 588.7207 474.8457 L 615.16211 494.41016 L 658.61328 524.36914 L 676.31445 529.22656 L 688.38477 521.93945 L 710.91406 499.26758 L 737.4668 479.83594 L 762.41211 453.92578 L 735.05273 442.58984 L 728.61719 434.49219 L 731.83398 426.39648 L 769.65234 433.68359 L 813.10352 444.20898 L 847.70312 466.07031 L 907.24609 522.75 L 948.2832 545.42188 L 969.20312 549.46875 L 974.83594 536.51367 L 959.54688 487.12305 L 944.25977 436.92188 L 965.17969 423.15625 L 986.90625 413.43945 L 1002.1934 400.48438 L 1006.2168 382.67188 L 991.73438 362.42969 L 969.20312 355.95117 L 905.63672 355.95117 C 905.63672 355.95117 823.56431 353.52344 821.15039 353.52344 C 818.73647 353.52344 731.83398 337.32814 731.83398 337.32812 L 698.04102 326.80273 L 711.71875 316.27734 L 720.57031 303.32227 L 718.96094 288.74609 L 706.08594 265.26562 L 685.9707 254.74023 L 661.02734 244.21289 z M 250.9707 318.62305 C 255.03535 318.45561 261.12109 321.13477 261.12109 321.13477 L 306.18164 323.56445 L 338.36719 324.37305 C 338.36719 324.37305 392.2775 326.80189 394.69141 325.99219 C 397.10533 325.18249 447.79688 328.42188 447.79688 328.42188 L 509.75391 329.23242 L 549.18164 330.85156 L 592.63281 334.08984 L 611.13867 341.37695 L 599.875 341.37695 L 557.22852 341.37695 L 508.14453 341.37695 C 505.73061 341.37695 475.15415 339.75781 472.74023 339.75781 C 470.32631 339.75781 434.92345 341.37806 428.48633 340.56836 C 422.04922 339.75866 369.74805 338.13867 369.74805 338.13867 C 369.74805 338.13867 323.88209 339.75721 311.8125 337.32812 C 299.74291 334.89902 257.90234 332.4707 257.90234 332.4707 L 246.63672 326.80273 L 247.44141 321.13477 C 247.69286 319.36355 249.12314 318.69915 250.9707 318.62305 z M 257.90234 346.23633 L 297.33008 355.95117 C 297.33008 355.95117 312.61777 359.19141 322.27344 359.19141 C 331.92911 359.19141 388.25425 359.19056 393.88672 358.38086 C 399.5192 357.57117 463.08594 360.81055 463.08594 360.81055 L 541.13477 364.85938 L 592.63281 364.04883 L 623.20898 367.28711 L 686.77539 372.14648 L 735.05273 376.19336 L 783.33203 380.24219 L 817.93164 384.29102 L 837.24219 384.29102 L 830.80469 394.00781 L 792.18359 390.76953 C 792.18359 390.76953 715.74206 385.10046 713.32812 385.91016 C 710.91422 386.71986 616.77148 377.81445 616.77148 377.81445 C 616.77148 377.81445 575.73409 377.00306 570.90625 376.19336 C 566.07842 375.38366 488.0293 372.14648 488.0293 372.14648 L 442.96875 372.95508 L 381.01172 374.57422 C 381.01172 374.57422 333.53883 372.14538 329.51562 372.95508 C 325.49244 373.76477 289.2832 370.52539 289.2832 370.52539 L 281.23633 374.57422 L 295.7207 389.15039 C 295.7207 389.15039 325.49239 397.24694 328.71094 398.05664 C 331.9295 398.86634 372.96484 398.05664 372.96484 398.05664 L 442.96875 406.96289 L 497.68555 404.5332 C 497.68555 404.5332 532.28374 402.91406 541.13477 402.91406 L 595.85156 402.91406 C 595.85156 402.91406 649.76211 404.53406 656.19922 405.34375 C 662.63634 406.15345 709.30469 408.58203 709.30469 408.58203 C 709.30469 408.58203 750.34223 411.01172 757.58398 411.01172 C 764.82573 411.01172 798.61928 415.06055 801.0332 415.06055 C 803.44712 415.06055 823.56445 419.10742 823.56445 419.10742 L 819.54102 427.20508 C 819.54102 427.20508 804.25157 432.87356 797.81445 429.63477 C 791.37734 426.39597 734.24805 419.10742 734.24805 419.10742 L 679.5332 417.48828 L 632.86523 415.06055 L 603.89648 413.43945 L 562.86133 411.82031 L 537.11133 415.06055 L 514.58203 419.91797 L 490.44336 421.53711 L 434.11914 421.53711 L 400.32422 416.67969 L 365.72461 415.86914 C 365.72461 415.86914 352.046 417.48964 337.5625 415.06055 C 323.07899 412.63145 300.54883 411.82031 300.54883 411.82031 L 278.82227 404.5332 L 263.53516 401.29492 L 265.14453 371.33594 L 246.63672 351.90234 L 257.90234 346.23633 z M 665.05078 428.02148 L 621.59961 445.02539 C 621.59961 445.02539 587.80445 445.83483 583.78125 446.64453 C 579.75805 447.45423 559.64258 452.3125 559.64258 452.3125 L 521.82422 458.78906 C 521.82422 458.78906 473.54653 463.64733 467.91406 464.45703 C 462.28158 465.26673 431.70508 466.88672 431.70508 466.88672 L 399.51953 463.64844 L 373.76953 457.98047 L 361.70117 449.07422 L 361.70117 437.73828 L 375.37891 433.68945 C 375.37891 433.68945 408.36953 444.21459 414.80664 445.83398 C 421.24376 447.45338 463.08608 449.88367 465.5 450.69336 C 467.91392 451.50306 507.34008 445.02428 511.36328 445.83398 C 515.38647 446.64368 548.37719 436.92773 552.40039 436.92773 C 556.42359 436.92773 569.29702 434.49805 571.71094 434.49805 C 574.12486 434.49805 610.33418 432.07005 613.55273 433.68945 C 616.77129 435.30884 665.05078 428.02148 665.05078 428.02148 z "
   id="path7" />
</svg>