<?xml version="1.0" encoding="UTF-8" standalone="no"?>
<!-- Created with Inkscape (http://www.inkscape.org/) -->

<svg
   xmlns:dc="http://purl.org/dc/elements/1.1/"
   xmlns:cc="http://creativecommons.org/ns#"
   xmlns:rdf="http://www.w3.org/1999/02/22-rdf-syntax-ns#"
   xmlns:svg="http://www.w3.org/2000/svg"
   xmlns="http://www.w3.org/2000/svg"
   xmlns:sodipodi="http://sodipodi.sourceforge.net/DTD/sodipodi-0.dtd"
   xmlns:inkscape="http://www.inkscape.org/namespaces/inkscape"
   width="297mm"
   height="210mm"
   viewBox="0 0 297 210"
   version="1.1"
   id="svg8"
   inkscape:version="0.92.3 (unknown)"
   sodipodi:docname="Xenopus_tropicalis.svg"
   inkscape:export-filename="/home/mjeltsch/Documents/Informatics/Phylogeny2/new/images/Xenopus_tropicalis.png"
   inkscape:export-xdpi="17.0543"
   inkscape:export-ydpi="17.0543">
  <defs
     id="defs2" />
  <sodipodi:namedview
     id="base"
     pagecolor="#ffffff"
     bordercolor="#666666"
     borderopacity="1.0"
     inkscape:pageopacity="0.0"
     inkscape:pageshadow="2"
     inkscape:zoom="0.35"
     inkscape:cx="-110"
     inkscape:cy="560"
     inkscape:document-units="mm"
     inkscape:current-layer="layer1"
     showgrid="false"
     inkscape:window-width="2495"
     inkscape:window-height="1416"
     inkscape:window-x="65"
     inkscape:window-y="24"
     inkscape:window-maximized="1" />
  <metadata
     id="metadata5">
    <rdf:RDF>
      <cc:Work
         rdf:about="">
        <dc:format>image/svg+xml</dc:format>
        <dc:type
           rdf:resource="http://purl.org/dc/dcmitype/StillImage" />
        <dc:title></dc:title>
      </cc:Work>
    </rdf:RDF>
  </metadata>
  <g
     inkscape:label="Layer 1"
     inkscape:groupmode="layer"
     id="layer1"
     transform="translate(0,-87)">
    <path
       style="fill:#000000;stroke-width:1.00000012"
       d="m 225.56606,129.39368 c 0.076,0.25624 0.12863,1.32895 0.11693,2.3838 -0.0117,1.05485 0.0374,2.30686 0.10904,2.78225 0.13393,0.88818 -0.39309,4.08909 -0.71315,4.33141 -0.0985,0.0745 -0.33082,0.76826 -0.51626,1.54152 -0.18545,0.77326 -0.50048,2.08153 -0.70007,2.90727 -0.388,1.60527 -0.42742,1.84248 -0.8053,4.84702 -0.27937,2.2214 -1.26527,5.20712 -2.13728,6.47265 -0.3247,0.47123 -0.60603,1.06747 -0.62519,1.32499 -0.0191,0.25751 -0.4073,0.97231 -0.86258,1.58844 -0.45527,0.61614 -1.19619,1.78987 -1.64649,2.60831 -0.97666,1.77512 -3.7126,5.08781 -4.77331,5.77956 -1.09297,0.71278 -4.50602,2.22579 -5.61366,2.48855 -0.52149,0.12373 -1.27379,0.35114 -1.67177,0.50539 -0.39798,0.15425 -1.79168,0.57422 -3.0971,0.93326 -1.30543,0.35904 -2.4296,0.79609 -2.49814,0.97122 -0.0685,0.17514 -0.36735,0.25634 -0.66398,0.18045 -0.29665,-0.0759 -1.13362,0.031 -1.85996,0.23746 -1.2174,0.34609 -1.35685,0.45087 -1.78447,1.34083 -0.25515,0.53097 -0.38654,1.07359 -0.29197,1.20581 0.0946,0.13223 0.0479,0.3343 -0.10361,0.44904 -0.15155,0.11474 -0.36443,0.87499 -0.47307,1.68944 -0.10864,0.81444 -0.36072,1.60435 -0.56015,1.75535 -0.19944,0.151 -0.65578,2.25091 -1.0141,4.66648 -0.35832,2.41555 -0.9132,5.01798 -1.23306,5.78316 -0.31988,0.76517 -0.90694,2.83575 -1.30458,4.60127 -1.90497,8.458 -3.15182,11.6435 -7.4749,19.09711 -3.30924,5.70562 -3.81917,7.02926 -3.31052,8.59316 0.20027,0.61574 0.35766,1.31581 0.34976,1.55573 -0.008,0.23993 0.80995,1.93138 1.81744,3.75881 1.96699,3.56775 2.33771,4.42638 3.45074,7.99242 1.73236,5.55022 1.7368,9.12433 0.0173,14.00183 -0.41403,1.17452 -1.17111,2.75494 -1.6824,3.51203 -0.62441,0.92462 -0.89881,1.70031 -0.83578,2.36267 0.0925,0.97171 0.11192,0.98667 1.332,1.02394 0.68098,0.0208 1.91224,-0.064 2.73613,-0.18836 0.82388,-0.12439 2.42879,-0.22437 3.56647,-0.22217 2.28807,0.004 3.30516,0.48012 6.1077,2.85671 1.5859,1.34486 1.73473,1.543 1.91228,2.54592 0.52466,2.96373 0.52137,2.95449 1.14622,3.20992 0.38738,0.15833 1.13035,1.05854 2.06496,2.50193 0.80294,1.24004 1.55443,2.39696 1.67001,2.57097 0.35535,0.53503 -0.24611,0.71646 -1.41367,0.42641 -1.00649,-0.25003 -1.24554,-0.17333 -2.494,0.80028 -1.9463,1.51782 -1.99947,1.875 -1.00861,6.77457 0.8012,3.96174 0.9156,4.81622 0.6612,4.93835 -0.43296,0.20785 -1.69682,-1.03898 -3.18534,-3.14249 -1.65431,-2.33776 -3.35177,-3.85013 -4.01614,-3.5782 -0.26331,0.10777 -0.88041,0.0198 -1.37134,-0.19543 -0.49091,-0.21526 -1.43087,-0.50063 -2.08878,-0.63418 -0.65792,-0.13355 -1.46145,-0.35925 -1.78563,-0.50157 -1.25852,-0.5525 -2.78136,-0.21192 -4.82043,1.07808 -2.13862,1.35298 -4.70504,2.5726 -7.94065,3.77356 -5.24284,1.946 -10.81871,1.51093 -16.71791,-1.30445 -4.19567,-2.00237 -7.84516,-4.88624 -10.75432,-8.49815 -2.25982,-2.80575 -2.62844,-3.49392 -3.37019,-6.29189 -0.60444,-2.28005 -0.37182,-7.3181 0.36389,-7.88091 0.12287,-0.0942 0.29751,-0.54779 0.3879,-1.00831 0.19497,-0.99317 1.71623,-3.41795 3.03424,-4.83636 0.51702,-0.55639 2.12069,-1.91939 3.56373,-3.02888 l 2.6237,-2.01724 -0.6648,-0.82791 c -0.98416,-1.22561 -2.34868,-2.54312 -2.75996,-2.66486 -0.19865,-0.0588 -0.96864,-0.67394 -1.71111,-1.36699 -0.74246,-0.69304 -1.64254,-1.42223 -2.00018,-1.62041 -0.35764,-0.19817 -1.49597,-1.55173 -2.52961,-3.0079 -1.81466,-2.55645 -1.8704,-2.68179 -1.61908,-3.64118 0.42211,-1.61138 -0.0927,-1.87707 -2.70906,-1.39802 -2.44765,0.44818 -4.26358,0.38441 -5.25768,-0.1846 -0.3147,-0.18012 -1.01939,-0.50239 -1.56597,-0.71616 -0.54658,-0.21376 -1.96204,-0.915 -3.14544,-1.5583 -1.18342,-0.64331 -2.58858,-1.31746 -3.12261,-1.49811 -0.53404,-0.18065 -1.09125,-0.49663 -1.23824,-0.70218 -0.147,-0.20555 -0.64364,-0.57334 -1.10363,-0.81731 -0.46,-0.24397 -1.35792,-0.73335 -1.99537,-1.08751 -1.51018,-0.83901 -2.36313,-0.43013 -2.139,1.02538 0.0883,0.57367 -0.0238,1.1864 -0.24898,1.36162 -0.22528,0.1752 -0.5241,0.73997 -0.66404,1.25502 -0.13996,0.51505 -0.37975,1.03513 -0.5329,1.15572 -0.15315,0.1206 -0.29213,0.65754 -0.30887,1.19321 -0.0168,0.53567 -0.21442,1.11324 -0.4393,1.28351 -0.22488,0.17026 -0.6568,0.75402 -0.95982,1.29724 -0.30302,0.54321 -0.81113,1.45558 -1.12914,2.02747 -1.1528,2.07319 -5.11344,4.94418 -7.40704,5.36922 -0.26929,0.05 -1.19577,0.22941 -2.05882,0.39887 -2.0073,0.39418 -4.67878,0.15306 -6.139125,-0.55407 -6.28947,-3.04552 -9.268186,-5.27809 -12.554226,-9.40954 -2.4736,-3.10998 -4.76235,-7.39473 -5.23456,-9.79962 -0.761916,-3.88027 -0.444542,-8.35186 1.10184,-15.52373 0.64819,-3.00622 0.64529,-3.0716 -0.20328,-4.58253 -0.47348,-0.84304 -1.192295,-2.46393 -1.597385,-3.60198 -0.787493,-2.21235 -0.997551,-2.4353 -3.993553,-4.23889 -1.01819,-0.61295 -4.589545,-3.58746 -5.681449,-4.73197 -0.635918,-0.66655 -0.71382,-0.88589 -0.399228,-1.12407 0.214965,-0.16276 0.666785,-0.1127 1.00405,0.11124 0.7955,0.52821 1.466175,0.55598 2.508546,0.10384 0.46468,-0.20154 1.010071,-0.36806 1.211983,-0.37003 0.73508,-0.007 2.222656,-0.92045 2.348693,-1.442 0.06965,-0.28832 -0.09212,-0.83013 -0.359523,-1.20403 -0.267404,-0.37391 -0.425181,-0.93229 -0.350629,-1.24084 0.112147,-0.46409 0.312627,-0.45164 1.160568,0.0721 0.563752,0.3482 1.107075,0.74786 1.20738,0.88811 0.332531,0.46497 2.499367,0.96016 3.746637,0.85624 0.94399,-0.0787 1.34594,0.0618 1.73529,0.60618 0.40683,0.56885 0.73276,0.6635 1.65317,0.48007 2.46607,-0.49146 7.253166,1.63653 8.918606,3.96452 0.51098,0.71425 0.97887,1.60091 1.03977,1.97037 0.0609,0.36944 0.16055,0.97398 0.22146,1.34344 0.0609,0.36944 0.25831,0.87809 0.4387,1.13032 0.18039,0.25224 0.25945,0.80495 0.17568,1.22826 -0.0838,0.42331 0.0627,1.22882 0.32545,1.79001 0.26275,0.5612 0.48547,1.36086 0.49492,1.77702 0.009,0.41618 0.14604,0.93684 0.30352,1.15702 0.15748,0.2202 0.21263,0.77277 0.12256,1.22794 -0.32525,1.64374 1.256485,2.1023 2.063875,0.59832 0.18469,-0.34405 0.79193,-1.15076 1.34942,-1.7927 0.55749,-0.64196 1.28277,-1.48866 1.61172,-1.88159 0.32894,-0.39293 0.92633,-1.00183 1.32752,-1.35312 0.40119,-0.3513 0.79156,-0.89581 0.86749,-1.21001 0.38804,-1.60583 9.06389,-4.74356 13.00723,-4.70422 0.65187,0.006 1.24686,-0.0348 1.32221,-0.0919 0.0754,-0.0571 1.87838,0.20386 4.00679,0.57976 2.1284,0.37592 4.00013,0.58482 4.15936,0.46426 0.39146,-0.29638 2.33213,-4.3574 2.36793,-4.95508 0.0157,-0.26232 0.35811,-1.14761 0.7609,-1.96729 0.40278,-0.81968 0.68775,-1.65742 0.63323,-1.86165 -0.0545,-0.20424 0.11734,-0.46075 0.38186,-0.57003 0.26452,-0.10927 0.88222,-1.19493 1.37267,-2.41257 0.49046,-1.21764 1.03794,-2.32457 1.21663,-2.45987 0.1787,-0.13529 0.36182,-0.41533 0.40694,-0.62231 0.0451,-0.20699 0.4654,-0.88702 0.93395,-1.51119 0.46855,-0.62417 1.0017,-1.39061 1.18478,-1.7032 0.64646,-1.10375 3.42945,-4.52913 4.12875,-5.08177 0.38969,-0.30797 0.75749,-0.72412 0.8173,-0.92478 0.0599,-0.20065 0.38697,-0.67363 0.72701,-1.05104 0.34004,-0.37742 1.30254,-1.47395 2.13887,-2.43672 0.83634,-0.96277 1.95808,-2.18553 2.49276,-2.71723 0.53468,-0.5317 1.48051,-1.91856 2.10186,-3.08192 l 1.1297,-2.11518 -2.66819,-3.45245 c -1.64339,-2.12643 -2.90043,-3.99538 -3.27285,-4.86602 -0.33256,-0.77746 -1.0747,-2.13861 -1.64922,-3.02479 -0.97135,-1.4983 -1.03296,-1.75802 -0.87899,-3.70575 0.2257,-2.85512 1.05353,-7.85944 1.42362,-8.60583 0.16648,-0.33578 0.74611,-1.61874 1.28806,-2.85102 1.461,-3.32205 2.40822,-5.02673 4.39024,-7.90106 0.98193,-1.42398 2.49275,-3.86688 3.35735,-5.42865 0.86462,-1.56178 2.14911,-3.60367 2.85445,-4.53754 0.70533,-0.93388 1.85243,-2.54613 2.5491,-3.58278 1.27965,-1.90416 3.22923,-3.42942 3.80676,-2.97824 0.32837,0.25653 -2.10701,5.04888 -2.72973,5.37158 -0.62066,0.32164 -2.01105,2.79956 -1.76439,3.14447 0.10253,0.14334 -0.0701,0.45489 -0.38378,0.69232 -0.67941,0.5144 -0.79988,1.50665 -0.22867,1.88338 0.28748,0.1896 0.70483,0.0282 1.40792,-0.54444 2.19471,-1.78754 6.2556,-3.2115 6.66177,-2.33598 0.16142,0.34793 -0.41139,0.8778 -3.39808,3.14331 -2.94624,2.23481 -3.68348,2.91362 -4.09965,3.77464 -0.27908,0.5774 -0.60944,1.12705 -0.73411,1.22144 -0.69974,0.52979 -1.43481,2.66497 -1.77155,5.14585 -0.58786,4.33107 -0.88268,7.03614 -0.78216,7.1767 0.0501,0.0701 0.0615,0.54943 0.0254,1.06527 -0.0361,0.51585 -0.0624,2.21907 -0.0583,3.78494 0.007,2.70163 0.0618,2.92346 1.07032,4.34349 0.59708,0.84065 1.28178,1.53073 1.56241,1.57467 0.76093,0.11914 1.85391,-0.85311 3.47686,-3.09283 1.65271,-2.28078 5.31722,-5.51776 11.08088,-9.7881 4.77516,-3.53793 7.88927,-5.12577 10.92558,-5.57076 1.49164,-0.21862 2.35739,-0.10237 4.05582,0.5446 1.18764,0.4524 2.26337,0.96797 2.39049,1.14572 0.12712,0.17774 0.43934,0.35577 0.69382,0.39561 1.10108,0.1724 5.47607,7.02395 6.02308,9.43261 0.0811,0.357 0.293,1.13795 0.47094,1.73541 0.17795,0.59747 0.6117,2.05238 0.96391,3.23313 0.3522,1.18075 0.61739,2.43485 0.58931,2.78687 -0.028,0.35202 0.27581,2.64449 0.67533,5.09436 0.39953,2.44988 0.73143,5.61816 0.73756,7.04062 0.006,1.42246 0.1464,2.77542 0.31173,3.00658 0.32507,0.45455 2.21318,0.54544 2.75821,0.13279 0.18408,-0.13936 0.5691,-0.21692 0.85559,-0.17233 0.67835,0.10557 6.93077,-4.67515 7.03487,-5.379 0.0387,-0.26181 0.39948,-0.72518 0.8017,-1.02971 1.25112,-0.94725 5.71215,-5.91422 5.98223,-6.66069 0.47603,-1.31572 -0.88386,-7.68783 -1.96258,-9.19616 -0.22705,-0.31747 -0.45053,-0.84585 -0.49665,-1.1742 -0.0739,-0.526 -1.99581,-4.36798 -3.06112,-6.11924 -0.48921,-0.80419 -0.17045,-1.30422 0.59269,-0.92973 0.51485,0.25264 4.90257,6.05231 5.88734,7.78187 0.24911,0.4375 0.52764,0.58269 0.83583,0.43569 0.62153,-0.29644 1.43119,-2.99659 1.33419,-4.44938 -0.11433,-1.71244 -0.46745,-4.52357 -0.69745,-5.55234 -0.10999,-0.49201 -0.11574,-0.95835 -0.0128,-1.03632 0.28132,-0.21299 0.87573,0.76578 1.74062,2.86608 1.11687,2.71222 1.47334,3.21153 2.08338,2.91829 0.28342,-0.13623 0.65424,-0.71022 0.82406,-1.27551 0.31516,-1.04911 0.66168,-1.1819 0.90897,-0.34833 z"
       id="path826"
       inkscape:connector-curvature="0" />
  </g>
</svg>
