<?xml version="1.0" encoding="UTF-8" standalone="no"?>
<!-- Created with Inkscape (http://www.inkscape.org/) -->

<svg
   xmlns:dc="http://purl.org/dc/elements/1.1/"
   xmlns:cc="http://creativecommons.org/ns#"
   xmlns:rdf="http://www.w3.org/1999/02/22-rdf-syntax-ns#"
   xmlns:svg="http://www.w3.org/2000/svg"
   xmlns="http://www.w3.org/2000/svg"
   xmlns:sodipodi="http://sodipodi.sourceforge.net/DTD/sodipodi-0.dtd"
   xmlns:inkscape="http://www.inkscape.org/namespaces/inkscape"
   version="1.2"
   width="297mm"
   height="210mm"
   viewBox="0 0 1122.5197 793.70078"
   id="Layer_1"
   xml:space="preserve"
   style="overflow:inherit"
   sodipodi:docname="annelida.svg"
   inkscape:version="0.92.3 (2405546, 2018-03-11)"><sodipodi:namedview
   pagecolor="#ffffff"
   bordercolor="#666666"
   borderopacity="1"
   objecttolerance="10"
   gridtolerance="10"
   guidetolerance="10"
   inkscape:pageopacity="0"
   inkscape:pageshadow="2"
   inkscape:window-width="1865"
   inkscape:window-height="1025"
   id="namedview5"
   showgrid="false"
   units="mm"
   inkscape:zoom="1.063373"
   inkscape:cx="561.25984"
   inkscape:cy="396.85039"
   inkscape:window-x="55"
   inkscape:window-y="27"
   inkscape:window-maximized="1"
   inkscape:current-layer="Layer_1"
   showguides="true"
   inkscape:guide-bbox="true" /><metadata
   id="metadata7"><rdf:RDF><cc:Work
       rdf:about=""><dc:format>image/svg+xml</dc:format><dc:type
         rdf:resource="http://purl.org/dc/dcmitype/StillImage" /><dc:title /></cc:Work></rdf:RDF></metadata><defs
   id="defs7">
	
</defs>


	<g
   id="g13"
   transform="translate(-423.68545,210.07659)">
</g><g
   id="g15"
   transform="translate(-423.68545,210.07659)">
</g><g
   id="g17"
   transform="translate(-423.68545,210.07659)">
</g><g
   id="g19"
   transform="translate(-423.68545,210.07659)">
</g><g
   id="g21"
   transform="translate(-423.68545,210.07659)">
</g><g
   id="g23"
   transform="translate(-423.68545,210.07659)">
</g><g
   id="g25"
   transform="translate(-423.68545,210.07659)">
</g><g
   id="g27"
   transform="translate(-423.68545,210.07659)">
</g><g
   id="g29"
   transform="translate(-423.68545,210.07659)">
</g><g
   id="g31"
   transform="translate(-423.68545,210.07659)">
</g><g
   id="g33"
   transform="translate(-423.68545,210.07659)">
</g><g
   id="g35"
   transform="translate(-423.68545,210.07659)">
</g><g
   id="g37"
   transform="translate(-423.68545,210.07659)">
</g><g
   id="g39"
   transform="translate(-423.68545,210.07659)">
</g><g
   id="g41"
   transform="translate(-423.68545,210.07659)">
</g><path
   style="fill:#000000;fill-opacity:1;stroke-width:1"
   d="m 513.75932,135.74395 c 26.43482,0.96153 49.13556,44.16778 50.3007,73.19643 2.70492,30.42215 -0.49246,60.42324 -18.37387,87.22993 -17.88141,26.80669 -16.38197,37.97313 -17.17835,49.03877 1.8879,32.37216 10.69726,64.26862 33.23375,77.52342 22.53649,13.2548 44.42956,24.25642 69.81342,14.03747 30.82461,-5.04137 62.17164,2.90954 90.94139,13.48341 32.84507,3.09311 100.85909,33.34288 121.30485,57.98675 14.31242,17.25117 23.46196,29.78472 22.24785,53.52299 -1.21412,23.73827 -19.98518,44.46778 -41.09155,48.27933 -21.10637,3.81155 -61.83055,3.44647 -95.46713,-14.2538 -35.13402,-10.89852 -75.28302,-27.7811 -112.10288,-12.27462 -30.65028,8.67895 -58.54253,25.45926 -89.17246,33.47944 -32.48962,5.79828 -67.88318,2.4237 -94.33108,-19.09656 -25.77758,-14.12628 -44.95311,-43.52809 -78.08158,-38.78181 -24.08619,6.85682 -50.92256,8.49353 -75.57027,2.41827 -24.16006,-10.02065 -18.90543,-16.64521 -47.62517,-31.53359 -28.71974,-14.88837 -40.00185,32.60785 -51.54839,29.19695 -11.54654,-3.4109 8.09415,-84.01563 57.12689,-61.84637 49.03274,22.16926 46.76625,43.56162 76.47025,37.62845 31.81421,-4.45243 66.72774,-17.25828 96.50571,3.51468 26.06068,18.35649 50.87621,44.46271 85.41995,43.72638 56.098,-6.2691 104.34205,-44.60379 161.67305,-44.55624 26.7668,1.67382 54.97739,4.65245 78.11185,18.88216 25.1331,7.87044 56.02903,25.70016 80.87153,8.67844 23.04663,-21.73789 -45.202,-50.04003 -67.08915,-55.9245 -17.65498,-8.41322 -34.94071,-6.4394 -51.43698,0.55562 -28.74207,-0.45877 -57.53357,-4.26844 -85.96397,-8.38134 -22.88421,-14.09443 -49.59916,-18.55267 -73.45075,-35.91547 -23.85159,-17.3628 -40.9895,-46.42693 -53.59034,-88.06563 -8.89767,-33.04596 -13.43326,-66.2125 9.55391,-90.80512 20.8027,-31.80989 24.83211,-62.24878 20.42091,-87.39513 -5.07657,-29.56987 -28.35691,-64.51024 -1.92209,-63.54871 z"
   id="path283"
   inkscape:connector-curvature="0"
   sodipodi:nodetypes="zczczccszzcccccczzzccccccccczcccz" /></svg>