<?xml version="1.0" encoding="UTF-8" standalone="no"?>
<!-- Generator: Adobe Illustrator 12.0.1, SVG Export Plug-In . SVG Version: 6.00 Build 51448)  -->

<svg
   xmlns:dc="http://purl.org/dc/elements/1.1/"
   xmlns:cc="http://creativecommons.org/ns#"
   xmlns:rdf="http://www.w3.org/1999/02/22-rdf-syntax-ns#"
   xmlns:svg="http://www.w3.org/2000/svg"
   xmlns="http://www.w3.org/2000/svg"
   xmlns:sodipodi="http://sodipodi.sourceforge.net/DTD/sodipodi-0.dtd"
   xmlns:inkscape="http://www.inkscape.org/namespaces/inkscape"
   id="Layer_1"
   xml:space="preserve"
   overflow="visible"
   viewBox="0 0 1122.5197 793.7008"
   version="1.1"
   enable-background="new 0 0 272.668 392.75"
   sodipodi:docname="arachnida.svg"
   width="297mm"
   height="210mm"
   style="overflow:visible"
   inkscape:version="0.92.3 (unknown)"><defs
   id="defs225">
	
	
	
	
	
	
	
	
	
	
	
	
	
	
	
	
	
	
	
	
	
	
	
	
	
	
	
	
	
	
	
	
	
	
	
	
	
	
	
	
	
	
	
	
	
	
	
	
	
	
	
	
	
	
	
	
	
	
	
	
	
	
	
	
	
	
	
	
	
	
	
	
	
	
	
	
	
	
	
	
	
	
	
	
	
	
	
	
	
	
	
	
	
	
	
	
	
	
	
	
	
	
	
	
	
	
	
	
</defs><sodipodi:namedview
   pagecolor="#ffffff"
   bordercolor="#666666"
   borderopacity="1"
   objecttolerance="10"
   gridtolerance="10"
   guidetolerance="10"
   inkscape:pageopacity="0"
   inkscape:pageshadow="2"
   inkscape:window-width="1695"
   inkscape:window-height="1244"
   id="namedview223"
   showgrid="false"
   units="mm"
   inkscape:zoom="0.60089115"
   inkscape:cx="293.89401"
   inkscape:cy="196.375"
   inkscape:window-x="75"
   inkscape:window-y="34"
   inkscape:window-maximized="0"
   inkscape:current-layer="Layer_1" />

<metadata
   id="metadata220"><rdf:RDF><cc:Work><dc:format>image/svg+xml</dc:format><dc:type
         rdf:resource="http://purl.org/dc/dcmitype/StillImage" /><cc:license
         rdf:resource="http://creativecommons.org/publicdomain/zero/1.0/" /><dc:publisher><cc:Agent
           rdf:about="http://openclipart.org/"><dc:title>Openclipart</dc:title></cc:Agent></dc:publisher><dc:title /><dc:date>2006-10-30T13:56:06</dc:date><dc:description>a top view of a turtle</dc:description><dc:source>https://openclipart.org/detail/1024/turtle-by-johnny_automatic</dc:source><dc:creator><cc:Agent><dc:title>johnny_automatic</dc:title></cc:Agent></dc:creator><dc:subject><rdf:Bag><rdf:li>amphibian</rdf:li><rdf:li>animal</rdf:li><rdf:li>reptile</rdf:li><rdf:li>turtle</rdf:li></rdf:Bag></dc:subject></cc:Work><cc:License
       rdf:about="http://creativecommons.org/publicdomain/zero/1.0/"><cc:permits
         rdf:resource="http://creativecommons.org/ns#Reproduction" /><cc:permits
         rdf:resource="http://creativecommons.org/ns#Distribution" /><cc:permits
         rdf:resource="http://creativecommons.org/ns#DerivativeWorks" /></cc:License></rdf:RDF></metadata><path
   d="m 1012.6165,525.08551 c -2.5593,-2.9585 -8.5572,-5.45819 -18.36392,-7.65358 -2.74326,-0.61404 -7.84435,-2.46573 -11.33577,-4.1148 -3.49142,-1.64907 -8.57583,-3.47721 -11.29859,-4.06245 -2.72285,-0.58523 -5.60122,-1.66139 -6.39636,-2.39156 -0.79514,-0.73017 -5.40734,-2.11837 -10.24935,-3.08493 -4.842,-0.96648 -9.38782,-2.24959 -10.10243,-2.85121 -1.52924,-1.2878 -9.63722,-3.25111 -17.16689,-4.15694 -3.87084,-0.46571 -5.93658,-1.25128 -7.52277,-2.86078 -1.39902,-1.41948 -3.2336,-2.21995 -5.09284,-2.22197 -1.59835,0 -6.57883,-1.0642 -11.06734,-2.36102 -4.48896,-1.29692 -10.44795,-2.69238 -13.24199,-3.10122 -5.90639,-0.86406 -11.65498,-2.66045 -13.1386,-4.10542 -7.05221,-6.87113 -8.85541,-7.57517 -20.95757,-8.1824 -7.27448,-0.36504 -11.99505,-1.04414 -13.78429,-1.9831 -1.53622,-0.80608 -5.01213,-1.43052 -7.98092,-1.43374 -2.89271,0 -6.39619,-0.60724 -7.7855,-1.34256 -1.82714,-0.96711 -4.13529,-1.18446 -8.34312,-0.78575 -3.33789,0.31627 -8.25117,0.0653 -11.52802,-0.58892 -3.14101,-0.62701 -8.77262,-1.32203 -12.51469,-1.54453 -3.74207,-0.2225 -9.33523,-0.55911 -12.42853,-0.74793 -3.09376,-0.18882 -6.15442,-0.67689 -6.80146,-1.08444 -0.64705,-0.40764 -5.66544,-1.02942 -11.15167,-1.38185 -5.48652,-0.35243 -10.9957,-0.90537 -12.24263,-1.22882 -1.24694,-0.32335 -5.23014,-0.76108 -8.85151,-0.97264 -3.62137,-0.21155 -7.29416,-0.7643 -8.16175,-1.22845 -5.29208,-2.83095 -11.35753,-4.01809 -22.04671,-4.31467 -17.74999,-0.49257 -37.9866,-2.23256 -40.14584,-3.4518 -1.07699,-0.60825 -3.87919,-2.86584 -6.22696,-5.01678 -2.34787,-2.15094 -4.73201,-3.9108 -5.29816,-3.9108 -0.56615,0 -1.96381,-0.74581 -3.10591,-1.65735 -1.74126,-1.38985 -1.89461,-1.90975 -0.94994,-3.22065 0.61966,-0.85983 1.59173,-1.56331 2.16024,-1.56331 1.29627,0 1.35113,-1.53267 0.0834,-2.32771 -0.52271,-0.32777 -0.87775,-1.28384 -0.78915,-2.12471 0.39358,-3.73302 -1.41334,-7.56772 -5.2744,-11.19317 -3.81289,-3.58036 -4.36037,-3.80801 -7.83809,-3.25875 -2.05631,0.32473 -5.5752,0.72888 -7.81968,0.89801 -2.24448,0.16913 -5.50646,0.77001 -7.24891,1.33538 -1.74244,0.56527 -4.30732,1.02785 -5.6998,1.02785 -2.3388,0 -2.44998,-0.15782 -1.45896,-2.07043 0.59009,-1.13873 2.21963,-3.19618 3.62137,-4.57213 4.34459,-4.26461 8.03624,-13.4918 8.05592,-20.13556 0.0109,-3.58385 1.60841,-9.10912 2.63425,-9.10912 0.34824,0 2.8898,-2.17394 5.64793,-4.83099 4.88635,-4.70731 9.76146,-11.24009 11.15893,-14.95305 1.06212,-2.82166 1.40446,-13.24795 0.45452,-13.84331 -0.46304,-0.29041 -0.84193,-1.92834 -0.84193,-3.63998 0,-1.71165 -0.44917,-3.39375 -0.99818,-3.73808 -0.56307,-0.35308 -0.77374,-1.7652 -0.48318,-3.23925 0.2833,-1.43733 0.12043,-2.86086 -0.36202,-3.16342 -0.48245,-0.30256 -0.8772,-1.36308 -0.8772,-2.35669 0,-2.18076 -6.2802,-9.27918 -11.31491,-12.7897 -5.03898,-3.51327 -9.9519,-4.19375 -16.60373,-2.29982 -4.94493,1.40789 -5.62508,1.41414 -8.17725,0.0745 -4.08532,-2.14367 -4.22326,-2.97414 -1.14845,-6.91355 1.53123,-1.96175 2.78406,-4.61318 2.78406,-5.89206 0,-1.27887 1.42831,-5.76166 3.17401,-9.96195 1.74571,-4.20011 3.18789,-8.68427 3.20485,-9.96472 0.0172,-1.28062 0.81917,-3.98469 1.78289,-6.0091 0.96372,-2.02442 1.7779,-4.50892 1.80937,-5.52113 0.0317,-1.01221 0.88882,-4.73897 1.90532,-8.28169 1.0165,-3.54273 2.20775,-8.43049 2.64722,-10.8619 1.40826,-7.78976 5.50129,-17.23972 12.83299,-29.62637 1.79722,-3.03662 4.24003,-7.3845 5.42856,-9.66197 2.10319,-4.03051 2.30542,-4.15879 7.58617,-4.81378 6.03181,-0.74811 26.79412,0.81566 30.35083,2.28593 2.43601,1.00715 17.05625,1.86347 27.93496,1.6361 3.95355,-0.0828 8.69154,0.48724 11.78919,1.4181 7.98038,2.39801 11.07369,3.02622 11.07369,2.24894 0,-0.39145 1.20086,-1.2164 2.66862,-1.83329 2.93551,-1.23379 7.76536,-0.72401 14.82083,1.5645 2.85018,0.92442 5.6522,1.19266 8.16175,0.78142 6.02836,-0.98791 12.14922,-0.5672 17.82527,1.22523 4.59316,1.45059 5.53947,1.49549 7.66751,0.36412 2.08315,-1.10754 3.35602,-1.10735 8.96913,0 3.59779,0.71039 6.94955,1.42243 7.44832,1.58217 0.49878,0.15984 2.50875,-0.046 4.46648,-0.45705 3.92172,-0.82366 10.68464,0.5372 15.87098,3.19369 2.98058,1.52659 3.22906,1.51859 6.09519,-0.19729 3.39058,-2.02993 13.92758,-4.64152 17.9885,-4.45867 1.48825,0.0672 4.89832,1.14029 7.57801,2.38512 2.67968,1.24483 5.25245,2.02478 5.7173,1.73336 1.25147,-0.78483 9.71702,1.33464 14.26856,3.57217 2.18381,1.07368 5.92969,2.01512 8.32417,2.09223 2.60451,0.0837 5.67541,0.93151 7.64375,2.1099 1.80955,1.08343 4.18499,1.97132 5.27875,1.97325 1.09368,0 3.34269,0.84115 4.99762,1.86495 1.72123,1.06484 4.27876,1.77476 5.97568,1.65882 1.67415,-0.11438 4.32028,0.60778 6.07397,1.65772 1.70916,1.02325 4.46158,2.1352 6.1166,2.47107 1.65502,0.33587 4.18099,1.45739 5.61329,2.49223 1.4323,1.03485 3.93623,2.35274 5.56432,2.92869 1.62809,0.57585 4.7096,2.40205 6.8478,4.05812 2.95011,2.28501 4.71123,2.97772 7.30341,2.87282 2.74434,-0.11097 4.48107,0.66732 8.83564,3.95985 2.98094,2.25391 5.8848,4.51214 6.45304,5.01824 0.56815,0.50611 2.16477,1.74836 3.54791,2.76057 1.38315,1.0122 3.91982,2.96852 5.63714,4.34733 3.2316,2.59466 7.48505,3.8612 11.16347,3.324 1.96344,-0.28683 2.10192,-0.67975 1.85834,-5.27388 -0.32901,-6.20574 -1.25465,-7.73096 -6.91627,-11.3956 -2.49387,-1.61438 -4.9424,-3.25811 -5.44117,-3.65269 -0.49877,-0.39458 -4.15714,-2.85571 -8.12965,-5.46904 -3.9725,-2.61343 -9.27719,-6.33292 -11.7892,-8.2655 -2.51155,-1.93267 -7.19005,-4.40199 -10.39716,-5.48745 -3.20666,-1.08545 -9.62452,-3.76034 -14.2613,-5.94423 -4.63715,-2.18388 -12.62351,-5.30129 -17.74818,-6.92754 -5.12431,-1.62625 -10.41258,-3.72391 -11.75202,-4.66149 -1.33934,-0.93748 -4.80809,-2.14781 -7.70832,-2.68952 -2.90032,-0.54172 -5.6813,-1.29342 -6.18008,-1.67033 -1.39865,-1.05692 -10.83336,-4.37613 -20.85781,-7.33767 -10.75809,-3.17842 -20.1033,-6.88806 -22.19815,-8.81218 -0.9717,-0.89239 -4.0679,-1.53524 -8.69934,-1.80623 -3.95482,-0.23143 -8.21081,-0.59987 -9.45765,-0.81879 -2.15733,-0.37865 -17.86789,-0.91402 -60.30628,-2.05505 -26.93106,-0.7241 -52.948,-3.00395 -55.11631,-4.82979 -0.6913,-0.58211 -5.23476,-1.74035 -10.09699,-2.57386 -7.69871,-1.31982 -10.79074,-1.37734 -23.95293,-0.44565 -16.50034,1.168 -16.14122,1.09273 -36.33702,7.59864 -13.18032,4.24593 -14.18875,4.73934 -18.0683,8.84549 -5.36636,5.67968 -18.87904,26.0496 -21.18973,31.94248 -0.99482,2.53705 -2.63479,6.68324 -3.6444,9.21384 -1.00961,2.53052 -2.04969,5.84319 -2.31123,7.3615 -0.26153,1.51831 -1.03164,3.57733 -1.71133,4.57564 -0.67979,0.99822 -1.23587,3.81703 -1.23587,6.26381 0,3.98745 -1.14573,10.72479 -2.45996,14.46535 -0.2667,0.75916 -0.44626,6.05346 -0.39892,11.76553 0.0852,10.26194 0.0589,10.39536 -2.17847,11.2585 -1.24548,0.48043 -3.82305,2.53604 -5.728,4.568 -3.00335,3.20363 -3.98584,3.69455 -7.39383,3.69455 -2.16159,0 -5.25852,-0.48742 -6.88208,-1.08315 -2.83711,-1.04101 -2.90367,-1.17784 -1.71061,-3.5188 1.69048,-3.31719 3.09675,-14.64571 2.16985,-17.47897 -0.41453,-1.26719 -0.67298,-2.925 -0.57441,-3.68416 0.30598,-2.35596 -2.21854,-17.88569 -3.08632,-18.98532 -0.45198,-0.57309 -1.59762,-5.12802 -2.54574,-10.12207 -0.94812,-4.99395 -2.9278,-12.80717 -4.39936,-17.3621 -5.1673,-15.9947 -6.36953,-22.92648 -6.1302,-35.34626 0.20486,-10.6254 0.36356,-11.53915 2.27894,-13.11267 1.1323,-0.9304 2.5286,-1.69158 3.10282,-1.69158 0.57432,0 4.1839,-1.0112 8.02137,-2.24701 3.83757,-1.23591 9.92379,-2.66137 13.52493,-3.16784 3.87475,-0.54484 7.53448,-1.66066 8.96405,-2.73314 1.32874,-0.99684 4.21528,-2.33433 6.41451,-2.97221 2.19932,-0.63787 4.61084,-1.67005 5.359,-2.29366 1.97768,-1.64852 11.51805,-6.34046 16.77694,-8.25059 2.49386,-0.90592 5.35048,-2.35881 6.34802,-3.22866 0.99755,-0.86986 5.07843,-2.70333 9.06862,-4.07441 3.99019,-1.37099 8.07106,-3.24872 9.06861,-4.17259 1.96063,-1.81599 7.82122,-4.38129 11.10724,-4.86209 1.12133,-0.16407 3.16177,-1.38534 4.5343,-2.714 3.11444,-3.01463 6.57484,-4.37292 11.14079,-4.37292 2.44898,0 3.41198,-0.35455 3.1245,-1.15024 -0.22843,-0.63262 -0.11363,-1.58714 0.25519,-2.12103 0.86243,-1.24851 12.62442,-4.09023 16.92929,-4.09023 3.05558,0 3.22788,-0.14217 2.30152,-1.89853 -0.88137,-1.67107 -0.36927,-2.50862 4.27567,-6.99288 6.04786,-5.83859 7.88507,-6.75179 13.58297,-6.75179 3.27296,0 4.19832,-0.35519 4.55761,-1.74946 0.28521,-1.10652 1.50376,-1.91749 3.31585,-2.20661 11.8427,-1.88979 15.64789,-2.83795 16.34618,-4.0734 0.6377,-1.12851 1.95664,-1.27216 7.02817,-0.76504 5.13592,0.51356 6.2432,0.38722 6.2432,-0.71204 0,-1.91344 3.20829,-2.45423 9.97547,-1.68137 6.74687,0.77047 11.86719,0.68885 16.08047,-0.25618 2.02574,-0.45439 4.91564,-0.0221 9.35518,1.39988 5.06645,1.62248 7.13019,1.87746 9.76508,1.20665 3.26923,-0.8325 3.33516,-0.93639 3.0846,-4.86439 -0.49497,-7.759485 -1.56307,-8.470514 -16.97463,-11.300828 -11.47361,-2.106863 -27.253,-1.807065 -39.9019,0.758051 -3.99019,0.809213 -8.88724,1.586219 -10.88233,1.726824 -1.9951,0.140513 -10.76898,1.721304 -19.49752,3.512814 -8.72854,1.791514 -18.67772,3.498189 -22.11019,3.792649 -3.9161,0.33596 -7.12457,1.17305 -8.61518,2.24765 -3.7875,2.73075 -22.01134,12.0425 -23.60106,12.05998 -1.28992,0.0138 -8.09528,3.79513 -18.6759,10.37788 -10.75629,6.69152 -35.81649,18.9117 -40.80876,19.89998 -16.17387,3.20051 -26.02057,5.99567 -29.47299,8.36626 -1.24694,0.85614 -5.63705,3.32225 -9.75602,5.48018 -8.50019,4.45343 -11.48902,6.6709 -21.07727,15.63583 -3.7408,3.49755 -7.67368,7.11085 -8.73978,8.02956 -2.21601,1.90958 -4.12695,7.04956 -3.36754,9.05778 0.28167,0.74489 0.0608,1.35433 -0.4917,1.35433 -1.29427,0 -1.39131,36.3005 -0.10728,40.12112 0.49315,1.46724 1.29218,5.35935 1.77572,8.64903 2.24811,15.29536 3.15162,19.06445 6.0309,25.16069 1.69728,3.5937 3.08596,7.6337 3.08596,8.97781 0,1.34412 0.63136,2.97552 1.4031,3.62536 0.77164,0.64984 2.45369,3.43507 3.73781,6.18937 2.40118,5.15039 2.52996,10.71191 0.34397,14.85644 -1.84075,3.49008 -8.25217,5.38024 -27.38721,8.07437 -4.17057,0.58726 -4.30215,0.21275 -4.95573,-14.10556 -0.27378,-6.00009 -0.64242,-12.15108 -0.81916,-13.66939 -0.17666,-1.51832 -0.76367,-7.02021 -1.30452,-12.22654 -0.54077,-5.20624 -1.55455,-12.24586 -2.25274,-15.6432 -0.69819,-3.39761 -1.56125,-9.69693 -1.91792,-13.99881 -0.69203,-8.34786 -1.46993,-11.33856 -3.48008,-13.3777 -1.35793,-1.37788 -3.69863,-11.4637 -4.62835,-19.94323 -0.31686,-2.89049 -1.71723,-7.65246 -3.11189,-10.58216 -2.75024,-5.77721 -4.97259,-13.05194 -5.98465,-19.58988 -0.3525,-2.27746 -1.15008,-5.17606 -1.77228,-6.44131 -0.62229,-1.26526 -1.62328,-4.42519 -2.22453,-7.02214 -0.70218,-3.03267 -2.04325,-5.64517 -3.74915,-7.30363 -1.46077,-1.42003 -2.65601,-2.88525 -2.65601,-3.2559 0,-1.44708 -10.11785,-22.2621 -11.50535,-23.66999 -0.80974,-0.82164 -2.4011,-3.62508 -3.5364,-6.22986 -2.57204,-5.90135 -6.01104,-8.86251 -9.32616,-8.03048 -5.13429,1.28873 -6.22361,7.46954 -2.76103,15.6662 0.95529,2.26136 1.73682,4.92853 1.73682,5.92721 0,0.99859 1.22345,4.3178 2.71886,7.37595 1.49533,3.05815 2.51174,5.90015 2.25881,6.31552 -0.25301,0.41538 0.23996,1.4655 1.0954,2.33351 1.61993,1.64373 1.88935,5.81421 0.72231,11.18212 -0.72494,3.33403 1.30852,11.14532 4.6221,17.75411 7.08086,14.12396 8.83482,18.94207 9.16655,25.18094 0.18455,3.47454 0.93389,7.49125 1.66509,8.9261 0.73129,1.43494 1.34406,3.56113 1.36174,4.72498 0.0172,1.16385 0.57359,3.10747 1.23533,4.31899 0.88455,1.61944 0.9717,3.08171 0.32919,5.52113 -1.17412,4.45804 -0.89662,10.44597 0.79287,17.10445 1.85598,7.31485 4.06636,19.39572 7.07451,38.66446 0.31604,2.02441 0.16478,4.30188 -0.33626,5.06103 -0.73792,1.11812 -3.11181,-0.89911 -12.50109,-10.62357 -9.02825,-9.35095 -12.89284,-12.67191 -17.48428,-15.02575 -3.24203,-1.66195 -6.52097,-3.59388 -7.28654,-4.29313 -2.36509,-2.16024 -11.2215,-6.64818 -15.34047,-7.77348 -6.94193,-1.89669 -10.44432,-5.08781 -17.31107,-15.77385 -6.80427,-10.58861 -13.09961,-18.28506 -14.95596,-18.28506 -0.61013,0 -5.13836,-1.27961 -10.06253,-2.84356 -8.21263,-2.60827 -10.04167,-2.8489 -22.10293,-2.90807 -13.94934,-0.0681 -21.70845,1.08619 -27.55679,4.10063 -3.2706,1.68579 -5.46103,1.81838 -30.37986,1.83927 -14.77005,0.012 -27.8751,-0.0202 -29.12203,-0.0727 -1.24694,-0.0524 -4.91973,0.11512 -8.16175,0.37158 -23.17666,1.83384 -27.31195,2.3935 -32.75402,4.43263 -3.18326,1.19275 -8.34022,2.70112 -11.46001,3.35179 -3.21609,0.67091 -6.7144,2.09195 -8.07931,3.28203 -1.32402,1.15438 -3.87266,2.37675 -5.66372,2.7163 -1.79105,0.33955 -3.66453,0.94044 -4.1633,1.33529 -0.49878,0.39485 -2.53922,1.24602 -4.53431,1.89154 -1.9951,0.64542 -6.28374,2.54008 -9.53021,4.21041 -3.32002,1.70796 -7.58571,3.13756 -9.74876,3.26703 -2.49069,0.14917 -3.84582,0.66346 -3.84582,1.45952 0,0.67606 -0.71415,1.47257 -1.587,1.76988 -2.04761,0.69751 -18.27689,8.01549 -24.62492,11.10391 -2.69537,1.31118 -5.56549,3.05871 -6.37813,3.8832 -0.81261,0.82458 -2.89225,2.23007 -4.62137,3.12348 -1.7292,0.89332 -5.02473,2.79995 -7.32336,4.2371 -2.29871,1.43706 -5.15532,2.91874 -6.34802,3.29261 -4.7262,1.48169 -10.62207,6.85605 -12.24172,11.15913 -2.18218,5.79783 -1.13104,7.33067 4.75476,6.93352 3.84745,-0.25968 13.18032,-4.42463 14.83988,-6.62268 0.24938,-0.33026 2.49387,-1.78701 4.98773,-3.23723 2.49387,-1.45021 4.79911,-3.02732 5.12268,-3.50472 0.3236,-0.47739 2.24666,-0.64229 4.27331,-0.36642 2.97796,0.40525 4.43102,0.023 7.57338,-1.9922 2.13866,-1.37154 5.11271,-3.13462 6.60903,-3.91798 1.49632,-0.78336 6.26487,-3.34645 10.59667,-5.69578 4.3319,-2.34924 8.47417,-4.27142 9.20464,-4.27142 0.73086,0 4.87883,-1.65634 9.21734,-3.68075 4.33888,-2.02441 8.48016,-3.68075 9.20283,-3.68075 0.7226,0 3.00308,-0.82817 5.06782,-1.84038 2.06465,-1.0122 4.69754,-1.84037 5.85079,-1.84037 1.15326,0 2.09685,-0.37158 2.09685,-0.82578 0,-0.45411 2.69691,-1.30225 5.99326,-1.88473 3.29626,-0.58248 6.96361,-1.70419 8.14969,-2.4927 3.17746,-2.11257 14.27763,-0.34617 16.06415,2.55638 1.30968,2.12784 2.60985,2.16594 6.33932,0.18542 1.59626,-0.84768 6.04994,-2.44945 9.89748,-3.55957 6.75911,-1.95043 11.06008,-2.04456 12.14378,-0.26584 0.31194,0.51218 0.94296,0.52138 1.57359,0.023 2.65982,-2.10199 11.29586,-3.18091 27.80527,-3.47362 9.72609,-0.17244 19.31615,-0.54199 21.31124,-0.82127 1.9951,-0.27927 4.95264,-0.11741 6.57239,0.35961 4.81035,1.41682 20.27832,-0.59655 29.1964,-3.80037 12.73686,-4.57564 12.73324,-4.57601 16.65904,1.87736 1.847,3.03644 3.59806,6.73743 3.89116,8.22446 0.52883,2.68308 0.48929,2.71188 -5.22144,3.80525 -11.58968,2.21885 -20.48962,5.72108 -44.74907,17.60872 -5.98528,2.93282 -12.31064,6.31202 -14.05635,7.50946 -1.7457,1.19745 -5.62254,3.5661 -8.61518,5.26366 -2.99264,1.69766 -5.64521,3.3828 -5.8946,3.7448 -0.24938,0.3621 -2.27957,1.8194 -4.51154,3.23851 -2.23197,1.41912 -6.04342,4.1725 -8.4699,6.11879 -2.42649,1.9462 -5.39021,3.53849 -6.58617,3.53849 -1.53369,0 -2.81916,1.0365 -4.36273,3.51761 -1.20359,1.93469 -5.33797,6.59314 -9.18741,10.35211 -16.28905,15.90545 -19.74237,19.7684 -25.73129,28.77336 -6.90185,10.37879 -10.97937,20.7079 -10.97937,27.8136 0,2.13143 -0.64102,7.30417 -1.42449,11.49498 -2.55463,13.66479 -0.57821,27.74367 5.53412,39.42361 1.72993,3.30569 3.14526,6.55413 3.14526,7.21879 0,0.66465 1.44917,2.4995 3.22036,4.07753 1.77119,1.57794 3.78714,3.98119 4.4798,5.3404 1.77537,3.48356 17.08527,19.09114 23.58656,24.04543 7.09238,5.40436 9.95461,7.14177 20.85781,12.65995 21.41915,10.84165 26.23187,12.5302 49.87737,17.50381 25.30324,5.32219 49.01676,6.7494 62.57343,3.76606 9.70976,-2.13677 11.33576,-2.2229 11.33576,-0.60061 0,1.65993 -5.68402,7.50827 -12.34419,12.70043 -3.76148,2.93255 -5.73681,5.20413 -6.32001,7.26783 -1.20123,4.24971 -4.31285,6.17934 -12.50199,7.7524 -3.92344,0.75373 -7.59623,1.72673 -8.16175,2.16235 -0.56543,0.43562 -3.28302,1.28348 -6.03906,1.88409 -2.75604,0.6006 -7.36743,2.53235 -10.24754,4.29286 -2.8801,1.7605 -5.54763,3.20087 -5.92778,3.20087 -0.38016,0 -6.85343,2.073 -14.38464,4.60664 -7.53157,2.53365 -16.27997,4.86964 -19.44129,5.19097 -3.16096,0.32142 -7.18506,1.31467 -8.94256,2.20716 -1.75741,0.89249 -5.22615,1.89605 -7.70832,2.22999 -2.48208,0.33393 -5.9413,0.8128 -7.68701,1.0641 -9.69525,1.39547 -16.8776,2.29633 -25.39212,3.18486 -5.23712,0.54641 -9.91018,1.3732 -10.38356,1.83707 -0.47383,0.46395 -1.73455,0.84353 -2.80156,0.84353 -1.06702,0 -3.23977,1.4493 -4.82831,3.22066 -1.58855,1.77136 -3.69456,3.27237 -4.68004,3.33568 -0.98549,0.0635 -2.09776,0.19232 -2.47193,0.28673 -0.8478,0.21413 -14.83171,1.60334 -19.72423,1.95954 -1.99509,0.14521 -16.44321,0.52414 -32.10743,0.84197 -19.75234,0.40084 -29.20093,0.9282 -30.83328,1.72085 -1.56923,0.7621 -4.01477,0.92893 -7.34086,0.50086 -13.60473,-1.75112 -29.92642,0.38077 -29.92642,3.90895 0,3.60861 2.88037,9.06717 4.8595,9.20924 4.25309,0.30477 29.30432,-0.26556 31.6413,-0.72041 1.81572,-0.35317 2.49387,-0.11355 2.49387,0.88145 0,1.15612 1.43139,1.28035 9.29533,0.80709 5.11243,-0.30771 10.82611,-0.48401 12.69605,-0.3919 6.73173,0.33182 8.54055,0.36154 18.81738,0.30946 5.7359,-0.0294 11.85721,-0.009 13.60292,0.046 1.74571,0.0543 10.95398,0.0166 20.46242,-0.0837 11.85993,-0.12561 18.03747,0.16324 19.67345,0.91973 2.00833,0.92846 3.57584,0.7309 9.91743,-1.25026 9.57918,-2.99273 19.27897,-5.42028 20.32548,-5.08671 0.44535,0.14198 3.25827,-0.60778 6.25091,-1.66609 16.06504,-5.68134 23.11317,-7.82224 23.97469,-7.28219 0.52761,0.33081 3.30687,-0.40589 6.17627,-1.6371 8.85949,-3.80176 27.07434,-8.13152 35.14359,-8.35374 7.47599,-0.20585 25.28239,-6.54493 43.07591,-15.33494 4.73835,-2.34068 9.81496,-4.55539 11.28045,-4.92153 2.77609,-0.69336 9.77869,-7.40079 12.81032,-12.2707 0.96518,-1.55025 4.23115,-6.06754 7.25771,-10.03833 9.23094,-12.11152 17.80168,-26.78391 18.97879,-32.49276 0.57767,-2.80142 1.49242,-5.92159 2.03264,-6.9338 1.73247,-3.24596 24.81807,-25.29413 27.08976,-25.87292 2.95337,-0.75216 4.88852,1.08343 4.88852,4.63701 0,1.60821 0.4548,3.38546 1.01061,3.94935 2.26897,2.3024 -2.82533,17.03912 -10.85694,31.4051 -5.28991,9.46229 -6.05756,12.16396 -7.36299,25.90881 -0.4567,4.80798 -1.42568,10.8122 -2.15343,13.34272 -1.95093,6.78418 -2.65384,13.07587 -1.53904,13.77521 1.87358,1.17499 0.88972,7.65523 -2.6659,17.55995 -1.98893,5.54036 -3.62164,10.48738 -3.62817,10.99348 -0.009,0.50611 -1.23578,3.5454 -2.73174,6.754 -1.49586,3.2086 -2.71986,6.54843 -2.71986,7.42178 0,0.87344 -1.4283,6.05952 -3.17401,11.52443 -3.43002,10.73767 -3.79177,13.88471 -1.88908,16.42903 0.87104,1.16524 1.01514,2.63386 0.4965,5.06104 -0.40183,1.88077 -1.26017,5.90401 -1.90749,8.94064 -0.64722,3.03662 -1.19497,6.00947 -1.2171,6.60639 -0.0218,0.59693 -0.34116,1.39059 -0.7088,1.76373 -0.36773,0.37313 -0.66863,1.75424 -0.66863,3.06919 0,1.31486 -0.81617,3.93592 -1.81372,5.82451 -0.99755,1.88851 -1.81599,4.57398 -1.8188,5.96761 0,1.39362 -0.45851,4.19016 -1.01278,6.21458 -0.55428,2.02441 -1.52952,6.99343 -2.16713,11.04225 -0.63771,4.04883 -2.23578,11.50235 -3.55136,16.56339 -2.28266,8.78135 -2.56678,15.27051 -0.91203,20.82477 0.56842,1.90755 5.66688,3.00671 7.35446,1.58557 2.42141,-2.03913 5.76438,-10.50118 6.76274,-17.11917 0.55364,-3.66925 1.29681,-6.67136 1.65167,-6.67136 0.35476,0 0.57848,-0.91642 0.49714,-2.03647 -0.0816,-1.12005 0.37408,-3.05723 1.01205,-4.30492 0.63789,-1.24768 0.94631,-2.61894 0.68541,-3.04738 -0.2609,-0.42844 0.0408,-0.66512 0.67135,-0.52608 0.68876,0.15202 1.83803,-1.94914 2.88164,-5.26825 0.95475,-3.03663 2.55091,-8.00564 3.54701,-11.04226 0.9961,-3.03662 2.37987,-8.35181 3.07498,-11.81153 0.6952,-3.45972 1.49351,-6.66732 1.7741,-7.12796 0.28058,-0.46074 0.68386,-1.7709 0.89616,-2.91157 1.93968,-10.42297 3.58038,-15.34505 5.45404,-16.36278 2.61149,-1.4181 3.61348,-3.76283 5.36581,-12.55596 0.78942,-3.96104 1.68513,-7.82289 1.99065,-8.58204 0.30552,-0.75916 0.6417,-2.00141 0.74698,-2.76057 0.94649,-6.81942 4.50311,-23.693 5.17528,-24.55337 0.46785,-0.59868 0.97179,-2.92648 1.11979,-5.17284 0.148,-2.24636 1.40192,-6.43377 2.78651,-9.30494 2.12242,-4.40181 2.62537,-6.93656 3.20521,-16.15298 0.64868,-10.31254 2.06375,-17.51025 3.44236,-17.51025 1.10501,0 5.81615,-13.05563 13.28189,-36.80752 1.67035,-5.31408 3.68412,-11.20145 4.47518,-13.08323 0.79105,-1.8816 1.44454,-5.40132 1.45215,-7.8216 0.019,-6.17142 0.57976,-6.73099 6.27159,-6.26455 5.53131,0.45338 7.56612,1.98872 12.06669,9.10462 3.75894,5.94386 6.99843,9.41904 9.49484,10.18648 3.4108,1.04828 6.24301,5.50999 7.90683,12.45658 0.87422,3.64975 2.36573,7.97095 3.31449,9.60216 0.94876,1.63168 2.5267,5.33102 3.50647,8.22069 2.1518,6.34607 7.19395,15.01286 12.49111,21.47074 2.70326,3.29538 6.21036,6.04886 11.37566,8.93125 4.10727,2.29192 8.71802,5.37648 10.24572,6.85467 3.0067,2.90844 14.61317,10.31254 21.36293,13.6289 2.30479,1.1322 8.01802,2.96365 12.69606,4.0699 9.20736,2.17735 14.9741,4.17949 17.12064,5.94405 0.74816,0.61505 3.19668,2.14863 5.44116,3.40791 2.24449,1.25928 5.71323,3.21633 7.70832,4.34899 1.9951,1.13266 5.87193,3.32704 8.61519,4.87645 2.74325,1.54932 6.68882,4.20093 8.7678,5.89233 2.07907,1.6914 4.35004,3.07527 5.0466,3.07527 1.32147,0 20.87685,12.99489 24.90876,16.55142 1.27432,1.12419 3.79512,2.66891 5.60186,3.43257 3.46303,1.46365 16.22103,10.24722 20.05252,13.80558 3.3474,3.10886 7.5352,4.85786 11.6323,4.85786 2.50974,0 5.84645,1.17701 10.7454,3.79035 6.4399,3.43542 20.04345,12.21825 21.16161,13.66295 0.78371,1.0122 9.06299,6.43119 12.71057,8.31951 1.92137,0.99463 4.64249,2.89077 6.04695,4.21372 1.40446,1.32295 3.7778,3.03782 5.27412,3.81087 3.65112,1.88629 17.13333,11.92563 21.10357,15.71405 1.75324,1.67308 5.1322,4.04174 7.50872,5.26375 2.37652,1.22191 6.90902,4.41405 10.07251,7.09363 11.2868,9.56076 14.7891,11.21893 18.9398,8.96466 2.97324,-1.61456 3.91628,-4.39546 2.32592,-6.85835 -1.96535,-3.04361 -5.02147,-6.09771 -8.71276,-8.70691 -5.45269,-3.8543 -12.80942,-10.54995 -13.90944,-12.65902 -1.07862,-2.06822 -7.86875,-7.4769 -15.06931,-12.00385 -2.22218,-1.39694 -5.97359,-4.42804 -8.33633,-6.73578 -2.36282,-2.30774 -6.46193,-5.38107 -9.10942,-6.82963 -6.93323,-3.79403 -10.45702,-6.69824 -11.05373,-9.11097 -0.33799,-1.36638 -1.88827,-2.71023 -4.39583,-3.8104 -2.13049,-0.93482 -5.81298,-3.07214 -8.18333,-4.74965 -2.37036,-1.6775 -4.47201,-3.04996 -4.67034,-3.04996 -0.19833,0 -1.7779,-1.34577 -3.5101,-2.99061 -1.73228,-1.64484 -5.60513,-4.54426 -8.60638,-6.44316 -4.75159,-3.00643 -5.6161,-4.00198 -6.68992,-7.70399 -1.40563,-4.84599 -2.22607,-5.57183 -13.26738,-11.737 -4.42249,-2.46942 -8.42102,-5.33148 -8.88561,-6.36025 -0.48508,-1.07404 -2.44063,-2.33985 -4.59298,-2.97294 -2.06147,-0.6064 -5.20629,-2.23099 -6.98845,-3.61026 -1.78217,-1.37937 -6.08413,-3.89074 -9.56013,-5.58104 -3.47591,-1.6902 -7.08694,-3.82881 -8.02464,-4.7524 -2.02919,-1.99883 -14.03277,-8.58075 -15.6488,-8.58075 -0.62165,0 -3.02139,-1.36492 -5.3327,-3.03322 -2.31132,-1.6682 -5.83475,-3.84215 -7.82984,-4.83098 -1.9951,-0.98874 -3.76348,-2.10834 -3.9297,-2.48791 -0.16623,-0.37958 -0.66845,-0.69015 -1.11599,-0.69015 -0.44753,0 -2.96407,-1.39334 -5.59234,-3.09624 -2.62817,-1.7029 -7.28772,-4.37918 -10.35454,-5.94727 -3.06664,-1.56809 -6.35238,-3.85292 -7.30169,-5.07741 -2.15869,-2.78477 -9.35608,-6.52441 -18.18529,-9.44849 -3.72973,-1.23545 -8.67258,-3.09855 -10.9839,-4.1403 -13.60745,-6.13222 -15.57443,-7.77374 -17.88784,-14.92544 -0.84556,-2.61453 -3.06827,-7.85942 -4.93931,-11.6551 -1.87113,-3.79578 -3.67333,-7.82234 -4.00497,-8.94782 -0.33173,-1.12557 -1.59916,-2.84145 -2.81662,-3.81317 -1.21746,-0.97171 -2.21356,-2.37601 -2.21356,-3.12063 0,-0.74452 -0.76004,-2.34133 -1.68903,-3.54824 -0.92899,-1.20701 -2.62028,-4.05794 -3.7583,-6.33541 -2.886,-5.77537 -5.95191,-9.88833 -11.04013,-14.8095 -2.40382,-2.32504 -4.37053,-4.49898 -4.37053,-4.83099 0,-1.45877 3.34351,-0.36467 7.61446,2.49169 7.8108,5.22372 13.54125,7.94702 16.72162,7.94702 2.15479,0 3.16258,0.47803 3.46276,1.64272 0.32873,1.27565 1.47482,1.68633 5.12957,1.83826 5.32037,0.22112 8.92823,1.48739 11.90618,4.17875 1.12115,1.01322 4.0407,2.38651 6.48786,3.05162 4.18354,1.13699 7.07842,1.80247 23.94658,5.50475 3.74081,0.82099 10.613,2.47724 15.27064,3.68057 9.16655,2.36801 13.4415,2.67673 18.13813,1.30979 3.17628,-0.92432 3.66853,-0.85513 21.45634,3.01463 16.3235,3.55128 27.76356,5.12885 30.25743,4.17241 3.28574,-1.26047 17.36186,-1.00899 27.56949,0.49258 2.11181,0.31065 9.34883,0.97089 16.08228,1.46714 6.73344,0.49635 13.26284,1.1 14.50978,1.34155 8.60239,1.66627 14.14885,2.51165 21.00744,3.20197 4.3221,0.43507 9.92378,1.48721 12.44939,2.33811 2.52488,0.85099 4.98302,1.30114 5.46257,1.00043 0.47955,-0.30072 3.85543,0.0745 7.50201,0.83295 3.64658,0.75888 10.62841,1.82777 15.51458,2.37537 4.88635,0.54761 11.82366,1.81636 15.41664,2.81955 10.26386,2.86574 12.73052,3.05245 17.23944,1.3052 2.83539,-1.0988 5.55516,-1.43356 8.92795,-1.09898 2.66763,0.26464 9.13935,0.90923 14.38101,1.43245 5.24211,0.52313 12.3841,1.8724 15.87007,2.99844 3.48652,1.12603 6.58817,1.99064 6.8926,1.92153 1.86206,-0.4231 20.18039,3.59334 23.11318,5.06775 1.94657,0.97871 5.37569,1.86053 7.62017,1.95973 4.69718,0.2075 7.46818,0.99849 18.13723,5.17734 4.8284,1.89117 9.49937,3.06478 12.50289,3.14116 2.90432,0.0736 9.04631,1.56938 15.57897,3.79329 5.93133,2.01916 12.58361,3.92147 14.78281,4.22734 3.6007,0.50077 4.1934,0.30458 5.959,-1.97316 2.5294,-3.26289 2.4732,-4.05849 -0.5332,-7.53376 z"
   id="path3088"
   inkscape:connector-curvature="0"
   style="stroke-width:1" /></svg>