<?xml version="1.0" encoding="UTF-8" standalone="no"?>
<!-- Created with Inkscape (http://www.inkscape.org/) -->

<svg
   xmlns:dc="http://purl.org/dc/elements/1.1/"
   xmlns:cc="http://creativecommons.org/ns#"
   xmlns:rdf="http://www.w3.org/1999/02/22-rdf-syntax-ns#"
   xmlns:svg="http://www.w3.org/2000/svg"
   xmlns="http://www.w3.org/2000/svg"
   xmlns:sodipodi="http://sodipodi.sourceforge.net/DTD/sodipodi-0.dtd"
   xmlns:inkscape="http://www.inkscape.org/namespaces/inkscape"
   width="297mm"
   height="210mm"
   viewBox="0 0 297 210"
   version="1.1"
   id="svg8"
   inkscape:version="0.92.3 (unknown)"
   sodipodi:docname="Cuculus_canorus.svg">
  <defs
     id="defs2" />
  <sodipodi:namedview
     id="base"
     pagecolor="#ffffff"
     bordercolor="#666666"
     borderopacity="1.0"
     inkscape:pageopacity="0.0"
     inkscape:pageshadow="2"
     inkscape:zoom="0.35"
     inkscape:cx="-110"
     inkscape:cy="560"
     inkscape:document-units="mm"
     inkscape:current-layer="layer1"
     showgrid="false"
     inkscape:window-width="2341"
     inkscape:window-height="1010"
     inkscape:window-x="264"
     inkscape:window-y="178"
     inkscape:window-maximized="0" />
  <metadata
     id="metadata5">
    <rdf:RDF>
      <cc:Work
         rdf:about="">
        <dc:format>image/svg+xml</dc:format>
        <dc:type
           rdf:resource="http://purl.org/dc/dcmitype/StillImage" />
        <dc:title></dc:title>
      </cc:Work>
    </rdf:RDF>
  </metadata>
  <g
     inkscape:label="Layer 1"
     inkscape:groupmode="layer"
     id="layer1"
     transform="translate(0,-87)">
    <path
       style="fill:#000000;stroke-width:1"
       d="m 71.34174,283.65541 c -0.521145,-0.398 -1.726993,-1.17135 -2.67968,-1.71855 -2.943122,-1.69049 -5.068967,-5.58949 -6.354677,-11.65516 -0.419766,-1.98032 -1.159717,-5.39142 -1.644345,-7.58021 -1.813861,-8.19223 -0.985961,-18.12537 2.340005,-28.07513 0.806539,-2.41282 1.822353,-5.78095 2.257378,-7.48472 1.709052,-6.69369 4.233904,-12.20868 7.537989,-16.46505 0.932876,-1.20174 3.383219,-3.47816 5.445191,-5.05871 2.06199,-1.58054 3.69774,-3.00822 3.635,-3.17261 -0.0628,-0.16439 -2.52439,-2.91935 -5.470338,-6.12212 -2.945949,-3.20277 -6.030239,-6.676 -6.853992,-7.71828 -0.823742,-1.04228 -1.743406,-2.09721 -2.043727,-2.3443 -0.685629,-0.56411 -3.462967,-1.50149 -5.454565,-1.84099 -2.267762,-0.38656 -3.290437,-1.15813 -3.149735,-2.37638 0.19097,-1.65343 3.038554,-2.83814 7.29911,-3.03675 2.636792,-0.1229 3.845821,-0.36901 5.223877,-1.06336 2.248574,-1.13298 5.96629,-2.02411 8.44025,-2.02311 1.95396,7.5e-4 6.4306,0.86566 10.87684,2.10136 1.39623,0.38804 2.64975,0.59437 2.78561,0.45852 0.53542,-0.53542 -0.79205,-3.21429 -2.48921,-5.02325 -3.14459,-3.35177 -3.81783,-5.54777 -2.86557,-9.34702 0.62629,-2.49868 1.30293,-3.94293 5.74805,-12.26877 4.80508,-9.00001 6.420279,-10.99191 21.331329,-26.3061 10.75655,-11.04735 22.42146,-22.01779 23.41166,-22.01779 0.28287,0 1.15437,-0.5668 1.93669,-1.25956 2.23393,-1.97823 3.20799,-2.530527 4.46299,-2.530527 1.63155,0 2.07604,0.612257 2.07604,2.859637 0,1.46225 0.18775,2.11992 0.7506,2.6293 1.13393,1.02619 1.33505,2.92519 0.55293,5.22091 -0.37232,1.09285 -0.63803,2.80896 -0.5905,3.81358 0.0475,1.0046 -0.10752,2.41413 -0.3445,3.13228 -0.37889,1.14805 -0.31274,1.54287 0.5478,3.26973 1.16429,2.33644 1.19463,3.00842 0.23157,5.13006 -0.5939,1.30836 -0.65455,1.8272 -0.32434,2.77441 0.22338,0.64078 0.31558,1.84033 0.20488,2.66563 -0.11993,0.89458 0.005,1.917 0.3094,2.53176 0.504,1.01769 0.50577,1.74914 0.032,13.18242 -0.0697,1.68022 -0.33596,3.68934 -0.59185,4.4647 -0.34348,1.04076 -0.35845,1.71613 -0.0572,2.58038 0.22444,0.64384 0.30622,1.57645 0.18174,2.07247 -0.17298,0.68918 0.0514,1.16129 0.95158,2.0022 1.23477,1.15343 1.46304,2.27103 0.81305,3.98066 -0.26491,0.69673 -0.20394,1.34493 0.22251,2.36556 0.38913,0.93134 0.50791,1.9359 0.35191,2.97624 -0.16107,1.07406 -0.0508,1.92138 0.34863,2.68099 0.66607,1.26643 0.45876,3.97888 -0.40975,5.36115 -0.29008,0.4617 -0.52742,1.78949 -0.52742,2.95068 0,1.26744 -0.23449,2.4691 -0.58672,3.00666 -0.42042,0.64165 -0.5547,1.63154 -0.47376,3.49251 l 0.11297,2.59708 3.79012,0.99344 c 2.08456,0.54639 6.60425,1.88372 10.04379,2.97184 13.92712,4.40594 12.30453,4.06581 21.6338,4.53504 17.22036,0.86612 22.25777,1.22408 27.35855,1.94411 2.86914,0.40503 5.74177,0.7364 6.38365,0.7364 4.23109,0 15.22322,3.66707 17.39407,5.80282 1.56969,1.5443 2.65308,3.17791 2.65308,4.00049 0,0.43334 -0.5864,1.24456 -1.32653,1.8351 -0.74375,0.59344 -1.32654,1.40126 -1.32654,1.83878 -1e-5,0.42918 -0.25043,1.1114 -0.55647,1.51604 -0.30606,0.40464 -0.56189,1.35505 -0.56852,2.11201 -0.02,2.27425 -2.3491,3.6214 -9.37744,5.42374 -1.77182,0.45437 -4.06736,0.59294 -9.28576,0.5605 -3.81264,-0.0237 -9.06402,-0.0193 -11.66972,0.0104 -3.02274,0.0337 -5.83516,-0.16598 -7.76972,-0.55166 -1.66765,-0.33247 -3.75346,-0.66099 -4.63513,-0.73002 -1.98051,-0.15508 -4.6217,-0.51575 -7.11421,-0.97145 -2.45259,-0.44838 -5.81468,-1.01066 -8.90675,-1.48954 -1.35497,-0.20985 -5.2766,-0.83541 -8.71472,-1.39011 -5.30451,-0.85581 -6.91158,-0.97146 -10.6123,-0.76364 -2.39863,0.13472 -8.08532,0.35122 -12.63705,0.48113 -9.17838,0.26196 -8.53351,0.0562 -9.1503,2.92005 -0.12851,0.59671 -1.14025,1.9915 -2.24828,3.09955 -1.10805,1.10805 -2.47327,2.79723 -3.03382,3.75374 -0.65409,1.1161 -1.51935,1.97461 -2.41539,2.39653 -1.00279,0.47217 -1.63217,1.15441 -2.23361,2.42124 -0.94645,1.99349 -1.98196,2.86112 -3.8281,3.20745 -0.92146,0.17288 -1.51588,0.62824 -2.16749,1.66046 -0.49381,0.78226 -1.43456,1.84232 -2.09056,2.35571 -0.72503,0.56743 -1.69175,2.03483 -2.46543,3.74229 -0.79961,1.76475 -1.65002,3.04235 -2.28773,3.43699 -0.55825,0.34548 -1.66932,1.81305 -2.46903,3.26125 -0.7997,1.44822 -1.85984,2.89903 -2.35586,3.22403 -0.49601,0.32501 -1.64541,1.82157 -2.55423,3.32574 -1.05996,1.75428 -2.03002,2.89358 -2.70563,3.17765 -0.57928,0.24357 -1.719419,1.37274 -2.533659,2.50928 -0.81424,1.13655 -2.16192,2.44898 -2.99487,2.91654 -1.10503,0.62029 -1.57797,1.16781 -1.74948,2.02534 -0.22691,1.13458 -1.58383,2.65291 -3.93942,4.40805 -0.62027,0.46216 -1.2236,1.31947 -1.34073,1.90511 -0.29938,1.49689 -1.59978,3.02097 -3.33132,3.90434 -0.96882,0.49425 -1.66664,1.20577 -2.02593,2.06569 -0.58456,1.39904 -2.24117,2.62221 -4.35225,3.21348 -0.71224,0.19951 -1.84888,0.89958 -2.525872,1.55575 -1.589825,1.54092 -4.049587,1.91745 -5.464918,0.83655 z"
       id="path826"
       inkscape:connector-curvature="0" />
  </g>
</svg>
