<?xml version="1.0" encoding="UTF-8" standalone="no"?>
<!-- Created with Inkscape (http://www.inkscape.org/) -->

<svg
   xmlns:dc="http://purl.org/dc/elements/1.1/"
   xmlns:cc="http://creativecommons.org/ns#"
   xmlns:rdf="http://www.w3.org/1999/02/22-rdf-syntax-ns#"
   xmlns:svg="http://www.w3.org/2000/svg"
   xmlns="http://www.w3.org/2000/svg"
   xmlns:sodipodi="http://sodipodi.sourceforge.net/DTD/sodipodi-0.dtd"
   xmlns:inkscape="http://www.inkscape.org/namespaces/inkscape"
   width="297mm"
   height="210mm"
   viewBox="0 0 297 210"
   version="1.1"
   id="svg8"
   inkscape:version="0.92.3 (2405546, 2018-03-11)"
   sodipodi:docname="brachiopoda.svg"
   inkscape:export-filename="/home/mjeltsch/Documents/Informatics/Phylogeny2/new/images/Xenopus_tropicalis.png"
   inkscape:export-xdpi="17.0543"
   inkscape:export-ydpi="17.0543">
  <defs
     id="defs2" />
  <sodipodi:namedview
     id="base"
     pagecolor="#ffffff"
     bordercolor="#666666"
     borderopacity="1.0"
     inkscape:pageopacity="0.0"
     inkscape:pageshadow="2"
     inkscape:zoom="0.26584325"
     inkscape:cx="-460.01867"
     inkscape:cy="396.85039"
     inkscape:document-units="mm"
     inkscape:current-layer="layer1"
     showgrid="false"
     inkscape:window-width="1865"
     inkscape:window-height="1025"
     inkscape:window-x="55"
     inkscape:window-y="27"
     inkscape:window-maximized="1" />
  <metadata
     id="metadata5">
    <rdf:RDF>
      <cc:Work
         rdf:about="">
        <dc:format>image/svg+xml</dc:format>
        <dc:type
           rdf:resource="http://purl.org/dc/dcmitype/StillImage" />
        <dc:title />
      </cc:Work>
    </rdf:RDF>
  </metadata>
  <g
     inkscape:label="Layer 1"
     inkscape:groupmode="layer"
     id="layer1"
     transform="translate(0,-87)">
    <g
       style="overflow:inherit;stroke-width:0.22615078"
       id="g20"
       transform="matrix(1.1711898,0,0,1.1686958,83.310707,115.31247)">
      <path
         style="stroke:#000000;stroke-width:0.22615078;stroke-miterlimit:10"
         id="path3"
         d="m 84.197,126.588 c -0.705,-6.78 -2.285,-33.083 5.5,-47.25 0,0 -6.334,-3 -8.834,-4.167 -5.166,6.5 -8,37.5 -5.207,51.417 2.541,0 4.207,0 8.541,0 z"
         inkscape:connector-curvature="0" />
      <path
         style="stroke:#000000;stroke-width:0.22615078;stroke-miterlimit:10"
         id="path5"
         d="m 80.865,75.171 c 0.5,-5.167 1,-7.5 -5.168,-16 -6.166,-8.5 -12.5,-5.5 -18.547,-8.667 -6.047,-3.167 -11.619,-15.167 -16.453,-18.5 -4.834,-3.333 -11.166,-2.666 -15.166,-4.833 -4,-2.167 -6.5,-2.5 -9.668,-9.167 5.668,-3.333 14.168,-12.167 31.668,-12.5 17.5,-0.333 49.166,18.834 50.834,49.501 0.834,15.344 -8.668,24.333 -8.668,24.333 0,0 -6.135,-2.9 -8.832,-4.167 z"
         inkscape:connector-curvature="0" />
      <path
         style="stroke:#000000;stroke-width:0.22615078;stroke-miterlimit:10"
         id="path7"
         d="m 71.549,55.005 c -4.313,1 -7.853,1.333 -15.991,-0.917 -8.138,-2.25 -15.861,-13.583 -22.195,-15.25 -6.332,-1.667 -17.5,0.5 -24.832,-9 -5.668,36.166 26.166,50.333 43.332,50.333 17.168,0 27.365,-15.542 27.365,-15.542 -0.748,-1.517 -4.451,-6.636 -7.679,-9.624 z"
         inkscape:connector-curvature="0" />
    </g>
  </g>
</svg>
