<?xml version="1.0" encoding="UTF-8" standalone="no"?>
<!-- Created with Inkscape (http://www.inkscape.org/) -->

<svg
   xmlns:dc="http://purl.org/dc/elements/1.1/"
   xmlns:cc="http://creativecommons.org/ns#"
   xmlns:rdf="http://www.w3.org/1999/02/22-rdf-syntax-ns#"
   xmlns:svg="http://www.w3.org/2000/svg"
   xmlns="http://www.w3.org/2000/svg"
   xmlns:sodipodi="http://sodipodi.sourceforge.net/DTD/sodipodi-0.dtd"
   xmlns:inkscape="http://www.inkscape.org/namespaces/inkscape"
   width="297mm"
   height="210mm"
   viewBox="0 0 297 210"
   version="1.1"
   id="svg8"
   inkscape:version="0.92.3 (2405546, 2018-03-11)"
   sodipodi:docname="bryozoa.svg"
   inkscape:export-filename="/home/mjeltsch/Documents/Informatics/Phylogeny2/new/images/Xenopus_tropicalis.png"
   inkscape:export-xdpi="17.0543"
   inkscape:export-ydpi="17.0543">
  <sodipodi:namedview
     id="base"
     pagecolor="#ffffff"
     bordercolor="#666666"
     borderopacity="1.0"
     inkscape:pageopacity="0.0"
     inkscape:pageshadow="2"
     inkscape:zoom="0.53168651"
     inkscape:cx="561.25984"
     inkscape:cy="396.85039"
     inkscape:document-units="mm"
     inkscape:current-layer="layer1"
     showgrid="false"
     inkscape:window-width="1865"
     inkscape:window-height="1025"
     inkscape:window-x="55"
     inkscape:window-y="27"
     inkscape:window-maximized="1"
     inkscape:lockguides="true" />
  <defs
     id="defs2">
    <clipPath
       id="clipPath844"
       clipPathUnits="userSpaceOnUse">
      <path
         inkscape:connector-curvature="0"
         id="path846"
         d="m -556.35073,-168.78199 -25.87677,75.639806 66.68246,100.5213279 25.87678,10.9478661 73.64931,0.995261 -2.9858,-32.843602 69.66826,-55.734595 10.94785,-82.606634 -48.76776,-26.87205 -78.6256,-9.9526 z"
         style="fill:none;stroke:#000000;stroke-width:0.26458332px;stroke-linecap:butt;stroke-linejoin:miter;stroke-opacity:1" />
    </clipPath>
  </defs>
  <metadata
     id="metadata5">
    <rdf:RDF>
      <cc:Work
         rdf:about="">
        <dc:format>image/svg+xml</dc:format>
        <dc:type
           rdf:resource="http://purl.org/dc/dcmitype/StillImage" />
        <dc:title />
      </cc:Work>
    </rdf:RDF>
  </metadata>
  <g
     transform="translate(0,-87)"
     id="layer1"
     inkscape:groupmode="layer"
     inkscape:label="Layer 1">
    <g
       transform="matrix(0.03132541,-0.11470983,0.17769531,0.03224136,41.835805,238.62699)"
       id="layer4"
       style="stroke-width:1.80893457">
      <path
         style="fill:#000000;fill-opacity:1;stroke:#000000;stroke-width:2.35648155px;stroke-linecap:butt;stroke-linejoin:miter;stroke-opacity:1"
         d="m 1142.9767,251.65193 c -45.9751,8.46053 -95.4978,28.6544 -135.4008,50.08524 26.9342,-22.12258 104.3254,-42.81102 111.1508,-59.96858 -58.1458,23.37479 -112.7279,51.23813 -162.59895,82.18263 36.79131,-26.25545 88.14135,-51.89038 121.87155,-73.46194 -31.302,5.14735 -104.1022,58.21569 -96.00901,50.00837 31.68401,-31.63056 98.43991,-50.92502 123.56891,-80.06436 -76.717,27.57369 -124.60888,78.98533 -184.85728,119.3213 39.21729,-34.50775 84.00618,-66.37391 130.31798,-96.82387 5.0941,-18.456 -58.08782,31.70921 -71.55291,41.87913 -19.78768,15.26043 -86.28615,70.1171 -37.36323,28.97791 36.34863,-30.91173 73.62504,-61.91027 117.12154,-88.59147 54.2897,-10.32579 -11.2026,-18.44963 -23.4565,7.75564 -47.86876,32.84987 -92.02094,67.88113 -135.30678,103.28325 52.05481,-44.39301 106.99128,-87.49602 156.37838,-133.11794 -3.4721,-29.82703 -51.9993,49.89065 -67.50379,47.93592 10.21098,-13.56558 37.59499,-52.95784 3.59966,-20.16873 -22.29641,27.82676 -63.99658,81.79099 -85.74663,89.68845 35.3855,-32.40603 55.59884,-69.83132 80.64318,-105.35878 -8.89995,1.30373 14.59648,-49.9125 -9.80597,-17.12242 -16.07332,40.04974 -40.92246,79.75086 -72.46543,116.2879 -23.90409,16.78916 25.73924,-37.42824 31.87101,-51.1252 30.18682,-28.33293 23.93381,-54.14284 23.23159,-76.67338 -9.73537,-21.51062 -19.52854,17.85199 -19.00194,27.71493 -6.36835,35.24269 -30.42873,68.74833 -54.12586,101.15375 18.8383,-44.42573 50.63717,-88.71465 55.15948,-134.11643 -32.81557,18.31664 -27.83024,64.95595 -49.33771,93.89548 -23.5511,44.88567 -40.73283,94.91889 -104.94959,124.46438 -52.51505,26.06212 -135.2425,42.17627 -152.16002,84.92185 -33.40976,10.96932 -38.31442,13.2628 -67.01296,-7.48776 -28.69854,-20.75056 -45.63071,-11.56939 -67.41551,-50.84002 -21.7848,-39.27063 88.10396,-15.94125 113.12794,-54.45201 51.91722,-30.96144 83.51963,-72.93581 139.6362,-101.13839 52.62757,-31.57681 109.48443,-59.82111 167.53859,-86.66143 -22.0751,-17.62699 -87.36062,36.70392 -120.85824,48.93397 -22.04468,11.45862 -76.51718,43.60664 -28.75229,11.86664 40.22063,-29.99879 90.10012,-52.6735 143.17508,-70.79064 10.79961,-21.6795 -35.28955,10.06864 -39.60811,-1.06198 -56.03372,18.03082 -92.00715,55.50776 -134.83982,84.5564 4.02623,-18.10388 77.28186,-59.10417 113.88617,-81.98628 27.80979,-6.6092 59.71438,-39.63061 14.15049,-15.76644 -27.41231,5.53103 -70.82396,42.40464 -104.12781,64.2507 -22.81697,20.37009 -50.94311,46.31817 -16.60999,8.12799 23.51669,-29.59622 79.91808,-53.08375 91.81671,-82.61242 -16.49712,13.23228 -61.88804,44.12399 -26.38135,10.16812 16.56956,-10.33581 70.49414,-66.351626 21.49502,-33.87029 -39.76891,42.74004 -77.41778,86.83175 -115.89677,129.67006 37.31568,-46.37451 82.24808,-92.19437 104.03396,-142.04352 -26.40562,-13.14021 -11.03961,37.61383 -38.30259,49.23949 -22.38692,30.17293 -49.02673,58.97034 -75.09768,87.94472 31.26649,-38.88528 70.99404,-76.63301 87.82743,-118.81933 -36.96603,35.88078 -57.34489,81.08134 -95.46208,118.37527 30.66599,-48.67074 88.20699,-98.55767 96.26625,-153.164208 -32.53644,28.101238 -35.30329,76.186498 -70.1011,108.815388 11.52128,-25.33244 44.82482,-59.54411 34.26503,-81.14334 -2.61249,20.36682 -67.77485,124.14006 -50.6141,94.83066 22.60846,-40.34685 42.86399,-82.30467 49.65949,-124.148642 -22.36197,23.425652 -20.46034,62.782522 -41.50329,91.078872 10.45258,-26.0416 34.73463,-85.77172 11.70157,-95.210233 -5.64145,39.970023 -13.55286,80.377843 -31.17042,119.789413 8.21628,-35.592 31.32038,-77.56817 17.92371,-109.59702 -10.82717,-19.429421 -33.79032,11.99816 -52.17743,11.762 -39.91345,31.06811 -55.96748,71.88302 -82.04854,107.83332 8.98554,-40.15383 48.11709,-76.58512 77.4463,-112.79288 42.08988,-34.888082 -2.18981,-16.884595 -9.44257,-4.63698 -29.14194,26.02 -52.27832,65.51127 -69.88401,98.45076 -16.77447,39.10194 4.03657,-36.18992 17.8996,-48.0823 14.64349,-13.85522 45.01279,-87.2412 12.94903,-38.19827 -29.0358,38.48705 5.67122,-35.107311 13.38045,-47.746799 -16.05165,-23.059266 -27.13957,40.978289 -32.29721,54.124459 -9.57123,32.01255 -23.4652,80.05823 -30.09041,102.55109 11.83167,-52.2821 32.06672,-105.86828 26.59328,-157.73712 -32.5292,-5.836595 9.2843,36.65913 -10.92475,53.48158 -5.20676,28.86667 -14.7771,62.31473 -23.79397,88.88589 9.13961,-39.75155 25.74573,-80.4147 19.72275,-119.820987 -17.72399,32.042627 -8.02026,82.562447 -26.52878,108.135737 6.84035,-46.49179 29.12578,-96.77303 7.17763,-140.541025 -9.74813,26.843509 2.69076,124.660695 -7.62792,108.510535 -3.44003,-23.43258 10.6927,-59.51439 -10.70222,-74.492016 7.76538,22.215496 1.45896,111.965506 1.39867,96.300306 0.32994,-41.34151 -2.39412,-83.5911 -17.88681,-122.671046 -9.21092,26.386232 13.53328,61.631806 8.1862,92.132556 -3.71276,-26.01702 -11.92892,-85.770088 -39.22138,-89.01778 15.76218,37.55183 29.55724,76.02359 33.43836,115.82637 -10.60508,-29.74582 -11.17197,-95.408103 -49.13257,-98.82381 36.07325,59.98565 53.28573,125.42869 55.6158,191.41615 -26.1335,37.35279 -80.80767,75.56015 -76.01928,114.15039 -39.27413,2.59421 -97.9336,-4.9592 -144.10199,12.09419 -78.92385,9.14899 -72.25997,83.08284 -131.34023,110.42035 -48.48092,24.09571 -106.408663,44.43319 -82.212117,87.59398 8.976517,48.6975 74.472977,49.89878 132.913967,57.65955 59.54454,9.7046 94.11145,52.68385 161.77886,51.55443 59.19194,9.72797 107.41109,-38.40785 149.26752,-42.34648 7.81609,47.37724 102.18609,47.87542 128.86715,85.17682 11.46386,64.94295 2.56396,133.51633 -17.64683,199.47621 39.2264,-19.13414 21.9513,-83.17754 28.3101,-106.58287 3.97811,39.00285 -2.20595,78.65202 -9.87829,117.78599 26.10391,-8.59607 22.27708,-68.78897 20.74465,-95.02382 12.73737,25.06049 -6.42541,77.93816 11.83063,89.43054 4.21352,-43.27174 0.45202,-86.53627 -10.12672,-128.51654 12.25973,32.50485 15.05192,72.95095 23.03214,101.63806 11.94411,-19.95348 -13.75622,-84.7319 -7.89224,-76.48377 22.28825,31.99503 7.63108,78.27537 30.58541,105.45788 9.33238,-50.83927 -23.07875,-97.24846 -40.31987,-144.41172 27.14298,32.91686 26.46824,77.0796 51.35065,109.79571 -1.0504,-37.40112 -25.13672,-72.70821 -39.32092,-107.01144 19.98711,36.87096 40.17332,74.15114 49.67872,113.35343 -18.88744,35.24719 30.67144,1.91484 3.87618,-16.70041 -11.38018,-34.42703 -27.70863,-68.1925 -42.78625,-101.47312 26.09414,43.80826 41.51492,91.71223 76.04815,132.4312 22.06887,-17.46002 -39.88244,-49.86029 -29.16555,-65.24217 11.56804,11.81938 46.51354,44.8624 24.09444,11.03825 -19.56518,-21.78025 -76.68427,-82.04116 -62.43232,-83.74652 20.99036,32.50207 56.16863,59.18455 85.85722,87.86198 3.60418,-5.60282 56.24749,30.52356 28.11505,2.11258 -42.53376,-26.95315 -79.39056,-58.7023 -108.14354,-92.81692 -7.61016,-20.98638 33.37023,31.23594 47.53855,40.81213 18.88851,29.68548 56.18817,37.68395 85.91754,47.3462 33.77993,4.11553 -11.59779,-18.9926 -24.7449,-23.09839 -42.05743,-19.33061 -71.32281,-47.86834 -99.37324,-75.71001 46.58404,30.46611 85.26882,68.18746 141.6431,91.01264 -4.4576,-26.81965 -68.38307,-44.9403 -93.32825,-70.15413 -49.20374,-30.64439 -80.93857,-70.76004 -125.62241,-103.48303 -25.6698,-12.70909 -124.19246,-45.34313 -50.08605,-61.5398 61.69811,4.6023 134.59771,15.75188 173.89404,47.21218 48.32584,48.32726 84.4055,102.11414 112.41887,157.32774 19.09043,-34.58047 -48.13105,-82.9412 -51.79922,-97.73822 31.47178,30.73109 53.90544,65.25499 75.16491,99.62814 17.71625,-15.4504 -29.78904,-64.52898 -50.3658,-85.96 30.01943,16.89862 51.04403,67.15071 76.22446,70.95749 -27.75037,-37.48571 -62.82121,-72.43897 -103.21856,-104.15904 35.0186,23.26836 67.1352,56.17382 95.43361,77.60636 -3.6073,-20.45961 -74.5859,-66.44659 -63.16378,-61.41265 43.87353,19.67267 64.2361,62.99137 105.20507,78.43026 -31.63493,-49.5749 -103.44552,-79.178 -156.72999,-117.3758 47.248,24.53843 89.71833,52.86329 129.83334,82.24569 27.41072,2.63791 -40.44349,-37.10963 -54.11004,-45.60151 -20.56439,-12.46629 -95.11104,-54.21911 -39.077,-23.53249 42.15993,22.78495 84.32206,46.18242 119.07762,73.85428 8.40534,35.44223 29.59603,-8.12414 -8.64345,-15.18445 -41.77988,-29.14757 -87.37758,-55.93894 -133.25956,-82.12123 58.63471,31.58752 115.005,65.05804 175.83834,94.86106 45.8831,-3.46411 -68.94367,-32.37371 -63.874,-42.69017 19.27172,6.21134 75.5521,22.7408 30.21831,1.58516 -39.35853,-13.6265 -115.88774,-39.03903 -124.97887,-53.09206 44.56272,22.09178 98.81529,33.96321 149.52306,49.10517 -0.7855,-5.82488 74.0211,7.67195 27.3886,-7.15019 -58.8037,-9.03756 -115.8946,-23.88246 -167.26467,-43.27397 -22.33753,-15.12428 53.51115,15.52241 73.53627,19.03261 39.06337,18.81858 79.1997,13.67406 113.5945,12.32299 34.0604,-7.27267 -24.5456,-12.19361 -39.6321,-11.45721 -52.79444,-2.81879 -100.55951,-17.38741 -146.69863,-31.76001 65.09467,10.69015 128.23223,29.94596 196.74233,31.14583 C 1044.2233,701.86106 969.85363,706.57585 926.87139,692.93112 866.21877,681.93814 808.6909,666.378 755.58606,645.57028 698.20735,621.39466 617.46692,621.77681 560.34873,640.59647 c -18.29353,-10.17793 -8.27755,-29.02969 13.40012,-57.21053 21.67767,-28.18084 4.30393,-59.14003 58.73359,-62.1757 50.48579,4.11272 113.21629,21.45812 177.56686,17.39029 58.86281,7.38517 108.78712,26.40982 138.72916,60.17451 43.67109,28.80587 66.82454,76.94968 111.96014,99.63621 -9.1074,-33.06422 -53.826,-58.98053 -80.20341,-87.69849 -18.36642,-16.24299 -36.1277,-31.82873 -3.39924,-8.43747 40.44695,25.24186 68.48525,57.18634 89.16425,91.44356 30.8477,5.55533 -10.3323,-22.62122 6.7721,-26.20636 -20.1671,-36.21402 -72.5522,-58.32184 -111.21323,-85.33071 27.0474,1.85807 79.94423,48.43676 110.02413,71.60471 6.445,18.07768 52.5782,37.69014 22.1677,8.64895 -4.8551,-17.85961 -55.3566,-44.90747 -84.2876,-65.94117 -28.04894,-14.17147 -63.89962,-31.60286 -10.21458,-10.61214 42.00648,14.22861 70.43298,50.43885 113.84768,57.00184 -18.0052,-10.31222 -59.1345,-38.93125 -12.0493,-16.97586 13.5822,10.48828 91.86,43.63257 48.7765,12.70253 -63.3062,-25.64348 -128.1469,-49.75218 -192.32158,-74.51874 69.05548,23.80308 135.97928,53.16897 212.70818,66.13773 23.4468,-18.02271 -55.8381,-5.63391 -69.9945,-23.1284 -43.0324,-13.45535 -83.4169,-29.78055 -124.14496,-45.72209 55.14326,18.93648 107.45316,43.51185 169.50126,52.7693 -44.9178,-21.44194 -105.9233,-31.41417 -153.80758,-52.50069 -56.97079,-22.01841 107.00508,34.5223 66.19248,20.265 33.5672,10.69237 119.5745,40.09001 136.3518,26.2662 -37.7391,-7.73644 -163.0012,-33.78496 -143.0038,-33.91193 34.5288,5.12508 78.5901,24.84926 109.6623,16.42949 -30.6911,-0.83132 -180.13986,-39.27214 -137.8073,-29.24694 58.4921,13.15383 119.7443,24.68202 182.5745,27.32357 -32.7417,-13.73688 -92.9012,-10.73622 -133.2321,-23.38763 38.2785,5.75023 126.0503,19.14812 143.3999,3.52237 -60.1277,-1.9675 -120.6293,-5.40611 -178.3496,-15.30445 46.7489,2.7016 139.2395,22.58178 161.8277,0.50664 -100.0254,3.2654 -201.39965,-6.07931 -293.49214,-23.37542 -60.81712,-22.72308 -136.9817,-15.46534 -203.36102,-26.78317 -63.49408,-28.10504 59.09591,-59.29271 90.22022,-77.5421 56.20366,-16.57741 81.71064,-56.54186 135.10402,-75.44528 65.21043,-31.41684 136.82162,-56.08269 208.60122,-78.45737 -51.892,-7.94515 -128.1615,42.96559 -150.83202,47.38192 48.02282,-24.92642 101.46692,-44.39303 154.63212,-63.06732 l 2.4933,-4.55828 z M 709.5295,102.98836 C 671.59373,140.11479 632.87368,179.58444 597.60125,218.74104 623.3091,175.94525 659.5414,136.2294 709.5295,102.98836 Z m -1.02033,19.55792 c -2.70341,58.5471 -18.76456,117.89519 -46.96528,174.86493 -43.63709,29.29841 -81.83353,78.61101 -147.47531,82.28562 -27.83965,-33.27447 52.53667,-76.44473 61.95979,-113.97337 37.1652,-50.07714 82.41155,-97.76405 132.4808,-143.17718 z"
         id="path4377"
         inkscape:connector-curvature="0"
         sodipodi:nodetypes="ccccccccccccccccccccccccccccczzccccccccccccccccccccccccccccccccccccccccccccccccccccccccccccccccccccccccccccccccccccccccccccccccccccccccccccccccccccccccccccczccccccccccccccccccccccccccccccccccccccccccccccccc" />
    </g>
  </g>
</svg>
