<?xml version="1.0" encoding="UTF-8" standalone="no"?>
<!-- Created with Inkscape (http://www.inkscape.org/) -->

<svg
   xmlns:dc="http://purl.org/dc/elements/1.1/"
   xmlns:cc="http://creativecommons.org/ns#"
   xmlns:rdf="http://www.w3.org/1999/02/22-rdf-syntax-ns#"
   xmlns:svg="http://www.w3.org/2000/svg"
   xmlns="http://www.w3.org/2000/svg"
   xmlns:sodipodi="http://sodipodi.sourceforge.net/DTD/sodipodi-0.dtd"
   xmlns:inkscape="http://www.inkscape.org/namespaces/inkscape"
   version="1.2"
   width="297mm"
   height="210mm"
   viewBox="0 0 1122.5197 793.70078"
   id="Layer_1"
   xml:space="preserve"
   style="overflow:inherit"
   sodipodi:docname="ff.svg"
   inkscape:version="0.92.3 (2405546, 2018-03-11)"><sodipodi:namedview
   pagecolor="#ffffff"
   bordercolor="#666666"
   borderopacity="1"
   objecttolerance="10"
   gridtolerance="10"
   guidetolerance="10"
   inkscape:pageopacity="0"
   inkscape:pageshadow="2"
   inkscape:window-width="1865"
   inkscape:window-height="1025"
   id="namedview5"
   showgrid="false"
   units="mm"
   inkscape:zoom="0.5316865"
   inkscape:cx="283.41122"
   inkscape:cy="396.85039"
   inkscape:window-x="55"
   inkscape:window-y="27"
   inkscape:window-maximized="1"
   inkscape:current-layer="Layer_1"
   showguides="true"
   inkscape:guide-bbox="true" /><metadata
   id="metadata7"><rdf:RDF><cc:Work
       rdf:about=""><dc:format>image/svg+xml</dc:format><dc:type
         rdf:resource="http://purl.org/dc/dcmitype/StillImage" /><dc:title /></cc:Work></rdf:RDF></metadata><defs
   id="defs7">
	
</defs>


	<g
   id="g13"
   transform="translate(-423.68545,210.07659)">
</g><g
   id="g15"
   transform="translate(-423.68545,210.07659)">
</g><g
   id="g17"
   transform="translate(-423.68545,210.07659)">
</g><g
   id="g19"
   transform="translate(-423.68545,210.07659)">
</g><g
   id="g21"
   transform="translate(-423.68545,210.07659)">
</g><g
   id="g23"
   transform="translate(-423.68545,210.07659)">
</g><g
   id="g25"
   transform="translate(-423.68545,210.07659)">
</g><g
   id="g27"
   transform="translate(-423.68545,210.07659)">
</g><g
   id="g29"
   transform="translate(-423.68545,210.07659)">
</g><g
   id="g31"
   transform="translate(-423.68545,210.07659)">
</g><g
   id="g33"
   transform="translate(-423.68545,210.07659)">
</g><g
   id="g35"
   transform="translate(-423.68545,210.07659)">
</g><g
   id="g37"
   transform="translate(-423.68545,210.07659)">
</g><g
   id="g39"
   transform="translate(-423.68545,210.07659)">
</g><g
   id="g41"
   transform="translate(-423.68545,210.07659)">
</g><path
   style="fill:#000000;fill-opacity:1;stroke:#000000;stroke-width:0.99999994px;stroke-linecap:butt;stroke-linejoin:miter;stroke-opacity:1"
   d="m 83.818966,106.21682 9.675664,-1.28263 12.1784,1.72537 18.87848,2.10089 38.66346,6.33815 35.07042,10.39489 33.7633,14.05829 20.36315,13.30729 18.98374,15.83697 11.62015,9.08056 5.69513,4.75111 16.42185,7.87238 74.97556,32.18392 89.71584,41.87388 98.60341,48.36807 110.67024,60.42827 86.6418,50.04398 62.91554,40.37179 43.83332,31.0468 59.46705,46.69603 42.50004,42.35595 34.47289,29.21869 20.4223,18.26389 9.9386,10.89813 7.1206,11.00085 0.9657,7.09304 -1.5501,7.90791 -15.6991,3.46512 -9.2882,-0.69437 -9.6626,-2.54026 -10.5691,-4.67665 -9.57721,-5.22936 -19.37129,-13.85999 11.82381,16.30465 -18.53702,-12.85732 15.17388,16.49242 -23.25336,-14.33826 14.55654,18.89107 -21.78867,-19.5571 12.80267,19.57485 -17.22991,-16.52078 7.26514,13.26837 -16.85549,-14.67488 10.45753,15.01149 -19.21357,-15.41534 9.16347,14.85207 -18.13639,-18.65717 9.15043,18.67494 -14.39877,-20.44636 3.58675,20.0142 -15.52224,-25.98405 -19.3252,-5.08052 -8.2109,-3.93619 -13.05866,-11.50747 -33.43496,-20.99192 -28.12739,-14.26385 -73.29399,-34.00148 -74.18742,-39.96077 -66.43631,-35.18132 -64.52482,-37.42048 -32.06864,-19.69873 -31.36585,-24.78645 -11.76471,-11.34807 -6.2141,-8.86448 -1.42549,-6.24978 v 0 l -10.33921,-5.09828 -23.64089,-12.3613 -32.87673,-28.34711 -34.02619,-26.23904 -37.37626,-26.42681 -26.28816,-17.63674 -11.17343,-6.10094 -16.20505,-4.47114 -26.01217,-9.27892 -16.50722,-5.18325 -17.02618,-9.29665 L 157.84931,192.05194 122.1808,156.16185 97.370487,129.48342 85.402062,110.91124 v 0"
   id="path59"
   inkscape:connector-curvature="0" /></svg>