<?xml version="1.0" encoding="UTF-8" standalone="no"?>
<!-- Created with Inkscape (http://www.inkscape.org/) -->

<svg
   xmlns:dc="http://purl.org/dc/elements/1.1/"
   xmlns:cc="http://creativecommons.org/ns#"
   xmlns:rdf="http://www.w3.org/1999/02/22-rdf-syntax-ns#"
   xmlns:svg="http://www.w3.org/2000/svg"
   xmlns="http://www.w3.org/2000/svg"
   xmlns:sodipodi="http://sodipodi.sourceforge.net/DTD/sodipodi-0.dtd"
   xmlns:inkscape="http://www.inkscape.org/namespaces/inkscape"
   version="1.1"
   width="297mm"
   height="210mm"
   viewBox="0 0 1122.5197 793.70079"
   id="Layer_1"
   xml:space="preserve"
   sodipodi:docname="chaetognatha.svg"
   inkscape:version="0.92.3 (unknown)"><metadata
   id="metadata34"><rdf:RDF><cc:Work
       rdf:about=""><dc:format>image/svg+xml</dc:format><dc:type
         rdf:resource="http://purl.org/dc/dcmitype/StillImage" /><dc:title /></cc:Work></rdf:RDF></metadata><sodipodi:namedview
   pagecolor="#ffffff"
   bordercolor="#666666"
   borderopacity="1"
   objecttolerance="10"
   gridtolerance="10"
   guidetolerance="10"
   inkscape:pageopacity="0"
   inkscape:pageshadow="2"
   inkscape:window-width="2495"
   inkscape:window-height="1416"
   id="namedview32"
   showgrid="false"
   units="mm"
   inkscape:zoom="0.36625"
   inkscape:cx="-574.74403"
   inkscape:cy="300"
   inkscape:window-x="65"
   inkscape:window-y="24"
   inkscape:window-maximized="1"
   inkscape:current-layer="Layer_1" /><defs
   id="defs60" />
    
    
    
<path
   inkscape:connector-curvature="0"
   id="path824"
   d="m 977.50421,59.113466 c 2.89661,4.028847 1.96641,5.773573 -10.41015,19.525864 -9.05753,10.064387 -22.73829,29.25038 -29.75914,41.73432 -1.44502,2.56957 -2.95911,3.8578 -4.95028,4.21216 -2.72515,0.48498 -3.64545,0.14745 -9.36426,-3.43438 -1.12247,-0.70304 -4.9358,2.06216 -15.51906,11.2535 -7.71697,6.70207 -23.36108,19.8962 -34.76475,29.32029 -11.40357,9.42411 -31.16117,26.72053 -43.9058,38.4365 -12.74462,11.71597 -24.30716,22.02813 -25.69468,22.91589 -1.38742,0.88777 -3.92944,3.53808 -5.64888,5.88958 -4.34952,5.94825 -33.65691,35.47517 -49.56244,49.93363 -7.27479,6.61288 -22.21616,20.5852 -33.20301,31.0496 -10.98696,10.46439 -26.88509,24.73627 -35.32927,31.71526 -16.81714,13.89914 -56.3539,43.84347 -65.47072,49.58616 -82.93845,52.24296 -157.60128,101.61081 -180.16263,119.12542 -10.00194,7.76459 -25.00485,18.9302 -33.33985,24.81244 -26.67319,18.82404 -55.12939,41.02994 -84.12544,65.64762 -28.78025,24.43444 -31.41106,26.7764 -39.56119,35.21743 -8.80173,9.11588 -13.65481,15.76866 -18.24007,25.00408 -5.93909,11.96226 -8.89363,20.99651 -11.4439,34.99258 -3.09693,16.99625 -9.60656,29.06199 -20.49525,37.98843 -6.88727,5.6461 -7.90659,4.77249 -1.49327,-1.27981 9.76933,-9.21939 17.03331,-22.04693 18.87953,-33.33953 l 1.12343,-6.87153 -3.1422,1.54398 c -2.71246,1.33282 -3.36273,2.37923 -4.75476,7.65117 -2.47623,9.378 -11.72873,25.84709 -17.35538,30.89187 -1.69625,1.52083 -1.65253,1.29957 0.38793,-1.96313 5.86961,-9.38566 12.37984,-22.73274 13.86468,-28.42497 1.61421,-6.18817 1.60579,-6.25601 -0.67911,-5.47505 -1.66783,0.57004 -2.46559,1.72061 -2.85824,4.12224 -1.0635,6.50501 -5.88595,14.2779 -12.6572,20.40106 -6.14659,5.55825 -10.33775,8.68926 -10.15776,7.58834 0.0439,-0.26867 2.80926,-2.95023 6.14518,-5.95901 8.02074,-7.23418 10.33637,-10.60559 12.28967,-17.89295 l 1.62984,-6.08067 -2.58422,1.14781 c -1.48034,0.65751 -3.85965,3.41259 -5.57005,6.44976 -2.89062,5.13291 -9.4026,11.85245 -11.20136,11.55837 -0.48493,-0.0793 1.39986,-3.07695 4.18843,-6.66149 2.78857,-3.58454 5.12373,-6.80593 5.18923,-7.15866 0.0658,-0.35268 -2.0483,-0.35737 -4.69738,-0.0103 -3.13829,0.41118 -6.312,1.79955 -9.10865,3.98468 -2.36069,1.8445 -4.88758,3.25629 -5.6153,3.13731 -0.79042,-0.12922 -0.0732,-1.1562 1.78128,-2.55073 4.56233,-3.43071 4.31562,-4.6344 -0.97793,-4.77121 -10.70626,-0.27671 -17.69594,-5.18246 -20.68259,-14.51623 -1.07439,-3.35761 -1.07459,-5.37593 -9.2e-4,-9.11053 l 1.37921,-4.79741 -3.04135,1.93093 c -2.34394,1.48813 -2.64549,1.53093 -1.31501,0.1866 0.94948,-0.95937 2.6797,-2.53463 3.84491,-3.50058 1.53921,-1.27599 2.08728,-2.64114 2.00416,-4.99204 -0.13359,-3.77874 -1.36371,-4.18616 -7.09865,-2.35107 -2.30541,0.73769 -4.48578,1.29317 -4.84526,1.2344 -1.63758,-0.26773 2.92193,-2.9515 7.45626,-4.38882 3.49774,-1.10875 5.34518,-2.35226 6.10442,-4.1089 0.59879,-1.38544 0.85785,-2.8401 0.57571,-3.23256 -1.02124,-1.42043 -13.90229,-2.19982 -18.20337,-1.10149 -2.42328,0.61884 -7.05826,2.47351 -10.29994,4.12149 -7.84979,3.99062 -10.00472,4.58845 -5.13014,1.42322 10.7302,-6.9675 21.03947,-9.68647 30.72398,-8.10315 2.86373,0.46819 4.224,0.16196 5.25355,-1.18269 1.12134,-1.46452 1.07591,-1.99741 -0.23561,-2.76315 -2.34195,-1.36735 -22.78466,-0.27293 -31.77917,1.70135 -9.12157,2.00216 -10.41403,1.97768 -5.2945,-0.10027 8.75794,-3.55475 26.68207,-5.62671 35.7916,-4.1374 3.42362,0.55973 4.98178,0.28271 6.68051,-1.18768 1.21851,-1.05471 2.27534,-2.19112 2.34852,-2.52533 0.34901,-1.5937 -9.91457,-3.46349 -17.31852,-3.15505 -10.56161,0.43999 -16.63409,1.76653 -24.2619,5.30005 -9.29663,4.30658 -9.99158,4.43288 -5.511,1.00154 8.88969,-6.80795 31.51739,-10.57298 43.98963,-7.31945 3.87267,1.01024 4.86896,0.90756 6.30856,-0.6502 3.65464,-3.95457 9.92618,-8.19643 16.15798,-10.92869 8.80845,-3.86198 34.45558,-22.84776 47.32385,-35.03239 5.77196,-5.46531 15.63968,-14.56744 21.92825,-20.22695 6.28857,-5.65951 17.59914,-16.12166 25.13458,-23.24922 20.47261,-19.36446 62.47463,-55.56286 97.17729,-83.74973 23.58268,-19.15487 41.77867,-32.71186 77.57042,-57.79431 84.78712,-59.41786 84.74835,-59.38834 190.65981,-145.21351 32.10453,-26.01585 79.29215,-60.97184 86.71429,-64.23677 2.45304,-1.07906 17.37436,-11.70591 33.15841,-23.61524 15.78424,-11.90929 46.46316,-34.39465 68.17557,-49.96743 L 900.10043,95.424578 897.903,93.028757 c -2.6435,-2.882235 -2.20506,-8.208572 0.8275,-10.051361 2.1322,-1.295752 17.30282,-5.535321 21.50121,-6.008714 3.78279,-0.426576 18.22143,-6.603733 26.92964,-11.521136 7.75128,-4.377029 23.49818,-10.037332 26.54019,-9.539995 0.93351,0.152619 2.64466,1.595261 3.80267,3.205875 z m -18.75458,11.575341 c -0.0887,0.542794 0.28275,1.059504 0.82555,1.148245 0.54279,0.08874 1.0595,-0.282757 1.14824,-0.82555 0.0887,-0.542794 -0.28275,-1.059504 -0.82555,-1.148245 -0.54279,-0.08874 -1.0595,0.282756 -1.14824,0.82555 z"
   style="fill:#000000" /></svg>