<?xml version="1.0" encoding="UTF-8" standalone="no"?>
<!-- Created with Inkscape (http://www.inkscape.org/) -->

<svg
   xmlns:dc="http://purl.org/dc/elements/1.1/"
   xmlns:cc="http://creativecommons.org/ns#"
   xmlns:rdf="http://www.w3.org/1999/02/22-rdf-syntax-ns#"
   xmlns:svg="http://www.w3.org/2000/svg"
   xmlns="http://www.w3.org/2000/svg"
   xmlns:sodipodi="http://sodipodi.sourceforge.net/DTD/sodipodi-0.dtd"
   xmlns:inkscape="http://www.inkscape.org/namespaces/inkscape"
   width="297mm"
   height="210mm"
   viewBox="0 0 297 210"
   version="1.1"
   id="svg8"
   inkscape:version="0.92.3 (unknown)"
   sodipodi:docname="Whaleshark.svg">
  <defs
     id="defs2" />
  <sodipodi:namedview
     id="base"
     pagecolor="#ffffff"
     bordercolor="#666666"
     borderopacity="1.0"
     inkscape:pageopacity="0.0"
     inkscape:pageshadow="2"
     inkscape:zoom="1.2576914"
     inkscape:cx="586.65638"
     inkscape:cy="246.0959"
     inkscape:document-units="mm"
     inkscape:current-layer="layer1"
     showgrid="false"
     inkscape:window-width="2495"
     inkscape:window-height="1416"
     inkscape:window-x="65"
     inkscape:window-y="24"
     inkscape:window-maximized="1" />
  <metadata
     id="metadata5">
    <rdf:RDF>
      <cc:Work
         rdf:about="">
        <dc:format>image/svg+xml</dc:format>
        <dc:type
           rdf:resource="http://purl.org/dc/dcmitype/StillImage" />
        <dc:title></dc:title>
      </cc:Work>
    </rdf:RDF>
  </metadata>
  <g
     inkscape:label="Layer 1"
     inkscape:groupmode="layer"
     id="layer1"
     transform="translate(0,-87)">
    <path
       style="fill:#000000;stroke-width:1"
       d="m 171.06862,239.72556 c 0.85144,-0.20035 2.57198,-0.71684 3.82343,-1.14774 7.15471,-2.4635 8.3335,-2.95996 11.1558,-4.69837 5.97317,-3.67919 10.9215,-7.41771 14.16836,-10.70438 1.02325,-1.0358 2.16188,-2.13142 2.53026,-2.43471 0.36839,-0.30329 1.78064,-1.73419 3.13833,-3.17976 1.35769,-1.44556 2.97497,-3.15807 3.59395,-3.80559 1.27738,-1.33619 0.36272,-1.17867 7.47473,-1.28734 5.56754,-0.0851 19.44762,-1.41356 28.31362,-2.70999 9.78436,-1.43068 25.76784,-4.32063 30.55489,-5.52457 5.86076,-1.47398 9.94151,-3.54655 11.47327,-5.82717 0.39812,-0.59275 0.99056,-1.97244 1.3165,-3.06598 0.66978,-2.24693 0.85868,-2.48007 2.6614,-3.28448 2.35478,-1.05074 6.48557,-6.69116 5.60598,-8.58508 -1.15118,-2.47867 -7.04865,-6.05459 -14.06032,-8.52548 -1.98028,-0.69784 -4.05352,-1.37682 -4.60724,-1.50887 -0.55371,-0.13205 -2.71781,-0.74931 -4.80909,-1.37173 -2.09127,-0.62242 -5.39532,-1.57273 -7.34229,-2.11181 -1.947,-0.5391 -3.73638,-1.06018 -3.9764,-1.15795 -0.24004,-0.0977 -1.5537,-0.50425 -2.91928,-0.90327 -1.36557,-0.39901 -3.33875,-0.98333 -4.38485,-1.29846 -4.4271,-1.33368 -11.93618,-3.52247 -16.46455,-4.79917 -1.04365,-0.29424 -2.93119,-0.90055 -4.1945,-1.34732 -1.26331,-0.44679 -3.8878,-1.23509 -5.83218,-1.7518 -9.54555,-2.53669 -17.35056,-0.34282 -31.14764,0.29851 -3.01179,0.14001 -7.46987,0.31376 -9.90683,0.38613 -2.43695,0.0724 -5.01429,0.16092 -5.7274,0.1968 -3.05258,0.15359 -9.96765,0.30657 -11.55166,0.25556 -0.94562,-0.0304 -3.29176,0.0176 -5.21361,0.10693 -4.08567,0.18975 -4.25313,0.17666 -6.57917,-0.51346 -2.68197,-0.79577 -4.73633,-2.0322 -9.60515,-5.78098 -5.39185,-4.15152 -9.7895,-6.14034 -13.20537,-7.54353 -3.43706,-0.81822 -8.00383,-3.47578 -11.31925,-1.89715 -2.88248,1.86853 -1.32507,6.06793 -0.25846,8.60321 0.39729,0.91898 1.38842,3.41012 2.20251,5.53587 0.8141,2.12573 1.76184,4.49284 2.10608,5.26021 1.48889,4.95495 -0.15794,10.61854 -1.3026,11.04514 -0.45293,0.15531 -2.30594,0.79002 -4.11779,1.41041 -1.81186,0.62042 -4.69212,1.41662 -6.4006,1.76935 -1.70847,0.35272 -3.89005,0.83483 -4.84795,1.07133 -4.99508,1.2333 -6.94155,0.88524 -10.47266,-1.87262 -3.287465,-2.56754 -7.099946,-2.20385 -7.099946,-2.20385 0,0 -1.437089,1.37398 -1.626335,2.35103 -0.06236,0.32197 0.128773,1.437 0.424703,2.47786 0.53203,1.87125 0.532327,1.89795 0.02658,2.38084 -0.408541,0.39006 -0.469183,0.65092 -0.301278,1.29584 0.115608,0.44411 0.298926,0.96228 0.407377,1.15152 0.471717,0.8232 -0.352409,1.26747 -6.178756,3.33086 -4.663658,1.65163 -9.531152,2.21116 -12.999484,2.57977 -2.738729,0.29106 -3.533248,0.28965 -4.650189,-0.008 -2.550635,-0.68033 -4.607862,-0.34869 -6.591879,-1.4766 -2.214424,-1.25893 -10.704427,-7.70376 -13.254952,-10.06194 -2.35809,-2.18027 -10.407642,-8.6577 -13.693479,-11.01906 -4.036585,-2.90087 -6.990828,-4.78007 -11.852652,-7.53948 -5.603026,-3.18011 -5.706418,-3.23436 -9.026322,-4.73404 -3.551269,-1.60482 -12.0989971,-5.04586 -14.51690357,-2.1504 0,0 -0.4298053,4.61422 5.26931797,12.10053 2.1502308,2.82452 4.383674,5.66096 4.9632066,6.3032 1.488045,1.64904 4.335017,4.76241 5.819067,6.36354 0.692724,0.74738 2.340791,2.35289 3.662401,3.5678 4.589469,4.21898 9.476547,10.50201 13.803754,17.7466 3.105441,5.19915 2.906531,5.49496 3.236943,7.85955 0.395916,2.83322 0.718162,3.48186 -2.992728,15.5959 -1.037848,3.388 -2.360977,9.51089 -2.482011,11.48574 -0.09788,1.59688 0.471609,3.45173 0.864718,3.7826 0.39311,0.33088 6.548629,-1.76232 8.304949,-2.89761 1.818275,-1.18933 6.603882,-5.34796 9.195083,-7.99042 0.675619,-0.68897 2.0693,-2.06265 3.097075,-3.05259 3.51292,-3.38365 4.285253,-4.22456 8.035597,-8.74918 5.617552,-6.77734 6.649481,-6.27191 9.353741,-7.94374 1.48053,-0.91528 1.707103,-0.98018 5.180152,-1.48398 4.034731,-0.58528 8.399438,-0.63559 15.56362,-0.37238 2.703232,0.0994 5.74432,0.21073 6.75799,0.24755 2.84176,0.10328 4.79455,1.24691 4.98982,2.92234 0.11295,0.96916 1.6215,2.5283 1.6215,2.5283 0,0 1.85323,-0.0914 4.14552,-3.02672 l 1.98136,-2.53712 2.11777,-0.0835 c 1.16477,-0.0459 3.33153,-0.0618 4.81502,-0.0354 1.48349,0.0265 4.34602,0.0229 6.36117,-0.008 5.41655,-0.0828 8.70886,0.0314 12.03885,0.41819 1.63713,0.19012 3.33698,0.37781 3.77741,0.41709 0.44043,0.0392 0.87308,0.16276 0.96148,0.2744 0.0884,0.11167 -0.11776,0.88067 -0.45809,1.70895 -0.61504,1.49685 -0.61585,1.51396 -0.13146,2.83489 0.44235,1.20638 0.46272,1.51785 0.22081,3.37732 -0.14659,1.1266 -0.31948,2.24234 -0.38422,2.47941 -0.0779,0.28518 0.10891,0.61042 0.55204,0.96099 l 0.66976,0.52994 1.39551,-0.60656 c 1.47103,-0.63939 2.21887,-1.23093 5.72201,-4.52618 1.19121,-1.12051 2.27922,-2.0505 2.41781,-2.06666 0.1386,-0.0162 0.6466,0.31203 1.1289,0.7293 0.82635,0.71488 1.30468,1.40643 2.77802,4.01616 0.61425,1.08805 1.32926,1.49579 2.40347,1.3706 1.03721,-0.12087 2.67042,-2.54857 3.76556,-5.5973 0.80477,-2.24036 0.58445,-2.17514 5.33636,-1.57965 2.2976,0.28792 5.47571,0.79757 7.06245,1.13256 4.82396,1.0184 7.33727,1.35479 11.24795,1.50547 0.57595,0.0223 0.93707,0.16701 0.96259,0.38601 0.0226,0.19279 -0.35919,1.05157 -0.84816,1.90837 -0.48893,0.85682 -1.44096,2.84495 -2.11557,4.41804 -2.23484,5.21125 -3.24456,6.99567 -5.56098,9.82757 -2.14991,2.62838 -4.81671,4.87226 -8.13431,6.84435 -1.49691,0.88982 -3.03165,1.82687 -3.41052,2.08234 -0.73019,0.49237 -0.83067,1.19865 -0.22643,1.59168 0.46028,0.29942 4.22078,0.0366 6.225,-0.43502 z"
       id="path830"
       inkscape:connector-curvature="0"
       sodipodi:nodetypes="ccsccccccsscccccccccscccccccccccccccccccccccccccccccscccccccccsczcccsccccccsccscccccccccccsccsccsccccccscccc" />
    <path
       style="fill:#000000;stroke-width:1"
       d=""
       id="path828"
       inkscape:connector-curvature="0" />
    <path
       style="fill:#000000;stroke-width:1"
       d=""
       id="path826"
       inkscape:connector-curvature="0" />
  </g>
</svg>
