<?xml version="1.0" encoding="UTF-8" standalone="no"?>
<!-- Created with Inkscape (http://www.inkscape.org/) -->

<svg
   xmlns:dc="http://purl.org/dc/elements/1.1/"
   xmlns:cc="http://creativecommons.org/ns#"
   xmlns:rdf="http://www.w3.org/1999/02/22-rdf-syntax-ns#"
   xmlns:svg="http://www.w3.org/2000/svg"
   xmlns="http://www.w3.org/2000/svg"
   xmlns:sodipodi="http://sodipodi.sourceforge.net/DTD/sodipodi-0.dtd"
   xmlns:inkscape="http://www.inkscape.org/namespaces/inkscape"
   version="1.2"
   width="297mm"
   height="210mm"
   viewBox="0 0 1122.5197 793.70078"
   id="Layer_1"
   xml:space="preserve"
   style="overflow:inherit"
   sodipodi:docname="ff.svg"
   inkscape:version="0.92.3 (2405546, 2018-03-11)"><sodipodi:namedview
   pagecolor="#ffffff"
   bordercolor="#666666"
   borderopacity="1"
   objecttolerance="10"
   gridtolerance="10"
   guidetolerance="10"
   inkscape:pageopacity="0"
   inkscape:pageshadow="2"
   inkscape:window-width="1865"
   inkscape:window-height="1025"
   id="namedview5"
   showgrid="false"
   units="mm"
   inkscape:zoom="0.5316865"
   inkscape:cx="-23.160416"
   inkscape:cy="396.85039"
   inkscape:window-x="55"
   inkscape:window-y="27"
   inkscape:window-maximized="1"
   inkscape:current-layer="Layer_1"
   showguides="true"
   inkscape:guide-bbox="true" /><metadata
   id="metadata7"><rdf:RDF><cc:Work
       rdf:about=""><dc:format>image/svg+xml</dc:format><dc:type
         rdf:resource="http://purl.org/dc/dcmitype/StillImage" /><dc:title /></cc:Work></rdf:RDF></metadata><defs
   id="defs7">
	
<filter
   color-interpolation-filters="sRGB"
   inkscape:collect="always"
   id="filter3747"><feGaussianBlur
     inkscape:collect="always"
     stdDeviation="1.2784743"
     id="feGaussianBlur3749" /></filter><filter
   color-interpolation-filters="sRGB"
   inkscape:collect="always"
   id="filter3787"><feGaussianBlur
     inkscape:collect="always"
     stdDeviation="3.6179049"
     id="feGaussianBlur3789" /></filter><filter
   inkscape:collect="always"
   color-interpolation-filters="sRGB"
   id="filter3858-9"><feGaussianBlur
     inkscape:collect="always"
     stdDeviation="3.861657"
     id="feGaussianBlur3860-9" /></filter><filter
   color-interpolation-filters="sRGB"
   inkscape:collect="always"
   id="filter3904"><feGaussianBlur
     inkscape:collect="always"
     stdDeviation="2.2894587"
     id="feGaussianBlur3906" /></filter></defs>


	<g
   id="g13"
   transform="translate(-423.68545,210.07659)">
</g><g
   id="g15"
   transform="translate(-423.68545,210.07659)">
</g><g
   id="g17"
   transform="translate(-423.68545,210.07659)">
</g><g
   id="g19"
   transform="translate(-423.68545,210.07659)">
</g><g
   id="g21"
   transform="translate(-423.68545,210.07659)">
</g><g
   id="g23"
   transform="translate(-423.68545,210.07659)">
</g><g
   id="g25"
   transform="translate(-423.68545,210.07659)">
</g><g
   id="g27"
   transform="translate(-423.68545,210.07659)">
</g><g
   id="g29"
   transform="translate(-423.68545,210.07659)">
</g><g
   id="g31"
   transform="translate(-423.68545,210.07659)">
</g><g
   id="g33"
   transform="translate(-423.68545,210.07659)">
</g><g
   id="g35"
   transform="translate(-423.68545,210.07659)">
</g><g
   id="g37"
   transform="translate(-423.68545,210.07659)">
</g><g
   id="g39"
   transform="translate(-423.68545,210.07659)">
</g><g
   id="g41"
   transform="translate(-423.68545,210.07659)">
</g><g
   id="g2924"
   style="opacity:0.77332997;fill:none;stroke:#000000;stroke-width:8.70896816;stroke-linecap:round;stroke-linejoin:round;filter:url(#filter3904);stroke-opacity:1.0"
   transform="matrix(1.2641552,0,0,1.2619774,132.36311,-144.31357)"><path
     inkscape:connector-curvature="0"
     id="path2889"
     sodipodi:nodetypes="cccccccsscccssccssccccccccssc"
     style="fill:none;stroke:#000000;stroke-width:8.70896816;stroke-linecap:round;stroke-linejoin:round;stroke-opacity:1.0"
     d="m 551.54,482.64 c -9.0034,9.4812 -26.825,21.554 -26.264,41.416 6.3691,32.296 31.865,66.547 11.112,88.893 -10.775,13.765 -24.58,10.012 -37.376,46.467 -4.5555,23.087 8.7549,27.476 12.122,37.376 m -34.34,-233.36 c -14.817,12.007 -36.418,16.102 -36.365,45.457 21.813,30.467 24.926,44.968 21.213,54.548 -14.288,36.864 -5.3747,13.66 -28.284,50.508 -12.538,20.166 18.232,33.279 8.0812,65.66 m -36.366,-234.36 c -8.1371,14.788 -26.465,24.48 -20.203,46.467 23.593,39.743 17.016,55.986 15.152,63.64 -3.718,15.266 -38.908,37.348 -42.426,62.629 -5.4104,38.877 9.3617,38.993 23.234,58.589 m -39.4,-244.45 c -15.666,9.7582 -36.656,16.081 -34.345,35.355 1.4505,12.1 22.492,42.124 12.122,78.792 -14.383,50.859 -40.336,52.614 -46.467,64.65 -12.447,26.171 0.007,33.666 8.0812,44.447 m -3.0305,-233.35 c -33.626,37.586 -42.948,72.461 -26.264,90.914 21.496,41.402 -36.206,34.132 -32.325,62.629 14.152,19.64 12.299,39.312 -1.0102,48.487 l -15.152,17.173 m -6.0609,-228.29 c -21.785,15.676 -10.302,35.07 -6.0609,75.761 2.0544,19.711 -56.994,39.676 -35.355,96.975 5.6432,14.943 -16.266,14.816 -16.162,24.244" /></g><path
   inkscape:connector-curvature="0"
   id="path2869"
   sodipodi:nodetypes="ccccccssccccccc"
   style="fill:#000000;stroke:#000000;stroke-width:7.29999971;stroke-linecap:round;stroke-linejoin:round;stroke-opacity:1;fill-opacity:1.0"
   d="m 311.13994,358.9504 c 7.43336,-15.52611 26.43096,-23.33144 43.41741,-29.32079 21.98492,-43.29339 44.62468,-83.40408 76.61918,-130.03415 53.96552,-76.18431 126.51665,-122.32978 217.09337,-96.88453 61.8627,16.67956 128.96912,49.97431 148.13371,99.43373 34.40146,57.40483 8.67008,98.64877 19.15448,146.60391 1.98093,33.6582 14.92335,42.68639 29.37138,59.9149 26.69643,31.83464 24.6308,50.11565 15.32409,54.81652 -25.69648,12.97565 -50.80513,-6.4973 -71.51199,-19.12149 -18.40737,16.95719 -41.19756,5.47812 -66.40355,-21.67193 -26.3905,27.51741 -52.78227,6.92573 -79.17277,-19.12149 -26.44234,16.54958 -53.20956,27.59314 -83.00444,-12.74849 -49.32354,23.3491 -63.57815,0.9099 -71.51199,-8.92357 -21.51592,11.24712 -53.66086,20.32162 -97.05172,-11.47314 -46.17074,7.76785 -99.93147,20.08185 -80.45084,-11.47314 z" /><path
   inkscape:connector-curvature="0"
   id="path3862"
   sodipodi:nodetypes="ccccccccccccccccccccccccc"
   style="color:#000000;opacity:0.33667004;fill:#000000;stroke:#000000;stroke-width:6.41296768;stroke-linecap:round;stroke-linejoin:round;stroke-opacity:1;filter:url(#filter3858-9);fill-opacity:1.0"
   d="m 283.85,412.94 c 35.08,-28.52 52.71,-202.75 105.06,-202.03 v -1.0102 m 9.0914,2.0203 c 50.305,46.09 27.373,261.13 50.508,245.47 m -53.54,-247.5 c -21.047,-19.099 -34.151,169.62 -56.569,212.13 m 55.558,-213.14 c -16.128,60.021 -1.7637,200.6 -29.294,231.32 m 31.31,-230.31 c 31.047,56.527 -14.553,184.89 10.102,223.24 m -7.07,-224.25 c 105.21,81.08 44.509,204.11 68.69,235.37 m -68.69,-232.33 c 166.06,83.16 52.83,196.94 116.17,250.51 m -115.16,-255.57 c 190.77,44.624 62.047,165.49 166.68,271.73 m -173.75,-270.72 c -39.215,-6.5752 -54.542,199.11 -94.954,219.2 m 97.985,-219.2 c -73.3,-16.79 -108.71,218.74 -157.58,213.15 m 150.51,-214.16 c -105.91,-0.54 -124.43,209.89 -185.87,200.01 m 173.75,-202.03 c -201.84,27.98 -83.66,168.12 -234.36,202.03"
   transform="matrix(1.2641552,0,0,1.2619774,132.36311,-144.31357)" /><g
   id="g3762"
   style="fill:#ffffff;fill-opacity:1;stroke:#000000;stroke-width:0.79172432;stroke-linecap:round;stroke-linejoin:round;stroke-opacity:1;filter:url(#filter3787)"
   transform="matrix(1.4019481,0.13827486,-0.13387404,1.2546327,119.73471,-156.05086)"><path
     inkscape:connector-curvature="0"
     id="path2877"
     style="fill:#ffffff;fill-opacity:1;stroke:#000000;stroke-width:5.96279287;stroke-linecap:round;stroke-linejoin:round;stroke-opacity:1"
     d="m 302.2,224.6 c 6.6825,9.0473 50.042,-1.9357 75.854,-5.9279 5.839,-9.0456 6.1958,-15.628 -5.4967,-16.796 -30.129,-10.754 -68.65,16.13 -70.357,22.724 z m 99.627,-13.029 c -0.43591,4.9289 -0.74,9.6199 5.6282,13.917 17.141,7.1257 60.577,19.823 57.028,3.6783 -21.647,-17.208 -61.426,-31.502 -62.656,-17.596 z m 7.0261,36.904 c -10.895,2.8045 -7.3189,25.547 2.3845,38.32 28.742,12.053 57.786,17.651 83.457,10.808 2.1952,-33.926 -29.257,-63.695 -85.842,-49.129 z m -64.912,-13.608 c -31.424,0.96487 -64.281,27.992 -61.516,37.136 -8.6502,22.834 69.746,22.653 86.385,20.523 4.1139,-14.628 11.758,-49.234 -24.868,-57.659 z" /></g><g
   id="g3736"
   style="fill:none;stroke:#000000;stroke-width:4.35448408;stroke-linecap:round;stroke-linejoin:round;filter:url(#filter3747);stroke-opacity:1.0"
   transform="matrix(1.2641552,0,0,1.2619774,128.53209,-143.03872)"><path
     inkscape:connector-curvature="0"
     id="path2922"
     style="fill:none;stroke:#000000;stroke-width:4.35448408;stroke-linecap:round;stroke-linejoin:round;stroke-opacity:1.0"
     d="m 508.11,471.52 c -8.8315,1.6433 -18.421,7.3381 -14.142,27.274 3.6018,16.781 14.789,28.213 4.0406,43.437 -7.0713,10.015 -13.985,24.844 -11.112,31.315 9.0576,20.397 -3.5441,37.039 -11.112,55.558 m -41.41,-171.73 c -11.996,10.368 -21.75,24.679 -14.142,38.386 6.4151,11.558 20.243,19.895 13.132,31.315 -5.8536,9.4014 -20.676,14.154 -14.142,28.284 12.257,26.506 4.9638,38.832 -8.0812,44.447 m -47.49,-152.53 c -6.9987,5.3938 -18.518,12.591 -12.122,27.274 3.5836,8.2264 8.2972,9.3392 16.162,23.234 5.9363,10.487 0.0943,27.144 -9.0914,34.345 -26.482,20.759 -14.853,42.422 -22.223,63.64 m -32.32,-160.61 c -31.068,22.934 -27.932,33.485 -22.223,43.437 11.413,19.896 7.9193,35.419 0,40.406 -12.494,7.8672 -26.637,40.997 -18.183,56.569 m -27.27,-149.5 c 1.9175,2.5799 5.293,24.766 -3.0305,36.366 -7.9012,11.011 -24.882,16.274 -28.284,34.345 -2.651,14.08 9.075,24.183 10.102,34.345 2.0527,20.32 -12.969,32.223 -22.223,35.355" /></g></svg>