<?xml version="1.0" encoding="UTF-8" standalone="no"?>
<svg
   xmlns:dc="http://purl.org/dc/elements/1.1/"
   xmlns:cc="http://creativecommons.org/ns#"
   xmlns:rdf="http://www.w3.org/1999/02/22-rdf-syntax-ns#"
   xmlns:svg="http://www.w3.org/2000/svg"
   xmlns="http://www.w3.org/2000/svg"
   xmlns:sodipodi="http://sodipodi.sourceforge.net/DTD/sodipodi-0.dtd"
   xmlns:inkscape="http://www.inkscape.org/namespaces/inkscape"
   version="1.1"
   id="Layer_1"
   x="0px"
   y="0px"
   viewBox="0 0 1122.5197 793.7008"
   enable-background="new 0 0 2625.022 1342.022"
   xml:space="preserve"
   sodipodi:docname="Alligator.svg"
   width="297mm"
   height="210mm"
   inkscape:export-filename="/home/mjeltsch/Documents/Informatics/Phylogeny2/new/images/Alligator.png"
   inkscape:export-xdpi="17.0543"
   inkscape:export-ydpi="17.0543"
   inkscape:version="0.92.3 (unknown)"><metadata
   id="metadata9"><rdf:RDF><cc:Work
       rdf:about=""><dc:format>image/svg+xml</dc:format><dc:type
         rdf:resource="http://purl.org/dc/dcmitype/StillImage" /><dc:title></dc:title></cc:Work></rdf:RDF></metadata><defs
   id="defs7" /><sodipodi:namedview
   pagecolor="#ffffff"
   bordercolor="#666666"
   borderopacity="1"
   objecttolerance="10"
   gridtolerance="10"
   guidetolerance="10"
   inkscape:pageopacity="0"
   inkscape:pageshadow="2"
   inkscape:window-width="2495"
   inkscape:window-height="1416"
   id="namedview5"
   showgrid="false"
   units="mm"
   inkscape:zoom="1.1350046"
   inkscape:cx="561.25984"
   inkscape:cy="396.85039"
   inkscape:window-x="65"
   inkscape:window-y="24"
   inkscape:window-maximized="1"
   inkscape:current-layer="Layer_1" />
<path
   d="m 1099.6997,156.16182 c -2.5551,5.26806 5.6399,11.91367 5.7774,22.11671 -0.4167,1.6335 -1.2225,3.14076 -1.6443,4.77986 -1.0415,-0.11505 -2.1212,0.0384 -3.1136,-0.27405 -14.44,-8.63934 -15.6177,-9.2568 -23.1091,-7.77239 -10.7205,0.76483 -21.9806,16.43716 -23.5037,17.48507 -0.4309,0.29516 -17.6506,17.01369 -23.6847,27.14304 -0.455,0.14263 -0.8988,0.28482 -1.3263,0.43305 -0.6248,0.94279 -1.4198,2.29104 -2.7517,1.87997 -2.9106,-0.77301 -5.1909,-3.0257 -8.052,-3.91378 -6.1066,-1.0018 -14.4646,6.28109 -17.3153,12.11922 -1.18926,2.34058 -1.23326,5.00435 -1.89636,7.50394 -0.8954,2.55 1.53306,3.96548 -1.2771,8.01929 -6.79,-3.72763 -7.2777,-8.47603 -18.8062,-11.68057 -4.1112,-0.57006 -9.0496,0.0112 -11.6969,3.59578 -1.2497,1.7046 -3.2119,2.86111 -3.8755,4.94963 -0.7346,1.81966 -2.494,2.95462 -3.2613,4.73031 -1.3871,4.64284 -3.9961,8.79748 -6.3363,13.00683 -3.2248,6.48188 -9.246,3.06493 -12.7711,1.67746 -1.52923,-0.64676 -3.17915,-1.03585 -4.51663,-2.04457 -1.5568,0.56447 -3.17912,0.91521 -4.79628,1.20606 -1.24953,2.23632 -3.28334,4.03399 -3.95724,6.57193 -0.8497,3.20668 -2.21433,6.38019 -2.05581,9.76224 0.61444,26.9026 16.26356,21.64359 36.47786,21.96892 7.94,-0.10254 33.0316,-2.98047 33.4633,-3.04209 4.44466,-0.65151 22.01976,-0.59765 22.45106,-0.61402 27.8863,-0.64935 51.3849,5.17801 60.2061,-4.73591 2.4224,-2.64738 3.8586,-5.97989 5.8592,-8.93449 1.9894,-3.04769 2.5488,-7.27902 5.8869,-9.29085 1.0854,-0.29602 2.2363,-0.13142 3.3652,-0.10422 1.069,2.32939 3.267,3.8151 4.5714,5.98549 1.9402,3.21746 5.1908,5.443 8.5836,6.91191 1.4086,0.77301 2.6475,1.89117 4.3085,2.12686 0.072,0.36712 0.159,0.73467 0.2577,1.10739 0.5425,0.26328 1.0854,0.52052 1.6607,0.78378 -0.5154,1.86361 -0.8933,3.81511 -2.017,5.43181 -6.4552,8.67553 -6.7809,6.92827 -11.4448,10.46933 -7.1154,5.48522 -39.0836,18.2611 -42.2001,19.14055 -1.9951,0.54249 -3.4808,2.03337 -5.2565,2.97616 -20.5487,11.21778 -19.3529,15.83735 -26.4032,22.40195 -1.7102,1.76493 -2.9541,3.99564 -5.0647,5.34433 -2.9671,1.83041 -7.2583,7.28548 -24.45726,13.9005 -4.7372,2.68099 -31.6191,12.30578 -37.7218,12.14118 -5.2491,2.27897 -28.56578,4.68507 -48.73926,0.16977 -14.67043,-2.37851 -27.68331,-5.40293 -40.95602,1.68263 -26.30365,11.29749 -34.92536,32.40506 -57.59699,31.53897 -5.92005,0.3891 -11.70256,-1.15651 -17.55664,-1.699 -14.11421,1.4633 -11.61292,2.77149 -23.56407,7.99171 -37.28744,23.01856 -56.96281,17.85004 -90.00771,11.0338 -2.09373,-0.27405 -4.43987,-0.69633 -6.32549,0.54249 -1.51283,2.15401 -0.29595,4.83975 -0.21932,7.24066 1.18928,3.82587 1.98423,7.78877 2.17046,11.80121 0.29213,30.4652 8.13347,27.84195 13.38511,36.642 -4.47262,0.56447 -8.67679,-1.44175 -12.93009,-2.46641 -15.10447,-3.85301 -13.77081,4.72859 -19.97906,3.39843 -1.88562,-1.57318 -2.18729,-4.68119 -4.71394,-5.55245 -4.5166,-1.67745 -8.99483,1.73779 -13.51705,0.5537 -0.0707,0.31239 -0.2081,0.93202 -0.27968,1.23881 -2.08284,0.18614 -4.13303,-0.14263 -6.1664,-0.51535 -0.0662,-0.94838 -0.17535,-1.89634 -0.32366,-2.82276 0.30167,0.0547 0.91005,0.16461 1.21688,0.21932 -2.31305,-0.59764 -1.26074,-3.22305 -1.23326,-4.91688 -1.1121,-4.38257 -9.44941,-6.7835 -12.17945,-8.93449 -3.40238,-5.64509 11.71669,-10.06387 8.74275,-20.31344 -2.07173,-2.75123 -12.87848,-9.55024 -16.01621,-13.52778 -2.06097,-2.1816 -5.19095,-2.50476 -7.76158,-3.7983 -0.84969,-0.35634 -1.63354,-0.99751 -2.59272,-0.96476 -2.41166,0.0823 -4.72471,-0.76741 -7.1256,-0.82213 -2.67496,-0.37833 -5.36069,0.13702 -8.04081,-0.0328 -2.74743,0.65064 -21.31654,6.02944 -21.31654,6.02944 -2.4884,0.7674 -5.15775,0.69071 -7.597,1.6335 -17.73243,6.75247 -77.73301,-6.20438 -90.93975,-12.426 -9.68512,-2.50735 -17.7828,-6.20309 -28.41499,-5.50333 -9.92475,-0.21372 -17.02925,3.97065 -17.71,4.77426 -6.09976,6.19706 -18.44424,18.53214 -17.9237,23.82692 4.25756,0.88289 11.66284,1.82869 25.98134,-2.91066 -1.55119,-1.13454 -4.37962,-2.09369 -3.3106,-4.53296 13.31881,-9.03146 29.93735,-14.87776 43.68584,-6.41854 5.36629,3.31053 11.58184,5.65672 15.61582,10.73217 2.77884,4.26451 4.93842,9.21415 4.77429,14.40464 2.36252,2.23633 6.11166,4.07795 6.44608,7.65735 0.41105,0.48776 0.81133,0.96476 1.24953,1.45252 -0.2412,0.14824 -0.72337,0.44382 -0.96985,0.58644 0.29034,0.4658 0.57563,0.92642 0.87124,1.39782 -0.49855,0.91003 -0.97041,2.00062 -2.12132,2.17038 -6.53528,3.41395 -13.10421,-5.55201 -26.10711,-1.90194 1.94542,1.6865 7.73746,4.32397 12.27818,12.32171 -0.26846,0.5537 -0.52615,1.11256 -0.76746,1.67746 -6.28274,-0.0285 -10.88427,-10.96141 -26.75946,-7.25187 -3.47518,0.46579 -7.01061,-0.12065 -10.39268,-0.88246 -2.45137,1.98898 -67.95298,22.01717 -108.68811,-20.64781 -10.97121,-19.18149 -0.90702,-24.44954 0.69634,-36.95999 -1.14014,-0.25768 -2.69695,-0.19175 -3.201,-1.48529 -2.08295,-0.0931 -4.14953,0.2357 -6.16652,0.71787 -2.30227,0.57567 -4.70832,0.10949 -7.01621,0.65797 -45.20932,11.4608 -31.65963,-9.30118 -92.20005,-1.74855 -1.56757,0.20811 -3.15713,-0.20295 -4.70832,0.11504 -1.17291,0.44942 -2.24192,1.20046 -3.50267,1.39781 -0.43304,0.0599 -15.32593,2.42678 -20.14364,3.59018 -10.01741,3.55268 -21.40192,3.65997 -24.5724,13.36318 -1.09617,3.07094 1.07508,10.87135 1.14575,11.30223 0.21933,1.18409 1.27713,1.95151 1.84165,2.97616 2.20826,3.01709 0.67906,4.65964 7.40527,9.60324 5.80966,4.12319 12.02307,15.69301 19.28834,18.04436 5.88246,1.02941 9.69846,-5.10259 13.83453,-3.9409 3.02576,0.47699 4.88379,3.13514 7.504,4.44548 2.30777,1.37583 5.32793,1.13454 7.33931,3.08603 4.7523,4.39034 6.0402,11.23675 10.46368,15.89035 3.77685,2.35697 8.60578,-0.42184 12.48079,1.75415 4.87291,3.97841 10.79161,13.63077 15.4297,15.20482 2.08374,0.98846 1.97739,-0.009 11.83954,0.78938 0.95919,2.06656 3.15713,3.05286 4.41799,4.88931 1.125,1.45942 3.71986,8.74448 7.20233,11.45046 6.92646,3.95773 6.6469,0.21157 16.7508,0.64116 11.22723,2.87275 14.20946,9.35592 20.15441,8.6165 3.74353,-0.83678 8.54587,-4.39765 14.49778,-4.17101 8.79829,1.74209 15.94845,9.41797 21.93054,12.05889 15.59775,4.48125 25.20793,16.33934 35.35963,22.7583 18.53299,14.31114 14.8239,2.75597 34.05491,19.63393 7.84571,6.5172 11.30923,7.34236 19.81493,7.72843 13.06371,-0.3236 16.34368,6.9774 28.23404,13.27572 1.78128,1.35945 4.11116,0.79455 6.11693,1.50725 1.7869,0.63039 3.66691,0.16977 5.50328,0.159 8.17576,0.80576 23.72438,11.00449 25.192,12.59576 3.16835,1.01388 6.31988,2.11567 9.48823,3.13516 13.58458,-3.80778 20.19233,10.13625 31.41877,16.0821 4.22996,2.60774 13.61779,-3.14508 17.38117,-3.52425 7.68238,1.0156 1.62917,-1.95236 14.38829,4.74668 2.2583,1.3211 4.99361,1.3866 7.54225,1.30473 2.9598,-0.82774 5.6895,-2.52156 8.82465,-2.73529 9.15425,-0.83678 17.80176,10.24096 24.91232,13.34682 5.49644,3.26528 25.97832,0.90012 45.94919,12.14635 1.01955,0.55929 1.35947,1.72657 1.85286,2.7077 -4.49629,0.61316 -3.73836,2.32336 -24.54514,0.30163 -6.94385,0.0857 -26.49369,-2.26304 -35.55707,-2.56509 -1.21688,-0.24647 -2.11572,-1.3099 -3.34886,-1.46373 -6.57925,1.75459 -11.97528,-0.9471 -20.89473,-1.1509 -2.38967,-0.044 -4.66435,-0.9484 -7.04886,-0.9316 -1.19018,-0.007 -9.41419,-0.43432 -13.92776,-2.58706 -2.05008,-0.8497 -4.1658,0.7127 -6.23753,0.12626 -3.33809,-0.99751 -6.8955,-0.76742 -10.22798,-1.7757 -4.11117,-1.33748 -8.73715,-0.72907 -12.67252,-2.52717 -5.22236,-0.29774 -10.33265,-2.03121 -28.82604,-5.2784 -3.00938,-1.56197 -6.45685,-1.33188 -9.70194,-1.93469 -3.1955,-0.49337 -6.17202,-2.00062 -9.43303,-2.07732 -1.60594,-0.0879 -3.28851,-0.27965 -4.60961,-1.26639 -1.38145,-1.27155 -3.29422,-0.0548 -4.88378,-0.66314 -3.24498,-1.20563 -6.79678,-1.14013 -9.99789,-2.46123 -1.41422,-0.55931 -2.94903,-0.50414 -4.42865,-0.4658 -0.16985,-0.32877 -0.50977,-0.97553 -0.67951,-1.29913 -0.55375,0.27404 -1.12377,0.48216 -1.71588,0.62479 -5.28396,-0.80576 -10.39784,-2.44487 -15.68179,-3.21745 -1.49084,-0.3891 -3.19034,-0.43305 -4.35763,-1.55121 -1.65071,1.27974 -5.34207,-0.66357 -18.85003,-2.76243 -19.96538,-5.37879 -154.08366,-22.53338 -154.08366,-22.53338 -5.04825,-0.0603 -10.04703,-0.87169 -15.0734,-1.29913 -1.05219,-0.0548 -1.81438,-0.79457 -2.61461,-1.37023 -1.61716,-0.59765 -3.21749,0.57566 -4.85652,0.33997 -0.87045,-0.084 -11.21477,-1.26941 -12.42604,-2.12127 -1.97862,-1.5456 -4.42865,0.0931 -6.62143,-0.318 -0.94932,-0.16675 -31.97331,-4.23047 -36.25297,-5.70584 -3.5518,-1.28792 -7.42165,-1.02508 -11.05569,-1.9515 -3.08612,-0.81654 -6.12254,-1.84162 -9.29606,-2.26389 -2.98178,-0.37833 -5.602,-2.12128 -8.63292,-2.26907 -3.58456,-0.37832 -6.65419,-2.51036 -10.18962,-3.04768 -3.55741,-0.97037 -7.08734,-2.17039 -10.24447,-4.08915 -10.14833,-1.5443 -64.425752,-31.34249 -73.530862,-40.77509 -6.89988,-2.31387 -35.29591,-27.03618 -35.72682,-27.33522 -9.065515,-6.5047 -14.713623,-14.54597 -16.789173,-16.63018 -9.383897,-11.94685 -8.123938,-15.03461 -11.373737,-19.91357 0.394669,-0.43865 0.789339,-0.86609 1.184009,-1.29914 -0.493281,0.0164 -0.986674,0.0328 -1.480068,0.0604 -1.573182,-3.73839 -1.370238,-7.87666 -2.603384,-11.70813 -0.888512,-3.40963 -1.281948,-0.73294 -0.937201,-8.41356 0.273173,-3.30233 -3.3071255,-13.22702 -1.693894,-18.75146 0.580898,-1.7925 -0.350693,-3.56819 -0.323544,-5.36629 0.02917,-12.44497 -1.0418695,-4.74842 0.169737,-13.2098 -1.3103295,-9.84583 -0.46961,-8.63588 0.131482,-9.78938 -1.8502805,-3.1791 -0.363706,-14.04959 -0.383563,-19.21164 -0.01122,-2.69134 1.600331,-5.05908 1.666296,-7.73965 0,-7.26437 9.813456,-34.20316 9.943255,-35.38165 0.454914,-1.80887 0.449417,-3.8918 1.627817,-5.41541 1.86924,-1.61153 3.392836,-3.65611 5.623988,-4.81262 2.044587,-1.25518 4.916881,-1.79766 5.804496,-4.34681 0.01795,-7.05022 -1.509349,-14.03623 6.692674,-18.16502 10.86654,-5.74979 9.95997,-3.19892 16.52026,-8.7811 2.9865,-2.47934 0.0258,-6.79255 11.39012,-13.25934 2.54875,-1.34825 4.57696,-3.5682 7.34492,-4.52736 4.74624,-1.57749 4.52311,-13.74194 8.66052,-16.13122 3.71077,-2.29664 7.66813,-4.35759 11.97651,-5.23445 30.779762,-10.1621 24.482322,-12.84267 43.493672,-16.07649 20.69088,-3.40705 21.46047,-15.89768 38.02337,-13.69238 8.55664,1.79379 15.50947,1.98424 23.53087,-2.5651 11.92064,-7.04505 26.27134,-4.24814 36.15985,-5.26202 9.55374,0.18098 17.78673,-6.5883 27.44469,-5.68386 19.88034,2.70253 23.64631,3.31397 34.899,0.31799 29.06006,-10.47493 28.04837,-3.07138 43.36218,-4.18221 9.02546,-1.66971 11.73442,-7.58195 25.1588,-2.11567 2.31305,0.94278 4.8618,1.11816 7.14197,2.16522 4.97814,2.50692 19.48276,-9.56748 29.91671,-5.83209 3.73837,0.73983 7.43804,1.89634 11.29151,1.89634 1.93464,-0.0931 3.91371,0.97037 5.79372,0.12625 15.94935,-6.96145 31.15502,8.99353 53.90261,11.55431 34.6026,4.27571 35.03126,3.38032 47.52237,0.69071 15.62659,-4.02278 23.34946,0.17796 39.68966,4.69756 2.4884,0.73984 5.2181,0.85489 7.42727,2.35697 4.34125,0.19735 8.55058,1.56758 12.91932,1.46331 7.14758,0.932 14.43742,0.78378 21.48123,2.45004 9.47174,1.47277 22.45579,13.14126 49.2709,18.71827 2.01699,0.24647 4.3085,0.12066 5.85408,1.70461 2.52676,-0.79457 5.19095,-0.11505 7.77235,-0.0112 25.48627,3.09207 75.37733,-4.89448 85.79277,-5.80451 4.23132,-1.3866 8.53982,-2.57069 12.74398,-4.07277 0.64114,-0.29043 1.35947,-0.1534 2.0502,-0.0987 -0.0494,-0.22492 -0.15347,-0.67951 -0.20811,-0.90443 19.79676,-7.99215 21.79827,-17.32738 44.73792,-19.41461 15.46504,-2.22769 17.51355,-10.03197 26.64458,-15.42972 2.46114,-1.71021 4.26441,-4.22618 6.90628,-5.72266 3.62293,-2.09929 6.38573,-5.40981 10.15136,-7.29539 11.03291,-3.42299 16.74732,1.85499 23.20205,-7.00497 8.22524,-11.60515 12.61474,-8.69018 23.09783,-9.159 16.72668,0.65582 27.17231,-3.59577 35.3106,-4.28089 4.94826,-1.93684 33.55636,-8.9151 37.51376,-10.66107 19.5179,-6.40173 29.19086,-16.32383 42.01376,-21.0481 18.178,-8.36098 28.873,-6.1294 38.2372,-23.13619 18.0504,-30.40703 53.6212,-3.42385 41.954,22.70789 z"
   id="path2"
   inkscape:connector-curvature="0"
   style="fill:#160b10;stroke-width:0.99999994" />
</svg>