<?xml version="1.0" encoding="UTF-8" standalone="no"?>
<!-- Generator: Adobe Illustrator 12.0.1, SVG Export Plug-In . SVG Version: 6.00 Build 51448)  -->

<svg
   xmlns:dc="http://purl.org/dc/elements/1.1/"
   xmlns:cc="http://creativecommons.org/ns#"
   xmlns:rdf="http://www.w3.org/1999/02/22-rdf-syntax-ns#"
   xmlns:svg="http://www.w3.org/2000/svg"
   xmlns="http://www.w3.org/2000/svg"
   xmlns:sodipodi="http://sodipodi.sourceforge.net/DTD/sodipodi-0.dtd"
   xmlns:inkscape="http://www.inkscape.org/namespaces/inkscape"
   id="Layer_1"
   xml:space="preserve"
   overflow="visible"
   viewBox="0 0 1122.5197 793.7008"
   version="1.1"
   enable-background="new 0 0 272.668 392.75"
   sodipodi:docname="crustacea.svg"
   width="297mm"
   height="210mm"
   style="overflow:visible"
   inkscape:version="0.92.3 (unknown)"><defs
   id="defs225">
	
	
	
	
	
	
	
	
	
	
	
	
	
	
	
	
	
	
	
	
	
	
	
	
	
	
	
	
	
	
	
	
	
	
	
	
	
	
	
	
	
	
	
	
	
	
	
	
	
	
	
	
	
	
	
	
	
	
	
	
	
	
	
	
	
	
	
	
	
	
	
	
	
	
	
	
	
	
	
	
	
	
	
	
	
	
	
	
	
	
	
	
	
	
	
	
	
	
	
	
	
	
	
	
	
	
	
	
</defs><sodipodi:namedview
   pagecolor="#ffffff"
   bordercolor="#666666"
   borderopacity="1"
   objecttolerance="10"
   gridtolerance="10"
   guidetolerance="10"
   inkscape:pageopacity="0"
   inkscape:pageshadow="2"
   inkscape:window-width="1695"
   inkscape:window-height="1244"
   id="namedview223"
   showgrid="false"
   units="mm"
   inkscape:zoom="0.60089115"
   inkscape:cx="180.03216"
   inkscape:cy="196.375"
   inkscape:window-x="75"
   inkscape:window-y="34"
   inkscape:window-maximized="0"
   inkscape:current-layer="Layer_1"
   showguides="true"
   inkscape:guide-bbox="true" />

<metadata
   id="metadata220"><rdf:RDF><cc:Work><dc:format>image/svg+xml</dc:format><dc:type
         rdf:resource="http://purl.org/dc/dcmitype/StillImage" /><cc:license
         rdf:resource="http://creativecommons.org/publicdomain/zero/1.0/" /><dc:publisher><cc:Agent
           rdf:about="http://openclipart.org/"><dc:title>Openclipart</dc:title></cc:Agent></dc:publisher><dc:title /><dc:date>2006-10-30T13:56:06</dc:date><dc:description>a top view of a turtle</dc:description><dc:source>https://openclipart.org/detail/1024/turtle-by-johnny_automatic</dc:source><dc:creator><cc:Agent><dc:title>johnny_automatic</dc:title></cc:Agent></dc:creator><dc:subject><rdf:Bag><rdf:li>amphibian</rdf:li><rdf:li>animal</rdf:li><rdf:li>reptile</rdf:li><rdf:li>turtle</rdf:li></rdf:Bag></dc:subject></cc:Work><cc:License
       rdf:about="http://creativecommons.org/publicdomain/zero/1.0/"><cc:permits
         rdf:resource="http://creativecommons.org/ns#Reproduction" /><cc:permits
         rdf:resource="http://creativecommons.org/ns#Distribution" /><cc:permits
         rdf:resource="http://creativecommons.org/ns#DerivativeWorks" /></cc:License></rdf:RDF></metadata><path
   inkscape:connector-curvature="0"
   d="m 489.46888,736.99566 c -0.44507,0 -0.89147,0 -1.33653,0 -26.0876,-0.9262 -52.66571,-14.7097 -74.84533,-20.0478 -8.63528,-2.0783 -16.46864,0.021 -24.05742,-2.6731 -6.71069,-2.383 -11.1025,-8.4615 -18.71133,-12.0287 -6.28167,-2.9457 -16.20669,-4.5963 -25.39395,-9.3556 -9.19529,-4.7634 -16.63839,-11.4861 -22.72091,-12.0288 -6.97264,-0.6214 -14.4839,3.6006 -21.38438,4.0096 -20.66666,1.2229 -40.29351,-4.7834 -64.15313,-5.3461 -24.16435,-17.761 -29.07741,-61.7407 -28.067,-100.2393 -1.98474,-1.5784 -5.97159,-1.1561 -5.3461,-5.3461 -3.78236,-34.5397 1.81901,-76.7752 28.067,-89.547 0.21919,-4.2288 -3.55248,-4.4667 -2.67305,-9.3557 24.09619,-22.5044 54.2896,-40.494 82.86447,-54.7975 -1.90989,-1.0598 -0.36353,-6.283 0,-6.6826 9.07366,3.1034 14.0041,-1.3165 30.74005,-2.673 13.61517,-16.2335 31.42167,-28.2769 37.42266,-52.1245 -58.76026,24.7618 -117.73437,42.3946 -175.0846,52.1245 -1.6466,-2.8081 -3.6995,-5.2112 -5.3461,-8.0192 -30.47541,3.1261 -59.20666,-13.6833 -62.81661,-37.4227 -17.69558,-15.9995 -52.397076,-39.819 -41.432235,-74.8453 7.802625,-24.9221 40.040915,-60.213 52.124425,-81.5279 -5.51717,-17.5085 -19.09358,-28.206 -12.02872,-53.461 3.7396,-13.3692 18.85033,-32.531 30.74005,-46.7783 12.61545,-15.118801 26.23863,-34.431501 40.09571,-33.413101 -16.68382,26.530001 -35.1773,51.250301 -50.7879,78.854901 24.38621,29.9662 49.71334,58.9915 56.134,106.9219 26.79863,3.1328 56.64722,2.8348 85.53751,6.6826 0.41432,-6.4581 -14.25937,-12.7731 -21.38438,-5.3461 -0.24592,-4.7219 5.65617,-7.3174 2.67305,-10.6922 -2.38703,-1.6225 -7.77456,-0.2446 -9.35567,-2.673 3.40146,-0.1631 5.18304,-1.9447 5.3461,-5.3461 -7.92826,-13.5323 -1.64125,-25.3392 5.34609,-36.0862 -10.68684,3.1449 -19.66293,-3.4696 -21.38437,-13.3652 1.57977,1.5384 4.72461,1.513 8.01914,1.3365 -10.49973,-9.6029 -4.57626,-15.8338 -12.02872,-29.4035 4.0216,-0.5827 10.89535,7.6423 12.02872,1.3365 -4.98657,-1.2897 -10.59062,-8.9573 -9.35567,-12.0287 2.16517,3.487 11.80151,3.2237 13.36524,-1.3365 1.38998,-3.1007 0.0388,-12.3508 -2.67305,-20.0479 8.98144,4.0738 1.35524,-15.3726 8.01914,-20.0478 3.0994,-0.4264 5.13092,0.2138 6.68262,1.3365 -3.9521,-8.2209 2.42045,-21.004801 9.35567,-14.7017 1.05318,-21.582201 13.13535,-17.979001 22.7209,-30.740101 -1.1454,6.1961 2.10369,1.4007 2.67305,4.0096 9.01351,-15.90065 24.26726,-11.98597 36.08614,-17.37483 3.11811,0 6.23755,0 9.35566,0 -1.06253,6.40061 8.23967,-2.29749 4.00957,4.00957 1.86579,1.76154 8.12741,-0.83399 12.02872,4.00957 1.32449,6.75209 -4.77139,5.12419 -4.00957,8.01919 0.39293,1.2483 3.61663,1.2483 4.00957,0 1.01041,3.5698 -1.43008,7.1931 -4.00957,12.0287 -0.95695,2.1665 6.30304,2.1665 5.34609,0 3.22771,2.8842 -6.01435,4.6003 -8.01914,6.6826 -0.72306,6.7882 4.73263,0.025 4.00957,5.3461 -5.08547,8.090001 -6.37121,16.643701 -14.70176,18.711301 0.41432,1.8137 3.34666,1.1093 5.34609,1.3365 -2.04087,5.9783 -8.02448,8.0138 -14.70176,9.3557 0.0281,3.9815 6.30572,1.7134 8.01915,4.0096 -0.56134,3.0018 -7.09293,0.036 -8.01915,2.673 -0.52926,3.2023 6.08787,-0.7417 4.00958,4.0096 -3.11811,0 -6.23756,0 -9.35567,0 -1.34722,4.0203 2.97911,2.3683 5.34609,2.673 -5.42896,5.8754 -10.25782,9.0496 -17.3748,12.0288 1.91657,7.3442 4.41453,13.7568 -1.33653,18.7113 1.13337,3.9173 4.30361,-0.7993 6.68262,0 1.90722,5.9168 -4.5228,3.4963 -4.00957,8.0191 0.3622,3.1475 5.91813,0.8166 5.34609,-1.3365 3.25979,17.0059 -18.60708,35.3791 -30.74004,49.4514 24.95824,5.7764 66.36375,-18.0712 84.20099,2.673 3.91201,-1.8765 6.56902,1.5317 9.35567,-2.673 11.93783,4.1004 19.96365,12.1129 25.39395,22.7209 9.93839,-3.3841 23.0684,-0.4491 29.40352,4.0096 2.01681,-1.1615 -0.36754,-2.0008 1.33652,-5.3461 45.05823,-10.1282 96.23506,-12.9068 149.69066,-8.0192 0.28067,2.2868 -2.27877,3.4616 0,4.0096 7.61284,0.2499 17.7771,-7.8882 32.07657,-5.3461 7.57675,-11.152 17.98693,-27.503 34.74961,-21.3844 18.49482,-16.208 54.07976,-1.68 81.52795,0 -7.51795,-9.2674 -31.77853,-26.7024 -28.067,-46.7783 -10.37677,-8.114 -35.40718,-0.683 -37.42266,-18.7113 -9.68178,-2.3416 -18.23019,-5.5987 -17.37481,-12.0288 0.22454,-2.8975 -4.74065,-0.6054 -6.68262,-1.3365 -2.14378,-2.0048 2.98446,-8.5337 -5.34609,-6.6826 0.36353,-2.7559 5.91812,-0.3181 5.34609,-4.0096 -1.13337,-1.2576 -3.29186,-0.8848 -8.01914,-1.3365 0.91418,-4.5509 4.33835,-4.9785 -1.33652,-6.6826 0.21518,-1.5664 2.43648,-1.128 4.00957,-1.3365 0.62415,-2.8522 -1.9099,-2.5448 -4.00957,-2.6731 2.375,-6.8216 4.05367,-6.7013 5.34609,-13.3652 4.12184,0.7899 6.89513,-1.7723 8.01914,-5.346101 22.90668,-12.6128 52.3356,-4.333 70.83576,0 2.34292,1.2216 4.64308,2.4846 4.00957,6.682601 18.75009,-1.668 33.7392,14.3128 46.77833,26.7305 -0.69633,10.497 1.67867,17.9228 8.01914,21.3844 3.79172,0.2285 2.6089,-4.5202 8.01914,-2.6731 -1.88984,16.494 -5.11621,39.3513 -12.02871,49.4514 0.87943,4.0029 2.85749,-1.2777 5.34609,0 -0.68831,4.6578 -8.73284,1.9607 -13.36523,2.673 4.88499,10.4035 9.8876,28.6618 1.33652,41.4323 -5.66953,8.4668 -15.99551,7.2025 -21.38438,14.7017 18.88107,15.6467 67.28862,5.2365 100.23928,10.6922 0.49451,-48.8192 21.44452,-85.5148 37.42266,-122.9602 -2.16784,-3.7195 -11.85897,-0.1951 -8.01914,-9.3556 -2.7372,-0.4865 -8.75824,-4.4654 -10.69219,-1.3366 -3.90532,-1.4929 1.70006,-4.345 4.00957,-4.0095 -18.82627,-22.1596 -43.25124,-38.721801 -66.82618,-56.134001 19.2446,1.7027 48.12554,17.6234 69.49923,34.749601 11.18938,8.9667 32.06989,26.5594 34.74962,37.4227 7.83603,31.7678 -11.19072,64.5968 -20.04786,84.201 3.85587,26.3656 -7.47384,60.07 -33.41309,65.4896 -0.43705,4.9091 -1.53032,9.1619 -4.00957,12.0287 27.92265,9.9692 40.10506,-12.8787 56.13399,-26.7304 8.1969,-7.0836 21.52739,-16.0998 33.4131,-25.394 16.41785,-12.8386 25.88178,-22.0713 42.76883,-25.3939 3.2999,-11.5048 10.469,-33.0509 5.3461,-44.1053 12.5352,-11.6398 5.0854,-44.4381 4.0095,-62.8166 11.0624,11.2134 11.9846,32.5657 14.7018,52.1244 0,4.4546 0,8.9106 0,13.3652 -1.2964,20.7896 -6.1012,40.6651 -6.6826,60.1436 -14.0509,24.7083 -35.23083,42.2876 -60.14363,56.134 0.17642,3.2945 0.20181,6.4394 -1.33653,8.0191 -19.48919,14.5361 -43.96762,24.5974 -72.17228,24.0574 -2.73319,1.7215 -1.41003,7.4993 -5.34609,8.0192 -45.24668,2.4138 -95.95038,8.6834 -126.96975,-2.6731 -15.73891,7.502 -42.6859,-8.1822 -58.80705,-4.0095 2.95238,18.0457 21.29216,32.1247 34.74962,44.1053 5.5185,-0.7752 3.02188,-3.3267 6.68262,-4.0096 2.33223,2.7252 -0.99571,2.6209 1.33652,5.3461 19.57205,-2.919 42.86766,5.3888 56.134,10.6922 25.46211,10.1776 49.26693,20.9353 70.83575,33.4131 0.15905,3.8505 -0.72974,8.7488 1.33653,10.6921 4.0657,0.8461 8.28912,-1.1173 13.36523,0 18.23019,4.0136 48.86331,35.3965 54.79747,48.1149 2.60756,5.5893 1.08125,13.0097 4.00958,20.0479 2.43648,5.8566 7.73446,11.4994 10.69219,17.3748 8.5337,16.9498 21.63965,47.0376 20.04785,66.8262 -0.31141,3.8732 -3.05797,6.4647 -4.00957,10.6921 -0.71103,3.1569 0.38626,7.5581 0,10.6922 -5.17636,42.0123 -17.95219,86.0935 -50.7879,100.2393 7.44043,-13.4989 15.15083,-26.7265 21.38438,-41.4322 -7.0074,-19.7164 6.98734,-47.7032 10.69219,-69.4993 -5.46237,-5.4583 -12.33077,-7.9884 -18.71133,-9.3556 -6.05045,-34.9368 -25.414,-56.559 -32.07657,-90.8836 -12.60208,-12.7919 -22.3293,-28.4586 -34.74962,-41.4323 -3.77969,1.1214 -8.24902,1.5517 -12.02871,2.6731 -24.71099,-12.2666 -51.42275,-22.5311 -78.8549,-32.0766 -3.4616,2.2668 2.59018,6.2148 1.33652,10.6922 -3.27983,1.0264 -7.70773,-6.3993 -8.01914,0 17.90274,18.1834 42.21811,29.9542 58.80704,49.4514 0.40898,4.1766 -3.86121,-3.3975 -4.00957,1.3365 8.45218,2.8802 7.18114,13.0832 12.02872,21.3844 3.64603,6.2442 11.63443,9.6684 16.03828,16.0383 7.24931,10.4863 15.31389,32.7127 13.36524,40.0957 -0.27132,1.0251 -6.27765,5.9796 -6.68262,6.6826 -3.85454,6.6986 -4.11516,18.138 -12.02871,22.7209 -13.66596,3.9962 -19.92624,7.2774 -22.72091,21.3844 -8.30649,-1.1775 -7.07154,7.1838 -10.69219,10.6922 -3.13815,-0.4264 -5.01597,-2.1117 -9.35566,-1.3366 -18.41596,20.7669 -53.50773,37.4374 -82.86447,54.7975 -3.33062,-1.124 -7.15976,-1.7495 -12.02872,-1.3365 -2.28278,4.1272 -6.60376,0.2807 -10.69218,1.3365 -19.58409,5.0561 -46.55514,19.0615 -74.84533,21.3844 -31.72373,2.6049 -69.05284,-10.9568 -74.84533,-32.0766 -10.72293,0.1711 -11.36981,11.6198 -22.7209,5.3461 -0.85538,4.9371 -6.53026,5.0534 -9.35567,8.0192 -3.55782,-3.189 -5.028,0.4931 -10.69219,-4.0096 -15.83246,12.6943 -42.34107,1.4314 -61.48009,6.6826 15.62931,11.18 41.03529,25.4447 70.83576,26.7305 17.4844,0.7538 31.5032,-5.9061 46.77833,-6.6826 -10.96351,21.113 -40.01151,24.1416 -69.49923,26.7304 z m 177.75765,-85.5375 c -3.04594,0.3729 -5.024,-0.3221 -5.3461,-2.673 -10.32598,8.8143 -20.94332,2.7171 -32.07657,8.0191 -3.84918,-0.1604 -2.31886,-5.7003 -6.68261,-5.3461 -2.13176,0.9864 0.30472,6.5423 -4.00958,5.3461 -8.85847,-4.6952 -8.90392,-2.2012 -16.03828,-8.0191 -7.11432,9.0108 -15.51437,2.399 -21.38438,-2.6731 -2.82808,1.5156 -3.88126,0.5159 -8.01914,2.6731 0.32745,-11.3391 -18.07782,-5.3448 -21.38438,-9.3557 5.71765,-13.2503 24.74974,-13.3933 40.09571,-16.0383 14.6777,-2.5314 30.48878,-5.2672 44.10528,-6.6826 -13.06853,-9.8595 -36.10084,-14.6683 -44.10528,-25.3939 -2.08899,5.0386 -5.6535,8.6032 -10.69219,10.6921 -3.70484,-2.5313 -6.62648,-5.8472 -10.69219,-8.0191 -4.91039,6.6733 -2.11572,21.0502 -10.69219,24.0574 -1.57977,-0.6482 -3.0299,-1.4247 -4.00957,-2.673 -1.6319,-2.3443 1.46349,-9.3169 -1.33652,-13.3653 -3.11811,0 -6.23756,0 -9.35567,0 -0.67762,6.4501 0.20449,14.4612 -4.00957,17.3748 -1.78159,0 -3.56451,0 -5.3461,0 -3.24507,-7.4484 -4.24346,-17.1409 -8.01914,-24.0574 -6.10657,1.9447 -9.00148,11.0811 -17.37481,6.6826 -0.86205,21.4486 11.78547,37.1019 13.36524,60.1436 13.87846,0.2767 31.7117,2.5661 29.40352,14.7018 38.17647,16.9057 97.08107,3.9133 113.60452,-25.394 z m -419.66844,10.6922 c 5.33005,-1.3218 4.0256,3.9949 9.35566,2.6731 0.2085,-1.5731 -0.22988,-3.7931 1.33653,-4.0096 10.86994,1.6773 33.87686,9.484 38.75918,-2.6731 -2.22798,0 -4.45463,0 -6.68262,0 -3.71954,-11.867 -14.35426,-20.9299 -25.39395,-21.3843 -3.50169,-4.9626 -3.60861,-13.3212 -12.02871,-13.3653 0.15103,6.5677 7.34553,13.0993 5.3461,17.3748 -7.14907,-1.7762 -6.58105,15.6761 -10.69219,21.3844 z m 252.60297,-66.8262 c -0.34883,2.0797 -2.93099,0.9262 -4.00957,0 -6.31106,23.3544 -14.26872,0.4037 -28.06699,-2.673 -7.53132,-1.68 -11.15597,-0.7298 -16.03829,5.3461 -0.1283,-2.0997 0.1791,-4.6338 -2.67305,-4.0096 -4.91038,0.437 -3.85854,6.8336 -9.35566,6.6826 -10.92207,-7.7892 -19.64824,-17.7744 -29.40352,-26.7305 -2.33892,2.5622 -1.57175,8.229 -6.68262,8.0192 -8.95605,-10.6468 -20.68271,-18.5216 -22.7209,-36.0862 -9.30488,-0.8393 -8.02449,8.9053 -12.02872,13.3653 -3.49501,-3.1876 -3.64336,-9.7219 -9.35566,-10.6922 -8.12339,3.9053 -8.1675,15.8899 -17.37481,18.7113 -12.36151,-9.6002 -15.12811,6.1761 -28.067,6.6826 6.26562,17.7918 29.57059,18.5443 38.75919,33.4131 51.73549,22.2197 97.6678,50.2413 168.40198,53.461 -5.25521,-23.742 -11.53821,-42.5803 -21.38438,-65.4897 z m 199.14204,-1.3365 c 15.46224,-9.0803 29.22309,-22.1823 45.4418,-24.0574 0.20984,-1.5731 -0.22988,-3.7931 1.33653,-4.0096 22.61398,-2.6436 35.03162,-13.6553 44.10528,-26.7305 -6.80424,2.3389 -13.88515,-7.7652 -18.71133,0 -12.79989,-4.5749 -20.27908,-14.4705 -33.4131,-18.7113 -2.47791,8.2143 -4.55086,16.8335 -10.69219,21.3844 -1.49824,-5.6295 -4.10312,-10.1536 -10.69219,-10.6922 -2.46455,18.4748 -12.27062,29.6067 -24.05742,38.7592 -0.57203,-4.7741 -3.35735,-7.3349 -6.68262,-9.3557 -4.98256,14.6202 -16.30559,22.8987 -28.067,30.7401 -6.91785,-6.9767 -5.31669,-18.0298 -16.03828,-18.7114 -1.29509,17.8627 -24.00263,14.3102 -28.067,29.4035 25.91386,19.5226 57.78995,8.2758 85.53752,-8.0191 z m -422.34149,-64.1531 c 11.72532,-16.7868 24.6054,-32.4188 40.09571,-45.4418 3.54713,-3.1048 -3.54714,-3.5779 0,-6.6827 3.7289,3.5712 6.60109,-1.2523 10.69219,-1.3365 1.16411,-5.3153 1.16411,-6.7133 0,-12.0287 -29.87933,14.226 -57.54537,30.6652 -85.53752,46.7783 3.36002,25.2323 -1.7161,50.7345 14.70176,62.8166 4.34905,-17.0353 20.90858,-21.8601 20.04786,-44.1052 z M 117.91529,293.26986 c 26.6583,24.5746 55.72368,46.7435 72.17228,81.5279 67.38485,-13.269 140.77737,-46.9454 204.48812,-42.7687 1.75619,-6.4528 -0.78454,-8.4469 -1.33652,-18.7114 -12.8881,-11.7667 -17.31467,-2.101 -33.41309,1.3365 -14.76191,3.1529 -17.81319,6.9366 -26.73048,10.6922 0.62817,-0.2633 -3.68747,-1.8283 -5.34609,-1.3365 -5.93951,1.7589 -11.97392,9.4305 -17.37481,6.6826 -0.64554,-4.2087 6.12662,-1.001 6.68262,-4.0095 -4.77941,-8.0994 -24.54793,-6.9727 -34.74962,-5.3461 -14.06691,-9.3584 -35.13052,-4.2729 -50.7879,-10.6922 -11.4353,-4.6886 -17.56326,-13.1434 -26.73047,-16.0383 0.17642,-3.2945 0.20181,-6.4394 -1.33653,-8.0192 -24.98363,-3.3934 -38.83002,-31.1369 -36.08614,-53.4609 -7.04481,-4.0924 -10.10679,-12.1677 -17.3748,-16.0383 -8.40273,23.4386 -29.65613,44.6052 -32.07657,76.1819 z m 597.42609,17.3748 c -1.65194,-4.3237 4.32499,-1.0225 2.67305,-5.3461 -14.51198,-8.6594 -38.93695,-15.0947 -36.08614,9.3556 0.64821,-2.379 1.42473,0.5801 2.67305,1.3366 7.46314,-4.9652 17.59132,-10.3701 30.74004,-5.3461 z m -355.5153,-38.7592 c 2.25605,8.658 10.70689,4.7634 17.3748,4.0096 16.2655,-1.8391 27.84247,21.1705 37.42267,10.6921 -11.55024,-4.9504 -3.12346,-23.7727 -16.03829,-25.3939 -0.31408,5.4771 -0.65489,10.9288 -2.67304,14.7018 -1.19085,-4.1553 -4.46533,-6.2269 -5.3461,-10.6922 -5.08413,-0.7071 -8.79165,-2.7907 -13.36524,-4.0096 -2.82808,3.9481 -11.53019,6.712 -17.3748,10.6922 z m 300.71783,0 c 1.61452,0.282 0.82196,1.4822 0,2.673 6.54095,1.7348 8.40005,-0.159 14.70176,1.3366 15.64134,-18.2503 34.3099,-8.5231 58.80704,-13.3653 -0.79256,-6.7802 -11.89372,-3.2544 -16.03828,-6.6826 -0.22721,1.9994 0.47714,4.9318 -1.33653,5.3461 -4.25014,-10.0066 -22.1756,-6.3365 -28.06699,-14.7018 -4.08843,-0.9703 -3.93072,2.3069 -8.01915,1.3366 -2.76393,2.518 -1.53967,6.9445 -2.67304,8.0191 -1.97939,-0.2486 -1.2256,-3.229 -1.33653,-5.3461 -5.76041,-1.7522 -1.65595,6.3645 -6.68262,5.3461 2.11973,-1.9968 1.954,-7.6195 -2.67304,-6.6826 -2.09166,8.8304 -1.6065,18.7113 -5.3461,22.7209 0.004,-0.7418 -1.08258,-1.517 -1.33652,0 z"
   id="path3"
   style="fill-rule:evenodd;stroke-width:1" /></svg>