<?xml version="1.0" encoding="UTF-8" standalone="no"?>
<!-- Created with Inkscape (http://www.inkscape.org/) -->

<svg
   xmlns:dc="http://purl.org/dc/elements/1.1/"
   xmlns:cc="http://creativecommons.org/ns#"
   xmlns:rdf="http://www.w3.org/1999/02/22-rdf-syntax-ns#"
   xmlns:svg="http://www.w3.org/2000/svg"
   xmlns="http://www.w3.org/2000/svg"
   xmlns:sodipodi="http://sodipodi.sourceforge.net/DTD/sodipodi-0.dtd"
   xmlns:inkscape="http://www.inkscape.org/namespaces/inkscape"
   version="1.2"
   width="297mm"
   height="210mm"
   viewBox="0 0 1122.5197 793.70078"
   id="Layer_1"
   xml:space="preserve"
   style="overflow:inherit"
   sodipodi:docname="ctenophora.svg"
   inkscape:version="0.92.3 (2405546, 2018-03-11)"><sodipodi:namedview
   pagecolor="#ffffff"
   bordercolor="#666666"
   borderopacity="1"
   objecttolerance="10"
   gridtolerance="10"
   guidetolerance="10"
   inkscape:pageopacity="0"
   inkscape:pageshadow="2"
   inkscape:window-width="1865"
   inkscape:window-height="1025"
   id="namedview5"
   showgrid="false"
   units="mm"
   inkscape:zoom="0.5316865"
   inkscape:cx="-312.65895"
   inkscape:cy="396.85039"
   inkscape:window-x="55"
   inkscape:window-y="27"
   inkscape:window-maximized="1"
   inkscape:current-layer="Layer_1"
   showguides="true"
   inkscape:guide-bbox="true" /><metadata
   id="metadata7"><rdf:RDF><cc:Work
       rdf:about=""><dc:format>image/svg+xml</dc:format><dc:type
         rdf:resource="http://purl.org/dc/dcmitype/StillImage" /><dc:title /></cc:Work></rdf:RDF></metadata><defs
   id="defs7">
	

	
	
	
	
	
	
	
	
	
	
	
	
	
	
	
	
	
	
	
	
	
	
	
	
	
	
	
	
	
	
	
	
	
	
	
	
	
	
	
	
	
</defs>


	<style
   id="style3"
   type="text/css" /><g
   id="g1030"
   transform="translate(506.04215,426.89068)"><g
     transform="translate(-423.68545,210.07659)"
     id="g13">
</g><g
     transform="translate(-423.68545,210.07659)"
     id="g15">
</g><g
     transform="translate(-423.68545,210.07659)"
     id="g17">
</g><g
     transform="translate(-423.68545,210.07659)"
     id="g19">
</g><g
     transform="translate(-423.68545,210.07659)"
     id="g21">
</g><g
     transform="translate(-423.68545,210.07659)"
     id="g23">
</g><g
     transform="translate(-423.68545,210.07659)"
     id="g25">
</g><g
     transform="translate(-423.68545,210.07659)"
     id="g27">
</g><g
     transform="translate(-423.68545,210.07659)"
     id="g29">
</g><g
     transform="translate(-423.68545,210.07659)"
     id="g31">
</g><g
     transform="translate(-423.68545,210.07659)"
     id="g33">
</g><g
     transform="translate(-423.68545,210.07659)"
     id="g35">
</g><g
     transform="translate(-423.68545,210.07659)"
     id="g37">
</g><g
     transform="translate(-423.68545,210.07659)"
     id="g39">
</g><g
     transform="translate(-423.68545,210.07659)"
     id="g41">
</g><path
     style="fill:#231f20;stroke-width:1"
     id="path9"
     d="m -74.722616,106.07361 c -2.227167,-3.51485 -4.864174,-3.45277 -6.944389,-2.51199 -1.040108,0.4704 -1.523424,1.8195 -1.523424,1.8195 0.556792,0.87872 3.267275,3.04446 3.267275,3.04446 2.637007,-0.0621 3.677115,-0.53247 5.200538,-2.35197 z m 52.003862,-327.62983 c 3.677114,-0.53247 7.354229,-1.06494 6.167169,-5.05018 0,0 -2.710483,-2.16574 -3.750591,-1.69535 -3.677114,0.53247 -1.449947,4.04732 -2.416578,6.74553 z m -50.522897,340.52634 c -0.07348,-2.22782 0.409839,-3.57692 -0.146952,-4.45563 -1.5969,-0.40832 -4.233907,-0.34625 -5.274015,0.12415 -1.040107,0.47039 -0.966631,2.69821 -1.449947,4.04731 2.637007,-0.0621 4.233907,0.34625 6.870914,0.28417 z m 76.0633653,1.77676 c -3.34075125,-5.27227 -5.3474903,-2.10367 -6.9443898,-2.51199 -1.0401076,0.47039 -1.5234233,1.8195 -2.006739,3.1686 0,0 2.7104832,2.16575 2.7104832,2.16575 2.0802152,-0.94079 4.16043037,-1.88158 6.2406456,-2.82236 z M -86.078881,81.81592 c 1.596899,0.408318 3.193799,0.816637 5.274014,-0.12415 2.080215,-0.940787 3.120323,-1.41118 2.006739,-3.168604 -1.113584,-1.757424 -3.267275,-3.044454 -4.307383,-2.574061 -2.080215,0.940787 -5.200538,2.351967 -2.97337,5.866815 z m 61.0905,-292.17098 c 3.677115,-0.53247 5.75733,-1.47325 5.683854,-3.70107 -1.113584,-1.75743 -2.227167,-3.51485 -4.307383,-2.57406 -3.193798,-0.81664 -3.120322,1.41118 -1.376471,6.27513 z M -89.787013,65.404561 c 1.596899,0.408319 3.267275,3.044455 4.307382,2.574061 2.080216,-0.940786 4.160431,-1.881573 5.683854,-3.701072 -4.864174,-3.452773 -6.461074,-3.861092 -9.991236,1.127011 z m 57.429654,-131.111516 c 2.710483,2.165743 4.307382,2.574061 6.387598,1.633275 2.080215,-0.940787 2.563531,-2.289892 -0.146953,-4.455635 -2.710483,-2.165742 -4.790698,-1.224956 -5.830806,-0.754562 -1.040107,0.470393 0.07348,2.227817 -0.409839,3.576922 z m 7.226852,43.083092 c 2.080216,-0.940787 4.160431,-1.881574 6.240646,-2.82236 1.040108,-0.470394 0.483316,-1.349106 -0.07348,-2.227818 -0.556792,-0.878712 -2.153691,-1.28703 -2.153691,-1.28703 -4.790699,-1.224956 -5.75733,1.473254 -4.013479,6.337208 z m -68.438114,69.389248 c 0.556791,0.878712 0.556791,0.878712 1.113583,1.757424 2.153692,1.287031 4.790699,1.224956 6.94439,2.511987 0,0 1.523423,-1.819499 0.966632,-2.698211 -1.113584,-1.757424 -1.670376,-2.636136 -3.824067,-3.923166 -2.637007,0.06207 -4.717223,1.002861 -5.200538,2.351966 z m 4.833157,-13.491053 c 1.523423,-1.819499 3.603638,-2.760285 0.893155,-4.926028 -2.153691,-1.287031 -3.750591,-1.695349 -5.274014,0.12415 -1.523423,1.819498 -1.449947,4.047316 0.703744,5.334346 -0.483316,1.349105 1.5969,0.408319 3.677115,-0.532468 z m 56.056491,-236.759712 c 2.153691,1.28703 3.267275,3.04445 4.864174,3.45277 1.5969,0.40832 3.120323,-1.41118 4.160431,-1.88157 -0.07348,-2.22782 -1.18706,-3.98525 -2.857436,-6.62138 -2.080215,0.94079 -3.603638,2.76028 -6.167169,5.05018 z m 34.5978794,-55.21538 c -2.63700712,0.0621 -5.2740142,0.12415 -5.2740142,0.12415 -0.4833157,1.34911 -0.4098396,3.57692 -0.8931553,4.92603 1.5968995,0.40832 4.23390653,0.34624 6.3875979,1.63327 -0.073476,-2.22781 -0.1469523,-4.45563 -0.2204284,-6.68345 z M -18.460446,19.580516 c 2.153692,1.287031 3.267275,3.044455 4.864175,3.452773 2.637007,-0.06207 4.717222,-1.002861 4.086954,-4.10939 -0.556792,-0.878712 -2.710483,-2.165743 -4.864175,-3.452774 -1.523423,1.819499 -2.56353,2.289892 -4.086954,4.109391 z m -7.466856,-98.370205 c -3.267276,-3.044455 -5.904283,-2.98238 -7.427706,-1.162882 -0.483316,1.349106 -0.40984,3.576923 0.146952,4.455635 2.637007,-0.06207 4.790699,1.224956 6.870914,0.284169 1.040108,-0.470393 0.966631,-2.69821 0.40984,-3.576922 z m -13.865897,-68.343641 c 1.5969,0.40831 2.637007,-0.0621 4.233907,0.34624 2.637007,-0.0621 3.677114,-0.53247 3.046846,-3.639 -0.07348,-2.22781 -2.710483,-2.16574 -4.307382,-2.57406 -3.193799,-0.81664 -3.677115,0.53247 -3.046847,3.639 -0.556792,-0.87871 0,0 0.07348,2.22782 z m 27.35297,157.208034 c 2.5635313,-2.289892 2.5635313,-2.289892 0.893156,-4.9260279 -3.267275,-3.0444546 -4.233907,-0.3462439 -6.314122,0.5945428 -2.080215,0.9407867 -2.563531,2.289892 0.146952,4.4556341 2.153692,1.287031 3.750591,1.69535 5.274014,-0.124149 z m -6.217762,-60.497311 c -2.153691,-1.287031 -3.267275,-3.044455 -4.864174,-3.452773 -1.5969,-0.408319 -3.193799,-0.816638 -5.347491,-2.103668 0.07348,2.227817 -4.643746,3.230678 -0.336363,5.80474 0.556792,0.878712 1.113584,1.757424 2.153691,1.28703 2.637007,-0.06207 5.274014,-0.124149 8.394337,-1.535329 z M -31.828277,-193.6954 c -0.483316,1.3491 -0.966631,2.69821 -2.006739,3.1686 -2.080215,0.94079 -2.006739,3.16861 0.146952,4.45564 2.153692,1.28703 3.750591,1.69534 5.830806,0.75456 1.523424,-1.8195 2.006739,-3.16861 -0.703744,-5.33435 -0.556792,-0.87871 -1.113584,-1.75742 -3.267275,-3.04445 z m -1.631224,94.571186 c -2.080216,0.940786 -3.046847,3.638997 -0.336364,5.80474 2.710483,2.165742 5.34749,2.103667 6.870914,0.284169 0.483316,-1.349106 0.409839,-3.576923 -0.703744,-5.334347 -2.153692,-1.287031 -5.347491,-2.103668 -5.830806,-0.754562 z M -90.920173,15.043475 c 0.483316,-1.349105 1.449947,-4.047316 -0.146952,-4.455635 -2.153691,-1.2870303 -4.864175,-3.4527729 -6.387598,-1.6332742 -1.523423,1.8194982 -3.603637,2.7602852 -0.893155,4.9260282 2.783959,4.39356 4.307382,2.574061 7.427705,1.162881 z m 62.127301,-180.718035 c -3.750591,-1.69535 -6.461074,-3.8611 -7.501182,-3.3907 -2.080215,0.94078 -5.200538,2.35196 -3.530162,4.9881 0.556792,0.87871 4.307383,2.57406 4.307383,2.57406 3.677114,-0.53247 5.200538,-2.35197 6.723961,-4.17146 z m -3.278717,28.61538 c -4.307382,-2.57406 -4.790698,-1.22496 -7.911021,0.18622 -1.523423,1.8195 -0.409839,3.57692 0.703744,5.33435 3.267275,3.04445 5.274014,-0.12415 6.314122,-0.59455 2.080215,-0.94078 1.449947,-4.04731 0.893155,-4.92602 z m 6.573702,103.29623 c 0,0 0.556792,0.878712 2.153691,1.287031 1.040108,-0.470394 3.677115,-0.532468 4.16043,-1.881574 0.483316,-1.349105 0.40984,-3.576922 -1.187059,-3.985241 -2.153692,-1.287031 -4.864175,-3.452773 -7.427706,-1.162881 -1.040108,0.470393 -1.523423,1.819499 2.300644,5.742665 z m -4.072205,-139.47378 c 0.966631,-2.69821 1.376471,-6.27513 -0.777221,-7.56216 -3.267275,-3.04446 -4.233906,-0.34625 -5.757329,1.47325 -1.040108,0.4704 -2.006739,3.16861 0.703744,5.33435 0.556792,0.87871 3.193799,0.81664 5.830806,0.75456 z m 0.576367,49.48238 c -2.637007,0.0621 -4.790698,-1.22496 -5.274014,0.12415 -1.523423,1.81949 -5.75733,1.47325 -3.530162,4.9881 0.556792,0.87871 2.710483,2.16574 5.34749,2.10367 1.596899,0.40831 3.677115,-0.53247 4.16043,-1.88158 -0.556791,-0.87871 -0.630268,-3.10653 -0.703744,-5.33434 z m 0.587809,17.82253 c 2.080216,-0.94078 2.006739,-3.1686 -0.703744,-5.33434 -2.710483,-2.16574 -4.307382,-2.57406 -5.830806,-0.75456 -2.080215,0.94078 -1.933263,5.39642 0.220429,6.68345 2.153691,1.28703 3.75059,1.69535 6.314121,-0.59455 z m 22.854658,-139.21581 c -5.34749,-2.10367 -7.427706,-1.16288 -6.723961,4.17147 -3.193799,-0.81664 -5.274014,0.12415 -5.200538,2.35196 0.07348,2.22782 1.18706,3.98524 4.380858,4.80188 3.1937994,0.81664 3.1203233,-1.41118 3.046847,-3.639 0.4833159,-1.3491 -0.630268,-3.10653 2.5635311,-2.28989 1.5968994,0.40832 2.0802152,-0.94078 2.5635309,-2.28989 0,0 -0.5567919,-0.87871 -0.630268,-3.10653 z m -53.675756,20.88353 c -0.556792,-0.87871 -1.596899,-0.40832 -2.153691,-1.28703 -0.483316,1.34911 -1.523423,1.8195 -2.006739,3.16861 -2.006739,3.1686 -3.456686,7.21592 -4.423318,9.91413 -2.97337,5.86681 -6.986848,12.20402 -9.960219,18.07083 -1.449947,4.04732 -2.899894,8.09464 -4.349841,12.14195 -1.449948,4.04732 -2.343103,8.97335 -5.38995,12.61234 -3.530162,4.98811 -3.866525,10.79285 -5.799788,16.18927 -0.966632,2.69821 -1.376471,6.27513 -1.786311,9.85205 -0.966632,2.69821 -2.490055,4.51771 -3.456686,7.21592 -1.376471,6.27514 -2.196153,13.42898 -4.612733,20.17451 -1.37647,6.27513 -2.75294,12.55026 -4.12941,18.825398 -0.40984,3.576922 -1.85979,7.624238 -2.26963,11.201161 -0.48331,1.349105 0.63027,3.106529 1.18706,3.985241 0.5568,0.878712 2.1537,1.287031 3.26728,3.044455 -4.16043,1.881573 -4.57027,5.458496 -3.38321,9.443737 0.55679,0.878712 0.0735,2.227817 0.14695,4.455635 0.29391,8.911269 0.031,16.943826 -0.23187,24.976384 2.15369,1.28703 3.26728,3.044454 3.82407,3.923166 0.63027,3.106529 -0.33637,5.80474 -0.7462,9.381663 -0.48332,1.349105 0.63026,3.106529 1.18706,3.985241 2.71048,2.165743 2.22716,3.514848 0.70374,5.334347 -3.04685,3.638997 -1.93326,5.396421 2.37412,7.9704821 -0.96663,2.6982106 -3.53016,4.9881027 -1.78631,9.85205591 2.08021,-0.9407867 3.603637,-2.76028541 5.683852,-3.70107211 2.080215,-0.9407867 0.966632,-2.6982106 -0.146952,-4.4556346 -3.26728,-3.0444543 -3.89754,-6.1509843 -1.334012,-8.4408763 4.643746,-3.230678 4.086954,-4.10939 -1.334008,-8.440875 -3.26728,-3.044455 -2.78396,-4.39356 0.262883,-8.032558 1.523423,-1.819498 3.046847,-3.638997 -1.260533,-6.213058 -4.30739,-2.574062 -2.22717,-3.514848 -0.14696,-4.455635 3.120327,-1.41118 3.046851,-3.638997 -0.22042,-6.683452 -4.38086,-4.801878 -5.97776,-5.210197 -2.4476,-10.1983 0.48332,-1.349105 1.44995,-4.047316 0.33636,-5.80474 -3.34075,-5.272272 -3.89754,-6.150984 0.26289,-8.032557 4.160431,-1.881573 3.60364,-2.760285 -0.22043,-6.683452 -3.26727,-3.044454 -3.89754,-6.150984 0.26289,-8.032557 3.12032,-1.41118 3.603638,-2.760285 0.81968,-7.153845 -1.67038,-2.636136 -3.34075,-5.272274 -0.77722,-7.562164 3.12032,-1.41118 4.570269,-5.4585 2.89989,-8.09463 -1.18706,-3.98524 0.893158,-4.92603 4.013481,-6.33721 1.040108,-0.47039 3.677115,-0.53247 0.966632,-2.69821 -1.113584,-1.75742 -1.743852,-4.86395 0.893155,-4.92603 4.16043,-1.88157 1.449947,-4.04731 0.819679,-7.15384 -2.227167,-3.51485 -0.220428,-6.68346 2.899895,-8.09464 5.75733,-1.47325 5.127061,-4.57978 -0.293905,-8.91127 1.040108,-0.47039 2.080215,-0.94078 3.120323,-1.41118 2.637007,-0.0621 4.16043,-1.88157 2.490055,-4.5177 -4.454335,-7.0297 -0.367381,-11.13909 3.236257,-13.89938 2.00674,-3.1686 4.57027,-5.45849 2.826419,-10.32245 -0.556792,-0.87871 0.483315,-1.3491 -0.07348,-2.22781 0.483315,-1.34911 1.449947,-4.04732 2.490054,-4.51771 1.523424,-1.8195 3.046847,-3.639 5.127062,-4.57979 3.120323,-1.41118 5.200538,-2.35196 2.416579,-6.74552 -1.113584,-1.75743 -1.18706,-3.98524 -0.703744,-5.33435 5.053585,-6.8076 8.510272,-14.02352 10.92685,-20.76905 z m 183.561834,-35.53467 c 0.55679,0.87871 0.0735,2.22782 0.0735,2.22782 5.49444,6.5593 12.02899,12.64821 17.52344,19.20751 6.60802,8.31673 12.73273,17.98256 18.30065,26.76968 5.56792,8.78712 8.49883,17.63631 12.46985,26.01511 2.30065,5.74267 6.19819,11.89365 8.49883,17.63632 2.85744,6.62138 5.15808,12.36404 6.41862,18.5771 3.63465,14.18354 7.8261,29.24579 10.42065,43.89973 1.8908,9.319586 2.7415,19.109567 3.5922,28.899549 0.77722,7.562163 2.11123,16.003039 1.84834,24.035597 0.77722,7.562164 -0.0425,14.716009 -0.86214,21.869854 -0.11593,12.488192 -0.78866,24.0976718 -0.90459,36.5858637 -0.67273,11.6094803 -0.78867,24.0976723 -2.5015,36.1775453 -0.26289,8.032557 -1.08257,15.186402 -2.94235,22.810641 -1.78631,9.852056 -2.53252,19.233718 -5.35894,29.556168 -2.3431,8.973342 -4.6862,17.946692 -7.0293,26.920032 -0.89316,4.92603 -3.38321,9.44374 -4.83316,13.49105 -1.93326,5.39642 -3.86653,10.79285 -5.79979,16.18927 -1.37647,6.27513 -2.75294,12.55026 -0.93561,19.64203 1.26053,6.21306 2.52107,12.42612 5.86182,17.69839 2.30064,5.74267 6.6815,10.54455 10.57905,16.69553 3.12032,-1.41118 3.04684,-3.639 1.37647,-6.27513 -0.5568,-0.87871 -1.67038,-2.63614 -2.22717,-3.51485 -2.30064,-5.74267 -5.15808,-12.36404 -7.45872,-18.10671 -3.48771,-9.7279 -2.18471,-18.23086 0.71518,-26.32549 0,0 2.08022,-0.94078 2.63701,-0.0621 3.1938,0.81664 4.23391,0.34624 5.75733,-1.47326 -1.5969,-0.40832 -2.15369,-1.28703 -3.1938,-0.81663 -2.63701,0.0621 -2.71048,-2.16575 -2.22717,-3.51485 0.48332,-1.34911 0.96663,-2.69821 1.44995,-4.04732 1.93326,-5.39642 5.46342,-10.38452 6.8399,-16.65966 2.41657,-6.74552 3.79305,-13.02066 5.65283,-20.64489 1.78631,-9.85206 3.57262,-19.704116 5.91573,-28.67746 0.81968,-7.153845 3.23625,-13.899372 3.01583,-20.582824 0.26288,-8.032557 0.52577,-16.065114 0.78866,-24.097671 0.33636,-5.80474 1.22952,-10.730768 1.56588,-16.535508 1.30299,-8.5029508 2.0492,-17.8846134 2.31209,-25.917171 0.18941,-10.260374 0.93561,-19.642037 0.56823,-30.781123 -0.36738,-11.139087 -0.73476,-22.278173 -2.69904,-33.825579 -2.59455,-14.653934 -5.74589,-30.186584 -8.34044,-44.840514 -2.4476,-10.1983 -3.85508,-20.86699 -9.49648,-31.88193 -3.97102,-8.3788 -5.30503,-16.81968 -11.91306,-25.1364 -0.55679,-0.87872 0.96664,-2.69822 1.44995,-4.04732 0.48332,-1.34911 2.56353,-2.28989 4.64375,-3.23068 -5.75733,1.47326 -5.75733,1.47326 -8.54129,-2.9203 -1.11359,-1.75743 -2.78396,-4.39356 -3.89755,-6.15099 -2.78395,-4.39356 -2.85743,-6.62138 1.303,-8.50295 1.04011,-0.47039 1.04011,-0.47039 1.52342,-1.8195 -0.55679,-0.87871 -1.11358,-1.75742 -1.67037,-2.63613 0,0 -1.5969,-0.40832 -1.5969,-0.40832 -4.71722,1.00286 -9.02461,-1.5712 -10.76846,-6.43516 -1.67037,-2.63613 -1.74385,-4.86395 2.49006,-4.5177 2.637,-0.0621 3.12032,-1.41118 2.49005,-4.51771 -1.67037,-2.63614 -2.71048,-2.16575 -5.34749,-2.10367 -2.63701,0.0621 -3.67711,0.53247 -5.75733,1.47325 -1.18706,-3.98524 -4.45433,-7.02969 1.85979,-7.62424 1.5969,0.40832 2.56353,-2.28989 -0.14695,-4.45563 -1.11359,-1.75742 -3.26728,-3.04445 -5.34749,-2.10367 -1.04011,0.4704 -2.08022,0.94079 -4.16044,1.88158 -7.64813,-7.84634 -12.73273,-17.98256 -23.9845,-23.06861 z m -8.10705,234.293265 c -3.34075,-5.272272 -2.4476,-10.1983 -0.44086,-13.366904 3.1938,0.816638 5.90428,2.98238 8.54129,2.920305 3.1938,0.816638 3.60364,-2.760285 4.64375,-3.230678 -2.1537,-1.287031 -3.26728,-3.044455 -4.86418,-3.452774 -1.5969,-0.408318 -2.63701,0.06208 -4.2339,-0.346243 -1.04011,0.470393 -2.63701,0.06207 -3.1938,-0.816638 -0.5568,-0.878712 -1.11359,-1.757424 -1.11359,-1.757424 0.96663,-2.69821 0.89316,-4.926028 1.85979,-7.624238 3.1938,0.816637 5.34749,2.103668 7.9845,2.041593 3.1938,0.816637 4.71722,-1.002862 4.64374,-3.230679 -0.0735,-2.227817 -2.22716,-3.514848 -5.42096,-4.331485 -1.5969,-0.408319 -4.23391,-0.346244 -5.27402,0.124149 -1.11358,-1.757424 -1.67037,-2.636136 -1.67037,-2.636136 0.48331,-1.349105 2.00674,-3.168604 3.04684,-3.638997 1.04011,-0.470393 2.63701,-0.06208 2.63701,-0.06208 5.90428,2.98238 5.90428,2.98238 8.39434,-1.535329 0.48331,-1.349105 0.48331,-1.349105 -0.0735,-2.227817 -0.55679,-0.878712 -1.5969,-0.408319 -3.1938,-0.816638 -1.5969,-0.408318 -4.2339,-0.346244 -5.8308,-0.754562 0,0 -1.5969,-0.408319 -1.5969,-0.408319 -0.0735,-2.227817 -1.18706,-3.985241 -1.26054,-6.213058 0,0 3.67712,-0.532469 5.27401,-0.12415 3.7506,1.695349 7.42771,1.162881 9.99124,-1.127011 -2.71048,-2.165742 -4.86417,-3.452773 -6.53455,-6.088909 -1.04011,0.470393 -1.52342,1.819499 -2.56353,2.289892 -4.86417,-3.452773 -5.49444,-6.559302 -2.37412,-7.970482 2.56353,-2.289892 3.75059,1.695349 5.90428,2.982379 0,0 0.55679,0.878712 0.55679,0.878712 1.5969,0.408319 4.23391,0.346244 5.27402,-0.124149 1.04011,-0.470393 3.12032,-1.41118 1.44995,-4.047316 -2.71049,-2.165743 -5.42097,-4.331485 -8.05798,-4.26941 -2.63701,0.06207 -3.75059,-1.69535 -3.26727,-3.044455 0.40984,-3.576924 0.81968,-7.153854 1.22952,-10.730774 2.71048,2.16574 4.30738,2.57406 5.42096,4.33149 1.67038,2.63613 5.34749,2.10367 6.3876,1.63327 1.04011,-0.47038 3.60364,-2.76027 0.89316,-4.92603 -2.1537,-1.28703 -4.30739,-2.57406 -5.90429,-2.98238 -3.67711,0.53247 -5.8308,-0.75456 -5.42096,-4.33148 -0.0735,-2.22782 -0.14696,-4.45564 0.33636,-5.80474 3.1938,0.81665 6.3876,1.63327 9.02461,1.57121 1.59689,0.40832 3.67711,-0.53248 4.16043,-1.88158 0.48331,-1.34911 -0.63027,-3.10654 -1.74386,-4.86396 -0.55679,-0.8787 -3.1938,-0.81664 -4.79069,-1.22495 -4.23391,-0.34625 -5.83081,-0.75457 -7.01787,-4.7398 -0.63027,-3.10653 0.33636,-5.80475 1.30299,-8.50295 2.71049,2.16574 5.42097,4.33149 9.17156,6.02683 3.75059,1.69534 6.79744,-1.94364 5.68386,-3.70107 -2.22717,-3.51484 -7.57466,-5.61851 -10.69499,-4.20734 -1.0401,0.4704 -3.19379,-0.81664 -3.75059,-1.69534 -0.63026,-3.10653 -0.22042,-6.68345 -0.2939,-8.91128 3.1938,0.81665 5.34749,2.10367 7.9845,2.0416 1.5969,0.40832 2.08021,-0.94078 2.08021,-0.94078 2.63701,-0.0621 3.12032,-1.41118 1.44995,-4.04732 -2.71048,-2.16574 -5.90428,-2.98238 -10.62151,-1.97952 -1.0401,0.47039 -3.19379,-0.81665 -3.19379,-0.81665 -0.0735,-2.22781 -0.14696,-4.45563 -0.22043,-6.68344 0,0 2.08021,-0.94079 3.67711,-0.53247 3.75059,1.69535 6.87092,0.28417 8.95113,-0.65661 0,0 0.48332,-1.34911 -0.0735,-2.22782 -2.22716,-3.51485 -4.86417,-3.45277 -7.50118,-3.39071 -5.8308,-0.75456 -5.27401,0.12415 -7.01786,-4.7398 -1.18706,-3.98524 2.56353,-2.28989 4.64374,-3.23068 5.75733,-1.47326 5.75733,-1.47326 5.5369,-8.15671 -2.637,0.0621 -5.27401,0.12415 -7.35422,1.06494 -1.04011,0.47039 -2.63701,0.0621 -4.23391,-0.34625 -3.82407,-3.92316 -2.93091,-8.84919 1.78631,-9.85205 2.63701,-0.0621 3.67711,-0.53246 5.20054,-2.35196 1.04011,-0.4704 -0.0735,-2.22783 0.40984,-3.57692 -1.5969,-0.40832 -3.1938,-0.81665 -4.23391,-0.34625 -2.63701,0.0621 -5.20054,2.35197 -8.46781,-0.69248 -1.11359,-1.75743 -2.22717,-3.51485 -2.30065,-5.74267 -1.11358,-1.75742 -0.63026,-3.10653 2.00674,-3.1686 1.5969,0.40832 2.63701,-0.0621 3.12033,-1.41118 1.0401,-0.4704 0.96663,-2.69821 0.40984,-3.57693 -1.11359,-1.75742 -3.26728,-3.04446 -4.7907,-1.22495 -1.04011,0.47039 -2.08022,0.94078 -3.67712,0.53246 -2.22717,-3.51485 -3.89754,-6.15099 -5.56792,-8.78711 -1.67037,-2.63615 -1.74385,-4.86396 2.49006,-4.51771 1.5969,0.40832 3.12032,-1.41118 3.60364,-2.76029 1.0401,-0.47039 -0.63027,-3.10653 -2.22717,-3.51485 -2.15369,-1.28703 -4.7907,-1.22495 -5.27401,0.12415 -1.52343,1.8195 -2.08022,0.94078 -3.1938,-0.81664 -0.5568,-0.87871 -1.11359,-1.75742 -2.22717,-3.51484 -3.340752,-5.27227 -3.340752,-5.27227 2.41658,-6.74553 1.04011,-0.4704 3.60364,-2.76028 3.04684,-3.63901 -0.0735,-2.22781 -2.71048,-2.16574 -5.34749,-2.10365 -1.040104,0.47039 -2.080211,0.94077 -2.080211,0.94077 -1.040108,0.47041 -1.523424,1.8195 -2.006739,3.16861 0,0 -1.040108,0.4704 -1.5969,-0.40832 -1.113584,-1.75743 -1.670375,-2.63614 -2.783959,-4.39356 -1.113584,-1.75743 -1.18706,-3.98523 -2.300644,-5.74266 -2.783959,-4.39356 -5.011127,-7.9084 -7.795086,-12.30197 -0.556792,-0.87871 -2.153691,-1.28703 -2.710483,-2.16575 -0.483316,1.34911 -1.523423,1.8195 -0.966632,2.69822 1.18706,3.98523 2.857436,6.62137 5.084603,10.13623 3.340752,5.27227 7.72161,10.07415 0.997649,14.24561 0,0 -1.040108,0.4704 -0.483316,1.34911 3.193799,0.81664 6.387598,1.63327 9.581397,2.44991 1.113584,1.75743 0.630268,3.10652 1.18706,3.98524 1.670376,2.63614 1.18706,3.98524 -0.893155,4.92603 -1.040108,0.47039 -2.080215,0.94079 -1.523424,1.8195 1.113584,1.75742 2.153692,1.28703 3.750591,1.69535 2.637007,-0.0621 6.387599,1.63327 6.461079,3.86108 0.0735,2.22783 0.63026,3.10653 2.30064,5.74267 0.55679,0.87872 0.63027,3.10653 -2.56353,2.2899 -1.5969,-0.40832 -2.637009,0.0621 -4.233909,-0.34625 -3.677114,0.53247 -4.16043,1.88158 -0.893155,4.92603 2.153691,1.28702 4.307384,2.57406 6.461074,3.86109 0.55679,0.87871 1.5969,0.40832 2.15369,1.28702 2.22717,3.51485 1.26054,6.21307 -0.81968,7.15385 -1.04011,0.4704 -2.56353,2.2899 -3.04684,3.63901 0,0 1.67037,2.63613 3.26727,3.04445 4.7907,1.22496 5.90428,2.98238 6.53455,6.08891 0.55679,0.87871 0.55679,0.87871 0.55679,0.87871 -2.637,0.0621 -4.71722,1.00286 -6.79743,1.94365 -2.08022,0.94079 -0.40984,3.57692 1.74385,4.86395 3.1938,0.81664 6.38759,1.63328 9.58139,2.44991 0.14696,4.45564 -0.89315,4.92602 -6.16717,5.05018 -2.637,0.0621 -3.67711,0.53246 -5.75733,1.47326 0.5568,0.87871 0.5568,0.87871 0.0735,2.22782 3.75059,1.69534 6.46107,3.86109 10.21167,5.55644 3.75059,1.69535 3.82406,3.92316 3.34075,5.27227 -0.48332,1.3491 -3.12033,1.41118 -4.16043,1.88157 -1.5969,-0.40832 -3.1938,-0.81664 -4.7907,-1.22495 -1.5969,-0.40832 -2.63701,0.0621 -3.67712,0.53246 -1.0401,0.4704 -0.48331,1.34911 0.0735,2.22782 2.71048,2.16574 4.93765,5.68059 9.17156,6.02684 1.0401,-0.4704 3.1938,0.81663 3.75059,1.69534 0.0735,2.22782 -0.40984,3.57693 -0.33637,5.80474 0,0 -2.08021,0.94079 -3.67711,0.53247 -3.1938,-0.81663 -5.34749,-2.10366 -7.9845,-2.0416 -1.04011,0.47039 -1.52342,1.8195 -2.56353,2.2899 3.34075,5.27226 5.49444,6.5593 12.92215,7.72219 0,0 2.15369,1.28703 2.15369,1.28703 -0.48332,1.34909 -1.44995,4.04731 -1.93326,5.39642 -1.04011,0.47039 -3.1938,-0.81664 -4.7907,-1.22497 -3.1938,-0.81664 -5.34749,-2.10366 -6.31412,0.59454 -1.52343,1.8195 0.14695,4.45564 3.89754,6.15099 0.55679,0.87871 1.5969,0.40832 2.15369,1.28703 6.3876,1.63327 8.13145,6.49723 6.12471,9.66583 -1.04011,0.47039 -2.08021,0.94079 -3.67711,0.53247 -1.5969,-0.40832 -4.30739,-2.57406 -6.94439,-2.51199 -1.5969,-0.40832 -3.12032,1.41118 -4.64375,3.23069 1.11359,1.75741 2.71048,2.16574 3.82407,3.92317 2.71048,2.16574 4.86417,3.45277 8.54129,2.92029 0,0 2.15369,1.28703 2.71048,2.16576 1.11358,1.75741 -2.3431,8.973334 -3.94,8.565015 -2.63701,0.06208 -5.83081,-0.754562 -7.42771,-1.162881 -0.55679,-0.878712 -1.5969,-0.408318 -1.0401,0.470394 -1.52343,1.819498 0.14695,4.455634 2.30064,5.742665 1.5969,0.408319 3.1938,0.816637 4.7907,1.224956 3.75059,1.695349 4.86417,3.452773 4.93765,5.68059 0.14695,4.455635 -0.89316,4.926028 -5.12706,4.579784 -1.5969,-0.408318 -4.7907,-1.224956 -5.83081,-0.754562 -1.04011,0.470393 -3.12032,1.41118 -4.16043,1.881573 0,0 1.67038,2.636136 2.22717,3.514848 2.15369,1.287031 4.30738,2.574061 5.90428,2.98238 4.7907,1.224956 5.90428,2.98238 5.49444,6.559302 -0.40984,3.576923 -2.49005,4.51771 -7.28075,3.292754 -1.5969,-0.408319 -4.7907,-1.224956 -5.83081,-0.754563 -1.0401,0.470394 -2.56353,2.289892 -3.04684,3.638998 0,0 2.15369,1.28703 3.26727,3.044454 4.30738,2.574062 7.50118,3.390699 12.7752,3.266549 -1.04011,0.470394 -0.48332,1.349106 -0.48332,1.349106 -1.52342,1.819498 -1.44995,4.047316 -2.97337,5.866814 -1.52342,1.819499 -5.27401,0.12415 -8.46781,-0.692487 -1.5969,-0.408319 -3.67712,0.532468 -3.12032,1.41118 0.55679,0.878712 1.18706,3.985241 2.78395,4.393559 2.1537,1.287031 6.94439,2.511987 8.05798,4.269411 1.11358,1.757424 0.14695,4.455635 -0.26289,8.032557 0,0 0,0 0.55679,0.878712 0.0735,2.227817 -0.96663,2.698211 -4.71722,1.002862 -2.15369,-1.287031 -4.7907,-1.224956 -6.3876,-1.633275 -3.677112,0.532468 -4.643743,3.230679 -0.89315,4.926028 2.71048,2.165743 7.50118,3.390699 10.76845,6.435153 0.70375,5.3343467 -1.37647,6.2751334 -6.72396,4.171466 -1.5969,-0.408319 -3.1938,-0.816638 -3.1938,-0.816638 -2.637003,0.06208 -3.677111,0.532468 -3.603635,2.7602856 0.07348,2.2278174 1.18706,3.9852413 4.380855,4.8018786 7.42771,1.1628812 9.02461,1.5711998 7.64814,7.8463331 0,0 -0.48332,1.3491053 -0.48332,1.3491053 -0.40984,3.5769227 -2.49005,4.5177094 -7.28075,3.2927535 -1.5969,-0.4083187 -2.637008,0.062075 -3.1938,-0.8166373 -2.153691,-1.2870306 -3.677114,0.5324681 -2.563531,2.2898922 0.556792,0.878712 1.670376,2.636136 2.78396,4.39356 2.153691,1.28703 5.347491,2.103668 7.501181,3.390698 0,0 0.55679,0.878712 0.55679,0.878712 0.63027,3.106529 -1.37647,6.275133 -5.61038,5.92889 -2.637003,0.06207 -4.717218,1.002861 -7.354225,1.064936 -1.040107,0.470393 -1.040107,0.470393 -2.637007,0.06207 1.743852,4.863954 1.743852,4.863954 7.574658,5.618516 1.596904,0.408319 3.750594,1.695349 3.267274,3.044455 2.78396,4.39356 -0.81968,7.153845 -5.053585,6.807601 -5.830806,-0.754562 -8.394337,1.53533 -6.650485,6.399283 4.233907,0.346244 6.870914,0.284169 12.14493,0.16002 -0.96663,2.69821 -1.37647,6.275133 -2.899897,8.094632 -2.006739,3.168604 -6.797437,1.943648 -9.434444,2.005722 -2.637007,0.06208 -3.603639,2.760286 -2.490055,4.51771 0.556792,0.878712 3.750591,1.695349 5.34749,2.103668 3.193799,0.816637 5.830806,0.754562 7.427706,1.162881 0,0 0.55679,0.878712 0.55679,0.878712 -2.080213,0.940787 -4.160429,1.881573 -6.240644,2.82236 -1.040107,0.470393 -4.233906,-0.346244 -5.830806,-0.754563 -4.233906,-0.346244 -5.274014,0.12415 -4.086954,4.109391 0.630268,3.106529 4.307383,2.574061 5.904282,2.98238 1.596899,0.408319 4.233907,0.346244 5.274014,-0.124149 1.18706,3.985241 -0.336363,5.804739 -4.013478,6.337208 -3.677115,0.532468 -6.314122,0.594542 -9.991236,1.12701 -2.637007,0.06208 -2.563531,2.289892 -2.006739,3.168604 0.556791,0.878712 2.710483,2.165743 3.267275,3.044455 3.193799,0.816637 5.830806,0.754563 9.024605,1.5712 -1.523424,1.819498 -0.893156,4.926028 -2.973371,5.866814 -2.080215,0.940787 -6.314122,0.594543 -8.951129,0.656618 -4.233906,-0.346244 -5.274014,0.124149 -4.086954,4.109391 0.630268,3.10653 3.267275,3.04445 5.420966,4.33148 2.637007,-0.0621 4.233907,0.34625 6.870914,0.28417 0.703744,5.33435 -0.262887,8.03256 -4.496794,7.68632 -2.637007,0.0621 -3.677115,0.53246 -6.314122,0.59454 -3.193799,-0.81664 -2.080215,0.94079 -2.006739,3.1686 0.07348,2.22782 1.113584,1.75743 2.710484,2.16575 3.193799,0.81663 6.387597,1.63327 6.944389,2.51198 0.556792,0.87871 1.670376,2.63614 1.18706,3.98524 1.18706,3.98524 -0.336363,5.80474 -5.610377,5.92889 0,0 -1.5969,-0.40832 -1.5969,-0.40832 -5.830806,-0.75456 -6.314122,0.59455 -4.57027,5.4585 1.5969,0.40832 2.637007,-0.0621 3.193799,0.81664 6.870914,0.28417 9.581397,2.44991 10.358617,10.01207 0.556792,0.87872 0.07348,2.22782 1.18706,3.98524 7.238294,11.42326 12.396378,23.7873 13.320548,35.8051 0.22043,6.68345 0.92417,12.0178 2.18471,18.23086 0.55679,0.87871 1.11358,1.75742 1.67037,2.63613 1.04011,-0.47039 2.08022,-0.94078 1.52343,-1.81949 -0.0735,-2.22782 -0.14696,-4.45564 -0.77722,-7.56217 -0.22043,-6.68345 -0.44086,-13.3669 -0.66129,-20.05035 -0.22043,-6.68346 -2.52107,-12.42612 -6.97541,-19.45582 -4.454332,-7.02969 -6.27166,-14.12146 -8.088988,-21.21323 -0.556792,-0.87872 0.483316,-1.34911 1.523424,-1.8195 1.040107,-0.4704 2.637007,-0.0621 4.233906,0.34624 2.637008,-0.0621 4.717218,-1.00286 4.643748,-3.23068 0.48331,-1.3491 -1.67038,-2.63613 -2.783961,-4.39356 -3.677115,0.53247 -5.274014,0.12415 -8.394337,1.53533 -0.07348,-2.22782 -0.630268,-3.10653 -0.146952,-4.45563 0.483315,-1.34911 0.409839,-3.57693 2.490055,-4.51771 1.040107,-0.4704 2.637007,-0.0621 4.233906,0.34624 3.193799,0.81664 4.717219,-1.00286 5.757329,-1.47325 1.04011,-0.4704 -0.0735,-2.22782 -0.0735,-2.22782 -1.11358,-1.75742 -4.307378,-2.57406 -6.944385,-2.51199 -2.637007,0.0621 -3.750591,-1.69535 -3.267275,-3.04445 -0.07348,-2.22782 0.893155,-4.92603 1.302995,-8.50295 2.153691,1.28703 2.710483,2.16574 3.267275,3.04445 1.596899,0.40832 3.26728,3.04446 4.30738,2.57406 1.04011,-0.47039 3.12033,-1.41118 3.60364,-2.76028 0,0 -1.67037,-2.63614 -3.82407,-3.92317 -0.55679,-0.87871 -3.193795,-0.81664 -3.750587,-1.69535 -1.596899,-0.40832 -2.710483,-2.16574 -2.710483,-2.16574 0.966632,-2.698209 1.449947,-4.047315 2.416579,-6.745525 2.153691,1.28703 3.267271,3.044454 3.824071,3.923166 2.15369,1.287031 5.34749,2.103668 5.8308,0.754563 2.00674,-3.168604 -0.22043,-6.683452 -6.05123,-7.438015 -1.596902,-0.408318 -3.193802,-0.816637 -4.790701,-1.224956 0.40984,-3.576922 -1.334012,-8.440876 2.269626,-11.201161 0.556792,0.878712 1.113585,1.757424 1.113585,1.757424 2.15369,1.287031 4.30738,2.574061 6.94439,2.511987 0,0 1.52342,-1.819499 0.96663,-2.698211 -1.11358,-1.757424 -3.26727,-3.044455 -5.42097,-4.331485 -2.15369,-1.287031 -6.387594,-1.633275 -5.977754,-5.210197 -0.07348,-2.227818 2.006739,-3.168604 2.97337,-5.866815 0,0 0,0 1.596904,0.408319 1.18706,3.985241 4.38085,4.801878 7.01786,4.739803 1.5969,0.408319 3.12032,-1.41118 3.60364,-2.760285 0.48332,-1.349105 -2.22717,-3.514848 -3.82407,-3.923167 -1.5969,-0.408318 -4.2339,-0.346243 -5.27401,0.12415 -1.04011,0.470393 -1.5969,-0.408319 -2.15369,-1.287031 0,0 -0.55679,-0.878712 -0.0735,-2.227817 0.48332,-1.349105 0.96663,-2.698211 0.40984,-3.576923 0.96663,-2.69821 -0.22043,-6.683452 3.45669,-7.21592 0.55679,0.878712 0.55679,0.878712 1.11358,1.757424 2.22717,3.514848 4.38086,4.801879 8.05797,4.269411 3.67712,-0.532468 2.00674,-3.168604 2.49006,-4.51771 -0.63027,-3.106529 -2.78396,-4.39356 -5.42097,-4.331485 -1.5969,-0.408318 -1.5969,-0.408318 -3.1938,-0.816637 -2.637,0.06208 -3.75059,-1.695349 -3.82406,-3.923167 -0.22043,-6.683452 -0.22043,-6.683452 7.20727,-5.52057 3.1938,0.816637 6.31413,-0.594543 5.20054,-2.351967 -1.18706,-3.985241 -1.18706,-3.985241 -6.46107,-3.861092 -2.63701,0.06208 -3.1938,-0.816637 -3.26728,-3.044455 -0.0735,-2.227817 0.89316,-4.926027 0.81968,-7.153845 0.48332,-1.349105 0.96663,-2.69821 2.49006,-4.517709 4.38086,4.801878 8.13145,6.497228 10.69498,4.207336 1.04011,-0.470394 3.04684,-3.638998 1.44994,-4.047316 -3.82406,-3.923167 -7.50118,-3.390699 -11.66161,-1.509125 -0.63027,-3.10653 -1.74385,-4.8639537 -1.81733,-7.091771 0.40984,-3.5769227 0.81968,-7.15384532 3.94001,-8.5650254 1.11358,1.75742399 1.18706,3.9852413 3.34075,5.2722719 2.71048,2.1657426 5.90428,2.9823799 9.0246,1.5711998 1.04011,-0.4703933 2.56353,-2.289892 0.33637,-5.8047399 -3.26728,-3.0444546 -6.46108,-3.8610919 -7.9845,-2.0415932 -1.04011,0.4703934 -2.08022,0.9407867 -3.12032,1.4111801 -3.82407,-3.9231666 -1.81733,-7.0917706 -1.40749,-10.6686933 -0.55679,-0.878712 2.08021,-0.940787 2.56353,-2.289892 2.22717,3.514848 3.34075,5.2722719 9.09808,3.799017 1.5969,0.408319 3.60364,-2.760285 3.04685,-3.638997 -1.18706,-3.985241 -4.86418,-3.452773 -8.61477,-5.148123 -0.22043,-6.683452 -1.26053,-6.213058 -2.30064,-5.742665 z M -16.496166,31.127921 c -4.117971,-12.834436 -5.598936,-25.730946 -8.120008,-38.1570632 2.153692,1.2870306 4.864175,3.4527732 5.904283,2.9823799 2.080215,-0.9407867 3.603638,-2.7602854 5.127061,-4.5797841 0,0 -2.783959,-4.3935596 -3.824067,-3.9231666 -2.080215,0.940787 -5.200538,2.351967 -8.32086,3.7631469 -0.556792,-0.878712 -1.113584,-1.7574239 -1.670376,-2.6361359 -0.77722,-7.562164 -2.594548,-14.653935 -3.371768,-22.216098 -2.521072,-12.426118 -4.002037,-25.322628 -6.523109,-37.748745 -1.334012,-8.440876 -1.627917,-17.352145 -3.518721,-26.671733 -0.703744,-5.334342 -1.96428,-11.547402 -2.668024,-16.881752 -1.260536,-6.21306 0.115935,-12.48819 -0.587809,-17.82254 -1.890804,-9.31959 -2.184709,-18.23086 -0.881714,-26.73381 0,0 -1.113584,-1.75742 -1.670375,-2.63613 -1.040108,0.47039 -2.637008,0.0621 -3.677115,0.53247 -0.483316,1.3491 -2.006739,3.1686 -1.933263,5.39642 -0.483316,1.3491 -0.40984,3.57692 0.703744,5.33434 2.783959,4.39356 2.37412,7.97049 1.407488,10.6687 -2.97337,5.86681 -2.752942,12.55026 -2.532513,19.23372 0.293904,8.91126 2.184708,18.23085 4.075512,27.55044 2.594549,14.653935 3.592197,28.899551 6.186745,43.553485 1.407489,10.668693 2.814977,21.337387 5.819365,32.414398 2.447596,10.1983003 4.895192,20.3966002 7.342788,30.5949 3.15134,15.532646 5.819364,32.414398 7.930596,48.417438 2.037757,13.775223 5.115621,27.080052 7.153377,40.855279 0.703744,5.33434 0.367381,11.13908 -2.122674,15.65679 -2.416579,6.74553 -4.833158,13.49105 -5.652837,20.6449 -1.229518,10.73077 0.17797,21.39946 3.182358,32.47647 0.07348,2.22782 1.743851,4.86396 3.971019,8.3788 3.603638,-2.76028 3.530162,-4.9881 2.343102,-8.97334 -2.783959,-4.39356 -1.260536,-6.21306 3.4566866,-7.21592 1.0401076,-0.47039 2.0802152,-0.94079 2.5635309,-2.28989 -1.5968995,-0.40832 -2.7104832,-2.16574 -4.3073825,-2.57406 -1.5969,-0.40832 -2.637007,0.0621 -4.233907,-0.34625 0.40984,-3.57692 1.376471,-6.27513 -0.850696,-9.78998 -1.817328,-7.09177 0.115935,-12.48819 1.492406,-18.76332 1.933263,-5.39643 3.866526,-10.79285 4.202889,-16.59759 0.8931556,-4.92602 0.8931556,-4.92602 7.2072773,-5.52057 0,0 0,0 1.0401076,-0.47039 1.04010759,-0.47039 1.52342332,-1.8195 2.00673905,-3.1686 -0.55679187,-0.87872 -1.67037565,-2.63614 -3.26727505,-3.04446 -1.5968995,-0.40832 -3.6771147,0.53247 -4.7172223,1.00286 -0.630268,-3.106527 -0.2204284,-6.68345 -0.2939046,-8.911267 5.8308061,0.754563 9.5079207,0.222095 8.87765271,-2.884435 -0.70374415,-5.334346 -5.42096641,-4.331485 -9.65487291,-4.677729 -0.073476,-2.227817 -0.7037442,-5.334346 -0.7772203,-7.562164 6.8709136,0.28417 8.3943369,-1.535329 4.57027,-5.458496 -2.0802152,0.940787 -3.1203228,1.41118 -6.2406455,2.82236 -0.630268,-3.106529 -0.220429,-6.683452 -1.407488,-10.668693 4.8641741,3.452773 6.3875974,1.633275 6.8709132,0.284169 1.0401076,-0.470393 1.5234233,-1.819498 2.006739,-3.168604 -0.5567918,-0.878712 -2.7104832,-2.165742 -2.7104832,-2.165742 -1.0401076,0.470393 -3.1203228,1.41118 -3.603639,2.760285 -1.040107,0.470394 -1.523423,1.819499 -2.006739,3.168604 -2.300643,-5.742665 -2.447595,-10.1983 -0.997648,-14.245616 0.556792,0.878712 2.710483,2.165743 3.2672748,3.044455 1.0401076,-0.470393 2.5635309,-2.289892 3.0468467,-3.638997 0,0 -1.6703757,-2.636136 -2.2271675,-3.514848 -2.153691,-1.287031 -5.274014,0.124149 -4.643746,3.230678 -3.750591,-1.695349 -4.380859,-4.801878 -3.897543,-6.150983 0.483315,-1.349106 1.523423,-1.819499 3.603638,-2.760286 1.040108,-0.470393 3.120323,-1.41118 4.1604307,-1.881573 1.0401076,-0.470394 -0.073476,-2.227818 -0.6302677,-3.10653 -1.5969,-0.408318 -3.193799,-0.816637 -4.233907,-0.346243 -1.040107,0.470393 -2.563531,2.289892 -4.643746,3.230678 -1.113584,-1.757424 -1.670376,-2.636136 -1.18706,-3.985241 3.193799,0.816637 3.120323,-1.41118 4.086954,-4.109391 2.153692,1.287031 3.824067,3.923167 6.9443901,2.511987 2.0802152,-0.940787 4.7172223,-1.002862 4.0869543,-4.109391 -0.5567919,-0.878712 -0.5567919,-0.878712 -1.1135837,-1.757424 -2.7104833,-2.165742 -6.3875977,-1.633274 -7.9110217,0.186224 -1.523423,1.819499 -2.006739,3.168604 -2.006739,3.168604 z m -69.69865,63.17619 c -2.710484,-2.165742 -3.340752,-5.272271 -2.37412,-7.970482 0.483316,-1.349105 0.409839,-3.576923 -0.146952,-4.455635 -1.964281,-11.547405 -4.411877,-21.745705 -6.376157,-33.29311 -0.630268,-3.106529 -1.260536,-6.213059 -0.850696,-9.789981 0.893155,-4.926028 0.893155,-4.926028 -5.977759,-5.210197 0.77722,7.562164 0.51433,15.594721 1.29155,23.156885 0.777224,7.562164 2.111236,16.00304 3.928564,23.09481 1.334012,8.440876 3.224816,17.760464 4.558828,26.201339 3.077864,13.30483 5.115621,27.08005 5.556478,40.44696 -0.336364,5.80474 -0.115935,12.48819 2.184708,18.23085 0.07348,2.22782 1.18706,3.98524 3.824067,3.92317 0.40984,-3.57692 0.336364,-5.80474 0.746203,-9.38166 -0.77722,-7.56217 -1.071125,-16.47344 -0.808237,-24.50599 -0.07348,-2.22782 0.966631,-2.69821 2.563531,-2.2899 4.790698,1.22496 5.757329,-1.47325 6.167169,-5.05017 -2.637007,0.0621 -3.677115,0.53247 -5.75733,1.47325 -1.040107,0.4704 -2.080215,0.94079 -3.120323,1.41118 -0.556792,-0.87871 -1.670375,-2.63613 -1.18706,-3.98524 -1.334012,-8.44087 -3.224816,-17.76046 -4.558828,-26.20134 -0.630268,-3.106528 -0.703744,-5.334345 0.336364,-5.804739 2.153691,1.287031 4.864174,3.452774 6.387597,1.633275 1.523424,-1.819499 0.40984,-3.576923 -2.300643,-5.742665 -1.040108,0.470393 -2.563531,2.289892 -4.086954,4.10939 z M 137.22595,-269.02041 c 0.55679,0.87871 1.11358,1.75742 1.67037,2.63613 6.53455,6.08891 12.02899,12.64821 18.56354,18.73712 11.39873,9.54169 16.00002,21.02702 21.1581,33.39106 16.66129,41.07737 29.64548,82.6872 38.39575,123.950796 6.15573,26.609659 10.71456,52.810998 9.99937,79.136487 0.29391,8.9112696 -1.00909,17.4142202 -1.27198,25.446777 -1.60834,31.251518 -4.81358,62.094716 -6.42192,93.34623 -0.18941,10.26038 1.21808,20.92907 3.66567,31.12737 4.8952,20.3966 8.75028,41.26359 12.60536,62.13059 2.52108,12.42611 2.96193,25.79302 3.88611,37.81082 0.14695,4.45563 -1.85979,7.62423 -2.26963,11.20116 -4.42332,9.91413 -9.88674,20.29865 -19.17424,26.76001 -2.08021,0.94079 -4.16043,1.88157 -5.20053,2.35197 -3.12033,1.41118 -6.79744,1.94364 -9.36097,4.23354 -10.40108,4.70393 -22.54601,4.54391 -34.76441,2.15607 -22.83991,-4.36735 -45.67982,-8.73471 -69.076516,-13.98078 -5.830806,-0.75456 -10.064713,-1.1008 -15.265251,1.25116 -6.240646,2.82236 -14.078191,5.23641 -22.472528,6.77174 -3.677114,0.53246 -9.50792,-0.2221 -13.258511,-1.91745 -23.953492,-6.12478 -47.90698424,-12.24956 -72.343792,-17.02523 -11.178296,-2.85823 -21.169533,-1.73122 -31.160769,-0.60421 -12.071452,2.0678 -25.329963,0.15035 -38.178635,-5.34401 -9.098078,-3.79902 -18.752958,-8.47675 -26.810928,-12.74616 -8.61477,-5.14812 -11.39872,-9.54168 -7.38525,-15.87889 5.94674,-11.73363 12.45028,-22.58855 18.95381,-33.44346 7.54364,-11.32531 10.296583,-23.87558 9.298935,-38.1212 -2.552085,-29.36994 -5.587495,-57.390778 -8.139585,-86.760722 -3.25583,-34.70429 -7.06846,-70.2872924 -11.92119,-105.399901 -2.18471,-18.230857 -3.81263,-35.583003 -2.80354,-52.997222 0.78867,-24.097675 7.48161,-45.212965 13.61776,-67.206965 8.06942,-27.39043 18.849316,-52.61511 31.226114,-77.43147 3.456686,-7.21592 9.067064,-13.14481 12.52375,-20.36073 1.040107,-0.4704 0.483316,-1.34911 -0.07348,-2.22782 3.603638,-2.76029 7.690593,-6.86968 11.294231,-9.62996 1.040108,-0.4704 2.637007,-0.0621 3.677115,-0.53247 3.120323,-1.41118 5.683853,-3.70107 8.247384,-5.99097 11.367708,-7.40214 22.735415,-14.80428 35.2167065,-20.449 19.2052525,-9.81619 42.3080485,-13.48139 70.4954465,-7.01037 12.218404,2.38784 23.953492,6.12478 35.205265,11.21083 10.694988,4.20734 21.389968,8.41467 30.634998,16.66932 0.55679,0.87871 1.5969,0.40832 3.1938,0.81664 1.11358,1.75742 2.22717,3.51485 3.82407,3.92317 z"
     inkscape:connector-curvature="0" /><path
     style="fill:#ffffff;stroke-width:1"
     id="path11"
     d="m 132.91856,-271.59447 c -1.5969,-0.40832 -2.637,0.0621 -3.1938,-0.81664 -8.68824,-7.37594 -19.38322,-11.58328 -30.63499,-16.66933 -11.251772,-5.08604 -22.986861,-8.82299 -35.205264,-11.21082 -28.187399,-6.47103 -49.693295,-2.39751 -70.4954472,7.01036 -12.4812908,5.64472 -23.2922068,13.92558 -35.2167058,20.44901 -3.120323,1.41118 -5.683854,3.70107 -8.247385,5.99096 -1.040108,0.4704 -2.080215,0.94079 -3.677115,0.53247 32.359271,-27.07038 66.315441,-53.73245 98.674712,-80.80284 30.372107,24.70188 59.704105,49.87416 87.995995,75.51683 z"
     inkscape:connector-curvature="0" /><path
     style="fill:#ffffff;stroke-width:1"
     id="path13"
     d="m 113.5483,-10.727421 c -3.12032,1.4111801 -3.53016,4.9881027 -3.94,8.5650254 0.0735,2.22781726 1.18706,3.9852412 1.81733,7.0917705 3.60364,-2.7602854 7.83754,-2.4140415 11.66161,1.5091251 0.55679,0.878712 -0.40984,3.576923 -1.44995,4.047316 -3.12032,1.41118 -6.31412,0.594543 -10.69498,-4.2073358 -0.48331,1.3491054 -2.00674,3.1686041 -2.49005,4.5177098 -0.96663,2.69821 -0.89316,4.926028 -0.81968,7.153845 0.0735,2.227817 1.67037,2.636136 3.26727,3.044454 5.27402,-0.124149 5.27402,-0.124149 6.46108,3.861092 0.0735,2.227818 -2.00674,3.168604 -5.20054,2.351967 -7.42771,-1.162881 -7.42771,-1.162881 -7.20728,5.520571 0.0735,2.227817 1.18706,3.985241 3.82407,3.923166 1.04011,-0.470393 1.5969,0.408319 3.1938,0.816638 3.1938,0.816637 5.34749,2.103667 5.42096,4.331485 0.0735,2.227817 1.18706,3.985241 -2.49005,4.517709 -3.67712,0.532468 -6.3876,-1.633274 -8.05797,-4.26941 0,0 -0.5568,-0.878712 -1.11359,-1.757424 -4.71722,1.002861 -3.53016,4.988102 -3.45668,7.21592 -0.48332,1.349105 -0.96664,2.69821 -0.40984,3.576922 0,0 -0.48332,1.349106 0.0735,2.227818 0.55679,0.878712 1.5969,0.408318 2.15369,1.28703 1.5969,0.408319 3.67712,-0.532468 5.27402,-0.124149 1.5969,0.408318 4.30738,2.574061 3.82406,3.923166 -0.48331,1.349106 -2.00673,3.168604 -3.60363,2.760286 -2.63701,0.06207 -6.87092,-0.284169 -7.01787,-4.739804 0,0 0,0 -1.5969,-0.408319 -1.523422,1.819499 -2.006738,3.168604 -2.97337,5.866815 -0.409839,3.576923 3.82407,3.923167 5.97776,5.210197 3.26727,3.044455 5.42097,4.331485 6.53455,6.088909 0.55679,0.878712 -0.96663,2.698211 -0.96663,2.698211 -1.5969,-0.408319 -4.7907,-1.224956 -6.94439,-2.511987 0,0 -0.55679,-0.878712 -1.11359,-1.757424 -3.603635,2.760286 -1.859783,7.624239 -2.269622,11.201162 1.596902,0.408318 3.193802,0.816637 4.790702,1.224956 4.79069,1.224956 8.05797,4.26941 6.05123,7.438014 -1.52342,1.819499 -3.67711,0.532468 -5.83081,-0.754562 -0.55679,-0.878712 -2.15369,-1.287031 -3.82406,-3.923167 -0.966634,2.698211 -2.490057,4.517709 -2.416581,6.745527 0,0 1.113584,1.757424 2.710481,2.165742 1.5969,0.408319 3.1938,0.816637 3.75059,1.695349 2.15369,1.287031 3.26728,3.044455 3.82407,3.923165 -0.48332,1.34911 -2.56353,2.28989 -3.60364,2.76029 -1.04011,0.47039 -2.71048,-2.16575 -4.30738,-2.57406 -0.556793,-0.87872 -2.153693,-1.28703 -3.267276,-3.044458 -0.40984,3.576918 -0.336364,5.804738 -1.302995,8.502948 -2.006739,3.16861 -0.893156,4.92603 1.187059,3.98524 2.637008,-0.0621 4.233912,0.34625 6.944392,2.51199 0.55679,0.87871 0.0735,2.22782 0.0735,2.22782 -2.08021,0.94078 -2.00673,3.1686 -5.757325,1.47325 -1.5969,-0.40832 -3.750591,-1.69535 -4.233907,-0.34624 -1.040108,0.47039 -2.006739,3.1686 -2.490055,4.51771 -0.483316,1.3491 0.630268,3.10653 0.146952,4.45563 2.637008,-0.0621 4.717223,-1.00286 8.394335,-1.53533 0.55679,0.87871 1.67038,2.63614 2.78396,4.39356 0.0735,2.22782 -2.00674,3.16861 -4.643744,3.23068 -1.5969,-0.40832 -2.637007,0.0621 -4.233907,-0.34624 -1.040108,0.47039 -2.080215,0.94078 -1.523423,1.8195 1.817328,7.09177 2.594548,14.65393 8.088994,21.21323 3.89754,6.15099 6.75498,12.77236 6.9754,19.45582 0.22043,6.68345 0.44086,13.3669 0.66129,20.05035 0.0735,2.22782 0.70374,5.33435 0.77722,7.56217 0.55679,0.87871 -2.08022,0.94078 -1.52342,1.81949 -0.5568,-0.87871 -1.11359,-1.75742 -1.67038,-2.63613 -1.26054,-6.21306 -0.92417,-12.0178 -2.18471,-18.23086 -0.92417,-12.0178 -6.08225,-24.38184 -13.320544,-35.8051 -0.556792,-0.87871 -1.670376,-2.63613 -1.18706,-3.98524 -0.777221,-7.56216 -2.930912,-8.84919 -10.358617,-10.01207 -1.5969,-0.40832 -2.637008,0.0621 -3.193799,-0.81664 -2.300644,-5.74266 -1.260536,-6.21306 4.57027,-5.4585 0,0 1.596899,0.40832 1.596899,0.40832 5.274014,-0.12415 6.797438,-1.94365 5.610378,-5.92889 -0.556792,-0.87871 -1.670376,-2.63613 -1.18706,-3.98524 -1.5969,-0.40832 -4.790699,-1.22495 -6.94439,-2.51198 -1.596899,-0.40832 -3.193799,-0.81664 -2.710483,-2.16575 0.483316,-1.3491 -0.630268,-3.10653 2.006739,-3.1686 1.596899,0.40832 3.677115,-0.53247 6.314122,-0.59454 4.233906,0.34624 6.240645,-2.82236 4.496793,-7.68632 -2.637007,0.0621 -4.233906,-0.34624 -6.870913,-0.28417 -2.637007,0.0621 -4.790699,-1.224952 -5.420967,-4.331481 -0.630268,-3.10653 0.40984,-3.576923 4.086955,-4.109391 -0.483316,1.349105 2.710483,2.165743 4.790698,1.224956 2.080215,-0.940787 2.006739,-3.168604 2.973371,-5.866815 -3.193799,-0.816637 -6.387598,-1.633274 -9.024605,-1.5712 -1.5969,-0.408318 -2.153692,-1.28703 -2.710484,-2.165742 -1.113583,-1.757424 -0.630268,-3.106529 2.00674,-3.168604 2.637007,-0.06208 6.314121,-0.594543 9.991236,-1.127011 3.677115,-0.532468 5.200538,-2.351967 4.013478,-6.337208 -1.596899,-0.408319 -4.233906,-0.346244 -5.274014,0.124149 -2.637007,0.06208 -5.274014,0.12415 -5.904282,-2.982379 -1.18706,-3.985242 -0.146953,-4.455635 4.086954,-4.109391 1.596899,0.408318 4.233907,0.346244 5.830806,0.754562 2.080215,-0.940786 4.16043,-1.881573 6.240646,-2.82236 0,0 -0.556792,-0.878712 -0.556792,-0.878712 -2.637007,0.06208 -5.830806,-0.754562 -7.427706,-1.162881 -1.596899,-0.408319 -4.233906,-0.346244 -5.34749,-2.103668 -1.113584,-1.757424 0.893155,-4.926028 2.490055,-4.517709 3.677114,-0.532468 8.467813,0.692488 9.434444,-2.005723 1.523424,-1.819499 1.933263,-5.396421 2.899895,-8.094632 -4.233907,-0.346244 -8.467813,-0.692488 -12.144928,-0.16002 -2.300644,-5.742665 0.262887,-8.032557 6.650485,-6.399282 4.790699,1.224955 7.83755,-2.414042 5.053586,-6.807602 -0.556792,-0.878712 -2.710483,-2.165742 -3.267275,-3.044454 -6.387598,-1.633275 -6.387598,-1.633275 -7.574658,-5.618516 1.040108,-0.470393 1.040108,-0.470393 2.637007,-0.06208 2.637007,-0.06208 4.717222,-1.002861 7.354229,-1.064936 3.677111,-0.532468 6.240651,-2.82236 5.610381,-5.928889 0,0 -0.55679,-0.878712 -0.55679,-0.878712 -2.1537,-1.287031 -5.347495,-2.103668 -7.501186,-3.390699 -1.5969,-0.408318 -2.710484,-2.1657424 -2.78396,-4.3935597 -1.113584,-1.757424 0.966632,-2.6982107 2.563531,-2.2898921 1.5969,0.4083187 2.153691,1.2870306 3.193799,0.8166373 4.233906,0.3462439 6.314126,-0.5945428 7.280756,-3.2927535 0,0 1.0401,-0.4703933 0.48331,-1.3491053 0.33637,-5.8047399 -0.77722,-7.5621639 -7.648131,-7.8463331 -3.193799,-0.8166373 -4.307383,-2.5740612 -4.380859,-4.8018786 -0.07348,-2.227817 0.40984,-3.576923 3.603639,-2.760285 1.596899,0.408318 2.637011,-0.06207 3.193801,0.816637 6.94439,2.511986 8.46781,0.692488 6.72396,-4.171465 -3.75059,-1.69535 -8.057974,-4.269411 -10.768458,-6.435154 -2.710483,-2.165742 -2.300643,-5.742665 0.893156,-4.926027 2.637002,-0.06208 4.233902,0.346243 6.387602,1.633274 3.75059,1.695349 4.79069,1.224956 4.71722,-1.002861 0,0 0,0 -0.55679,-0.878712 -0.0735,-2.227818 1.93326,-5.396422 0.26288,-8.032558 -1.11358,-1.757424 -5.34749,-2.103668 -8.05797,-4.26941 -1.5969,-0.408319 -2.227168,-3.514848 -2.78396,-4.39356 -0.556791,-0.878712 1.523424,-1.819499 3.12032,-1.41118 3.1938,0.816637 6.3876,1.633274 8.46782,0.692488 1.52342,-1.819499 1.44994,-4.047316 2.97337,-5.866815 0,0 0,0 0.48331,-1.349105 -5.27401,0.124149 -8.46781,-0.692488 -12.77519,-3.266549 -1.596903,-0.408319 -2.710486,-2.165743 -3.267278,-3.044455 0.483315,-1.349105 2.006739,-3.168604 3.046848,-3.638997 1.04011,-0.470394 4.2339,0.346244 5.8308,0.754562 4.7907,1.224956 6.87092,0.28417 7.28076,-3.292753 0.40984,-3.576923 -0.70375,-5.334347 -5.49444,-6.559303 -1.5969,-0.408318 -3.7506,-1.695349 -5.90429,-2.982379 -0.55679,-0.878712 -1.67037,-2.636136 -2.227165,-3.514848 0.483315,-1.349106 1.523425,-1.819499 4.160435,-1.881574 2.637,-0.06207 4.2339,0.346244 5.8308,0.754563 4.23391,0.346244 5.27402,-0.12415 5.12706,-4.579784 -0.0735,-2.227818 -0.14695,-4.455635 -4.93765,-5.680591 -1.5969,-0.408318 -3.1938,-0.816637 -4.7907,-1.224956 -1.59689,-0.408318 -2.78395,-4.39356 -2.30064,-5.742665 0,0 1.04011,-0.470393 1.04011,-0.470393 2.63701,-0.06207 5.8308,0.754562 7.4277,1.162881 2.63701,-0.06208 5.61038,-5.928891 3.94001,-8.565031 -0.5568,-0.87871 -1.67038,-2.63614 -2.71049,-2.16574 -2.637,0.0621 -5.8308,-0.75456 -8.54129,-2.92031 -2.15369,-1.28703 -2.71048,-2.16574 -3.82406,-3.92316 2.08021,-0.94079 2.56353,-2.2899 4.64374,-3.23068 1.5969,0.40832 4.7907,1.22495 6.94439,2.51198 1.5969,0.40832 2.63701,-0.0621 3.67712,-0.53246 3.04684,-3.639 0.26288,-8.03256 -6.12471,-9.66584 -1.5969,-0.40831 -1.5969,-0.40831 -2.15369,-1.28703 -3.7506,-1.69535 -4.86418,-3.45277 -3.89755,-6.15098 1.52343,-1.8195 3.67712,-0.53247 6.31412,-0.59454 1.5969,0.40832 4.7907,1.22495 4.7907,1.22495 2.08022,-0.94077 2.00674,-3.1686 1.93327,-5.39642 0,0 -1.11359,-1.75742 -2.1537,-1.28702 -7.4277,-1.16288 -9.58139,-2.44991 -12.92214,-7.72219 1.0401,-0.4704 1.52342,-1.8195 2.56353,-2.28989 3.1938,0.81663 5.34749,2.10366 7.98449,2.04159 1.5969,0.40832 2.63701,-0.0621 3.67712,-0.53246 0.48331,-1.34911 0.40984,-3.57692 0.33636,-5.80475 0,0 -2.15369,-1.28702 -3.75059,-1.69534 -4.23391,-0.34624 -6.46107,-3.86109 -9.17156,-6.02683 0,0 -0.0735,-2.22782 -0.0735,-2.22782 1.04011,-0.4704 2.08021,-0.94079 3.67711,-0.53247 1.5969,0.40832 3.75059,1.69535 4.7907,1.22496 1.5969,0.40832 3.67712,-0.53247 4.16043,-1.88158 -0.0735,-2.22781 -0.14695,-4.45564 -3.34075,-5.27227 -3.75059,-1.69535 -6.46107,-3.86109 -10.21166,-5.55644 -0.5568,-0.87872 -0.5568,-0.87872 -0.0735,-2.22782 2.08021,-0.94078 4.71722,-1.00286 5.75733,-1.47326 5.27401,-0.12414 6.31412,-0.59453 6.16717,-5.05018 -3.1938,-0.81664 -6.3876,-1.63327 -9.5814,-2.44991 -1.5969,-0.40832 -3.82407,-3.92317 -1.74385,-4.86394 2.08022,-0.94079 4.71722,-1.00287 6.79744,-1.94365 0,0 -0.55679,-0.87871 -0.55679,-0.87871 0.40984,-3.57694 -1.26054,-6.21307 -6.53455,-6.08891 -1.5969,-0.40832 -3.267279,-3.04446 -3.267279,-3.04446 0.483315,-1.3491 0.966631,-2.69821 3.046849,-3.63899 3.12032,-1.41118 4.08695,-4.1094 0.81968,-7.15385 -0.5568,-0.87872 -1.5969,-0.40832 -2.15369,-1.28703 -2.153696,-1.28703 -5.347495,-2.10367 -6.461079,-3.86109 -2.710483,-2.16575 -2.783959,-4.39356 0.893155,-4.92603 1.040108,-0.47039 2.637007,-0.0621 4.233907,0.34624 2.637007,-0.0621 3.120327,-1.41118 2.563527,-2.28989 -1.11358,-1.75742 -2.227164,-3.51485 -2.30064,-5.74266 -0.07348,-2.22782 -3.824067,-3.92317 -6.461074,-3.8611 -1.596899,-0.40831 -2.637007,0.0621 -3.750591,-1.69534 -1.113583,-1.75743 -0.07348,-2.22782 1.523424,-1.8195 2.080215,-0.94079 2.563531,-2.2899 0.893155,-4.92603 -0.556792,-0.87871 -1.670376,-2.63614 -1.18706,-3.98524 -3.193799,-0.81664 -5.34749,-2.10367 -9.581397,-2.44991 0,0 0.483316,-1.34911 0.483316,-1.34911 5.683854,-3.70107 2.343103,-8.97334 -0.997649,-14.24562 -2.227167,-3.51484 -2.857435,-6.62137 -5.084603,-10.13622 -0.556792,-0.87871 0.483316,-1.34911 0.966632,-2.69821 0.556792,0.87871 2.153691,1.28703 2.710483,2.16574 2.783959,4.39356 5.567919,8.78712 7.795086,12.30197 1.113584,1.75742 1.18706,3.98524 2.300644,5.74266 0.556792,0.87872 1.670375,2.63614 2.783959,4.39356 0,0 1.040108,-0.47039 1.5969,0.40832 0.483315,-1.3491 1.523423,-1.8195 2.006739,-3.1686 1.040107,-0.47039 1.523423,-1.8195 2.080215,-0.94079 1.596899,0.40832 4.233911,0.34625 5.347491,2.10367 -0.48332,1.3491 -2.00674,3.1686 -3.046847,3.639 -5.75733,1.47325 -5.75733,1.47325 -2.416579,6.74552 0.556792,0.87872 1.113584,1.75743 2.227167,3.51485 1.113589,1.75743 2.710479,2.16574 3.193799,0.81664 1.52342,-1.8195 3.12032,-1.41118 5.27401,-0.12415 0.5568,0.87871 1.67038,2.63614 2.22717,3.51485 1.67038,2.63613 -0.40984,3.57692 -1.44995,4.04731 -4.2339,-0.34624 -4.16043,1.88158 -2.49005,4.51771 1.67038,2.63614 3.89754,6.15099 5.56792,8.78712 1.04011,-0.47039 2.63701,-0.0621 3.67711,-0.53247 1.52343,-1.81949 4.23391,0.34625 4.7907,1.22496 0.55679,0.87871 0.63027,3.10653 -0.40984,3.57692 -1.04011,0.4704 -2.08021,0.94079 -3.12032,1.41118 -2.63701,0.0621 -3.12032,1.41118 -2.00674,3.16861 1.11358,1.75742 1.18706,3.98524 2.30064,5.74266 3.26728,3.04446 5.83081,0.75456 8.46782,0.69249 1.5969,0.40832 3.1938,0.81664 4.2339,0.34624 -0.48331,1.34911 0.63027,3.10653 -0.40984,3.57693 -1.0401,0.47039 -3.12032,1.41118 -5.20053,2.35196 -4.71723,1.00286 -5.61038,5.92889 -1.78631,9.85206 0.55679,0.87871 3.19379,0.81664 4.2339,0.34624 2.63701,-0.0621 5.27402,-0.12415 7.35423,-1.06493 0.22043,6.68345 -0.33636,5.80474 -5.5369,8.1567 -2.08022,0.94079 -5.83081,-0.75456 -4.64375,3.23068 1.74386,4.86396 1.18706,3.98524 7.01787,4.73981 2.63701,-0.0621 6.31412,-0.59455 7.50118,3.39069 0.55679,0.87872 0.0735,2.22782 0.0735,2.22782 -2.08022,0.94079 -5.20054,2.35197 -8.95113,0.65662 -1.5969,-0.40832 -2.63701,0.0621 -3.67712,0.53247 0.0735,2.22781 0.14696,4.45563 0.22043,6.68345 0,0 2.15369,1.28703 3.1938,0.81664 4.71722,-1.00286 7.91102,-0.18623 9.5814,2.44991 1.67037,2.63613 2.22717,3.51485 -1.44995,4.04731 -1.04011,0.4704 -2.08021,0.94079 -2.08021,0.94079 -2.63701,0.0621 -4.7907,-1.22495 -7.9845,-2.04159 0.0735,2.22782 -0.33637,5.80474 0.2939,8.91127 0,0 2.71049,2.16574 3.75059,1.69535 3.12033,-1.41118 8.46782,0.69248 10.69498,4.20733 1.11359,1.75743 -2.49005,4.51771 -5.68385,3.70107 -3.1938,-0.81663 -5.90428,-2.98238 -9.17156,-6.02683 0.0735,2.22782 -0.33636,5.80474 -1.30299,8.50295 -0.40984,3.57692 1.74385,4.86395 7.01786,4.7398 1.5969,0.40832 4.23391,0.34625 4.7907,1.22496 1.11359,1.75742 2.22717,3.51485 1.74385,4.86395 -0.48331,1.34911 -2.56353,2.2899 -4.16043,1.88158 -2.637,0.0621 -5.8308,-0.75457 -9.0246,-1.5712 -0.48332,1.3491 -0.40984,3.57692 -0.33636,5.80474 -0.40984,3.57692 1.74385,4.86395 5.42096,4.33148 1.5969,0.40832 4.7907,1.22496 5.90428,2.98238 2.71049,2.16574 0.14696,4.45564 -0.89315,4.92603 -1.04011,0.47039 -3.12032,1.41118 -6.3876,-1.63327 -1.11358,-1.75743 -2.71048,-2.16575 -5.42097,-4.33149 -0.40984,3.57692 -1.85978,7.62424 -1.22951,10.730763 0.0735,2.227818 0.63026,3.10653 3.82406,3.923167 3.67712,-0.532468 5.34749,2.103668 8.05798,4.26941 2.71048,2.165743 0.63026,3.10653 -1.44995,4.047316 -1.04011,0.470394 -2.63701,0.06207 -5.27402,0.12415 0,0 -0.55679,-0.878712 -0.55679,-0.878712 -2.15369,-1.287031 -3.34075,-5.272272 -5.90428,-2.98238 -3.60364,2.760285 -2.49005,4.517709 2.37412,7.970482 1.04011,-0.470393 1.52342,-1.819498 2.56353,-2.289892 2.71048,2.165743 5.42097,4.331486 6.53455,6.08891 -2.00674,3.168604 -6.24064,2.82236 -9.99123,1.12701 -1.5969,-0.408318 -4.23391,-0.346243 -5.27402,0.12415 0.0735,2.227817 0.14695,4.455635 1.26054,6.213058 0,0 1.5969,0.408319 1.5969,0.408319 1.5969,0.408319 4.2339,0.346244 5.8308,0.754563 1.5969,0.408318 2.63701,-0.06207 3.1938,0.816637 0.55679,0.878712 0.0735,2.227817 0.0735,2.227817 -1.44995,4.047316 -2.49006,4.51771 -8.39434,1.53533 -0.55679,-0.878712 -3.1938,-0.816638 -2.63701,0.06207 -1.0401,0.470394 -2.56353,2.289892 -3.04684,3.638998 0,0 0.55679,0.878712 1.67037,2.636136 3.1938,0.816637 4.23391,0.346244 6.87092,0.284169 2.637,-0.06208 4.79069,1.224956 5.42096,4.331485 0.0735,2.227817 -1.44994,4.047316 -4.64374,3.230679 -2.63701,0.06208 -4.7907,-1.224956 -7.9845,-2.041593 -0.96663,2.69821 -0.89316,4.926028 -1.85979,7.624238 0.55679,0.878712 0.0735,2.227818 1.11359,1.757424 0.55679,0.878712 1.5969,0.408319 3.1938,0.816638 1.59689,0.408318 3.67711,-0.532469 4.2339,0.346243 1.5969,0.408319 3.75059,1.69535 4.86418,3.452774 -1.52343,1.819498 -1.44995,4.047316 -4.64375,3.230678 -2.63701,0.06208 -5.34749,-2.103667 -8.54129,-2.920305 -2.00674,3.168604 -2.89989,8.094632 0.44086,13.366904 0,0 -0.48332,1.349105 -0.48332,1.349105 -1.04011,0.470394 -2.08021,0.940787 -2.56353,2.289892 -0.40984,3.576923 -2.41658,6.745527 0.36738,11.139087 1.04011,-0.470393 0,0 0,0 z"
     inkscape:connector-curvature="0" /><path
     style="fill:#ffffff;stroke-width:1"
     id="path15"
     d="m 124.33482,-259.79877 c 11.25177,5.08605 15.77958,14.34356 23.42771,22.18989 1.04011,-0.47039 3.12033,-1.41118 4.16043,-1.88157 2.08022,-0.94079 3.67712,-0.53247 5.34749,2.10367 2.71049,2.16574 1.18706,3.98524 0.14696,4.45563 -6.31413,0.59455 -3.04685,3.639 -1.85979,7.62424 2.08021,-0.94079 3.67711,-0.53247 5.75733,-1.47325 1.5969,0.40831 3.67711,-0.53247 5.34749,2.10366 1.67037,2.63614 -0.40984,3.57693 -2.49006,4.51771 -4.2339,-0.34624 -2.56353,2.2899 -2.49005,4.51771 1.74385,4.86396 6.05123,7.43802 10.76846,6.43516 0,0 1.5969,0.40831 1.5969,0.40831 0.55679,0.87872 1.11358,1.75743 1.67037,2.63614 0,0 -1.04011,0.47039 -1.52342,1.8195 -3.60364,2.76028 -4.08696,4.10939 -1.303,8.50295 1.11359,1.75742 2.78396,4.39356 3.89755,6.15098 2.78396,4.39356 3.82406,3.92317 8.54129,2.92031 -1.52343,1.8195 -3.60364,2.76028 -4.64375,3.23068 -0.48332,1.3491 -2.00674,3.1686 -1.44995,4.04731 6.60803,8.31673 7.94204,16.75761 11.91306,25.13641 5.64139,11.01493 7.04888,21.68363 9.49648,31.88193 3.15134,15.53264 6.78599,29.716185 8.34044,44.840512 3.56117,11.955724 3.92856,23.094811 4.29594,34.233897 -0.18941,10.260375 -0.37883,20.520749 -0.56824,30.781124 -0.7462,9.3816626 -1.00909,17.4142199 -2.31208,25.91717 -0.33637,5.80474 -1.22952,10.730768 -1.56588,16.535508 -0.26289,8.032558 -0.52578,16.065115 -0.78867,24.097672 -0.81968,7.153845 -2.19615,13.428979 -3.01583,20.582824 -1.78631,9.852056 -3.57262,19.704112 -5.91572,28.677453 -0.81968,7.15385 -3.23626,13.89937 -5.65284,20.6449 -1.93326,5.39642 -3.86652,10.79284 -6.83989,16.65966 -0.48332,1.3491 -0.96663,2.69821 -1.44995,4.04731 -0.48332,1.34911 -0.96663,2.69822 2.22717,3.51485 1.04011,-0.47039 1.5969,0.40832 3.1938,0.81664 -0.96663,2.69821 -2.56353,2.28989 -5.75733,1.47325 -1.5969,-0.40831 -2.63701,0.0621 -2.63701,0.0621 -2.89989,8.09463 -4.20289,16.59758 -0.71519,26.32549 2.30065,5.74266 5.15808,12.36404 7.45873,18.10671 0.55679,0.87871 1.67037,2.63613 2.22716,3.51484 1.67038,2.63614 1.74386,4.86396 -0.81968,7.15385 -3.89754,-6.15098 -7.23829,-11.42326 -10.57904,-16.69553 -2.30064,-5.74266 -3.56118,-11.95572 -5.86182,-17.69839 -1.81733,-7.09177 -0.99765,-14.24561 0.93561,-19.64203 1.93326,-5.39643 3.86653,-10.79285 5.79979,-16.18927 1.44995,-4.04731 3.38321,-9.44374 4.83316,-13.49105 2.3431,-8.97335 4.6862,-17.94669 7.0293,-26.920034 1.78631,-9.852056 3.57263,-19.704112 5.35894,-29.556167 0.81967,-7.153846 2.12267,-15.656796 2.94235,-22.810642 0.67273,-11.60948 2.38556,-23.689353 2.5015,-36.1775446 0.11593,-12.4881919 0.78866,-24.0976714 0.90459,-36.5858634 0.81968,-7.153846 0.0425,-14.716009 0.86214,-21.869855 0.26289,-8.032557 -0.51433,-15.594721 -1.84834,-24.035597 -0.8507,-9.789981 -2.18471,-18.230857 -3.5922,-28.899547 -2.59455,-14.65394 -6.22921,-28.83748 -10.42065,-43.89973 -1.26054,-6.21306 -4.11797,-12.83444 -6.41862,-18.5771 -2.30064,-5.74267 -4.60129,-11.48533 -8.49883,-17.63632 -3.97102,-8.3788 -8.49883,-17.63631 -12.46985,-26.01511 -5.56792,-8.78712 -11.13584,-17.57424 -18.30065,-26.76968 -5.49445,-6.5593 -10.98889,-13.11861 -17.52344,-19.20751 -1.5969,-0.40832 -1.11358,-1.75743 -1.67037,-2.63614 z"
     inkscape:connector-curvature="0" /><path
     style="fill:#ffffff;stroke-width:1"
     id="path17"
     d="m -12.010813,55.101444 c -1.449948,4.047316 -1.302995,8.50295 0.997648,14.245615 1.5234236,-1.819498 0.966632,-2.69821 2.0067394,-3.168604 1.0401076,-0.470393 2.5635309,-2.289892 3.6036385,-2.760285 1.0401076,-0.470393 3.7505908,1.695349 2.7104832,2.165743 -0.4833157,1.349105 -0.9666315,2.69821 -2.0067391,3.168604 -1.5234233,1.819498 -3.0468466,3.638997 -6.870914,-0.28417 0.146953,4.455635 0.220429,6.683452 1.407489,10.668694 3.1203225,-1.41118 4.1604301,-1.881574 6.2406453,-2.82236 4.38085885,4.801878 2.8574355,6.621377 -4.57027,5.458496 0.073476,2.227817 0.1469523,4.455634 0.7772203,7.562164 4.2339066,0.346243 8.9511288,-0.656618 9.654873,4.677729 0.073476,2.227817 -2.00673907,3.168604 -8.8776527,2.884434 0.630268,3.106526 0.7037442,5.334346 0.2939046,8.911266 2.0802152,-0.94078 3.1203228,-1.41118 4.7172223,-1.00286 1.59689942,0.40832 2.71048316,2.16574 3.267275,3.04446 0.5567919,0.87871 -0.4833157,1.3491 -1.5234233,1.8195 0,0 0,0 -1.0401076,0.47039 -6.8709136,-0.28417 -5.2740141,0.12415 -7.2072771,5.52057 -1.9332628,5.39642 -2.2696268,11.20116 -4.2028888,16.59758 -1.933263,5.39642 -3.309734,11.67156 -1.492407,18.76333 0.630268,3.10653 -0.336363,5.80474 0.850697,9.78998 1.596899,0.40832 2.637007,-0.0621 4.2339064,0.34624 1.5968995,0.40832 3.193799,0.81664 4.3073827,2.57406 -1.0401076,0.4704 -1.5234233,1.8195 -2.5635309,2.2899 -5.2740142,0.12415 -6.2406452,2.82236 -3.4566862,7.21592 2.2271674,3.51484 0.703744,5.33434 -2.343103,8.97334 -1.670375,-2.63614 -3.340751,-5.27227 -3.971019,-8.3788 -3.004388,-11.07701 -4.968668,-22.62442 -3.182357,-32.47647 0.819679,-7.15385 3.236258,-13.89938 5.652836,-20.6449 1.933263,-5.39642 2.826419,-10.32245 2.122674,-15.6568 -2.037756,-13.775221 -5.11562,-27.080051 -7.153376,-40.855273 -2.111233,-16.00304 -5.262573,-31.535686 -7.930597,-48.417438 -2.447596,-10.1982999 -4.895192,-20.3965997 -7.342788,-30.5949 -2.447595,-10.198299 -4.411876,-21.745705 -5.819364,-32.414398 -2.594548,-14.653934 -3.592197,-28.89955 -6.186745,-43.553485 -1.890804,-9.319586 -3.224816,-17.760466 -4.075513,-27.550446 -0.220428,-6.68345 -0.440856,-13.3669 2.532514,-19.23372 0.966631,-2.69821 1.376471,-6.27513 -1.407488,-10.66869 -1.113584,-1.75742 -1.18706,-3.98524 -0.703744,-5.33435 0.483315,-1.3491 0.409839,-3.57692 1.933263,-5.39642 1.040107,-0.47039 2.080215,-0.94078 3.677114,-0.53247 0.556792,0.87872 1.113584,1.75743 1.670376,2.63614 -2.899895,8.09463 -1.009091,17.41422 0.881713,26.73381 1.260536,6.21306 0.924173,12.0178 0.58781,17.82254 0.703744,5.33434 1.96428,11.5474 2.668024,16.881748 1.334012,8.440876 1.627917,17.352145 3.518721,26.671733 1.480964,12.89651 4.002036,25.322627 6.523108,37.748744 0.77722,7.562164 2.594548,14.653935 3.371769,22.2160989 0.556792,0.8787119 1.670375,2.6361359 1.670375,2.6361359 3.120323,-1.4111801 5.200538,-2.3519668 8.320861,-3.7631468 0,0 3.267275,3.0444546 3.824067,3.9231665 -1.523423,1.8194987 -3.046847,3.6389974 -5.127062,4.5797841 -1.040107,0.47039335 -3.750591,-1.6953492 -5.904282,-2.9823798 0.924173,12.0177985 4.002036,25.3226272 8.120008,38.1570632 v 0 c 0.07348,2.227818 -0.893155,4.926028 -0.262887,8.032557 0.556792,0.878712 1.113583,1.757424 1.18706,3.985242 1.523423,-1.819499 2.56353,-2.289892 4.6437457,-3.230679 1.0401076,-0.470393 2.6370071,-0.06208 4.2339065,0.346244 0.5567919,0.878712 0.073476,2.227817 0.630268,3.106529 -1.0401076,0.470394 -3.1203228,1.41118 -4.1604304,1.881574 -1.0401076,0.470393 -3.1203228,1.41118 -3.6036388,2.760285 -4.233906,-0.346244 -2.563531,2.289892 0.146953,4.455635 z"
     inkscape:connector-curvature="0" /><path
     style="fill:#ffffff;stroke-width:1"
     id="path19"
     d="m -59.227014,-224.2641 c -3.456686,7.21592 -6.913372,14.43184 -8.773159,22.05608 -0.483316,1.34911 -0.409839,3.57692 0.703744,5.33435 2.78396,4.39356 0.703744,5.33434 -2.416578,6.74552 -2.080216,0.94079 -3.603639,2.76029 -5.127062,4.57979 -0.483316,1.3491 -2.006739,3.1686 -2.490055,4.51771 0,0 -0.483316,1.3491 0.07348,2.22781 1.743852,4.86396 -0.819679,7.15385 -2.826418,10.32245 -3.046847,3.639 -7.133801,7.74839 -3.236258,13.89938 1.670376,2.63613 1.18706,3.98524 -2.490055,4.51771 -1.040107,0.47039 -2.080215,0.94078 -3.120323,1.41118 5.420967,4.33148 6.051235,7.43801 0.293905,8.91126 -3.677115,0.53247 -5.127062,4.57979 -2.899894,8.09464 1.670375,2.63613 3.340751,5.27227 -0.81968,7.15384 -1.040107,0.4704 -1.449947,4.04732 -0.893155,4.92603 1.670376,2.63614 0.07348,2.22782 -0.966631,2.69821 -3.120323,1.41118 -5.200538,2.35197 -4.013478,6.33721 1.187059,3.98524 0.220428,6.68345 -2.899899,8.09463 -3.12032,1.41118 -0.89316,4.926028 0.77722,7.562164 2.783964,4.39356 3.340756,5.272272 -0.81968,7.153846 -3.12032,1.41118 -4.08695,4.10939 -0.26289,8.032557 3.824075,3.923166 4.380867,4.801878 0.22043,6.683452 -4.16043,1.881573 -3.60364,2.760285 -0.26288,8.032557 1.11358,1.757424 0.14695,4.455635 -0.33637,5.80474 -3.53016,4.988103 -1.93326,5.396421 2.447602,10.1983 2.227167,3.514848 3.340751,5.272272 0.220428,6.683452 -2.08022,0.940786 -3.60364,2.760285 0.146952,4.455634 4.307383,2.574062 2.78396,4.39356 1.260536,6.213059 -3.046848,3.638997 -3.530168,4.988103 -0.262887,8.032557 5.420966,4.331485 5.977758,5.210197 1.334012,8.440876 -2.563531,2.289892 -1.933263,5.3964214 1.334012,8.4408759 2.710483,2.1657426 3.267275,3.0444546 0.146953,4.4556346 -2.080216,0.9407867 -3.603639,2.76028542 -5.683858,3.7010721 -1.74385,-4.8639532 -0.22043,-6.6834519 1.786314,-9.8520559 -5.347494,-2.1036677 -5.420974,-4.3314847 -2.374124,-7.9704827 1.523428,-1.819499 2.006744,-3.168604 -0.70374,-5.334346 -0.5568,-0.878712 -1.67038,-2.636136 -1.18706,-3.985242 0.40984,-3.576922 0.33636,-5.80474 0.7462,-9.381662 -0.55679,-0.878712 -2.71048,-2.165743 -3.82407,-3.923167 0.26289,-8.032557 0.52578,-16.065114 0.23187,-24.976384 0.48332,-1.349105 -0.0735,-2.227817 -0.14695,-4.455634 -1.18706,-3.985242 -0.77722,-7.562164 3.38321,-9.443738 -1.11358,-1.757424 -2.71048,-2.165742 -3.26727,-3.044454 -1.11359,-1.757424 -1.67038,-2.636136 -1.18706,-3.985241 0.40984,-3.576923 0.81967,-7.153846 2.26962,-11.201162 1.37647,-6.275128 2.75294,-12.550268 4.12942,-18.825398 1.37647,-6.27513 2.196149,-13.42898 4.612728,-20.17451 0.966632,-2.69821 2.490055,-4.51771 3.456686,-7.21592 0.966632,-2.69821 1.376471,-6.27513 1.786311,-9.85205 1.933263,-5.39642 1.712834,-12.07988 5.799789,-16.18927 3.046846,-3.63899 3.940002,-8.56502 5.389949,-12.61234 1.449947,-4.04731 2.343102,-8.97334 4.349841,-12.14195 2.973371,-5.86681 6.986849,-12.20402 9.96022,-18.07083 2.006739,-3.16861 3.456686,-7.21592 4.423317,-9.91413 0.483316,-1.34911 1.523424,-1.8195 3.046847,-3.639 -1.596899,-0.40832 -1.596899,-0.40832 -1.040108,0.47039 z"
     inkscape:connector-curvature="0" /><path
     style="fill:#ffffff;stroke-width:1"
     id="path21"
     d="m -86.194816,94.304111 c -1.040108,0.470394 -2.00674,3.168604 -0.893156,4.926028 1.334012,8.440881 3.224816,17.760461 4.558829,26.201341 0.556791,0.87871 1.670375,2.63613 1.187059,3.98524 1.040108,-0.47039 2.080216,-0.94079 3.120323,-1.41118 1.040108,-0.47039 3.677115,-0.53247 5.75733,-1.47325 0.146952,4.45563 0.220429,6.68345 -6.167169,5.05017 -1.5969,-0.40832 -2.637007,0.0621 -2.563531,2.28989 0.293904,8.91127 0.03102,16.94383 0.324922,25.8551 0.630268,3.10653 -0.336364,5.80474 -0.746203,9.38166 -1.5969,-0.40832 -2.710484,-2.16574 -2.227168,-3.51484 -2.857435,-6.62138 -1.480964,-12.89652 -2.184709,-18.23086 -0.440856,-13.36691 -1.921821,-26.26342 -5.556477,-40.44696 -1.890804,-9.319585 -3.224816,-17.760461 -4.558828,-26.201337 -0.77722,-7.562164 -3.15134,-15.532646 -3.928556,-23.09481 -0.77722,-7.562164 -0.51434,-15.594721 -1.29156,-23.156885 6.870916,0.284169 5.830808,0.754562 5.977761,5.210197 -0.966632,2.69821 0.220428,6.683452 0.850696,9.789981 1.96428,11.547405 4.411876,21.745705 6.376156,33.29311 -0.483315,1.349106 0.630268,3.10653 0.146953,4.455635 -0.483316,1.349105 0.146952,4.455634 1.817328,7.09177 z"
     inkscape:connector-curvature="0" /><path
     style="fill:#ffffff;stroke-width:1"
     id="path23"
     d="m -5.551258,-245.14763 c 0.5567919,0.87871 0.630268,3.10653 0.630268,3.10653 -0.4833157,1.34911 -0.9666315,2.69821 -2.5635309,2.28989 -3.1937991,-0.81664 -3.1203231,1.41118 -2.5635311,2.28989 -0.483316,1.34911 1.18706,3.98525 -3.046847,3.639 -3.193798,-0.81664 -3.267275,-3.04445 -4.380858,-4.80188 -0.07348,-2.22781 2.006739,-3.1686 5.200538,-2.35196 -0.146953,-4.45564 1.376471,-6.27514 6.723961,-4.17147 z"
     inkscape:connector-curvature="0" /><path
     style="fill:#ffffff;stroke-width:1"
     id="path25"
     d="m 113.5483,-10.727421 c 0,0 1.04011,-0.470393 0,0 2.08022,-0.940787 3.12032,-1.41118 3.12032,-1.41118 2.08022,-0.940787 5.27402,-0.124149 7.9845,2.041593 2.71048,2.1657427 1.18706,3.9852414 -0.33636,5.8047401 -2.56353,2.289892 -6.31412,0.5945428 -9.02461,-1.5711998 -0.55679,-0.878712 -0.63026,-3.1065293 -1.74385,-4.8639533 z"
     inkscape:connector-curvature="0" /><path
     style="fill:#ffffff;stroke-width:1"
     id="path27"
     d="m 116.30124,-23.277688 c 0,0 0.48332,-1.349105 0.48332,-1.349105 1.04011,-0.470393 1.52342,-1.819499 2.56353,-2.289892 3.1938,0.816637 7.42771,1.162881 8.61477,5.148123 0.55679,0.878711 -1.44995,4.047315 -3.04685,3.638997 -5.83081,-0.754563 -7.42771,-1.162881 -8.61477,-5.148123 z"
     inkscape:connector-curvature="0" /><path
     style="fill:#ffffff;stroke-width:1"
     id="path29"
     d="m -28.405916,-105.93182 c -1.523423,1.8195 -4.16043,1.88158 -6.870913,-0.28416 -2.153692,-1.28704 -2.300644,-5.74267 -0.220429,-6.68346 2.080216,-0.94078 4.717223,-1.00286 5.830806,0.75457 3.267275,3.04445 3.340752,5.27227 1.260536,6.21305 z"
     inkscape:connector-curvature="0" /><path
     style="fill:#ffffff;stroke-width:1"
     id="path31"
     d="m -28.993725,-123.75435 c 0.07348,2.22781 1.18706,3.98524 0.703744,5.33434 -0.483315,1.34911 -2.563531,2.28989 -4.16043,1.88158 -1.596899,-0.40832 -3.750591,-1.69535 -5.34749,-2.10367 -2.227168,-3.51485 2.006739,-3.16861 3.530162,-4.9881 -0.556792,-0.87872 2.080215,-0.94079 5.274014,-0.12415 z"
     inkscape:connector-curvature="0" /><path
     style="fill:#ffffff;stroke-width:1"
     id="path33"
     d="m -29.570092,-173.23673 c -1.5969,-0.40832 -4.233907,-0.34624 -6.387598,-1.63327 -2.710483,-2.16575 -1.18706,-3.98524 -0.703744,-5.33435 1.040107,-0.47039 2.006739,-3.1686 5.75733,-1.47325 2.710483,2.16574 2.300643,5.74266 1.334012,8.44087 z"
     inkscape:connector-curvature="0" /><path
     style="fill:#ffffff;stroke-width:1"
     id="path35"
     d="m -25.497887,-33.76295 c -4.307383,-2.574061 -3.340752,-5.272272 -1.817328,-7.09177 1.523423,-1.819499 5.274014,-0.12415 7.427705,1.162881 0.556792,0.878712 2.227168,3.514848 1.18706,3.985241 -0.483316,1.349105 -3.120323,1.41118 -4.16043,1.881573 -1.040108,0.470394 -2.637007,0.06208 -2.637007,0.06208 z"
     inkscape:connector-curvature="0" /><path
     style="fill:#ffffff;stroke-width:1"
     id="path37"
     d="m -16.496166,31.127921 c 1.040108,-0.470393 1.523424,-1.819498 1.523424,-1.819498 0.966631,-2.698211 5.2005377,-2.351967 7.9110209,-0.186225 0.5567919,0.878712 0.5567919,0.878712 1.1135838,1.757424 0.630268,3.10653 -2.0067391,3.168604 -4.0869547,4.109391 -3.677114,0.532468 -4.307382,-2.574061 -6.461074,-3.861092 0,0 0,0 0,0 z"
     inkscape:connector-curvature="0" /><path
     style="fill:#ffffff;stroke-width:1"
     id="path39"
     d="m -32.071589,-137.05918 c -0.483315,1.3491 1.18706,3.98524 0.146953,4.45563 -2.080216,0.94079 -3.046847,3.639 -6.314122,0.59454 -2.153691,-1.28703 -2.227168,-3.51484 -0.703744,-5.33434 1.523423,-1.8195 3.603638,-2.76029 6.870913,0.28417 z"
     inkscape:connector-curvature="0" /><path
     style="fill:#ffffff;stroke-width:1"
     id="path41"
     d="m -28.792872,-165.67456 c -2.563531,2.28989 -4.086954,4.10939 -5.127062,4.57978 -1.040107,0.47039 -3.750591,-1.69535 -4.307382,-2.57406 -1.670376,-2.63614 0.893155,-4.92603 3.530162,-4.9881 -0.556792,-0.87872 3.193799,0.81663 5.904282,2.98238 z"
     inkscape:connector-curvature="0" /><path
     style="fill:#ffffff;stroke-width:1"
     id="path43"
     d="m -90.920173,15.043475 c -2.080215,0.940787 -3.603638,2.760285 -6.870913,-0.284169 -3.267274,-3.044455 -1.18706,-3.985242 0.893155,-4.9260282 1.523423,-1.8194987 4.717222,-1.0028614 6.387598,1.6332742 0,0 0.07348,2.227818 -0.40984,3.576923 z"
     inkscape:connector-curvature="0" /><path
     style="fill:#ffffff;stroke-width:1"
     id="path45"
     d="m -33.459501,-99.124214 c 1.523423,-1.819496 3.677114,-0.532469 4.790698,1.224955 1.113584,1.757424 1.18706,3.985242 0.703744,5.334347 -1.523423,1.819499 -4.717222,1.002861 -6.870913,-0.284169 -1.670376,-2.636136 -1.743852,-4.863953 1.376471,-6.275133 z"
     inkscape:connector-curvature="0" /><path
     style="fill:#ffffff;stroke-width:1"
     id="path47"
     d="m -31.828277,-193.6954 c 2.153691,1.28703 2.710483,2.16574 3.267275,3.04445 2.710483,2.16574 2.227168,3.51485 0.703744,5.33435 -1.523423,1.8195 -3.120323,1.41118 -5.830806,-0.75456 -2.710483,-2.16575 -3.267275,-3.04446 -0.146952,-4.45564 1.040108,-0.47039 1.523423,-1.8195 2.006739,-3.1686 z"
     inkscape:connector-curvature="0" /><path
     style="fill:#ffffff;stroke-width:1"
     id="path49"
     d="m -18.657991,-50.422607 c -3.120323,1.41118 -5.75733,1.473255 -7.837545,2.414041 0,0 -1.596899,-0.408318 -2.153691,-1.28703 -3.267275,-3.044455 1.449947,-4.047316 0.336363,-5.80474 1.5969,0.408318 3.193799,0.816637 5.34749,2.103668 1.5969,0.408318 2.153692,1.28703 4.307383,2.574061 z"
     inkscape:connector-curvature="0" /><path
     style="fill:#ffffff;stroke-width:1"
     id="path51"
     d="m -12.440229,10.074704 c -1.523423,1.819499 -3.120322,1.41118 -5.830806,-0.7545625 -2.710483,-2.1657426 -1.670375,-2.6361359 -0.146952,-4.4556346 2.080215,-0.9407867 3.046847,-3.6389974 6.314122,-0.5945428 3.2672749,3.0444546 3.2672749,3.0444546 -0.336364,5.8047399 z"
     inkscape:connector-curvature="0" /><path
     style="fill:#ffffff;stroke-width:1"
     id="path53"
     d="m -39.793199,-147.13333 c 0.483316,-1.34911 -0.07348,-2.22782 0.40984,-3.57693 -0.07348,-2.22781 0.409839,-3.57692 3.046847,-3.63899 1.596899,0.40831 4.233906,0.34624 4.307382,2.57406 0.07348,2.22781 -0.409839,3.57692 -3.046846,3.63899 -2.080216,0.94079 -3.677115,0.53247 -4.717223,1.00287 z"
     inkscape:connector-curvature="0" /><path
     style="fill:#ffffff;stroke-width:1"
     id="path55"
     d="m -25.927302,-78.789689 c 0.556791,0.878712 0.630268,3.106529 -0.40984,3.576922 -2.080215,0.940787 -4.233907,-0.346244 -6.870914,-0.284169 0.483316,-1.349105 -0.630268,-3.106529 -0.146952,-4.455635 1.523423,-1.819498 4.16043,-1.881573 7.427706,1.162882 z"
     inkscape:connector-curvature="0" /><path
     style="fill:#ffffff;stroke-width:1"
     id="path57"
     d="m -18.460446,19.580516 c 1.523424,-1.819499 3.603639,-2.760285 4.086954,-4.109391 1.5969,0.408319 4.307383,2.574062 4.864175,3.452774 0.630268,3.106529 -1.449947,4.047316 -4.086954,4.10939 -1.5969,-0.408318 -2.710483,-2.165742 -4.864175,-3.452773 z"
     inkscape:connector-curvature="0" /><path
     style="fill:#ffffff;stroke-width:1"
     id="path59"
     d="m 1.9189064,-258.70076 c 0.073476,2.22782 0.1469522,4.45564 0.2204284,6.68345 -1.5968995,-0.40831 -4.2339066,-0.34624 -6.3875979,-1.63327 0.4833157,-1.34911 -0.630268,-3.10653 0.8931553,-4.92603 -0.5567919,-0.87871 2.63700708,-0.0621 5.2740142,-0.12415 z"
     inkscape:connector-curvature="0" /><path
     style="fill:#ffffff;stroke-width:1"
     id="path61"
     d="m -32.678973,-203.48538 c 1.523423,-1.8195 3.046846,-3.639 5.610377,-5.92889 1.670376,2.63613 2.78396,4.39356 2.857436,6.62137 0.556792,0.87872 -2.563531,2.2899 -4.160431,1.88158 0,0 -2.153691,-1.28703 -4.307382,-2.57406 z"
     inkscape:connector-curvature="0" /><path
     style="fill:#ffffff;stroke-width:1"
     id="path63"
     d="m -88.735464,33.274332 c -1.040108,0.470393 -3.677115,0.532468 -4.717222,1.002861 -2.710484,-2.165742 -2.78396,-4.393559 -0.703745,-5.334346 1.523424,-1.819499 4.160431,-1.881574 5.274015,-0.12415 2.710483,2.165743 0.630268,3.10653 0.146952,4.455635 z"
     inkscape:connector-curvature="0" /><path
     style="fill:#ffffff;stroke-width:1"
     id="path65"
     d="m -12.010813,55.101444 c -0.630268,-3.10653 2.4900544,-4.51771 4.6437457,-3.230679 1.5968995,0.408319 2.7104832,2.165742 2.2271675,3.514848 -1.0401076,0.470393 -2.0802152,0.940786 -3.6036385,2.760285 -1.1135838,-1.757424 -1.6703757,-2.636136 -3.2672747,-3.044454 0,0 0,0 0,0 z"
     inkscape:connector-curvature="0" /><path
     style="fill:#ffffff;stroke-width:1"
     id="path67"
     d="m -93.568621,46.765385 c 2.080215,-0.940786 2.563531,-2.289892 4.643746,-3.230678 1.113583,1.757424 2.710483,2.165742 3.824067,3.923166 0.556792,0.878712 -0.966632,2.698211 -0.966632,2.698211 -1.596899,-0.408319 -4.790698,-1.224956 -6.94439,-2.511987 -1.040107,0.470394 -1.596899,-0.408318 -0.556791,-0.878712 z"
     inkscape:connector-curvature="0" /><path
     style="fill:#ffffff;stroke-width:1"
     id="path69"
     d="m -25.130507,-22.623863 c -2.300643,-5.742666 -0.77722,-7.562164 4.013479,-6.337208 1.596899,0.408318 2.153691,1.28703 2.153691,1.28703 0.556792,0.878712 0.07348,2.227818 0.07348,2.227818 -1.523423,1.819498 -4.16043,1.881573 -6.240646,2.82236 z"
     inkscape:connector-curvature="0" /><path
     style="fill:#ffffff;stroke-width:1"
     id="path71"
     d="m -32.357359,-65.706955 c 0.483315,-1.349105 -0.630268,-3.106529 0.409839,-3.576922 2.080216,-0.940787 4.160431,-1.881574 5.830806,0.754562 2.710484,2.165743 0.630268,3.106529 0.146953,4.455635 -2.080216,0.940786 -3.677115,0.532468 -6.387598,-1.633275 z"
     inkscape:connector-curvature="0" /><path
     style="fill:#ffffff;stroke-width:1"
     id="path73"
     d="m -89.787013,65.404561 c 3.530162,-4.988103 5.127062,-4.579784 9.991236,-1.127011 -2.080215,0.940787 -3.603638,2.760286 -5.683854,3.701072 -1.040107,0.470394 -3.75059,-1.695349 -4.307382,-2.574061 z"
     inkscape:connector-curvature="0" /><path
     style="fill:#ffffff;stroke-width:1"
     id="path75"
     d="m -24.988381,-210.35506 c -1.743851,-4.86395 -1.817327,-7.09177 0.81968,-7.15385 2.637007,-0.0621 3.193799,0.81664 4.307382,2.57407 0.630268,3.10653 -0.893155,4.92602 -5.127062,4.57978 z"
     inkscape:connector-curvature="0" /><path
     style="fill:#ffffff;stroke-width:1"
     id="path77"
     d="m -86.078881,81.81592 c -2.227168,-3.514848 0.893155,-4.926028 2.416578,-6.745527 1.040108,-0.470393 3.193799,0.816637 4.307383,2.574061 1.113584,1.757424 -0.40984,3.576923 -2.006739,3.168604 -0.483316,1.349105 -2.080215,0.940787 -4.717222,1.002862 z"
     inkscape:connector-curvature="0" /><path
     style="fill:#ffffff;stroke-width:1"
     id="path79"
     d="m 2.8217143,120.74688 c -2.08021523,0.94078 -4.1604304,1.88157 -6.2406456,2.82236 0,0 -2.1536914,-1.28703 -2.7104832,-2.16575 0.4833157,-1.3491 0.9666314,-2.69821 2.006739,-3.1686 2.0802152,-0.94079 3.60363855,-2.76028 6.9443898,2.51199 z"
     inkscape:connector-curvature="0" /><path
     style="fill:#ffffff;stroke-width:1"
     id="path81"
     d="m -73.241651,118.97012 c -2.637007,0.0621 -4.233907,-0.34624 -5.830806,-0.75456 0.483316,-1.34911 0.409839,-3.57692 1.449947,-4.04732 1.040108,-0.47039 3.677115,-0.53247 5.274014,-0.12415 -1.523423,1.8195 -0.966631,2.69821 -0.893155,4.92603 z"
     inkscape:connector-curvature="0" /><path
     style="fill:#ffffff;stroke-width:1"
     id="path83"
     d="m -22.718754,-221.55622 c 0.966631,-2.69821 -1.260536,-6.21306 2.416578,-6.74553 1.040108,-0.47039 3.750591,1.69535 3.750591,1.69535 1.18706,3.98524 -1.449947,4.04732 -6.167169,5.05018 z"
     inkscape:connector-curvature="0" /><path
     style="fill:#ffffff;stroke-width:1"
     id="path85"
     d="m -74.722616,106.07361 c -2.080215,0.94079 -2.563531,2.28989 -4.643746,3.23068 0,0 -2.710483,-2.16574 -3.267275,-3.04445 -0.556792,-0.87872 0.483316,-1.34911 1.523424,-1.8195 1.523423,-1.8195 3.677114,-0.53247 6.387597,1.63327 z"
     inkscape:connector-curvature="0" /><path
     style="fill:#ffffff;stroke-width:1"
     id="path87"
     d="m -86.194816,94.304111 c 1.523423,-1.819498 2.006739,-3.168604 3.530162,-4.988102 2.710483,2.165742 4.380859,4.801878 2.300644,5.742665 -0.966632,2.698211 -2.637008,0.06208 -5.830806,-0.754563 0,0 0,0 0,0 z"
     inkscape:connector-curvature="0" /></g></svg>