<?xml version="1.0" encoding="UTF-8" standalone="no"?>
<!-- Created with Inkscape (http://www.inkscape.org/) -->

<svg
   xmlns:dc="http://purl.org/dc/elements/1.1/"
   xmlns:cc="http://creativecommons.org/ns#"
   xmlns:rdf="http://www.w3.org/1999/02/22-rdf-syntax-ns#"
   xmlns:svg="http://www.w3.org/2000/svg"
   xmlns="http://www.w3.org/2000/svg"
   xmlns:sodipodi="http://sodipodi.sourceforge.net/DTD/sodipodi-0.dtd"
   xmlns:inkscape="http://www.inkscape.org/namespaces/inkscape"
   version="1.2"
   width="297mm"
   height="210mm"
   viewBox="0 0 1122.5197 793.70078"
   id="Layer_1"
   xml:space="preserve"
   style="overflow:inherit"
   sodipodi:docname="Eptatretus_burgeri.svg"
   inkscape:version="0.92.3 (unknown)"><metadata
   id="metadata7"><rdf:RDF><cc:Work
       rdf:about=""><dc:format>image/svg+xml</dc:format><dc:type
         rdf:resource="http://purl.org/dc/dcmitype/StillImage" /><dc:title></dc:title></cc:Work></rdf:RDF></metadata><sodipodi:namedview
   pagecolor="#ffffff"
   bordercolor="#666666"
   borderopacity="1"
   objecttolerance="10"
   gridtolerance="10"
   guidetolerance="10"
   inkscape:pageopacity="0"
   inkscape:pageshadow="2"
   inkscape:window-width="2495"
   inkscape:window-height="1416"
   id="namedview5"
   showgrid="false"
   units="mm"
   inkscape:zoom="0.45640335"
   inkscape:cx="320.98801"
   inkscape:cy="129.942"
   inkscape:window-x="65"
   inkscape:window-y="24"
   inkscape:window-maximized="1"
   inkscape:current-layer="Layer_1" /><defs
   id="defs7" />
<path
   d="m 697.75695,230.09917 c 134.10752,4.93548 238.98458,24.30911 270.77134,132.17748 12.05638,40.91085 -0.34135,88.90668 -25.66553,121.91127 -79.58881,103.7298 -282.69427,76.67833 -433.74746,59.03072 -75.60552,-8.8328 -154.72465,-3.61884 -223.29011,11.54948 -33.8169,7.48151 -84.44344,22.39318 -83.41297,-19.24914 0.53769,-21.74384 29.00975,-40.24484 51.33106,-50.04779 20.22828,-8.88284 51.26304,-21.16379 78.27986,-23.09897 33.72066,-2.41641 66.23632,6.08529 94.96246,6.41638 31.73543,0.36573 69.38163,-2.85273 107.79523,-2.56655 36.54258,0.27077 74.52757,2.83475 114.21161,5.1331 88.94004,5.14979 198.88091,21.98124 243.82253,-30.79863 10.17125,-11.94346 19.58794,-38.76779 11.54949,-60.314 -10.53441,-28.23722 -55.35156,-46.99615 -91.11263,-53.89761 -89.93715,-17.35632 -206.23152,-8.86873 -296.43687,-15.39932 -25.32546,-1.8338 -53.45617,2.04297 -80.84642,2.56655 -78.4005,1.50015 -161.78909,5.36025 -215.59045,-15.39932 -5.66438,1.77606 -1.93262,14.52926 -12.83277,14.11605 -16.49908,-7.26977 -22.97706,-25.49614 -34.64846,-37.21502 -5.94799,-5.97237 -16.19495,-7.76383 -16.6826,-17.96587 -5.80297,-1.04202 -2.9233,3.87292 -6.87066,0.42733 1.11645,-4.59157 7.30569,-4.16552 0,-5.95697 8.94701,-1.38081 4.87517,-3.76642 3.15173,-8.32333 15.66495,11.22867 44.28844,0.51074 70.44931,-0.26308 141.07829,-4.17449 267.09347,-5.18058 404.2321,-12.83276 23.52759,0 47.05261,0 70.58021,0 z"
   id="path3"
   style="fill-rule:evenodd;stroke-width:1"
   inkscape:connector-curvature="0" />
</svg>