<?xml version="1.0" encoding="UTF-8" standalone="no"?>
<!-- Created with Inkscape (http://www.inkscape.org/) -->

<svg
   xmlns:dc="http://purl.org/dc/elements/1.1/"
   xmlns:cc="http://creativecommons.org/ns#"
   xmlns:rdf="http://www.w3.org/1999/02/22-rdf-syntax-ns#"
   xmlns:svg="http://www.w3.org/2000/svg"
   xmlns="http://www.w3.org/2000/svg"
   xmlns:sodipodi="http://sodipodi.sourceforge.net/DTD/sodipodi-0.dtd"
   xmlns:inkscape="http://www.inkscape.org/namespaces/inkscape"
   version="1.1"
   width="297mm"
   height="210mm"
   viewBox="0 0 1122.5197 793.70079"
   id="Layer_1"
   xml:space="preserve"
   sodipodi:docname="dipnoi.svg"
   inkscape:version="0.92.3 (2405546, 2018-03-11)"><sodipodi:namedview
   pagecolor="#ffffff"
   bordercolor="#666666"
   borderopacity="1"
   objecttolerance="10"
   gridtolerance="10"
   guidetolerance="10"
   inkscape:pageopacity="0"
   inkscape:pageshadow="2"
   inkscape:window-width="2560"
   inkscape:window-height="1389"
   id="namedview32"
   showgrid="false"
   units="mm"
   inkscape:zoom="0.36625"
   inkscape:cx="-81.911263"
   inkscape:cy="300"
   inkscape:window-x="0"
   inkscape:window-y="0"
   inkscape:window-maximized="1"
   inkscape:current-layer="Layer_1" /><metadata
   id="metadata34"><rdf:RDF><cc:Work
       rdf:about=""><dc:format>image/svg+xml</dc:format><dc:type
         rdf:resource="http://purl.org/dc/dcmitype/StillImage" /><dc:title /></cc:Work></rdf:RDF></metadata><defs
   id="defs60">
        
        
        
    
            
            
            
        </defs>
    
    
    

                    
                    <path
   style="stroke-width:1.00000024"
   inkscape:connector-curvature="0"
   d="m 1064.7776,483.42968 c 5.5264,3.31479 10.8521,6.22528 18.2073,7.76486 -6.4234,4.22784 -15.7011,7.17849 -24.9011,9.10364 -6.137,1.28522 -12.7639,1.26647 -20.0816,2.14203 -1.2745,0.15262 -2.4151,0.8702 -3.7486,1.07102 -9.283,1.39232 -18.1082,0.2731 -26.7754,2.14203 -7.47832,1.61455 -14.97275,4.03773 -23.02679,5.62283 -8.37535,1.64937 -16.84173,2.12061 -25.16888,3.74856 -8.7743,1.71362 -17.12822,1.60652 -26.50765,1.60652 -29.26015,0 -56.6621,2.05635 -81.12946,-4.01631 -5.70851,-1.41642 -11.39561,-3.06846 -17.13625,-4.55182 -1.93051,-0.49802 -4.23587,-0.44447 -5.89059,-1.07101 -2.64006,-1.0014 -4.64553,-3.93331 -7.49711,-5.35508 -5.11946,-2.54902 -10.69945,-3.9815 -15.26198,-6.96161 -5.64158,0.38557 -11.46523,0.0482 -16.333,-1.60652 -1.45926,-0.49535 -2.8248,-1.61723 -4.28406,-1.87428 -3.76998,-0.66135 -7.46498,-0.21956 -10.97791,-1.07101 -2.90781,-0.7042 -5.76207,-2.707 -8.56813,-3.21305 -3.22108,-0.58103 -6.44752,-0.30256 -9.63915,-1.07102 -2.6106,-0.62654 -5.16497,-2.20361 -7.76486,-2.67754 -1.60653,-0.29185 -3.57184,-0.0884 -5.35508,-0.26775 -8.46371,-0.84611 -17.53521,0.87823 -25.43663,-1.60653 -1.64937,-0.51944 -3.57987,-1.27451 -5.35508,-2.14203 -1.48604,-0.72561 -2.95065,-2.10722 -4.81957,-2.67754 -2.00548,-0.61316 -4.68034,-0.45518 -6.96161,-1.07101 -2.06706,-0.55961 -3.8503,-1.85822 -5.62283,-2.14204 -4.83028,-0.77648 -9.02599,-0.0991 -13.11995,-1.33877 -2.02422,-0.61315 -4.07521,-2.05903 -6.15834,-2.40978 -3.25321,-0.54622 -6.42074,-0.0402 -9.63914,-0.80326 -2.4205,-0.573 -4.90258,-2.24111 -7.49712,-2.67754 -2.6695,-0.44715 -5.746,0.15529 -8.56812,0 -2.82749,-0.1553 -5.78617,-1.29861 -8.30038,-1.33877 -4.51969,-0.0723 -9.22412,2.35088 -14.19096,0.80326 1.19686,2.29733 3.28802,4.23051 5.35508,6.15834 2.01083,1.87428 3.80211,4.2198 5.89059,5.89059 2.41514,1.9305 5.50234,3.61735 8.30037,5.62283 2.68022,1.92247 5.33366,4.06451 8.03262,5.89059 2.57847,1.74308 5.60409,3.67358 8.30038,5.62283 2.72573,1.97067 5.63622,4.48488 8.30037,5.62284 4.97487,2.12329 11.94451,2.69896 19.8138,2.94529 3.70036,0.11514 7.99513,-1.03085 10.71016,1.33877 -6.18244,3.86369 -11.84544,6.13157 -19.27829,8.83588 -4.19303,1.5262 -7.87465,2.69093 -13.92321,2.67754 -11.70888,-0.0268 -21.51403,-3.94134 -31.59497,-6.9616 -3.13272,-0.93982 -6.63762,-1.96799 -9.63915,-3.21305 -2.95065,-1.22363 -5.68174,-3.48348 -8.56812,-4.28406 -1.59582,-0.4418 -3.57452,-0.11246 -5.08733,-0.26776 -4.27068,-0.43911 -8.45835,-1.19686 -12.58444,-1.87427 -7.1651,-1.17544 -13.9125,-4.93203 -20.3493,-7.22936 -1.43249,-0.51141 -3.08453,-0.55158 -4.28407,-1.07102 -1.18882,-0.51409 -2.72305,-1.86089 -4.28406,-2.67754 -1.58243,-0.82736 -3.39512,-1.50745 -4.55182,-2.40978 -2.37765,-1.85018 -4.04308,-5.14356 -7.22936,-8.03262 -1.1674,-1.06031 -2.48475,-2.15007 -4.01631,-3.74856 -0.9532,-0.99605 -2.77661,-3.8155 -3.4808,-4.01631 -1.50478,-0.43108 -3.45135,1.28254 -6.69385,2.14203 -1.76182,0.46857 -3.24785,0.19546 -4.55182,0.53551 -2.20361,0.57299 -4.06182,2.10455 -6.15834,2.67754 -2.06438,0.56496 -4.24122,0.31059 -6.42609,0.80326 -2.37231,0.53551 -4.21981,1.96532 -6.4261,2.40979 -3.86101,0.77648 -7.36591,-0.30524 -12.04893,-0.26776 -1.52084,0.0134 -3.17556,0.68278 -4.81957,0.80327 -1.61724,0.11781 -3.37103,-0.20082 -4.81957,0 -4.87313,0.68009 -7.50515,2.33481 -13.92321,1.87427 -2.28662,-0.16333 -4.42865,-1.42713 -6.96161,-1.60652 -1.62526,-0.11514 -3.44599,0.54354 -5.08732,0.53551 -3.42993,-0.0161 -6.60282,-1.37626 -9.63915,-1.60653 -5.12213,-0.38556 -9.22144,0.42038 -13.65545,-0.80326 -1.67346,-0.46321 -3.27999,-1.5851 -5.08733,-1.87428 -1.45658,-0.23294 -3.20233,0.12317 -4.81957,0 -2.75787,-0.21152 -5.34705,-1.60384 -8.03262,-1.87427 -2.217,-0.22224 -4.74728,0.43376 -7.22936,0.26775 -1.95996,-0.1312 -3.97882,-1.01479 -5.89058,-1.07102 -3.21305,-0.091 -7.67116,1.14064 -12.04893,0.80327 -1.98942,-0.15262 -3.81818,-1.01747 -5.62284,-1.07102 -2.55437,-0.0777 -4.53307,0.69884 -6.42609,0.80326 -5.37918,0.29721 -9.43833,-0.5248 -13.11995,-1.60652 -3.51829,-1.03353 -6.39932,-3.11666 -10.17465,-4.28407 -2.06171,-0.63725 -4.67231,-0.93446 -6.96161,-1.60652 -2.134,-0.62387 -4.31619,-1.83947 -6.15834,-2.14203 -2.74715,-0.44983 -5.66032,-0.0616 -8.30037,-0.53551 -2.38034,-0.42573 -4.56253,-1.55297 -6.69385,-1.87428 -1.90106,-0.2865 -4.28942,0.13923 -6.4261,0 -1.49407,-0.0991 -2.96136,-0.76845 -4.28406,-0.80326 -2.873,-0.0777 -5.54519,0.73365 -8.30038,0.53551 -1.68952,-0.12049 -3.3978,-0.97195 -5.08732,-1.07102 -1.59849,-0.0937 -3.26928,0.5489 -4.81957,0.53551 -4.97487,-0.0402 -9.10364,-1.48604 -13.3877,-4.01631 -7.89875,-0.48999 -12.07036,-4.70979 -17.67177,-7.49711 -2.03493,0.0723 -3.51829,-0.40699 -5.35508,-0.53551 -0.21688,7.30968 3.94134,12.62996 6.96161,17.93952 0.98533,1.73237 1.79662,3.83156 2.67754,5.08732 2.67486,3.80747 8.42889,6.38594 12.31668,9.63915 1.98406,1.66007 3.98953,3.32818 5.89059,5.08732 2.00012,1.85018 4.21712,2.98814 6.15834,4.55182 2.00815,1.61456 3.36299,3.90385 5.35508,5.35508 2.75787,2.00816 6.20654,2.44995 8.03262,5.35508 -3.93331,-0.17672 -8.57616,0.87288 -12.58444,0.53551 -3.96276,-0.33469 -7.80771,-2.92923 -11.51342,-4.01631 -4.6857,-1.37358 -9.45975,-1.12457 -13.65545,-2.67754 -2.03494,-0.75239 -3.72446,-1.84215 -5.62284,-2.67754 -1.79395,-0.78988 -3.64681,-2.05367 -5.35508,-2.67754 -2.60525,-0.95321 -4.99897,-0.57835 -7.22936,-1.87428 -1.90908,-1.11118 -3.612,-3.36567 -5.62283,-4.81957 -4.50362,-3.25321 -9.87477,-4.52504 -12.85219,-7.76487 -0.79523,-0.86484 -1.34681,-2.12864 -2.14203,-3.21304 -0.67474,-0.92376 -1.67882,-1.75112 -2.40979,-2.67754 -1.51281,-1.91712 -2.44727,-4.35101 -3.74856,-6.4261 -2.71502,-4.32423 -6.29222,-8.30841 -8.30037,-12.31668 -0.70419,-1.40839 -0.8702,-2.9212 -1.60652,-4.28407 -1.21829,-2.26252 -3.04437,-3.94669 -4.28407,-6.15834 1.08708,6.36987 4.19035,11.92576 6.4261,17.40401 0.89965,2.20629 1.19686,4.78476 2.14203,6.69385 0.7631,1.53958 2.66147,2.65076 3.74856,4.28406 1.70559,2.55973 2.89709,5.69781 4.55181,7.76487 2.16881,2.70967 5.56125,4.38849 8.30038,5.89059 -0.74168,1.92247 3.0872,3.89314 1.07101,2.94529 -0.23294,-0.39092 -0.40163,-0.84878 -1.07101,-0.80326 -3.10863,-0.39628 -6.24938,0.67742 -9.9069,0 -3.15414,-0.5837 -6.18512,-3.27195 -9.37139,-3.21305 -4.11538,-5.11142 -10.2523,-6.96696 -14.72647,-11.78117 -0.97463,-1.0496 -1.48604,-2.28395 -2.67754,-3.48081 -1.14599,-1.15134 -1.75914,-2.20361 -2.67754,-3.4808 -1.76182,-2.44995 -4.268,-4.29745 -5.62283,-6.42609 -2.11794,-3.32819 -3.90921,-6.86522 -6.4261,-9.9069 -1.79395,-10.96988 -8.26021,-17.26478 -8.56813,-29.7207 -1.15134,-2.77661 -4.73924,-3.64413 -7.76486,-5.62283 -1.84215,-1.20489 -3.17557,-3.86905 -5.35508,-4.28406 -1.34681,-0.25705 -2.79803,0.30523 -4.01631,0.26775 -3.10327,-0.0991 -6.81702,-0.25704 -9.63915,-0.80326 -1.55297,-0.29989 -3.51293,-1.46462 -5.35508,-2.14203 -4.53307,-1.66543 -9.92296,-2.61864 -13.92321,-4.81958 -2.01886,-1.11118 -3.63074,-3.81281 -5.89058,-5.35508 -2.27056,-1.54761 -5.46219,-2.8007 -8.30038,-4.81957 -2.6106,-1.85821 -5.28279,-4.01095 -8.03262,-5.08732 -2.23574,-0.87556 -4.60805,-1.08441 -6.69385,-1.87428 -3.79675,-1.43784 -7.44892,-3.86102 -10.97791,-6.15834 -1.76986,-1.15135 -3.86102,-2.02155 -5.35508,-3.21305 -2.29465,-1.83144 -3.32015,-3.93331 -5.355083,-5.35508 -1.603846,-1.11921 -3.882433,-1.52888 -5.890588,-2.67754 -1.737723,-0.99337 -3.229113,-3.446 -5.087326,-4.81957 -3.54774,-2.62399 -7.636344,-5.14891 -11.513422,-8.56813 -3.652164,-3.22108 -8.024587,-5.72458 -10.977914,-8.83588 -2.342847,-2.4687 -3.405831,-5.78081 -5.35508,-8.30038 -2.891743,-3.73784 -8.52261,-6.44216 -12.316684,-9.9069 -1.162052,-1.0603 -1.641332,-2.88103 -2.67754,-3.74855 -2.005477,-1.6815 -6.06195,-2.67219 -6.426096,-4.55182 -0.441794,-2.27859 1.127245,-2.19291 2.409786,-3.21305 -5.917363,-17.85919 12.388978,-21.00798 27.043154,-21.95583 3.641455,-0.23562 7.082093,-1.57439 10.174652,-1.87427 1.547618,-0.14995 3.6361,0.39895 5.35508,0.26775 1.946572,-0.14727 4.053796,-1.09244 6.158342,-1.33877 1.486035,-0.17404 2.966715,0.17404 4.284064,0 2.120612,-0.28114 3.753911,-1.79663 5.890585,-2.40979 5.43809,-1.561 11.59643,-0.24098 18.20728,-1.07101 1.91444,-0.24098 3.97079,-1.13528 5.89058,-1.60653 6.04589,-1.48603 11.76779,-3.54506 17.93952,-4.55181 5.35508,-0.87288 11.39829,-1.30664 17.13626,-1.87428 17.71996,-1.75111 37.01699,-2.43121 55.42508,-1.07102 11.93915,0.88359 23.66142,2.76322 35.61128,2.9453 5.76474,0.0883 11.50003,0.15529 17.13625,0.80326 5.62284,0.64528 11.18409,2.29733 16.86851,2.67754 9.39816,0.62922 18.99446,-0.0777 27.3109,2.40978 2.15007,0.64261 3.99757,1.60653 6.15835,2.14204 2.19558,0.54354 4.39652,0.82736 6.69385,1.33877 3.36834,0.74971 6.52516,2.57311 9.90689,3.21304 3.81014,0.72294 7.80503,0.3347 11.78118,1.07102 3.35496,0.62119 6.39396,2.04028 9.63914,2.67754 10.37012,2.04028 21.90764,1.72433 32.93375,3.21305 18.75616,2.53295 37.47485,6.23867 55.96058,7.22936 14.27397,-1.73773 28.76481,2.15809 43.37615,0.80326 5.77813,-0.53551 11.45987,-1.50746 17.67176,-1.07102 4.88651,0.34273 9.6686,-0.0161 14.72647,0.53551 5.03913,0.54889 10.1693,0.5007 15.26198,0.80326 15.0692,0.89965 30.58822,2.72574 45.78594,4.55182 7.83715,0.94249 15.76267,1.15937 23.29459,2.14203 7.76219,1.01211 15.34766,0.6319 22.22359,1.87428 1.44051,0.25972 2.29197,1.09779 3.74855,1.33877 6.07266,1.00943 12.58712,-0.0294 18.74278,0.53551 5.73797,0.52747 11.82402,1.02817 17.40401,2.14203 3.03098,0.60512 6.86521,1.68149 11.24567,2.14203 8.71807,0.9184 18.91146,1.30664 27.57866,2.40979 3.02027,0.38556 6.1155,1.36554 8.56813,1.33877 0.9532,-0.0107 2.0028,-0.56764 2.94529,-0.53551 3.36835,0.11513 7.15171,1.60117 10.71016,2.14203 11.02076,1.67614 22.30927,3.38977 32.93375,5.35508 6.72062,1.24238 13.10655,4.12074 19.54604,6.15834 6.55997,2.0751 13.00749,4.38314 19.27829,6.15835 6.40199,1.81269 12.40772,4.66159 18.47502,7.22935 6.1396,2.59989 12.5175,4.55985 18.47503,6.96161 8.99118,3.62539 17.57269,7.68989 26.23989,12.04893 2.75787,1.38696 5.02306,3.52632 7.76487,4.81957 1.91444,0.90233 4.16625,0.93178 6.15834,1.60652 5.14891,1.74308 10.28443,4.79012 15.52973,7.22936 5.15962,2.40175 10.49863,4.80886 15.52973,7.22936 10.17465,4.89454 19.62369,10.92704 29.18519,16.06524 10.20142,5.4836 20.88749,9.91225 31.32722,14.19096 5.71119,2.34285 10.96184,3.86101 15.79748,6.96161 2.23307,1.43248 4.49559,2.88103 6.69385,4.55181 2.05903,1.56636 3.85566,3.7914 6.15834,5.08733 1.70827,0.96124 4.03236,1.61723 5.89056,2.40979 12.8656,5.49966 23.5544,13.61796 33.4693,22.75909 5.7835,4.68034 10.7664,10.69677 17.9395,14.45871 3.438,1.80225 7.0047,3.56113 10.4424,5.62284 z"
   id="path11" />
                    
                <g
   transform="matrix(0.267754,0.000000,0.000000,0.267754,38.397268,274.502300)"
   id="g13" />
                
            </svg>