<?xml version="1.0" encoding="UTF-8" standalone="no"?>
<!-- Created with Inkscape (http://www.inkscape.org/) -->

<svg
   xmlns:dc="http://purl.org/dc/elements/1.1/"
   xmlns:cc="http://creativecommons.org/ns#"
   xmlns:rdf="http://www.w3.org/1999/02/22-rdf-syntax-ns#"
   xmlns:svg="http://www.w3.org/2000/svg"
   xmlns="http://www.w3.org/2000/svg"
   xmlns:sodipodi="http://sodipodi.sourceforge.net/DTD/sodipodi-0.dtd"
   xmlns:inkscape="http://www.inkscape.org/namespaces/inkscape"
   version="1.1"
   width="297mm"
   height="210mm"
   viewBox="0 0 1122.5197 793.70079"
   id="Layer_1"
   xml:space="preserve"
   sodipodi:docname="entoprocta.svg"
   inkscape:version="0.92.3 (unknown)"><metadata
   id="metadata34"><rdf:RDF><cc:Work
       rdf:about=""><dc:format>image/svg+xml</dc:format><dc:type
         rdf:resource="http://purl.org/dc/dcmitype/StillImage" /><dc:title /></cc:Work></rdf:RDF></metadata><sodipodi:namedview
   pagecolor="#ffffff"
   bordercolor="#666666"
   borderopacity="1"
   objecttolerance="10"
   gridtolerance="10"
   guidetolerance="10"
   inkscape:pageopacity="0"
   inkscape:pageshadow="2"
   inkscape:window-width="2495"
   inkscape:window-height="1416"
   id="namedview32"
   showgrid="false"
   units="mm"
   inkscape:zoom="0.80256944"
   inkscape:cx="561.25984"
   inkscape:cy="397.47654"
   inkscape:window-x="65"
   inkscape:window-y="24"
   inkscape:window-maximized="1"
   inkscape:current-layer="Layer_1" /><defs
   id="defs60" />
    
    
    

<path
   style="fill:#000000;fill-opacity:1;fill-rule:evenodd;stroke:#000000;stroke-width:0.99999994px;stroke-linecap:butt;stroke-linejoin:miter;stroke-opacity:1"
   d="m 671.24577,169.40271 c -3.63317,7.50456 -4.79191,9.08502 -7.20682,24.3113 -2.4149,15.22627 -15.1199,40.71142 -19.36828,54.47531 -12.43307,28.53001 -15.1272,23.93748 -13.96319,3.32155 0.86937,-13.20738 1.403,-32.07279 1.8017,-46.99184 0.39871,-14.91905 5.76745,-27.69684 8.10766,-37.81757 2.3402,-10.12074 2.66627,-18.78182 2.79176,-24.76908 0.12551,-5.98726 5.34238,-31.29042 -0.99006,-31.50707 -6.33244,-0.21665 -8.73612,27.58965 -13.51277,40.06862 -4.77664,12.47896 -6.77885,26.62582 -7.2068,37.81757 -0.42796,11.19176 0.055,17.57012 0,27.82793 -0.0549,10.25781 0.68339,24.6381 -2.05507,31.29017 -2.73846,6.65206 -1.21644,14.05198 -9.17773,14.65399 -7.9613,0.60201 -8.61156,2.12308 -11.11516,-7.02251 -2.5036,-9.14559 -5.92496,-33.22498 -2.92113,-44.97568 3.00382,-11.75069 -1.22691,-23.55086 0.0453,-37.08102 1.27219,-13.53016 5.67941,-28.04915 6.30596,-37.81757 0.62654,-9.76843 -2.34218,-28.87811 -5.80762,-26.40469 -3.46545,2.47342 -3.25101,25.22976 -6.8043,33.60804 -3.55329,8.37829 -0.56848,27.22055 -1.80171,39.6184 -1.23322,12.39786 -3.04392,22.10834 -4.50424,33.31549 -1.46032,11.20715 1.19962,22.00803 -4.50426,34.2159 -5.70389,12.20787 -15.5342,-3.53786 -14.66808,-14.24284 0.86611,-10.70498 -4.37389,-19.22844 -3.822,-31.18577 0.55191,-11.95733 -3.36125,-31.09998 -4.03119,-43.71281 -0.66994,-12.61283 -3.39397,-23.98757 -6.30596,-30.61423 -2.912,-6.62665 -4.35193,-32.305585 -11.26064,-24.7615 -6.90871,7.54409 -0.96014,40.89237 0.7049,51.19197 1.66506,10.29961 2.73711,17.56984 3.60341,26.4348 0.86633,8.86497 3.50054,17.62021 4.7085,24.8521 1.20795,7.23189 0.38942,15.43768 0.8059,23.77482 0.41648,8.33713 6.57929,27.51195 -2.49335,29.28697 -9.07263,1.77501 -10.42101,-30.5888 -14.71336,-44.44822 -4.29235,-13.85943 -9.83558,-23.42891 -11.5565,-36.5442 -1.7209,-13.11529 -7.21604,-26.81249 -9.43629,-38.0813 -2.22025,-11.2688 -5.38026,-13.68932 -9.00851,-23.41088 -3.62825,-9.72156 -9.04479,-11.11004 -9.90936,2.70126 -0.86457,13.8113 4.11113,20.33201 8.08419,28.82021 3.97306,8.4882 6.83447,20.01309 9.93283,30.60741 3.09835,10.59431 5.78549,24.24034 8.10765,36.01673 2.32216,11.7764 4.45695,26.51546 3.60341,37.32485 -0.85354,10.80938 -18.67779,-3.39012 -21.52792,-20.99589 -2.85014,-17.60576 -39.27825,-91.29791 -50.168,-101.30618 -10.88976,-10.00826 1.23853,20.38939 12.51298,38.2007 11.27446,17.81133 12.2583,32.40495 18.81666,43.23932 6.55837,10.83436 5.66542,13.90349 8.9364,23.66475 3.27098,9.76127 11.76786,18.62548 7.1069,26.69421 -4.66096,8.06873 -14.13359,-10.55473 -20.90148,-18.28283 -6.76789,-7.7281 -14.18108,-24.10325 -17.83511,-34.84187 -3.65403,-10.73861 -4.40207,-11.41381 -10.81021,-21.61003 -6.40814,-10.19622 -21.87476,-54.77369 -24.32297,-41.41925 -2.44821,13.35444 4.427,29.82575 10.81021,37.81757 6.38321,7.99183 11.18503,21.1489 15.31446,32.41507 4.12943,11.26618 9.93676,23.16324 14.41362,33.31548 4.47686,10.15224 0.24967,20.44629 -9.0085,12.60586 -9.25818,-7.84043 -12.38703,-11.16166 -16.21533,-19.80921 -3.8283,-8.64754 -3.42357,-7.87027 -10.81021,-18.00836 -7.38665,-10.13809 -13.74574,-22.56596 -17.76365,-39.92793 -4.01792,-17.36197 -33.83518,-68.73524 -28.21089,-34.19436 5.62426,34.54089 19.23542,60.67582 25.25498,76.82355 6.01956,16.14772 5.76422,21.68505 8.10765,33.31547 2.34343,11.63042 8.68646,25.23407 12.61191,35.11631 3.92544,9.88225 10.25441,16.77134 12.61191,24.31131 2.3575,7.53997 6.16243,13.0373 8.81573,20.77825 2.65331,7.74095 5.14685,12.71771 5.5979,23.34225 0.45104,10.62453 4.91075,18.66141 7.2068,27.91297 2.29604,9.25156 5.3806,17.05013 11.71507,24.56771 6.33447,7.51758 10.78599,15.55972 18.01301,20.4532 7.22702,4.89349 16.07726,5.80206 18.91787,12.60587 2.8406,6.8038 6.0862,12.07922 8.10766,19.8092 2.02145,7.72998 3.24941,16.8818 3.60339,23.2408 0.35398,6.35901 0.11134,11.4678 0,18.17845 -0.11134,6.71066 0.2587,24.928 -0.90084,36.91716 -1.15954,11.98915 -2.72685,21.29594 -2.70255,33.9608 0.0243,12.66486 -1.2682,27.23025 -2.70256,38.97308 -1.43437,11.74284 -4.84436,24.2665 -9.00851,32.41507 -4.16415,8.14857 -9.05138,11.60579 -11.71106,16.20753 -2.65969,4.60174 -17.33313,17.3247 -4.09637,18.00837 13.23676,0.68366 30.42226,-2.38899 43.72859,-0.81665 13.30632,1.57233 27.53651,4.38202 33.55625,1.70824 6.01975,-2.67379 1.29119,-3.60265 -8.32721,-8.99536 -9.6184,-5.3927 -16.1231,-34.21416 -18.16014,-45.02091 -2.03704,-10.80676 -1.68865,-17.25657 -2.70256,-26.51984 -1.01391,-9.26327 0.52416,-20.20023 0.18942,-29.30612 -0.33473,-9.10589 -0.50128,-14.02446 -0.90085,-22.83311 -0.39957,-8.80865 -0.6559,-13.88526 0,-22.01772 0.6559,-8.13247 -2.01484,-17.62568 -0.18942,-28.08306 1.82542,-10.45737 -1.99521,-19.39771 3.60341,-38.71799 5.59861,-19.32027 9.88657,-28.09515 19.061,-38.71798 9.17444,-10.62283 5.3373,-8.95375 9.10512,-13.1066 3.76782,-4.15284 2.87735,-5.48352 13.41615,-17.50763 10.5388,-12.0241 17.0042,-9.915 39.18701,-41.86946 22.18282,-31.95445 86.74978,-121.20594 98.64317,-149.91966 11.89337,-28.71372 7.91636,-12.94288 10.81021,-20.25942 2.89385,-7.31654 4.99798,-13.87967 6.30597,-23.41088 1.30798,-9.53121 4.43643,-31.32818 0.32276,-33.47667 -4.11367,-2.14849 -12.97896,41.53761 -19.69106,55.08671 -6.7121,13.54911 -17.34138,26.11213 -17.56659,27.01255 -0.22521,0.90042 -25.78518,37.15659 -30.17851,40.06863 -4.39334,2.91204 -21.74612,33.35204 -23.84054,25.35294 -2.09443,-7.99911 11.09072,-24.90931 15.61033,-33.42472 4.5196,-8.51542 7.4049,-11.18982 8.60335,-19.80921 1.19847,-8.61937 11.1127,-25.4688 11.78834,-27.49475 0.67564,-2.02594 10.585,-39.61842 10.81021,-40.96904 0.22522,-1.35063 2.76433,-32.31777 2.25213,-25.66192 -0.5122,6.65585 -0.48351,-27.48493 -5.69367,-20.26801 -5.21017,7.21691 -16.34741,52.83208 -19.98057,60.33663 z"
   id="path825"
   inkscape:connector-curvature="0"
   sodipodi:nodetypes="czcczzzzzzzzzzzzzzzzzzzzzzzzzzzzzzzzzzzzzzzzzzzzzzzzzzzzzzzzzzzzzzzzzzzzzzzzzzzzzzzzzzzzzzzzzzzzzzzzzzzzzzzc" /></svg>