<?xml version="1.0" encoding="UTF-8" standalone="no"?>
<!-- Created with Inkscape (http://www.inkscape.org/) -->

<svg
   xmlns:dc="http://purl.org/dc/elements/1.1/"
   xmlns:cc="http://creativecommons.org/ns#"
   xmlns:rdf="http://www.w3.org/1999/02/22-rdf-syntax-ns#"
   xmlns:svg="http://www.w3.org/2000/svg"
   xmlns="http://www.w3.org/2000/svg"
   xmlns:sodipodi="http://sodipodi.sourceforge.net/DTD/sodipodi-0.dtd"
   xmlns:inkscape="http://www.inkscape.org/namespaces/inkscape"
   version="1.1"
   width="297mm"
   height="210mm"
   viewBox="0 0 1122.5197 793.70079"
   id="Layer_1"
   xml:space="preserve"
   sodipodi:docname="gastrotricha.svg"
   inkscape:version="0.92.3 (unknown)"><sodipodi:namedview
   pagecolor="#ffffff"
   bordercolor="#666666"
   borderopacity="1"
   objecttolerance="10"
   gridtolerance="10"
   guidetolerance="10"
   inkscape:pageopacity="0"
   inkscape:pageshadow="2"
   inkscape:window-width="2495"
   inkscape:window-height="1416"
   id="namedview32"
   showgrid="false"
   units="mm"
   inkscape:zoom="0.73249998"
   inkscape:cx="207.77292"
   inkscape:cy="272.51178"
   inkscape:window-x="65"
   inkscape:window-y="24"
   inkscape:window-maximized="1"
   inkscape:current-layer="Layer_1" /><metadata
   id="metadata34"><rdf:RDF><cc:Work
       rdf:about=""><dc:format>image/svg+xml</dc:format><dc:type
         rdf:resource="http://purl.org/dc/dcmitype/StillImage" /><dc:title /></cc:Work></rdf:RDF></metadata><defs
   id="defs60" />
    
    
    
<path
   inkscape:connector-curvature="0"
   id="path825"
   d="m 231.4269,749.74478 c -4.176,-4.17596 -3.4092,-6.65996 4.9477,-16.0274 4.1366,-4.63689 9.5266,-10.0741 11.9779,-12.0827 2.4512,-2.0086 9.0073,-9.31517 14.5692,-16.23682 8.9829,-11.17914 11.2171,-14.83173 20.0031,-32.70114 5.4398,-11.06398 10.1797,-21.83312 10.5331,-23.93142 0.6048,-3.59125 0.3621,-4.07621 -4.1361,-8.26517 -3.8368,-3.57299 -6.4692,-4.96572 -13.356,-7.06633 -22.6981,-6.92335 -59.5857,-7.20174 -93.2355,-0.70365 -15.08165,2.91241 -18.50126,2.69505 -19.48857,-1.23872 -1.42649,-5.68357 -0.26422,-6.36929 26.12937,-15.41605 22.6954,-7.77913 26.4775,-9.42517 44.8831,-19.53359 11.0546,-6.07123 30.7181,-17.88899 43.6968,-26.26169 25.3806,-16.37336 45.968,-32.64339 103.9672,-82.16432 15.1606,-12.94446 37.6606,-31.06017 50,-40.25714 12.3394,-9.19697 33.2352,-24.84308 46.4352,-34.76913 185.6508,-139.60443 184.2095,-138.40685 198.6358,-165.0515 13.538,-25.00427 16.7017,-37.47084 21.8138,-85.95761 4.4095,-41.82197 5.6203,-47.60045 11.6685,-55.68328 2.9522,-3.94535 2.9709,-4.99722 0.1319,-7.40206 -10.5611,-8.9461 -31.8785,-19.47898 -44.5615,-22.01778 -17.7491,-3.5529 -42.5387,-11.169544 -45.6385,-14.022534 -1.8511,-1.70368 3.3644,-0.84122 21.5888,3.57005 10.0987,2.444424 21.9612,4.910464 26.3612,5.480084 6.7685,0.87625 10.1715,2.10975 22.1059,8.01269 7.7583,3.83735 16.3083,8.70832 19,10.82439 6.6154,5.20055 7.3941,5.61739 7.3941,3.95797 0,-0.76917 -1.1956,-1.94327 -2.657,-2.60911 -5.506,-2.50873 -23.1167,-16.21322 -30.1097,-23.431244 -6.175,-6.37366 -12.3063,-15.93952 -11.0328,-17.21303 0.2022,-0.20219 3.4083,3.22593 7.1246,7.61806 6.2651,7.40434 20.8705,19.868624 33.4874,28.578164 l 5.3125,3.66724 2.6517,-2.65177 2.6518,-2.65177 -5.9642,-5.25449 c -8.8732,-7.81723 -11.4643,-10.48724 -11.4643,-11.81335 0,-1.371344 4.7487,2.03344 13.7724,9.8748 l 6.2724,5.45053 3.9776,-1.79366 c 2.1877,-0.98651 3.9776,-1.99669 3.9776,-2.24484 0,-0.24816 -2.0859,-2.76732 -4.6354,-5.59813 -5.008,-5.56053 -11.5485,-14.796324 -10.9221,-15.422784 0.8689,-0.86884 4.4535,1.98324 11.5054,9.15411 7.0061,7.124324 7.5548,7.476824 9.25,5.942664 2.3706,-2.14539 2.325,-2.38965 -1.2953,-6.933414 -3.8907,-4.8832 -6.2687,-9.38751 -4.9561,-9.38751 0.5488,0 3.1437,2.68167 5.7664,5.95927 5.2984,6.621314 7.2249,6.569454 4.9493,-0.13323 -1.4045,-4.13689 -3.7111,-17.9225 -3.6221,-21.6484 0.027,-1.13811 0.5097,-0.81257 1.5004,1.01228 1.3762,2.53472 3.4641,10.64463 4.9071,19.06008 0.7554,4.40514 3.0186,4.98 3.937,1 0.349,-1.5125 1.7218,-6.575 3.0506,-11.25 l 2.4159,-8.5 0.074,9.30902 c 0.047,5.93375 0.437,9.08493 1.0745,8.69098 0.55,-0.33992 1,-1.66908 1,-2.95368 0,-2.87238 3.9547,-15.92488 4.6227,-15.25695 0.2654,0.26545 -0.4198,4.00524 -1.5227,8.31063 -1.103,4.30539 -1.8304,8.00295 -1.6166,8.21678 0.2139,0.21384 3.2301,-0.5513 6.7027,-1.70031 8.4543,-2.79732 20.9929,-4.45578 28.157,-3.72428 11.069,1.13021 17.4545,5.52931 25.7434,17.735224 5.1921,7.64575 5.895,6.85569 6.642,-7.465994 0.2915,-5.58878 0.9082,-10.83642 1.3703,-11.66142 1.5243,-2.72096 0.9603,13.67402 -0.7359,21.393274 -1.5755,7.17002 -1.4235,10.60673 0.4691,10.60673 1.4069,0 6.0991,-11.26107 7.1497,-17.158924 0.5233,-2.9376 1.3632,-7.59108 1.8666,-10.34108 l 0.9152,-5 0.1182,6.11351 c 0.1736,8.97879 -1.4133,16.013654 -5.3751,23.827764 l -3.5193,6.94126 2.5532,3.8581 c 1.4042,2.12196 3.2851,4.13898 4.1797,4.48228 2.4803,0.95178 6.7791,-4.91684 9.987,-13.63397 l 2.7927,-7.58894 0.2992,4.08089 c 0.4087,5.57249 -3.0252,14.27663 -7.2463,18.36784 -3.3397,3.23694 -3.4035,3.43943 -1.9631,6.22489 l 1.4889,2.87912 5.0587,-4.26556 c 5.77,-4.86535 9.3063,-10.3735 11.9318,-18.58488 l 1.8233,-5.7023 0.054,5.57068 c 0.077,8.01444 -3.7248,15.0586 -11.4463,21.20626 -5.6786,4.5212 -8.2418,8.72402 -5.3195,8.72227 3.5614,-0.002 14.6866,-6.52504 19.0695,-11.18081 2.6125,-2.77515 4.75,-4.52223 4.75,-3.8824 0,2.02513 -2.7194,6.4676 -5.6607,9.24732 -2.765,2.6132 -14.7037,8.81431 -16.9727,8.81589 -1.2598,8.8e-4 -2.4965,4.80243 -1.4099,5.47399 1.0757,0.66485 13.5542,-2.16599 24.3983,-5.53496 5.4202,-1.68392 10.0788,-2.83778 10.3525,-2.56414 0.2736,0.27365 -2.6496,2.08238 -6.496,4.01941 -7.1927,3.62217 -20.4663,7.60649 -25.3408,7.60649 -1.514,0 -3.0671,0.50876 -3.4514,1.13058 -0.5094,0.82425 1.3035,0.94679 6.691,0.45224 4.7239,-0.43363 11.1776,-0.15039 17.8897,0.78515 5.775,0.80492 14.1,1.76134 18.5,2.12538 21.3567,1.76699 30.9661,4.21672 46,11.72685 4.95,2.47276 12.6,5.69182 17,7.15348 13.4533,4.46912 13.713,5.40104 1,3.5889 -8.6313,-1.23034 -14.4516,-3.05776 -25.8187,-8.10642 -10.3083,-4.57842 -17.2635,-6.30711 -31.6813,-7.87432 -5.775,-0.62773 -15.6208,-2.00545 -21.8795,-3.06159 -6.2588,-1.05614 -14.6335,-1.92025 -18.6107,-1.92025 h -7.2311 l 0.4615,9.25 c 0.4152,8.32191 0.1528,10.20317 -2.6153,18.75 -3.5226,10.87648 -23.1695,47.33082 -45.2713,84 -19.5278,32.39843 -30.1411,52.81405 -43.6687,84 -14.1715,32.67072 -38.7858,80.09288 -51.1582,98.56196 -10.1758,15.19003 -41.9744,56.17075 -52.9632,68.25673 -12.3524,13.58578 -50.4058,47.65491 -67.0635,60.04195 -20.8469,15.50223 -59.9727,39.57295 -83.7236,51.50802 -19.4727,9.78519 -79.9824,35.61853 -105.7759,45.15878 -15.9498,5.89934 -36.8748,14.33171 -46.5,18.7386 -14.793,6.77293 -20.1305,9.87548 -34.5005,20.05422 -24.3959,17.28044 -35.6163,26.45476 -58.6575,47.96112 -14.4703,13.50635 -17.659,14.99307 -22.269,10.383 z"
   style="fill:#000000" /></svg>