<?xml version="1.0" encoding="UTF-8" standalone="no"?>
<!-- Created with Inkscape (http://www.inkscape.org/) -->

<svg
   xmlns:dc="http://purl.org/dc/elements/1.1/"
   xmlns:cc="http://creativecommons.org/ns#"
   xmlns:rdf="http://www.w3.org/1999/02/22-rdf-syntax-ns#"
   xmlns:svg="http://www.w3.org/2000/svg"
   xmlns="http://www.w3.org/2000/svg"
   xmlns:sodipodi="http://sodipodi.sourceforge.net/DTD/sodipodi-0.dtd"
   xmlns:inkscape="http://www.inkscape.org/namespaces/inkscape"
   version="1.1"
   width="297mm"
   height="210mm"
   viewBox="0 0 1122.5197 793.70079"
   id="Layer_1"
   xml:space="preserve"
   sodipodi:docname="gnathostomulida.svg"
   inkscape:version="0.92.3 (unknown)"><metadata
   id="metadata34"><rdf:RDF><cc:Work
       rdf:about=""><dc:format>image/svg+xml</dc:format><dc:type
         rdf:resource="http://purl.org/dc/dcmitype/StillImage" /><dc:title /></cc:Work></rdf:RDF></metadata><sodipodi:namedview
   pagecolor="#ffffff"
   bordercolor="#666666"
   borderopacity="1"
   objecttolerance="10"
   gridtolerance="10"
   guidetolerance="10"
   inkscape:pageopacity="0"
   inkscape:pageshadow="2"
   inkscape:window-width="2495"
   inkscape:window-height="1416"
   id="namedview32"
   showgrid="false"
   units="mm"
   inkscape:zoom="0.51795572"
   inkscape:cx="-574.74403"
   inkscape:cy="300"
   inkscape:window-x="65"
   inkscape:window-y="24"
   inkscape:window-maximized="1"
   inkscape:current-layer="Layer_1" /><defs
   id="defs60" />
    
    
    
<g
   id="g838"
   transform="matrix(0.56261889,0.15070476,-0.15046329,0.56171743,969.82399,219.62135)"
   style="stroke-width:1.71825266"><path
     inkscape:connector-curvature="0"
     id="path822"
     d="m -1317.6802,504.10074 c 19.3754,-42.07424 60.6875,-95.26586 111.9787,-85.91468 50.7636,26.23272 108.5735,28.59036 163.4377,14.78881 74.14119,-8.90528 145.38693,-36.07236 220.27492,-38.13343 84.70655,0.64619 168.83187,31.84022 253.27133,12.68785 75.48777,-0.39813 149.32215,36.17316 224.90942,17.81768 89.15076,-0.97758 177.72299,12.70453 266.27495,20.28637 49.571448,-3.00217 96.668786,27.97453 146.328716,33.62986 44.671944,16.98802 113.463074,6.26359 87.588494,-57.21581 C 154.69414,362.96504 82.556212,352.4065 38.410749,368.45636 26.425714,382.55107 -6.166094,434.78456 4.4162708,384.28139 21.703623,332.55562 98.963278,329.37456 138.73445,356.69484 c 43.06875,27.65741 49.63696,85.41571 42.15323,131.44247 -17.39192,70.29622 -89.95284,101.7659 -154.721033,114.06367 -135.931867,29.22827 -275.975077,29.70252 -414.150767,36.64758 -110.98456,16.52153 -223.69156,6.5504 -334.55654,-4.50039 -70.70734,5.90497 -141.7994,8.60318 -212.26385,-2.37516 -53.6625,-6.93978 -107.92859,-11.74675 -158.22859,-32.75606 -52.5409,-28.41013 -107.0251,42.50127 -154.7278,1.73937 -28.8307,-21.5504 -81.8728,-55.63631 -69.9193,-96.85558 z"
     style="fill:#000000;fill-opacity:1;fill-rule:evenodd;stroke:#000000;stroke-width:1.71825266px;stroke-linecap:butt;stroke-linejoin:miter;stroke-opacity:1" /><path
     inkscape:connector-curvature="0"
     id="path825"
     d="m -1265.9057,446.1878 -27.5754,-79.15648 30.9035,73.56896 z"
     style="fill:#000000;fill-opacity:1;fill-rule:evenodd;stroke:#000000;stroke-width:1.71825266px;stroke-linecap:butt;stroke-linejoin:miter;stroke-opacity:1" /><path
     inkscape:transform-center-y="-4.1687692"
     inkscape:transform-center-x="-13.376379"
     style="fill:#000000;fill-opacity:1;fill-rule:evenodd;stroke:#000000;stroke-width:1.71825266px;stroke-linecap:butt;stroke-linejoin:miter;stroke-opacity:1"
     d="m -1294.088,474.85668 -67.6977,-49.42843 67.2577,42.93974 z"
     id="path827"
     inkscape:connector-curvature="0" /><path
     style="fill:#000000;fill-opacity:1;fill-rule:evenodd;stroke:#000000;stroke-width:1.71825266px;stroke-linecap:butt;stroke-linejoin:miter;stroke-opacity:1"
     d="m -1267.7356,572.71265 -38.1839,74.61997 40.7132,-68.62837 z"
     id="path829"
     inkscape:connector-curvature="0" /><path
     inkscape:connector-curvature="0"
     id="path831"
     d="m -1291.7141,540.44538 -73.8439,39.66395 72.5171,-33.29715 z"
     style="fill:#000000;fill-opacity:1;fill-rule:evenodd;stroke:#000000;stroke-width:1.71825266px;stroke-linecap:butt;stroke-linejoin:miter;stroke-opacity:1"
     inkscape:transform-center-x="-12.677179"
     inkscape:transform-center-y="5.9661209" /></g></svg>