<?xml version="1.0" encoding="UTF-8" standalone="no"?>
<!-- Created with Inkscape (http://www.inkscape.org/) -->

<svg
   xmlns:dc="http://purl.org/dc/elements/1.1/"
   xmlns:cc="http://creativecommons.org/ns#"
   xmlns:rdf="http://www.w3.org/1999/02/22-rdf-syntax-ns#"
   xmlns:svg="http://www.w3.org/2000/svg"
   xmlns="http://www.w3.org/2000/svg"
   xmlns:sodipodi="http://sodipodi.sourceforge.net/DTD/sodipodi-0.dtd"
   xmlns:inkscape="http://www.inkscape.org/namespaces/inkscape"
   width="297mm"
   height="210mm"
   viewBox="0 0 297 210"
   version="1.1"
   id="svg11109"
   inkscape:version="0.92.3 (2405546, 2018-03-11)"
   sodipodi:docname="hemichordata.svg">
  <defs
     id="defs11103" />
  <sodipodi:namedview
     id="base"
     pagecolor="#ffffff"
     bordercolor="#666666"
     borderopacity="1.0"
     inkscape:pageopacity="0.0"
     inkscape:pageshadow="2"
     inkscape:zoom="0.35"
     inkscape:cx="-51.428571"
     inkscape:cy="560"
     inkscape:document-units="mm"
     inkscape:current-layer="layer1"
     showgrid="false"
     inkscape:window-width="1865"
     inkscape:window-height="1025"
     inkscape:window-x="55"
     inkscape:window-y="27"
     inkscape:window-maximized="1" />
  <metadata
     id="metadata11106">
    <rdf:RDF>
      <cc:Work
         rdf:about="">
        <dc:format>image/svg+xml</dc:format>
        <dc:type
           rdf:resource="http://purl.org/dc/dcmitype/StillImage" />
        <dc:title></dc:title>
      </cc:Work>
    </rdf:RDF>
  </metadata>
  <g
     inkscape:label="Layer 1"
     inkscape:groupmode="layer"
     id="layer1"
     transform="translate(0,-87)">
    <path
       style="overflow:inherit;fill:#000000;stroke-width:0.26458332"
       d="m 45.321893,229.20029 c 2.88624,2.45534 10.74566,6.27675 17.46539,8.49204 13.39054,4.41444 16.99116,6.67026 25.95886,16.26338 6.21705,6.65066 17.283257,12.87678 32.602157,18.34281 10.20321,3.64066 26.21719,3.30416 41.38423,-0.86963 13.47094,-3.70705 28.39786,-17.43546 41.1516,-30.86966 2.97804,-3.13692 2.70879,-2.96593 6.8174,-7.93447 1.94358,-1.93691 4.06449,-2.48821 6.84949,-4.76034 5.58735,-4.55843 20.96802,-15.31754 28.4936,-25.17595 3.40237,-4.45707 6.25589,-11.54255 8.83909,-21.94807 2.09809,-8.45139 1.45695,-16.34039 1.45695,-16.34039 0,0 1.9596,-3.45046 2.96647,-6.47698 2.79514,-8.40174 0.27624,-18.04798 -7.53582,-28.85872 -10.32873,-14.29341 -24.47513,-22.50768 -27.73124,-16.10245 -0.44812,0.88151 -0.0668,2.79542 0.84744,4.25313 2.52173,4.02089 2.12826,11.33471 -0.99531,18.5011 -2.07669,4.76451 -2.30101,8.52488 -0.86121,14.43666 0.67153,2.75729 3.00652,7.79287 3.00652,7.79287 0,0 -1.69798,4.5516 -1.86267,5.67397 -0.95444,6.50445 -6.40614,21.90548 -8.04385,21.50757 -0.6333,-0.15387 -2.24823,-7.27333 -3.58872,-12.69446 -3.40314,-13.76271 -8.1478,-23.0546 -16.49201,-32.29784 -20.51203,-22.72205 -41.97519,-32.93251 -64.38278,-30.62821 -9.57485,0.98461 -12.47128,2.00446 -22.16273,7.80369 -18.488817,11.06339 -27.646447,23.78516 -33.168707,46.07796 -2.79174,11.26996 -2.82707,14.43385 -0.27047,24.2278 3.63879,13.93977 10.44686,23.53481 23.64122,33.31902 7.630397,5.65827 12.703507,7.69592 31.707077,12.73534 15.59644,4.13592 23.23617,4.81524 31.47595,5.22422 8.23977,0.40898 20.25144,0.36735 20.25144,0.36735 0,0 -7.72374,5.75 -15.74476,10.04134 -12.23765,6.54729 -16.10239,7.93295 -24.02454,8.61373 -8.02777,0.68986 -11.18172,-0.0547 -21.07154,-4.9747 -6.39686,-3.18231 -12.2436,-6.27228 -12.99274,-6.86661 -0.74914,-0.59434 -3.86106,-2.80727 -6.91539,-4.91763 -3.054307,-2.11037 -7.779867,-5.72653 -10.501237,-8.03594 -5.29513,-4.49357 -14.29581,-10.67865 -24.92695,-11.04201 -10.63115,-0.36337 -12.65951,-5.83715 -14.9717,-9.52393 -1.07952,-1.7213 -1.69759,-5.48643 -1.37347,-8.36695 0.56284,-5.00225 6.01516,-9.42502 10.69741,-10.66192 9.29939,-2.45661 10.11211,-5.9374 10.13244,-8.53666 0.0349,-4.46808 -4.41246,-5.07719 -14.7614,-2.0217 -9.88658,2.919 -12.42865,5.58752 -17.71213,18.59326 -4.59441,11.30953 -2.59077,20.03491 6.34664,27.63798 z m 38.15495,13.42496 c 1.37278,0.65544 3.35328,2.69205 4.40113,4.5258 1.75764,3.07578 1.63796,3.07802 -1.54468,0.0288 -4.97064,-4.76229 -5.68841,-5.90677 -2.85645,-4.55461 z m 8.03849,8.20355 c 0.70714,0.17181 1.45765,1.26633 1.66775,2.43231 0.23226,1.28846 -0.272,1.16594 -1.28569,-0.31238 -0.91728,-1.33777 -1.08925,-2.29171 -0.38211,-2.1199 z m 8.634547,8.66727 c 0.27242,-0.16286 1.94827,0.24432 3.7241,0.90482 2.9263,1.08843 2.90876,1.1622 -0.1872,0.78743 -3.25151,-0.39359 -4.616667,-1.04676 -3.5369,-1.69225 z m 8.42496,3.01494 c 0.99898,0.011 2.24468,0.72282 2.76823,1.58184 0.57223,0.9383 -0.0443,1.0862 -1.54404,0.37014 -3.19668,-1.52629 -3.47921,-1.97678 -1.22419,-1.95198 z M 61.166533,184.39443 c 3.05101,-1.8239 8.20453,-0.35643 7.00877,1.99577 -0.9947,1.95673 -7.56901,2.51105 -8.68458,0.73227 -0.43308,-0.69054 0.32104,-1.91816 1.67581,-2.72804 z m 54.931387,83.45987 c 0.22578,-0.13497 3.33806,0.6212 6.91618,1.68039 l 6.50567,1.9258 -6.66081,-1.27319 c -6.20882,-1.1868 -7.77459,-1.7271 -6.76104,-2.333 z M 97.377633,206.7728 c 1.03262,0.0114 4.864427,1.96082 8.515107,4.33214 9.74922,6.33259 18.46014,10.02856 23.59073,10.00934 7.21307,-0.027 21.87341,4.19177 19.49897,5.61121 -5.96219,3.56421 -39.03861,-6.16283 -50.152487,-14.74874 -3.63778,-2.81031 -4.31457,-5.23544 -1.45232,-5.20395 z m 7.394287,14.32533 c 0.39661,0.17292 3.83236,1.67506 7.635,3.33807 l 6.91392,3.02365 -6.85607,-2.09604 c -3.77083,-1.15283 -7.20659,-2.65496 -7.63501,-3.33808 -0.42842,-0.68311 -0.45445,-1.10054 -0.0578,-0.9276 z M 88.290183,181.49535 c -3.46261,-24.20364 15.736257,-54.14403 38.013737,-59.28192 15.39822,-3.55132 35.01525,2.50093 51.62355,15.92694 13.15151,10.63156 21.20687,24.07027 23.60832,33.46062 2.40145,9.39034 3.22966,11.32662 3.68644,18.58615 0.8937,5.39313 1.39063,5.42532 1.10478,9.64213 -0.20165,1.68791 -2.19732,2.9908 -2.45235,2.49061 -0.60156,-1.17986 -1.29931,-9.1134 -1.84632,-15.3567 -0.71321,-8.14016 -2.24477,-12.82701 -7.58137,-23.20044 -3.72646,-7.24359 -8.03315,-14.02924 -9.72647,-15.32507 -1.67137,-1.27905 -4.09847,-4.0151 -5.39355,-6.08011 -1.31774,-2.10113 -3.61094,-3.71479 -5.20732,-3.66422 -1.56893,0.0497 -5.87907,-2.337 -9.57808,-5.30379 -3.699,-2.96676 -7.96167,-5.5691 -9.47257,-5.78293 -1.51091,-0.21386 -4.43688,-1.17324 -6.50217,-2.13199 -9.08426,-4.21711 -25.36101,-2.26996 -33.76519,4.03925 -16.924157,12.70533 -27.213177,37.40618 -22.538727,54.10871 4.68519,16.74087 21.306897,29.20937 44.367987,33.2819 6.48248,0.83104 15.04505,2.01592 19.88448,2.65163 4.83943,0.63571 9.27103,0.16925 13.67985,0.3078 4.40883,0.13855 12.58494,-2.24852 20.5851,-4.01182 7.32609,-1.62253 11.3914,-5.30895 16.7179,-9.18681 5.32649,-3.87786 7.88128,-11.00894 10.1545,-16.09445 2.27321,-5.08552 5.8137,-13.87111 7.16091,-18.43971 1.83009,-5.20428 2.65817,-9.64796 2.65562,-10.53354 -0.003,-0.88557 0.93673,-2.44088 0.93673,-2.44088 0,0 2.22927,1.4577 4.2814,2.64928 4.05469,2.3544 16.49885,3.78175 18.75949,2.51209 1.1109,-0.62394 -4.35237,-3.91747 -8.36541,-6.30541 -3.81472,-2.26991 -6.89727,-5.39745 -8.59981,-8.72531 -2.40491,-4.70073 -2.90666,-4.98351 -5.35028,-3.01543 -1.48309,1.19446 -3.00514,1.67964 -3.38235,1.07818 -1.43571,-2.28924 -0.11334,-9.68439 2.27769,-12.7376 1.37152,-1.75136 2.06181,-5.33375 1.53398,-7.96089 -1.26097,-6.27618 0.13388,-6.8387 4.68789,-1.89054 3.37136,3.66316 5.31402,7.42583 9.57975,18.55476 1.13627,2.96444 2.31736,3.64243 5.67961,3.26032 3.69823,-0.42028 4.21346,-0.95881 4.00002,-4.18093 -0.13475,-2.03418 -1.66797,-6.93063 -3.40715,-10.88101 l -3.16215,-7.18249 4.23699,6.41311 c 6.08984,9.21759 8.05387,17.39609 6.12555,25.50761 -0.92631,3.89652 -3.4457,7.75739 -3.4457,7.75739 0,0 -1.57882,16.783 -3.66095,19.15067 -1.21696,1.38385 -1.7085,3.31997 -1.09231,4.30248 0.61619,0.98251 -3.81745,0.44305 -9.85252,-1.19881 -11.75288,-3.1974 -14.66938,-2.21356 -17.05388,5.75292 -1.90002,6.34788 -11.17171,17.30098 -18.20334,21.50449 -6.90745,4.12928 -20.58395,7.68212 -34.7931,9.03845 -4.68024,0.44674 -17.54059,-0.84903 -28.57856,-2.87949 -17.29654,-3.18176 -21.83411,-4.73757 -32.84585,-11.26196 -14.271507,-8.4558 -17.476327,-12.88408 -19.484797,-26.92324 z m 59.361097,89.64964 c 2.73855,-0.12341 4.57888,0.0472 4.08963,0.37903 -1.5042,1.02034 -9.49406,1.63419 -9.27496,0.71257 0.11338,-0.47698 2.44679,-0.9682 5.18533,-1.0916 z M 82.222553,160.81222 c 5.06475,-18.94508 14.52646,-31.68385 30.725997,-41.36795 11.55455,-6.90733 22.24309,-8.16986 38.34488,-4.52933 22.31523,5.0454 45.09635,24.03186 53.59139,44.66464 5.18325,12.58909 8.46972,24.62162 9.05419,31.53978 -0.82415,2.42943 -2.71498,5.77416 -4.10127,5.43734 -1.10923,-0.75295 -1.42456,-3.49395 -2.16571,-10.12682 -2.74905,-24.60277 -13.75355,-42.02096 -35.16708,-55.66329 -30.24114,-19.2663 -60.86125,-14.66883 -77.890897,11.69498 -3.27187,5.06522 -6.74521,11.94058 -7.71852,15.2786 -4.15974,14.26597 -4.26575,14.50694 -5.50957,12.52367 -0.65178,-1.03927 -0.27531,-5.29248 0.83659,-9.45162 z m 37.812357,67.11536 c 0.27242,-0.16286 1.94827,0.24431 3.7241,0.90482 2.92629,1.08843 2.90876,1.1622 -0.1872,0.78743 -3.25151,-0.3936 -4.61667,-1.04677 -3.5369,-1.69225 z M 95.698413,182.61697 c -2.01447,-8.5606 2.55888,-32.90161 6.649727,-35.39232 1.34165,-0.81629 4.27112,-3.74047 6.51053,-6.49725 8.90118,-10.95779 22.77413,-15.62469 35.73327,-12.02083 8.462,2.35324 20.83973,9.60283 31.73872,18.58924 8.70015,7.17343 10.43598,9.33011 16.02238,19.90696 4.68256,8.86561 6.47466,14.12165 7.09458,20.80764 0.45973,4.95827 2.22332,13.5172 1.69994,17.3607 -2.37926,2.41442 -3.30243,2.87939 -4.50253,3.59681 -2.70405,1.61649 -16.44134,4.54004 -28.58792,5.17788 -7.18819,0.37746 -13.80594,0.31376 -17.277,-0.13967 -5.6294,-0.73538 -10.6269,-1.27848 -16.76493,-2.9247 -6.13803,-1.64621 -13.19483,-2.15236 -21.62033,-7.20222 -11.03836,-6.61589 -14.196167,-10.63724 -16.696437,-21.26224 z m 63.791547,85.09542 c 2.82949,-1.04321 5.70335,-1.61627 6.38632,-1.27346 0.68299,0.3428 -1.72223,1.5756 -5.3449,2.73955 -7.72148,2.48086 -8.55688,1.30478 -1.04141,-1.4661 z m -22.73827,-37.21024 c 14.19921,2.54842 43.96181,1.86603 56.45851,-1.29446 7.30961,-1.84866 14.10602,-4.74363 20.64091,-8.79214 12.71698,-7.87846 15.59319,-10.67782 21.51823,-20.94325 l 4.93713,-8.55386 4.92764,1.27408 c 4.60147,1.18975 4.67493,1.27492 1.10983,1.28682 -3.26783,0.0109 -4.14093,0.76925 -6.06094,5.26425 -7.49903,12.39106 -24.5945,26.82526 -34.04011,30.74826 -4.50965,1.83153 -7.02938,2.37648 -11.00398,4.15457 -10.91604,3.46631 -20.34443,1.44537 -31.80856,1.17084 -5.75224,-0.13774 -14.33897,-0.0324 -22.49913,-1.96508 -7.28218,-1.72468 -13.37396,-3.34887 -13.53729,-3.60931 -0.16333,-0.26044 4.04766,0.30624 9.35776,1.25928 z m 37.95069,18.98807 c 1.3071,-0.21022 1.18962,0.28398 -0.29954,1.26005 -1.34756,0.88326 -2.3153,1.03891 -2.15055,0.34588 0.16475,-0.69302 1.26729,-1.41569 2.45009,-1.60593 z m 16.12509,1.08449 c 1.46801,-0.42755 0.60282,0.45787 -1.92264,1.9676 -2.52546,1.50972 -3.72656,1.85953 -2.66911,0.77735 1.05745,-1.08218 3.12374,-2.31741 4.59175,-2.74495 z m -6.94158,-6.57439 c 1.3071,-0.21023 1.18961,0.28396 -0.29955,1.26004 -1.34756,0.88325 -2.3153,1.0389 -2.15055,0.34588 0.16475,-0.69302 1.26729,-1.41569 2.45009,-1.60593 z m 12.97158,-8.25801 c 1.24683,-0.78022 2.59829,-0.89028 3.00325,-0.24457 0.99612,1.58832 -5.19611,8.89105 -7.51737,8.8655 -2.1927,-0.0241 1.23401,-6.56833 4.51412,-8.62093 z m -3.93141,-13.15525 c 7.14768,-1.75912 7.33859,-1.71138 3.29422,0.82375 -2.36124,1.4801 -5.88267,2.77092 -7.82539,2.86849 -5.95468,0.29908 -3.4744,-1.72199 4.53117,-3.69224 z m 27.08388,-16.63676 c 2.36726,-2.46398 4.77292,-4.36606 5.34592,-4.22684 2.13711,0.51924 -0.13522,4.14637 -5.29769,8.45624 -6.4618,5.39462 -6.49502,2.48083 -0.0482,-4.2294 z m 10.9143,-91.18955 c 1.3655,0.33176 2.31814,1.29556 2.11697,2.14176 -0.20116,0.84621 -1.42153,1.00863 -2.71193,0.36094 -3.03847,-1.52509 -2.62035,-3.28391 0.59496,-2.5027 z"
       id="path11114"
       inkscape:connector-curvature="0"
       sodipodi:nodetypes="sscssscssscssscsscscssccscsszcsscccczscsccsscccccccccccscccccscsscscscscsscsccccscssszccssssssccscsczzczzczcscssccccssssscsscssssssscsccccsscsccsssccsccscccccssscssszccccsccsssscsccccsscscccccssssccsccsccsscssccscccsc" />
  </g>
</svg>
