<?xml version="1.0" encoding="UTF-8" standalone="no"?>
<!-- Created with Inkscape (http://www.inkscape.org/) -->

<svg
   xmlns:dc="http://purl.org/dc/elements/1.1/"
   xmlns:cc="http://creativecommons.org/ns#"
   xmlns:rdf="http://www.w3.org/1999/02/22-rdf-syntax-ns#"
   xmlns:svg="http://www.w3.org/2000/svg"
   xmlns="http://www.w3.org/2000/svg"
   xmlns:sodipodi="http://sodipodi.sourceforge.net/DTD/sodipodi-0.dtd"
   xmlns:inkscape="http://www.inkscape.org/namespaces/inkscape"
   version="1.1"
   width="297mm"
   height="210mm"
   viewBox="0 0 1122.5197 793.70082"
   id="Layer_1"
   xml:space="preserve"
   sodipodi:docname="hexapoda.svg"
   inkscape:version="0.92.3 (unknown)"><metadata
   id="metadata13"><rdf:RDF><cc:Work
       rdf:about=""><dc:format>image/svg+xml</dc:format><dc:type
         rdf:resource="http://purl.org/dc/dcmitype/StillImage" /><dc:title /></cc:Work></rdf:RDF></metadata><sodipodi:namedview
   pagecolor="#ffffff"
   bordercolor="#666666"
   borderopacity="1"
   objecttolerance="10"
   gridtolerance="10"
   guidetolerance="10"
   inkscape:pageopacity="0"
   inkscape:pageshadow="2"
   inkscape:window-width="2495"
   inkscape:window-height="1416"
   id="namedview11"
   showgrid="false"
   units="mm"
   inkscape:zoom="0.55589226"
   inkscape:cx="559.46093"
   inkscape:cy="396.85039"
   inkscape:window-x="65"
   inkscape:window-y="24"
   inkscape:window-maximized="1"
   inkscape:current-layer="Layer_1" /><defs
   id="defs19" />
    
    
    
<path
   inkscape:connector-curvature="0"
   id="path868"
   d="m 669.74435,634.62195 c -1.43329,-0.31927 -3.21558,-2.96423 -4.19065,-6.21894 -0.93329,-3.11487 -2.16644,-5.66341 -2.74036,-5.66341 -0.57392,0 -1.5,-4.87105 -2.05793,-10.82457 -0.78314,-8.35679 -2.18315,-13.03797 -6.14137,-20.53321 -2.8199,-5.33974 -5.63777,-10.044 -6.26213,-10.45388 -2.4098,-1.58224 -15.3097,-28.44472 -16.26835,-33.87668 -0.55548,-3.14821 -1.24093,-15.12608 -1.52306,-26.61747 -0.28213,-11.49139 -1.00721,-25.07861 -1.61124,-30.19383 -0.92969,-7.87216 -1.30058,-8.75727 -2.41586,-5.76371 -0.7245,1.94518 -1.01197,8.78861 -0.63862,15.20762 0.37334,6.41901 0.15879,13.87581 -0.47695,16.57066 -0.80562,3.41508 -1.20043,3.91736 -1.30332,1.65764 -0.33703,-7.4101 -4.40361,-1.3914 -4.45059,6.5871 -0.0144,1.83974 -0.97233,4.29765 -2.1366,5.46199 -1.16442,1.16434 -2.91889,5.99931 -3.89901,10.74437 -1.23631,5.98616 -2.35274,8.4083 -3.6467,7.9118 -1.24121,-0.4763 -1.87205,0.59432 -1.88675,3.20174 -0.0173,3.05857 -0.32838,3.44351 -1.41888,1.75594 -1.08256,-1.67499 -1.43934,-1.1886 -1.58602,2.16139 -0.11384,2.60704 -0.45663,3.29155 -0.86298,1.72465 -0.53472,-2.06253 -1.09438,-2.24894 -2.7147,-0.90427 -1.12248,0.93163 -2.04093,2.56677 -2.04093,3.63361 0,1.07697 -0.90346,1.59305 -2.03128,1.16028 -1.21239,-0.46523 -2.40404,0.39546 -2.9562,2.13508 -0.50879,1.60299 -2.999,4.20671 -5.53374,5.78607 -2.53473,1.57936 -5.41327,4.1871 -6.3967,5.79499 -0.99424,1.62521 -2.69612,2.5751 -3.83244,2.13903 -1.21974,-0.46804 -2.4098,0.36743 -2.95058,2.07152 -1.27565,4.01935 -4.88518,6.91597 -4.60578,3.69613 0.11527,-1.32166 -0.92608,-2.58387 -2.31298,-2.8049 -1.38689,-0.22104 -2.52162,0.21196 -2.52162,0.96223 0,0.75706 -1.41211,0.60838 -3.17321,-0.33412 -2.25361,-1.20611 -3.32537,-1.24172 -3.69843,-0.12291 -0.35821,1.07464 -1.66931,1.14032 -4.12522,0.20661 -4.72538,-1.79656 -4.85333,-1.76986 -4.85333,1.01316 0,1.90156 -0.58113,1.71182 -2.88186,-0.94094 -1.883,-2.17109 -2.89713,-2.62208 -2.92566,-1.30117 -0.0303,1.41149 -0.49222,1.25143 -1.52954,-0.53029 -0.81715,-1.40356 -2.06168,-2.19593 -2.76572,-1.7608 -0.70403,0.43512 -1.98386,-0.52387 -2.84395,-2.13108 -0.86024,-1.60723 -2.35174,-2.94007 -3.31442,-2.96189 -0.96283,-0.0218 -3.37148,-2.22663 -5.35276,-4.8996 -2.29323,-3.09378 -3.97076,-4.26615 -4.61586,-3.226 -0.59943,0.9663 -1.99036,-0.7115 -3.40405,-4.1062 -3.03229,-7.28109 -5.17379,-8.63736 -7.31645,-4.6337 -1.54021,2.87809 -1.76686,2.57175 -2.70001,-3.65065 -0.56009,-3.7358 -1.59424,-6.43652 -2.29799,-6.00157 -0.70375,0.43493 -1.27954,-1.43542 -1.27954,-4.15634 0,-2.72092 -0.97263,-7.70383 -2.16139,-11.07315 -1.18877,-3.36932 -2.16139,-7.66556 -2.16139,-9.54719 0,-1.88164 -0.64842,-3.42115 -1.44093,-3.42115 -0.79251,0 -1.45087,1.13473 -1.46297,2.52162 -0.0144,1.38689 -0.69842,3.49425 -1.52508,4.68301 -1.08934,1.56665 -1.29554,-0.0193 -0.74928,-5.7637 0.48357,-5.08724 0.333,-6.63517 -0.42061,-4.32278 -0.69294,2.126 -1.01124,-4.0745 -0.77666,-15.12974 0.21859,-10.30262 -0.0908,-17.47825 -0.68775,-15.94584 -2.00837,5.15664 -3.12825,-0.19274 -2.83373,-13.53656 0.15807,-7.16556 -0.1549,-13.47062 -0.69553,-14.01124 -2.40693,-2.40694 -4.53086,3.89067 -9.16891,27.18726 -3.89122,19.54562 -4.8261,27.29348 -4.31414,35.7589 0.35937,5.94382 -0.0144,12.42799 -0.82406,14.40926 -0.81268,1.98128 -1.68517,4.6489 -1.93891,5.92802 -0.25361,1.27914 -2.0307,5.49385 -3.94901,9.36603 -1.9183,3.87218 -4.93993,10.27396 -6.71472,14.22618 -1.77479,3.95222 -4.00318,7.84272 -4.95189,8.64556 -0.94885,0.80284 -2.58185,4.19865 -3.62911,7.54625 -1.04713,3.34761 -3.10246,7.3731 -4.56745,8.94555 -1.46499,1.57244 -2.66356,3.21737 -2.66356,3.6554 0,0.43804 -1.27219,3.54513 -2.8271,6.90466 -1.5549,3.35952 -4.04353,10.6121 -5.52999,16.11683 -1.4866,5.50471 -3.55851,10.29376 -4.60419,10.64234 -2.64583,0.88195 -0.87911,-17.66458 2.1186,-22.23963 1.20836,-1.84424 2.19712,-4.52853 2.19712,-5.96509 0,-1.43656 0.88026,-3.89095 1.95635,-5.45417 1.07594,-1.56323 2.79568,-5.42035 3.82148,-8.57138 1.02594,-3.15102 3.06096,-7.68994 4.52249,-10.08649 1.46139,-2.39653 2.65967,-5.17385 2.66255,-6.17178 0,-0.99794 2.68358,-8.08293 5.95693,-15.74444 5.93129,-13.88261 5.9529,-13.999 6.31645,-34.20873 0.42839,-23.81388 0.50087,-24.21509 8.07928,-44.7745 3.21341,-8.71761 6.19714,-17.72728 6.63057,-20.02149 0.43357,-2.2942 3.66874,-8.29206 7.18965,-13.32857 3.52076,-5.0365 5.94757,-9.15728 5.39295,-9.15728 -0.55447,0 -0.26931,-0.89044 0.63401,-1.97875 0.90317,-1.08832 1.26715,-2.9563 0.80865,-4.15106 -0.56946,-1.48383 0.49813,-2.63656 3.3686,-3.6372 2.31124,-0.80569 5.64584,-3.80085 7.4104,-6.6559 1.76456,-2.85505 3.7562,-5.191 4.42595,-5.191 0.66988,0 2.9147,-3.70664 4.98877,-8.23698 2.07407,-4.53035 5.0395,-9.41874 6.5898,-10.86309 1.55043,-1.44434 2.81888,-3.24925 2.81888,-4.01089 0,-2.50504 -7.14484,-1.44459 -10.08649,1.49706 -1.58502,1.58502 -3.5075,2.88185 -4.27206,2.88185 -0.7647,0 -2.14078,1.45894 -3.05793,3.24209 -6.72164,13.06732 -18.60669,15.02475 -18.60669,3.06446 0,-6.41947 5.92221,-13.1408 12.695,-14.40775 6.57985,-1.2309 8.814,-4.00957 8.87308,-11.03629 0.0533,-6.30955 -2.65275,-8.1554 -7.86544,-5.36565 -2.15894,1.15542 -4.87653,1.40529 -7.46775,0.68658 -2.2405,-0.62141 -4.98129,-1.30955 -6.09065,-1.5292 -1.10952,-0.21962 -2.41284,-1.03944 -2.89627,-1.8218 -1.37767,-2.22902 -8.6202,-3.57056 -10.59528,-1.96257 -4.99396,4.06573 -21.32773,11.5748 -25.88308,11.8992 -0.57522,0.0409 -2.82926,0.99976 -5.00909,2.13065 -2.57091,1.3338 -4.45621,1.56327 -5.3663,0.65315 -2.24108,-2.24102 -5.1395,-1.62502 -5.26328,1.11856 -0.062,1.38689 -0.42464,1.75955 -0.80461,0.8281 -0.37997,-0.93143 0.6683,-4.35787 2.32969,-7.61429 1.66124,-3.25641 2.67897,-6.47346 2.26139,-7.149 -0.41744,-0.67553 0.16888,-1.99841 1.30317,-2.93971 1.73301,-1.4383 2.13286,-0.6019 2.50563,5.24021 l 0.44366,6.95168 5.04325,-0.48382 c 6.36774,-0.61088 13.1352,-3.76863 18.26447,-8.52233 3.63373,-3.3677 3.75332,-3.78277 1.33444,-4.63129 -2.38041,-0.83502 -2.24713,-1.20064 1.28113,-3.51239 2.80865,-1.84033 5.44151,-2.33515 9.18029,-1.72535 2.88329,0.47025 7.27754,1.18846 9.76501,1.59602 4.4542,0.72982 7.44427,-2.01252 5.54498,-5.08567 -0.41167,-0.66624 -0.0504,-1.6426 0.80202,-2.16969 2.1722,-1.34245 -2.82119,-4.90108 -6.9578,-4.95866 -2.77336,-0.0386 -3.06543,0.3789 -1.85188,2.64658 1.79208,3.34844 0.70807,4.51223 -4.2029,4.51223 -2.10332,0 -9.93836,1.31505 -17.4113,2.92233 -9.39642,2.02097 -15.91532,2.63704 -21.13566,1.9974 -8.61746,-1.0559 -8.82049,-3.4788 -0.29149,-3.4788 5.44295,0 7.35881,-1.67338 4.17133,-3.64336 -0.8291,-0.51238 -4.63848,-0.50093 -8.46544,0.0254 -6.1395,0.84439 -6.95809,1.36785 -6.95809,4.44887 0,1.92052 0.56729,3.49187 1.26081,3.49187 0.69337,0 1.26081,0.61735 1.26081,1.37189 0,1.75204 -12.2022,19.25333 -15.10135,21.65935 -3.00145,2.49093 -2.749,0.53559 0.52609,-4.07676 1.49366,-2.10361 4.39684,-6.84102 6.45146,-10.52755 3.15102,-5.65414 3.39266,-6.83435 1.54467,-7.5435 -1.69251,-0.64951 -1.84813,-1.48097 -0.68372,-3.65647 0.82882,-1.54868 0.95101,-3.15935 0.27162,-3.57926 -1.2294,-0.75976 -51.13864,3.41435 -75.86207,6.34466 -15.9574,1.8913 -34.99709,6.3048 -43.5827,10.10267 -3.54454,1.56791 -9.01905,5.50346 -12.16546,8.74568 -5.62019,5.79123 -5.67452,5.9482 -3.08445,8.92454 2.47306,2.84182 2.27911,2.81888 -3.12724,-0.37016 -7.13864,-4.21081 -7.78231,-4.74316 -4.97711,-4.11702 1.22522,0.27347 5.76414,-2.50213 10.08649,-6.16799 4.32235,-3.66586 10.52208,-8.00858 13.77699,-9.65052 5.87048,-2.96132 5.91817,-3.05023 5.91817,-11.05648 0,-4.43915 0.8271,-9.61682 1.83819,-11.50594 1.01096,-1.88913 1.49597,-4.32657 1.07782,-5.41655 -1.25894,-3.28044 -29.03843,-10.02095 -44.65145,-10.83434 -7.72697,-0.40254 -14.04903,-1.19014 -14.04903,-1.75021 0,-1.07238 10.32582,-0.60046 29.539,1.35002 12.93117,1.31276 17.54213,2.2529 19.95972,4.06967 4.01557,3.01764 14.77915,4.62948 30.91508,4.62948 10.04514,0 17.77557,-0.60904 18.28969,-1.44093 0.48977,-0.79251 3.12177,-1.44093 5.84872,-1.44093 5.03129,0 10.72194,-4.02221 10.72194,-7.57848 0,-5.22768 -28.01061,-14.24271 -56.91661,-18.31826 -40.3631,-5.69091 -109.62774,-8.42422 -113.57026,-4.48168 -1.11225,1.11229 -0.79784,3.70804 1.10476,9.12215 4.46586,12.70743 4.33834,12.58563 13.45249,12.84558 l 8.23461,0.23486 -7.63662,0.84584 -7.63663,0.84582 3.7052,5.04325 c 14.89328,20.27237 29.1305,31.79762 55.51632,44.94124 5.94383,2.9608 9.98764,5.40757 8.9862,5.43724 -1.97104,0.0584 -2.27609,-0.0768 -16.19083,-7.17625 -34.62144,-17.66409 -64.53076,-50.20223 -65.28494,-71.02306 -0.24597,-6.7914 0.37205,-8.60262 5.48647,-16.07822 5.97394,-8.73196 16.13579,-17.7921 23.72213,-21.1501 2.40678,-1.06533 4.37595,-2.38114 4.37595,-2.924 0,-1.67722 24.78639,-5.84761 36.74363,-6.18221 8.81055,-0.24656 34.89868,1.85541 45.3892,3.65707 36.48528,6.26612 76.77518,20.23936 92.93978,32.23316 5.04772,3.74533 10.46992,5.41424 11.13246,3.42653 0.25519,-0.76525 2.06932,-0.13718 4.03172,1.39566 1.96225,1.53288 5.18892,3.28546 7.17019,3.89464 6.47682,1.99144 23.05483,10.81822 23.05483,12.27529 0,2.4961 -4.79583,1.48012 -13.6888,-2.89997 -15.15293,-7.46328 -23.01679,-4.79424 -12.51734,4.24849 9.29802,8.00805 15.76072,11.07816 19.02644,9.03862 2.1062,-1.31533 4.02753,-1.21884 8.7238,0.43814 3.31255,1.16872 6.58979,2.12495 7.28259,2.12495 2.27436,0 1.31787,-3.82356 -1.62205,-6.48417 -3.31975,-3.00425 -3.80074,-6.48417 -0.8964,-6.48417 1.09193,0 4.40404,1.0106 7.36025,2.2458 2.95635,1.23519 5.7372,1.8836 6.17985,1.44092 0.44265,-0.44268 -0.0591,-0.80487 -1.11629,-0.80487 -1.05677,0 -1.53156,-0.38966 -1.05533,-0.8659 1.13977,-1.13974 12.26214,4.87031 17.17196,9.27892 2.93804,2.63817 4.79526,3.24134 7.72019,2.50725 3.09641,-0.77717 3.72379,-1.63391 3.20059,-4.37097 -0.39597,-2.07096 -0.0331,-3.18886 0.92536,-2.85417 0.86686,0.30259 2.74396,-1.05713 4.1712,-3.02158 2.57018,-3.53747 2.54712,-3.62356 -2.39828,-8.96705 -12.94241,-13.98389 -16.17109,-18.17398 -12.49846,-16.21997 3.51226,1.8687 3.52552,1.85269 1.29914,-1.56878 -1.78358,-2.74113 -5.16183,-11.0942 -6.35146,-15.70463 -0.1023,-0.39626 -0.56585,-1.69309 -1.03012,-2.88185 -1.82767,-4.67963 -4.4467,-18.2108 -4.20246,-21.71178 0.1562,-2.23972 -1.02277,-4.88409 -2.9869,-6.69972 -1.78473,-1.64974 -5.83863,-6.00455 -9.00867,-9.67736 -13.88809,-16.09062 -29.57114,-30.6429 -38.47808,-35.70369 -2.93517,-1.66773 -5.67999,-3.92687 -6.09959,-5.02033 -1.45375,-3.78816 3.34958,-3.53539 9.98418,0.5254 3.66615,2.24385 8.27208,4.937 10.23548,5.98476 1.96341,1.04776 4.35059,3.15511 5.30478,4.68301 0.95418,1.5279 2.49107,2.77799 3.41528,2.77799 0.92421,0 3.82552,2.59367 6.44743,5.76371 2.62191,3.17004 5.32235,5.76371 6.00103,5.76371 1.44539,0 2.11787,0.6986 12.51603,13.00305 4.33705,5.13223 8.71386,9.84986 9.72626,10.48363 3.03531,1.90018 5.82754,8.52861 6.80665,16.15779 1.83315,14.28537 4.08459,25.94989 5.30852,27.50406 2.33199,2.96134 7.98533,1.36277 11.98015,-3.38751 2.52378,-3.00124 3.24526,-4.71805 2.00894,-4.78054 -1.0611,-0.0536 -0.44352,-0.81309 1.37234,-1.68766 1.83099,-0.88189 2.97422,-2.44294 2.56672,-3.50479 -0.40403,-1.05307 0.11672,-1.91466 1.15822,-1.91466 1.04107,0 3.08978,-1.32263 4.55275,-2.93919 2.6503,-2.92854 2.64454,-2.93118 -1.57781,-0.72934 -5.75161,2.99923 -9.40363,2.79077 -10.28692,-0.58715 -0.4049,-1.54812 -2.28935,-3.83252 -4.18791,-5.07646 -1.89842,-1.24395 -3.45174,-3.58623 -3.45174,-5.20507 0,-1.61885 -0.70807,-4.2664 -1.5735,-5.88343 -3.01441,-5.63253 5.63864,-28.49799 14.22166,-37.58033 5.03576,-5.32863 14.65596,-9.84884 18.70655,-8.78957 4.03359,1.05482 7.68547,-1.76594 6.47437,-5.00092 -0.7928,-2.11747 -0.59957,-2.16815 1.56139,-0.40979 3.56053,2.89707 4.47221,1.02241 1.61975,-3.3309 -2.09036,-3.19033 -2.18214,-4.37719 -0.62854,-8.12807 1.71168,-4.13227 1.52998,-4.69517 -3.07075,-9.51049 -2.68949,-2.81504 -8.12352,-7.31887 -12.07555,-10.00853 -3.95188,-2.68965 -6.42178,-4.89028 -5.48849,-4.89028 0.93329,0 2.11687,0.67944 2.62998,1.50988 0.51326,0.83043 2.07306,1.31677 3.46601,1.08078 1.39308,-0.23601 3.6052,0.46078 4.91572,1.5484 1.31038,1.08764 2.38272,1.52976 2.38272,0.9825 0,-0.54726 1.98646,0.41945 4.41427,2.14823 2.67019,1.90132 4.10002,3.96231 3.61875,5.2162 -0.43747,1.14012 -0.20115,1.70566 0.52522,1.25674 0.72637,-0.44894 1.7353,0.49001 2.24208,2.08654 0.58084,1.83004 2.17854,2.90278 4.3235,2.90278 1.87133,0 4.42134,1.01894 5.66659,2.26432 2.05851,2.05846 2.27479,1.89471 2.3781,-1.80116 0.0634,-2.26139 0.46643,-3.10635 0.90851,-1.90409 0.43718,1.18877 1.62753,3.13402 2.6454,4.32278 1.01772,1.18877 2.433,4.42986 3.14496,7.20243 1.81154,7.0541 5.70737,7.45993 6.97063,0.7261 0.6428,-3.42613 1.61946,-4.9738 2.84252,-4.50444 1.19265,0.45763 2.37234,-1.19725 3.27695,-4.5966 1.32537,-4.98086 1.42263,-5.0539 1.56226,-1.17268 0.12536,3.49337 0.48314,3.86161 2.29165,2.36073 1.22896,-1.01992 3.6869,-1.3907 5.76371,-0.86946 1.9915,0.49986 3.6281,0.41016 3.63689,-0.19932 0.0144,-0.60948 3.29468,-4.67444 7.3019,-9.03324 4.00736,-4.35881 6.87985,-7.11458 6.38331,-6.12394 -0.9611,1.91755 0.983,2.48695 2.68387,0.78605 0.55836,-0.5583 2.77378,-1.20049 4.92321,-1.42708 3.24022,-0.34158 2.78921,0.18013 -2.63905,3.05298 -8.37049,4.43003 -18.66909,15.50164 -18.66909,20.07034 0,1.89992 -0.40533,5.48069 -0.90057,7.95729 -0.7673,3.83652 -0.47623,4.50289 1.967,4.50289 1.57724,0 4.72495,-1.45893 6.99513,-3.24208 l 4.12739,-3.24209 -2.49223,3.56271 c -3.29021,4.70356 -3.14626,6.31051 0.48012,5.36218 10.52885,-2.75335 28.88194,18.22674 32.2135,36.82454 0.53243,2.97191 1.42494,5.38604 1.98344,5.36472 0.5585,-0.0213 2.50505,-2.45288 4.32566,-5.40348 1.82076,-2.95058 5.54916,-7.95129 8.28533,-11.11267 2.73632,-3.16138 4.97509,-6.27963 4.97509,-6.92945 0,-0.64981 0.59438,-0.81411 1.3209,-0.3651 0.72651,0.44901 3.15808,-2.08272 5.40347,-5.62606 2.2454,-3.54334 4.85636,-6.46611 5.80219,-6.49505 0.94582,-0.029 2.86888,-1.99786 4.27321,-4.37539 1.40447,-2.37752 3.28589,-4.32278 4.18099,-4.32278 0.89511,0 2.66067,-1.13473 3.9235,-2.52162 1.26283,-1.38689 5.24152,-4.12245 8.84167,-6.07902 5.3431,-2.90379 6.88158,-3.21496 8.37395,-1.69361 1.483,1.51179 1.01196,2.52247 -2.49439,5.3514 -2.37753,1.91819 -4.91687,3.49083 -5.6431,3.49477 -1.39309,0.007 -28.21566,27.51122 -28.21753,28.93407 -10e-4,1.167 -12.94399,17.71024 -14.71446,18.80837 -0.80274,0.49784 -1.62752,3.73993 -1.833,7.20464 -0.67176,11.32813 -4.02004,29.28882 -6.03878,32.39335 -1.08675,1.67148 -1.55851,4.1272 -1.04813,5.45715 0.5451,1.42075 -0.1536,3.61308 -1.6941,5.3154 -3.87825,4.28529 -3.83502,7.05876 0.22825,14.64671 4.47148,8.35051 3.78027,8.88908 -1.38704,1.08069 -4.15275,-6.27516 -7.33893,-7.3743 -8.50046,-2.93243 -0.46124,1.7639 0.56182,4.23638 2.71384,6.55841 4.07019,4.39177 4.46716,6.72619 0.93257,5.48355 -1.38689,-0.48758 -0.0605,0.83037 2.94828,2.9288 l 5.47005,3.81531 7.49829,-4.77235 c 8.68072,-5.52484 13.16748,-7.49599 11.71575,-5.14699 -1.03675,1.67743 6.89108,0.50672 10.7568,-1.58848 2.3954,-1.2983 7.36026,-0.21902 7.36026,1.60005 0,0.70783 -1.29684,2.39736 -2.88186,3.7545 -5.06961,4.34069 -3.39525,5.43095 8.28533,5.39496 9.35609,-0.0288 12.33563,-0.66586 18.37182,-3.92784 7.60665,-4.11071 12.24788,-7.38346 12.24788,-8.63666 0,-2.51825 -8.17841,-1.99475 -19.19545,1.22869 -6.99123,2.04554 -13.08146,3.34896 -13.53391,2.8965 -1.01744,-1.01737 2.32854,-5.21509 4.15679,-5.21509 0.73372,0 4.01831,-1.29684 7.29887,-2.88185 3.28056,-1.58502 6.74109,-2.88186 7.69008,-2.88186 3.47062,0 17.26576,-4.88112 20.04286,-7.09178 2.67364,-2.12819 2.72984,-2.11006 0.87537,0.28221 -3.39295,4.37706 -0.73272,4.2924 7.28921,-0.23198 12.59572,-7.10396 39.37232,-15.91703 58.86345,-19.37392 46.01932,-8.16189 97.27078,-2.62876 120.09405,12.96537 5.6251,3.84344 12.32443,10.07075 15.59123,14.49302 6.6521,9.00464 13.1485,22.28204 11.4499,23.4017 -0.6438,0.42438 -3.2919,4.6621 -5.8847,9.41716 -2.5927,4.75506 -5.2833,9.26156 -5.9791,10.01445 -0.6959,0.75288 -1.2418,2.04971 -1.2134,2.88185 0.029,0.83213 1.7072,-0.43228 3.7304,-2.80981 2.023,-2.37753 3.0269,-3.02594 2.2307,-1.44093 -2.3008,4.5799 -28.75013,30.72969 -33.39049,33.0123 -1.18876,0.58476 -0.90274,0.0425 0.6356,-1.20504 2.25937,-1.83229 2.36254,-2.26825 0.5366,-2.26825 -2.33243,0 -6.83345,4.2852 -4.5908,4.37072 0.6915,0.0264 -0.26931,1.31973 -2.13502,2.87413 -1.86571,1.5544 -4.02177,2.43705 -4.79137,1.96143 -1.97104,-1.21816 4.2601,-7.51171 10.71401,-10.8212 2.97667,-1.52648 10.03058,-7.13209 15.67513,-12.45693 l 10.26304,-9.68152 -5.97816,-1.1822 c -3.466,-0.68545 -5.59699,-1.79869 -5.0712,-2.64935 0.49871,-0.80692 2.51212,-1.06418 4.47437,-0.5717 6.01949,1.51077 8.57309,-0.39526 12.62439,-9.42267 4.712,-10.49988 4.0156,-11.80916 -7.51645,-14.13117 -10.42107,-2.09831 -32.07618,-4.45837 -41.05056,-4.47388 -3.76443,-0.007 -6.84441,-0.5086 -6.84441,-1.11579 0,-2.11989 46.82667,2.00852 53.67452,4.73214 4.3333,1.72354 3.0294,-5.28849 -2.4048,-12.9318 -7.01554,-9.86755 -18.90045,-19.19173 -27.78953,-21.802 -7.2065,-2.1162 -7.95319,-2.05897 -19.10842,1.46496 -6.38489,2.01697 -18.89617,4.62694 -27.80311,5.79994 -8.9068,1.173 -23.97515,3.50097 -33.48527,5.1733 -24.84619,4.36911 -29.06278,4.86259 -27.37761,3.20412 1.5294,-1.50527 30.1599,-7.47703 41.06642,-8.56565 8.56054,-0.85447 38.20113,-5.97825 44.96815,-7.77338 12.0597,-3.19919 5.46371,-6.21729 -18.54746,-8.48653 -27.05441,-2.55684 -57.68967,1.08 -90.92739,10.79439 -12.11819,3.54181 -22.72976,6.43966 -23.58106,6.43966 -1.51052,0 -21.90684,16.6996 -25.28164,20.69944 -3.66528,4.34414 14.24357,4.02546 26.03294,-0.46322 2.2892,-0.87164 4.47898,-1.26816 4.86601,-0.88116 0.38704,0.387 2.87653,-0.20427 5.53244,-1.31394 2.65577,-1.10967 5.15391,-1.49126 5.5516,-0.84798 1.049,1.69745 -14.11431,6.92 -36.48153,12.56489 -3.28517,0.82908 1.81024,1.19922 15.8502,1.15133 20.99344,-0.0716 23.05656,-0.44068 42.30576,-7.56763 4.42436,-1.63812 15.72498,-2.29831 48.63128,-2.84108 24.31766,-0.40109 42.86527,-0.15733 42.8621,0.56334 0,0.6987 -15.40279,1.35182 -34.22201,1.45137 -36.69436,0.19409 -53.37655,2.0773 -68.43856,7.72586 -6.92869,2.59837 -8.28533,3.67464 -8.28533,6.57273 0,4.91298 4.48475,7.18744 19.45252,9.86548 15.28852,2.73541 29.0047,3.08031 55.26012,1.38951 10.58029,-0.68135 19.98234,-0.76243 20.89344,-0.18018 1.91787,1.22569 3.19079,1.11578 -19.23695,1.66111 -9.11386,0.2216 -18.43349,0.92532 -20.71015,1.56382 -4.03287,1.131 -4.11673,1.35069 -3.25463,8.52516 0.48661,4.05033 0.8905,9.71964 0.89741,12.59847 0.0144,4.85351 0.69684,5.68014 9.4215,11.36441 5.17495,3.37159 9.10796,6.43111 8.74009,6.79894 -0.36772,0.36781 -2.8186,-0.94123 -5.44627,-2.90897 -9.46948,-7.09115 -19.76678,-10.87863 -52.32827,-19.24697 -22.45685,-5.77143 -67.92515,-13.98032 -70.0753,-12.65145 -0.69366,0.42872 -0.86427,2.36078 -0.37925,4.2935 0.64409,2.56635 0.29337,3.514 -1.30073,3.514 -2.66182,0 -1.77724,4.29878 2.31067,11.22871 1.53934,2.60949 2.47263,5.07058 2.07422,5.46907 -0.39856,0.39849 -2.73849,-2.84397 -5.20002,-7.20547 -4.09944,-7.26383 -4.71198,-12.37416 -1.48315,-12.37416 2.71903,0 1.10865,-4.21359 -2.6758,-7.00098 l -3.96255,-2.91857 3.60232,0.0445 c 5.55535,0.0686 21.60526,2.80782 28.81854,4.91846 3.56629,1.0435 11.99571,2.96501 18.73205,4.27 6.73633,1.30497 23.73106,5.2354 37.76612,8.73428 14.0352,3.49887 26.26319,6.36159 27.17357,6.36159 1.10707,0 1.29756,-1.31266 0.57536,-3.96255 -0.59395,-2.1794 -1.15058,-7.1957 -1.23689,-11.14734 l -0.15691,-7.18484 -7.9251,-1.13492 c -4.35881,-0.6242 -14.40927,-2.19731 -22.33437,-3.49578 -11.37482,-1.86367 -22.45079,-2.27095 -52.59383,-1.93394 -44.87234,0.50168 -44.66874,0.49402 -44.66874,1.68159 0,0.50618 2.2467,1.34182 4.99267,1.85696 5.72711,1.0744 8.25623,3.70687 3.5614,3.70687 -2.63056,0 -2.85073,0.3525 -1.34943,2.16139 0.9866,1.18877 2.84914,2.22603 4.13892,2.30502 3.80477,0.23303 -4.38777,2.43681 -9.64542,2.5946 -2.63214,0.079 -5.76155,1.11936 -6.9542,2.31193 -1.19252,1.19256 -5.04959,2.89382 -8.57107,3.78055 -5.52423,1.39098 -6.15175,1.91676 -4.57321,3.83098 1.94654,2.36052 3.29439,2.38691 -32.21236,-0.63042 -10.82727,-0.92011 -12.53246,0.22918 -9.38115,6.32313 1.51729,2.9339 3.89007,4.51284 8.72582,5.80619 7.30881,1.95482 12.34773,8.02275 12.35753,14.88134 0,3.72448 -3.84165,8.50866 -6.84181,8.50866 -2.80433,0 -10.47986,-7.40938 -13.24183,-12.78253 l -2.6879,-5.22906 -1.44986,5.04325 -1.44986,5.04324 -0.12969,-5.31843 c -0.13977,-5.69858 -1.04885,-6.76432 -6.63791,-7.77782 -4.42783,-0.8029 -4.92135,2.94809 -0.85231,6.47711 2.98603,2.58982 7.36025,12.03174 7.36025,15.8876 0,2.94302 7.68504,11.05433 13.15206,13.8814 2.17868,1.12665 3.95448,3.1872 3.94627,4.57902 -0.0144,2.51248 1.16167,8.2943 1.68776,8.2943 0.15101,0 0.47565,1.62104 0.72161,3.60231 0.24597,1.98128 1.88286,6.84441 3.63777,10.80695 1.75476,3.96255 3.71096,9.79831 4.34713,12.96835 0.63602,3.17004 2.81182,12.24787 4.83489,20.17297 5.28632,20.70756 5.63272,23.15646 5.19655,36.74364 -0.21628,6.73633 -0.48026,15.26594 -0.58674,18.95469 -0.10663,3.68874 -0.67997,6.40624 -1.27436,6.03889 -1.8147,-1.12153 -1.29755,0.40644 4.82293,14.24848 3.24684,7.34348 6.24944,14.97281 6.67221,16.95409 0.42277,1.98127 1.62638,4.59253 2.67465,5.80278 3.43949,3.97097 9.47798,18.64893 9.92698,24.12985 0.48645,5.93606 1.30043,9.94671 4.55246,22.43029 1.20563,4.62806 1.98012,8.56131 1.72105,8.74056 -0.25908,0.17925 -1.59338,0.0759 -2.96486,-0.22962 z M 881.26161,383.87499 c -0.483,-0.483 -1.99742,0.2937 -3.36543,1.726 -2.37796,2.48956 -2.3392,2.52821 0.8781,0.87817 1.85101,-0.94928 2.97033,-2.12117 2.48733,-2.60417 z m -273.1447,-11.85667 c 0,-2.20686 -0.9281,-2.85901 -3.96255,-2.78433 -3.89137,0.0958 -3.90433,0.12565 -0.72046,1.66112 1.78315,0.85998 3.24208,2.11293 3.24208,2.78433 0,0.67141 0.32421,1.22074 0.72047,1.22074 0.39625,0 0.72046,-1.29684 0.72046,-2.88186 z m -90.93704,-0.85735 c 3.70995,-1.85077 4.27984,-2.69246 2.92681,-4.32278 -0.92407,-1.11348 -3.22177,-2.0245 -5.10607,-2.0245 -2.84583,0 -3.4258,0.7318 -3.4258,4.32278 0,5.05905 -0.27709,4.95896 5.60506,2.0245 z m 141.91934,-13.52539 c 1.55995,-1.55996 -5.75823,-4.86259 -7.87539,-3.55412 -0.72608,0.44871 -1.32003,0.21267 -1.32003,-0.52451 0,-0.73718 -3.30476,-1.77872 -7.34383,-2.31452 -6.90737,-0.91628 -7.29094,-1.18421 -6.45665,-4.50841 0.99323,-3.95755 -0.1742,-4.32702 -5.70693,-1.80612 -3.24223,1.47723 -3.66572,2.3635 -2.91745,6.10463 1.44929,7.24684 3.60174,8.44468 11.56935,6.43841 6.16256,-1.55172 7.04642,-1.46761 8.31026,0.7909 1.07392,1.91896 2.49338,2.31147 5.89728,1.63069 2.46571,-0.49313 5.09512,-1.50875 5.84339,-2.25695 z m -316.11285,-4.29467 c 33.7187,-5.28911 66.96261,-8.85823 86.45562,-9.282 10.69888,-0.2326 20.70194,-0.95864 22.22903,-1.61344 2.74136,-1.17549 2.74136,-1.20431 0,-2.27823 -1.52709,-0.59823 -6.01861,-1.14319 -9.98116,-1.21103 -3.96254,-0.0679 -8.16011,-0.7276 -9.32798,-1.46614 -1.3209,-0.83534 -2.4441,-0.82398 -2.97191,0.0301 -0.52853,0.85528 -8.42006,0.53352 -20.93148,-0.85344 -26.08885,-2.89212 -27.3266,-3.30243 -9.99643,-3.31386 7.9251,-0.006 15.38189,-0.10058 16.57066,-0.21195 1.18876,-0.11138 5.88979,0.25182 10.44672,0.80704 7.12855,0.86854 8.28533,0.6796 8.28533,-1.35351 0,-1.73221 1.32349,-2.36297 4.95823,-2.36297 5.33042,0 7.75578,-1.95101 4.79151,-3.85425 -1.75346,-1.12584 -20.05021,-9.11414 -20.87543,-9.11414 -1.50764,0 0.0216,4.57579 1.7513,5.23945 1.1843,0.45443 1.82321,1.36002 1.42004,2.01243 -0.40317,0.65241 0.5732,1.60079 2.16975,2.1075 2.71917,0.86306 4.19021,3.70901 1.82205,3.525 -0.59439,-0.0463 -9.18591,-1.98903 -19.09228,-4.31744 -14.09919,-3.31387 -16.13363,-4.06158 -9.36603,-3.44215 4.75506,0.43521 10.84658,1.17097 13.53679,1.63502 3.45794,0.59645 4.59425,0.36298 3.87753,-0.79666 -0.55749,-0.90221 -1.98718,-1.64037 -3.17695,-1.64037 -2.74886,0 -33.92576,-12.69354 -35.85127,-14.59672 -0.9549,-0.94382 -0.71196,-1.17676 0.72046,-0.69059 15.29155,5.19023 35.19089,9.87548 36.47779,8.58859 1.34352,-1.34344 -7.49398,-12.44605 -14.54659,-18.27519 -8.10983,-6.70299 -10.1375,-7.77395 -30.1014,-15.89902 -24.75483,-10.07492 -49.32538,-16.88193 -70.36032,-19.49266 -30.88237,-3.83289 -49.56572,-3.59541 -45.18473,0.57433 2.03964,1.94142 29.74881,12.24067 32.93225,12.24067 3.70836,0 44.31253,11.88808 54.75983,16.03262 28.68165,11.37826 33.14132,13.32303 33.14132,14.4523 0,1.97752 -1.48589,1.53184 -18.05107,-5.41472 -8.69585,-3.6466 -17.75597,-7.14495 -20.1335,-7.77412 -2.37753,-0.62915 -10.15853,-2.87823 -17.29112,-4.99794 -7.13259,-2.11972 -14.91359,-4.39245 -17.29112,-5.05052 -27.72444,-7.67379 -43.57882,-12.86709 -51.7091,-16.93798 -8.13274,-4.07206 -12.84601,-3.72572 -25.16089,1.84887 -10.67497,4.83222 -27.65687,22.67177 -25.36161,26.64255 0.25101,0.43421 9.73893,0.64396 21.0845,0.46614 11.34543,-0.17783 25.16709,0.21121 30.71466,0.86454 25.48221,3.00096 44.76441,4.96762 45.78084,4.66935 0.61182,-0.17948 6.9627,0.3364 14.11316,1.14643 16.96057,1.92131 38.59753,7.58975 50.3369,13.18725 5.15132,2.4562 13.25653,5.27319 18.01159,6.25998 l 8.64556,1.79414 -7.72149,-0.0115 c -7.4934,-0.0101 -10.21257,1.47823 -10.26805,5.62201 -0.0144,0.90587 2.16817,2.52691 4.84526,3.60232 4.37106,1.75594 1.7637,2.00255 -25.57645,2.41917 -16.74415,0.25516 -30.92791,0.93373 -31.51941,1.50796 -0.59165,0.57421 -1.43257,4.25595 -1.86874,8.18164 -0.43631,3.92569 -1.12882,8.26654 -1.53905,9.64634 -1.08473,3.6485 0.60274,5.53179 4.21154,4.70025 1.73459,-0.39911 11.25897,-1.9975 21.16534,-3.55143 z m 319.88577,-1.42397 c 0,-0.75312 -0.8938,-1.88785 -1.98603,-2.52162 -3.60303,-2.09051 -0.12392,-7.32042 6.11342,-9.1891 4.09483,-1.22685 5.48821,-2.32052 4.90218,-3.84778 -0.66585,-1.73504 -2.6722,-1.95112 -10.73707,-1.15642 -12.63303,1.24483 -18.46547,3.26933 -18.46547,6.40962 0,3.32471 2.82292,5.91092 6.45203,5.91092 1.6467,0 4.10434,1.29684 5.46141,2.88186 2.51744,2.94001 8.25953,3.99155 8.25953,1.51252 z m -197.05986,-6.17575 c 1.86816,-2.81378 2.44511,-2.96861 4.55059,-1.22124 2.11038,1.75147 2.93531,1.49875 6.61486,-2.02644 l 4.20376,-4.02747 -3.41845,-2.68902 c -1.88027,-1.47897 -5.57855,-3.06375 -8.21847,-3.52175 -2.63993,-0.45802 -6.90507,-1.89543 -9.47813,-3.19428 -4.48316,-2.26313 -4.80708,-2.2325 -7.77481,0.73518 l -3.0967,3.09669 5.61342,2.65889 c 4.58388,2.17119 5.64397,3.4468 5.7797,6.95462 0.0908,2.36266 0.25346,4.78204 0.36023,5.37643 0.37551,2.09059 2.74728,1.0463 4.864,-2.14161 z m 276.31084,-2.38387 c 4.60866,-1.27444 5.59944,-6.57747 1.62609,-8.70396 -2.03445,-1.08881 -6.78533,-1.0866 -16.29789,0.007 -7.38447,0.84939 -18.4515,1.90458 -24.59346,2.3449 -10.68202,0.76578 -11.16718,0.66732 -11.16718,-2.26642 0,-1.99279 0.90836,-3.067 2.59367,-3.067 2.62018,0 6.05189,-2.56328 6.05189,-4.52038 0,-1.55872 -9.96732,0.15948 -16.21043,2.79442 -6.39742,2.70004 -6.81082,4.19968 -1.52378,5.52665 3.77091,0.94644 3.79108,1.0065 0.72047,2.14241 -5.94195,2.19803 -3.26774,4.1421 5.84656,4.25019 4.95319,0.0588 11.92367,0.62601 15.48996,1.26058 8.02438,1.42783 32.58829,1.57934 37.4641,0.23108 z m -91.49886,-12.24494 c 7.08288,-1.48765 8.72871,-2.38251 9.10594,-4.95074 0.40533,-2.75887 -0.20893,-3.13483 -5.12076,-3.13483 -4.48691,0 -6.53979,0.98886 -10.46935,5.04324 -5.44411,5.61686 -5.54598,5.56908 6.48417,3.04233 z m -171.6886,-5.8192 c -5.84656,-7.03411 -17.31835,-8.93683 -16.07195,-2.66567 0.24885,1.25221 3.88258,3.32034 8.36516,4.76108 11.49931,3.69601 12.33217,3.46958 7.70679,-2.09541 z m 29.65601,-43.28133 c 0.0562,-0.7642 -0.94813,-0.34012 -2.23056,0.94242 -1.38069,1.3807 -1.86715,3.08399 -1.19236,4.17568 0.84957,1.37484 1.417,1.13514 2.23055,-0.94243 0.60015,-1.53241 1.1366,-3.41146 1.19237,-4.17567 z m 108.82975,5.09135 c 0.45591,-0.73775 0.17003,-1.74865 -0.63545,-2.24643 -0.80548,-0.49778 -1.46441,0.10576 -1.46441,1.34136 0,2.53103 0.86455,2.9037 2.09986,0.90507 z m 7.26904,-14.18009 0.99136,-11.91913 -3.73921,1.7037 c -4.03113,1.8367 -4.82451,5.26131 -1.93804,8.36547 0.99064,1.06535 -1.66125,-0.75022 -5.8931,-4.03459 -7.77309,-6.03281 -9.61171,-6.7049 -13.87066,-5.0706 -1.87363,0.71901 -1.33372,1.59022 2.67264,4.31264 2.76139,1.87637 5.96889,3.04776 7.12768,2.60306 1.15894,-0.4447 2.53503,-0.11585 3.05823,0.73062 0.5232,0.84653 0.1023,1.58025 -0.93488,1.6305 -1.03746,0.0503 -0.46498,0.66382 1.2722,1.36352 1.75663,0.70757 3.07335,2.42567 2.96672,3.87121 -0.24625,3.34298 4.76688,11.03489 6.20305,9.51742 0.60101,-0.63507 1.53891,-6.51829 2.08401,-13.07382 z m -99.2313,-9.68589 c 3.57724,-1.86567 3.71874,-2.1537 1.06153,-2.16139 -1.68603,-0.004 -3.87278,0.96375 -4.85938,2.15251 -2.25851,2.72123 -1.40678,2.72322 3.79785,0.009 z m 7.99368,-97.58365 c -1.03401,-1.03395 -1.70504,-1.11902 -1.70504,-0.21614 0,1.92332 1.70404,3.62738 2.66571,2.66572 0.40937,-0.40946 -0.0231,-1.51177 -0.96067,-2.44958 z m 203.26681,252.42951 c -1.78315,-0.71674 -3.24209,-1.68653 -3.24209,-2.15509 0,-0.46858 0.71398,-0.41065 1.58675,0.12867 0.87263,0.53936 4.92523,1.46936 9.00579,2.06667 6.97567,1.02114 7.07467,1.09131 1.65534,1.17445 -3.17004,0.0486 -7.22265,-0.49799 -9.00579,-1.21473 z m 32.51091,0.50152 c 1.04006,-0.41624 2.283,-0.36506 2.76168,0.11369 0.47882,0.4788 -0.37219,0.81937 -1.89122,0.7568 -1.67853,-0.0692 -2.02003,-0.41058 -0.87046,-0.87055 z m 4.59295,-1.01354 c 0,-0.30631 1.94526,-0.84242 4.32279,-1.19137 2.37752,-0.34895 4.32278,-0.0983 4.32278,0.55692 0,0.65526 -1.94526,1.19137 -4.32278,1.19137 -2.37753,0 -4.32279,-0.25062 -4.32279,-0.55692 z m 12.96835,-1.86088 c 0,-1.13206 3.00116,-1.96547 20.57312,-5.71297 2.20145,-0.46949 4.65578,-2.0742 5.4542,-3.56605 0.79841,-1.49185 2.64121,-2.71245 4.09511,-2.71245 3.76557,0 20.33998,-5.4519 24.1361,-7.93924 2.47335,-1.62057 4.765,-1.7966 10.13173,-0.77822 5.36515,1.01806 7.66963,0.8414 10.1777,-0.78018 1.78315,-1.15291 3.25203,-1.59494 3.26414,-0.98229 0.0144,0.61265 0.62521,0.16006 1.36254,-1.00575 0.73732,-1.16581 1.84337,-1.61687 2.45778,-1.00235 1.94439,1.94431 -1.40346,3.32803 -19.69257,8.13926 -3.56629,0.93817 -7.9385,1.86348 -9.71588,2.05623 -1.77738,0.19275 -3.6686,0.78744 -4.20275,1.3215 -0.53401,0.53408 -2.09986,0.97104 -3.47969,0.97104 -1.37984,0 -5.64858,1.55404 -9.48606,3.45343 -3.83762,1.89937 -12.48894,4.57918 -19.22528,5.95511 -6.73633,1.37592 -13.0584,2.80914 -14.04903,3.18491 -0.99064,0.37577 -1.80116,0.10489 -1.80116,-0.60198 z m -67.36334,-1.94988 c -1.78314,-0.71674 -3.24208,-1.55835 -3.24208,-1.87023 0,-1.06702 7.2457,0.81599 8.03144,2.08718 0.96427,1.56019 -0.53732,1.49216 -4.78936,-0.21695 z m -367.07612,-7.15973 -4.32278,-1.09996 3.87753,-0.17049 c 2.13257,-0.0938 4.27826,0.47794 4.76803,1.27045 0.48977,0.79251 0.6902,1.36421 0.44524,1.27045 -0.24495,-0.0938 -2.39049,-0.66548 -4.76802,-1.27045 z m 7.56486,0.48663 c 0.99064,-0.39973 2.61168,-0.39973 3.60232,0 0.99064,0.39972 0.18012,0.72679 -1.80116,0.72679 -1.98127,0 -2.79179,-0.32707 -1.80116,-0.72679 z m 17.65136,-0.48663 c 1.98127,-0.63451 4.89915,-1.15367 6.48417,-1.15367 2.28185,0 2.13199,0.24016 -0.72047,1.15367 -1.98127,0.63451 -4.89915,1.15366 -6.48417,1.15366 -2.28199,0 -2.13199,-0.24016 0.72047,-1.15366 z m 322.13189,-2.20721 c -1.53834,-1.16357 -2.10405,-2.11557 -1.25707,-2.11557 0.84698,0 2.34713,0.97262 3.33373,2.16139 2.24381,2.70364 1.5379,2.68806 -2.07666,-0.0458 z m -301.23845,-2.88807 c 2.37753,-1.08866 5.32782,-2.00862 6.55621,-2.04437 1.22839,-0.0357 2.84944,-0.67959 3.60232,-1.43076 0.75289,-0.75116 3.96255,-2.40006 7.13259,-3.6642 l 5.76371,-2.29845 -3.60232,2.94133 c -1.98127,1.61773 -7.72322,4.23925 -12.75998,5.8256 -10.46171,3.29504 -12.97339,3.54681 -6.69253,0.67085 z m -61.95986,0.081 c -0.79251,-0.2552 -7.1529,-2.21911 -14.13405,-4.36425 -6.98115,-2.14514 -12.35465,-4.23856 -11.94125,-4.65205 0.62882,-0.62877 15.24832,3.44762 29.67762,8.27509 2.88445,0.96505 3.02796,1.2052 0.72046,1.2052 -1.58502,0 -3.53027,-0.2088 -4.32278,-0.46399 z m 355.0794,-4.71196 -3.49324,-3.96255 3.96255,3.49326 c 3.70362,3.26498 4.62336,4.43184 3.49324,4.43184 -0.25807,0 -2.04122,-1.78315 -3.96255,-3.96255 z m -4.99339,-6.2198 c -0.52248,-0.84524 -0.64078,-1.84583 -0.26311,-2.22354 0.37767,-0.37771 1.07075,0.31385 1.54006,1.53679 0.97422,2.53907 0.1441,2.98569 -1.27695,0.68675 z m 184.5594,0.19543 c -0.45606,-0.73775 -0.2781,-1.68185 0.39524,-2.098 0.67335,-0.41616 1.22422,0.18745 1.22422,1.34135 0,2.42965 -0.45433,2.64193 -1.61946,0.75665 z m -446.02841,-0.94273 c 0,-0.74002 1.24842,-2.1252 2.77437,-3.07817 1.52594,-0.95296 3.05879,-3.21629 3.4062,-5.02961 0.5709,-2.97992 0.65044,-3.00935 0.82781,-0.30604 0.10807,1.64499 -1.42478,4.51379 -3.40606,6.37511 -1.98127,1.86132 -3.60232,2.77872 -3.60232,2.03871 z m -127.88226,-2.08361 c -1.78314,-0.71675 -3.24208,-1.58756 -3.24208,-1.93517 0,-1.07252 5.76097,0.81005 6.59166,2.154 0.91643,1.48282 0.87753,1.48028 -3.34958,-0.21883 z m 378.38813,-5.64459 c -0.31038,-0.93104 -0.32075,-4.2465 -0.0231,-7.36767 0.90908,-9.5331 5.78619,-6.8968 8.16141,4.4116 1.31888,6.2792 -0.33069,4.9289 -2.94943,-2.41441 -1.93834,-5.43542 -1.96629,-5.45164 -2.05044,-1.18791 -0.0965,4.89297 -2.21687,9.3235 -3.13848,6.55839 z m 211.68815,-32.79372 c 1.79237,-0.34466 4.38604,-0.33157 5.76371,0.0291 1.37767,0.36064 -0.0893,0.64265 -3.2588,0.62665 -3.17004,-0.016 -4.29728,-0.31108 -2.50491,-0.65573 z m -26.36939,-1.96875 c -0.89179,-1.41584 12.90897,-1.42886 15.09155,-0.0144 1.38516,0.89777 -0.6781,1.25764 -6.25161,1.09036 -4.57566,-0.13732 -8.55363,-0.62159 -8.83994,-1.07614 z m -634.6711,-27.63184 c -0.001,-1.32052 9.27251,-1.158 20.892,0.36613 7.60867,0.99803 6.87438,1.10888 -6.1225,0.92431 -8.12236,-0.11542 -14.76863,-0.69606 -14.7695,-1.29044 z m 534.58244,-6.29804 c 0,-1.30187 9.98577,-4.86944 13.28232,-4.74529 3.20722,0.12075 3.19958,0.15354 -0.31398,1.32855 -9.02928,3.01956 -12.96834,4.05739 -12.96834,3.41674 z"
   style="fill:#070707;stroke-width:1" /></svg>