<?xml version="1.0" encoding="UTF-8" standalone="no"?>
<!-- Created with Inkscape (http://www.inkscape.org/) -->

<svg
   xmlns:dc="http://purl.org/dc/elements/1.1/"
   xmlns:cc="http://creativecommons.org/ns#"
   xmlns:rdf="http://www.w3.org/1999/02/22-rdf-syntax-ns#"
   xmlns:svg="http://www.w3.org/2000/svg"
   xmlns="http://www.w3.org/2000/svg"
   xmlns:sodipodi="http://sodipodi.sourceforge.net/DTD/sodipodi-0.dtd"
   xmlns:inkscape="http://www.inkscape.org/namespaces/inkscape"
   version="1.1"
   width="400mm"
   height="210mm"
   viewBox="0 0 1511.811 793.70079"
   id="Layer_1"
   xml:space="preserve"
   sodipodi:docname="lepidosauria.svg"
   inkscape:version="0.92.3 (unknown)"><metadata
   id="metadata10"><rdf:RDF><cc:Work
       rdf:about=""><dc:format>image/svg+xml</dc:format><dc:type
         rdf:resource="http://purl.org/dc/dcmitype/StillImage" /><dc:title></dc:title></cc:Work></rdf:RDF></metadata><sodipodi:namedview
   pagecolor="#ffffff"
   bordercolor="#666666"
   borderopacity="1"
   objecttolerance="10"
   gridtolerance="10"
   guidetolerance="10"
   inkscape:pageopacity="0"
   inkscape:pageshadow="2"
   inkscape:window-width="2495"
   inkscape:window-height="1416"
   id="namedview8"
   showgrid="false"
   units="mm"
   inkscape:zoom="0.27825261"
   inkscape:cx="-115.00342"
   inkscape:cy="336.5"
   inkscape:window-x="65"
   inkscape:window-y="24"
   inkscape:window-maximized="1"
   inkscape:current-layer="Layer_1" /><defs
   id="defs13" />
    
    
    
<g
   id="g832"
   transform="translate(-18.660148,-50.497877)"><g
     style="stroke-width:1.48504424"
     transform="matrix(0.67338063,0,0,0.67338063,72.024593,341.189)"
     id="g3">
        
        <g
   style="stroke-width:1.48504424"
   id="g5">
            
            <path
   inkscape:connector-curvature="0"
   style="fill-rule:evenodd;stroke-width:1.48504424"
   id="path7"
   d="m 926,1 c 4.555,7.056 3.79,13.524 1,19 -2.65,5.201 -10.821,8.729 -14,15 -0.54,1.065 0.441,2.883 0,4 -0.335,0.847 -1.761,0.649 -2,2 -2.234,12.607 4.347,24.25 10,32 3.355,4.6 7.618,9.866 10,12 4.073,3.65 11.913,6.668 17,11 2.153,1.833 3.661,4.799 6,7 14.031,13.207 30.396,26.396 45,41 7.992,7.992 15.208,17.773 22,28 4.983,7.505 9.225,14.426 14,23 5.245,9.418 10.242,20.507 14,34 2.588,9.292 2.878,25.857 1,40 -0.617,4.648 -0.085,9.479 -1,13 -0.579,2.228 -3.145,4.537 -4,7 -0.944,2.718 -1.056,5.641 -2,8 -2.559,6.396 -6.75,16.45 -12,21 -2.44,2.115 -3.336,5.933 -6,9 -2.079,2.393 -5.538,4.57 -8,7 -7.67,7.571 -16.267,14.43 -25,23 -20.591,9.409 -36.781,23.219 -63,27 -6.386,3.664 -19.121,6.609 -29,9 -7.446,1.802 -15.441,4.609 -23,6 -6.186,1.139 -12.864,0.597 -19,2 -14.999,3.431 -28.433,10.526 -41,15 -3.61,14.057 -12.431,22.902 -19,34 18.069,-8.143 36.104,-4.056 59,-3 4.018,-8.648 9.411,-15.923 23,-15 4.593,-2.074 4.853,-8.481 11,-9 4.675,3.902 1.008,6.541 1,13 -0.597,4.597 4.504,3.496 4,8 -1.704,12.629 -14.541,14.125 -21,22 2.358,4.642 8.771,5.229 11,10 4.022,-0.752 6.352,2.414 10,3 14.29,2.294 30.84,-5.405 44,0 4.942,-2.241 14.36,-4.723 21,-2 0.877,7.21 -1.998,10.668 -7,12 -0.64,14.037 -19.025,15.907 -37,14 -2.043,-0.217 -2.254,-1.564 -4,-2 -4.468,-1.114 -9.718,-0.502 -14,-1 -4.521,-0.525 -8.77,-4.065 -11,0 -0.413,8.333 7.842,12.717 13,18 2.482,2.543 5.143,5.333 8,8 2.494,2.328 6.254,4.823 8,7 3.697,4.607 9.235,14.743 4,22 -5.241,-0.593 -12.349,0.278 -18,-1 -8.278,-1.873 -12.897,-7.649 -18,-11 -2.336,-6.732 -8.093,-12.201 -12,-19 -2.761,-4.805 -2.308,-5.559 -7,-9 -1.432,-1.05 -2.047,-3.25 -4,-2 -6.037,4.049 2.327,18.106 -2,27 -4.326,3.674 -10.85,5.15 -18,6 -2.488,-4.628 -11.044,-5.896 -13,-11 -3.674,-9.585 9.486,-16.934 8,-30 -7.724,0.059 -10.114,8.963 -17,12 -2.784,1.228 -7,2.335 -11,2 -4.115,-0.345 -12.993,-4.057 -13,-10 -0.011,-8.95 13.142,-8.148 21,-13 3.622,-2.235 6.112,-5.443 8,-9 -7.801,-2.403 -18.716,0.827 -29,3 -12.227,2.583 -23.002,6.398 -36,4 -10.955,-2.021 -14.759,-7.035 -20,-17 -1.044,-12.711 1.587,-21.746 2,-33 -0.556,-4.413 6.001,-5.269 3,-9 -5.786,-2.513 -9.99,2.606 -15,4 -5.501,1.53 -11.263,0.742 -17,2 -4.229,0.927 -8.771,2.701 -13,4 -3.913,1.202 -7.993,2.692 -12,4 -8.348,2.724 -17.243,4.603 -26,7 -6.094,1.668 -15.048,4.849 -23,7 -4.501,1.218 -9.516,1.787 -14,3 -7.299,1.975 -14.535,6.491 -22,8 -4.277,0.864 -8.865,-0.048 -13,1 -3.719,0.942 -7.328,4.096 -11,5 -4.012,0.987 -8.204,-0.091 -12,1 -2.955,0.85 -5.108,3.965 -8,5 -3.875,1.387 -9.852,0.554 -14,2 -3.643,1.271 -5.632,3.363 -9,5 -11.505,-2.79 -20.359,7.212 -30,8 -3.141,0.257 -5.975,-1.593 -9,-1 -10.883,2.133 -11.413,9.758 -15,22 -4.891,16.692 -12.911,36.016 -17,53 0.946,8.313 -0.674,11.559 0,17 1.715,5.747 7.112,8.502 11,13 1.676,1.938 2.84,2.936 5,5 0.345,0.329 1.664,-0.336 2,0 0.287,0.287 -0.325,1.779 0,2 1.84,1.249 7.285,2.528 10,4 7.365,3.992 17.993,8.93 15,22 -2.612,-0.279 -5.004,-0.338 -4,3 -7.218,-3.187 -13.513,0.023 -20,-3 -1.626,-0.758 -2.874,-3.104 -5,-5 -1.776,-1.584 -4.624,-2.701 -6,-4 -1.349,-1.273 -2.665,-4.792 -4,-6 -1.949,-1.763 -3.474,-2.612 -6,-3 -5.928,4.541 1.001,13.062 5,20 7.387,12.815 16.35,29.593 -5,28 -1.357,0.31 -0.83,2.504 -1,4 -5.056,-4.611 -14.1,-5.233 -19,-10 -6.652,-11.384 3.178,-39.242 -13,-39 -8.821,0.132 -11.306,15.229 -22,22 -5.676,3.594 -18.129,7.047 -22,0 -2.478,0.871 -7.753,1.953 -10,0 -4.785,-22.554 23.686,-20.238 32,-33 -12.573,-2.524 -23.597,5.706 -38,2 -4.058,-3.275 -6.007,-8.66 -14,-8 2.263,-21.224 33.141,-5.412 46,-13 -2.458,-4.363 -8.314,-7.679 -13,-11 -4.221,-2.992 -10.874,-4.811 -10,-13 2.199,-2.841 4.846,-4.665 7,-5 2.495,-0.389 8.552,1.152 12,3 6.708,3.596 9.579,12.045 15,12 11.753,-0.098 12.399,-21.703 16,-34 7.494,-6.765 5.975,-21.299 8,-29 -4.527,2.129 -22.807,-1.268 -24,3 -10.288,-0.134 -20.052,1.307 -29,1 -9.768,-0.335 -18.425,-2.306 -29,-5 -1.429,-3.371 -6.1,-4.665 -9,-6 -1.296,-0.597 -1.527,0.101 -2,0 -1.172,-0.249 -1.296,-1.719 -2,-2 -1.028,-0.411 -3.091,0.603 -4,0 -0.692,-0.459 0.084,-1.508 -1,-2 -0.599,-0.272 -2.531,1.922 -2,-1 -4.716,2.435 -13.154,-0.304 -20,0 -3.002,0.134 -5.405,3.652 -7,0 -3.065,3.137 -7.304,2.734 -11,4 -0.227,0.078 0.195,1.806 0,2 0.123,-0.123 -2.948,-1.29 -4,-1 -0.682,0.188 -0.836,1.727 -2,2 -7.933,1.866 -15.962,5.95 -24,10 -2.076,1.046 -3.967,3.128 -6,4 -1.67,0.717 -4.537,0.057 -7,1 -4.171,1.598 -11.34,5.295 -18,6 -19.599,2.074 -33.426,-5.229 -52,-7 -14.137,-1.348 -29.104,-1.743 -43,-4 -5.435,-0.883 -10.775,-2.959 -16,-4 -12.718,-2.533 -23.281,-4.115 -35,-7 -12.422,-3.058 -24.702,-5.727 -37,-9 -6.279,-1.671 -13.123,-2.108 -18,-4 -5.229,-2.027 -9.132,-7.555 -15,-7 -3.836,-4.163 -7.743,-8.257 -14,-10 -1.781,-7.392 -0.357,-13.459 -1,-19 -0.267,-2.297 -2.1,-5.008 -2,-7 0.456,-9.125 9.142,-21.055 18,-23 2.579,-0.566 5.992,0.895 9,0 6.35,-1.889 9.513,-7.105 15,-11 4.951,-3.514 10.972,-5.646 16,-9 5.611,-3.742 9.903,-7.543 14,-11 1.942,-11.521 3.199,-20.835 9,-28 3.979,-4.916 5.875,-5.452 12,-10 5.309,-3.941 7.968,-6.22 16,-9 7.782,-2.693 14.022,-2.541 23,0 6.243,1.767 12.18,2.523 18,5 7.394,3.146 14.414,9.295 23,6 -3.873,-5.481 -17.146,-11.036 -11,-20 -1.882,-6.236 -3.521,-7.374 1,-12 7.358,-1.024 9.914,2.753 12,7 6.116,-0.116 6.69,5.311 13,5 3.758,4.85 9.241,9.809 14,15 1.763,1.923 3.125,4.195 5,6 1.696,1.633 4.503,2.167 5,5 4.166,-0.816 8.346,1.36 10,0 3.764,-3.454 -0.094,-8.599 1,-15 4.645,-5.355 10.176,-9.824 14,-16 4.396,-0.396 3.452,4.549 5,7 2.887,3.446 6.306,6.361 9,10 0.491,4.491 -0.507,7.493 -1,11 10.029,-0.093 21.198,-4.073 33,-6 5.042,-0.823 9.948,-0.044 15,-1 12,-2.271 21.582,-9.768 32,-8 15.019,2.549 18.275,25.415 16,45 12.91,0.324 25.443,-4.086 38,-5 6.269,-0.456 12.944,0.406 19,0 16.521,-1.107 31.987,-5.784 48,-7 4.353,-0.33 8.63,0.418 13,0 2.066,-0.197 3.804,-1.542 6,-2 11.068,-2.307 22.801,-1.588 34,-3 10.428,-1.314 20.867,-3.858 31,-6 18.107,-3.827 34.649,-6.209 53,-11 5.276,-1.377 15.029,-4.354 23,-6 15.299,-3.158 34.197,-6.62 51,-8 5.837,-0.479 11.461,0.282 17,-3 0.184,-4.074 -4.642,-5.884 -7,-8 -6.791,-6.095 -14.71,-13.028 -22,-20 -6.965,-1.369 -10.338,-6.329 -16,-9 -0.42,-8.205 -7.728,-11.593 -5,-22 0.399,-1.523 4.391,-10.865 6,-12 0.66,-0.465 2.261,0.35 3,0 0.303,-0.144 0.805,-1.95 1,-2 3.361,-0.862 7.893,0.692 12,-1 3.04,0.96 3.983,4.017 7,5 5.506,0.104 13.059,2.561 18,0 0.257,-6.753 -9.417,-6.946 -12,-12 -1.944,-3.805 -1.975,-6.262 1,-11 -0.751,-7.084 0.864,-11.803 5,-14 6.851,0.816 8.193,7.14 11,12 18.108,5.171 27.973,28.31 51,22 1.974,-2.36 2.355,-6.311 3,-10 6.204,-2.462 9.219,-8.114 18,-8 4.029,-2.637 4.893,-8.44 11,-9 0.343,9.324 4.348,14.985 7,22 -1.588,5.412 -5.995,8.005 -7,14 -6.973,-0.973 -9.842,2.158 -12,6 1.91,8.857 13.398,5.025 27,6 8.32,0.596 16,2.499 21,2 5.358,-0.535 9.797,-5.263 14,-2 -0.315,8.352 -4.582,12.751 -7,19 -15.765,7.848 -36.963,1.365 -56,1 -2.158,3.508 -6.313,5.02 -8,9 4.149,8.517 16.547,8.787 22,16 9.104,1.901 25.128,0.263 37,1 6.162,0.383 12.162,2.291 18,3 5.263,0.639 10.909,0.288 16,1 8.817,1.232 14.848,3.057 26,2 15.44,-1.463 30.35,-4.526 44,-8 18.565,-4.725 34.992,-7.683 51,-16 4.555,-2.366 9.366,-5.476 14,-8 7.373,-4.016 11.974,-6.602 17,-12 0.864,-0.929 3.177,-1.993 4,-3 0.969,-1.185 0.795,-3.548 2,-5 1.266,-1.524 3.338,-1.977 4,-3 1.035,-1.6 1.745,-5.563 3,-8 3.071,-5.964 7.146,-15.516 8,-24 0.273,-2.718 -1.137,-5.602 -1,-8 0.116,-2.038 2.051,-3.991 2,-6 -0.203,-8.027 -3.196,-21.677 -6,-30 -1.597,-4.738 -4.963,-8.857 -7,-14 -1.966,-4.962 -2.596,-10.541 -5,-15 -4.293,-7.963 -11.573,-15.216 -17,-23 -2.742,-3.934 -5.848,-7.83 -9,-12 -2.793,-3.695 -5.056,-8.771 -8,-12 -1.447,-1.587 -4.486,-2.518 -6,-4 -0.848,-0.83 -1.174,-2.144 -2,-3 -12.075,-12.522 -26.374,-27.037 -40,-39 -8.559,-14.639 -25.654,-29.164 -23,-52 1.36,-11.699 13.886,-29.311 24,-38 1.813,-1.558 6.842,-3.885 12,-3 z" />
            
            <g
   style="stroke-width:1.48504424"
   id="g9" />
            
        </g>
        
    </g><g
     transform="translate(571.8757,76.317946)"
     id="g823"><path
       style="fill:#000000;stroke-width:1"
       d="M 666.47461,61.439413 C 656.46013,54.367259 648.89066,48.198449 641.65234,45.419922 637.78976,43.38167 625.78788,38.659641 614.9668,34.929688 604.14546,31.197906 592.94989,27.166256 590.10156,25.96875 c -2.2433,-0.939186 -6.1701,-1.334806 -10.94726,-1.287109 -4.77717,0.0477 -10.40431,0.538654 -16.04492,1.371093 -8.77428,1.294912 -17.58158,3.415352 -23.28321,5.986328 -16.92778,7.628708 -18.03416,8.82461 -16.73633,18.060547 0.82913,5.845707 10.10664,16.469336 20.8418,23.824219 8.54847,5.868179 15.47456,8.903095 34.0625,14.9375 36.83018,14.115262 36.37957,20.642662 25.5147,34.344182 -1.92634,2.73544 -7.30804,12.38264 -14.26055,18.85875 -38.02777,46.30937 -74.63882,88.8621 -117.83614,139.54512 -1.30613,1.77223 -7.21475,9.10274 -13.14258,16.29492 -10.46474,12.70025 -13.13494,16.81579 -24.43945,37.59961 -15.68708,28.81253 -17.65501,34.11551 -25.90039,69.96875 -4.04253,17.59157 -6.24408,30.09865 -7.55274,42.82031 l -0.70703,6.92969 -10.70898,1.64257 c -15.30335,2.34627 -23.95876,4.55123 -40.30274,10.28321 -27.60405,9.68338 -43.18859,20.59079 -57.98437,40.59375 -18.36614,24.85191 -21.21251,49.23593 -8.86524,76.29101 5.44995,11.97414 13.88807,24.71844 19.11329,28.89453 1.53273,1.2407 3.56499,3.24101 4.48632,4.42774 3.51782,4.58471 19.96668,12.39999 30.82813,14.64258 6.68507,1.40622 7.52848,1.84758 13.46484,3.52929 2.99658,-0.82769 9.07796,-1.0026 13.51953,-0.40429 4.42748,0.60037 10.31192,1.04517 13.07618,0.98437 2.75019,-0.0587 9.74598,0.0353 15.5371,0.23438 10.23695,0.33698 10.66429,0.50349 14.87891,5.91992 24.99001,22.73123 46.53959,28.04421 70.85742,39.10351 1.01076,0.91496 4.65744,2.06101 8.10742,2.56055 3.43592,0.50162 9.98493,2.15382 14.5586,3.65234 4.55959,1.50059 10.9562,3.1781 14.19726,3.72266 3.24105,0.54458 11.2361,3.33661 17.7793,6.21289 6.52709,2.86429 12.49278,5.12112 13.23828,5.01172 2.95145,0.45002 5.75266,3.31518 13.64844,4.29102 6.74137,0.82944 13.92163,0.87447 21.37109,4.04882 7.67673,0.56634 29.11219,4.65095 29.11719,4.65039 -3.93493,-1.20726 8.44856,0.58367 16.30664,1.07032 17.1078,2.12139 34.52504,-0.48484 59.88477,-2.10547 2.26273,0.48129 25.74515,-2.30257 65.82812,-10.34961 8.12184,-1.24936 21.26408,-4.51468 30.14649,-7.51367 8.65933,-2.92314 20.67499,-6.95794 26.70507,-8.94922 18.46671,-6.10099 36.76085,-14.2309 44.73438,-19.89844 23.85,-16.90603 39.75782,-35.07544 45.20508,-51.62305 4.89628,-14.87182 6.25788,-35.68922 3.16015,-48.39648 -6.36953,-26.12184 -24.53301,-47.87027 -54.14843,-64.84766 -6.54273,-3.77765 -15.44334,-8.32581 -23.41993,-12.92968 -9.53947,-3.90829 -18.13085,-6.4336 -18.13085,-6.4336 -10e-6,0 2.64682,-17.99008 -2.09766,-32.29492 -8.02125,-24.16954 -36.66055,-46.5504 -76.48242,-59.75976 -3.535,-1.17677 -4.62885,-1.9233 -7.4336,-2.76172 -5.48771,-1.30755 -15.44975,-3.11641 -23.77343,-4.28321 -46.32083,-7.9019 -64.23194,-8.72204 -101.63282,-4.69922 -42.46537,4.56486 -78.68709,18.38801 -100.65039,38.40821 -7.83201,7.14113 -19.97851,28.73828 -19.97851,28.73828 -3.15057,-7.29256 1.15181,-15.89748 4.49414,-30.27344 0.79578,-2.21463 2.33459,-7.98852 3.41992,-12.83203 1.78709,-7.99269 4.34321,-15.43703 13.79687,-40.2168 6.05956,-15.89028 21.17192,-36.28593 36.36719,-49.0625 28.80323,-24.22819 54.50033,-39.37804 101.00391,-59.50781 13.92815,-6.03844 41.27008,-23.85978 53.48047,-34.84766 7.61391,-6.86485 21.91178,-26.33216 26.80664,-36.51953 4.46245,-9.27616 7.03265,-21.98448 6.97265,-34.47656 -0.0859,-17.78895 -1.64419,-24.93509 -7.95312,-36.50586 C 694.48704,81.300336 689.22433,81.896362 666.47461,61.439413 Z M 619.36133,429.78906 c 0.45665,10e-6 0.89939,0.008 1.32617,0.0254 9.10466,0.36775 19.7354,4.62531 28.24023,6.06641 8.50484,1.44113 15.60492,1.05109 22.69727,2.83203 7.09235,1.78094 19.5957,7.55273 19.5957,7.55273 l 19.66602,8.01954 11.5039,7.31836 7.13282,9.85546 0.0137,3.31641 c 0,0 -5.25806,1.57791 -11.53125,2.16602 -6.27319,0.58815 -16.83875,-0.86599 -26.07031,0.0351 -9.23155,0.90114 -29.03125,5.68164 -29.03125,5.68164 l -119.03711,-26.14453 10.2539,-7.66797 18.53711,-9.35742 22.46094,-6.30859 c 0,0 6.43232,-1.45736 13.47852,-2.46094 3.69927,-0.52686 7.56709,-0.92972 10.76367,-0.92969 z m -221.4961,84.58399 c 2.51067,0.0153 4.41602,0.0957 4.41602,0.0957 l 5.11523,23.22461 9.16993,20.21484 -9.375,4.86719 -12.83399,2.91797 -22.21484,-0.11914 -16.27344,-7.51953 -5.26562,-6.8125 0.83203,-7.23242 c 0,0 -0.0286,-3.98294 1.62695,-8.29883 1.65556,-4.31589 5.84664,-7.67035 8.91797,-10.31641 3.07133,-2.64606 9.97571,-4.15355 14.30469,-5.89062 4.32899,-1.73707 7.27084,-3.65225 11.65625,-4.55469 0.54816,-0.11289 1.18505,-0.2046 1.87695,-0.2793 2.42164,-0.26175 5.53621,-0.31219 8.04687,-0.29687 z m 75.44922,0.84765 21.25,5.88868 25.30078,7.66601 -16.42187,7.62305 -19.08203,5.64453 -5.89258,-14.30469 z m 220.21875,39.86328 36.07227,7.38477 23.69531,3.16016 16.73047,4.18164 15.4082,4.84961 11.83203,6.32226 11.44727,10.17188 -18.20898,8.36132 -27.16407,8.72657 -24.11914,6.85742 -29.70117,4.35937 -27.38086,4.01758 -29.3418,2.22852 9.95118,-8.39063 12.23242,-10.32617 7.64648,-12.5 c 0,0 3.48789,-10.89416 5.43555,-17.86328 1.94767,-6.96912 5.46484,-21.54102 5.46484,-21.54102 z m -73.84375,23.98829 5.3086,0.64453 4.79101,3.5625 -4.74023,9.70312 -7.72656,8.71875 -23.61719,16.73828 -11.47266,-1.91797 -12.16601,-4.09375 -18.20508,-7.75781 23.50586,-11.0332 18.74219,-7.9668 18.61718,-5.57617 z m -166.28515,55.68945 14.25781,16.39648 -24.625,-3.95117 -19.19531,-7.1582 -3.70899,-3.80664 23.32227,-1.44141 z"
       id="path5026"
       inkscape:connector-curvature="0"
       sodipodi:nodetypes="ccccsscccccccccccccccccccccccccccccccccccccccccccccccccccccccccccccccsccccccsccccccccccccccccccsscccccccccccccccccccccccccccccccccccccccccccccccccc" /><path
       inkscape:connector-curvature="0"
       style="fill:#000000;stroke-width:1"
       d="m 593.0616,152.31473 c -395.3744,427.59072 -197.6872,213.79536 0,0 z"
       id="path5022" /></g></g></svg>