<?xml version="1.0" encoding="UTF-8" standalone="no"?>
<!-- Created with Inkscape (http://www.inkscape.org/) -->

<svg
   xmlns:dc="http://purl.org/dc/elements/1.1/"
   xmlns:cc="http://creativecommons.org/ns#"
   xmlns:rdf="http://www.w3.org/1999/02/22-rdf-syntax-ns#"
   xmlns:svg="http://www.w3.org/2000/svg"
   xmlns="http://www.w3.org/2000/svg"
   xmlns:sodipodi="http://sodipodi.sourceforge.net/DTD/sodipodi-0.dtd"
   xmlns:inkscape="http://www.inkscape.org/namespaces/inkscape"
   version="1.1"
   width="297mm"
   height="210mm"
   viewBox="0 0 1122.5197 793.70079"
   id="Layer_1"
   xml:space="preserve"
   sodipodi:docname="loricifera.svg"
   inkscape:version="0.92.3 (unknown)"><metadata
   id="metadata34"><rdf:RDF><cc:Work
       rdf:about=""><dc:format>image/svg+xml</dc:format><dc:type
         rdf:resource="http://purl.org/dc/dcmitype/StillImage" /><dc:title /></cc:Work></rdf:RDF></metadata><sodipodi:namedview
   pagecolor="#ffffff"
   bordercolor="#666666"
   borderopacity="1"
   objecttolerance="10"
   gridtolerance="10"
   guidetolerance="10"
   inkscape:pageopacity="0"
   inkscape:pageshadow="2"
   inkscape:window-width="2495"
   inkscape:window-height="1416"
   id="namedview32"
   showgrid="false"
   units="mm"
   inkscape:zoom="0.36625"
   inkscape:cx="-574.74403"
   inkscape:cy="300"
   inkscape:window-x="65"
   inkscape:window-y="24"
   inkscape:window-maximized="1"
   inkscape:current-layer="Layer_1" /><defs
   id="defs60">
	
	
</defs>
    
    
    
<g
   style="stroke-width:1.30418432"
   id="g7"
   transform="matrix(0.76676279,0,0,0.76676279,143.90981,-19.31724)">
		<path
   inkscape:connector-curvature="0"
   d="m 854.39,252.59 c -15.028,2.073 -29.912,3.916 -45.21,0.934 -10.334,-2.014 -21.104,-2.303 -31.686,-2.37 -10.585,-0.067 -21.182,1.037 -31.767,1.743 -22.686,1.514 -43.13,10.428 -63.257,19.921 -10.026,4.73 -19.265,11.108 -29.053,16.383 -2.643,1.424 -5.992,1.538 -9.017,2.253 2.125,-2.268 3.892,-5.101 6.434,-6.71 14.785,-9.362 30.577,-17.243 43.149,-29.8 9.18,-9.17 18.855,-17.918 27.318,-27.71 9.971,-11.536 19.796,-23.23 27.084,-36.914 7.75,-14.548 16.636,-28.491 24.985,-42.721 1.62,-2.76 2.857,-5.758 4.612,-8.422 7.802,-11.841 12.697,-24.432 11.137,-38.972 -0.505,-4.692 -1.601,-5.604 -5.539,-2.738 -4.887,3.557 -9.675,7.357 -13.969,11.596 -8.255,8.147 -16.535,16.332 -24.067,25.131 -10.611,12.398 -21.017,25.029 -30.658,38.185 -10.943,14.932 -20.891,30.592 -31.396,45.851 -2.939,4.268 -6.366,8.197 -9.483,12.346 -7.558,10.059 -14.726,20.434 -22.702,30.147 -5.951,7.248 -12.893,13.688 -19.48,20.402 -0.676,0.689 -1.95,0.792 -2.946,1.167 -0.019,-1.142 -0.398,-2.435 0.004,-3.402 2.001,-4.805 3.791,-9.771 6.428,-14.224 5.487,-9.267 11.556,-18.187 17.211,-27.358 7.509,-12.178 14.879,-24.442 22.253,-36.703 4.251,-7.068 8.94,-13.943 12.45,-21.369 5.089,-10.768 9.358,-21.927 13.843,-32.973 2.717,-6.69 6.03,-13.295 7.568,-20.271 2.599,-11.786 3.976,-23.839 5.93,-35.77 0.383,-2.337 -0.466,-3.512 -2.666,-2.629 -7.604,3.052 -15.588,5.549 -22.539,9.733 -6.447,3.881 -10.021,10.904 -14.288,17.212 -6.494,9.604 -9.438,20.73 -15.188,30.601 -4.634,7.956 -8.082,16.604 -12.013,24.966 -1.701,3.622 -3.027,7.448 -5.021,10.895 -1.417,2.45 -4.057,6.469 -5.466,6.2 -3.481,-0.664 -2.478,-4.621 -2.659,-7.574 -0.59,-9.564 -0.271,-19.374 -2.398,-28.605 -2.78,-12.063 -7.693,-23.624 -11.44,-35.478 -2.835,-8.967 -5.467,-18.009 -7.823,-27.113 -1.129,-4.363 -1.432,-5.074 -5.521,-3.54 -1.714,0.643 -3.457,2.074 -4.455,3.62 -7.445,11.525 -9.132,24.526 -8.523,37.805 0.281,6.133 2.459,12.154 3.178,18.296 1.031,8.827 4.727,16.678 8.12,24.667 4.001,9.421 8.53,18.652 11.933,28.282 1.799,5.09 3.444,11.354 2.062,16.205 -2.507,8.799 -6.921,17.158 -11.283,25.3 -6.274,11.711 -13.303,23.016 -19.821,34.6 -2.136,3.795 -3.57,7.979 -5.545,11.875 -1.34,2.643 -4.65,4.609 -2.282,8.356 0.202,0.321 -1.256,1.69 -1.942,2.573 -0.572,-0.63 -1.176,-1.235 -1.709,-1.896 -0.864,-1.071 -1.686,-2.178 -2.52,-3.273 -1.546,-2.031 -3.76,-3.844 -4.514,-6.137 -2.829,-8.612 -4.797,-17.516 -7.788,-26.065 -7.708,-22.025 -13.345,-44.384 -13.236,-67.922 0.07,-15.015 -0.068,-30.03 -0.193,-45.044 -0.029,-3.526 -0.489,-7.046 -0.558,-10.573 -0.12,-6.207 -0.338,-12.428 -0.028,-18.618 0.179,-3.584 0.65,-7.429 2.142,-10.619 3.536,-7.56 1.092,-19.051 -5.757,-24.086 -3.183,-2.34 -6.072,-1.512 -7.642,2.175 -0.722,1.698 -1.711,3.323 -2.166,5.087 -0.979,3.81 -2.313,7.681 -2.353,11.54 -0.045,4.464 1.666,8.938 1.698,13.415 0.087,12.259 -0.39,24.521 -0.489,36.782 -0.106,13.306 0.106,26.617 -0.124,39.92 -0.077,4.499 -0.907,9.013 -1.706,13.464 -0.973,5.422 -3.165,10.682 -0.713,16.333 0.588,1.355 0.113,3.341 -0.296,4.927 -1.554,6.023 -3.337,11.986 -4.931,18 -2.417,9.121 -4.579,18.314 -7.189,27.378 -1.241,4.308 -3.197,8.419 -4.98,12.554 -0.561,1.3 -1.614,2.387 -2.441,3.571 -1.223,-1.517 -2.751,-2.887 -3.568,-4.598 -0.606,-1.268 -0.35,-2.976 -0.373,-4.489 -0.2,-12.872 -2.312,-25.507 -5.865,-37.795 -5.945,-20.562 -16.421,-39.101 -27.102,-57.478 -1.907,-3.281 -1.408,-5.613 1.227,-7.988 2.11,-1.903 4.099,-3.944 6.102,-5.962 6.263,-6.311 11.993,-13.286 18.904,-18.779 6.731,-5.35 10.082,-12.276 13.109,-19.755 1.703,-4.206 3.598,-8.334 5.354,-12.519 1.031,-2.457 2.653,-4.917 2.795,-7.445 0.311,-5.534 0.083,-11.131 -0.362,-16.667 -0.5,-6.225 -2.437,-11.92 -8.179,-15.446 -1.101,-0.675 -2.388,-1.049 -3.589,-1.562 -0.442,1.365 -1.34,2.761 -1.248,4.088 0.4,5.748 -1.008,10.968 -3.597,16.052 -3.813,7.492 -7.255,15.174 -11.132,22.632 -1.852,3.562 -3.965,7.126 -6.62,10.103 -4.875,5.467 -11.052,9.778 -14.408,16.584 -1.024,2.079 -2.281,4.045 -3.285,6.133 -1.785,3.713 -5.819,4.473 -8.637,1.469 -0.792,-0.844 -1.421,-1.902 -1.91,-2.961 -6.421,-13.909 -13.557,-27.549 -18.965,-41.844 -4.597,-12.152 -11.524,-22.324 -20.28,-31.55 -2.539,-2.675 -5.204,-5.229 -7.815,-7.835 -1.516,-1.513 -3.04,-1.588 -4.139,0.35 -3.667,6.463 -7.234,13.035 -7.564,20.669 -0.357,8.29 0.023,16.411 4.089,24.11 3.041,5.759 4.645,12.286 7.771,17.988 3.859,7.041 8.699,13.539 12.993,20.348 6.271,9.945 12.522,19.904 18.573,29.983 1.354,2.255 2.268,4.97 2.643,7.58 0.854,5.947 4.265,9.886 8.529,13.804 2.939,2.702 4.955,6.624 6.734,10.313 1.881,3.897 3.108,8.129 4.411,12.281 1.954,6.225 4.169,12.419 5.42,18.795 0.859,4.383 -1.231,6.345 -5.508,7.555 -4.02,1.138 -6.79,-0.802 -9.412,-3.426 -7.998,-8.007 -15.199,-16.685 -24.366,-23.67 -15.646,-11.922 -29.758,-25.857 -47.189,-35.427 -1.589,-0.872 -2.818,-2.386 -4.252,-3.556 -5.726,-4.675 -11.516,-9.272 -17.177,-14.022 -2.436,-2.043 -4.754,-4.266 -6.891,-6.621 -6.892,-7.592 -13.105,-15.914 -20.67,-22.747 -6.639,-5.996 -13.86,-12.091 -23.458,-13.139 -7.129,-0.778 -14.381,-2.501 -21.27,1.355 -1.928,1.079 -3.007,1.625 -0.782,3.909 1.723,1.768 3.295,4.668 3.228,7.016 -0.226,7.833 3.851,14.27 6.324,21.131 2.431,6.745 5.658,13.441 11.829,17.899 2.843,2.054 5.927,3.776 8.749,5.856 4.874,3.592 9.41,7.686 14.482,10.957 8.885,5.729 18.262,10.632 26.062,18.022 3.981,3.773 8.719,6.843 13.414,9.749 9.42,5.832 19.57,10.506 27.766,18.249 1.367,1.291 3.605,1.672 5.458,2.432 1.374,0.564 3.058,0.732 4.116,1.643 5.709,4.913 11.229,10.044 16.908,14.993 1.074,0.936 2.502,1.642 3.886,2.014 5.189,1.394 8.787,4.743 11.838,8.951 1.243,1.714 2.679,3.343 4.263,4.744 2.231,1.973 4.703,8.522 3.868,10.952 -1.023,2.978 -8.179,5.438 -11.641,3.438 -5.51,-3.183 -10.856,-6.704 -15.986,-10.47 -4.146,-3.044 -7.489,-7.299 -11.853,-9.901 -12.555,-7.483 -23.641,-17.349 -37.516,-22.726 -6.094,-2.362 -12.156,-5.173 -17.605,-8.739 -7.069,-4.625 -14.613,-7.591 -22.738,-9.409 -1.478,-0.331 -2.987,-0.587 -4.411,-1.084 -21.305,-7.45 -42.597,-7.089 -63.893,0.023 -0.797,0.266 -1.616,0.543 -2.443,0.629 -10.531,1.098 -21.07,2.114 -31.591,3.291 -1.518,0.169 -3.756,0.714 -4.211,1.733 -0.494,1.107 0.237,3.462 1.245,4.419 4.262,4.044 8.595,8.096 13.368,11.487 2.793,1.984 6.807,2.212 9.687,4.115 16.526,10.915 35.39,11.976 54.221,13.618 7.321,0.639 15.004,1.156 21.721,3.779 10.338,4.039 20.968,5.845 31.738,7.631 18.57,3.079 36.241,8.644 52.257,18.936 7.234,4.648 14.36,10.077 23.921,8.436 1.058,-0.181 2.22,0.238 3.334,0.378 -0.817,1.224 -1.383,2.855 -2.521,3.558 -1.169,0.721 -2.903,0.74 -4.381,0.704 -4.366,-0.104 -8.757,-0.816 -13.084,-0.516 -10.599,0.733 -20.145,5.077 -29.722,9.299 -9.655,4.257 -16.929,12.809 -27.69,15.095 -2.21,0.469 -4.23,1.928 -6.28,3.039 -8.554,4.636 -17.058,9.366 -25.643,13.943 -2.518,1.342 -5.521,1.896 -7.824,3.498 -10.62,7.386 -21.358,14.654 -31.464,22.704 -5.308,4.228 -12.808,7.424 -12.434,16.26 0.006,0.144 -0.178,0.286 -0.231,0.443 -4.232,12.599 -8.891,25.075 -12.594,37.829 -6.496,22.376 -4.291,46.095 -10.263,68.712 -2.082,7.883 -3.541,15.909 -6.655,23.516 -0.385,0.942 -0.125,2.147 -0.165,3.23 1.156,-0.437 2.46,-0.671 3.421,-1.374 0.739,-0.541 1.242,-1.613 1.517,-2.548 3.565,-12.12 9.214,-23.688 9.787,-36.613 -0.103,-0.215 -0.148,-0.467 -0.106,-0.75 0.264,-1.766 0.288,-3.788 0.907,-5.474 0.593,-1.616 1.62,-3.186 1.549,-4.952 -0.008,-0.214 0.032,-0.397 0.104,-0.553 -0.137,-0.255 -0.217,-0.499 -0.17,-0.714 0.993,-4.494 2.159,-8.95 3.271,-13.417 0.277,-1.112 0.963,-2.306 0.761,-3.322 -0.821,-4.122 1.807,-7.404 2.354,-10.932 0.573,-3.695 3.774,-7.132 3.072,-9.674 -1.544,-5.593 2.912,-9.905 1.806,-15.108 -0.147,-0.695 1.584,-2.552 2.468,-2.566 3.185,-0.053 3.627,-1.641 2.347,-3.837 -1.494,-2.561 -0.316,-4.162 0.869,-6.362 1.835,-3.406 2.429,-7.519 4.44,-10.783 1.943,-3.153 4.708,-6.002 7.648,-8.299 7.894,-6.168 16.033,-12.026 24.173,-17.873 1.725,-1.238 3.812,-2.036 5.821,-2.803 5.641,-2.155 11.281,-4.328 17.008,-6.237 9.877,-3.294 19.818,-6.397 29.737,-9.566 0.639,-0.204 1.315,-0.29 2.347,-0.51 0.078,0.051 0.174,0.114 0.281,0.183 1.438,-0.787 3.047,-1.309 4.888,-1.52 1.274,-0.788 2.534,-1.509 3.773,-1.972 2.715,-1.013 5.394,-2.043 8.06,-3.104 2.454,-1.497 4.865,-3.011 7.253,-4.072 2.733,-1.215 5.7,-1.441 8.502,-2.378 2.297,-0.768 4.234,-2.205 6.5,-3 4.627,-1.623 10.826,-2.981 15.742,-2.411 2.751,0.32 2.815,4.081 0,4.326 -3.061,0.267 -6.44,0.112 -9.386,1.048 -2.846,0.904 -5.526,2.282 -8.339,3.286 -5.605,2.002 -11.005,4.18 -16.454,6.562 -1.419,0.621 -2.888,1.145 -4.37,1.647 -1.269,0.723 -2.548,1.424 -3.862,2.053 -2.129,1.02 -4.484,1.547 -6.72,2.23 -0.216,0.128 -0.439,0.241 -0.651,0.378 -1.887,1.219 -3.704,2.429 -5.712,3.192 -0.283,0.318 -0.556,0.654 -0.805,1.031 -0.346,0.523 -0.806,0.811 -1.291,0.926 -7.876,4.425 -16.114,8.305 -23.556,13.36 -14.195,9.644 -27.585,20.493 -41.941,29.875 -8.526,5.572 -12.842,13.638 -17.351,21.956 -0.879,1.621 -1.909,3.161 -2.865,4.74 -0.458,0.758 -0.843,1.639 -1.488,1.866 -0.184,0.402 -0.408,0.802 -0.665,1.211 -0.531,0.847 -0.971,1.782 -1.312,2.752 -0.017,0.701 -0.284,1.444 -0.572,2.237 -0.033,0.189 -0.082,0.379 -0.106,0.568 -0.041,0.313 -0.178,0.561 -0.364,0.748 -3.849,10.701 -7.618,21.43 -11.416,32.147 -0.282,0.793 -0.438,1.703 -0.939,2.327 -0.038,0.046 -0.095,0.077 -0.139,0.118 -0.061,0.19 -0.168,0.361 -0.315,0.498 -0.011,1.753 -0.825,3.151 -1.421,4.777 -0.707,1.926 -0.814,4.025 -1.116,6.043 -0.039,0.262 -0.142,0.457 -0.28,0.599 -0.176,1.292 -0.571,2.574 -0.559,3.858 0.01,1.006 0.684,2.007 1.06,3.01 0.939,-0.577 1.954,-1.066 2.792,-1.766 0.481,-0.402 0.776,-1.112 0.988,-1.74 1.536,-4.544 2.898,-9.151 4.567,-13.645 2.749,-7.404 3.586,-15.659 9.496,-21.694 0.295,-0.302 0.377,-0.934 0.361,-1.404 -0.223,-6.273 1.276,-11.761 6.534,-15.837 0.924,-0.717 1.129,-2.367 1.653,-3.592 1.773,-4.143 3.381,-8.366 5.35,-12.414 2.43,-4.997 6.619,-8.158 11.289,-11.14 5.34,-3.411 9.876,-8.052 15.012,-11.816 5.758,-4.22 11.716,-8.185 17.744,-12.013 3.614,-2.295 7.542,-4.095 11.304,-6.161 1.147,-0.63 2.212,-1.409 3.319,-2.114 5.145,-3.279 10.259,-6.606 15.453,-9.806 1.079,-0.665 2.02,-0.904 2.793,-0.468 2.614,-3.412 7.578,-5.29 11.281,-6.808 6.671,-2.735 13.412,-5.891 20.525,-7.273 1.827,-1.838 6.099,-2.016 7.768,-0.346 2.973,2.973 -0.869,5.853 -3.709,7.235 -0.207,0.979 -1.163,1.526 -2.086,1.588 -0.542,0.037 -1.069,0.072 -1.586,0.111 -0.152,0.062 -0.318,0.114 -0.506,0.146 -7.829,1.326 -12.77,6.715 -19.223,10.247 -1.085,1.019 -2.126,2.098 -3.316,2.975 -10.257,7.552 -20.81,14.73 -30.751,22.675 -7.79,6.226 -14.982,13.231 -22.177,20.164 -8.763,8.444 -16.734,17.261 -19.146,30.065 -2.582,13.706 -6.274,27.205 -9.558,40.775 -0.859,3.552 -1.126,7.689 -3.174,10.433 -6.73,9.018 -13.681,17.971 -21.443,26.093 -7.746,8.104 -16.577,15.172 -24.92,22.708 -1.563,1.411 -3.07,2.887 -4.603,4.333 2.203,-0.492 4.828,-0.382 6.536,-1.581 7.331,-5.146 14.267,-10.759 20.063,-17.74 7.066,-8.511 14.514,-16.704 21.817,-25.017 0.972,-1.107 2.059,-2.112 3.092,-3.164 -0.18,1.787 -0.277,3.588 -0.586,5.353 -0.103,0.588 -0.704,1.12 -1.146,1.615 -10.987,12.31 -21.982,24.614 -32.98,36.914 -5.025,5.62 -9.25,11.666 -9.627,19.526 -0.05,1.04 1.059,2.137 1.631,3.207 0.695,-0.952 1.732,-1.81 2.023,-2.872 1.218,-4.441 1.277,-9.216 4.723,-12.921 3.595,-3.864 6.822,-8.069 10.402,-11.948 3.828,-4.146 7.93,-8.039 11.819,-12.131 2.946,-3.098 5.746,-6.334 8.61,-9.51 1.847,-2.047 2.509,-0.772 2.81,1.068 0.162,0.986 0.119,2.021 0.048,3.026 -0.655,9.243 -1.187,18.499 -2.078,27.72 -0.397,4.111 -0.265,9.208 -2.595,12.01 -5.226,6.283 -11.854,11.396 -17.879,17.021 -0.818,0.764 -1.452,1.725 -2.171,2.594 1.25,-0.217 2.802,-0.037 3.698,-0.72 4.012,-3.053 7.827,-6.362 11.733,-9.555 1.139,-0.931 2.344,-1.78 3.519,-2.668 -0.059,1.583 0.305,3.34 -0.259,4.716 -1.587,3.879 -3.607,7.577 -5.336,11.4 -0.412,0.91 -0.358,2.032 -0.518,3.056 1.003,-0.474 2.195,-0.747 2.965,-1.471 1.089,-1.022 1.835,-2.402 2.793,-3.575 0.364,-0.446 0.911,-0.743 1.374,-1.108 0.089,0.475 0.159,0.955 0.271,1.424 0.463,1.93 1.537,3.934 1.296,5.768 -0.676,5.153 -1.757,10.267 -2.939,15.336 -0.801,3.436 -2.166,6.738 -3.001,10.167 -0.208,0.858 0.649,1.977 1.018,2.975 0.819,-0.667 1.955,-1.178 2.383,-2.038 0.642,-1.296 0.796,-2.835 1.141,-4.274 0.424,-1.774 0.513,-3.71 1.299,-5.305 3.604,-7.307 6.994,-14.767 11.226,-21.705 6.473,-10.613 13.35,-21.001 20.489,-31.182 4.715,-6.723 10.908,-12.475 15.158,-19.443 6.009,-9.852 13.158,-18.581 21.566,-26.266 0.421,-0.768 1.237,-1.275 1.853,-1.919 0.124,-0.129 0.231,-0.27 0.351,-0.402 0.555,-0.742 1.061,-1.521 1.483,-2.345 0.543,-1.057 0.962,-2.281 1.712,-3.212 0.091,-0.113 0.188,-0.19 0.281,-0.283 0.006,-0.086 0.006,-0.175 0.027,-0.251 0.035,-0.127 0.1,-0.235 0.16,-0.345 0.091,-0.32 0.23,-0.615 0.399,-0.802 4.035,-4.459 8.155,-8.843 12.297,-13.205 0.411,-0.433 1.131,-0.573 1.708,-0.85 0.051,0.595 0.364,1.35 0.113,1.759 -3.055,4.986 -6.142,9.955 -9.371,14.828 -0.155,0.234 -0.411,0.401 -0.718,0.543 -0.016,0.023 -0.031,0.047 -0.047,0.07 -0.272,0.542 -0.649,1.056 -1.06,1.548 -0.174,0.247 -0.354,0.489 -0.519,0.743 -0.098,0.149 -0.242,0.233 -0.389,0.314 0.089,-0.019 0.183,-0.034 0.27,-0.055 -0.873,1.201 -1.738,2.407 -2.619,3.602 -0.399,0.541 -0.862,1.037 -1.238,1.592 -15.976,23.581 -31.947,47.164 -47.903,70.757 -0.467,0.689 -0.911,1.46 -1.092,2.255 -0.122,0.54 0.236,1.188 0.379,1.788 0.46,-0.146 1.032,-0.167 1.359,-0.462 1.001,-0.898 2.063,-1.794 2.828,-2.882 5.028,-7.165 9.931,-14.418 14.978,-21.569 4.269,-6.05 8.642,-12.027 13.07,-17.962 0.487,-0.653 1.637,-0.812 2.479,-1.2 -0.099,0.773 -0.113,1.57 -0.32,2.314 -0.224,0.806 -0.564,1.597 -0.963,2.336 -5.681,10.535 -11.118,21.214 -17.173,31.53 -3.473,5.916 -7.977,11.223 -11.968,16.84 -1.079,1.519 -1.979,3.164 -2.961,4.752 1.628,-0.887 3.75,-1.387 4.801,-2.727 5.169,-6.581 10.05,-13.389 15.049,-20.104 0.381,-0.512 0.894,-0.925 1.346,-1.384 0.079,0.557 0.391,1.215 0.201,1.654 -3.071,7.094 -5.735,14.418 -9.435,21.173 -5.729,10.457 -10.129,21.314 -12.341,33.011 -0.331,1.745 0.444,3.699 0.708,5.558 0.9,-1.528 2.111,-2.955 2.649,-4.602 2.5,-7.65 4.808,-15.364 7.215,-23.046 0.134,-0.427 0.546,-0.767 0.829,-1.147 0.245,0.524 0.667,1.035 0.704,1.572 0.181,2.67 0.102,5.369 0.458,8.011 0.129,0.962 1.209,1.796 1.856,2.688 0.372,-1.001 0.888,-1.973 1.095,-3.006 1.678,-8.37 3.133,-16.79 5.042,-25.105 0.54,-2.349 2.323,-4.422 3.595,-6.589 4.054,-6.906 8.103,-13.817 12.251,-20.667 0.462,-0.764 1.55,-1.149 2.348,-1.71 0.053,0.9 0.268,1.826 0.126,2.694 -0.355,2.16 -1.08,4.278 -1.25,6.444 -0.102,1.314 0.552,2.688 0.867,4.035 1.068,-0.921 2.235,-1.756 3.167,-2.8 0.525,-0.588 0.763,-1.499 0.957,-2.306 1.943,-8.088 3.813,-16.194 5.793,-24.273 0.439,-1.79 0.925,-3.691 1.908,-5.205 4.666,-7.184 9.494,-14.262 14.318,-21.341 0.418,-0.613 1.238,-0.952 1.872,-1.418 0.008,0.818 0.108,1.646 0.011,2.45 -0.651,5.354 -1.662,10.688 -1.943,16.059 -0.339,6.479 -2.097,11.996 -5.495,17.811 -8.567,14.662 -15.889,30.055 -23.622,45.2 -3.738,7.321 -7.016,14.889 -10.975,22.085 -4.924,8.951 -9.966,17.886 -15.711,26.313 -2.505,3.674 -0.701,4.731 1.184,7.204 1.798,2.356 2.79,2.276 4.689,0.588 4.351,-3.867 10.526,-6.345 10.023,-13.801 -0.058,-0.86 0.699,-1.884 1.295,-2.666 3.227,-4.229 6.675,-8.295 9.754,-12.625 3.884,-5.461 7.435,-11.159 11.223,-16.689 4.521,-6.602 9.141,-13.134 13.979,-20.071 -1.046,10.405 -4.331,19.578 -10.089,27.922 -0.737,1.068 -0.764,2.626 -1.121,3.957 1.343,-0.643 3.227,-0.921 3.944,-1.984 7.348,-10.906 12.807,-22.483 12.602,-36.105 -0.036,-2.375 0.836,-5.058 2.091,-7.106 5.569,-9.093 12.074,-17.611 16.253,-27.545 1.216,-2.89 3.682,-5.371 4.38,-8.323 0.593,-2.51 5.172,-4.593 1.372,-7.866 -0.039,-0.034 0.315,-0.543 0.504,-0.818 2.627,-3.85 5.208,-7.733 7.93,-11.515 0.49,-0.681 1.559,-0.945 2.36,-1.402 0.107,0.864 0.512,1.826 0.267,2.575 -0.888,2.716 -1.988,5.363 -3.02,8.031 -0.968,2.505 -1.268,5.786 -3.061,7.351 -4.433,3.872 -5.412,8.84 -6.716,14.082 -1.162,4.669 -3.379,9.101 -5.359,13.535 -3.214,7.197 -7.123,14.125 -9.831,21.499 -5.962,16.233 -11.538,32.604 -19.141,48.179 -2.941,6.025 -6.059,11.967 -8.858,18.057 -1.181,2.567 -1.252,5.717 -2.678,8.089 -6.216,10.335 -12.751,20.479 -19.154,30.701 -0.895,1.43 -3.246,3.348 -0.391,4.414 2.632,0.983 4.94,6.087 8.527,1.62 2.612,-3.251 5.23,-6.561 7.341,-10.143 3.442,-5.841 6.556,-11.882 9.657,-17.917 4.571,-8.892 9.107,-17.805 13.461,-26.803 2.193,-4.533 3.928,-9.286 5.945,-13.906 0.205,-0.47 0.93,-0.713 1.415,-1.062 0.02,0.479 0.198,1.022 0.035,1.428 -3.684,9.188 -1.232,19.955 -8.062,28.477 -5.462,6.814 -8.965,15.149 -15.867,20.928 -0.439,0.367 -0.817,1.163 -0.756,1.708 0.184,1.653 6.626,5.11 8.21,4.402 1.68,-0.75 3.787,-1.305 4.811,-2.635 5.478,-7.112 10.89,-14.296 15.881,-21.751 2.734,-4.084 4.7,-8.704 6.825,-13.171 2.719,-5.716 5.243,-11.522 7.871,-17.281 0.238,-0.522 0.614,-0.981 0.926,-1.469 0.05,0.644 0.151,1.288 0.141,1.931 -0.068,4.363 -0.85,8.845 -0.119,13.066 2.585,14.936 6.178,29.707 8.474,44.681 3.262,21.289 6.758,42.631 8.225,64.082 1.516,22.155 0.691,44.47 0.96,66.714 0.07,5.729 0.267,11.466 0.664,17.181 0.251,3.626 1.439,6.637 6.164,6.055 1.803,-0.223 3.761,-0.195 5.477,0.306 0.867,0.253 1.353,1.813 2.011,2.784 -0.785,0.107 -1.719,0.544 -2.331,0.268 -3.098,-1.4 -4.896,-0.107 -6.75,2.383 -2.583,3.469 -3.242,7.117 -3.059,11.365 0.305,7.09 2.866,13.416 5.574,19.703 0.05,0.796 0.339,1.541 0.708,2.321 0.542,1.146 0.717,2.38 1.051,3.593 0.336,1.224 0.982,2.247 1.584,3.35 0.712,1.306 1.331,2.658 1.93,4.018 0.976,2.217 2.131,4.281 3.012,6.522 0.994,2.529 2.029,5.082 3.045,7.577 0.831,2.039 1.623,4.094 2.484,6.119 0.658,1.547 1.17,3.27 2.152,4.652 0.376,0.529 0.598,1.124 0.915,1.682 0.513,0.902 0.994,1.726 1.346,2.706 0.335,0.933 1.197,1.658 1.67,2.566 0.425,0.816 0.526,1.695 1.02,2.521 0.144,0.24 0.274,0.475 0.406,0.704 0.02,0.048 0.033,0.1 0.057,0.146 3.479,6.68 6.629,13.618 10.893,19.775 3.124,4.513 6.943,8.547 10.728,12.596 0.265,0.675 0.633,1.318 0.925,1.791 0.79,1.279 1.87,2.261 3.048,3.173 1.93,3.339 4.267,5.07 6.681,8.052 2.933,3.621 5.689,7.32 8.343,11.146 3.102,4.472 7.11,8.456 11.03,12.196 4.419,4.216 9.885,9.274 16.311,9.759 0.633,0.048 13.239,2.134 18.305,3.212 1.398,0.296 2.944,0.177 4.378,-0.041 1.965,-0.298 3.889,-0.864 5.826,-1.328 5.519,-1.325 11.52,-1.713 16.425,-4.232 5.714,-2.938 10.775,-7.407 15.575,-11.807 9.684,-8.878 19.064,-18.112 26.44,-29.1 3.38,-5.034 6.568,-10.202 9.681,-15.406 0.307,-0.514 0.547,-1.011 0.681,-1.477 0.419,-0.589 0.806,-1.242 1.19,-1.818 0.641,-0.96 1.402,-1.734 2.14,-2.612 1.404,-1.67 2.776,-3.26 3.896,-5.132 0.085,-0.145 0.143,-0.306 0.21,-0.46 7.534,-17.278 15.406,-34.421 22.45,-51.897 3.945,-9.789 4.333,-20.617 5.539,-30.944 0.478,-4.086 -1.16,-6.291 -5.028,-7.689 -1.204,-0.436 -1.901,-0.623 -3.188,-0.805 -0.862,-2.244 1.812,-2.816 3.007,-3.695 0.651,-0.479 1.423,-1.167 2.036,-1.721 3.329,-3.005 2.368,-7.927 2.667,-11.921 0.197,-2.641 0.1,-5.301 0.212,-7.948 0.233,-5.522 0.342,-11.057 0.521,-16.582 0.043,-1.29 0.036,-2.594 0.145,-3.881 1.083,-12.913 1.99,-25.843 3.155,-38.75 1.042,-11.545 2.386,-23.062 3.533,-34.601 1.281,-12.883 2.448,-25.777 3.776,-38.655 0.201,-1.959 1,-3.855 1.526,-5.779 0.689,-2.519 1.544,-1.916 2.872,-0.326 3.605,4.319 7.184,8.689 11.155,12.656 1.146,1.144 3.589,0.987 5.437,1.427 0.236,-1.477 1.017,-3.138 0.592,-4.392 -0.832,-2.457 -2.388,-4.663 -3.551,-7.018 -2.336,-4.727 -4.204,-9.741 -7.029,-14.148 -2.426,-3.785 -4.119,-7.787 -4.398,-12.02 -0.257,-3.898 0.711,-7.942 1.562,-11.83 0.867,-3.959 1.398,-7.857 -1.604,-10.983 -4.706,-4.901 -5.237,-10.638 -4.346,-16.905 0.401,-2.814 0.741,-5.694 0.606,-8.521 -1.017,-21.28 -5.27,-41.994 -11.16,-62.411 -0.968,-3.352 -1.874,-6.722 -2.717,-10.105 -0.137,-0.549 0.204,-1.216 0.323,-1.828 0.515,0.373 1.303,0.639 1.5,1.137 2.339,5.896 4.957,11.718 6.754,17.78 1.661,5.599 2.096,11.554 3.642,17.195 2.921,10.662 6.365,21.18 9.379,31.816 2.887,10.188 5.317,20.507 8.283,30.67 4.032,13.822 8.154,27.627 12.686,41.291 2.562,7.724 5.729,15.288 9.197,22.654 1.819,3.865 4.63,7.372 7.529,10.549 0.794,0.87 3.722,0.394 5.29,-0.312 0.736,-0.33 1.138,-2.871 0.714,-4.064 -1.888,-5.317 -4.03,-10.555 -6.265,-15.74 -3.801,-8.82 -7.759,-17.571 -11.579,-26.384 -0.274,-0.634 0.141,-1.533 0.043,-2.284 -0.134,-1.028 -0.118,-2.526 -0.753,-2.955 -1.956,-1.323 -3.093,-2.34 -1.278,-4.765 0.542,-0.726 -0.036,-2.54 -0.482,-3.71 -1.409,-3.699 -3.414,-7.222 -4.397,-11.017 -0.912,-3.518 -0.854,-7.296 -1.115,-10.965 -0.058,-0.815 0.341,-1.662 0.529,-2.495 0.667,0.678 1.684,1.246 1.932,2.051 0.643,2.084 0.889,4.287 1.427,6.408 0.131,0.515 0.783,0.896 1.195,1.339 0.234,-0.409 0.717,-0.854 0.663,-1.222 -0.532,-3.705 2.734,-4.02 4.758,-5.438 -1.766,-1.851 -3.535,-3.698 -5.292,-5.556 -0.105,-0.111 -0.134,-0.31 -0.17,-0.473 -2.231,-10.289 -4.46,-20.577 -6.688,-30.866 3.568,6.469 6.062,13.341 9.163,19.926 6.449,13.696 13.108,27.296 19.925,40.812 2.185,4.335 4.998,8.38 7.791,12.371 1.595,2.278 3.858,2.376 6.189,0.675 1.994,-1.455 2.99,-2.784 1.501,-5.432 -5.217,-9.27 -10.331,-18.603 -15.187,-28.065 -2.041,-3.978 -4.804,-8.41 -4.597,-12.501 0.243,-4.794 -0.875,-8.85 -2.156,-13.147 -2.45,-8.22 -4.829,-16.461 -7.142,-24.722 -0.243,-0.872 0.162,-1.925 0.268,-2.895 0.718,0.743 1.714,1.363 2.11,2.25 2.754,6.155 5.23,12.438 8.085,18.545 5.35,11.443 10.867,22.809 16.405,34.163 0.539,1.106 1.705,1.907 2.58,2.851 -0.291,-1.309 -0.39,-2.699 -0.903,-3.913 -5.369,-12.697 -10.735,-25.396 -16.242,-38.034 -4.162,-9.553 -8.54,-19.011 -12.777,-28.531 -0.373,-0.837 -0.418,-1.819 -0.615,-2.735 0.822,0.604 1.961,1.032 2.407,1.843 1.377,2.5 2.469,5.156 3.709,7.734 4.528,9.407 8.541,19.118 13.779,28.113 4.142,7.111 9.778,13.328 18.84,14.702 0.972,0.147 1.932,1.084 2.667,1.87 0.625,0.666 0.919,1.644 1.359,2.483 0.304,-0.862 0.472,-1.813 0.956,-2.558 0.333,-0.513 1.08,-0.952 1.688,-1.023 0.447,-0.053 0.971,0.545 1.46,0.853 -0.022,-0.647 0.16,-1.396 -0.101,-1.928 -2.95,-6.023 -5.958,-12.02 -8.998,-17.999 -0.188,-0.368 -0.78,-0.53 -1.185,-0.789 -0.298,0.517 -0.94,1.122 -0.834,1.535 0.622,2.428 1.398,4.818 2.164,7.208 0.56,1.749 1.317,3.446 1.723,5.227 0.199,0.878 -0.201,1.894 -0.33,2.847 -0.937,-0.233 -1.957,-0.299 -2.795,-0.725 -7.368,-3.747 -12.565,-9.796 -16.017,-17.018 -5.792,-12.119 -10.253,-24.917 -16.602,-36.714 -4.396,-8.167 -4.829,-16.623 -5.754,-25.246 -0.114,-1.068 0.248,-2.188 0.389,-3.284 0.862,0.71 1.757,1.384 2.572,2.145 0.356,0.333 0.579,0.825 0.817,1.268 7.97,14.824 15.926,29.656 23.912,44.471 1.119,2.076 2.285,4.142 3.634,6.07 0.486,0.694 1.572,0.971 2.384,1.438 -0.051,-0.923 0.093,-1.91 -0.191,-2.754 -0.739,-2.195 -1.742,-4.303 -2.473,-6.5 -0.217,-0.653 0.124,-1.492 0.209,-2.246 0.624,0.485 1.475,0.842 1.839,1.477 3.438,5.996 7.018,11.928 10.09,18.111 1.9,3.825 2.981,8.058 4.455,12.098 0.275,0.757 0.662,1.472 0.999,2.206 0.504,-0.633 0.908,-1.407 1.542,-1.854 0.575,-0.405 1.543,-0.806 2.086,-0.586 1.063,0.431 1.866,1.53 2.936,1.918 1.435,0.521 3.02,0.627 4.539,0.912 -0.869,-1.094 -1.569,-2.404 -2.64,-3.241 -3.741,-2.926 -7.453,-5.725 -8.845,-10.681 -1.272,-4.531 -2.785,-9.016 -4.51,-13.396 -3.14,-7.976 -6.257,-15.979 -9.87,-23.743 -3.119,-6.701 -7.053,-13.018 -10.38,-19.628 -6.795,-13.503 -13.505,-27.051 -20.023,-40.688 -0.826,-1.728 -0.348,-4.079 -0.442,-6.156 -0.016,-0.02 -0.032,-0.039 -0.048,-0.059 -0.014,-0.025 -0.027,-0.05 -0.041,-0.075 -2.884,-1.107 -5.35,-2.503 -5.64,-6.146 -0.079,-0.99 -1.06,-1.963 -1.76,-2.836 -0.832,-1.037 -2.186,-1.813 -2.63,-2.966 -0.621,-1.608 -0.608,-3.461 -0.867,-5.209 1.106,1.09 2.508,2.007 3.265,3.301 2.662,4.55 5.106,9.227 7.632,13.856 0.029,0.011 0.058,0.024 0.087,0.035 0.002,0.033 10e-4,0.066 0.002,0.099 1.85,2.349 3.927,4.557 5.495,7.08 10.506,16.887 21.328,33.599 31.221,50.841 12.126,21.137 25.259,41.919 30.059,66.419 0.123,0.629 0.746,1.159 1.136,1.735 0.021,-0.647 0.077,-1.297 0.061,-1.943 -0.313,-12.837 -6.423,-23.962 -11.056,-35.396 -4.283,-10.57 -10.126,-20.509 -15.254,-30.739 -0.282,-0.562 -0.312,-1.253 -0.461,-1.883 0.624,0.348 1.408,0.558 1.846,1.065 5.495,6.385 10.674,13.07 16.515,19.117 2.775,2.873 4.672,5.399 4.272,9.543 -0.227,2.36 0.121,5.26 3.273,1.544 0.339,-0.399 1.855,-0.487 2.116,-0.158 3.767,4.753 10.739,6.823 11.722,13.896 0.334,2.401 1.472,3.196 3.858,2.248 0.833,-0.33 1.915,0.025 2.87,-0.069 0.885,-0.087 1.752,-0.356 2.626,-0.545 -0.462,-0.817 -0.811,-1.729 -1.405,-2.435 -2.126,-2.525 -4.849,-4.698 -6.41,-7.522 -3.641,-6.588 -6.703,-13.496 -10.071,-20.238 -2.158,-4.32 -5.52,-8.222 -4.523,-13.577 0.118,-0.63 0.385,-1.233 0.583,-1.849 0.666,0.37 1.525,0.585 1.973,1.134 8.933,10.959 18.198,21.677 26.562,33.056 4.566,6.212 10.414,10.438 16.525,14.604 0.68,0.464 1.762,0.339 2.656,0.487 -0.596,-0.742 -1.103,-1.583 -1.802,-2.209 -4.266,-3.818 -9.228,-7.066 -12.751,-11.47 -10.803,-13.502 -21.105,-27.407 -31.453,-41.269 -0.884,-1.184 -0.757,-3.194 -0.893,-4.838 -0.078,-0.95 0.259,-1.935 0.409,-2.904 0.801,0.511 1.728,0.897 2.379,1.556 1.54,1.556 2.983,3.213 4.408,4.877 8.99,10.496 17.689,21.26 27.112,31.35 2.745,2.94 7.501,4.045 11.424,5.793 0.598,0.266 1.676,-0.55 2.531,-0.865 -0.688,-0.588 -1.297,-1.529 -2.078,-1.706 -5.34,-1.205 -9.618,-4.072 -13.026,-8.224 -2.988,-3.641 -5.733,-7.48 -8.643,-11.188 -6.012,-7.657 -12.094,-15.259 -18.079,-22.936 -2.13,-2.731 -5.304,-5.407 -5.817,-8.475 -0.905,-5.402 -0.196,-11.088 -0.002,-16.65 0.035,-1.037 0.826,-2.047 1.27,-3.069 0.966,0.581 1.976,1.102 2.88,1.768 0.527,0.389 0.9,0.998 1.318,1.526 9.81,12.406 20.021,24.523 29.239,37.354 4.128,5.746 6.248,12.93 9.31,19.447 0.809,1.723 -0.751,5.037 2.706,4.718 0.515,-0.048 0.706,-4.045 0.941,-6.227 0.047,-0.431 -0.447,-0.896 -0.591,-1.376 -4.084,-13.694 -13.138,-24.392 -21.73,-35.253 -7.163,-9.055 -15.238,-17.384 -22.605,-26.286 -1.551,-1.875 -2.324,-4.81 -2.497,-7.322 -0.343,-4.962 0.438,-10.016 -0.058,-14.95 -0.987,-9.845 -2.391,-19.656 -3.907,-29.436 -0.506,-3.264 -1.855,-6.401 -2.869,-9.581 -0.834,-2.62 -1.521,-5.321 -2.684,-7.794 -0.991,-2.108 -2.685,-3.873 -3.861,-5.908 -4.639,-8.03 -10.246,-15.276 -17.241,-21.383 -1.742,-1.521 -4.704,-2.287 -5.516,-4.108 -2.217,-4.975 -6.645,-7.163 -10.774,-9.547 -1.137,-0.656 -2.227,-1.39 -3.3,-2.145 -1.976,-1.392 -3.895,-2.867 -5.953,-4.136 -1.928,-1.188 -4.054,-1.863 -6.011,-2.939 -0.41,-0.226 -0.719,-0.265 -0.985,-0.61 -0.625,-0.81 -0.94,-1.761 -1.621,-2.539 -0.661,-0.757 -1.172,-1.641 -1.936,-2.33 -1.239,-1.12 -2.859,-1.838 -4.017,-3.021 -0.617,-0.63 -1.116,-2.214 -0.754,-2.762 0.503,-0.76 1.952,-1.433 2.842,-1.276 1.434,0.254 2.802,1.118 4.094,1.896 5.046,3.037 9.935,6.352 15.091,9.182 17.064,9.369 32.028,21.717 47.56,33.26 1.188,0.884 2.18,2.108 3.062,3.321 11.619,15.978 17.766,34.338 22.747,53.136 2.156,8.138 3.511,16.487 5.367,24.708 0.217,0.955 1.319,1.709 2.011,2.556 0.449,-0.938 1.377,-1.935 1.271,-2.807 -0.903,-7.516 -1.408,-15.15 -3.175,-22.474 -2.347,-9.734 -5.269,-19.389 -8.76,-28.774 -4.712,-12.664 -8.724,-25.766 -20.407,-34.568 -8.985,-6.771 -16.779,-15.229 -26.117,-21.4 -14.419,-9.528 -29.706,-17.741 -44.618,-26.523 -0.438,-0.258 -0.851,-0.559 -1.262,-0.864 -1.499,-0.812 -2.808,-2.012 -4.264,-2.917 -1.866,-0.698 -3.746,-1.338 -5.69,-1.749 -1.041,-0.098 -2.088,-0.108 -3.101,-0.049 -0.199,0.124 -0.396,0.245 -0.585,0.36 -3.802,2.291 -8.086,2.194 -10.231,-0.308 -3.449,-4.02 -6.96,-7.986 -10.412,-12.002 -0.519,-0.604 -0.856,-1.362 -1.278,-2.049 0.911,-0.059 1.85,-0.289 2.729,-0.147 2.99,0.479 5.944,1.19 8.938,1.628 17.194,2.517 34.218,5.456 49.976,13.508 2.938,1.501 6.037,2.65 9.17,3.667 2.485,0.807 5.477,1.254 7.617,2.811 0.632,0.459 1.317,0.511 2.074,0.705 1.961,0.503 4.106,1.618 5.878,2.632 1.379,0.789 3.051,1.284 4.458,2.14 0.739,0.45 1.182,0.747 1.992,1.053 0.95,0.358 1.425,1.083 2.109,1.757 0.774,0.761 1.727,1.402 2.573,2.083 6.469,5.197 13.098,10.192 19.575,15.378 1.882,1.506 3.909,3.235 4.951,5.321 7.618,15.255 11.153,31.795 14.228,48.375 3.403,18.357 5.95,36.873 9.25,55.251 1.065,5.937 3.206,11.701 5.144,17.446 0.421,1.247 2.083,2.074 3.174,3.095 -0.066,-1.487 0.079,-3.021 -0.243,-4.451 -0.733,-3.256 -1.815,-6.433 -2.541,-9.69 -2.592,-11.636 -8.373,-22.758 -5.752,-35.256 0.129,-0.615 -0.189,-1.319 -0.278,-1.984 -0.993,-7.437 -2.017,-14.87 -2.967,-22.313 -1.016,-7.953 -1.601,-15.98 -3.055,-23.85 -1.105,-5.984 -2.962,-11.886 -5.052,-17.618 -2.634,-7.226 -5.216,-14.594 -8.954,-21.264 -5.575,-9.944 -15.353,-15.819 -24.304,-22.364 -0.466,-0.341 -0.905,-0.491 -1.434,-0.646 -0.499,-0.146 -0.74,-0.48 -1.192,-0.741 -0.386,-0.222 -0.877,-0.416 -1.287,-0.578 -0.591,-0.234 -1.079,-0.424 -1.683,-0.492 -0.474,-0.054 -0.754,-0.136 -1.16,-0.356 -0.757,-0.409 -1.593,-0.721 -2.142,-1.378 -0.274,-0.329 -0.329,-0.732 -0.551,-1.117 -0.419,-0.727 -1.202,-0.871 -1.904,-1.187 -0.931,-0.418 -1.879,-0.846 -2.769,-1.346 -7.339,-4.125 -16.311,-5.289 -22.104,-12.258 -0.37,-0.444 -1.229,-0.465 -1.844,-0.722 -2.46,-1.027 -4.977,-1.945 -7.354,-3.139 -2.998,-1.505 -5.703,-3.99 -8.846,-4.728 -7.854,-1.843 -14.282,-6.45 -21.369,-9.777 -13.82,-6.489 -27.641,-13.329 -43.654,-11.804 -3.674,0.35 -7.327,1.185 -10.999,1.247 -7.472,0.125 -13.714,2.612 -19.018,7.971 -1.947,1.967 -4.677,3.222 -7.193,4.521 -0.643,0.332 -1.92,-0.267 -2.722,-0.745 -0.213,-0.128 0.046,-1.541 0.444,-2.118 3.598,-5.215 8.841,-8.271 14.647,-10.192 6.5,-2.15 13.186,-3.739 19.779,-5.61 11.493,-3.259 22.787,-7.906 34.505,-9.553 28.18,-3.961 56.612,-6.094 84.835,-9.784 22.532,-2.947 44.939,-6.903 67.328,-10.838 7.021,-1.234 13.31,-4.624 17.757,-10.668 1.979,-2.691 4.153,-5.238 6.239,-7.851 v -8.099 c -1.855,0.207 -3.701,0.363 -5.534,0.616 z M 379.813,579.195 c -1.37,2.253 -3.01,4.355 -4.684,6.4 -0.557,0.681 -1.585,0.977 -2.398,1.448 -0.298,-1.049 -0.69,-2.085 -0.846,-3.154 -0.056,-0.386 0.435,-0.866 0.708,-1.282 2.963,-4.529 5.943,-9.047 8.888,-13.588 0.43,-0.663 0.697,-1.431 1.039,-2.15 0.141,0.913 0.306,1.821 0.41,2.738 0.025,0.215 0.025,0.432 0.023,0.649 0.193,0.279 0.265,0.64 0.208,0.979 0.2,0.112 0.399,0.226 0.599,0.338 -1.302,2.549 -2.464,5.183 -3.947,7.622 z m 18.845,54.061 c -0.501,1.186 -1.304,2.268 -2.1,3.299 -0.836,1.083 -1.822,2.051 -2.742,3.069 -0.093,-1.189 -0.186,-2.378 -0.355,-4.549 0.61,-1.034 1.328,-2.811 2.549,-4.115 0.755,-0.807 2.277,-0.894 3.455,-1.304 -0.253,1.206 -0.335,2.486 -0.807,3.6 z M 312.55,485.137 c 0.923,-3.717 1.96,-7.407 2.852,-11.131 0.695,-2.901 1.345,-5.821 1.82,-8.765 1.035,-6.41 3.572,-11.486 9.297,-15.43 4.308,-2.968 7.45,-7.679 10.956,-11.748 3.948,-4.58 7.025,-10.244 11.733,-13.76 5.444,-4.066 10.853,-8.374 16.911,-11.605 1.885,-1.436 3.873,-2.691 5.811,-4.073 2.086,-1.488 4.237,-3.248 6.459,-4.873 2.119,-3.849 7.125,-6.261 10.398,-8.99 1.627,-1.357 3.306,-2.64 5.015,-3.879 0.796,-0.897 1.55,-1.829 2.267,-2.85 0.679,-0.968 1.28,-1.804 2.222,-2.399 0.395,-0.613 0.678,-1.393 1.234,-1.769 2.068,-1.4 4.178,-2.759 6.376,-3.938 2.495,-1.336 5.152,-2.369 7.648,-3.704 0.421,-0.225 0.78,-0.341 1.1,-0.391 0.241,-0.271 0.581,-0.484 1.052,-0.578 1.324,-0.264 2.71,-0.568 4.02,-1.001 0.609,-0.343 1.207,-0.699 1.794,-1.063 1.413,-2.183 3.675,-3.652 7.25,-4.152 1.99,-0.279 3.751,-1.898 5.855,-2.019 1.333,-0.913 2.603,-1.905 3.803,-3.02 0.06,-0.253 0.146,-0.461 0.308,-0.561 0.217,-0.133 0.442,-0.253 0.662,-0.381 0.007,-0.007 0.015,-0.014 0.021,-0.021 1.318,-1.343 2.509,-2.089 4.106,-2.243 0.485,-0.785 1.524,-1.266 2.363,-0.643 0.048,0.036 0.088,0.072 0.135,0.108 0.694,0.083 1.363,0.572 1.503,1.272 0.021,0.108 0.039,0.205 0.056,0.303 0.617,0.902 0.894,1.941 0.84,3.33 -0.002,0.047 -0.012,0.091 -0.018,0.136 0.057,0.328 0.074,0.627 0.025,0.839 -0.1,0.433 -0.247,0.817 -0.42,1.176 0.025,0.083 0.056,0.165 0.081,0.249 0.107,0.357 -0.917,1.268 -1.579,1.599 -0.007,0.003 -0.015,0.006 -0.022,0.009 -0.544,0.421 -1.176,0.771 -1.88,1.075 -1.002,0.433 -2.054,0.701 -3.117,0.937 -1.364,0.587 -2.712,1.002 -4.107,1.025 -0.01,0.004 -0.02,0.006 -0.03,0.01 -1.422,0.504 -2.825,1.052 -4.222,1.614 -0.15,0.458 -0.549,0.791 -1.014,0.955 -0.649,1.019 -1.645,1.849 -3.247,1.805 -0.067,-0.002 -0.133,0.004 -0.2,0.004 -0.418,0.469 -0.969,0.626 -1.497,0.563 -2.601,1.381 -5.384,2.363 -8.045,3.612 -0.08,0.087 -0.162,0.174 -0.264,0.256 -1.989,1.604 -3.985,3.333 -6.331,4.359 -0.33,0.305 -0.647,0.628 -0.964,0.952 0.088,0.002 0.161,0.009 0.253,0.009 -1.014,1.202 -1.52,1.847 -2.073,2.449 -6.396,6.969 -14.92,10.646 -23.124,14.78 -0.064,0.033 -0.152,0.044 -0.241,0.056 -0.069,0.036 -0.132,0.077 -0.208,0.108 -2.285,0.918 -4.18,3.014 -6.223,4.396 -2.42,1.636 -4.806,3.334 -7.25,4.933 -3.925,2.567 -6.319,6.004 -9.622,9.011 -5.959,7.745 -11.186,16.042 -16.804,24.042 -1.344,1.913 -2.529,4.021 -3.349,6.204 -3.701,9.859 -13.023,15.053 -18.965,23.053 -2.8,3.77 -6.192,7.104 -9.385,10.571 -0.496,0.538 -1.366,0.729 -2.063,1.082 0.007,-0.632 -0.111,-1.297 0.038,-1.895 z m -5.25,19.053 c 0.913,-4.913 4.458,-8.141 7.618,-11.543 4.266,-4.59 8.738,-8.989 13.124,-13.468 0.151,-0.302 0.352,-0.509 0.58,-0.638 0.248,-0.309 0.488,-0.636 0.75,-0.899 3.902,-5.537 8.466,-11.098 13.771,-15.286 0.084,-0.524 0.339,-1.146 0.638,-1.458 1.473,-1.532 3.226,-2.792 4.734,-4.295 5.966,-5.94 11.711,-12.115 17.886,-17.829 3.087,-2.856 6.954,-4.86 10.396,-7.35 1.011,-0.731 2.294,-1.676 2.56,-2.745 1.287,-5.175 5.523,-7.456 9.233,-10.474 3.591,-2.921 7.637,-6.071 9.559,-10.05 2.323,-4.808 6.787,-5.448 10.346,-7.731 2.307,-1.48 5.391,-1.734 8.104,-2.604 0.745,-0.239 1.942,-0.619 2.032,-1.102 0.873,-4.679 5.826,-2.56 8.072,-5.246 0.61,0.435 1.332,0.695 1.56,1.184 0.23,0.493 0.21,1.554 -0.113,1.782 -2.487,1.76 -5.067,3.39 -7.632,5.036 -1.586,1.019 -3.904,1.618 -4.68,3.058 -3.693,6.858 -9.855,11.194 -15.591,15.939 -3.352,2.771 -6.92,5.416 -10.747,7.448 -6.455,3.428 -10.917,9.083 -16.324,13.666 -5.511,4.671 -10.794,9.618 -16.05,14.578 -2.792,2.635 -5.245,5.629 -7.999,8.307 -0.625,0.607 -1.447,1.102 -2.3,1.444 -0.038,0.031 -0.068,0.065 -0.11,0.095 -5.061,3.568 -9.528,8.772 -13.302,13.954 -0.106,0.7 -0.237,1.375 -0.635,1.804 -6.845,7.375 -13.807,14.64 -20.72,21.951 -1.031,1.089 -1.96,2.274 -2.969,3.385 -0.425,0.469 -0.935,0.862 -2.093,1.914 0.156,-1.493 0.179,-2.168 0.302,-2.827 z m 106.461,-80.653 c -2.339,3.126 -3.944,7.229 -6.885,8.751 -4.687,2.427 -7.033,6.879 -10.934,9.829 -2.07,1.565 -4.032,3.272 -6.043,4.916 1.129,-2.278 2.056,-4.69 3.449,-6.794 1.139,-1.72 2.824,-3.081 4.282,-4.585 0.91,-0.938 2.468,-1.727 2.673,-2.789 1.12,-5.792 6.67,-7.183 10.173,-10.564 0.43,-0.416 1.805,0.032 2.691,0.269 0.309,0.082 0.464,0.739 0.594,0.967 z m -108.808,96.641 c 0.314,-2.035 1.238,-4.316 2.619,-5.789 7.928,-8.45 15.608,-17.243 24.395,-24.719 3.305,-2.812 5.313,-6.513 8.708,-9.079 3.494,-2.642 6.746,-5.646 9.868,-8.729 4.92,-4.858 9.644,-9.916 14.451,-14.888 0.117,-0.121 0.213,-0.283 0.355,-0.355 3.354,-1.684 6.243,-3.871 8.361,-7.064 0.423,-0.639 1.617,-0.768 2.455,-1.132 -0.182,0.885 -0.102,1.962 -0.586,2.628 -8.198,11.295 -16.543,22.484 -24.701,33.807 -12.687,17.61 -23.804,36.194 -34.542,55.048 -4.127,7.246 -9.832,13.593 -14.838,20.334 -0.291,0.393 -0.762,0.649 -1.566,1.315 -0.269,-0.815 -0.711,-1.454 -0.632,-2.021 1.823,-13.127 3.628,-26.259 5.653,-39.356 z m -7.137,58.226 c -0.232,-0.351 -0.466,-0.572 -0.542,-0.84 -0.789,-2.727 2.368,-10.711 4.812,-12.107 0.34,-0.193 0.833,-0.119 1.255,-0.169 -0.021,0.315 0.039,0.663 -0.073,0.94 -1.5,3.687 -3.013,7.368 -4.559,11.036 -0.175,0.418 -0.572,0.741 -0.893,1.14 z m 49.25,-51.125 c -2.937,3.805 -5.916,7.578 -8.888,11.355 -0.037,0.068 -0.069,0.139 -0.11,0.205 -0.15,0.243 -0.33,0.461 -0.518,0.673 v 0.007 c -0.002,0 -0.004,0 -0.006,0 -0.076,0.086 -0.154,0.17 -0.233,0.253 -4.204,6.134 -8.45,12.241 -12.596,18.415 -7.602,11.321 -15.13,22.692 -22.732,34.015 -0.613,0.913 -1.557,1.604 -2.347,2.397 0.121,-1.102 0.036,-2.275 0.396,-3.293 4.029,-11.392 11.236,-20.927 18.103,-30.646 1.929,-2.731 4.135,-5.271 6.274,-7.85 3.467,-4.178 6.959,-8.334 10.51,-12.44 0.007,-0.015 0.006,-0.028 0.014,-0.043 0.487,-0.854 1.361,-1.401 1.833,-2.25 0.271,-0.486 0.49,-0.993 0.807,-1.452 0.174,-0.251 0.369,-0.474 0.542,-0.717 1.437,-4.032 5.354,-6.439 8.119,-9.596 0.183,-0.208 0.613,-0.199 0.928,-0.292 -0.024,0.426 0.119,0.98 -0.096,1.259 z m 26.48,-42.046 c -0.833,0.905 -1.939,1.557 -3.054,2.201 -0.716,0.983 -1.425,1.972 -2.15,2.95 -0.091,0.124 -0.191,0.24 -0.287,0.36 l 0.155,0.677 c -0.489,0.662 -0.838,1.558 -1.49,1.949 -1.236,0.74 -2.252,1.667 -3.166,2.681 -0.07,0.093 -0.147,0.175 -0.23,0.247 -1.687,1.941 -2.999,4.197 -4.567,6.233 -14.48,18.784 -28.959,37.569 -43.386,56.394 -2.97,3.875 -5.7,7.931 -8.574,11.88 -0.471,0.647 -1.115,1.17 -1.679,1.75 0.029,-0.762 -0.187,-1.646 0.125,-2.267 2.716,-5.395 5.46,-10.776 8.336,-16.087 1.508,-2.787 3.155,-5.522 4.987,-8.104 4.62,-6.51 9.356,-12.938 14.093,-19.362 3.955,-5.363 7.684,-10.933 12.042,-15.951 5.479,-6.309 9.696,-13.908 16.957,-18.481 1.189,-1.89 2.743,-3.516 4.277,-5.166 -0.533,-0.528 -0.542,-1.21 0.43,-2.187 4.356,-4.378 6.375,-10.992 12.783,-13.424 0.661,-0.251 1.086,-1.19 1.562,-1.852 2.622,-3.645 5.115,-7.391 7.908,-10.898 0.75,-0.94 2.395,-1.167 3.628,-1.721 0.304,1.731 1.286,3.719 0.752,5.135 -0.799,2.115 -2.558,3.919 -4.096,5.694 -5.056,5.837 -10.129,11.666 -15.356,17.349 z m 30.209,50.519 c -0.913,2.977 -1.6,6.114 -3.078,8.806 -2.484,4.524 -5.473,8.775 -8.327,13.09 -0.499,0.754 -1.38,1.255 -2.084,1.873 -0.481,-0.968 -0.962,-1.937 -1.633,-3.286 0.896,-1.806 1.609,-3.657 2.662,-5.29 3.423,-5.308 6.958,-10.543 10.486,-15.782 0.323,-0.479 0.905,-0.785 1.367,-1.171 0.22,0.591 0.754,1.28 0.607,1.76 z m 13.117,-37.361 c -2.113,3.63 -3.854,7.837 -6.899,10.476 -3.628,3.145 -3.912,7.974 -6.688,11.337 -0.599,1.331 -1.581,2.639 -2.573,3.795 -2.315,4.019 -4.628,8.039 -6.987,12.032 -0.297,0.504 -1.01,0.762 -1.53,1.134 -0.282,-0.692 -0.902,-1.444 -0.792,-2.067 0.924,-5.263 1.967,-10.506 3.034,-15.743 0.05,-0.246 0.382,-0.434 0.686,-0.627 0.165,-0.166 0.331,-0.33 0.496,-0.497 0.549,-1.052 1.511,-1.862 2.432,-2.763 0.296,-0.29 0.602,-0.591 0.913,-0.902 2.009,-2.408 3.805,-5.018 5.048,-7.783 0.461,-1.026 0.882,-2.145 1.415,-3.179 0.346,-0.86 0.762,-1.687 1.332,-2.438 0.935,-1.234 1.416,-1.23 2.016,-2.781 0.207,-0.534 0.928,-0.661 1.282,-0.345 4.326,-0.898 1.401,-4.091 0.953,-6.503 -0.03,-0.162 -0.016,-0.337 0.004,-0.502 0.282,-2.321 9.879,-10.983 12.296,-11.197 1.834,-0.162 3.654,-0.485 5.479,-0.736 -1.467,1.243 -3.017,2.404 -4.365,3.766 -0.631,0.636 -0.957,1.63 -1.263,2.517 -0.326,0.942 -0.135,2.306 -0.742,2.866 -3.02,2.787 -3.614,6.818 -5.547,10.14 z m -8.036,102.524 c -0.302,0.779 -0.648,1.582 -1.159,2.227 -0.476,0.6 -1.199,1.002 -1.813,1.491 -0.2,-0.776 -0.399,-1.552 -0.683,-2.654 0.56,-1.704 0.677,-4.059 1.9,-5.424 4.269,-4.766 4.308,-11.034 6.488,-16.518 2.285,-5.742 4.604,-11.472 6.955,-17.188 0.152,-0.37 0.698,-0.578 1.061,-0.861 0.131,0.597 0.501,1.26 0.357,1.78 -1.188,4.272 -2.258,8.595 -3.769,12.755 -2.971,8.182 -6.196,16.273 -9.337,24.392 z m 16.046,52.784 c -0.193,-0.7 -2.089,-0.845 -3.097,-1.421 -2.813,-1.608 -5.597,-3.274 -8.325,-5.023 -0.296,-0.188 -0.37,-1.171 -0.162,-1.598 0.357,-0.733 1.017,-1.318 1.55,-1.966 4.324,-5.252 4.931,-5.229 9.254,-0.087 3.468,4.124 6.899,8.038 13.393,6.622 1.521,-0.332 3.604,1.912 5.429,2.971 -0.483,2.994 -4.287,6.049 -6.682,5.805 -0.49,-0.051 -0.968,-0.466 -1.437,-0.438 -4.217,0.238 -8.4,0.644 -9.923,-4.865 z m 25.44,173.039 c -0.195,1.93 -1.925,3.719 -3.093,5.485 -0.058,0.087 -1.939,-0.575 -1.997,-1.019 -0.23,-1.745 -0.379,-3.501 -0.508,-5.259 -0.705,-1.38 -1.208,-2.82 -1.125,-4.45 0.015,-0.29 0.084,-0.543 0.184,-0.77 0.009,-14.398 0.198,-28.802 -0.097,-43.194 -0.136,-6.676 -1.381,-13.322 -1.943,-19.997 -0.401,-4.76 -0.5,-9.546 -0.737,-14.319 -0.15,-3.017 -0.355,-6.029 -0.444,-9.047 -0.066,-2.262 0.239,-4.555 -0.026,-6.786 -0.346,-2.917 -0.402,-6.185 -1.802,-8.594 -3.324,-5.719 -2.481,-12.286 -4.554,-18.191 5.729,-9.407 -0.508,-17.896 -2.008,-26.761 -0.51,-3.015 -0.711,-6.084 -0.927,-9.138 -0.011,-0.15 1.578,-0.734 1.756,-0.531 1.989,2.263 4.577,3.822 5.242,7.399 1.008,5.429 3.663,10.564 4.556,15.998 1.618,9.843 2.437,19.816 3.626,29.731 0.416,3.471 1.206,6.916 1.364,10.394 0.496,10.908 0.715,21.829 1.174,32.739 0.118,2.805 1.108,5.598 1.038,8.379 -0.176,6.998 -1.055,13.986 -1.046,20.979 0.01,8.729 0.617,17.457 0.987,26.186 0.15,3.595 0.738,7.227 0.38,10.766 z m 19.135,-8.83 c -0.328,0.913 -1.065,1.681 -1.617,2.514 -0.856,-1.006 -1.712,-2.013 -2.018,-2.371 0,-6.942 0.005,-12.756 -0.005,-18.569 -0.001,-0.911 -0.316,-1.929 -0.11,-2.74 -10e-4,-0.08 -0.011,-0.155 -0.004,-0.241 0.39,-4.82 -0.484,-9.601 -0.275,-14.38 -0.966,-2.707 -1.217,-5.469 1.178,-8.384 0.349,-0.424 -0.527,-1.714 -0.562,-2.614 -0.353,-9.116 -0.695,-18.234 -0.965,-27.354 -0.235,-0.317 -0.365,-0.736 -0.313,-1.269 0.123,-1.262 0.165,-2.518 0.174,-3.771 -0.022,-0.838 -0.049,-1.676 -0.069,-2.514 -10e-4,-0.035 0.015,-0.07 0.021,-0.105 -0.218,-4.823 -1.061,-9.604 -1.884,-14.393 -0.016,-0.095 -0.015,-0.183 -0.02,-0.273 -0.207,-1.781 -0.065,-3.625 0.45,-5.604 0.602,-2.314 -0.649,-5.132 -1.147,-7.707 -0.983,-5.078 -1.526,-10.312 -3.161,-15.176 -2.132,-6.342 0.267,-11.166 3.858,-15.816 1.604,-2.078 2.288,-0.089 2.471,1.079 0.806,5.126 1.424,10.282 2.124,15.526 0,2.902 0.111,5.92 -0.042,8.924 -0.089,1.746 -0.575,3.476 -0.935,5.202 -0.13,0.627 -0.788,1.507 -0.573,1.789 2.818,3.695 1.36,7.809 1.111,11.813 1.204,6.956 2.449,13.947 1.759,21.026 -0.025,0.253 -0.094,0.474 -0.183,0.679 0.493,2.949 0.932,5.9 1.066,8.865 0.39,8.654 0.501,17.321 0.592,25.988 0.077,0.314 0.089,0.661 0.011,1.039 0.023,2.217 0.045,4.434 0.071,6.649 0.006,0.513 -0.199,1.029 -0.448,1.545 0.181,2.908 0.492,5.825 0.317,8.723 0.003,0.034 0.011,0.067 0.014,0.101 0.428,5.351 0.701,10.727 0.688,16.092 -0.005,1.915 -0.905,3.86 -1.574,5.727 z m 3.535,-153.443 c -0.393,5.003 -2.308,6.819 -5.243,4.7 -0.12,-0.086 -0.224,-0.193 -0.331,-0.299 -1.89,-0.085 -4.292,-0.962 -6.421,-1.995 -2.209,-0.214 -4.492,-0.574 -6.343,-1.278 -0.007,0.001 -0.012,0.005 -0.019,0.006 -0.14,0.02 -0.279,0.038 -0.419,0.058 -1.105,0.151 -1.957,-0.464 -2.354,-1.258 -0.058,0.086 -0.114,0.168 -0.173,0.259 -1.354,-1.855 -2.78,-3.209 -2.552,-3.602 0.928,-1.598 2.363,-2.9 3.61,-4.312 0.265,0.258 0.613,0.548 0.961,0.838 0.688,-0.359 1.554,-0.379 2.232,0.148 0.285,0.011 0.561,0.033 0.812,0.078 3.988,0.718 7.916,1.37 11.915,1.956 0.297,-0.157 0.595,-0.274 0.899,-0.294 2.757,-0.174 3.632,2.371 3.426,4.995 z m 34.944,5.23 c -2.656,1.307 -5.439,2.354 -7.461,3.174 -2.538,-0.394 -4.19,-0.9 -5.867,-0.885 -19.274,0.177 -14.15,-5.812 -14.852,-9.902 -0.077,-0.45 0.984,-1.588 1.463,-1.558 2.306,0.147 5.378,-0.227 6.732,1.082 3.296,3.185 6.691,2.359 10.517,2.285 2.893,-0.055 5.888,1.604 8.682,2.849 0.618,0.275 0.995,2.853 0.786,2.955 z m 55.523,1.749 c -2.935,-0.16 -5.938,0.967 -8.91,1.518 -0.008,-0.137 -0.015,-0.274 -0.022,-0.41 -8.344,0 -16.69,0.096 -25.03,-0.091 -1.441,-0.033 -3.621,-0.928 -4.096,-2.019 -0.649,-1.491 -0.046,-3.557 0.155,-5.362 0.035,-0.315 0.984,-0.863 1.078,-0.784 0.136,0.113 0.281,0.229 0.427,0.346 0.201,-0.132 0.432,-0.243 0.722,-0.308 2.941,-0.648 5.869,-1.021 8.804,-1.177 3.51,-2.261 7.812,-3.294 12.19,-3.399 0.741,-0.019 1.8,0.698 2.653,1.604 0.201,0.04 0.403,0.09 0.604,0.152 3.542,-0.308 7.061,-0.493 10.615,-0.04 1.206,-0.733 2.248,-0.689 2.849,1.454 0.363,1.295 1.029,2.514 1.321,3.819 0.609,2.718 0.886,4.93 -3.36,4.697 z M 732.545,554.868 c 0.366,0.212 0.908,0.332 1.072,0.647 2.53,4.886 5.012,9.798 7.533,14.759 -0.2,0.484 -0.369,0.895 -0.539,1.305 -0.398,-0.259 -0.811,-0.497 -1.192,-0.777 -5.077,-3.715 -5.561,-9.554 -6.906,-14.99 -0.073,-0.294 0.017,-0.628 0.032,-0.944 z m 44.426,18.324 c 0.259,-1.879 0.462,-3.356 0.667,-4.835 0.957,1.2 2.107,2.294 2.832,3.621 1.761,3.223 3.36,6.538 4.927,9.862 0.23,0.487 -0.066,1.222 -0.119,1.842 -0.315,-0.057 -0.752,-10e-4 -0.927,-0.188 -2.386,-2.55 -4.822,-5.063 -7.032,-7.761 -0.532,-0.649 -0.282,-1.937 -0.348,-2.541 z m -79.764,49.45 c 0.051,0.333 0.146,0.658 0.277,1.235 -0.044,0.245 -0.129,0.721 -0.215,1.196 -0.578,-0.15 -1.403,-0.11 -1.692,-0.483 -1.615,-2.088 -3.788,-4.067 -4.511,-6.464 -3.014,-9.991 -5.67,-20.094 -8.282,-30.201 -2.936,-11.365 -5.705,-22.772 -8.476,-34.18 -0.264,-1.09 -0.209,-2.351 0.055,-3.446 0.211,-0.88 0.964,-1.63 1.477,-2.437 0.589,0.719 1.433,1.346 1.729,2.169 8.507,23.672 15.871,47.656 19.638,72.611 z m 7.881,-41.802 c 2.34,7.3 2.914,15.168 4.225,22.793 0.062,0.36 -0.236,0.781 -0.368,1.175 -0.26,-0.396 -0.6,-0.76 -0.77,-1.189 -2.231,-5.669 -4.312,-11.4 -6.692,-17.006 -1.925,-4.533 -4.395,-8.838 -6.268,-13.391 -1.812,-4.405 -3.061,-9.04 -4.772,-13.49 -1.002,-2.604 -2.631,-4.968 -3.62,-7.575 -2.226,-5.875 -3.89,-11.984 -6.437,-17.707 -1.882,-4.229 -5.004,-7.888 -7.17,-12.013 -1.207,-2.299 -1.614,-5.025 -2.318,-7.576 -0.091,-0.329 0.204,-0.764 0.461,-1.614 0.702,1.097 1.206,1.754 1.573,2.479 7.468,14.711 14.966,29.407 22.353,44.158 3.456,6.903 7.467,13.671 9.803,20.956 z m -4.029,-46.874 c -0.374,0.688 -0.648,1.197 -0.923,1.704 -0.342,-0.533 -0.763,-1.031 -1.014,-1.604 -3.975,-9.027 -7.595,-18.229 -11.98,-27.049 -4.219,-8.483 -9.23,-16.572 -13.882,-24.841 -1.438,-2.555 -2.857,-5.121 -4.222,-7.716 -0.17,-0.324 0.06,-0.858 0.104,-1.295 0.464,0.137 1.109,0.125 1.362,0.435 1.486,1.817 3.042,3.609 4.28,5.593 6.674,10.684 12.508,21.999 20.128,31.95 5.558,7.259 3.492,15.413 6.147,22.823 z m 71.738,35.82 c -1.474,-1.229 -3.26,-2.229 -4.367,-3.729 -4.477,-6.067 -8.741,-12.29 -13.089,-18.452 -4.92,-6.972 -9.97,-13.855 -14.716,-20.943 -2.401,-3.587 -4.234,-7.553 -6.365,-11.325 -3.396,-6.009 -6.852,-11.983 -10.227,-18.003 -1.559,-2.781 -3.048,-5.604 -4.438,-8.472 -0.391,-0.806 -0.32,-1.836 -0.463,-2.763 0.8,0.554 1.786,0.96 2.37,1.688 7.494,9.319 15.231,18.464 22.31,28.092 9.869,13.423 19.325,27.154 28.714,40.921 1.288,1.89 1.173,4.736 1.671,6.976 -0.52,2.226 -0.96,4.118 -1.4,6.01 z m -0.026,-33.243 c -0.842,-0.446 -1.952,-0.685 -2.483,-1.373 -3.903,-5.053 -7.532,-10.324 -11.549,-15.283 -8.465,-10.456 -17.171,-20.717 -25.638,-31.172 -1.628,-2.01 -2.614,-4.54 -3.896,-6.83 2.127,1.614 4.607,2.92 6.324,4.891 11.919,13.694 23.708,27.503 35.454,41.347 1.322,1.56 2.114,3.569 3.055,5.199 -0.584,1.487 -0.926,2.354 -1.267,3.221 z m 1.225,11.225 c -0.301,0.889 -0.559,1.646 -0.815,2.405 -0.665,-0.406 -1.567,-0.653 -1.958,-1.242 -3.621,-5.455 -7.171,-10.958 -10.675,-16.487 -0.29,-0.457 -0.096,-1.22 -0.126,-1.841 0.422,0.11 1.01,0.08 1.241,0.353 3.796,4.482 7.6,8.959 11.262,13.55 0.672,0.843 0.733,2.173 1.071,3.262 z m -0.162,-37.087 c 0,2.191 0.115,4.392 -0.049,6.571 -0.08,1.064 -0.681,2.09 -1.045,3.132 -1.161,-0.523 -2.646,-0.754 -3.427,-1.621 -3.82,-4.248 -7.443,-8.672 -11.152,-13.02 -11.122,-13.038 -22.254,-26.068 -33.377,-39.105 -3.987,-4.673 -8.132,-8.874 -9.956,-15.394 -1.228,-4.384 -6.256,-7.668 -9.458,-11.548 -2.426,-2.939 -4.357,-6.341 -7.04,-9 -3.854,-3.821 -8.187,-7.161 -12.323,-10.695 -4.744,-4.052 -9.493,-8.1 -14.251,-12.136 -1.787,-1.516 -3.382,-3.646 -5.455,-4.355 -4.332,-1.481 -4.329,-4.764 -4.36,-8.209 -0.003,-0.31 1.081,-1.001 1.263,-0.886 5.284,3.335 11.489,4.409 16.298,9.38 18.254,18.872 37.462,36.817 55.833,55.58 11.176,11.414 21.474,23.69 32.165,35.579 0.226,0.251 0.392,0.588 0.664,0.757 5.724,3.546 6.462,8.963 5.67,14.97 z m -78.68,-100.813 c 1.266,0.214 2.761,0.068 3.755,0.705 3.47,2.224 6.772,4.708 10.121,7.117 0.539,0.387 0.998,1.305 1.477,1.293 7.062,-0.184 8.794,6.256 11.987,10.258 9.24,11.582 17.785,23.719 26.59,35.647 0.6,0.812 1.091,1.704 1.61,2.524 -0.021,0.351 -0.038,0.65 -0.056,0.951 -0.551,-0.283 -1.232,-0.443 -1.632,-0.868 -5.664,-6.014 -11.485,-11.894 -16.883,-18.139 -10.659,-12.334 -21.906,-24.074 -33.997,-35.007 -0.375,-0.339 -0.853,-0.617 -1.103,-1.031 -0.674,-1.118 -1.252,-2.296 -1.869,-3.45 z m -38.805,-34.771 c 11.334,3.613 23.138,5.348 34.299,9.902 3.335,1.361 6.589,2.906 9.784,4.566 5.656,2.94 11.088,6.292 16.462,9.714 2.675,1.703 5.332,3.434 7.999,5.148 2.539,1.631 5.054,3.399 7.719,4.806 0.388,0.205 0.837,0.365 1.181,0.62 0.402,0.297 0.762,0.785 1.099,1.149 0.326,0.352 0.504,0.463 0.908,0.704 0.866,0.516 1.286,1.55 1.639,2.47 0.207,0.538 0.421,1.042 0.73,1.533 0.252,0.4 0.684,0.703 0.856,1.153 0.212,0.552 0.361,1.001 0.69,1.537 0.756,1.227 1.569,2.422 2.511,3.515 5.932,6.882 11.178,14.769 18.317,20.079 7.059,5.25 7.543,12.064 8.756,19.08 1.373,7.953 2.22,15.999 3.226,24.012 0.187,1.49 0.17,3.039 -0.017,4.526 -0.089,0.71 -0.798,1.342 -1.227,2.009 -0.524,-0.354 -1.15,-0.618 -1.558,-1.076 -3,-3.375 -5.984,-6.764 -8.904,-10.208 -0.627,-0.739 -1.279,-1.679 -1.398,-2.594 -1.467,-11.257 -9.85,-18.772 -15.086,-27.977 -2.477,-4.354 -5.344,-8.485 -8.029,-12.72 -0.443,-0.7 -0.778,-1.49 -1.312,-2.11 -3.701,-4.306 -8.208,-8.138 -10.986,-12.967 -3.936,-6.842 -9.868,-10.862 -16.403,-14.251 -10.301,-5.344 -20.854,-10.199 -31.2,-15.458 -2.723,-1.384 -5.111,-3.446 -7.586,-5.287 -4.441,-3.306 -8.843,-6.667 -13.228,-10.048 -0.469,-0.362 -0.712,-1.019 -1.06,-1.538 0.61,-0.109 1.295,-0.455 1.818,-0.289 z m -46.433,294.3 c -0.298,0.333 -1.026,0.259 -1.37,0.575 -3.238,2.97 -6.327,4.196 -10.31,0.783 -1.079,-0.926 -3.89,-0.221 -5.768,0.268 -0.823,0.214 -1.485,0.284 -2.032,0.218 -2.097,0.645 -4.667,0.152 -6.703,-1.03 -0.449,-0.06 -0.811,-0.239 -1.099,-0.485 -0.664,0.221 -2.12,0.043 -2.372,-0.367 -0.475,-0.776 -0.187,-2.037 -0.169,-3.093 0.009,-0.489 0.141,-0.977 0.244,-1.638 -0.305,-0.969 -0.95,-2.081 -0.904,-3.166 0.038,-0.904 0.886,-1.776 1.375,-2.662 0.147,0.11 0.311,0.216 0.478,0.319 0.228,-0.098 0.465,-0.173 0.713,-0.19 0.151,-0.011 0.297,-0.032 0.445,-0.049 1.366,-0.79 2.995,-1.069 4.649,-1.099 0.726,-0.721 2.128,-1.071 4.353,-1.256 1.862,0.649 3.777,1.178 5.572,1.976 0.104,0.046 0.208,0.09 0.312,0.135 0.198,-0.025 0.396,-0.038 0.597,-0.08 2.476,-0.518 5.088,-1.308 7.633,-1.129 0.656,-0.759 2.765,-0.882 3.958,-0.515 3.846,1.183 3.91,4.939 3.998,7.906 0.045,1.498 -2.274,3.096 -3.6,4.579 z"
   id="path9"
   style="fill-rule:evenodd;stroke-width:1.30418432" />
	</g></svg>