<?xml version="1.0" encoding="UTF-8" standalone="no"?>
<!-- Created with Inkscape (http://www.inkscape.org/) -->

<svg
   xmlns:dc="http://purl.org/dc/elements/1.1/"
   xmlns:cc="http://creativecommons.org/ns#"
   xmlns:rdf="http://www.w3.org/1999/02/22-rdf-syntax-ns#"
   xmlns:svg="http://www.w3.org/2000/svg"
   xmlns="http://www.w3.org/2000/svg"
   xmlns:sodipodi="http://sodipodi.sourceforge.net/DTD/sodipodi-0.dtd"
   xmlns:inkscape="http://www.inkscape.org/namespaces/inkscape"
   version="1.1"
   width="297mm"
   height="210mm"
   viewBox="0 0 1122.5197 793.70079"
   id="Layer_1"
   xml:space="preserve"
   sodipodi:docname="micrognathozoa.svg"
   inkscape:version="0.92.3 (unknown)"><metadata
   id="metadata34"><rdf:RDF><cc:Work
       rdf:about=""><dc:format>image/svg+xml</dc:format><dc:type
         rdf:resource="http://purl.org/dc/dcmitype/StillImage" /><dc:title /></cc:Work></rdf:RDF></metadata><sodipodi:namedview
   pagecolor="#ffffff"
   bordercolor="#666666"
   borderopacity="1"
   objecttolerance="10"
   gridtolerance="10"
   guidetolerance="10"
   inkscape:pageopacity="0"
   inkscape:pageshadow="2"
   inkscape:window-width="2040"
   inkscape:window-height="1332"
   id="namedview32"
   showgrid="false"
   units="mm"
   inkscape:zoom="0.70377385"
   inkscape:cx="544.9672"
   inkscape:cy="639.65222"
   inkscape:window-x="141"
   inkscape:window-y="37"
   inkscape:window-maximized="0"
   inkscape:current-layer="Layer_1" /><defs
   id="defs60" />
    
    
    
<g
   id="g992"
   transform="matrix(0.55866193,0.82939547,-0.96740746,0.65162366,640.76161,-287.4788)"
   style="stroke-width:0.92592567"><path
     sodipodi:nodetypes="cccccccccccccccccccccccsccc"
     inkscape:connector-curvature="0"
     id="path822"
     d="m 527.15798,126.58308 c -39.6458,18.63364 -49.36135,27.11861 -59.67827,58.9678 -6.34135,19.53262 -7.66653,35.88794 -5.89795,55.99838 0.65427,15.88969 27.77202,27.02303 4.99085,39.98188 -6.21078,12.18385 22.5144,24.06921 0.0641,33.3934 -14.26576,12.749 17.15092,29.48595 -3.28703,42.53223 -3.2072,13.67368 16.6528,29.7884 -5.07371,39.14568 -14.54898,13.47966 15.26519,35.79446 -13.86871,41.57811 -0.77445,12.76449 18.13574,24.74737 4.95027,39.32999 -8.61758,17.89348 -24.32959,31.79663 -21.88643,53.39116 -2.32603,24.65236 -3.99513,51.58522 10.69603,73.05575 7.85701,16.43042 16.80008,34.61955 35.19078,41.15921 17.35383,7.74275 37.34409,12.51088 56.27944,10.42252 28.10778,-7.51742 54.72432,-22.70295 75.21443,-43.31215 12.76423,-15.67617 8.02298,-37.32683 13.35702,-55.69754 4.11032,-20.50128 2.83277,-41.89989 -6.42897,-60.88685 -9.21124,-13.98729 0.0303,-26.24141 8.44786,-35.85595 -6.76893,-9.0553 -26.45094,-18.52225 -8.83383,-30.23909 26.97341,-18.50889 -32.27419,-29.71959 -4.15746,-46.97214 15.68633,-15.93115 -32.84193,-26.34559 -6.57727,-40.73531 19.281,-11.47697 -5.97532,-15.69119 -10.98103,-24.14456 3.87602,-11.05783 35.00642,-22.98104 10.86742,-32.76449 -27.14288,-12.81327 14.97139,-29.70465 11.54644,-49.12444 3.67624,-23.28886 -1.06911,-55.77258 -13.31657,-74.77976 -8.72053,-13.53362 -21.94504,-15.33113 -35.47394,-24.28222 -6.5913,-5.41522 -16.91506,-10.10591 -25.4866,-10.16161 z"
     style="fill:#000000;fill-opacity:1;fill-rule:evenodd;stroke:#000000;stroke-width:0.92592567px;stroke-linecap:butt;stroke-linejoin:miter;stroke-opacity:1" /><path
     sodipodi:nodetypes="czc"
     inkscape:connector-curvature="0"
     id="path825"
     d="m 453.27061,600.45689 c 0,0 -17.61241,6.73971 -25.72509,14.85239 -8.11268,8.11268 -19.56679,33.89066 -19.56679,33.89066"
     style="fill:none;fill-rule:evenodd;stroke:#000000;stroke-width:0.92592567px;stroke-linecap:butt;stroke-linejoin:miter;stroke-opacity:1" /><path
     inkscape:connector-curvature="0"
     id="path827"
     d="m 589.67806,610.40327 26.99731,6.3941 7.81501,8.52546"
     style="fill:none;fill-rule:evenodd;stroke:#000000;stroke-width:0.92592567px;stroke-linecap:butt;stroke-linejoin:miter;stroke-opacity:1" /><path
     inkscape:connector-curvature="0"
     id="path829"
     d="m 582.57351,616.79737 c 0,0 8.52546,-6.3941 17.76139,9.94638 9.23592,16.34047 12.07774,20.6032 12.07774,20.6032"
     style="fill:none;fill-rule:evenodd;stroke:#000000;stroke-width:0.92592567px;stroke-linecap:butt;stroke-linejoin:miter;stroke-opacity:1" /><path
     inkscape:connector-curvature="0"
     id="path831"
     d="m 469.61108,619.63919 -23.44503,13.49866 -14.91956,24.86594"
     style="fill:none;fill-rule:evenodd;stroke:#000000;stroke-width:0.92592567px;stroke-linecap:butt;stroke-linejoin:miter;stroke-opacity:1" /><path
     inkscape:connector-curvature="0"
     id="path833"
     d="m 439.0615,553.56683 -36.94369,6.3941 -33.39141,14.20911 h 1.42091"
     style="fill:none;fill-rule:evenodd;stroke:#000000;stroke-width:0.92592567px;stroke-linecap:butt;stroke-linejoin:miter;stroke-opacity:1" /><path
     inkscape:connector-curvature="0"
     id="path835"
     d="m 458.95425,469.73308 -30.54959,2.13137 -34.81231,12.07774"
     style="fill:none;fill-rule:evenodd;stroke:#000000;stroke-width:0.92592567px;stroke-linecap:butt;stroke-linejoin:miter;stroke-opacity:1" /><path
     inkscape:connector-curvature="0"
     id="path837"
     d="m 462.50653,407.213 h -22.02412 l -29.12868,9.23592"
     style="fill:none;fill-rule:evenodd;stroke:#000000;stroke-width:0.92592567px;stroke-linecap:butt;stroke-linejoin:miter;stroke-opacity:1" /><path
     inkscape:connector-curvature="0"
     id="path839"
     d="m 482.39928,368.8484 -45.46915,3.55228 -23.44503,-6.3941 v 0"
     style="fill:none;fill-rule:evenodd;stroke:#000000;stroke-width:0.92592567px;stroke-linecap:butt;stroke-linejoin:miter;stroke-opacity:1" /><path
     inkscape:connector-curvature="0"
     id="path841"
     d="m 480.97837,311.3015 -31.9705,-7.10455 -22.73457,-1.42091"
     style="fill:none;fill-rule:evenodd;stroke:#000000;stroke-width:0.92592567px;stroke-linecap:butt;stroke-linejoin:miter;stroke-opacity:1" /><path
     inkscape:connector-curvature="0"
     id="path843"
     d="m 479.55746,280.75192 -24.15549,-14.91957 h -8.52546"
     style="fill:none;fill-rule:evenodd;stroke:#000000;stroke-width:0.92592567px;stroke-linecap:butt;stroke-linejoin:miter;stroke-opacity:1" /><path
     inkscape:connector-curvature="0"
     id="path845"
     d="m 471.74245,238.83504 -34.81232,-4.26273 -22.02412,-2.13137"
     style="fill:none;fill-rule:evenodd;stroke:#000000;stroke-width:0.92592567px;stroke-linecap:butt;stroke-linejoin:miter;stroke-opacity:1" /><path
     inkscape:connector-curvature="0"
     id="path847"
     d="M 473.16336,207.575 444.74514,195.49726 413.4851,189.81361"
     style="fill:none;fill-rule:evenodd;stroke:#000000;stroke-width:0.92592567px;stroke-linecap:butt;stroke-linejoin:miter;stroke-opacity:1" /><path
     inkscape:connector-curvature="0"
     id="path849"
     d="m 499.45021,152.86993 -20.6032,-22.73458 -21.31367,-8.52546 -13.49865,-3.55228"
     style="fill:none;fill-rule:evenodd;stroke:#000000;stroke-width:0.92592567px;stroke-linecap:butt;stroke-linejoin:miter;stroke-opacity:1" /><path
     inkscape:connector-curvature="0"
     id="path851"
     d="m 505.13386,88.928934 6.3941,23.445036 6.3941,29.83913"
     style="fill:none;fill-rule:evenodd;stroke:#000000;stroke-width:0.92592567px;stroke-linecap:butt;stroke-linejoin:miter;stroke-opacity:1" /><path
     inkscape:connector-curvature="0"
     id="path853"
     d="m 526.44752,51.985248 13.49866,44.758697 0.71045,41.916875"
     style="fill:none;fill-rule:evenodd;stroke:#000000;stroke-width:0.92592567px;stroke-linecap:butt;stroke-linejoin:miter;stroke-opacity:1" /><path
     inkscape:connector-curvature="0"
     id="path855"
     d="m 557.70757,143.63401 2.84182,-39.07505 19.1823,-20.603214"
     style="fill:none;fill-rule:evenodd;stroke:#000000;stroke-width:0.92592567px;stroke-linecap:butt;stroke-linejoin:miter;stroke-opacity:1" /><path
     inkscape:connector-curvature="0"
     id="path857"
     d="m 577.60032,169.92086 9.94638,-58.25735 19.89275,-12.077743 7.81501,-12.788199"
     style="fill:none;fill-rule:evenodd;stroke:#000000;stroke-width:0.92592567px;stroke-linecap:butt;stroke-linejoin:miter;stroke-opacity:1" /><path
     inkscape:connector-curvature="0"
     id="path859"
     d="m 596.78262,181.9986 22.02412,-29.12867 15.63002,-3.55228"
     style="fill:none;fill-rule:evenodd;stroke:#000000;stroke-width:0.92592567px;stroke-linecap:butt;stroke-linejoin:miter;stroke-opacity:1" /><path
     inkscape:connector-curvature="0"
     id="path861"
     d="m 606.72899,240.96641 29.12868,-13.49865 26.28685,8.52546"
     style="fill:none;fill-rule:evenodd;stroke:#000000;stroke-width:0.92592567px;stroke-linecap:butt;stroke-linejoin:miter;stroke-opacity:1" /><path
     inkscape:connector-curvature="0"
     id="path863"
     d="m 599.62444,218.23183 31.26004,-14.91956 23.44503,-7.10456"
     style="fill:none;fill-rule:evenodd;stroke:#000000;stroke-width:0.92592567px;stroke-linecap:butt;stroke-linejoin:miter;stroke-opacity:1" /><path
     inkscape:connector-curvature="0"
     id="path865"
     d="m 591.09897,287.14602 29.12868,-12.7882 12.07774,8.52546"
     style="fill:none;fill-rule:evenodd;stroke:#000000;stroke-width:0.92592567px;stroke-linecap:butt;stroke-linejoin:miter;stroke-opacity:1" /><path
     inkscape:connector-curvature="0"
     id="path867"
     d="m 581.86305,318.40606 h 39.07505 l 22.73458,12.7882"
     style="fill:none;fill-rule:evenodd;stroke:#000000;stroke-width:0.92592567px;stroke-linecap:butt;stroke-linejoin:miter;stroke-opacity:1" /><path
     inkscape:connector-curvature="0"
     id="path869"
     d="m 583.99442,348.24519 c 2.84182,0 26.99731,-3.55228 26.99731,-3.55228 l 13.49865,9.23592 17.05093,3.55228"
     style="fill:none;fill-rule:evenodd;stroke:#000000;stroke-width:0.92592567px;stroke-linecap:butt;stroke-linejoin:miter;stroke-opacity:1" /><path
     inkscape:connector-curvature="0"
     id="path871"
     d="m 577.60032,377.37387 45.46915,11.36728 14.20911,9.94638"
     style="fill:none;fill-rule:evenodd;stroke:#000000;stroke-width:0.92592567px;stroke-linecap:butt;stroke-linejoin:miter;stroke-opacity:1" /><path
     inkscape:connector-curvature="0"
     id="path873"
     d="m 593.23034,414.31755 33.39141,13.49866 4.97319,12.07774"
     style="fill:none;fill-rule:evenodd;stroke:#000000;stroke-width:0.92592567px;stroke-linecap:butt;stroke-linejoin:miter;stroke-opacity:1" /><path
     inkscape:connector-curvature="0"
     id="path875"
     d="m 596.78262,452.68215 c 2.13136,2.84182 34.10186,15.63002 34.10186,15.63002 l 15.63002,22.02412"
     style="fill:none;fill-rule:evenodd;stroke:#000000;stroke-width:0.92592567px;stroke-linecap:butt;stroke-linejoin:miter;stroke-opacity:1" /><path
     inkscape:connector-curvature="0"
     id="path877"
     d="m 601.75581,518.04405 62.52008,13.49866 11.36729,16.34048"
     style="fill:none;fill-rule:evenodd;stroke:#000000;stroke-width:0.92592567px;stroke-linecap:butt;stroke-linejoin:miter;stroke-opacity:1" /><path
     inkscape:connector-curvature="0"
     id="path879"
     d="m 576.25034,129.88473 -6.99777,18.08501 v 0"
     style="fill:none;fill-rule:evenodd;stroke:#000000;stroke-width:1.38888848;stroke-linecap:butt;stroke-linejoin:miter;stroke-miterlimit:4;stroke-dasharray:none;stroke-opacity:1" /><path
     style="fill:none;fill-rule:evenodd;stroke:#000000;stroke-width:1.38888848;stroke-linecap:butt;stroke-linejoin:miter;stroke-miterlimit:4;stroke-dasharray:none;stroke-opacity:1"
     d="m 555.21802,144.08343 11.27723,-15.77531 v 0"
     id="path881"
     inkscape:connector-curvature="0" /><path
     inkscape:connector-curvature="0"
     id="path883"
     d="m 551.29101,139.92582 2.53145,-19.22571 v 0"
     style="fill:none;fill-rule:evenodd;stroke:#000000;stroke-width:1.38888848;stroke-linecap:butt;stroke-linejoin:miter;stroke-miterlimit:4;stroke-dasharray:none;stroke-opacity:1" /><path
     inkscape:transform-center-y="8.5254661"
     inkscape:transform-center-x="0.71045551"
     style="fill:none;fill-rule:evenodd;stroke:#000000;stroke-width:1.38888848;stroke-linecap:butt;stroke-linejoin:miter;stroke-miterlimit:4;stroke-dasharray:none;stroke-opacity:1"
     d="m 548.01679,115.8066 -4.51833,18.85791 v 0"
     id="path885"
     inkscape:connector-curvature="0" /><path
     inkscape:connector-curvature="0"
     id="path887"
     d="m 531.04491,115.87807 3.34467,19.10103 v 0"
     style="fill:none;fill-rule:evenodd;stroke:#000000;stroke-width:1.38888848;stroke-linecap:butt;stroke-linejoin:miter;stroke-miterlimit:4;stroke-dasharray:none;stroke-opacity:1" /><path
     style="fill:none;fill-rule:evenodd;stroke:#000000;stroke-width:1.38888848;stroke-linecap:butt;stroke-linejoin:miter;stroke-miterlimit:4;stroke-dasharray:none;stroke-opacity:1"
     d="m 518.73787,117.59022 7.67525,17.80807 v 0"
     id="path889"
     inkscape:connector-curvature="0" /><path
     inkscape:connector-curvature="0"
     id="path891"
     d="m 504.61727,125.17519 9.46051,16.92735 v 0"
     style="fill:none;fill-rule:evenodd;stroke:#000000;stroke-width:1.38888848;stroke-linecap:butt;stroke-linejoin:miter;stroke-miterlimit:4;stroke-dasharray:none;stroke-opacity:1" /><path
     style="fill:none;fill-rule:evenodd;stroke:#000000;stroke-width:1.38888848;stroke-linecap:butt;stroke-linejoin:miter;stroke-miterlimit:4;stroke-dasharray:none;stroke-opacity:1"
     d="m 492.03016,132.04032 11.82065,15.37233 v 0"
     id="path893"
     inkscape:connector-curvature="0" /><path
     style="fill:none;fill-rule:evenodd;stroke:#000000;stroke-width:1.38888848;stroke-linecap:butt;stroke-linejoin:miter;stroke-miterlimit:4;stroke-dasharray:none;stroke-opacity:1"
     d="m 582.45035,134.03306 -10.12631,16.53767 v 0"
     id="path897"
     inkscape:connector-curvature="0" /><path
     style="fill:none;fill-rule:evenodd;stroke:#000000;stroke-width:1.38888848;stroke-linecap:butt;stroke-linejoin:miter;stroke-miterlimit:4;stroke-dasharray:none;stroke-opacity:1"
     d="m 572.25034,134.88473 -6.99777,18.08501 v 0"
     id="path901"
     inkscape:connector-curvature="0" /><path
     inkscape:connector-curvature="0"
     id="path903"
     d="m 555.99052,148.70665 11.27723,-15.77531 v 0"
     style="fill:none;fill-rule:evenodd;stroke:#000000;stroke-width:1.38888848;stroke-linecap:butt;stroke-linejoin:miter;stroke-miterlimit:4;stroke-dasharray:none;stroke-opacity:1" /><path
     style="fill:none;fill-rule:evenodd;stroke:#000000;stroke-width:1.38888848;stroke-linecap:butt;stroke-linejoin:miter;stroke-miterlimit:4;stroke-dasharray:none;stroke-opacity:1"
     d="m 551.22104,142.42575 12.00307,-15.23031 v 0"
     id="path905"
     inkscape:connector-curvature="0" /><path
     inkscape:connector-curvature="0"
     id="path907"
     d="m 544.01679,120.8066 -4.51833,18.85791 v 0"
     style="fill:none;fill-rule:evenodd;stroke:#000000;stroke-width:1.38888848;stroke-linecap:butt;stroke-linejoin:miter;stroke-miterlimit:4;stroke-dasharray:none;stroke-opacity:1"
     inkscape:transform-center-x="0.71045551"
     inkscape:transform-center-y="8.5254661" /><path
     style="fill:none;fill-rule:evenodd;stroke:#000000;stroke-width:1.38888848;stroke-linecap:butt;stroke-linejoin:miter;stroke-miterlimit:4;stroke-dasharray:none;stroke-opacity:1"
     d="m 527.04491,120.87807 3.34467,19.10103 v 0"
     id="path909"
     inkscape:connector-curvature="0" /><path
     inkscape:connector-curvature="0"
     id="path911"
     d="m 514.73787,122.59022 7.67525,17.80807 v 0"
     style="fill:none;fill-rule:evenodd;stroke:#000000;stroke-width:1.38888848;stroke-linecap:butt;stroke-linejoin:miter;stroke-miterlimit:4;stroke-dasharray:none;stroke-opacity:1" /><path
     style="fill:none;fill-rule:evenodd;stroke:#000000;stroke-width:1.38888848;stroke-linecap:butt;stroke-linejoin:miter;stroke-miterlimit:4;stroke-dasharray:none;stroke-opacity:1"
     d="m 500.61727,130.17519 9.46051,16.92735 v 0"
     id="path913"
     inkscape:connector-curvature="0" /><path
     inkscape:connector-curvature="0"
     id="path915"
     d="m 488.03016,137.04032 11.82065,15.37233 v 0"
     style="fill:none;fill-rule:evenodd;stroke:#000000;stroke-width:1.38888848;stroke-linecap:butt;stroke-linejoin:miter;stroke-miterlimit:4;stroke-dasharray:none;stroke-opacity:1" /><path
     inkscape:connector-curvature="0"
     id="path917"
     d="m 578.45035,139.03306 -10.12631,16.53767 v 0"
     style="fill:none;fill-rule:evenodd;stroke:#000000;stroke-width:1.38888848;stroke-linecap:butt;stroke-linejoin:miter;stroke-miterlimit:4;stroke-dasharray:none;stroke-opacity:1" /><path
     inkscape:connector-curvature="0"
     id="path919"
     d="m 581.02513,131.22409 -8.54735,17.40629 v 0"
     style="fill:none;fill-rule:evenodd;stroke:#000000;stroke-width:1.38888848;stroke-linecap:butt;stroke-linejoin:miter;stroke-miterlimit:4;stroke-dasharray:none;stroke-opacity:1" /><path
     style="fill:none;fill-rule:evenodd;stroke:#000000;stroke-width:1.38888848;stroke-linecap:butt;stroke-linejoin:miter;stroke-miterlimit:4;stroke-dasharray:none;stroke-opacity:1"
     d="m 561.31505,144.1852 12.60923,-14.73241 v 0"
     id="path921"
     inkscape:connector-curvature="0" /><path
     inkscape:connector-curvature="0"
     id="path923"
     d="m 554.45801,140.77892 4.19745,-18.93191 v 0"
     style="fill:none;fill-rule:evenodd;stroke:#000000;stroke-width:1.38888848;stroke-linecap:butt;stroke-linejoin:miter;stroke-miterlimit:4;stroke-dasharray:none;stroke-opacity:1" /><path
     inkscape:transform-center-y="8.4311061"
     inkscape:transform-center-x="1.4507955"
     style="fill:none;fill-rule:evenodd;stroke:#000000;stroke-width:1.38888848;stroke-linecap:butt;stroke-linejoin:miter;stroke-miterlimit:4;stroke-dasharray:none;stroke-opacity:1"
     d="m 552.08964,116.94502 -6.14471,18.39235 v 0"
     id="path925"
     inkscape:connector-curvature="0" /><path
     inkscape:connector-curvature="0"
     id="path927"
     d="m 535.88366,116.76866 1.66717,19.31985 v 0"
     style="fill:none;fill-rule:evenodd;stroke:#000000;stroke-width:1.38888848;stroke-linecap:butt;stroke-linejoin:miter;stroke-miterlimit:4;stroke-dasharray:none;stroke-opacity:1" /><path
     style="fill:none;fill-rule:evenodd;stroke:#000000;stroke-width:1.38888848;stroke-linecap:butt;stroke-linejoin:miter;stroke-miterlimit:4;stroke-dasharray:none;stroke-opacity:1"
     d="m 523.52851,118.28963 6.09397,18.40925 v 0"
     id="path929"
     inkscape:connector-curvature="0" /><path
     inkscape:connector-curvature="0"
     id="path931"
     d="m 509.37293,125.79513 7.94919,17.68747 v 0"
     style="fill:none;fill-rule:evenodd;stroke:#000000;stroke-width:1.38888848;stroke-linecap:butt;stroke-linejoin:miter;stroke-miterlimit:4;stroke-dasharray:none;stroke-opacity:1" /><path
     style="fill:none;fill-rule:evenodd;stroke:#000000;stroke-width:1.38888848;stroke-linecap:butt;stroke-linejoin:miter;stroke-miterlimit:4;stroke-dasharray:none;stroke-opacity:1"
     d="m 496.72254,132.55445 10.43589,16.34407 v 0"
     id="path933"
     inkscape:connector-curvature="0" /><path
     style="fill:none;fill-rule:evenodd;stroke:#000000;stroke-width:1.38888848;stroke-linecap:butt;stroke-linejoin:miter;stroke-miterlimit:4;stroke-dasharray:none;stroke-opacity:1"
     d="m 587.15176,135.50581 -11.52913,15.59217 v 0"
     id="path935"
     inkscape:connector-curvature="0" /></g></svg>