<?xml version="1.0" encoding="UTF-8" standalone="no"?>
<!-- Created with Inkscape (http://www.inkscape.org/) -->

<svg
   xmlns:dc="http://purl.org/dc/elements/1.1/"
   xmlns:cc="http://creativecommons.org/ns#"
   xmlns:rdf="http://www.w3.org/1999/02/22-rdf-syntax-ns#"
   xmlns:svg="http://www.w3.org/2000/svg"
   xmlns="http://www.w3.org/2000/svg"
   xmlns:sodipodi="http://sodipodi.sourceforge.net/DTD/sodipodi-0.dtd"
   xmlns:inkscape="http://www.inkscape.org/namespaces/inkscape"
   version="1.1"
   width="297mm"
   height="210mm"
   viewBox="0 0 1122.5197 793.70079"
   id="Layer_1"
   xml:space="preserve"
   sodipodi:docname="mollusca.svg"
   inkscape:version="0.92.3 (unknown)"><metadata
   id="metadata34"><rdf:RDF><cc:Work
       rdf:about=""><dc:format>image/svg+xml</dc:format><dc:type
         rdf:resource="http://purl.org/dc/dcmitype/StillImage" /><dc:title /></cc:Work></rdf:RDF></metadata><sodipodi:namedview
   pagecolor="#ffffff"
   bordercolor="#666666"
   borderopacity="1"
   objecttolerance="10"
   gridtolerance="10"
   guidetolerance="10"
   inkscape:pageopacity="0"
   inkscape:pageshadow="2"
   inkscape:window-width="2495"
   inkscape:window-height="1416"
   id="namedview32"
   showgrid="false"
   units="mm"
   inkscape:zoom="0.36625"
   inkscape:cx="-574.74403"
   inkscape:cy="300"
   inkscape:window-x="65"
   inkscape:window-y="24"
   inkscape:window-maximized="1"
   inkscape:current-layer="Layer_1" /><defs
   id="defs60"><inkscape:path-effect
     id="path-effect848" /><inkscape:path-effect
     id="path-effect844" /><inkscape:path-effect
     id="path-effect840" /></defs>
    
    
    
<path
   style="fill:#000000;fill-opacity:1;fill-rule:evenodd;stroke:#000000;stroke-width:1px;stroke-linecap:butt;stroke-linejoin:miter;stroke-opacity:1"
   id="path842"
   d="m 301.98526,418.10588 c 0.6383,-0.57926 1.91426,-1.73724 2.79742,-2.23741 0.8831,-0.50018 1.37412,-0.34309 1.78616,-0.16653 0.41198,0.17656 0.74593,0.37297 1.27578,0.67708 0.52985,0.3041 1.25654,0.71648 2.00259,0.94215 0.74605,0.22566 1.51182,0.26492 2.09086,0.24524 0.57899,-0.0197 0.9719,-0.0983 1.34457,-0.22578 0.37268,-0.12753 0.72664,-0.30448 0.98132,-0.29471 0.25462,0.01 0.41198,0.20641 0.63777,0.52049 0.2258,0.31408 0.52014,0.7457 0.95231,1.05006 0.43223,0.30437 1.00133,0.48096 1.68812,0.65752 0.68685,0.17658 1.49222,0.35333 2.1989,0.38269 0.70662,0.0294 1.31551,-0.0885 1.79622,-0.27495 0.48077,-0.18649 0.8345,-0.44192 1.15803,-0.77528 0.32353,-0.33335 0.61853,-0.74629 0.8638,-0.95203 0.24527,-0.20575 0.44194,-0.20575 0.68662,-0.0883 0.24467,0.11744 0.53997,0.35367 1.05052,0.48122 0.51055,0.12755 1.23706,0.14719 1.95339,0.0196 0.71628,-0.1276 1.42355,-0.40259 1.87484,-0.67743 0.45129,-0.27483 0.64778,-0.54988 1.25512,-0.7359 0.6074,-0.18603 1.63069,-0.2844 2.31725,-0.0687 0.68661,0.21569 1.04016,0.74595 1.32486,1.12875 0.28469,0.3828 0.5006,0.61826 1.04069,0.84405 0.54009,0.22578 1.40378,0.44165 2.10063,0.52008 0.69686,0.0784 1.22712,0.0195 1.698,-0.15714 0.47089,-0.17666 0.88364,-0.47142 1.24186,-0.73267 0.35817,-0.26125 0.68218,-0.5042 0.93716,-0.62171 0.25492,-0.11752 0.45164,-0.11752 0.99984,0.0293 0.54814,0.14681 1.45386,0.4421 2.29795,0.54997 0.84409,0.10787 1.62963,0.0294 2.22821,-0.14739 0.59858,-0.17672 1.01115,-0.45172 1.40342,-0.76551 0.39226,-0.3138 0.76588,-0.66766 1.25618,-0.95192 0.49031,-0.28424 1.09984,-0.50049 1.86483,-0.65735 0.76506,-0.15687 1.68871,-0.25511 2.77778,-0.30414 1.089,-0.049 2.34625,-0.049 3.55312,0.13739 1.20687,0.18642 2.36562,0.5595 3.37641,0.87349 1.01086,0.31398 1.8749,0.56921 2.46389,0.64757 0.58899,0.0784 0.90323,-0.0198 1.31485,-0.14721 0.41169,-0.1274 0.92324,-0.28476 1.47245,-0.59861 0.54921,-0.31386 1.13897,-0.78554 1.82558,-1.16798 0.68668,-0.38243 1.47275,-0.67716 1.97323,-0.84389 0.50043,-0.16673 0.71657,-0.20602 0.89275,-0.16688 0.17613,0.0391 0.31395,0.15729 0.46106,0.42199 0.14712,0.26471 0.30424,0.67701 0.67773,0.9324 0.3735,0.25538 0.96196,0.35344 1.9135,0.52017 0.95154,0.16673 2.26787,0.40244 2.91547,0.57869 0.6476,0.17624 0.62801,0.29404 -0.58579,0.81697 -1.2138,0.52294 -3.59504,1.44013 -5.96089,2.14683 -2.36585,0.70669 -4.70116,1.19722 -7.24372,1.55057 -2.54257,0.35336 -5.29003,0.5692 -8.67662,0.69679 -3.38665,0.1276 -7.41013,0.16684 -10.70822,0.21591 -3.29809,0.0491 -5.86931,0.10794 -7.2436,0.0982 -1.37429,-0.01 -1.55095,-0.0882 -1.71541,-0.25103 -0.16446,-0.16278 -0.32667,-0.4263 -0.59136,-0.61257 -0.26462,-0.18628 -0.63783,-0.30412 -1.04034,-0.34344 -0.4025,-0.0393 -0.83396,-1.1e-4 -1.1482,0.12735 -0.3143,0.12745 -0.51031,0.34302 -0.70195,0.53517 -0.19169,0.19214 -0.39718,0.37709 -0.54459,0.46568 -0.14741,0.0886 -0.24527,0.0886 -0.81768,0.059 -0.57241,-0.0296 -1.6066,-0.0881 -2.29398,-0.25501 -0.68738,-0.16689 -1.02092,-0.44152 -1.32516,-0.66722 -0.30429,-0.2257 -0.57904,-0.40231 -0.92253,-0.5201 -0.34348,-0.11778 -0.75546,-0.17663 -1.1482,-0.13746 -0.39274,0.0392 -0.76523,0.17639 -1.00109,0.34318 -0.23585,0.16679 -0.33377,0.36268 -0.51078,0.46116 -0.17707,0.0985 -0.43134,0.0985 -0.98197,0.0494 -0.55069,-0.0491 -1.39282,-0.14706 -2.25692,-0.3532 -0.8641,-0.20614 -1.74691,-0.51998 -2.34555,-0.65746 -0.59864,-0.13748 -0.91258,-0.0982 -1.1189,-0.0101 -0.20631,0.0882 -0.30429,0.22527 -0.42228,0.34336 -0.11804,0.1181 -0.2548,0.21575 -1.15211,0.12704 -0.89731,-0.0887 -2.53818,-0.36214 -3.8242,-0.68601 -1.28603,-0.32388 -2.20838,-0.69667 -2.84627,-0.88319 -0.63789,-0.18651 -0.99114,-0.18651 -1.26613,-0.0787 -0.27499,0.10781 -0.47095,0.32334 -0.63795,0.45118 -0.16701,0.12784 -0.304,0.16698 -1.024,0.009 -0.71995,-0.15776 -2.00893,-0.50924 -2.65694,-0.68593 -0.64802,-0.17669 -0.64802,-0.17671 -0.009,-0.75598 z m -32.58637,-17.75214 c 1.38429,-0.49079 4.15218,-1.47212 6.5468,-2.2669 2.39468,-0.79478 4.41711,-1.40337 6.3602,-1.943 1.9431,-0.53963 3.80858,-1.01083 5.66329,-1.39347 1.85477,-0.38262 3.70071,-0.67713 5.85942,-0.96274 2.15876,-0.2856 4.59412,-0.55831 6.97885,-0.70547 2.38474,-0.14717 4.70175,-0.1668 7.90097,-0.0883 3.19922,0.0785 7.28338,0.25518 11.16993,0.39255 3.8866,0.13738 7.57761,0.23553 10.44347,0.2944 2.86592,0.0589 4.90777,0.0785 6.85092,0.0294 1.94321,-0.0491 3.78898,-0.16686 5.369,-0.31406 1.58007,-0.14719 2.8957,-0.32389 3.93598,-0.54961 1.04022,-0.22572 1.80622,-0.50064 2.37532,-0.73613 0.5691,-0.23548 0.94242,-0.43193 1.05011,-0.6769 0.10774,-0.24498 -0.0497,-0.53994 -0.50043,-0.54988 -0.45081,-0.01 -1.19734,0.26504 -1.76697,0.38387 -0.56963,0.11882 -1.00097,0.0778 -1.43326,-0.0597 -0.43234,-0.13751 -0.88322,-0.37273 -1.35452,-0.62794 -0.47124,-0.25522 -0.96178,-0.52986 -1.42325,-0.85381 -0.46147,-0.32395 -0.89316,-0.6967 -1.36399,-0.80477 -0.47082,-0.10807 -0.98114,0.049 -1.39383,0.0687 -0.41263,0.0197 -0.72628,-0.0979 -1.18621,-0.33654 -0.45993,-0.23867 -1.11061,-0.62494 -1.84695,-1.2139 -0.73634,-0.58895 -1.58025,-1.39342 -2.13976,-2.00192 -0.55951,-0.60851 -0.83432,-1.02066 -0.97173,-1.38393 -0.13734,-0.36327 -0.13734,-0.6774 -0.11769,-0.93241 0.0195,-0.255 0.0592,-0.45164 -0.19495,-0.49083 -0.25397,-0.0392 -0.80555,0.079 -1.27702,0.10849 -0.47148,0.0295 -0.86357,-0.0293 -1.23665,0.01 -0.37309,0.0392 -0.72599,0.17638 -1.34535,0.21573 -0.6193,0.0394 -1.50092,-0.0194 -2.55156,-0.16666 -1.05064,-0.14725 -2.26698,-0.38262 -3.15032,-0.47101 -0.8834,-0.0884 -1.43285,-0.0295 -2.0615,-0.0589 -0.62872,-0.0294 -1.33457,-0.14706 -1.9238,-0.39253 -0.58928,-0.24546 -1.06011,-0.61812 -1.44302,-1.05006 -0.38291,-0.43194 -0.67732,-0.92253 -0.84415,-1.39367 -0.16683,-0.47114 -0.20608,-0.92272 -0.20726,-1.29566 0,-0.37293 0.0408,-0.70664 -0.27274,-1.03954 -0.31335,-0.3329 -0.98215,-0.68692 -1.56113,-0.61849 -0.57899,0.0684 -1.06959,0.55892 -1.59026,0.70636 -0.52067,0.14743 -1.06964,-0.0486 -1.73737,-0.32348 -0.66773,-0.27488 -1.45244,-0.62794 -2.04149,-0.94203 -0.58905,-0.3141 -0.98155,-0.58877 -1.42337,-1.02071 -0.44182,-0.43195 -0.93247,-1.02057 -1.30544,-1.55054 -0.37303,-0.52998 -0.62824,-1.00107 -0.85392,-1.5898 -0.22573,-0.58874 -0.4221,-1.29561 -0.51031,-1.75778 -0.0881,-0.46217 -0.0687,-0.67641 -0.46958,-0.76449 -0.40091,-0.0881 -1.22783,-0.0487 -2.07245,-0.20577 -0.84456,-0.15707 -1.70765,-0.51009 -2.53227,-0.85361 -0.82461,-0.34352 -1.60955,-0.67706 -2.10057,-1.16809 -0.49101,-0.49104 -0.6872,-1.13848 -1.03021,-1.32503 -0.34295,-0.18653 -0.83403,0.0884 -1.26637,0.12777 -0.4324,0.0394 -0.80484,-0.15663 -1.4628,-0.63773 -0.65796,-0.48111 -1.59967,-1.24609 -2.18872,-1.82521 -0.58899,-0.57912 -0.82455,-0.97162 -0.93242,-1.38391 -0.10792,-0.41229 -0.0883,-0.84426 -0.29724,-1.21199 -0.20892,-0.36774 -0.6743,-0.69141 -1.32208,-0.80052 -0.64778,-0.10911 -1.53064,-0.009 -2.51267,-0.0382 -0.98203,-0.0294 -2.0805,-0.18632 -2.77771,-0.41213 -0.69715,-0.2258 -0.9915,-0.52007 -1.14856,-0.97177 -0.15706,-0.4517 -0.17666,-1.06013 -0.73498,-1.34481 -0.55833,-0.28469 -1.69854,-0.24469 -2.5431,-0.46067 -0.84456,-0.21598 -1.41348,-0.68677 -1.84547,-1.43285 -0.43199,-0.74609 -0.7264,-1.76657 -1.22647,-2.27666 -0.50013,-0.5101 -1.24636,-0.5101 -2.09104,-0.75558 -0.84462,-0.24547 -1.80575,-0.73574 -2.61082,-1.33451 -0.80502,-0.59877 -1.45268,-1.30516 -2.09069,-2.04116 -0.63795,-0.736 -1.26619,-1.50147 -1.83511,-1.87436 -0.56892,-0.37288 -1.07935,-0.35325 -1.77686,-0.50056 -0.69756,-0.14732 -1.5799,-0.46097 -2.20837,-0.97157 -0.62842,-0.5106 -1.00127,-1.21689 -1.3055,-1.91359 -0.30424,-0.6967 -0.53992,-1.38385 -0.82947,-1.85125 -0.28961,-0.4674 -0.65245,-0.7294 -1.07426,-0.75899 -0.42187,-0.0296 -0.91247,0.16662 -1.62992,-0.0495 -0.71752,-0.21616 -1.6584,-0.8433 -2.27687,-1.393 -0.61854,-0.54971 -0.91294,-1.02068 -1.05029,-1.57034 -0.13735,-0.54967 -0.11769,-1.17793 -0.39209,-1.59943 -0.27439,-0.42151 -0.84426,-0.63761 -1.30574,-0.87322 -0.46153,-0.23562 -0.81466,-0.49062 -1.20734,-0.76543 -0.39268,-0.27482 -0.82443,-0.56913 -1.53124,-0.99117 -0.7068,-0.42204 -1.68799,-0.97142 -2.73834,-1.50139 -1.05028,-0.52997 -2.169,-1.04016 -3.396,-1.49162 -1.22701,-0.45146 -2.56151,-0.8439 -4.15183,-1.2365 -1.59032,-0.3926 -3.43502,-0.78502 -5.00557,-1.07945 -1.5706,-0.29443 -2.86586,-0.49065 -4.05367,-0.58883 -1.18781,-0.0982 -2.26704,-0.0982 -3.23894,0.049 -0.97185,0.14717 -1.83512,0.44141 -2.62065,0.71628 -0.78548,0.27487 -1.49157,0.5298 -2.14953,0.80468 -0.6579,0.27488 -1.26584,0.56898 -1.86495,0.94207 -0.59906,0.37309 -1.18734,0.82398 -1.64893,1.30502 -0.46159,0.48105 -0.79495,0.99077 -1.1781,1.69793 -0.38309,0.70715 -0.81443,1.60876 -1.05994,2.36466 -0.24556,0.7559 -0.30441,1.36384 -0.33389,2.1298 -0.0296,0.76595 -0.0296,1.68743 0.0586,2.5317 0.0884,0.84427 0.26492,1.60922 0.62824,2.73822 0.36332,1.12901 0.91264,2.61979 1.62655,4.07783 0.7139,1.45804 1.60251,2.89924 2.5743,4.2536 0.97178,1.35437 2.03172,2.62995 3.42554,4.02353 1.39383,1.39357 3.12126,2.90475 4.82915,4.05294 1.70795,1.14819 3.39618,1.93328 5.15297,2.69866 1.75685,0.76539 3.58273,1.51131 5.04517,2.00195 1.46245,0.49063 2.56193,0.72619 3.12114,0.99076 0.55921,0.26458 0.57887,0.5591 0.31371,0.74585 -0.26517,0.18676 -0.81378,0.26512 -2.18938,0.0588 -1.37553,-0.20628 -3.57147,-0.69635 -5.48562,-1.18706 -1.91421,-0.49071 -3.54318,-0.98127 -5.16896,-1.60764 -1.62578,-0.62636 -3.26233,-1.39517 -4.75443,-2.30792 -1.49211,-0.91276 -2.84639,-1.97243 -4.33346,-3.31203 -1.48707,-1.33959 -3.12611,-2.97832 -4.56901,-4.61719 -1.44285,-1.63887 -2.69922,-3.28751 -3.74944,-4.93617 -1.05023,-1.64867 -1.89437,-3.2974 -2.55192,-5.00488 -0.6576,-1.70747 -1.12879,-3.47412 -1.28579,-5.17176 -0.15694,-1.69764 1.2e-4,-3.32702 0.34367,-4.84784 0.34354,-1.52082 0.87374,-2.9345 1.5999,-4.36687 0.72622,-1.43236 1.64928,-2.88546 2.7918,-4.19525 1.14247,-1.30978 2.52854,-2.49764 4.15751,-3.52773 1.62892,-1.03009 3.51429,-1.91369 5.6437,-2.58081 2.12946,-0.66712 4.50561,-1.1187 6.98844,-1.35416 2.48283,-0.23545 5.07483,-0.25509 7.37123,-0.049 2.29647,0.20608 4.29924,0.63797 6.72317,1.43273 2.42398,0.79477 5.27102,1.95299 8.68644,3.64076 3.41543,1.68777 7.40084,3.90581 11.45434,6.34926 4.05355,2.44344 8.17613,5.11279 15.34111,9.25392 7.16492,4.14113 17.37307,9.75455 22.46702,12.49217 5.09395,2.73761 5.0743,2.60022 4.72217,1.98414 -0.35213,-0.61608 -1.04164,-1.71915 -1.71884,-2.93594 -0.6772,-1.2168 -1.34475,-2.5516 -1.82564,-3.84695 -0.48095,-1.29535 -0.77542,-2.55167 -1.06983,-3.97435 -0.2944,-1.42268 -0.58899,-3.01298 -0.75576,-5.16175 -0.16682,-2.14879 -0.20613,-4.85806 -0.20607,-7.37983 0,-2.52179 0.0391,-4.85787 0.22573,-7.01657 0.18648,-2.15871 0.52032,-4.14152 0.95213,-6.26082 0.43181,-2.1193 0.96196,-4.37713 1.4625,-6.26106 0.50055,-1.88394 0.97185,-3.39565 1.96281,-6.4269 0.99097,-3.03126 2.50326,-7.58677 3.5732,-10.28534 1.06994,-2.69857 1.69818,-3.54265 2.27716,-4.08212 0.57899,-0.53946 1.10943,-0.77517 1.70772,-0.97125 0.59828,-0.19609 1.2666,-0.35331 1.99247,-0.44155 0.72586,-0.0882 1.51193,-0.10789 2.19866,-0.0392 0.68673,0.0687 1.27608,0.22582 1.83523,0.49064 0.55916,0.26482 1.08954,0.63799 1.62922,1.15795 0.53967,0.51996 1.08947,1.18741 1.52128,1.87427 0.43187,0.68686 0.74594,1.39335 0.9815,1.96258 0.23562,0.56922 0.39262,1.00085 0.53008,1.57022 0.13747,0.56937 0.25516,1.27538 0.2847,1.83479 0.0296,0.5594 -0.0296,0.97129 -0.16665,1.22668 -0.13729,0.2554 -0.35284,0.35337 -0.5006,0.26456 -0.14777,-0.0888 -0.22603,-0.36267 -0.29471,-0.7941 -0.0686,-0.43144 -0.12757,-1.02108 -0.33359,-1.6781 -0.20596,-0.65703 -0.55963,-1.38387 -0.95219,-2.06082 -0.39251,-0.67695 -0.8245,-1.30522 -1.25625,-1.80558 -0.43175,-0.50036 -0.86374,-0.87333 -1.38388,-1.20696 -0.52014,-0.33363 -1.12861,-0.62801 -1.688,-0.77526 -0.55939,-0.14726 -1.06959,-0.14726 -1.60968,-0.0393 -0.54009,0.10793 -1.10871,0.32357 -1.58013,0.57878 -0.47142,0.25521 -0.84391,0.54924 -1.10925,0.92245 -0.26534,0.3732 -0.4221,0.82382 -0.60876,1.37388 -0.18666,0.55005 -0.40227,1.19671 -0.57905,1.79564 -0.17677,0.59891 -0.31406,1.14786 -0.47124,1.81567 -0.15712,0.6678 -0.3336,1.45187 -0.34348,1.95274 -0.0101,0.50087 0.14705,0.71656 0.21584,0.97152 0.0687,0.25496 0.0491,0.54922 -0.0687,0.85374 -0.11781,0.30452 -0.3333,0.61787 -0.55915,0.80465 -0.22591,0.18677 -0.461,0.24552 -0.56928,0.3437 -0.10834,0.0982 -0.0887,0.23515 0,0.35868 0.0918,0.12354 0.28144,0.24996 0.37948,0.45561 0.098,0.20564 0.11769,0.50027 0.12752,0.82441 0.0101,0.32416 0.0101,0.67678 0.0101,0.96154 0,0.28477 0,0.5003 -0.12758,0.65761 -0.12757,0.1573 -0.38208,0.25517 -0.51984,0.39261 -0.13776,0.13745 -0.15736,0.3136 -0.0686,0.46139 0.0887,0.14779 0.28434,0.26512 0.36284,0.4805 0.0785,0.21537 0.0391,0.52967 0.0195,0.81456 -0.0195,0.28488 -0.0195,0.5395 -0.13734,0.7164 -0.11769,0.1769 -0.35272,0.27481 -0.46106,0.41235 -0.10834,0.13755 -0.0887,0.31364 -0.0397,0.6382 0.0491,0.32455 0.12746,0.7942 0.10798,1.18678 -0.0195,0.39257 -0.13723,0.70628 -0.2844,0.91263 -0.14724,0.20636 -0.32348,0.30426 -0.39251,0.46167 -0.069,0.15741 -0.0302,0.37244 0.0485,0.67712 0.0786,0.30469 0.19613,0.69636 0.22567,1.04965 0.0296,0.35328 -0.0296,0.667 -0.19625,0.99122 -0.16694,0.32422 -0.44116,0.65715 -0.55921,0.95188 -0.11805,0.29472 -0.0789,0.54937 0.0491,0.77552 0.12781,0.22615 0.34336,0.42204 0.48071,0.69654 0.13735,0.2745 0.19625,0.62782 0.22573,1.05007 0.0296,0.42225 0.0296,0.91225 -0.0685,1.28528 -0.098,0.37303 -0.29411,0.62786 -0.39251,0.82434 -0.0984,0.19648 -0.0984,0.33351 0.0101,0.51091 0.1084,0.1774 0.32341,0.39236 0.42157,0.77478 0.0981,0.38241 0.0786,0.93195 0.0491,1.36389 -0.0296,0.43194 -0.0686,0.74562 -0.23557,1.05017 -0.16688,0.30456 -0.46076,0.59834 -0.56898,0.80476 -0.10822,0.20643 -0.0302,0.32396 0.16671,0.50083 0.19661,0.17688 0.51032,0.41213 0.68691,0.87294 0.1766,0.46081 0.21591,1.14795 0.19631,1.72707 -0.0195,0.57911 -0.0981,1.04978 -0.22555,1.37378 -0.12746,0.32401 -0.30388,0.50039 -0.45129,0.63797 -0.14741,0.13758 -0.26481,0.23539 -0.29447,0.37334 -0.0296,0.13796 0.029,0.31364 0.17666,0.42184 0.14776,0.10821 0.38285,0.14738 0.55915,0.6368 0.1763,0.48941 0.29429,1.43341 0.32389,1.99271 0.0296,0.5593 -0.0296,0.73585 -0.1078,0.8735 -0.0786,0.13764 -0.17631,0.23538 -0.20602,0.38323 -0.0296,0.14786 0.009,0.34295 0.11781,0.46103 0.10845,0.11808 0.28469,0.15724 0.41192,0.36259 0.12728,0.20534 0.20596,0.57918 0.41227,1.29622 0.20632,0.71705 0.53962,1.77562 0.75559,2.55091 0.21596,0.77529 0.31412,1.26579 0.46159,1.5507 0.14752,0.28491 0.34366,0.36334 0.62776,0.8531 0.28417,0.48975 0.65773,1.39399 1.07983,2.38531 0.42216,0.99134 0.89311,2.07045 1.6687,3.17963 0.77559,1.10919 1.855,2.24724 3.02304,3.43467 1.16803,1.18743 2.42434,2.42389 3.84753,3.75852 1.42325,1.33461 3.01333,2.76737 4.84874,4.37674 1.83541,1.60937 3.91627,3.39543 5.13344,4.40623 1.21711,1.01079 1.57043,1.24632 2.36254,1.55939 0.79205,0.31306 2.03491,0.70754 3.44816,1.02151 1.41319,0.31397 3.00374,0.54956 7.73343,0.96161 4.72974,0.41205 12.60395,1.00103 18.77761,1.33467 6.1736,0.33363 10.64961,0.41214 15.68448,0.29438 5.03485,-0.11776 10.63024,-0.43183 16.04799,-0.79414 5.41776,-0.36231 10.6988,-0.77605 14.96822,-1.1882 4.26943,-0.41215 7.54809,-0.82436 10.71811,-1.43276 3.17002,-0.60839 6.23298,-1.41325 9.3931,-2.43373 3.16013,-1.02049 6.41951,-2.25725 9.69743,-3.69967 3.27791,-1.44242 6.57654,-3.09142 9.9624,-4.84781 3.38586,-1.7564 6.86119,-3.62133 10.47545,-5.69718 3.61426,-2.07586 7.39837,-4.38137 10.88248,-6.24571 3.48411,-1.86435 6.68444,-3.29736 9.02027,-4.12155 2.33583,-0.82418 3.80843,-1.04012 5.15279,-1.10876 1.34435,-0.0686 2.56198,0.01 3.90629,0.15706 1.34433,0.14717 2.81727,0.36317 4.0832,0.61828 1.26594,0.25512 2.32633,0.54961 3.16056,0.73603 0.83424,0.18641 1.44301,0.26495 1.84545,0.24513 0.40243,-0.0198 0.59889,-0.13767 1.38151,-1.47768 0.78262,-1.34001 2.16163,-3.92022 2.85836,-5.27442 0.69674,-1.35419 0.71638,-1.49162 0.0945,-2.44412 -0.62188,-0.9525 -1.91061,-2.75639 -2.5584,-3.75755 -0.64779,-1.00116 -0.66743,-1.21707 -0.38619,-1.77091 0.28124,-0.55383 0.87745,-1.46785 3.51605,-3.90979 2.6386,-2.44193 7.33382,-6.42916 11.92703,-10.28554 4.5932,-3.85638 9.08918,-7.58594 15.49791,-12.50196 6.40874,-4.91602 14.73321,-11.02077 22.31026,-16.55529 7.57705,-5.5345 14.40898,-10.50044 21.083,-15.12229 6.67402,-4.62184 13.19194,-8.90087 20.93566,-13.4834 7.74372,-4.58253 16.71575,-9.47008 25.32335,-13.7387 8.6076,-4.26862 16.85301,-7.91946 25.23479,-11.24601 8.3818,-3.32656 16.90212,-6.32969 29.05331,-9.92853 12.15119,-3.59885 27.97331,-7.80418 40.9684,-11.13083 12.9951,-3.32665 23.18371,-5.78009 32.99877,-7.702 9.81505,-1.92192 19.29675,-3.31834 24.39076,-4.0445 5.09407,-0.72615 5.82046,-0.78504 6.39939,-0.87337 0.57893,-0.0883 1.01121,-0.2062 1.26613,-0.36331 0.25492,-0.15712 0.33354,-0.35369 0.36284,-0.56907 0.029,-0.21538 0.009,-0.45173 -0.13752,-0.76512 -0.147,-0.31339 -0.42246,-0.70682 -0.65612,-1.39413 -0.23373,-0.68732 -0.43377,-1.70748 -0.59071,-5.4155 -0.157,-3.70803 -0.27487,-10.12888 0.20614,-15.88912 0.48095,-5.76025 1.56071,-10.86363 3.45343,-16.5612 1.89271,-5.69757 4.60513,-12.00569 6.8019,-16.94761 2.19671,-4.94194 3.88868,-8.54156 8.49132,-15.21363 4.6027,-6.67206 12.12259,-16.42842 16.31373,-21.609754 4.19113,-5.18134 5.05493,-5.7898 5.8693,-6.1821 0.81437,-0.39231 1.58055,-0.56909 2.3359,-0.65733 0.7554,-0.0882 1.50205,-0.0882 4.00311,0.47072 2.50113,0.55897 6.76431,1.67858 10.82751,3.2388 4.0632,1.56022 7.93081,3.56234 13.76376,7.159154 5.83296,3.5968 13.65987,8.80721 19.17598,12.56568 5.51611,3.75849 8.73553,6.07445 13.98654,9.95062 5.25101,3.87616 12.53415,9.31295 18.20727,13.38546 5.67317,4.07251 9.73673,6.78103 14.97377,9.93849 5.23704,3.15747 11.66473,6.77362 16.6803,9.39376 5.01557,2.62014 8.62766,4.24922 15.96906,7.3108 7.34134,3.06159 18.41371,7.55642 24.65616,10.04899 6.24245,2.49257 7.65587,2.98325 8.60776,3.41497 0.9519,0.43173 1.44279,0.80471 1.79599,1.17746 0.35325,0.37276 0.56921,0.74573 0.61835,1.30503 0.0491,0.5593 -0.0686,1.30475 -0.40239,2.26695 -0.33383,0.96221 -0.88304,2.13875 -1.64881,3.42473 -0.76582,1.28599 -1.74672,2.67863 -3.09177,4.07253 -1.34499,1.39392 -3.05199,2.78672 -4.41651,3.93505 -1.36453,1.14832 -2.38492,2.05081 -3.44538,3.28772 -1.06047,1.2369 -2.15907,2.80605 -4.27994,7.45921 -2.12082,4.65315 -5.26037,12.38273 -7.59756,18.37219 -2.33726,5.98945 -3.86601,10.22215 -6.04526,16.78801 -2.17919,6.56585 -5.0055,15.45522 -8.81396,25.92651 -3.80846,10.4713 -8.59788,22.52108 -13.47616,32.90384 -4.87823,10.38275 -9.84442,19.09647 -13.14725,24.26332 -3.30282,5.16683 -4.92209,6.76627 -6.31681,7.74516 -1.39471,0.97888 -2.59016,1.33744 -3.93532,1.51418 -1.34517,0.17674 -2.8558,0.17674 -4.48555,0.0786 -1.62968,-0.0981 -3.37611,-0.29434 -5.72242,-0.63786 -2.34626,-0.34353 -5.28997,-0.83405 -9.03982,-2.04123 -3.74985,-1.20717 -8.30336,-3.13027 -13.19159,-5.72111 -4.88817,-2.59083 -10.10952,-5.84865 -15.26261,-9.53854 -5.15309,-3.68988 -10.23722,-7.81136 -13.84925,-11.04 -3.61203,-3.22863 -5.75173,-5.56417 -7.46939,-7.42869 -1.71766,-1.86452 -3.01327,-3.25802 -3.71019,-4.21994 -0.69691,-0.96192 -0.79507,-1.49185 -0.92259,-1.90377 -0.12751,-0.41191 -0.28469,-0.70657 -0.49036,-0.80475 -0.2056,-0.0982 -0.461,10e-6 -0.6576,0.13745 -0.19655,0.13744 -0.3336,0.3136 -1.15099,1.01266 -0.81733,0.69906 -2.30369,1.91139 -5.04304,4.18881 -2.73929,2.27742 -6.72251,5.6125 -11.86613,9.64617 -5.14368,4.03366 -11.44403,8.76292 -18.68443,14.25363 -7.24046,5.49071 -15.39345,11.72185 -26.00417,19.40606 -10.61077,7.68422 -23.66388,16.80989 -32.4486,22.7961 -8.78467,5.9862 -13.29945,8.83194 -19.33636,12.07065 -6.0369,3.23871 -13.59344,6.86908 -21.27909,10.16654 -7.68571,3.29746 -15.49782,6.26078 -23.90004,9.13624 -8.40223,2.87546 -17.39214,5.66219 -30.79057,9.87233 -13.39841,4.21013 -31.20176,9.84253 -42.55803,13.41462 -11.35627,3.57208 -16.26368,5.08327 -19.84639,6.36883 -3.58269,1.28557 -5.83986,2.34525 -7.67553,3.2678 -1.83567,0.92255 -3.24861,1.70736 -4.33828,2.28646 -1.08968,0.5791 -1.85488,0.95183 -2.4539,1.11883 -0.59901,0.16701 -1.03048,0.12779 -1.40373,0.0591 -0.37325,-0.0687 -0.68695,-0.16673 -1.00139,-0.35339 -0.31444,-0.18665 -0.62815,-0.4611 -0.85399,-0.79497 -0.22584,-0.33387 -0.36324,-0.72635 -0.46133,-1.22665 -0.0981,-0.50032 -0.15703,-1.10927 -0.21588,-2.33515 -0.0589,-1.22589 -0.11779,-3.0724 -0.31409,-4.57356 -0.1963,-1.50117 -0.53012,-2.6595 -0.94228,-3.94479 -0.41216,-1.28528 -0.90308,-2.69887 -1.93595,-4.76352 -1.03287,-2.06464 -2.59874,-4.76527 -3.74709,-6.7377 -1.14835,-1.97243 -1.87473,-3.209 -2.2809,-3.84867 -0.40617,-0.63967 -0.55537,-0.71426 -0.80084,-0.65543 -0.24548,0.0588 -0.61761,0.23513 -1.89563,0.9625 -1.27802,0.72737 -3.45282,2.00066 -6.84961,3.69875 -3.39679,1.69808 -8.00845,3.81708 -10.64902,5.86803 -2.64058,2.05095 -3.30791,4.03293 -3.99504,5.70144 -0.68712,1.6685 -1.39356,3.02226 -2.58153,4.61254 -1.18798,1.59028 -2.85569,3.41461 -5.01544,5.35804 -2.15974,1.94344 -4.80894,4.00354 -8.01896,6.14317 -3.21001,2.13963 -6.97811,4.35689 -10.42352,6.20197 -3.44541,1.84508 -6.56607,3.3168 -9.63857,4.77915 -3.0725,1.46235 -6.09489,2.91439 -9.77609,4.45531 -3.68121,1.54092 -8.0185,3.16955 -10.95342,4.7102 -2.93492,1.54066 -4.46584,2.99279 -5.6536,3.94487 -1.18775,0.95208 -2.03153,1.40332 -3.19036,2.22806 -1.15885,0.82475 -2.62989,2.02097 -5.07464,4.2002 -2.44475,2.17923 -5.85893,5.33773 -8.74484,8.1838 -2.8859,2.84607 -5.24111,5.37744 -8.03887,8.75372 -2.79775,3.37627 -6.03598,7.59498 -8.78444,11.4715 -2.74847,3.87652 -5.00561,7.40876 -7.10619,10.29412 -2.10059,2.88537 -4.04362,5.12236 -6.36033,7.36017 -2.31672,2.2378 -5.00533,4.47461 -8.92717,7.81728 -3.92184,3.34268 -9.09311,7.80525 -12.58744,10.89654 -3.49433,3.09128 -5.31973,4.81822 -9.0799,8.38135 -3.76017,3.56313 -9.45108,8.95866 -12.3663,11.75541 -2.91517,2.79677 -3.05258,2.99301 -3.62262,4.54546 -0.57005,1.55245 -1.5699,4.45327 -2.63007,7.88842 -1.06023,3.43515 -2.17883,7.39876 -3.01321,10.91221 -0.83438,3.51346 -1.38394,6.57467 -1.82487,10.22501 -0.44093,3.65034 -0.77625,7.92942 -0.88423,11.83542 -0.10798,3.90599 0.009,7.45788 0.2355,10.10768 0.22574,2.64979 0.55939,4.39628 0.99132,5.92741 0.43193,1.53113 0.96178,2.84577 1.54101,4.14131 0.57916,1.29553 1.20716,2.57097 2.24306,4.18408 1.03584,1.61312 2.49763,3.58809 4.07801,5.24665 1.58037,1.65857 3.2881,3.01274 4.996,4.09222 1.70789,1.07948 3.41581,1.88421 5.23154,2.57109 1.81573,0.68689 3.7398,1.25614 6.04614,1.77619 2.30635,0.52004 4.99625,0.99118 7.7441,1.2561 2.74785,0.26491 5.5559,0.3238 7.92146,0.19775 2.36556,-0.12605 4.32849,-0.44324 6.12441,-0.89462 1.79592,-0.45139 3.44544,-1.04039 4.78008,-1.62914 1.33464,-0.58875 2.35586,-1.1778 3.20952,-1.75665 0.85365,-0.57886 1.54119,-1.14841 2.10029,-1.9135 0.5591,-0.76508 0.99137,-1.72768 1.33473,-2.75766 0.34336,-1.02998 0.59874,-2.12989 0.76552,-3.2188 0.16677,-1.08891 0.24535,-2.16906 0.25514,-3.34624 0.01,-1.17719 -0.0491,-2.45367 -0.32389,-3.77806 -0.27476,-1.32438 -0.76574,-2.69885 -0.91264,-3.38561 -0.14689,-0.68676 0.0494,-0.68676 0.24517,-0.58893 0.19571,0.0978 0.39261,0.29469 0.69142,0.83228 0.29881,0.53758 0.72185,1.46407 1.06542,2.43567 0.34358,0.9716 0.61833,2.0115 0.80487,3.23838 0.18654,1.22686 0.28466,2.63943 0.27487,3.98406 -0.01,1.34463 -0.12753,2.61987 -0.25515,3.89591 -0.12763,1.27605 -0.26498,2.55113 -0.6478,3.87625 -0.38282,1.32512 -1.01067,2.69828 -1.56033,3.64054 -0.54965,0.94227 -1.02054,1.45229 -1.34464,1.87442 -0.3241,0.42213 -0.50056,0.75538 -0.75598,0.93238 -0.25543,0.17699 -0.58844,0.19658 -0.8046,0.30438 -0.21616,0.1078 -0.31413,0.3037 -0.44191,0.49051 -0.12778,0.18682 -0.28426,0.36282 -0.6582,0.53997 -0.37394,0.17716 -0.96077,0.35317 -1.33388,0.5101 -0.37311,0.15693 -0.52997,0.29415 -0.68741,0.48101 -0.15744,0.18686 -0.31386,0.42144 -0.59897,0.59848 -0.28512,0.17706 -0.69616,0.29448 -1.10893,0.28471 -0.41276,-0.01 -0.82429,-0.14693 -1.08919,-0.20591 -0.26491,-0.0589 -0.38259,-0.0394 -0.56013,0.26622 -0.17753,0.30559 -0.41176,0.89103 -0.67673,1.2348 -0.26498,0.34377 -0.55907,0.44177 -0.98183,0.51061 -0.42277,0.0688 -0.97108,0.108 -1.38344,0.20604 -0.41237,0.0981 -0.68687,0.25488 -0.89328,0.43164 -0.20641,0.17675 -0.34347,0.37251 -0.76669,0.46114 -0.42322,0.0886 -1.12748,0.0691 -1.65763,0.0592 -0.53016,-0.01 -0.88322,-0.01 -1.23681,0.0392 -0.35359,0.0491 -0.70634,0.14702 -1.12887,0.29437 -0.42254,0.14735 -0.91233,0.34323 -1.65907,0.44151 -0.74674,0.0983 -1.74644,0.0983 -2.33566,0.0296 -0.58921,-0.0687 -0.76578,-0.206 -0.87372,-0.18672 -0.10794,0.0193 -0.14719,0.19586 -0.27493,0.3238 -0.12774,0.12794 -0.34283,0.20614 -1.03187,0.23567 -0.68904,0.0295 -1.84341,0.01 -2.67805,-0.1667 -0.83464,-0.17669 -1.34477,-0.51018 -1.8158,-0.71627 -0.47102,-0.2061 -0.90277,-0.28458 -1.41346,0.0688 -0.5107,0.35333 -1.09897,1.13755 -1.51154,1.51228 -0.41257,0.37473 -0.68674,0.33256 -1.21463,0.0429 -0.52789,-0.28964 -1.29809,-0.80943 -1.769,-1.07443 -0.47092,-0.26501 -0.6672,-0.26501 -0.96232,-0.24535 -0.29512,0.0197 -0.70598,0.0588 -1.32523,-0.20654 -0.61926,-0.26533 -1.44245,-0.83362 -1.9625,-1.13784 -0.52004,-0.30421 -0.73596,-0.34346 -1.18357,-0.14012 -0.44762,0.20334 -1.14222,0.6597 -1.7119,0.80711 -0.56968,0.1474 -1.02073,-0.009 -1.30144,-0.15194 -0.28072,-0.14248 -0.40674,-0.28947 -0.69093,-0.30916 -0.2842,-0.0197 -0.73586,0.0785 -1.06029,-2e-4 -0.32442,-0.0787 -0.52043,-0.33343 -0.74586,-0.48054 -0.22542,-0.14711 -0.4807,-0.18638 -0.78526,-0.20604 -0.30456,-0.0197 -0.65723,-0.0197 -0.99663,-0.13431 -0.33946,-0.11465 -0.68188,-0.35631 -1.05052,-0.78146 -0.36865,-0.42515 -0.78974,-1.0667 -1.06443,-1.41985 -0.27464,-0.35314 -0.4121,-0.43167 -0.87369,-0.3237 -0.46159,0.10796 -1.24571,0.40195 -1.82517,0.47077 -0.57952,0.0688 -0.95213,-0.0881 -1.34499,-0.30407 -0.39286,-0.21602 -0.80478,-0.49058 -1.16809,-0.97172 -0.36338,-0.48115 -0.67732,-1.16786 -0.93236,-1.56999 -0.25498,-0.40214 -0.45135,-0.51995 -0.89317,-0.59851 -0.44181,-0.0786 -1.12825,-0.11778 -1.75673,-0.21593 -0.62848,-0.0982 -1.19734,-0.25504 -1.62956,-0.59885 -0.43223,-0.34381 -0.72646,-0.87336 -1.24648,-1.68762 -0.52008,-0.81426 -1.26631,-1.91377 -1.86477,-2.51227 -0.59841,-0.59849 -1.04993,-0.69663 -1.56072,-0.88321 -0.51079,-0.18658 -1.07947,-0.46107 -1.4625,-0.93251 -0.38303,-0.47144 -0.57923,-1.13845 -0.68715,-1.74682 -0.10792,-0.60836 -0.12758,-1.15822 -0.21585,-1.53077 -0.0883,-0.37256 -0.2455,-0.56903 -0.95189,-1.10852 -0.70633,-0.5395 -1.96316,-1.42302 -2.67979,-2.12982 -0.71663,-0.7068 -0.89329,-1.23667 -0.91282,-1.77639 -0.0195,-0.53972 0.11799,-1.08964 0.26516,-1.55064 0.14717,-0.46099 0.30441,-0.83437 0.27499,-1.26547 -0.0296,-0.4311 -0.2458,-0.9227 -0.43223,-1.32494 -0.18648,-0.40224 -0.3436,-0.71645 -0.74558,-1.02037 -0.40197,-0.30392 -1.05028,-0.59854 -1.51181,-0.96186 -0.46159,-0.36332 -0.73629,-0.79492 -0.88346,-1.45247 -0.14717,-0.65755 -0.16683,-1.54107 -0.0882,-2.14945 0.0786,-0.60838 0.25539,-0.94225 0.37303,-1.24616 0.11763,-0.30391 0.17659,-0.57927 0.0397,-1.108 -0.13711,-0.52875 -0.47165,-1.31577 -0.82491,-1.88473 -0.35319,-0.56896 -0.72627,-0.92236 -1.10901,-1.21672 -0.38273,-0.29436 -0.7753,-0.52987 -1.06017,-0.83435 -0.28482,-0.30447 -0.46141,-0.67722 -0.60853,-1.43259 -0.14717,-0.75537 -0.26504,-1.89449 -0.1863,-2.64029 0.0787,-0.74579 0.35366,-1.09923 0.59893,-1.38359 0.24521,-0.28436 0.46153,-0.50065 0.48107,-1.0587 0.0195,-0.55805 -0.15765,-1.46335 -0.39286,-1.95372 -0.23526,-0.49037 -0.52985,-0.56891 -0.71663,-0.86396 -0.18677,-0.29505 -0.26522,-0.80464 -0.0491,-1.66774 0.21584,-0.86311 0.72675,-2.08113 0.97196,-3.00332 0.24521,-0.9222 0.22556,-1.55062 0.18631,-2.20778 -0.0391,-0.65716 -0.0982,-1.34472 -0.16689,-1.9333 -0.0687,-0.58858 -0.14724,-1.07963 -0.41796,-1.4308 -0.27073,-0.35116 -0.74972,-0.57068 -1.02453,-0.60048 -0.27482,-0.0298 -0.35326,0.12711 -1.92072,2.28561 -1.56741,2.15851 -4.59637,6.28099 -7.32518,10.15754 -2.72887,3.87654 -5.14303,7.48727 -7.43014,11.10871 -2.28717,3.62146 -4.44612,7.2517 -7.06712,12.10005 -2.62095,4.84836 -5.70236,10.91183 -7.82253,15.31817 -2.12016,4.40633 -3.2782,7.15374 -4.45612,9.50921 -1.17792,2.35546 -2.37508,4.31761 -3.6807,6.14322 -1.30562,1.8256 -2.71851,3.51289 -3.92586,4.67109 -1.2074,1.15819 -2.20814,1.78601 -3.49452,2.30638 -1.28632,0.52037 -2.85568,0.93225 -4.24974,1.1286 -1.39407,0.19636 -2.61065,0.17674 -3.87719,-0.049 -1.26661,-0.22575 -2.58123,-0.65734 -3.85748,-1.34442 -1.27626,-0.68709 -2.51267,-1.62891 -3.40596,-2.63987 -0.89334,-1.01096 -1.4429,-2.09034 -1.83546,-3.23849 -0.39263,-1.14814 -0.62819,-2.36526 -0.75576,-3.57213 -0.12758,-1.20687 -0.14724,-2.40455 -0.0785,-3.29748 0.0688,-0.89292 0.22586,-1.48201 0.37321,-1.76622 0.14729,-0.28421 0.28487,-0.26456 0.38261,-0.16696 0.0977,0.0976 0.15683,0.27489 0.18631,0.81541 0.0296,0.54052 0.0296,1.44153 0.15718,2.37421 0.12758,0.93267 0.38261,1.89374 0.76553,2.90481 0.38291,1.01108 0.89304,2.07047 1.4625,2.86556 0.56945,0.79509 1.19746,1.32488 1.87484,1.688 0.67743,0.36312 1.40377,0.5594 2.09074,0.6673 0.68703,0.1079 1.33516,0.12753 1.90426,0.0784 0.56916,-0.0491 1.06035,-0.16697 1.58996,-0.38275 0.52961,-0.21578 1.09972,-0.53025 1.57054,-0.92263 0.47077,-0.39236 0.84421,-0.86399 1.14844,-1.15815 0.30418,-0.29418 0.54009,-0.4121 0.71634,-0.63748 0.1763,-0.22538 0.2944,-0.56004 0.38261,-0.88353 0.0882,-0.32349 0.14724,-0.63819 0.29453,-0.86361 0.14723,-0.22542 0.38332,-0.36311 0.76529,-0.52957 0.38202,-0.16646 0.91365,-0.36331 1.22747,-0.54986 0.31389,-0.18656 0.41216,-0.36344 0.47083,-0.78403 0.0586,-0.4206 0.0784,-1.09056 0.157,-1.60075 0.0786,-0.51018 0.21608,-0.86378 0.45147,-1.22645 0.23538,-0.36267 0.56975,-0.73633 0.95716,-1.19126 0.38741,-0.45493 0.8493,-1.01709 1.1926,-1.47812 0.34337,-0.46103 0.57923,-0.83437 0.67714,-1.29502 0.098,-0.46065 0.0586,-1.01121 0.1962,-1.44286 0.13758,-0.43165 0.452,-0.74599 0.75605,-1.00089 0.304,-0.25489 0.599,-0.45153 0.78513,-0.7358 0.18612,-0.28427 0.26486,-0.65804 0.37267,-1.18732 0.10786,-0.52928 0.2455,-1.21748 0.47135,-1.71776 0.2258,-0.50028 0.54021,-0.81462 0.63813,-1.285 0.0979,-0.47039 -0.0201,-1.09963 0.0783,-1.53134 0.0985,-0.43171 0.41275,-0.66741 0.67749,-0.89293 0.26475,-0.22553 0.48113,-0.44188 0.54962,-0.76506 0.0684,-0.32319 -0.0101,-0.75616 0.0485,-1.15842 0.0592,-0.40227 0.25551,-0.77558 0.54974,-1.11865 0.29423,-0.34308 0.68756,-0.6577 0.89334,-1.0107 0.20584,-0.35301 0.2255,-0.74619 0.2059,-1.37352 -0.0195,-0.62734 -0.0786,-1.49228 0.0195,-2.12027 0.0983,-0.628 0.35367,-1.02078 0.65761,-1.47174 0.30399,-0.45096 0.65796,-0.96215 1.0208,-1.63873 0.36284,-0.67658 0.73628,-1.52164 0.87357,-2.42396 0.13729,-0.90233 0.0391,-1.86485 0.0491,-2.4733 0.0101,-0.60845 0.12781,-0.86374 0.41198,-1.19673 0.28416,-0.33301 0.73693,-0.74632 1.26648,-1.31503 0.52956,-0.56872 1.13891,-1.2959 1.44291,-1.88448 0.304,-0.58857 0.304,-1.04038 0.39238,-1.46215 0.0884,-0.42178 0.26528,-0.81483 0.68691,-1.34408 0.42157,-0.52925 1.09019,-1.19777 1.45315,-1.66874 0.3629,-0.47096 0.42181,-0.74598 0.31406,-1.28454 -0.10774,-0.53856 -0.38327,-1.34526 -0.39286,-1.95377 -0.009,-0.60851 0.24569,-1.02084 0.57064,-1.30183 0.32496,-0.28098 0.75505,-0.44478 1.00003,-0.739 0.24503,-0.29423 0.32371,-0.72677 0.56898,-1.13857 0.24533,-0.4118 0.65819,-0.80495 0.90329,-1.21684 0.24509,-0.41189 0.32371,-0.84431 0.48071,-1.23658 0.15706,-0.39225 0.39297,-0.74608 0.67738,-1.05977 0.2844,-0.31368 0.61877,-0.58899 0.86398,-0.80476 0.24521,-0.21577 0.40256,-0.37309 0.49054,-0.86221 0.088,-0.48912 0.10774,-1.31654 0.2355,-1.87581 0.12775,-0.55928 0.36349,-0.85389 0.785,-1.17722 0.42145,-0.32333 1.03134,-0.67739 1.40419,-0.92274 0.37285,-0.24534 0.51043,-0.38289 0.50055,-0.66642 -0.0101,-0.28352 -0.16754,-0.71717 -0.0201,-1.29605 0.14735,-0.57889 0.59923,-1.30564 0.8149,-2.10985 0.21573,-0.80422 0.19607,-1.68826 0.32383,-2.34567 0.1277,-0.6574 0.40274,-1.08947 1.02045,-1.50111 0.61776,-0.41165 1.58114,-0.80481 2.13052,-1.16799 0.54939,-0.36319 0.68691,-0.69709 0.78489,-1.14785 0.098,-0.45077 0.157,-1.02116 0.29429,-2.11934 0.13734,-1.09817 0.35349,-2.72903 0.59899,-3.74954 0.24551,-1.02052 0.52044,-1.43285 0.85392,-1.8054 0.33348,-0.37256 0.72675,-0.70677 1.29538,-1.27533 0.56868,-0.56855 1.31586,-1.37455 2.14982,-2.02192 0.83403,-0.64738 1.75738,-1.13842 2.28723,-1.48196 0.52985,-0.34353 0.66732,-0.53995 0.62819,-0.95087 -0.0391,-0.41092 -0.25587,-1.04113 -0.39328,-1.63967 -0.13734,-0.59854 -0.19625,-1.16804 -0.0586,-1.64876 0.13759,-0.48072 0.4716,-0.87362 0.95213,-1.20689 0.48054,-0.33327 1.10973,-0.60849 1.45292,-0.85389 0.34324,-0.2454 0.40221,-0.46154 0.38261,-0.84325 -0.0195,-0.38172 -0.1181,-0.93305 -0.0397,-1.47267 0.0786,-0.53963 0.33401,-1.07 0.68714,-1.66815 0.35308,-0.59815 0.8052,-1.26635 1.30556,-1.8156 0.50043,-0.54924 1.05064,-0.98147 1.35458,-1.39347 0.304,-0.412 0.36296,-0.80499 0.43158,-1.28537 0.0686,-0.48037 0.14729,-1.05051 0.42216,-1.46237 0.27481,-0.41187 0.74652,-0.66732 1.39353,-1.57894 0.64701,-0.91163 1.47275,-2.48412 1.89461,-3.58302 0.42187,-1.0989 0.44152,-1.72723 0.69674,-2.34519 0.25521,-0.61796 0.74646,-1.22698 1.3547,-1.7075 0.60823,-0.48051 1.33533,-0.83417 2.05149,-1.24615 0.71615,-0.41198 1.42355,-0.88348 1.81581,-1.3152 0.39233,-0.4317 0.47089,-0.82462 0.6965,-1.24618 0.22568,-0.42156 0.59929,-0.87376 0.94266,-1.17771 0.34342,-0.30396 0.65796,-0.4612 0.64855,-1.2916 -0.009,-0.83041 -0.34473,-2.34919 -0.55045,-3.09488 -0.20573,-0.74568 -0.28429,-0.72604 -2.60112,1.54085 -2.31683,2.26689 -6.79178,6.70207 -10.97326,10.98094 -4.18155,4.27886 -8.02861,8.36067 -12.3771,13.04201 -4.34849,4.68135 -9.19646,9.96012 -12.59265,13.68931 -3.39618,3.72919 -5.33934,5.90749 -7.88705,9.03236 -2.54766,3.12488 -5.71675,7.21833 -8.39648,10.88877 -2.67974,3.67043 -4.87799,6.92792 -6.94925,10.30407 -2.07127,3.37613 -4.01425,6.86894 -5.6241,10.18615 -1.60991,3.31721 -2.88563,6.45684 -3.94308,9.44121 -1.05751,2.98437 -1.90681,5.84764 -2.71176,8.60551 -0.8049,2.75787 -1.57031,5.42643 -2.09063,7.9488 -0.52032,2.52236 -0.79507,4.89656 -0.96196,6.90854 -0.16688,2.01197 -0.22573,3.66016 -0.18648,5.37785 0.0391,1.7177 0.1766,3.50306 0.32383,4.78877 0.14723,1.28571 0.30423,2.07053 0.77553,3.44504 0.47136,1.37451 1.25613,3.33604 2.05126,5.03391 0.79507,1.69787 1.59979,3.13039 2.36555,4.1217 0.76571,0.99131 1.49193,1.54077 2.00218,2.12941 0.51025,0.58858 0.80478,1.2167 1.27602,2.159 0.4713,0.94236 1.11884,2.19795 2.35573,3.7782 1.23694,1.58025 3.06223,3.48367 4.84868,5.17159 1.78639,1.68797 3.53347,3.15996 5.00586,4.16092 1.47233,1.00095 2.66985,1.53094 3.99476,2.06075 1.32492,0.52986 2.77789,1.05991 4.48555,1.50146 1.70771,0.44156 3.67117,0.79492 5.50646,1.05003 1.83529,0.25511 3.54354,0.41214 5.33946,0.45138 1.79592,0.0391 3.681,-0.0391 5.70289,-0.25363 2.02183,-0.21433 4.22068,-0.57082 6.78195,-1.08104 2.56133,-0.51022 5.50682,-1.17776 7.72485,-1.62908 2.21808,-0.45138 3.7103,-0.68696 5.06446,-0.7948 1.35423,-0.10784 2.57181,-0.0881 3.75915,0.0592 1.18728,0.14721 2.34602,0.42214 3.38612,0.8244 1.0401,0.40225 1.96311,0.93235 2.75794,1.53082 0.79489,0.59853 1.46244,1.26595 1.98258,1.90372 0.5202,0.63777 0.89317,1.24624 1.16804,1.835 0.27481,0.58882 0.45141,1.15781 0.47136,1.52082 0.0201,0.36301 -0.11746,0.51992 -0.34378,0.59876 -0.22633,0.0788 -0.53915,0.0788 -0.90282,0.0296 -0.36361,-0.0491 -0.77506,-0.14703 -1.21705,-0.29435 -0.442,-0.14727 -0.91265,-0.3433 -1.53112,-0.47098 -0.61847,-0.12761 -1.38359,-0.18644 -2.20837,-0.2454 -0.82479,-0.0592 -1.70754,-0.11772 -2.56163,-0.0491 -0.8541,0.0687 -1.67806,0.26481 -2.5029,0.52004 -0.82479,0.25522 -1.64857,0.56899 -2.49308,0.9813 -0.8445,0.41232 -1.70747,0.92218 -2.64036,1.53083 -0.93283,0.60871 -1.93315,1.31466 -3.1016,2.04116 -1.16845,0.72649 -2.50243,1.47181 -3.73943,2.09022 -1.23701,0.61842 -2.37497,1.1088 -3.42549,1.53095 -1.05053,0.42208 -2.01183,0.77514 -3.15092,1.04025 -1.13903,0.26512 -2.45329,0.44156 -3.58225,0.69673 -1.12896,0.25516 -2.07079,0.58864 -2.47626,0.97231 -0.40553,0.38366 -0.26274,0.85274 -0.30169,1.0982 -0.0391,0.24546 -0.25474,0.28471 -0.44188,0.0778 -0.18713,-0.20693 -0.34366,-0.65689 -0.5003,-0.8824 -0.15665,-0.22557 -0.31377,-0.22557 -0.41974,-0.11702 -0.10597,0.10861 -0.16931,0.36177 -0.1792,0.60758 -0.0101,0.24588 0.029,0.50027 -0.0491,0.66725 -0.0783,0.16697 -0.27422,0.24534 -0.52031,0.23551 -0.2461,-0.0101 -0.53944,-0.10772 -0.70657,-0.31435 -0.16706,-0.20663 -0.20631,-0.52028 -0.29452,-0.75544 -0.0882,-0.23516 -0.22586,-0.39243 -0.4021,-0.43179 -0.1763,-0.0397 -0.39226,0.0391 -0.53991,0.20616 -0.14759,0.16703 -0.22585,0.42131 -0.37314,0.5591 -0.1473,0.1378 -0.36261,0.15751 -0.55945,0.10838 -0.19685,-0.0491 -0.37297,-0.16656 -0.46142,-0.36325 -0.0884,-0.19674 -0.0884,-0.47127 -0.18607,-0.60835 -0.0976,-0.13714 -0.33359,-0.13714 -0.52031,-0.0491 -0.18672,0.0883 -0.34337,0.2644 -0.54003,0.38249 -0.19661,0.11814 -0.43134,0.1768 -0.67732,0.14732 -0.24598,-0.0296 -0.50043,-0.14685 -0.6675,-0.32389 -0.16706,-0.17697 -0.2455,-0.41225 -0.36278,-0.51033 -0.11722,-0.0981 -0.27451,-0.0586 -0.45176,0.0887 -0.17719,0.14756 -0.37267,0.4016 -0.61842,0.49997 -0.2458,0.0984 -0.53944,0.0397 -0.72633,-0.098 -0.18684,-0.13779 -0.26522,-0.35336 -0.53938,-0.50027 -0.27416,-0.14691 -0.746,-0.22551 -1.20747,-0.20598 -0.46141,0.0195 -0.91246,0.1372 -1.84435,0 -0.93182,-0.13436 -2.38591,-0.53265 -3.83889,-1.12158 -1.45291,-0.58888 -2.92482,-1.37374 -4.97643,-2.70853 -2.05161,-1.33478 -4.68174,-3.21862 -6.41881,-4.23922 -1.73714,-1.02055 -2.58123,-1.17758 -3.32751,-1.46229 -0.74629,-0.2847 -1.39372,-0.6966 -1.8945,-1.25624 -0.50072,-0.55958 -0.85403,-1.26601 -1.0797,-1.96279 -0.22574,-0.69672 -0.32389,-1.38386 -0.66708,-1.90354 -0.34319,-0.51969 -0.93254,-0.87323 -1.54112,-1.19712 -0.60859,-0.32388 -1.23659,-0.61817 -1.70795,-1.00113 -0.47142,-0.38296 -0.78536,-0.85375 -1.06017,-1.41316 -0.27481,-0.5594 -0.51043,-1.20723 -0.8927,-1.49169 -0.38226,-0.28453 -0.91252,-0.20599 -1.43307,-0.1568 -0.52056,0.0491 -1.03034,0.0688 -2.01302,-0.61883 -0.98267,-0.68772 -2.43363,-2.07951 -3.29743,-3.21808 -0.86375,-1.13852 -1.13856,-2.02169 -1.13826,-2.57127 3.5e-4,-0.54963 0.27528,-0.76556 0.39274,-1.01054 0.11745,-0.24499 0.0781,-0.52046 -0.11752,-0.63807 -0.1956,-0.11755 -0.54962,-0.0783 -0.87386,-0.088 -0.32431,-0.009 -0.61818,-0.0685 -1.43415,-1.42499 -0.81602,-1.35646 -2.14882,-4.002 -2.78659,-5.38586 -0.63771,-1.38391 -0.57887,-1.5017 -0.12971,-1.83358 0.4491,-0.33187 1.29834,-0.88471 1.57285,-1.37506 0.27458,-0.49032 -0.0201,-0.92246 -0.40268,-1.27558 -0.38262,-0.35312 -0.85386,-0.62797 -1.53129,-1.03042 -0.67744,-0.40245 -1.56048,-0.93217 -2.20844,-1.61936 -0.64801,-0.68719 -1.06017,-1.53097 -1.27602,-2.33571 -0.2159,-0.80475 -0.23556,-1.57042 -0.16659,-2.02176 0.069,-0.45135 0.22615,-0.58884 0.18696,-0.95063 -0.0391,-0.3618 -0.27564,-0.95295 -0.35408,-1.56139 -0.0784,-0.60844 1.1e-4,-1.23682 0.17683,-1.73711 0.17677,-0.50029 0.45188,-0.87358 0.75582,-1.27554 0.304,-0.40195 0.6383,-0.83451 0.86392,-1.15821 0.22561,-0.3237 0.34354,-0.53992 0.26522,-0.97044 -0.0783,-0.43052 -0.35402,-1.08032 -0.8741,-2.17904 -0.52002,-1.09872 -1.28591,-2.64992 -1.62933,-3.56276 -0.34337,-0.91286 -0.26481,-1.18767 -0.0391,-1.48158 0.2255,-0.29392 0.59947,-0.60875 0.79549,-0.8344 0.19601,-0.22565 0.21567,-0.36327 -0.0284,-0.69532 -0.2442,-0.33205 -0.75706,-0.86453 -1.03193,-1.3947 -0.27481,-0.53018 -0.31406,-1.06012 -0.32389,-1.64862 -0.0101,-0.5885 0.0101,-1.23684 0.24545,-1.89406 0.23556,-0.65721 0.6875,-1.32514 1.08977,-1.88426 0.40227,-0.55911 0.756,-1.01098 1.01098,-1.3739 0.25503,-0.36292 0.41233,-0.63809 0.62782,-1.20617 0.21549,-0.56807 0.49102,-1.43385 0.43211,-2.32627 -0.0592,-0.89242 -0.45182,-1.81563 -0.58905,-2.42422 -0.13723,-0.6086 -0.0195,-0.90309 0.16695,-1.13827 0.18636,-0.23519 0.44217,-0.41225 0.61841,-1.32278 0.17624,-0.91053 0.27463,-2.56355 0.43193,-3.49575 0.15724,-0.93221 0.37326,-1.14819 0.63789,-1.36372 0.26463,-0.21553 0.57958,-0.43202 0.92247,-1.20595 0.34289,-0.77393 0.71669,-2.11142 0.8049,-3.21015 0.0883,-1.09873 -0.10816,-1.96277 -0.0491,-2.62026 0.0592,-0.6575 0.37338,-1.10914 0.71669,-1.52098 0.34331,-0.41183 0.71681,-0.7853 1.03051,-1.47149 0.31365,-0.68619 0.56928,-1.68874 0.80496,-2.28722 0.23574,-0.59847 0.45182,-0.79488 0.74558,-1.43127 0.29369,-0.63639 0.66778,-1.71895 0.78542,-2.54294 0.11763,-0.82399 -0.0201,-1.39354 0.45117,-2.36466 0.47106,-0.97112 1.55154,-2.34601 3.14103,-4.71024 1.58954,-2.36423 3.691,-5.72198 4.85892,-7.66498 1.16792,-1.94299 1.40354,-2.47301 1.58001,-3.16915 0.17648,-0.69614 0.29441,-1.56088 0.67715,-2.39469 0.38279,-0.83383 1.0311,-1.63913 1.81593,-2.5023 0.78488,-0.86318 1.7083,-1.78638 3.09153,-3.65005 1.38329,-1.86368 3.22977,-4.67209 5.57526,-7.65492 2.34554,-2.98283 5.19264,-6.14349 8.66685,-10.12723 3.47415,-3.98374 7.57767,-8.79322 12.86764,-15.01436 5.28996,-6.22114 11.76886,-13.85691 16.39175,-19.07746 4.62283,-5.22055 7.39095,-8.0274 10.11929,-10.73559 2.72834,-2.70819 5.41825,-5.31908 8.37659,-8.04199 2.95827,-2.7229 6.20912,-5.57913 8.67259,-7.61034 2.46347,-2.0312 4.152,-3.24829 5.97723,-4.4845 1.82523,-1.23621 3.78904,-2.49281 5.61664,-3.5778 1.82753,-1.08498 3.55117,-2.01596 4.48359,-2.50656 0.93241,-0.4906 1.08953,-0.5495 1.1868,-0.97965 0.0972,-0.43016 0.13758,-1.27772 0.0889,-1.68957 -0.0485,-0.41185 -0.18625,-0.41185 -2.24615,0.71149 -2.05984,1.12334 -6.00807,3.35114 -10.44501,5.92247 -4.43688,2.57135 -9.34363,5.47558 -13.47604,8.21363 -4.13247,2.73806 -7.48881,5.30878 -11.16987,8.29234 -3.68112,2.98357 -7.68495,6.37831 -11.62116,9.94082 -3.93622,3.56251 -7.80275,7.29098 -11.4052,10.57868 -3.60244,3.2877 -6.93906,6.13313 -11.42514,9.83319 -4.48608,3.70006 -10.11893,8.25258 -14.44759,11.7757 -4.32866,3.52312 -7.35141,6.01542 -9.82506,8.11564 -2.4736,2.10022 -4.39698,3.80737 -6.24263,5.85869 -1.84559,2.05132 -3.61174,4.44499 -5.09401,6.63362 -1.48234,2.18863 -2.67944,4.17037 -3.45503,5.85851 -0.77559,1.68813 -1.12879,3.08114 -1.33498,4.10191 -0.2062,1.02078 -0.26505,1.66813 -0.23562,2.45372 0.0296,0.78559 0.14711,1.70713 0.36307,2.84589 0.21603,1.13875 0.52997,2.49224 0.67721,3.72881 0.14729,1.23657 0.12763,2.35493 -0.0586,3.40517 -0.18643,1.05024 -0.53962,2.03104 -1.05005,2.84585 -0.51049,0.8148 -1.17739,1.46201 -1.97282,1.91373 -0.79536,0.45172 -1.71718,0.70664 -2.38485,0.8245 -0.66767,0.11786 -1.07959,0.0982 -1.33516,0.0196 -0.25557,-0.0787 -0.35361,-0.21587 -0.33366,-0.34361 0.0201,-0.12774 0.15742,-0.2456 0.37273,-0.33358 0.21526,-0.088 0.51108,-0.14713 0.86398,-0.25496 0.3529,-0.10783 0.76606,-0.26521 1.14856,-0.46137 0.38244,-0.19614 0.7364,-0.43207 1.05017,-0.70663 0.31376,-0.27456 0.58911,-0.58919 0.83408,-1.09882 0.24503,-0.50962 0.46135,-1.2176 0.60853,-1.89437 0.14711,-0.67676 0.22567,-1.32509 0.1374,-2.06053 -0.0883,-0.73545 -0.34378,-1.5606 -0.65778,-2.52204 -0.314,-0.96144 -0.68715,-2.06104 -0.97172,-3.24832 -0.28458,-1.18727 -0.48095,-2.46341 -0.56928,-3.74877 -0.0883,-1.28535 -0.0686,-2.5812 0.14729,-4.06267 0.21591,-1.48147 0.62836,-3.15051 1.26625,-4.76939 0.63795,-1.61887 1.50205,-3.18966 2.68933,-5.15178 1.18733,-1.96213 2.69956,-4.31839 4.03431,-6.13363 1.33474,-1.81524 2.49331,-3.09135 3.57272,-4.38641 1.07935,-1.29506 2.08103,-2.61068 3.00907,-3.76354 0.92803,-1.15285 1.8006,-2.16401 2.53658,-2.94887 0.73599,-0.78486 1.34493,-1.35438 1.66853,-1.87429 0.32359,-0.5199 0.3629,-0.99142 0.45123,-1.43277 0.0883,-0.44136 0.22591,-0.85407 0.50066,-1.15793 0.27469,-0.30386 0.68762,-0.50047 1.1485,-0.68672 0.46088,-0.18626 0.97214,-0.3632 1.26631,-0.56935 0.29417,-0.20615 0.37279,-0.44199 0.80365,-1.01955 0.43081,-0.57756 1.21842,-1.50279 1.78752,-2.23863 0.5691,-0.73583 0.9227,-1.28576 0.78577,-1.3448 -0.13687,-0.059 -0.76582,0.37329 -1.66953,1.09998 -0.90364,0.72671 -2.0802,1.74619 -3.37611,2.63949 -1.29597,0.89329 -2.70857,1.65833 -4.11252,2.31601 -1.40389,0.65767 -2.79695,1.20695 -4.50531,1.67816 -1.70843,0.47121 -3.72931,0.86355 -5.53559,1.05006 -1.80635,0.18652 -3.39583,0.1669 -5.33976,-0.0491 -1.94386,-0.21594 -4.2398,-0.62794 -6.76265,-1.38366 -2.52285,-0.75572 -5.27055,-1.85459 -7.78345,-3.09115 -2.51285,-1.23657 -4.78972,-2.61028 -6.57623,-3.96463 -1.78651,-1.35434 -3.082,-2.68885 -4.00471,-3.96471 -0.92271,-1.27586 -1.47233,-2.49271 -1.88455,-3.7782 -0.41215,-1.28549 -0.68708,-2.64003 -0.83426,-3.91562 -0.14717,-1.27559 -0.16682,-2.47322 -0.0882,-3.28769 0.0787,-0.81447 0.2554,-1.24647 0.48101,-1.44237 0.22568,-0.19591 0.50096,-0.15659 0.71639,0.0685 0.2155,0.22514 0.37285,0.63804 0.60853,1.30569 0.23568,0.66765 0.54951,1.58939 0.94224,2.45319 0.39269,0.86381 0.86363,1.6682 1.54107,2.46327 0.67743,0.79508 1.56059,1.57997 2.88563,2.52206 1.3251,0.94209 3.09189,2.04123 5.19234,2.98328 2.10046,0.94205 4.53486,1.72719 6.42912,2.21781 1.89431,0.49063 3.24901,0.68693 4.81914,0.7654 1.57019,0.0785 3.35723,0.0392 4.92747,-0.14727 1.57025,-0.18648 2.92519,-0.52024 4.46571,-0.98135 1.54059,-0.46112 3.26891,-1.05021 5.12356,-2.27666 1.85459,-1.22645 3.83806,-3.09175 6.05123,-5.29446 2.21311,-2.20272 4.67706,-4.76478 7.80281,-7.8799 3.1257,-3.11514 6.90544,-6.77668 8.85854,-8.70994 1.9531,-1.93327 2.07091,-2.12957 2.10999,-2.34494 0.0391,-0.21536 -3e-4,-0.45172 0.0979,-0.68706 0.0983,-0.23533 0.3343,-0.47133 0.56963,-0.65752 0.23532,-0.18619 0.47147,-0.32392 0.74575,-0.38261 0.27434,-0.0587 0.58935,-0.039 0.8052,-0.0883 0.21584,-0.0493 0.33383,-0.16725 0.65624,-0.96825 0.32241,-0.801 0.85504,-2.30013 1.29686,-3.22244 0.44175,-0.9223 0.79524,-1.27575 1.13879,-1.47996 0.3436,-0.20419 0.71657,-0.26635 1.04987,-0.25651 0.3333,0.01 0.64795,0.0885 0.82449,0.0196 0.17648,-0.0689 0.21579,-0.28513 0.20602,-0.74518 -0.0101,-0.46005 -0.0689,-1.16882 0.0491,-1.81636 0.11787,-0.64754 0.41251,-1.23679 0.80495,-1.78597 0.39245,-0.54919 0.88376,-1.0601 1.36447,-1.36402 0.48077,-0.30393 0.95242,-0.40218 1.28596,-0.45117 0.33354,-0.049 0.5694,-0.049 1.06888,-0.47991 0.49948,-0.43091 1.28685,-1.29684 1.69877,-1.9738 0.41198,-0.67696 0.45129,-1.16796 0.34343,-1.6483 -0.10793,-0.48034 -0.36344,-0.95199 -0.46148,-1.34469 -0.098,-0.3927 -0.0391,-0.70686 0.1277,-0.93226 0.16689,-0.22539 0.44229,-0.36307 0.98108,-0.52956 0.53879,-0.16647 1.3457,-0.36325 1.89526,-0.51044 0.5495,-0.14719 0.84421,-0.24541 1.20675,-0.62755 0.36249,-0.38214 0.79543,-1.05106 0.99144,-1.70874 0.19608,-0.65768 0.15683,-1.30485 0.21579,-1.9033 0.0592,-0.59845 0.21608,-1.14847 0.51055,-1.49161 0.29441,-0.34313 0.72687,-0.48069 1.1681,-0.53946 0.44122,-0.0588 0.89346,-0.0391 1.36428,-0.0293 0.47083,0.01 0.96226,0.01 1.3743,-0.0884 0.41209,-0.0982 0.74622,-0.29472 1.01085,-0.61824 0.26457,-0.32352 0.4613,-0.77588 0.51026,-1.315 0.0491,-0.53912 -0.0491,-1.16817 -0.0491,-1.65881 1.2e-4,-0.49063 0.0983,-0.84419 0.38279,-1.10875 0.2844,-0.26457 0.75647,-0.44156 1.23701,-0.55918 0.48053,-0.11762 0.97208,-0.17659 1.40371,-0.28454 0.43164,-0.10796 0.80514,-0.26518 1.09925,-0.48098 0.29417,-0.21582 0.51055,-0.49111 0.76529,-0.91244 0.2548,-0.42132 0.54992,-0.99185 0.90317,-1.44296 0.35319,-0.45111 0.766,-0.78518 1.08971,-0.96157 0.32366,-0.17639 0.55963,-0.19605 0.72782,-0.265 0.16813,-0.0689 0.30281,-0.22604 0.38102,-0.50963 0.0782,-0.28359 0.11763,-0.71737 0.39238,-1.00163 0.27481,-0.28426 0.78596,-0.42185 1.20776,-0.55919 0.42187,-0.13735 0.756,-0.27493 1.03057,-0.44168 0.27452,-0.16675 0.49096,-0.36343 1.12737,-1.06828 0.63641,-0.70485 1.69948,-1.92519 2.41587,-2.80827 0.7164,-0.88308 1.08954,-1.43291 1.54083,-1.77604 0.45129,-0.34314 0.98197,-0.48069 1.48221,-0.57874 0.50025,-0.098 0.97203,-0.157 4.37348,-2.76397 3.40145,-2.60697 9.75088,-7.77597 13.4806,-10.70025 3.72973,-2.92428 4.8488,-3.61129 6.27146,-4.54321 1.42266,-0.93191 3.15121,-2.11025 2.70022,-2.05156 -0.45093,0.0587 -3.08248,1.35455 -6.09617,2.67956 -3.01374,1.32502 -6.40886,2.67889 -10.99315,4.4357 -4.58435,1.75683 -10.35444,3.9153 -15.74333,6.23136 -5.38883,2.31605 -10.39392,4.7887 -15.88108,7.51702 -5.48711,2.72831 -11.45386,5.71113 -16.66604,8.21367 -5.21211,2.50253 -9.6677,4.52383 -20.50504,9.34279 -10.83733,4.81895 -28.05038,12.43287 -39.73063,17.56529 -11.68018,5.13243 -17.82424,7.78192 -22.85964,9.99001 -5.03546,2.20809 -8.96108,3.97428 -11.72908,5.09311 -2.76806,1.11881 -4.37744,1.58977 -5.65364,1.94311 -1.27619,0.35335 -2.21802,0.58877 -2.70904,0.76518 -0.49101,0.17643 -0.5302,0.29409 -0.59923,0.48131 -0.069,0.18722 -0.16653,0.44083 -0.48113,0.72601 -0.31465,0.28517 -0.84314,0.59832 -1.39317,0.81443 -0.55004,0.21611 -1.11861,0.33371 -1.68836,0.33376 -0.56969,4e-5 -1.13831,-0.11758 -1.53088,-0.14714 -0.39256,-0.0295 -0.60835,0.0293 -0.88369,0.19638 -0.2754,0.16711 -0.60805,0.44098 -1.15844,0.61793 -0.5504,0.17695 -1.3145,0.25531 -2.10993,0.2946 -0.79536,0.0393 -1.61915,0.0393 -2.15912,0.0295 -0.53997,-0.01 -0.79495,-0.0294 -1.14868,0.0589 -0.35378,0.0884 -0.8043,0.2842 -1.15803,0.65734 -0.35372,0.37315 -0.60852,0.92182 -0.98167,1.28525 -0.37308,0.36344 -0.86321,0.53986 -1.45261,0.6774 -0.58947,0.13753 -1.27555,0.23552 -1.94345,0.157 -0.66791,-0.0785 -1.3151,-0.33342 -1.71772,-0.55927 -0.40269,-0.22585 -0.55963,-0.42202 -0.68727,-0.67727 -0.12758,-0.25523 -0.22579,-0.56937 -0.38232,-0.71642 -0.15652,-0.14706 -0.37273,-0.12741 -0.69727,-0.0881 -0.32454,0.0393 -0.75511,0.098 -1.04981,0.28441 -0.29476,0.18639 -0.45152,0.49993 -0.66761,0.75542 -0.21608,0.25549 -0.4903,0.4513 -1.07053,0.589 -0.58017,0.13769 -1.46138,0.21601 -2.73799,0.18657 -1.27667,-0.0294 -2.944,-0.16673 -4.15153,-0.363 -1.20746,-0.19627 -1.95316,-0.45133 -2.47359,-0.69675 -0.52038,-0.24542 -0.81473,-0.48083 -1.24654,-0.69671 -0.43175,-0.21589 -1.00091,-0.41211 -1.76662,-0.35331 -0.7657,0.0588 -1.72701,0.37264 -2.65978,0.59846 -0.93283,0.22582 -1.83517,0.3631 -2.89576,0.29441 -1.06059,-0.0687 -2.27675,-0.34327 -3.16045,-0.71629 -0.88363,-0.37301 -1.43307,-0.84388 -1.92391,-1.3248 -0.49084,-0.48091 -0.92265,-0.97154 -1.227,-1.45251 -0.30429,-0.48098 -0.48095,-0.95206 -0.4906,-1.36429 -0.009,-0.41223 0.14747,-0.76576 0.27499,-1.05012 0.12752,-0.28437 0.22585,-0.5007 0.19655,-0.67674 -0.0296,-0.17603 -0.1869,-0.31387 -0.63819,-0.30413 -0.45129,0.01 -1.19704,0.16671 -1.98276,0.17658 -0.78566,0.01 -1.60938,-0.1274 -2.41469,-0.53978 -0.80531,-0.41238 -1.59002,-1.09892 -2.13976,-1.83511 -0.54974,-0.73619 -0.86386,-1.52122 -1.01098,-2.10028 -0.14717,-0.57907 -0.12752,-0.95213 -0.30388,-1.33421 -0.17642,-0.38209 -0.54997,-0.77528 -0.96225,-1.20705 -0.41222,-0.43178 -0.86374,-0.90284 -1.52135,-1.62902 -0.6576,-0.72619 -1.52135,-1.70755 -2.23786,-2.57114 -0.71651,-0.86357 -1.28584,-1.60942 -2.23785,-3.31685 -0.95201,-1.70743 -2.28706,-4.37697 -3.05259,-6.31027 -0.76558,-1.93329 -0.96189,-3.13063 -1.18757,-3.89579 -0.22573,-0.76518 -0.48101,-1.09897 -0.75558,-1.30494 -0.27452,-0.20597 -0.56904,-0.2845 -0.75588,-0.49108 -0.18678,-0.20657 -0.26516,-0.53977 -0.23544,-0.73594 0.0296,-0.19616 0.16736,-0.25512 0.37279,-0.34313 0.20537,-0.088 0.48166,-0.20639 0.60888,-0.39263 0.12722,-0.18624 0.10757,-0.44205 -0.0296,-0.65743 -0.13705,-0.2154 -0.3928,-0.39241 -0.52044,-0.62834 -0.12769,-0.23593 -0.12769,-0.53019 -0.009,-0.75567 0.11787,-0.22548 0.35391,-0.38281 0.54015,-0.52007 0.18631,-0.13726 0.32413,-0.25536 0.37291,-0.41188 0.0485,-0.15651 0.009,-0.35368 -0.14729,-0.56905 -0.15665,-0.21538 -0.43211,-0.45144 -0.56958,-0.6873 -0.1374,-0.23586 -0.1374,-0.47134 -0.0491,-0.687 0.0884,-0.21566 0.26551,-0.41242 0.28505,-0.75499 0.0195,-0.34258 -0.11834,-0.8348 -0.12799,-1.23718 -0.009,-0.40238 0.10816,-0.71666 0.17671,-1.15756 0.0686,-0.4409 0.0883,-1.01137 0.10787,-1.56063 0.0195,-0.54926 0.0391,-1.07975 0.18636,-3.7658 0.14712,-2.68605 0.42222,-7.53944 0.58911,-10.90528 0.16683,-3.36584 0.22573,-5.25024 0.11775,-6.72197 -0.10798,-1.47173 -0.38291,-2.53191 -0.58899,-3.58177 -0.20608,-1.04988 -0.34354,-2.09049 -0.40239,-2.79702 -0.0586,-0.70653 -0.0391,-1.07962 0.18654,-1.32464 0.22574,-0.24502 0.65832,-0.36297 1.19746,-0.32372 0.53915,0.0392 1.18799,0.23583 1.79622,0.56931 0.60823,0.33348 1.1778,0.8048 1.77645,1.47198 0.59864,0.66718 1.22688,1.53085 2.02195,2.8557 0.79507,1.32485 1.75685,3.11066 2.52243,5.19112 0.76565,2.08045 1.33487,4.455 1.99253,7.14412 0.65773,2.68912 1.40354,5.69146 2.19861,8.92028 0.79507,3.22883 1.6391,6.68264 2.93477,10.29425 1.29573,3.61161 3.04258,7.37946 4.03396,9.66593 0.99132,2.28647 1.22688,3.09111 1.56071,3.85682 0.33384,0.76572 0.76547,1.49156 1.09931,1.95292 0.33383,0.46137 0.56933,0.65759 1.47215,1.41305 0.90282,0.75546 2.4736,2.07077 3.68094,2.9638 1.20735,0.89304 2.05143,1.3641 3.01327,1.82527 0.96178,0.46119 2.04173,0.9127 4.11246,1.20704 2.07073,0.29433 5.13391,0.43175 7.94087,0.28452 2.80696,-0.14723 5.35935,-0.57909 8.32313,-1.29538 2.96372,-0.71629 6.34108,-1.71751 10.25687,-3.23842 3.91579,-1.52091 8.3728,-3.56251 13.45663,-5.71142 5.08383,-2.14892 10.7972,-4.40635 15.74374,-6.46704 4.9466,-2.0607 9.12844,-3.92547 16.12582,-7.40878 6.99738,-3.48332 16.81421,-8.58712 26.3837,-13.42491 9.56949,-4.8378 18.8946,-9.41113 27.22738,-13.6896 8.33284,-4.27848 15.67518,-8.26299 22.22163,-11.67787 6.54645,-3.41488 12.29872,-6.26102 15.43951,-7.84098 3.14085,-1.57996 3.67093,-1.89402 3.92574,-2.12948 0.25486,-0.23547 0.2352,-0.39269 -1.70168,-0.72522 -1.93682,-0.33254 -5.81656,-0.84449 -10.9896,-1.60999 -5.17304,-0.7655 -11.65023,-1.78595 -18.19727,-3.15005 -6.54698,-1.3641 -13.16192,-3.0715 -18.42306,-4.77906 -5.26113,-1.70757 -9.16733,-3.41497 -11.91562,-4.59259 -2.74835,-1.17762 -4.33825,-1.82526 -5.80069,-2.04124 -1.46239,-0.21599 -2.79702,-1.4e-4 -3.47457,0.17626 -0.6775,0.1764 -0.69715,0.31371 -0.88429,0.58949 -0.18707,0.27579 -0.53873,0.68596 -1.0594,1.16729 -0.52067,0.48133 -1.20669,1.03003 -1.95298,1.41302 -0.74635,0.38299 -1.55042,0.59868 -2.27717,0.64783 -0.72669,0.0491 -1.37394,-0.0685 -1.95345,-0.34346 -0.57946,-0.27495 -1.08948,-0.70642 -1.4036,-0.98122 -0.31412,-0.27481 -0.43187,-0.39256 -0.76529,-0.41223 -0.33336,-0.0197 -0.88305,0.0588 -1.20717,0.20585 -0.32413,0.14703 -0.42216,0.36266 -0.74682,0.78571 -0.32472,0.42306 -0.87257,1.04903 -1.54029,1.51059 -0.66773,0.46155 -1.4522,0.75565 -2.18866,0.90299 -0.73652,0.14733 -1.42296,0.14733 -1.97306,-0.01 -0.55009,-0.15711 -0.96195,-0.47087 -1.32509,-0.69656 -0.36308,-0.2257 -0.67708,-0.36305 -0.94201,-0.41223 -0.26492,-0.0492 -0.48065,-0.01 -0.74623,0.21613 -0.26557,0.22609 -0.57869,0.63696 -1.00109,0.88263 -0.4224,0.24568 -0.95159,0.32406 -1.47215,0.33392 -0.52061,0.01 -1.03039,-0.0489 -1.4332,-0.20611 -0.4028,-0.15715 -0.69691,-0.41204 -0.99126,-0.58865 -0.29435,-0.17661 -0.58875,-0.27472 -0.95201,-0.29442 -0.36326,-0.0197 -0.7946,0.0391 -1.13849,0.30413 -0.34384,0.26501 -0.59864,0.73533 -0.90306,1.12818 -0.30441,0.39284 -0.65725,0.70639 -1.06005,0.89313 -0.4028,0.18674 -0.8535,0.24552 -1.24648,0.23574 -0.39297,-0.01 -0.72622,-0.0882 -1.09954,-0.24533 -0.37338,-0.15716 -0.78506,-0.39238 -1.11872,-0.52979 -0.3336,-0.13742 -0.58869,-0.17665 -0.89322,-0.0589 -0.30453,0.11772 -0.65719,0.39197 -0.96184,0.75539 -0.30465,0.36342 -0.55933,0.81399 -1.13903,1.09898 -0.57964,0.28498 -1.48127,0.40256 -2.15871,0.46148 -0.67743,0.059 -1.1286,0.059 -1.62962,-0.0295 -0.50108,-0.0884 -1.04999,-0.26479 -1.37376,-0.32392 -0.32377,-0.0591 -0.42187,-2.8e-4 -0.5601,0.27608 -0.1383,0.27637 -0.31371,0.76355 -0.60823,1.12697 -0.29453,0.36342 -0.70615,0.59859 -1.11884,0.71656 -0.41264,0.11796 -0.82414,0.11796 -1.27602,0.0983 -0.45188,-0.0196 -0.94195,-0.0588 -1.33469,0.0489 -0.39274,0.10779 -0.68685,0.36267 -0.8834,0.60816 -0.1966,0.2455 -0.29452,0.48052 -0.6486,0.73628 -0.35408,0.25576 -0.96078,0.52969 -1.43214,0.66725 -0.47141,0.13754 -0.80471,0.13754 -1.10919,0.15716 -0.30447,0.0196 -0.5788,0.0588 -0.70674,0.16674 -0.12793,0.10795 -0.10833,0.28416 -0.29511,0.60864 -0.18678,0.32446 -0.57822,0.79412 -1.11843,1.21648 -0.54021,0.42235 -1.22635,0.79475 -1.81552,1.05006 -0.58917,0.25531 -1.07941,0.39255 -1.37891,0.5151 -0.29949,0.12255 -0.42695,0.24997 -0.57472,0.48632 -0.14783,0.23634 -0.32359,0.58784 -0.60853,0.9612 -0.28487,0.37336 -0.67672,0.76511 -1.1482,1.02056 -0.47154,0.25546 -1.02033,0.37305 -1.37382,0.52012 -0.35355,0.14707 -0.51037,0.32348 -0.62854,0.67769 -0.11816,0.3542 -0.19637,0.88224 -0.40245,1.2652 -0.20602,0.38296 -0.53932,0.61819 -0.84385,0.79503 -0.30453,0.17684 -0.57881,0.29437 -0.88351,0.48105 -0.30477,0.18668 -0.6376,0.44117 -0.87345,0.72596 -0.23586,0.28479 -0.37303,0.5982 -0.88429,1.15855 -0.5112,0.56035 -1.39259,1.36321 -2.53161,2.4235 -1.13909,1.0603 -2.53185,2.37436 -3.75903,3.60125 -1.22712,1.2269 -2.2867,2.36475 -3.19982,3.55245 -0.91305,1.1877 -1.67823,2.42352 -2.35566,3.60143 -0.67744,1.1779 -1.26602,2.29599 -1.93369,3.50344 -0.66766,1.20745 -1.41312,2.50199 -2.02189,3.77805 -0.6087,1.27607 -1.07959,2.5315 -1.49198,3.68977 -0.41234,1.15828 -0.76547,2.21751 -1.18763,3.20897 -0.42217,0.99146 -0.91259,1.91329 -1.34464,2.95395 -0.4321,1.04065 -0.80477,2.19773 -1.13855,3.12039 -0.33378,0.92266 -0.62806,1.60917 -0.86357,1.96279 -0.23544,0.35361 -0.41192,0.37322 -0.52037,0.28435 -0.1084,-0.0889 -0.14753,-0.28441 -0.0887,-0.69596 0.0586,-0.41155 0.21627,-1.04107 0.45165,-2.08047 0.23538,-1.0394 0.5498,-2.49338 0.8934,-3.54325 0.34355,-1.04988 0.71669,-1.69787 1.00115,-2.3452 0.28446,-0.64733 0.48095,-1.29572 0.69674,-1.98225 0.21584,-0.68654 0.45164,-1.41352 0.67726,-2.23738 0.22561,-0.82386 0.44175,-1.74721 0.6576,-2.64971 0.21591,-0.90249 0.43199,-1.78635 0.75582,-2.62999 0.32383,-0.84363 0.75606,-1.64896 1.26613,-2.6592 0.51014,-1.01024 1.09954,-2.22816 1.88449,-3.86638 0.78495,-1.63822 1.76703,-3.70023 2.80731,-5.55465 1.04028,-1.85441 2.13994,-3.50362 3.29791,-5.15191 1.15797,-1.64828 2.37556,-3.29761 3.53353,-4.84782 1.15798,-1.55021 2.25769,-3.00316 4.48501,-5.38701 2.22738,-2.38384 5.58568,-5.70225 8.23563,-8.0769 2.64996,-2.37465 4.59371,-3.80765 6.79196,-5.06348 2.19819,-1.25583 4.65284,-2.33566 6.6745,-3.18932 2.02171,-0.85365 3.61227,-1.48189 8.03725,-2.85524 4.42504,-1.37335 11.69155,-3.49397 15.31293,-4.61283 3.62144,-1.11885 3.60179,-1.23662 2.5756,-1.57863 -1.02619,-0.34201 -3.07608,-0.9135 -4.67605,-1.30607 -1.59997,-0.39257 -2.75794,-0.60841 -3.83777,-0.75565 -1.07982,-0.14724 -2.08056,-0.22572 -3.38641,-0.28462 -1.30586,-0.0589 -2.91465,-0.0981 -4.26928,-0.0491 -1.3547,0.0491 -2.45359,0.18639 -3.6514,0.35326 -1.19788,0.16688 -2.49266,0.36303 -3.25861,0.38271 -0.76588,0.0197 -1.00132,-0.13725 -1.11919,-0.28483 -0.11787,-0.14758 -0.11787,-0.28489 0.0877,-0.43159 0.2056,-0.1467 0.61959,-0.30439 1.50181,-0.54938 0.88215,-0.245 2.23898,-0.57923 3.88743,-0.91277 1.64845,-0.33354 3.59285,-0.66737 5.41814,-0.8832 1.82534,-0.21584 3.53376,-0.314 5.23147,-0.33361 1.69765,-0.0196 3.38648,0.0393 5.14309,0.22572 1.75655,0.18643 3.58279,0.50056 4.82932,0.62808 1.24654,0.1275 1.91415,0.0686 2.41452,0.0293 0.50042,-0.0392 0.83443,-0.0589 1.07225,0.0471 0.23781,0.10598 0.40925,0.38455 0.58614,0.58099 0.17684,0.19643 0.37303,0.33373 0.60095,0.33748 0.22793,0.004 0.5186,-0.14158 0.87127,-0.18069 0.35271,-0.0391 0.78571,0.0199 1.07982,0.12773 0.29411,0.10783 0.45129,0.26502 0.58899,0.35338 0.13765,0.0884 0.2554,0.108 0.4317,0.10797 0.17624,-2e-5 0.41281,-0.0197 2.21423,-0.68538 1.80149,-0.66564 5.18708,-1.98418 6.8749,-2.64154 1.68788,-0.65735 1.68788,-0.65794 3.07218,-1.14873 z"
   inkscape:connector-curvature="0" /></svg>