<?xml version="1.0" encoding="UTF-8" standalone="no"?>
<!-- Created with Inkscape (http://www.inkscape.org/) -->

<svg
   xmlns:dc="http://purl.org/dc/elements/1.1/"
   xmlns:cc="http://creativecommons.org/ns#"
   xmlns:rdf="http://www.w3.org/1999/02/22-rdf-syntax-ns#"
   xmlns:svg="http://www.w3.org/2000/svg"
   xmlns="http://www.w3.org/2000/svg"
   xmlns:sodipodi="http://sodipodi.sourceforge.net/DTD/sodipodi-0.dtd"
   xmlns:inkscape="http://www.inkscape.org/namespaces/inkscape"
   version="1.1"
   width="297mm"
   height="210mm"
   viewBox="0 0 1122.5197 793.70082"
   id="Layer_1"
   xml:space="preserve"
   sodipodi:docname="placentalia (copy).svg"
   inkscape:version="0.92.3 (unknown)"><metadata
   id="metadata13"><rdf:RDF><cc:Work
       rdf:about=""><dc:format>image/svg+xml</dc:format><dc:type
         rdf:resource="http://purl.org/dc/dcmitype/StillImage" /><dc:title /></cc:Work></rdf:RDF></metadata><sodipodi:namedview
   pagecolor="#ffffff"
   bordercolor="#666666"
   borderopacity="1"
   objecttolerance="10"
   gridtolerance="10"
   guidetolerance="10"
   inkscape:pageopacity="0"
   inkscape:pageshadow="2"
   inkscape:window-width="2337"
   inkscape:window-height="1237"
   id="namedview11"
   showgrid="false"
   units="mm"
   inkscape:zoom="0.68980655"
   inkscape:cx="561.25984"
   inkscape:cy="483.8313"
   inkscape:window-x="65"
   inkscape:window-y="24"
   inkscape:window-maximized="0"
   inkscape:current-layer="Layer_1" /><defs
   id="defs19">
        
        
        
    </defs>
    
    
    
<g
   style="stroke-width:2.47623897"
   id="g4"
   transform="matrix(-0.40383826,0,0,0.40383826,816.19967,55.844008)">
            
            <g
   style="stroke-width:2.47623897"
   id="XMLID_3_">
                
                <g
   style="stroke-width:2.47623897"
   id="g7">
                    
                    <path
   style="stroke-width:2.47623897"
   d="m 912.89821,1005.5255 c -45.9191,20.0083 -103.99805,51.6037 -157.9642,75.7541 -53.96615,24.1504 -171.56675,22.5147 -222.30585,55.6072 -35.81287,39.0099 -55.17816,80.6522 -120.49436,116.991 -65.3161,36.3389 -74.40257,138.1735 -88.3311,178.8361 -13.92853,40.6626 -47.5949,37.5955 -31.35947,5.819 7.9838,-15.6261 -4.8127,-22.5885 -8.43162,-5.6092 -20.45354,39.5612 -45.79646,30.7588 -32.93829,6.0583 7.88496,-15.147 -9.33435,-33.1351 -22.56687,-3.5094 -14.22439,37.5802 -34.28056,27.995 -17.56926,0.9026 8.99207,-14.578 -5.52896,-35.3019 -29.75043,-8.0679 -19.4383,21.8559 -20.86157,-6.0984 -6.00838,-25.4026 12.23636,-15.9031 -1.62054,-12.4679 -12.79042,0.6486 -23.63871,27.7584 -23.70138,2.2235 -8.444,-21.489 19.19539,-29.8328 73.2883,-52.7047 79.29709,-101.7107 1.52149,-12.4088 10.7728,-37.3061 2.92457,-51.7467 -7.4393,-13.6883 -34.21032,1.9726 -57.00137,-7.9664 -22.79105,-9.939 -84.981751,39.0339 -142.513524,22.936 -67.87809,7.0738 -118.46472,-12.9803 -200.093526,-32.1472 -66.33432,8.1195 -144.84261,16.7009 -206.905,55.3564 -68.14328,38.3972 -165.94628,156.8752 -227.06871,100.0893 -61.12243,-56.7859 -37.0659,-83.8441 -29.22974,-98.7299 45.7743,-86.9545 183.42572,-94.5004 232.1986,-173.2045 6.03341,-11.3174 2.24085,-20.2161 9.74004,-32.7556 3.64173,-6.0894 23.73399,-21.4883 27.37844,-27.5041 4.59049,-7.5774 4.44829,-17.0055 9.10585,-24.4365 26.56992,-42.39155 49.58834,-76.38352 85.97565,-110.39022 61.8335,-73.7861 156.12809,-96.57999 241.604736,-133.37572 C 58.782016,693.39832 131.30886,612.52374 208.47026,536.88588 343.87494,421.50391 491.90141,313.94185 661.47561,257.28026 c 107.4215,-30.41681 221.0727,-44.23777 330.7167,-15.50797 81.48719,22.33313 151.11289,72.30578 221.06109,115.77968 72.9937,59.44465 157.1241,109.74329 253.6806,107.72766 165.6804,25.49131 356.5273,87.76506 426.7853,256.03228 43.9391,148.23497 -138.7068,108.00497 -163.9497,5.32947 -23.5045,-46.58396 -60.8683,-94.72908 -115.3373,-104.02402 -74.9109,-10.58637 -136.6085,10.34053 -204.3983,22.76227 -47.9811,14.83728 -115.71,32.43366 -125.6409,90.35906 -29.9883,48.65322 -46.5149,102.97027 -97.4591,135.54094 l -74.1874,57.61892 c -32.9058,33.15771 -47.0482,81.18705 -85.3425,116.14445 -5.1069,0.2783 -11.4424,-5.5813 -6.4899,-20.6379 8.6497,-26.29675 11.0928,-42.82676 -12.1882,-8.7389 -8.0892,17.5087 -38.50179,32.6938 -11.37429,-16.23687 13.98239,-15.32362 9.28129,-27.57234 -14.8361,0.99997 -15.7154,27.0765 -35.8354,26.7907 -21.9251,3.6537 6.6435,-11.05021 8.7811,-16.00676 15.3823,-28.41183 1.8552,-5.60363 -17.1555,9.84605 -63.0746,29.85433 z"
   id="path9"
   inkscape:connector-curvature="0"
   sodipodi:nodetypes="zzczzscscssssssszccczscssscccccccccccccccscccscz" />
                    
                </g>
                
                <g
   style="stroke-width:2.47623897"
   id="g11" />
                
            </g>
            
        </g></svg>