<?xml version="1.0" encoding="UTF-8" standalone="no"?>
<!-- Created with Inkscape (http://www.inkscape.org/) -->

<svg
   xmlns:dc="http://purl.org/dc/elements/1.1/"
   xmlns:cc="http://creativecommons.org/ns#"
   xmlns:rdf="http://www.w3.org/1999/02/22-rdf-syntax-ns#"
   xmlns:svg="http://www.w3.org/2000/svg"
   xmlns="http://www.w3.org/2000/svg"
   xmlns:sodipodi="http://sodipodi.sourceforge.net/DTD/sodipodi-0.dtd"
   xmlns:inkscape="http://www.inkscape.org/namespaces/inkscape"
   version="1.1"
   width="297mm"
   height="210mm"
   viewBox="0 0 1122.5197 793.70079"
   id="Layer_1"
   xml:space="preserve"
   sodipodi:docname="nematomorpha.svg"
   inkscape:version="0.92.3 (unknown)"><metadata
   id="metadata34"><rdf:RDF><cc:Work
       rdf:about=""><dc:format>image/svg+xml</dc:format><dc:type
         rdf:resource="http://purl.org/dc/dcmitype/StillImage" /><dc:title /></cc:Work></rdf:RDF></metadata><sodipodi:namedview
   pagecolor="#ffffff"
   bordercolor="#666666"
   borderopacity="1"
   objecttolerance="10"
   gridtolerance="10"
   guidetolerance="10"
   inkscape:pageopacity="0"
   inkscape:pageshadow="2"
   inkscape:window-width="2495"
   inkscape:window-height="1416"
   id="namedview32"
   showgrid="false"
   units="mm"
   inkscape:zoom="0.91643296"
   inkscape:cx="615.59965"
   inkscape:cy="468.63806"
   inkscape:window-x="65"
   inkscape:window-y="24"
   inkscape:window-maximized="1"
   inkscape:current-layer="Layer_1" /><defs
   id="defs60" />
    
    
    
<g
   id="g1007"
   transform="matrix(1.8714827,0,0,1.8719568,-404.41744,-333.05953)"
   style="stroke-width:0.53426802"><path
     sodipodi:nodetypes="ccccccccccccccccccccccccccccccc"
     inkscape:connector-curvature="0"
     id="path998"
     d="m 308.69603,358.53595 c 3.60777,-22.6931 13.01658,-44.06243 27.26715,-62.10907 17.85976,-23.8571 40.69321,-44.46091 66.92656,-58.64403 36.43716,-15.67639 77.9355,-23.99891 117.14578,-14.94679 19.06705,3.7066 36.22165,21.76633 33.1987,42.04052 0.2967,5.95249 -11.81439,22.74551 -14.48973,16.18596 14.17393,-7.24794 12.9063,-27.64234 5.24257,-39.2346 -11.61106,-15.3432 -33.05521,-16.83359 -50.69718,-18.66569 -28.79686,-1.1549 -57.7245,5.97184 -83.95249,17.55281 -24.29687,11.18877 -44.89365,28.88691 -61.19945,49.93303 -25.12307,28.69092 -39.82269,68.38979 -33.02051,106.54044 6.6354,27.90123 29.91017,47.06037 47.95248,67.60217 14.54861,19.03566 35.35444,31.47686 53.94405,46.09828 24.35012,16.36119 48.7654,34.53022 77.50629,42.18938 20.19345,3.99993 46.00771,0.71413 57.88858,-18.07051 11.20419,-17.70896 12.9587,-43.7855 -3.38625,-59.05498 -15.57244,-18.40386 -42.20361,-16.66394 -63.76965,-13.73623 -24.33828,2.68886 -48.86248,10.92869 -73.36247,4.80339 -27.87845,-2.98353 -39.14474,-36.60486 -63.92117,-53.41803 -11.15847,-9.1322 -24.46737,-23.87733 -23.63425,-38.43864 2.09748,5.82483 4.97632,11.82464 3.13917,0.99137 3.8384,6.71187 6.81687,20.86911 15.54472,27.47255 31.34599,15.38953 44.92165,56.38039 70.41679,57.41717 14.44744,2.45979 28.34777,4.26235 49.51311,-1.78062 26.0733,-2.2101 54.79579,-10.93268 79.1121,3.0743 13.80822,10.657 26.31805,26.74802 25.13682,45.16502 -2.08816,18.32483 -8.40147,39.16181 -26.93317,47.06048 -27.04064,13.18577 -58.90235,3.326 -83.12408,-11.55282 -34.70933,-21.82026 -72.33509,-42.1181 -99.31052,-73.84976 -18.0181,-20.73934 -39.25393,-39.96394 -47.06719,-67.11225 -3.30067,-14.2003 -7.04862,-29.19451 -2.06676,-43.51285 z"
     style="fill:#000000;fill-opacity:1;fill-rule:evenodd;stroke:#000000;stroke-width:0.53426802px;stroke-linecap:butt;stroke-linejoin:miter;stroke-opacity:1" /><path
     sodipodi:nodetypes="ccsccscccccccccccccccccczccccccccccccccccccccccccccccccccscccscscssscccc"
     inkscape:connector-curvature="0"
     id="path1001"
     d="m 635.59989,346.01327 c 2.33339,-1.71562 4.53619,-3.34445 6.93302,-4.96948 7.67209,-3.49369 13.04986,-8.8764 19.91441,-13.66871 3.86214,-2.69625 11.89828,-6.61278 16.97904,-7.67385 5.61953,-0.67144 14.8237,-0.0314 14.8237,-0.0314 0,0 1.03555,8.94649 -2.57586,18.02237 -4.56335,11.46821 -14.51173,24.28239 -20.73048,32.17816 -6.10974,5.85379 -16.28661,7.97732 -24.22936,4.70125 -11.42165,-4.91945 -18.73924,-10.90693 -26.48119,-18.12424 5.04627,-3.82798 10.72933,-7.2353 15.36672,-10.4341 z m -25.63822,-2.0649 c -11.35409,-12.21353 -6.36114,-31.29871 5.00577,-42.51104 13.25219,-11.46736 32.77293,-11.64268 49.08212,-8.2144 10.15052,2.47982 26.78198,10.83868 28.57393,20.97285 -9.91873,0.0781 -23.0109,1.15267 -31.02896,7.66921 -12.69075,9.27622 -25.31784,18.67661 -38.09076,27.86039 -2.19443,1.47913 -4.27142,2.78305 -6.01774,4.45046 -1.93115,-2.84217 -5.90686,-7.79176 -7.52436,-10.22747 z m 12.79493,21.02815 c 10.06289,7.85062 22.39402,16.23246 35.77333,15.12686 9.44819,-1.79749 18.26546,-6.45732 22.44598,-15.50835 6.77815,-9.60987 15.50691,-19.00001 17.7482,-30.83826 0.19025,-4.31035 0.38049,-8.62071 0.57074,-12.93106 8.18736,5.01641 14.36853,13.78077 12.51462,23.83271 -1.62021,14.61078 -16.12201,24.20366 -26.20656,31.52622 -10.08455,7.32256 -16.50855,14.34322 -25.62881,20.44015 -12.73917,10.41433 -26.6196,23.31467 -44.28333,22.34312 -14.6862,-0.90621 -28.7056,-6.79493 -41.44218,-13.85267 -18.16398,-12.61871 -25.93161,-36.40622 -24.42001,-57.79646 2.15496,-17.75134 13.47341,-33.02228 26.02511,-45.09627 15.47551,-12.09881 35.28243,-16.38513 53.72252,-21.94046 17.90196,-5.00998 38.50599,-6.60874 54.8402,3.88303 9.85573,5.03113 18.65172,12.30525 23.63017,22.37646 10.1694,16.36794 18.55073,37.47133 9.82763,56.26918 -7.62625,17.73338 -18.47955,34.94022 -35.39402,45.11696 -21.66569,14.78654 -46.15289,26.1358 -72.09607,30.6506 -23.94411,2.0287 -45.41243,-14.10476 -58.71095,-32.71497 -11.55218,-15.8364 -25.52982,-30.03466 -41.38655,-41.50602 -11.83119,-4.51267 5.08753,9.50176 7.73702,12.68898 12.96599,12.73135 25.38147,26.00354 36.34612,40.51558 11.21314,14.95664 29.2191,23.97153 47.51546,26.38713 17.95972,1.45579 34.64796,-7.13745 50.88238,-13.55716 22.58832,-10.53131 46.19316,-23.02058 59.33171,-45.19259 9.70196,-16.05377 16.01785,-35.48904 12.74005,-54.31891 -4.04218,-12.75253 -10.49745,-24.83094 -18.08384,-35.80933 -17.80606,-21.22032 -48.66145,-28.23485 -74.79459,-20.68305 -24.26249,6.58573 -49.78678,14.3268 -68.23173,32.30577 -19.4316,19.75402 -22.31306,50.71748 -13.42754,76.01765 4.12131,13.94352 14.8377,25.44042 28.53808,30.37242 18.15939,8.14153 39.98609,15.53029 59.0959,6.06113 13.05693,-5.74649 22.28187,-17.03241 33.71236,-25.07233 9.52051,-5.02316 15.62416,-14.38207 25.01377,-19.61919 11.54034,-7.86728 22.76775,-21.026 19.25008,-35.99451 -1.97731,-9.81111 -8.64811,-18.79637 -17.61497,-23.15223 -3.24151,-14.78356 -17.40288,-23.19498 -30.90427,-27.25729 -14.43919,-4.50291 -30.49191,-3.41355 -44.46455,2.1504 -14.70162,6.61937 -26.75059,21.78826 -24.55537,38.5764 0.93964,10.69244 5.30454,15.98767 12.58124,23.53546 0.59242,0.61448 1.64168,1.83364 2.73672,3.10791 l 1.43273,1.60644 c -4.05756,3.99162 -10.38341,10.33951 -12.28971,16.70684 -1.87012,5.93216 -0.59459,11.99984 3.56088,16.26779 2.44442,2.51059 5.79618,5.64723 10.32951,4.41947 2.93885,0.16604 5.63664,-1.81236 7.45263,-3.2999 4.64449,-3.80445 5.03275,-10.44449 0.11884,-14.52572 -1.1386,-1.23716 -3.10446,-2.36179 -4.19423,-2.27896 -4.915,0.37355 -6.54772,7.19224 -5.39121,7.41073 0,0 3.10918,-5.14682 5.45693,-4.63491 4.2915,0.93575 8.27429,8.32439 1.88093,12.54369 -9.70037,8.28395 -20.3158,-3.67873 -16.89263,-13.7778 1.98676,-7.43049 6.30867,-13.36509 11.46552,-17.39181 1.75443,2.48371 4.29844,4.59993 6.13576,6.51113 z"
     style="fill:#000000;fill-opacity:1;fill-rule:evenodd;stroke:#000000;stroke-width:0.53426802px;stroke-linecap:butt;stroke-linejoin:miter;stroke-opacity:1" /></g></svg>