<?xml version="1.0" encoding="UTF-8" standalone="no"?>
<!-- Created with Inkscape (http://www.inkscape.org/) -->

<svg
   xmlns:dc="http://purl.org/dc/elements/1.1/"
   xmlns:cc="http://creativecommons.org/ns#"
   xmlns:rdf="http://www.w3.org/1999/02/22-rdf-syntax-ns#"
   xmlns:svg="http://www.w3.org/2000/svg"
   xmlns="http://www.w3.org/2000/svg"
   xmlns:sodipodi="http://sodipodi.sourceforge.net/DTD/sodipodi-0.dtd"
   xmlns:inkscape="http://www.inkscape.org/namespaces/inkscape"
   width="297mm"
   height="210mm"
   viewBox="0 0 297 210"
   version="1.1"
   id="svg11109"
   inkscape:version="0.92.3 (2405546, 2018-03-11)"
   sodipodi:docname="nematoda.svg">
  <defs
     id="defs11103" />
  <sodipodi:namedview
     id="base"
     pagecolor="#ffffff"
     bordercolor="#666666"
     borderopacity="1.0"
     inkscape:pageopacity="0.0"
     inkscape:pageshadow="2"
     inkscape:zoom="0.35"
     inkscape:cx="-51.428571"
     inkscape:cy="560"
     inkscape:document-units="mm"
     inkscape:current-layer="layer1"
     showgrid="false"
     inkscape:window-width="1865"
     inkscape:window-height="1025"
     inkscape:window-x="55"
     inkscape:window-y="27"
     inkscape:window-maximized="1" />
  <metadata
     id="metadata11106">
    <rdf:RDF>
      <cc:Work
         rdf:about="">
        <dc:format>image/svg+xml</dc:format>
        <dc:type
           rdf:resource="http://purl.org/dc/dcmitype/StillImage" />
        <dc:title></dc:title>
      </cc:Work>
    </rdf:RDF>
  </metadata>
  <g
     inkscape:label="Layer 1"
     inkscape:groupmode="layer"
     id="layer1"
     transform="translate(0,-87)">
    <path
       style="overflow:inherit;fill:#000000;fill-opacity:1;stroke:none;stroke-width:1.11124992;stroke-linejoin:round;stroke-miterlimit:10"
       d="m 44.725498,148.79982 c 4.02913,1.92163 9.11274,-0.0302 21.3496,-1.23543 12.23686,-1.20518 34.410752,-5.2767 49.919182,2.89215 18.69177,9.07354 27.39381,31.84319 48.12962,37.55651 9.75494,3.0077 21.23498,-0.19715 31.56279,0.0976 15.60881,0.19382 31.90095,3.9434 43.09496,15.4262 7.16084,7.18928 7.83161,18.68205 13.80776,25.68155 5.97614,6.9995 -0.10691,12.78312 -5.98032,6.81637 -10.34074,-7.95816 -13.07271,-23.83483 -26.65811,-27.98753 -13.22514,-4.76127 -27.84132,-6.27301 -41.9028,-4.29913 -18.83592,2.4147 -37.08625,-7.35271 -49.36402,-21.14016 -8.63908,-9.3669 -17.81311,-20.37197 -31.059212,-22.2994 -13.77565,-2.61319 -28.13571,1.09464 -41.70979,-2.81347 -4.60371,-1.8573 -9.7888,-5.41455 -12.02901,-6.67741 -2.24021,-1.26287 -3.18977,-3.93948 0.83935,-2.01785 z"
       id="path1447"
       inkscape:connector-curvature="0"
       sodipodi:nodetypes="zzcccczcccccczz" />
  </g>
</svg>
