<?xml version="1.0" encoding="UTF-8" standalone="no"?>
<!-- Created with Inkscape (http://www.inkscape.org/) -->

<svg
   xmlns:dc="http://purl.org/dc/elements/1.1/"
   xmlns:cc="http://creativecommons.org/ns#"
   xmlns:rdf="http://www.w3.org/1999/02/22-rdf-syntax-ns#"
   xmlns:svg="http://www.w3.org/2000/svg"
   xmlns="http://www.w3.org/2000/svg"
   xmlns:sodipodi="http://sodipodi.sourceforge.net/DTD/sodipodi-0.dtd"
   xmlns:inkscape="http://www.inkscape.org/namespaces/inkscape"
   version="1.1"
   width="297mm"
   height="210mm"
   viewBox="0 0 1122.5197 793.70079"
   id="Layer_1"
   xml:space="preserve"
   sodipodi:docname="generic (copy).svg"
   inkscape:version="0.92.3 (unknown)"><sodipodi:namedview
   pagecolor="#ffffff"
   bordercolor="#666666"
   borderopacity="1"
   objecttolerance="10"
   gridtolerance="10"
   guidetolerance="10"
   inkscape:pageopacity="0"
   inkscape:pageshadow="2"
   inkscape:window-width="2495"
   inkscape:window-height="1416"
   id="namedview32"
   showgrid="false"
   units="mm"
   inkscape:zoom="0.36625"
   inkscape:cx="-574.74403"
   inkscape:cy="300"
   inkscape:window-x="65"
   inkscape:window-y="24"
   inkscape:window-maximized="1"
   inkscape:current-layer="Layer_1" /><metadata
   id="metadata34"><rdf:RDF><cc:Work
       rdf:about=""><dc:format>image/svg+xml</dc:format><dc:type
         rdf:resource="http://purl.org/dc/dcmitype/StillImage" /><dc:title /></cc:Work></rdf:RDF></metadata><defs
   id="defs60" />
    
    
    
<path
   transform="matrix(1.000000,0.000000,0.000000,1.000000,-120.136530,-57.337888)"
   inkscape:connector-curvature="0"
   id="path838"
   d="m -1577.2165,654.12997 c 0.088,-78.63924 0.4642,-123.41464 0.9722,-115.75 2.217,33.44921 6.8742,52.09925 27.8101,111.36732 15.6637,44.34271 16.5026,48.07299 15.7638,70.09575 -0.3143,9.37031 -1.0199,18.83693 -1.568,21.03693 -1.4509,5.82414 -6.6766,9.90748 -16.9408,13.23754 -5.3042,1.72087 -9.549,3.79437 -11.2577,5.49925 -6.0574,6.04376 -4.1634,17.38745 3.4829,20.86003 l 4.0939,1.85926 -11.25,0.022 -11.25,0.022 z m 36.6097,127.18344 c 8.3903,-1.09077 28.273,-8.17253 34.0709,-12.13526 14.2687,-9.75233 22.5548,-22.89736 26.9339,-42.72791 2.2168,-10.03859 2.5665,-14.08551 2.6417,-30.57027 0.1009,-22.12374 -0.9335,-28.97418 -8.0173,-53.09372 -2.5694,-8.74846 -6.8571,-23.33128 -9.5283,-32.40628 -18.5423,-62.99641 -21.6299,-95.44427 -12.7592,-134.08921 3.2252,-14.05065 12.3756,-38.07879 17.9531,-47.14333 5.5561,-9.02982 21.6938,-28.17449 29.6257,-35.146 9.8,-8.61337 28.5087,-17.85459 54.8262,-27.08156 29.7242,-10.42136 40.0386,-11.07585 82,-5.20324 14.85,2.0783 33.075,4.86298 40.5,6.18817 22.3617,3.99107 35.4559,5.48872 57.5,6.57658 32.0753,1.5829 46.3842,0.40867 88,-7.22154 22.663,-4.15524 31.4734,-6.31918 54.8493,-13.47165 15.3171,-4.68668 30.2458,-9.58112 33.1749,-10.87652 16.7062,-7.38828 31.5554,-23.251 33.1928,-35.4583 0.4963,-3.70069 0.7997,-3.98872 6.1525,-5.84245 3.0968,-1.07242 9.90908,-3.16883 15.13845,-4.65869 10.25363,-2.92128 13.67303,-4.6403 34.72223,-17.45582 17.34992,-10.56326 30.09494,-20.76793 36.36468,-29.11644 6.61026,-8.80194 15.38271,-28.61852 19.21751,-43.41152 l 3.13371,-12.08848 -0.17671,-29.78733 c -0.15544,-26.20108 0.0585,-30.88801 1.77696,-38.92946 2.70951,-12.67905 2.71398,-35.074326 0.009,-46.283206 -5.13981,-21.30009 -10.72957,-31.36698 -31.05598,-55.93042 -13.18102,-15.928879 -13.77919,-16.496319 -27.49935,-26.087062 -14.8177,-10.357952 -25.61365,-15.607886 -39.96326,-19.433633 -12.86224,-3.42919 -18.31464,-6.096771 -36.03674,-17.630716 -15.5857,-10.143543 -20.9278,-14.61864 -23.3872,-19.591616 -2.3768,-4.806014 -5.5177,-7.009442 -19.6668,-13.797196 -11.6619,-5.594536 -19.5381,-7.029697 -25.6886,-4.680813 -5.7107,2.180952 -11.4871,7.933771 -12.7773,12.725289 -1.9666,7.303575 2.1325,18.06007 11.6181,30.486881 9.0068,11.79949 13.3979,15.037801 18.973,13.991905 2.9592,-0.555153 4.2682,0.07258 11.8052,5.661499 15.3613,11.390762 38.9699,25.595993 49.2896,29.657367 2.8413,1.118207 9.1088,2.98624 13.9278,4.151184 4.819,1.164941 10.59426,3.049501 12.83398,4.187901 8.62733,4.38509 20.58468,13.14109 26.20522,19.18929 17.69709,19.04362 23.97347,27.96693 27.96759,39.76232 2.40515,7.10286 2.82896,9.96708 2.86137,19.337816 0.0247,7.12709 -0.58926,13.71368 -1.74364,18.70752 -1.52637,6.603 -1.75281,11.98699 -1.58017,37.5707 0.11083,16.42474 -0.0773,30.31435 -0.41814,30.86579 -0.34081,0.55144 -1.28741,4.20524 -2.10357,8.11955 -0.81616,3.91431 -3.39205,11.45071 -5.72421,16.74756 -3.6717,8.33923 -5.12209,10.4392 -10.81626,15.66048 -3.61678,3.31642 -7.92597,6.72521 -9.57597,7.57509 -1.65,0.84989 -8.625,5.02737 -15.5,9.28329 -7.32423,4.53402 -14.9844,8.44994 -18.5,9.45732 -3.3,0.94559 -8.6903,2.56558 -11.9785,3.59997 l -5.9784,1.88072 -4.0216,-3.87942 c -8.7996,-8.48863 -17.5501,-10.38363 -35.5215,-7.69246 -8.2201,1.23093 -11.9114,2.33703 -17,5.09408 -17.3148,9.38125 -42.0458,20.99445 -56.2267,26.4029 -14.3438,5.47062 -17.3334,6.23323 -34,8.67318 -16.9541,2.48203 -19.1035,2.59332 -29.7733,1.5415 -40.8023,-4.02224 -82.8765,-6.40801 -114.5,-6.49259 l -33,-0.0883 -18,3.28862 c -34.3336,6.27277 -59.7266,14.0646 -81,24.85474 -18.1107,9.18599 -30.0706,16.13035 -37.4755,21.75966 -3.0385,2.30988 -9.0138,6.59054 -13.2785,9.51256 -12.0793,8.2764 -37.9511,37.48546 -47.6672,53.81606 -10.2361,17.20452 -22.8713,52.31499 -26.5375,73.74148 -0.8469,4.95 -2.212,17.1 -3.0335,27 -0.8215,9.9 -1.6461,19.8 -1.8326,22 -0.1864,2.2 -0.4146,-132.0125 -0.5071,-298.25 l -0.1681,-302.249996 h 340.5 340.5 v 430.999996 431 l -325.25,-0.1268 c -178.8875,-0.0697 -322.436,-0.49264 -318.9967,-0.93976 z"
   style="fill:#fefefe" /><path
   transform="matrix(1.000000,0.000000,0.000000,1.000000,-120.136530,-57.337888)"
   inkscape:connector-curvature="0"
   id="path836"
   d="m -1553.0964,781.66239 c 1.5201,-0.22986 3.7701,-0.22371 5,0.0136 1.23,0.23736 -0.014,0.42542 -2.7637,0.41792 -2.75,-0.008 -3.7563,-0.20172 -2.2363,-0.43157 z m 12.0053,-0.97541 c 0.973,-0.25354 2.323,-0.23687 3,0.0371 0.6771,0.27393 -0.119,0.48137 -1.769,0.46099 -1.65,-0.0204 -2.2039,-0.2445 -1.231,-0.49804 z m -25.0741,-11.80701 c 0.02,-1.65 0.2445,-2.20394 0.4981,-1.23097 0.2535,0.97297 0.2369,2.32297 -0.037,3 -0.2739,0.67703 -0.4813,-0.11903 -0.461,-1.76903 z m 88.963,-63.5 c 0,-1.375 0.227,-1.9375 0.5044,-1.25 0.2774,0.6875 0.2774,1.8125 0,2.5 -0.2774,0.6875 -0.5044,0.125 -0.5044,-1.25 z m -55.079,-0.58333 c 0.048,-1.16495 0.285,-1.4019 0.6042,-0.60417 0.2889,0.72187 0.2534,1.58438 -0.079,1.91667 -0.3323,0.33229 -0.5687,-0.25834 -0.5253,-1.3125 z m -44,-163 c 0.048,-1.16495 0.285,-1.4019 0.6042,-0.60417 0.2889,0.72187 0.2534,1.58438 -0.079,1.91667 -0.3323,0.33229 -0.5687,-0.25834 -0.5253,-1.3125 z m 64.116,-13.91667 c 0.02,-1.65 0.2445,-2.20394 0.4981,-1.23097 0.2535,0.97297 0.2369,2.32297 -0.037,3 -0.2739,0.67703 -0.4813,-0.11903 -0.461,-1.76903 z m -64.116,-16.08333 c 0.048,-1.16495 0.285,-1.4019 0.6042,-0.60417 0.2889,0.72187 0.2534,1.58438 -0.079,1.91667 -0.3323,0.33229 -0.5687,-0.25834 -0.5253,-1.3125 z m 64,-4 c 0.048,-1.16495 0.285,-1.4019 0.6042,-0.60417 0.2889,0.72187 0.2534,1.58438 -0.079,1.91667 -0.3323,0.33229 -0.5687,-0.25834 -0.5253,-1.3125 z m -62.921,-8.41667 c 0,-1.375 0.227,-1.9375 0.5044,-1.25 0.2774,0.6875 0.2774,1.8125 0,2.5 -0.2774,0.6875 -0.5044,0.125 -0.5044,-1.25 z m 0.921,-11.58333 c 0.048,-1.16495 0.285,-1.4019 0.6042,-0.60417 0.2889,0.72187 0.2534,1.58438 -0.079,1.91667 -0.3323,0.33229 -0.5687,-0.25834 -0.5253,-1.3125 z m 110.9211,-90.79423 c 0,-0.20765 0.7875,-0.99515 1.75,-1.75 1.5861,-1.24387 1.6214,-1.2085 0.3776,0.37756 -1.3064,1.66575 -2.1276,2.19548 -2.1276,1.37244 z m -75,-10 c 0,-0.20765 0.7875,-0.99515 1.75,-1.75 1.5861,-1.24387 1.6214,-1.2085 0.3776,0.37756 -1.3064,1.66575 -2.1276,2.19548 -2.1276,1.37244 z m 324.8125,-12.30555 c 0.7219,-0.28887 1.5844,-0.25335 1.9167,0.0789 0.3323,0.33229 -0.2584,0.56864 -1.3125,0.52522 -1.165,-0.048 -1.4019,-0.28494 -0.6042,-0.60416 z m 16.4565,-0.01 c 0.973,-0.25354 2.323,-0.23687 3,0.0371 0.6771,0.27393 -0.119,0.48137 -1.769,0.46099 -1.65,-0.0204 -2.2039,-0.2445 -1.231,-0.49804 z m 15.481,-0.96917 c 0.6875,-0.27741 1.8125,-0.27741 2.5,0 0.6875,0.27741 0.125,0.50439 -1.25,0.50439 -1.375,0 -1.9375,-0.22698 -1.25,-0.50439 z m -340.75,-5.83772 c 1.2917,-1.375 2.5736,-2.5 2.8486,-2.5 0.275,0 -0.5569,1.125 -1.8486,2.5 -1.2917,1.375 -2.5736,2.5 -2.8486,2.5 -0.275,0 0.5569,-1.125 1.8486,-2.5 z m 10.5,-11.5 c 0.9955,-1.1 2.035,-2 2.31,-2 0.275,0 -0.3145,0.9 -1.31,2 -0.9955,1.1 -2.035,2 -2.31,2 -0.275,0 0.3145,-0.9 1.31,-2 z m 146.25,1.33772 c 0.6875,-0.27741 1.8125,-0.27741 2.5,0 0.6875,0.27741 0.125,0.50439 -1.25,0.50439 -1.375,0 -1.9375,-0.22698 -1.25,-0.50439 z m 182.0625,-66.02083 c 0.7219,-0.28887 1.5844,-0.25335 1.9167,0.0789 0.3323,0.33229 -0.2584,0.56864 -1.3125,0.52522 -1.165,-0.048 -1.4019,-0.28494 -0.6042,-0.60416 z m -25,-1 c 0.7219,-0.28887 1.5844,-0.25335 1.9167,0.0789 0.3323,0.33229 -0.2584,0.56864 -1.3125,0.52522 -1.165,-0.048 -1.4019,-0.28494 -0.6042,-0.60416 z m -12,-1 c 0.7219,-0.28887 1.5844,-0.25335 1.9167,0.0789 0.3323,0.33229 -0.2584,0.56864 -1.3125,0.52522 -1.165,-0.048 -1.4019,-0.28494 -0.6042,-0.60416 z m -14,-1 c 0.7219,-0.28887 1.5844,-0.25335 1.9167,0.0789 0.3323,0.33229 -0.2584,0.56864 -1.3125,0.52522 -1.165,-0.048 -1.4019,-0.28494 -0.6042,-0.60416 z m -42,-3 c 0.7219,-0.28887 1.5844,-0.25335 1.9167,0.0789 0.3323,0.33229 -0.2584,0.56864 -1.3125,0.52522 -1.165,-0.048 -1.4019,-0.28494 -0.6042,-0.60416 z m -61.0508,-1.02415 c 1.2439,-0.23919 3.0439,-0.23011 4,0.0202 0.956,0.25029 -0.062,0.446 -2.2617,0.4349 -2.2,-0.0111 -2.9823,-0.21589 -1.7383,-0.45508 z m 40.0508,0.0242 c 0.7219,-0.28887 1.5844,-0.25335 1.9167,0.0789 0.3323,0.33229 -0.2584,0.56864 -1.3125,0.52522 -1.165,-0.048 -1.4019,-0.28494 -0.6042,-0.60416 z m 368.1875,-27.81694 c 1.29175,-1.375 2.57363,-2.5 2.84863,-2.5 0.275,0 -0.55688,1.125 -1.84863,2.5 -1.29175,1.375 -2.57363,2.5 -2.84863,2.5 -0.275,0 0.55688,-1.125 1.84863,-2.5 z m -126.25,-8.16228 c 0.6875,-0.27741 1.8125,-0.27741 2.5,0 0.6875,0.27741 0.125,0.50439 -1.25,0.50439 -1.375,0 -1.9375,-0.22698 -1.25,-0.50439 z m 95.75,-21.33772 c 0.99549,-1.1 2.03498,-2 2.30998,-2 0.275,0 -0.31449,0.9 -1.30998,2 -0.99549,1.1 -2.03498,2 -2.30998,2 -0.275,0 0.31449,-0.9 1.30998,-2 z m -1.09501,-173.249996 -1.90499,-2.25 2.25,1.90499 c 1.2375,1.04774 2.25,2.06024 2.25,2.25 0,0.80025 -0.80479,0.20945 -2.59501,-1.90499 z m -11.40499,-13.25 c -2.42903,-2.475 -4.19142,-4.5 -3.91642,-4.5 0.275,0 2.48739,2.025 4.91642,4.5 2.42903,2.475 4.19142,4.5 3.91642,4.5 -0.275,0 -2.48739,-2.025 -4.91642,-4.5 z m 41.87244,-16.25 c -1.24387,-1.58606 -1.2085,-1.62143 0.37756,-0.37756 0.9625,0.75485 1.75,1.54235 1.75,1.75 0,0.82304 -0.82119,0.29331 -2.12756,-1.37244 z m -12.41003,-14.5 -4.96241,-5.25 5.25,4.962408 c 4.87839,4.611158 5.7086,5.537592 4.96241,5.537592 -0.15818,0 -2.52068,-2.3625 -5.25,-5.25 z m -153.02531,-35 -2.9371,-3.25 3.25,2.937091 c 1.7875,1.6154 3.25,3.0779 3.25,3.25 0,0.772561 -0.8251,0.09236 -3.5629,-2.937091 z m 40.4353,-29.5 c -1.2438,-1.586056 -1.2085,-1.621426 0.3776,-0.377555 0.9625,0.754844 1.75,1.542344 1.75,1.75 0,0.823034 -0.8212,0.293303 -2.1276,-1.372445 z m -60.7145,-6.25 c 0,-1.375 0.227,-1.9375 0.5044,-1.25 0.2774,0.6875 0.2774,1.8125 0,2.5 -0.2774,0.6875 -0.5044,0.125 -0.5044,-1.25 z m 16.6546,-17.683114 c 0.7219,-0.288871 1.5844,-0.253344 1.9167,0.07895 0.3323,0.332292 -0.2584,0.56864 -1.3125,0.525219 -1.165,-0.04798 -1.4019,-0.28494 -0.6042,-0.604166 z"
   style="fill:#d0d0d0" /><path
   transform="matrix(1.000000,0.000000,0.000000,1.000000,-120.136530,-57.337888)"
   inkscape:connector-curvature="0"
   id="path834"
   d="m -1496.8601,760.37997 c 0.9955,-1.1 2.035,-2 2.31,-2 0.275,0 -0.3145,0.9 -1.31,2 -0.9955,1.1 -2.035,2 -2.31,2 -0.275,0 0.3145,-0.9 1.31,-2 z m -35.13,-44 c 0,-5.775 0.1652,-8.1375 0.3672,-5.25 0.202,2.8875 0.202,7.6125 0,10.5 -0.202,2.8875 -0.3672,0.525 -0.3672,-5.25 z m 19.7089,-184.58333 c 0.048,-1.16495 0.285,-1.4019 0.6042,-0.60417 0.2889,0.72187 0.2534,1.58438 -0.079,1.91667 -0.3323,0.33229 -0.5687,-0.25834 -0.5253,-1.3125 z m 311.7336,-157.09978 c 0.7219,-0.28887 1.5844,-0.25335 1.9167,0.0789 0.3323,0.33229 -0.2584,0.56864 -1.3125,0.52522 -1.165,-0.048 -1.4019,-0.28494 -0.6042,-0.60416 z m 16,-1 c 0.7219,-0.28887 1.5844,-0.25335 1.9167,0.0789 0.3323,0.33229 -0.2584,0.56864 -1.3125,0.52522 -1.165,-0.048 -1.4019,-0.28494 -0.6042,-0.60416 z m -322.8125,-21.81689 c 1.2917,-1.375 2.5736,-2.5 2.8486,-2.5 0.275,0 -0.5569,1.125 -1.8486,2.5 -1.2917,1.375 -2.5736,2.5 -2.8486,2.5 -0.275,0 0.5569,-1.125 1.8486,-2.5 z m 176.7617,-67.20726 c 1.2439,-0.23919 3.0439,-0.23011 4,0.0202 0.956,0.25029 -0.062,0.446 -2.2617,0.4349 -2.2,-0.0111 -2.9823,-0.21589 -1.7383,-0.45508 z m 280,-36 c 1.2439,-0.23919 3.0439,-0.23011 4,0.0202 0.956,0.25029 -0.062,0.446 -2.2617,0.4349 -2.2,-0.0111 -2.9823,-0.21589 -1.7383,-0.45508 z m -37.0117,-268.955017 c 0.6875,-0.277412 1.8125,-0.277412 2.5,0 0.6875,0.277413 0.125,0.504386 -1.25,0.504386 -1.375,0 -1.9375,-0.226973 -1.25,-0.504386 z"
   style="fill:#afafaf" /><path
   transform="matrix(1.000000,0.000000,0.000000,1.000000,-120.136530,-57.337888)"
   inkscape:connector-curvature="0"
   id="path832"
   d="m -1513.2022,516.37997 c 0,-1.375 0.227,-1.9375 0.5044,-1.25 0.2774,0.6875 0.2774,1.8125 0,2.5 -0.2774,0.6875 -0.5044,0.125 -0.5044,-1.25 z m 305.5921,-141.70573 c 1.2375,-0.23836 3.2625,-0.23836 4.5,0 1.2375,0.23835 0.225,0.43337 -2.25,0.43337 -2.475,0 -3.4875,-0.19502 -2.25,-0.43337 z m -116.5,-89.9836 c 0.9625,-0.25152 2.5375,-0.25152 3.5,0 0.9625,0.25153 0.175,0.45733 -1.75,0.45733 -1.925,0 -2.7125,-0.2058 -1.75,-0.45733 z m 223.6224,-315.060666 c -1.2438,-1.586056 -1.2085,-1.621426 0.3776,-0.377555 1.6657,1.306369 2.1955,2.127555 1.3724,2.127555 -0.2076,0 -0.9951,-0.7875 -1.75,-1.75 z m 40,-32 c -1.2438,-1.586056 -1.2085,-1.621426 0.3776,-0.377555 0.9625,0.754844 1.75,1.542344 1.75,1.75 0,0.823034 -0.8212,0.293303 -2.1276,-1.372445 z"
   style="fill:#8f8f8f" /><path
   transform="matrix(1.000000,0.000000,0.000000,1.000000,-120.136530,-57.337888)"
   inkscape:connector-curvature="0"
   id="path830"
   d="m -1563.3601,761.00241 c 0,-0.20765 0.7875,-0.99515 1.75,-1.75 1.5861,-1.24387 1.6214,-1.2085 0.3776,0.37756 -1.3064,1.66575 -2.1276,2.19548 -2.1276,1.37244 z m 535.5,-433.62244 c 0.9955,-1.1 2.035,-2 2.31,-2 0.275,0 -0.3145,0.9 -1.31,2 -0.9955,1.1 -2.035,2 -2.31,2 -0.275,0 0.3145,-0.9 1.31,-2 z m -290.25,-42.68933 c 0.9625,-0.25152 2.5375,-0.25152 3.5,0 0.9625,0.25153 0.175,0.45733 -1.75,0.45733 -1.925,0 -2.7125,-0.2058 -1.75,-0.45733 z m 13.5625,0.006 c 0.7219,-0.28887 1.5844,-0.25335 1.9167,0.0789 0.3323,0.33229 -0.2584,0.56864 -1.3125,0.52522 -1.165,-0.048 -1.4019,-0.28494 -0.6042,-0.60416 z"
   style="fill:#6f6f6f" /><path
   transform="matrix(1.000000,0.000000,0.000000,1.000000,-120.136530,-57.337888)"
   inkscape:connector-curvature="0"
   id="path828"
   d="m -1477.2812,695.79664 c 0.048,-1.16495 0.285,-1.4019 0.6042,-0.60417 0.2889,0.72187 0.2534,1.58438 -0.079,1.91667 -0.3323,0.33229 -0.5686,-0.25834 -0.5252,-1.3125 z m 247.7336,-322.09978 c 0.7219,-0.28887 1.5844,-0.25335 1.9167,0.0789 0.3323,0.33229 -0.2584,0.56864 -1.3125,0.52522 -1.165,-0.048 -1.4019,-0.28494 -0.6042,-0.60416 z m -56,-88 c 0.7219,-0.28887 1.5844,-0.25335 1.9167,0.0789 0.3323,0.33229 -0.2584,0.56864 -1.3125,0.52522 -1.165,-0.048 -1.4019,-0.28494 -0.6042,-0.60416 z m -26.0625,-1.02262 c 1.2375,-0.23836 3.2625,-0.23836 4.5,0 1.2375,0.23835 0.225,0.43337 -2.25,0.43337 -2.475,0 -3.4875,-0.19502 -2.25,-0.43337 z m 379.25,-25.60718 c 0,-0.1721 1.4625,-1.6346 3.25,-3.25 l 3.25,-2.93709 -2.93709,3.25 c -2.73778,3.02946 -3.56291,3.70965 -3.56291,2.93709 z m 30.07895,-68.27042 c 0.048,-1.16495 0.28494,-1.4019 0.60416,-0.60417 0.28887,0.72187 0.25335,1.58438 -0.0789,1.91667 -0.33229,0.33229 -0.56864,-0.25834 -0.52522,-1.3125 z m -41,-6 c 0.048,-1.16495 0.28494,-1.4019 0.60416,-0.60417 0.28887,0.72187 0.25335,1.58438 -0.0789,1.91667 -0.33229,0.33229 -0.56864,-0.25834 -0.52522,-1.3125 z m 42,-7 c 0.048,-1.16495 0.28494,-1.4019 0.60416,-0.60417 0.28887,0.72187 0.25335,1.58438 -0.0789,1.91667 -0.33229,0.33229 -0.56864,-0.25834 -0.52522,-1.3125 z m 0.0789,-9.41667 c 0,-1.375 0.22698,-1.9375 0.50439,-1.25 0.27741,0.6875 0.27741,1.8125 0,2.5 -0.27741,0.6875 -0.50439,0.125 -0.50439,-1.25 z m -42.07894,-6.58333 c 0.048,-1.16495 0.28494,-1.4019 0.60416,-0.60417 0.28887,0.72187 0.25335,1.58437 -0.0789,1.91667 -0.33229,0.33229 -0.56864,-0.25834 -0.52522,-1.3125 z m 0,-30 c 0.048,-1.16495 0.28494,-1.4019 0.60416,-0.60417 0.28887,0.72187 0.25335,1.58437 -0.0789,1.91667 -0.33229,0.33229 -0.56864,-0.25834 -0.52522,-1.3125 z m 45.07894,-19.41667 c 0,-1.375 0.22698,-1.9375 0.50439,-1.25 0.27741,0.6875 0.27741,1.8125 0,2.5 -0.27741,0.6875 -0.50439,0.125 -0.50439,-1.25 z m -0.0789,-18.583326 c 0.048,-1.16495 0.28494,-1.4019 0.60416,-0.60417 0.28887,0.72187 0.25335,1.58437 -0.0789,1.91667 -0.33229,0.33229 -0.56864,-0.25834 -0.52522,-1.3125 z m -75.20655,-55.16667 c -1.24387,-1.58606 -1.2085,-1.62143 0.37756,-0.37756 1.66575,1.30637 2.19548,2.12756 1.37244,2.12756 -0.20765,0 -0.99515,-0.7875 -1.75,-1.75 z m 34,-24 c -1.24387,-1.586056 -1.2085,-1.621426 0.37756,-0.377555 1.66575,1.306369 2.19548,2.127555 1.37244,2.127555 -0.20765,0 -0.99515,-0.7875 -1.75,-1.75 z m -155.4674,-39.5 -1.905,-2.25 2.25,1.904988 c 1.2375,1.047743 2.25,2.060243 2.25,2.25 0,0.800253 -0.8048,0.209457 -2.595,-1.904988 z"
   style="fill:#4e4e4e" /><path
   transform="matrix(1.000000,0.000000,0.000000,1.000000,-120.136530,-57.337888)"
   inkscape:connector-curvature="0"
   id="path826"
   d="m -1547.5476,780.69686 c 0.7219,-0.28887 1.5844,-0.25335 1.9167,0.0789 0.3323,0.33229 -0.2584,0.56864 -1.3125,0.52522 -1.165,-0.048 -1.4019,-0.28494 -0.6042,-0.60416 z m 9,-1 c 0.7219,-0.28887 1.5844,-0.25335 1.9167,0.0789 0.3323,0.33229 -0.2584,0.56864 -1.3125,0.52522 -1.165,-0.048 -1.4019,-0.28494 -0.6042,-0.60416 z m -26.6176,-10.81689 c 0.02,-1.65 0.2445,-2.20394 0.4981,-1.23097 0.2535,0.97297 0.2369,2.32297 -0.037,3 -0.2739,0.67703 -0.4813,-0.11903 -0.461,-1.76903 z m 88.0775,-78.5 c 0,-2.475 0.195,-3.4875 0.4333,-2.25 0.2384,1.2375 0.2384,3.2625 0,4.5 -0.2383,1.2375 -0.4333,0.225 -0.4333,-2.25 z m -99.1935,-158.58333 c 0.048,-1.16495 0.285,-1.4019 0.6042,-0.60417 0.2889,0.72187 0.2534,1.58438 -0.079,1.91667 -0.3323,0.33229 -0.5687,-0.25834 -0.5253,-1.3125 z m 63,-8 c 0.048,-1.16495 0.285,-1.4019 0.6042,-0.60417 0.2889,0.72187 0.2534,1.58438 -0.079,1.91667 -0.3323,0.33229 -0.5687,-0.25834 -0.5253,-1.3125 z m -63,-3 c 0.048,-1.16495 0.285,-1.4019 0.6042,-0.60417 0.2889,0.72187 0.2534,1.58438 -0.079,1.91667 -0.3323,0.33229 -0.5687,-0.25834 -0.5253,-1.3125 z m 112.9211,-124.79423 c 0,-0.20765 0.7875,-0.99515 1.75,-1.75 1.5861,-1.24387 1.6214,-1.2085 0.3776,0.37756 -1.3064,1.66575 -2.1276,2.19548 -2.1276,1.37244 z m 237.7617,-22.3297 c 1.2439,-0.23919 3.0439,-0.23011 4,0.0202 0.956,0.25029 -0.062,0.446 -2.2617,0.4349 -2.2,-0.0111 -2.9823,-0.21589 -1.7383,-0.45508 z m 48.0508,-0.97585 c 0.7219,-0.28887 1.5844,-0.25335 1.9167,0.0789 0.3323,0.33229 -0.2584,0.56864 -1.3125,0.52522 -1.165,-0.048 -1.4019,-0.28494 -0.6042,-0.60416 z m -344.8125,-3.69445 c 0,-0.20765 0.7875,-0.99515 1.75,-1.75 1.5861,-1.24387 1.6214,-1.2085 0.3776,0.37756 -1.3064,1.66575 -2.1276,2.19548 -2.1276,1.37244 z m 226.8125,-4.30555 c 0.7219,-0.28887 1.5844,-0.25335 1.9167,0.0789 0.3323,0.33229 -0.2584,0.56864 -1.3125,0.52522 -1.165,-0.048 -1.4019,-0.28494 -0.6042,-0.60416 z m -215.8125,-7.69445 c 0,-0.20765 0.7875,-0.99515 1.75,-1.75 1.5861,-1.24387 1.6214,-1.2085 0.3776,0.37756 -1.3064,1.66575 -2.1276,2.19548 -2.1276,1.37244 z m 294.8125,-66.30555 c 0.7219,-0.28887 1.5844,-0.25335 1.9167,0.0789 0.3323,0.33229 -0.2584,0.56864 -1.3125,0.52522 -1.165,-0.048 -1.4019,-0.28494 -0.6042,-0.60416 z m -14,-1 c 0.7219,-0.28887 1.5844,-0.25335 1.9167,0.0789 0.3323,0.33229 -0.2584,0.56864 -1.3125,0.52522 -1.165,-0.048 -1.4019,-0.28494 -0.6042,-0.60416 z m -13,-1 c 0.7219,-0.28887 1.5844,-0.25335 1.9167,0.0789 0.3323,0.33229 -0.2584,0.56864 -1.3125,0.52522 -1.165,-0.048 -1.4019,-0.28494 -0.6042,-0.60416 z m -14,-1 c 0.7219,-0.28887 1.5844,-0.25335 1.9167,0.0789 0.3323,0.33229 -0.2584,0.56864 -1.3125,0.52522 -1.165,-0.048 -1.4019,-0.28494 -0.6042,-0.60416 z m -14.0625,-0.97917 c 0.6875,-0.27741 1.8125,-0.27741 2.5,0 0.6875,0.27741 0.125,0.50439 -1.25,0.50439 -1.375,0 -1.9375,-0.22698 -1.25,-0.50439 z m -18.481,-1.03071 c 0.973,-0.25354 2.323,-0.23687 3,0.0371 0.6771,0.27393 -0.119,0.48137 -1.769,0.46099 -1.65,-0.0204 -2.2039,-0.2445 -1.231,-0.49804 z m 330.731,-57.80701 c 1.29175,-1.375 2.57363,-2.5 2.84863,-2.5 0.275,0 -0.55688,1.125 -1.84863,2.5 -1.29175,1.375 -2.57363,2.5 -2.84863,2.5 -0.275,0 0.55688,-1.125 1.84863,-2.5 z m 57.15789,-40.5 c 0,-1.375 0.22698,-1.9375 0.50439,-1.25 0.27741,0.6875 0.27741,1.8125 0,2.5 -0.27741,0.6875 -0.50439,0.125 -0.50439,-1.25 z m -39.88553,-14 c 0,-2.475 0.19502,-3.4875 0.43337,-2.25 0.23836,1.2375 0.23836,3.2625 0,4.5 -0.23835,1.2375 -0.43337,0.225 -0.43337,-2.25 z m 40.95964,0 c 0,-1.925 0.2058,-2.7125 0.45733,-1.75 0.25152,0.9625 0.25152,2.5375 0,3.5 -0.25153,0.9625 -0.45733,0.175 -0.45733,-1.75 z m -0.83461,-26 c 0,-7.975 0.1553,-11.2375 0.34512,-7.25 0.18981,3.9875 0.18981,10.5125 0,14.5 -0.18982,3.9875 -0.34512,0.725 -0.34512,-7.25 z m -41.00283,-0.5 c 0.002,-7.7 0.15853,-10.71781 0.34883,-6.70625 0.1903,4.01156 0.18902,10.31156 -0.003,14 -0.19169,3.68844 -0.34739,0.40625 -0.34583,-7.29375 z m 3.9604,-44 c -0.003,-4.949996 0.16605,-7.101076 0.37577,-4.780166 0.20972,2.320896 0.21222,6.370896 0.006,8.999996 -0.20667,2.62909 -0.37827,0.73017 -0.38131,-4.21983 z m 40.98785,0 c 0.004,-4.399996 0.17944,-6.075606 0.39069,-3.723566 0.21124,2.352036 0.20827,5.952036 -0.007,7.999996 -0.21487,2.04796 -0.38771,0.12357 -0.38408,-4.27643 z m -61.47037,-48.249996 c -1.24387,-1.58606 -1.2085,-1.62143 0.37756,-0.37756 0.9625,0.75485 1.75,1.54235 1.75,1.75 0,0.82304 -0.82119,0.29331 -2.12756,-1.37244 z m -10.46745,-12.5 -1.90499,-2.25 2.25,1.90499 c 1.2375,1.04774 2.25,2.06024 2.25,2.25 0,0.80025 -0.80479,0.20945 -2.59501,-1.90499 z m 25.54118,-32.5 -3.44617,-3.75 3.75,3.446167 c 3.49042,3.207617 4.20979,4.053833 3.44617,4.053833 -0.16711,0 -1.85461,-1.6875 -3.75,-3.75 z m -143.19617,-30.912281 c 0.6875,-0.277412 1.8125,-0.277412 2.5,0 0.6875,0.277413 0.125,0.504386 -1.25,0.504386 -1.375,0 -1.9375,-0.226973 -1.25,-0.504386 z m -14.345,-11.587719 -1.905,-2.25 2.25,1.904988 c 1.2375,1.047743 2.25,2.060243 2.25,2.25 0,0.800253 -0.8048,0.209457 -2.595,-1.904988 z m 41,-29 -1.905,-2.25 2.25,1.904988 c 2.1144,1.790218 2.7052,2.595012 1.905,2.595012 -0.1898,0 -1.2023,-1.0125 -2.25,-2.25 z m -28.5925,-14.433114 c 0.7219,-0.288871 1.5844,-0.253344 1.9167,0.07895 0.3323,0.332292 -0.2584,0.56864 -1.3125,0.525219 -1.165,-0.04798 -1.4019,-0.28494 -0.6042,-0.604166 z"
   style="fill:#2f2f2f" /><path
   inkscape:connector-curvature="0"
   id="path824"
   d="m 141.59986,728.44253 c -4.526,-2.78869 -5.9113,-7.59768 -3.9188,-13.60424 2.2363,-6.75197 5.2088,-8.29188 16.3729,-8.49594 10.17813,-0.18605 16.76706,-1.81124 19.56948,-4.82679 3.04677,-3.27856 7.80014,-13.83279 12.37962,-27.48758 5.69168,-16.97072 6.16643,-23.34749 5.30814,-71.29686 -1.34049,-74.89241 2.30034,-99.89089 20.86191,-143.24071 4.9966,-11.6693 10.9647,-24.62253 13.26243,-28.78496 10.79229,-19.55086 32.61202,-47.2154 47.57879,-60.32357 11.42123,-10.00299 45.8932,-30.88809 57.35452,-34.74869 24.01298,-8.08846 38.34151,-11.54537 61.93106,-14.94161 25.89776,-3.72855 52.06983,-3.10485 87.46237,2.08422 15.31932,2.24604 16.73395,2.63318 48.01496,13.14007 26.03406,8.74451 38.3566,13.42336 64.09462,24.33666 44.39983,18.82617 55.62823,22.91236 70.63003,25.70334 6.75089,1.25597 14.12178,2.43249 16.37983,2.6145 10.73967,0.86571 40.71457,-1.40875 63.2726,-4.80104 23.86785,-3.58931 25.42872,-3.68059 34.93232,-2.04358 16.9273,2.91577 25.12075,7.81114 30.26208,18.08092 l 2.62377,5.24103 7.01077,0.17193 c 3.8559,0.0946 9.57236,0.31272 12.70319,0.4848 6.0944,0.33498 36.11853,-6.20572 47.89665,-10.43419 7.7345,-2.77676 10.19477,-4.6241 18.70976,-14.04854 11.33178,-12.5421 14.61106,-19.1836 24.61461,-49.85188 7.91898,-24.27756 9.329,-27.8871 14.20908,-36.3743 10.60156,-18.43774 12.83679,-36.93645 6.69055,-55.37092 -5.902,-17.70199 -12.38705,-31.56767 -18.74758,-40.08426 -8.65966,-11.59505 -12.837,-15.59486 -23.25034,-22.26221 -4.77799,-3.05919 -10.38893,-7.10892 -12.46899,-8.99949 -8.67965,-7.88909 -27.47221,-30.31385 -36.76549,-43.87154 -4.95423,-7.22761 -5.61669,-7.82724 -9.60843,-8.69744 -4.18453,-0.91224 -4.37523,-1.12145 -7.94696,-8.72141 -6.34509,-13.500897 -9.40087,-28.896437 -7.14009,-35.972687 1.82711,-5.71858 5.52629,-9.19107 11.50099,-10.79596 4.3046,-1.15626 5.61506,-1.01348 12.43054,1.35417 7.3736,2.56155 7.92723,2.95774 17.22032,12.32376 9.05933,9.13037 13.16496,15.33626 12.15464,18.3723 -0.55023,1.65348 3.81737,8.423507 13.21031,20.476627 13.86395,17.79035 20.72979,24.72493 31.55187,31.86777 5.46557,3.6074 12.49863,8.99908 15.62903,11.98152 7.36463,7.01654 20.76973,24.35035 25.25613,32.65809 3.58841,6.64488 12.23707,27.96789 16.09236,39.67521 4.27354,12.9774 5.73303,27.9911 4.22157,43.42709 -1.0348,10.56816 -8.39848,32.10078 -14.4751,42.32764 -4.17255,7.02236 -5.75169,11.13361 -13.80207,35.93345 l -9.09044,28.00384 -6.39317,9.99255 c -3.51623,5.49591 -9.69372,13.78186 -13.72773,18.41323 -17.21858,19.7683 -27.87671,25.56324 -61.82584,33.61535 -22.69253,5.38226 -29.52282,6.28848 -41.54748,5.51237 -5.59114,-0.36086 -12.31103,-0.4761 -14.93303,-0.25608 -4.00315,0.33588 -4.90848,0.82366 -5.64769,3.04278 -1.28447,3.85672 -9.27309,11.73936 -15.58963,15.38307 -3.01605,1.73985 -10.07116,4.42453 -15.67801,5.96598 -10.83016,2.97741 -16.55112,3.16708 -58.04764,1.92452 -23.57891,-0.70604 -70.14163,-7.14602 -92.2927,-12.76478 -27.53956,-6.98556 -59.45235,-20.01927 -90.92596,-37.13566 -6.62617,-3.60352 -23.39619,-12.07888 -37.2668,-18.83415 -22.51004,-10.96286 -26.63558,-12.68484 -38.40336,-16.02933 -7.25124,-2.06086 -15.96104,-3.97305 -19.35513,-4.24934 -11.33558,-0.92265 -39.8312,0.16858 -55.50975,2.12574 -19.07222,2.38078 -29.64599,6.51327 -49.23969,19.24403 -25.4217,16.51743 -44.72835,39.93397 -59.15426,71.74651 -12.43322,27.41842 -17.41446,55.94132 -19.3081,110.55942 -0.33773,9.74173 -0.89078,25.5256 -1.2289,35.07531 -0.82451,23.2821 -3.46225,37.55796 -10.32746,55.89463 -6.8099,18.1888 -14.69069,31.44717 -24.0058,40.38641 -11.88213,11.40261 -23.8097,15.89059 -42.39634,15.95231 -10.01927,0.0333 -27.05934,-2.0233 -29.86354,-3.60425 -0.2568,-0.1448 -1.837,-1.10743 -3.5115,-2.13916 z"
   style="fill:#000000" /></svg>