<?xml version="1.0" encoding="UTF-8" standalone="no"?>
<!-- Created with Inkscape (http://www.inkscape.org/) -->

<svg
   xmlns:dc="http://purl.org/dc/elements/1.1/"
   xmlns:cc="http://creativecommons.org/ns#"
   xmlns:rdf="http://www.w3.org/1999/02/22-rdf-syntax-ns#"
   xmlns:svg="http://www.w3.org/2000/svg"
   xmlns="http://www.w3.org/2000/svg"
   xmlns:sodipodi="http://sodipodi.sourceforge.net/DTD/sodipodi-0.dtd"
   xmlns:inkscape="http://www.inkscape.org/namespaces/inkscape"
   version="1.1"
   width="297mm"
   height="210mm"
   viewBox="0 0 1122.5197 793.70079"
   id="Layer_1"
   xml:space="preserve"
   sodipodi:docname="oerthonectida.svg"
   inkscape:version="0.92.3 (unknown)"><metadata
   id="metadata34"><rdf:RDF><cc:Work
       rdf:about=""><dc:format>image/svg+xml</dc:format><dc:type
         rdf:resource="http://purl.org/dc/dcmitype/StillImage" /><dc:title /></cc:Work></rdf:RDF></metadata><sodipodi:namedview
   pagecolor="#ffffff"
   bordercolor="#666666"
   borderopacity="1"
   objecttolerance="10"
   gridtolerance="10"
   guidetolerance="10"
   inkscape:pageopacity="0"
   inkscape:pageshadow="2"
   inkscape:window-width="2495"
   inkscape:window-height="1416"
   id="namedview32"
   showgrid="false"
   units="mm"
   inkscape:zoom="0.183125"
   inkscape:cx="124.70034"
   inkscape:cy="1136.2435"
   inkscape:window-x="65"
   inkscape:window-y="24"
   inkscape:window-maximized="1"
   inkscape:current-layer="Layer_1" /><defs
   id="defs60" />
    
    
    
<path
   style="fill:#000000;fill-opacity:1;fill-rule:evenodd;stroke:#000000;stroke-width:1px;stroke-linecap:butt;stroke-linejoin:miter;stroke-opacity:1"
   d="m 741.33584,190.37781 -15.26309,7.63899 -6.31476,9.34732 c -7.1946,10.64968 -19.70447,-18.7112 -45.91766,-17.49103 -26.2132,1.22016 -67.56853,30.71901 -97.56232,47.92012 -29.99379,17.20112 -54.7591,34.24896 -82.35122,54.51275 -27.59211,20.26379 -55.30298,44.22799 -82.78783,67.23444 -27.48485,23.00645 -58.55471,47.89642 -82.0872,70.80888 -23.53248,22.91246 -45.89092,48.66196 -59.67669,65.54508 -13.78577,16.88311 -16.59963,17.82226 -24.83737,33.9932 -8.23774,16.17094 -17.39427,57.01586 -20.50147,63.58788 -3.10722,6.57201 -7.09857,24.53314 -7.78833,35.013 -0.68977,10.47986 -6.27649,16.27454 2.36595,27.01944 8.64244,10.74489 33.61136,14.56384 52.96474,16.06949 19.35339,1.50566 40.44688,-4.69641 60.60075,-8.50861 20.15387,-3.8122 40.39481,-7.78642 60.18442,-14.36986 19.78961,-6.58345 38.81882,-14.21261 58.08248,-25.09318 19.26367,-10.88057 35.28384,-23.84604 56.54919,-40.39012 21.26534,-16.54407 47.97869,-40.51708 70.37931,-59.52931 22.40062,-19.01222 39.88247,-33.81953 64.03288,-54.53334 24.15042,-20.71381 57.30387,-49.59356 80.81791,-69.80968 23.51405,-20.21614 59.477,-29.74132 60.22503,-51.53576 l 0.45409,-53.51627 12.49639,-5.67621 9.67324,-12.25505 c 5.99221,-7.59154 12.21372,8.46469 28.3203,2.46193 16.10657,-6.00277 40.3045,-35.67858 52.47731,-53.68867 12.17281,-18.01008 20.50079,-35.62302 22.3191,-50.57775 1.8183,-14.95473 -1.70126,-26.43949 -6.0215,-34.45674 -4.32026,-8.01725 -2.1382,-8.10466 -14.35816,-13.45305 -12.21995,-5.3484 -42.595,-5.2077 -60.16412,-4.21308 -17.56912,0.99461 -24.01316,-2.97913 -44.53667,8.24078 -20.52352,11.2199 -32.82305,17.84133 -41.8864,32.9734 z"
   id="path822"
   inkscape:connector-curvature="0"
   sodipodi:nodetypes="ccszzzzzzzzzzzzzzzzzzsccszzzzzzzcc" /></svg>