<?xml version="1.0" encoding="UTF-8" standalone="no"?>
<!-- Created with Inkscape (http://www.inkscape.org/) -->

<svg
   xmlns:dc="http://purl.org/dc/elements/1.1/"
   xmlns:cc="http://creativecommons.org/ns#"
   xmlns:rdf="http://www.w3.org/1999/02/22-rdf-syntax-ns#"
   xmlns:svg="http://www.w3.org/2000/svg"
   xmlns="http://www.w3.org/2000/svg"
   xmlns:sodipodi="http://sodipodi.sourceforge.net/DTD/sodipodi-0.dtd"
   xmlns:inkscape="http://www.inkscape.org/namespaces/inkscape"
   version="1.1"
   width="297mm"
   height="210mm"
   viewBox="0 0 1122.5197 793.70079"
   id="Layer_1"
   xml:space="preserve"
   sodipodi:docname="orthonectida.svg"
   inkscape:version="0.92.3 (unknown)"><sodipodi:namedview
   pagecolor="#ffffff"
   bordercolor="#666666"
   borderopacity="1"
   objecttolerance="10"
   gridtolerance="10"
   guidetolerance="10"
   inkscape:pageopacity="0"
   inkscape:pageshadow="2"
   inkscape:window-width="2495"
   inkscape:window-height="1416"
   id="namedview32"
   showgrid="false"
   units="mm"
   inkscape:zoom="0.36625"
   inkscape:cx="-574.74403"
   inkscape:cy="300"
   inkscape:window-x="65"
   inkscape:window-y="24"
   inkscape:window-maximized="1"
   inkscape:current-layer="Layer_1" /><metadata
   id="metadata34"><rdf:RDF><cc:Work
       rdf:about=""><dc:format>image/svg+xml</dc:format><dc:type
         rdf:resource="http://purl.org/dc/dcmitype/StillImage" /><dc:title /></cc:Work></rdf:RDF></metadata><defs
   id="defs60" />
    
    
    
<path
   inkscape:connector-curvature="0"
   id="path824"
   d="m 684.9106,572.12771 c -1.99778,-10.01526 -3.04804,-11.40883 -5.87789,-7.79917 -1.80057,2.29675 -1.73476,2.3222 0.88228,0.34109 1.5554,-1.17744 0.27091,0.85406 -2.85441,4.51445 -5.56573,6.51859 -8.45471,6.28061 -4.87836,-0.40186 1.42696,-2.66629 1.27484,-3.48255 -0.95256,-5.11126 -4.64326,-3.39524 -7.03478,-1.72134 -6.57548,4.60238 l 0.41206,5.67313 -4.59457,-4.94935 c -4.76665,-5.13473 -9.19062,-7.12139 -7.80243,-3.50382 0.4286,1.11692 0.11931,2.03074 -0.68737,2.03074 -0.80666,0 -1.07286,0.63716 -0.59157,1.4159 0.48129,0.77874 0.24371,2.54408 -0.52795,3.92296 -1.18631,2.11982 -1.8645,1.43048 -4.39063,-4.46275 -2.92214,-6.81707 -3.04966,-6.91366 -5.819,-4.40744 -1.55727,1.40929 -2.52894,2.86483 -2.15925,3.2345 0.36968,0.36968 -0.0484,2.01841 -0.92899,3.66387 -1.57502,2.94295 -1.6191,2.94571 -2.70389,0.16915 -0.60652,-1.55243 -1.1479,-4.55085 -1.20306,-6.66317 -0.14897,-5.70311 -2.47226,-6.13828 -7.25214,-1.35841 l -4.26582,4.26582 v -5.44633 c 0,-3.52462 -0.75538,-5.73621 -2.14081,-6.26786 -2.73156,-1.0482 -6.65428,0.41354 -5.6164,2.09287 0.4343,0.70271 -0.21162,1.27766 -1.4354,1.27766 -2.73863,0 -2.7422,-0.28113 -0.0842,-6.64256 2.73876,-6.55478 2.86521,-6.20229 -2.22504,-6.20229 -2.54714,0 -3.9984,0.59454 -3.48378,1.4272 0.48513,0.78497 -0.44032,1.42721 -2.05658,1.42721 -3.58744,0 -3.69426,-1.08109 -0.45999,-4.65495 2.35973,-2.60744 2.34415,-2.83725 -0.32477,-4.78881 -2.49002,-1.82074 -2.90309,-1.76644 -3.69469,0.48571 -0.76246,2.16921 -1.06386,2.02002 -2.08565,-1.03239 -0.65691,-1.9624 -1.35125,-4.46551 -1.54298,-5.56245 -0.19172,-1.09693 -1.23725,-2.88309 -2.32339,-3.96924 -1.68161,-1.6816 -2.38443,-1.49143 -4.73381,1.28083 l -2.75905,3.25564 3.56801,-2.8321 c 2.90328,-2.30447 2.77466,-1.95915 -0.69042,1.85354 -4.95699,5.45424 -6.09156,4.16891 -2.95225,-3.34451 1.21851,-2.9163 2.21547,-5.438 2.21547,-5.6038 0,-0.16578 -1.9856,-0.30144 -4.41245,-0.30144 -4.13988,0 -4.35963,0.26403 -3.55755,4.27441 0.81456,4.07282 0.73128,4.16257 -1.76557,1.90294 -1.44124,-1.3043 -3.47971,-2.37146 -4.52994,-2.37146 -1.05022,0 -1.4869,-0.4226 -0.9704,-0.93909 0.5165,-0.5165 0.23863,-1.78308 -0.61746,-2.81462 -1.27824,-1.54017 -1.9303,-1.50181 -3.64664,0.21454 -1.14953,1.14954 -1.70835,2.70771 -1.2418,3.46258 0.46654,0.7549 0.41762,3.08835 -0.10875,5.18547 -1.13657,4.5285 -2.55827,2.6026 -3.99782,-5.41562 -1.25204,-6.97374 -2.57753,-7.53968 -6.6995,-2.86049 l -3.41866,3.88083 4.28162,-3.55447 c 3.78579,-3.14285 3.70375,-2.9277 -0.70848,1.85799 l -4.9901,5.41247 -1.09516,-5.42601 c -1.60114,-7.93291 -2.4714,-9.87882 -3.63027,-8.1174 -1.29618,1.97005 -10.27047,5.03725 -10.27047,3.5102 0,-0.64544 0.91692,-3.77237 2.03759,-6.9487 1.79473,-5.08676 1.78081,-5.87372 -0.11675,-6.60187 -3.10411,-1.19116 -3.64299,-1.03131 -2.53998,0.75341 0.66526,1.07641 -0.0472,1.25516 -2.2353,0.56071 -2.18802,-0.69445 -2.90057,-0.51571 -2.23531,0.5607 0.5371,0.86906 0.34894,1.58011 -0.41815,1.58011 -0.76708,0 -2.57116,0.41577 -4.00904,0.92394 -1.54525,0.54611 -0.31772,-1.48591 3.00174,-4.96903 5.54533,-5.81869 5.81635,-7.85218 1.08708,-8.15597 -11.244,-0.72225 -11.07418,-0.67852 -8.48717,-2.18532 3.18915,-1.85751 3.26555,-8.8927 0.12474,-11.48538 -1.76488,-1.45685 -2.51992,-1.52217 -2.94662,-0.25493 -0.31554,0.93712 -1.49558,1.35008 -2.62232,0.91771 -1.12672,-0.43236 -2.0486,-0.0752 -2.0486,0.79378 0,0.86896 -0.96336,1.57991 -2.14081,1.57991 -2.61004,0 -2.60771,0.25504 -0.0634,-6.95659 1.95595,-5.54378 1.92104,-5.88826 -0.59687,-5.88826 -1.47091,0 -3.79563,-0.43026 -5.16605,-0.95615 -1.69877,-0.65187 -2.16327,-0.4248 -1.4597,0.71361 0.56759,0.91836 0.40434,1.66974 -0.36275,1.66974 -0.76708,0 -2.57116,0.41578 -4.00904,0.92395 -1.5625,0.5522 -0.39745,-1.40332 2.89572,-4.86044 l 5.51004,-5.78436 -3.36923,-1.86522 c -1.85303,-1.02586 -3.69032,-1.81111 -4.0828,-1.74498 -0.39248,0.0661 -2.43004,0.52344 -4.52791,1.01627 -3.43528,0.80701 -3.98426,0.36426 -5.52444,-4.45543 -2.27989,-7.13445 -3.38594,-8.10203 -5.77875,-5.05516 -1.87196,2.38363 -1.8143,2.41378 0.84544,0.44188 2.82591,-2.09508 2.82727,-2.08439 0.13559,1.0704 -3.61083,4.23214 -4.22737,4.02143 -3.20409,-1.09499 0.50978,-2.54895 0.25912,-4.28162 -0.61944,-4.28162 -0.81166,0 -1.12097,0.57404 -0.68735,1.27564 0.43361,0.7016 -0.78117,1.18328 -2.69949,1.0704 -3.26394,-0.19206 -3.35496,-0.40818 -1.41776,-3.36623 2.46574,-3.7651 2.57578,-4.68863 0.55868,-4.68863 -0.83129,0 -1.15963,0.56923 -0.72965,1.26495 0.84832,1.3726 -5.00021,3.38713 -6.2385,2.14884 -0.41503,-0.41503 0.75913,-1.89641 2.60925,-3.29195 2.96228,-2.23446 3.07486,-2.64825 0.94303,-3.46631 -3.21026,-1.23189 -6.51237,2.23835 -5.56762,5.85108 0.41425,1.58403 0.055,3.31158 -0.79838,3.83897 -0.86383,0.53388 -1.55154,-0.0274 -1.55154,-1.26613 0,-1.22377 -0.68552,-2.22504 -1.52339,-2.22504 -0.87389,0 -1.13712,1.21696 -0.61742,2.85441 0.50523,1.59186 0.25647,2.85441 -0.56242,2.85441 -0.8076,0 -2.15282,-2.54185 -2.98937,-5.64856 -1.47424,-5.47494 -4.11353,-8.92618 -4.47624,-5.85331 -0.0982,0.83129 -0.25868,2.26072 -0.3568,3.17651 -0.0982,0.91578 -0.98121,1.93267 -1.96241,2.25974 -2.14862,0.7162 -2.19374,0.1931 -0.39213,-4.5455 1.11925,-2.94383 0.96297,-3.66093 -0.79783,-3.66093 -1.20434,0 -1.79279,0.64224 -1.30765,1.42721 0.50026,0.80945 -0.69879,1.4272 -2.77018,1.4272 -3.56626,0 -4.6531,-1.37782 -2.65947,-3.37146 0.54604,-0.54602 1.13958,-1.99303 1.31903,-3.21556 0.29227,-1.99147 0.0659,-1.98717 -2.17558,0.0414 -4.36084,3.94651 -5.12155,2.44119 -0.96094,-1.90156 4.0003,-4.17541 4.0681,-7.26598 0.14675,-6.69045 -1.1516,0.16901 -2.5941,0.85702 -3.20555,1.52889 -0.61156,0.67203 -0.2099,0.69842 0.89282,0.0587 1.38977,-0.80628 1.67421,-0.6285 0.92748,0.57973 -0.59236,0.95847 -1.41356,1.40614 -1.82489,0.99482 -0.41132,-0.41133 -1.95388,0.66986 -3.42791,2.40265 -2.46321,2.89564 -2.60289,2.91959 -1.72648,0.29611 0.52446,-1.56992 1.77024,-4.06418 2.7684,-5.54278 1.48877,-2.20536 1.44814,-3.05507 -0.2262,-4.72942 -2.18992,-2.18991 -5.12611,-1.29437 -4.7861,1.45979 0.11374,0.92201 0.12102,3.28199 0.016,5.2444 -0.15257,2.8509 -0.46901,3.13775 -1.57445,1.4272 -0.76092,-1.17744 -1.39332,-3.53875 -1.40536,-5.24737 -0.0317,-4.51164 -4.38149,-4.83409 -8.94188,-0.66288 -4.44052,4.06157 -4.80489,3.05472 -1.88721,-5.21486 1.79471,-5.08676 1.7808,-5.87372 -0.11674,-6.60186 -3.10412,-1.19116 -3.643,-1.03132 -2.53999,0.7534 0.66527,1.07642 -0.0472,1.25516 -2.2353,0.56071 -1.99885,-0.63441 -2.88114,-0.48428 -2.33618,0.39751 0.48164,0.77929 -0.70298,1.71868 -2.63248,2.08753 -4.21007,0.80481 -3.49987,-0.6887 3.07093,-6.45794 5.77986,-5.07477 6.00191,-6.79344 0.82732,-6.40313 -4.46051,0.33647 -8.11133,3.2254 -6.78599,5.36986 0.48885,0.79099 0.31148,1.43816 -0.39416,1.43816 -0.70566,0 -2.14384,-2.60835 -3.19596,-5.79633 -1.05214,-3.18796 -3.03943,-6.39917 -4.41623,-7.13603 -3.09752,-1.65774 -4.52037,-1.71798 -3.55154,-0.15037 0.40428,0.65415 -1.10809,1.18935 -3.36083,1.18935 -4.02068,0 -4.05374,-0.0644 -1.80051,-3.50318 2.14163,-3.26854 2.11512,-3.63496 -0.39575,-5.47095 -3.34104,-2.44304 -4.98281,-2.5027 -5.05708,-0.18378 -0.0314,0.98121 -1.0153,0.0178 -2.1864,-2.1408 -1.17108,-2.15871 -2.78887,-3.92488 -3.59509,-3.92488 -0.80622,0 -1.06538,-0.64799 -0.5759,-1.43998 1.39473,-2.25674 -0.68399,-7.12325 -3.0427,-7.12325 -1.19316,0 -1.69964,0.69452 -1.15232,1.5801 0.66524,1.07639 -0.0472,1.25519 -2.23476,0.56088 -2.09105,-0.66368 -3.63941,-0.3436 -4.43848,0.91751 -1.01658,1.60438 -1.23092,1.60799 -1.24903,0.021 -0.0114,-1.05358 1.26263,-3.54861 2.83256,-5.54444 2.8666,-3.64428 3.95411,-8.37359 1.58946,-6.91214 -0.69572,0.42997 -1.62077,-0.57891 -2.05567,-2.24196 -0.50573,-1.93395 -1.5504,-2.7322 -2.89856,-2.21486 -1.17569,0.45115 -2.48311,-0.16911 -2.95642,-1.40259 -0.68197,-1.77716 -1.26214,-1.86823 -2.95436,-0.46381 -3.30196,2.74039 -6.42371,0.62681 -6.42371,-4.34916 0,-4.19063 -0.2403,-4.38703 -4.28162,-3.4994 -4.76714,1.04704 -5.12181,0.21949 -2.14081,-4.99522 3.13072,-5.47662 2.6133,-7.13603 -2.22504,-7.13603 -2.54713,0 -3.99839,0.59454 -3.48378,1.4272 0.48514,0.78497 -0.46293,1.42721 -2.1068,1.42721 -2.51805,0 -2.75492,-0.4371 -1.50376,-2.77493 0.8168,-1.52621 2.12388,-3.16971 2.90464,-3.65223 0.78073,-0.48253 1.41952,-2.13149 1.41952,-3.66438 0,-2.47321 -0.68302,-2.68238 -6.06562,-1.85752 l -6.06563,0.92951 3.33326,-3.63216 3.33325,-3.63215 -3.15464,-1.00124 c -2.0313,-0.6447 -3.5916,-0.31159 -4.38179,0.9355 -0.99062,1.56339 -1.23139,1.5103 -1.24903,-0.27543 -0.0114,-1.2167 0.78095,-3.07024 1.76215,-4.11898 1.46238,-1.56304 1.20506,-1.76725 -1.4272,-1.13265 -4.48691,1.08169 -4.00083,-1.1438 1.06842,-4.89165 l 4.27963,-3.16407 -3.11368,-3.31435 c -1.97472,-2.10201 -4.06219,-3.01328 -5.70682,-2.4913 -1.42625,0.45267 -2.59318,0.17686 -2.59318,-0.6129 0,-0.78976 2.8901,-1.86932 6.42243,-2.39903 3.53233,-0.52971 6.42245,-1.37186 6.42248,-1.87145 4e-5,-0.49961 -2.40837,-3.04238 -5.35202,-5.65062 -4.40722,-3.90508 -4.78518,-4.62155 -2.14086,-4.05843 2.49328,0.53095 3.21121,0.0414 3.21121,-2.18966 0,-1.96786 -0.67471,-2.61459 -2.14081,-2.05198 -3.00684,1.15382 -2.68709,0.01 1.54956,-5.5449 3.65854,-4.79659 3.63035,-7.81607 -0.0729,-7.81607 -1.18197,0 -1.65156,-1.03784 -1.21863,-2.69334 0.38737,-1.48134 0.006,-3.12485 -0.84722,-3.65225 -2.88855,-1.78522 -1.57315,-3.70465 1.93536,-2.82408 5.05663,1.26914 7.22449,-0.51297 4.40878,-3.62429 -2.121,-2.34367 -1.97378,-2.64727 2.10237,-4.33567 5.97935,-2.47673 7.46696,-5.68981 4.91322,-10.61214 -2.00122,-3.85734 -1.96435,-3.94057 1.37402,-3.1027 1.88673,0.47353 4.45343,1.25354 5.7038,1.73335 2.4681,0.94711 3.17544,-1.56146 0.84619,-3.00101 -2.34307,-1.4481 -1.61471,-3.94535 0.87238,-2.99097 1.89777,0.72824 2.12811,0.19383 1.31823,-3.05853 l -0.98135,-3.94094 4.3757,4.17757 c 5.16704,4.93307 6.7409,4.31318 3.7262,-1.46762 -1.18665,-2.27544 -2.1615,-4.52667 -2.16634,-5.00273 -0.0183,-1.79756 9.34868,-0.46919 11.13542,1.57918 1.56126,1.78987 1.71935,1.00926 0.96445,-4.76187 l -0.90294,-6.90268 5.39113,3.66336 c 6.00043,4.0774 7.60596,3.22604 7.6438,-4.05323 l 0.0218,-4.20478 4.96379,4.8111 4.9638,4.81109 2.21542,-5.30227 c 2.47503,-5.92356 3.78254,-5.82321 6.39798,0.49101 2.16417,5.22475 3.24047,5.38009 5.68099,0.81992 3.09585,-5.78464 5.42185,-5.52425 6.47769,0.72518 1.08372,6.41449 1.50965,6.59843 6.40768,2.76714 4.95234,-3.87378 5.99602,-3.55568 5.45959,1.66396 -0.27821,2.70701 0.25081,4.75722 1.31963,5.11417 1.03588,0.34592 1.78401,-0.61578 1.78401,-2.29335 0,-1.58901 0.64224,-3.28604 1.42721,-3.77118 0.78496,-0.48513 1.4272,0.48361 1.4272,2.15276 0,2.44981 0.5877,2.84829 3.04876,2.06718 2.70723,-0.85925 2.94506,-0.55455 2.12315,2.72022 -0.73919,2.94518 -0.48292,3.51798 1.27251,2.84435 1.20896,-0.46391 2.84511,-2.05242 3.63588,-3.52999 1.49503,-2.79347 4.19176,-3.66922 4.19176,-1.36124 0,0.7289 -1.05766,2.38292 -2.35037,3.67562 -2.18234,2.18234 -2.1416,2.5591 0.56966,5.27036 3.33534,3.33535 5.54689,2.51168 7.83236,-2.91705 1.55336,-3.68976 1.60816,-3.7044 2.15203,-0.57497 0.30695,1.76617 1.2841,3.21122 2.17146,3.21122 1.14456,0 1.11572,0.49766 -0.0992,1.71264 -1.89557,1.89557 -2.34166,6.85059 -0.61674,6.85059 0.60274,0 3.54278,-1.6627 6.53342,-3.69489 6.59853,-4.48383 8.0583,-3.81875 2.91257,1.32698 -3.11909,3.11909 -3.46374,4.14651 -1.98767,5.92506 2.75101,3.31477 7.04309,2.60561 8.57224,-1.41634 1.75688,-4.62094 3.17306,-4.62094 2.01327,0 -0.70162,2.79552 -0.35062,3.56801 1.62122,3.56801 2.38251,0 2.38581,0.14468 0.0618,2.71272 -3.88274,4.29039 0.003,5.19723 5.28549,1.23332 8.56279,-6.42608 11.074,-6.90319 4.93353,-0.93733 -1.76616,1.71594 -2.24785,2.64859 -1.0704,2.07256 1.17744,-0.57604 0.60339,0.20474 -1.27567,1.73508 -5.17833,4.21731 -2.71367,6.54679 5.74015,5.42535 4.31109,-0.57189 6.95311,-0.37841 6.95311,0.5092 0,0.78736 -0.8984,1.08682 -1.99645,0.66546 -1.09805,-0.42135 -2.48177,0.0191 -3.07493,0.97891 -0.68965,1.11589 -0.48442,1.37788 0.56924,0.72667 1.12561,-0.69566 1.64772,0.56448 1.64772,3.97688 0,2.74738 0.6142,5.3748 1.36488,5.83876 0.75069,0.46394 0.94734,1.94689 0.43701,3.29543 -0.67903,1.79443 0.46028,1.39945 4.24872,-1.4729 2.84712,-2.15865 5.54056,-3.92482 5.98542,-3.92482 1.97457,0 0.49921,3.27765 -2.88864,6.4174 -3.7429,3.4688 -3.61036,6.42745 0.28793,6.42745 1.17195,0 2.87693,-2.08729 3.78884,-4.63842 l 1.65803,-4.63841 0.77936,4.28161 c 0.42864,2.35489 1.57584,4.3619 2.54934,4.46002 0.9735,0.0982 2.16226,0.25868 2.6417,0.3568 0.47946,0.0982 -0.64447,1.4076 -2.49761,2.90996 -5.62175,4.55762 -2.12451,4.6979 3.87865,0.15556 6.27982,-4.75166 8.03054,-5.31091 6.82975,-2.18171 -0.4501,1.17294 -1.32601,1.81886 -1.94647,1.4354 -0.62046,-0.38346 -1.50917,0.29583 -1.97491,1.50953 -0.55257,1.43995 -0.23259,1.91005 0.92085,1.35292 0.97221,-0.46961 0.32262,0.2176 -1.44355,1.52715 -4.19945,3.11372 -4.06998,4.88724 0.3568,4.88724 1.96241,0 3.56802,-0.72088 3.56802,-1.60197 0,-1.11289 0.64801,-1.06415 2.12264,0.15968 1.16744,0.9689 3.0736,1.3967 4.2359,0.95069 1.1623,-0.44602 2.49287,-0.19674 2.95681,0.55392 0.74072,1.19851 -1.05305,1.94229 -3.81696,1.58269 -1.29746,-0.16881 0.28551,5.36896 1.80275,6.30666 0.68628,0.42415 2.80399,-2.63652 4.70601,-6.80146 l 3.45823,-7.57264 0.11689,9.03996 0.11689,9.03997 5.35202,-4.16205 c 9.08228,-7.06292 12.22252,-7.96081 5.70882,-1.63234 -1.76617,1.71595 -2.24785,2.59929 -1.0704,1.96297 1.17744,-0.63632 0.37464,0.52306 -1.78401,2.57638 -2.15865,2.0533 -3.92481,4.05436 -3.92481,4.44677 0,0.39241 3.85345,0.52211 8.56323,0.28825 7.93556,-0.39405 11.00871,0.7356 6.77923,2.49195 -1.22423,0.50838 -0.72679,1.66526 1.58531,3.68695 4.46412,3.9034 6.83167,3.7175 7.92079,-0.6219 1.23767,-4.93124 2.73599,-4.47158 5.7026,1.74944 l 2.53571,5.31745 4.05474,-4.96065 c 4.26552,-5.21852 4.45979,-5.11503 6.32746,3.37055 l 0.89132,4.04958 4.84148,-3.69278 c 5.80451,-4.42732 7.06902,-4.64467 5.04761,-0.86766 -0.83158,1.55381 -1.11973,4.38792 -0.64032,6.298 0.84177,3.35389 1.03697,3.4038 5.69752,1.45649 5.64313,-2.35781 9.65863,-2.73068 6.34487,-0.58917 -1.17744,0.76092 -1.49856,1.40317 -0.7136,1.4272 0.78496,0.024 0.54859,0.60031 -0.52525,1.2806 -1.58125,1.00172 -1.39785,1.79152 0.96447,4.15384 3.23562,3.23562 8.64099,2.78283 10.82691,-0.90694 1.002,-1.69131 1.94752,-0.83646 4.40689,3.9843 l 3.13118,6.13762 3.18313,-4.4703 c 1.75072,-2.45866 3.69956,-4.4703 4.33076,-4.4703 0.63118,0 1.56844,2.63176 2.08279,5.84834 l 0.93519,5.84833 5.04978,-3.85165 c 5.79574,-4.42064 7.19704,-3.96229 5.24565,1.71576 -2.2404,6.51905 -1.01668,7.57795 5.7536,4.97871 3.29687,-1.26573 6.3863,-2.86043 6.86541,-3.54377 0.47913,-0.68333 1.61229,1.70102 2.51816,5.29858 1.99524,7.92378 4.54961,8.39773 11.09073,2.05783 3.97627,-3.85396 4.5133,-4.05427 3.82631,-1.42721 -0.43954,1.68078 -1.34634,3.05596 -2.01511,3.05596 -0.66878,0 -0.84628,0.96337 -0.39445,2.14081 0.45183,1.17744 0.13073,2.14081 -0.71361,2.14081 -0.8443,0 -1.16542,0.96336 -0.7136,2.14081 1.10947,2.89122 4.31734,2.70524 6.15402,-0.3568 1.38415,-2.3076 1.60645,-2.3177 2.92197,-0.13273 0.94583,1.57095 2.50301,2.08677 4.63841,1.5365 2.86373,-0.73795 3.0008,-0.5677 1.25583,1.55995 -2.77573,3.38441 -0.26894,2.9675 3.51148,-0.58403 l 3.1639,-2.97233 0.9627,4.38317 c 1.3068,5.94984 3.14777,6.7124 7.83641,3.24595 l 3.96753,-2.93333 v 3.64116 c 0,5.83084 4.40918,7.30681 12.13125,4.06097 2.00845,-0.84422 2.49761,-0.32112 2.49761,2.67088 0,2.0464 1.34847,5.06917 2.99659,6.7173 l 2.99658,2.99657 4.85305,-4.70375 c 2.66918,-2.58707 4.85304,-3.93554 4.85304,-2.99659 0,0.93894 -0.71095,1.70718 -1.5799,1.70718 -0.86894,0 -1.21023,0.96336 -0.75839,2.14081 0.45183,1.17744 0.13073,2.1408 -0.7136,2.1408 -0.84432,0 -1.18136,0.92188 -0.749,2.0486 0.43237,1.12674 0.0194,2.33094 -0.91771,2.67601 -1.29396,0.47649 -1.3055,1.05148 -0.048,2.3903 1.31025,1.39495 3.19119,1.2529 9.01249,-0.68062 4.04616,-1.34391 7.62947,-2.17067 7.96291,-1.83723 0.33344,0.33344 -1.46429,2.48617 -3.99497,4.78382 -2.58358,2.34572 -3.67225,2.89525 -2.48272,1.25322 1.71617,-2.36899 1.53653,-2.31853 -0.94592,0.26573 -1.68543,1.75455 -3.53859,2.74938 -4.11813,2.21076 -0.57955,-0.53865 -0.27337,0.51898 0.68039,2.35028 1.61381,3.09864 1.91165,3.16893 4.29356,1.01335 2.37497,-2.14931 2.61204,-2.11513 3.2892,0.47428 0.40135,1.5348 2.24914,3.08455 4.10618,3.44389 l 3.37646,0.65333 -3.21122,1.06124 c -1.76616,0.58369 -3.21121,1.62859 -3.21121,2.32199 0,2.03938 2.21575,1.46034 6.09826,-1.59366 1.99584,-1.56992 3.96116,-2.85441 4.36737,-2.85441 0.40621,0 0.55186,2.62129 0.32364,5.82508 -0.38137,5.35441 -0.17095,5.74872 2.60436,4.87999 6.20489,-1.94225 10.24581,-2.4288 8.18841,-0.98593 -1.13994,0.79945 -1.49726,2.1392 -0.84989,3.18667 0.77838,1.25944 0.54398,1.45315 -0.77329,0.63903 -1.3725,-0.84825 -1.64063,-0.51773 -0.9789,1.2067 0.5202,1.35565 0.21595,2.37493 -0.70894,2.37493 -0.89116,0 -1.17123,0.44906 -0.62239,0.9979 0.54885,0.54885 3.86616,0.82152 7.37179,0.60594 l 6.37387,-0.39196 -4.63631,4.66604 -4.63629,4.66603 3.56802,1.00819 c 1.9624,0.5545 5.37208,1.07221 7.57706,1.15045 2.32507,0.0825 3.63249,0.75152 3.11259,1.59274 -0.49304,0.79777 -1.59355,1.01966 -2.44556,0.49309 -0.86441,-0.53423 -1.14318,-0.3006 -0.63069,0.52861 0.50511,0.81731 2.8e-4,2.24799 -1.12186,3.17928 -2.73899,2.27317 -1.3632,5.31104 2.88856,6.37817 1.90561,0.47828 3.46475,1.56832 3.46475,2.42231 0,0.85399 -1.00989,1.16518 -2.2442,0.69152 -2.76073,-1.05939 -7.78715,1.45411 -7.63357,3.81722 0.0843,1.29761 0.29452,1.28274 0.8355,-0.0591 0.39755,-0.9861 1.32277,-1.42211 2.05604,-0.96893 0.73327,0.45318 3.61153,0.0721 6.39615,-0.84695 6.76674,-2.23323 7.18686,-1.29798 1.6679,3.71282 -3.86417,3.50839 -4.14756,3.60603 -1.76912,0.60956 l 2.8321,-3.56801 -3.11496,2.63171 c -4.83922,4.08841 -1.8939,9.41193 5.25574,9.49952 1.96241,0.024 4.53138,0.72639 5.70883,1.56079 1.67334,1.18581 1.28377,1.38008 -1.78401,0.88966 -2.15865,-0.34508 -3.92482,-0.0621 -3.92482,0.62906 0,0.69107 -1.7014,0.82946 -3.78088,0.30755 -2.88105,-0.7231 -3.50972,-0.5102 -2.64154,0.89456 0.87411,1.41433 0.17607,1.62434 -2.99835,0.90215 -3.36104,-0.76467 -3.65864,-0.65077 -1.58555,0.60687 1.46787,0.89048 4.48766,1.12313 7.10803,0.54759 4.08637,-0.89751 4.35825,-0.7625 2.63817,1.31006 -1.05473,1.2709 -2.58641,1.89743 -3.40373,1.39231 -1.98687,-1.22795 -0.0285,2.13248 3.80578,6.5304 2.68296,3.07737 2.72179,3.33984 0.36869,2.49151 -1.44662,-0.52151 -4.33671,-1.37313 -6.42243,-1.89247 -3.3112,-0.82448 -3.56011,-0.66235 -1.96224,1.27813 1.0065,1.22232 4.85995,2.71031 8.56324,3.30665 5.85233,0.9424 6.26643,1.21952 3.16523,2.11816 -1.96241,0.56866 -4.89428,0.75298 -6.51527,0.40964 -2.4729,-0.5238 -2.93231,0.0607 -2.85441,3.63179 0.0532,2.43974 1.56943,5.82741 3.55283,7.93811 2.83516,3.01708 3.02846,3.68203 1.0704,3.68203 -1.31427,0 -2.38958,-0.68015 -2.38958,-1.51144 0,-0.83129 -0.72901,-1.06088 -1.62002,-0.5102 -1.05581,0.65252 -0.52512,1.5872 1.52378,2.68374 2.96718,1.58799 3.00271,1.79705 0.63245,3.72142 -2.1052,1.70916 -2.31597,1.71473 -1.30326,0.0344 0.82619,-1.37087 0.67986,-1.67807 -0.46292,-0.97179 -0.91905,0.568 -1.32893,1.58623 -0.91084,2.26271 0.41808,0.67648 0.10747,1.63338 -0.69033,2.12642 -2.70349,1.67085 -1.46815,3.35521 3.71549,5.06597 3.49361,1.15298 4.57507,2.07012 3.34065,2.83305 -1.00394,0.62046 -2.79175,0.75727 -3.9729,0.30402 -1.52377,-0.58473 -1.80427,-0.26864 -0.96571,1.08819 0.86368,1.39744 0.54247,1.66691 -1.19308,1.00092 -1.30621,-0.50125 -2.37493,-0.30943 -2.37493,0.42627 0,0.73569 -1.12392,0.95127 -2.49761,0.47905 -1.37368,-0.4722 0.23192,1.20913 3.56801,3.73628 6.91031,5.23469 7.28675,5.82721 2.98805,4.70307 -2.02442,-0.5294 -2.74608,-0.26841 -2.10883,0.76268 0.66621,1.07795 -0.7127,1.3341 -4.41525,0.82022 -2.9795,-0.41353 -4.7159,-0.21643 -3.88803,0.44134 0.82278,0.65373 2.84044,3.11533 4.48369,5.47022 l 2.98773,4.28162 -6.2677,-0.21457 c -3.44725,-0.11803 -6.2677,0.0681 -6.2677,0.41366 0,0.34553 1.29754,3.17161 2.88341,6.28019 1.58588,3.10858 2.43428,5.65196 1.88534,5.65196 -2.7647,0 -10.48038,-3.6193 -10.49943,-4.92513 -0.0114,-0.82351 -0.55971,-0.64902 -1.21709,0.38778 -0.65739,1.03677 -0.73696,4.39119 -0.17683,7.45425 1.08837,5.95192 1.03849,5.96039 -6.07706,1.03352 -2.15865,-1.49467 -3.93465,-2.19217 -3.94667,-1.54999 -0.0114,0.64218 -0.70231,0.20422 -1.53399,-0.97322 -1.12453,-1.59205 -1.28411,-0.7627 -0.62253,3.23549 1.24665,7.53397 -0.37258,9.32319 -4.15008,4.58575 -2.42388,-3.03983 -3.83081,-3.67839 -6.3458,-2.88017 -2.05496,0.65222 -2.94002,1.78508 -2.43098,3.11162 0.51236,1.33515 0.20535,1.71819 -0.85291,1.06414 -1.1042,-0.68243 -1.35068,-0.23299 -0.74205,1.35309 1.63406,4.25828 -1.45712,2.4958 -3.26109,-1.85936 -0.96465,-2.32887 -2.511,-4.86265 -3.43634,-5.63061 -2.27228,-1.88583 -2.75585,4.17764 -0.75324,9.44492 l 1.49996,3.94518 -3.77519,-3.54661 c -2.07636,-1.95063 -4.20512,-3.36061 -4.7306,-3.13327 -0.52549,0.22734 -1.1671,-0.9457 -1.4258,-2.60672 -0.31332,-2.01182 -1.18613,-2.7454 -2.61434,-2.19734 -1.17918,0.45249 -2.39241,0.82271 -2.69605,0.82271 -0.30365,0 -0.18241,0.96336 0.26942,2.14081 0.45184,1.17744 0.15351,2.14081 -0.66294,2.14081 -0.81645,0 -1.4294,1.93577 -1.36214,4.30172 0.19559,6.87862 -1.43682,6.54694 -2.49461,-0.50687 -0.92203,-6.14856 -3.8802,-9.54235 -5.72114,-6.56365 -0.47186,0.76349 -1.41565,1.04348 -2.09728,0.62219 -1.29975,-0.80328 -0.48231,5.83561 1.04279,8.46903 0.48645,0.83997 -0.39076,0.41205 -1.94934,-0.95092 -2.26417,-1.98001 -3.21315,-2.12344 -4.72111,-0.7136 -1.53762,1.43758 -1.74266,1.16487 -1.10659,-1.47179 0.45647,-1.89229 -0.0979,-4.11497 -1.335,-5.35203 -2.7136,-2.71361 -4.76622,-2.70279 -4.76622,0.0251 0,1.17745 -0.68552,2.14081 -1.52339,2.14081 -0.83785,0 -1.14524,1.19141 -0.68307,2.64757 0.46217,1.45616 0.25925,4.18569 -0.45091,6.06562 -1.12266,2.97179 -1.52444,2.24891 -3.07747,-5.53673 z M 547.88003,511.98196 c 0.0247,-1.11203 -0.11574,-1.75427 -0.31196,-1.42721 -0.19624,0.32707 -1.9624,2.46982 -3.92481,4.76169 l -3.56801,4.16701 3.87997,-2.73981 c 2.13397,-1.5069 3.90014,-3.64965 3.92481,-4.76168 z M 532.84679,494.8861 c 0.4343,-0.7027 -0.14947,-1.63802 -1.29727,-2.07847 -2.23025,-0.85583 -4.13496,0.92376 -2.61526,2.44347 1.29021,1.2902 2.98742,1.13188 3.91253,-0.365 z m -9.95881,-17.09895 c -0.40661,-0.40661 -2.48601,1.07697 -4.62086,3.29683 l -3.88158,4.03614 4.62087,-3.29683 c 2.54148,-1.81327 4.28818,-3.62951 3.88157,-4.03614 z M 502.9679,460.48363 c -0.48514,-0.78497 -1.5243,-1.42721 -2.30926,-1.42721 -0.78496,0 -1.03029,0.64224 -0.54515,1.42721 0.48513,0.78496 1.5243,1.4272 2.30926,1.4272 0.78496,0 1.03029,-0.64224 0.54515,-1.4272 z m -72.31652,-40.21152 c 0.48667,0.25511 1.13581,-0.28894 1.44249,-1.209 0.78312,-2.34935 -4.39374,0.51836 -7.00146,3.87845 -1.60047,2.06224 -1.33388,2.00665 1.33762,-0.27888 1.83506,-1.56993 3.73466,-2.64568 4.22135,-2.39057 z m 226.33447,-62.74187 c -0.66963,-1.08348 -1.40981,-0.84607 -2.29529,0.73621 -0.71883,1.28447 -0.8622,3.05502 -0.31861,3.93458 0.66963,1.08348 1.40981,0.84607 2.29529,-0.73621 0.71883,-1.28447 0.8622,-3.05502 0.31861,-3.93458 z m -166.8628,-88.29216 c -0.69051,-1.11727 -1.51151,-1.20018 -2.46299,-0.24872 -0.78496,0.78496 -0.96109,2.18137 -0.39142,3.10313 0.69051,1.11727 1.51151,1.20018 2.46298,0.24872 0.78497,-0.78496 0.9611,-2.18137 0.39143,-3.10313 z m 149.14298,297.74711 c 0,-0.29636 1.12393,-1.42029 2.49761,-2.49761 2.26364,-1.77526 2.31412,-1.72478 0.53886,0.53885 -1.86446,2.37737 -3.03647,3.1334 -3.03647,1.95876 z m -14.27205,-1.42721 c 0,-0.29636 1.12392,-1.42028 2.49761,-2.49761 2.26363,-1.77526 2.31411,-1.72478 0.53885,0.53886 -1.86445,2.37736 -3.03646,3.1334 -3.03646,1.95875 z M 773.42337,432.82787 c 0,-0.29636 1.12392,-1.42029 2.49761,-2.49761 2.26363,-1.77526 2.31411,-1.72478 0.53885,0.53885 -1.86446,2.37737 -3.03646,3.1334 -3.03646,1.95876 z"
   style="fill:#020202;stroke-width:1.00000012" /></svg>