<?xml version="1.0" encoding="UTF-8" standalone="no"?>
<!-- Created with Inkscape (http://www.inkscape.org/) -->

<svg
   xmlns:dc="http://purl.org/dc/elements/1.1/"
   xmlns:cc="http://creativecommons.org/ns#"
   xmlns:rdf="http://www.w3.org/1999/02/22-rdf-syntax-ns#"
   xmlns:svg="http://www.w3.org/2000/svg"
   xmlns="http://www.w3.org/2000/svg"
   xmlns:sodipodi="http://sodipodi.sourceforge.net/DTD/sodipodi-0.dtd"
   xmlns:inkscape="http://www.inkscape.org/namespaces/inkscape"
   version="1.1"
   width="297mm"
   height="210mm"
   viewBox="0 0 1122.5197 793.70079"
   id="Layer_1"
   xml:space="preserve"
   sodipodi:docname="phoroniformea.svg"
   inkscape:version="0.92.3 (unknown)"><metadata
   id="metadata34"><rdf:RDF><cc:Work
       rdf:about=""><dc:format>image/svg+xml</dc:format><dc:type
         rdf:resource="http://purl.org/dc/dcmitype/StillImage" /><dc:title /></cc:Work></rdf:RDF></metadata><sodipodi:namedview
   pagecolor="#ffffff"
   bordercolor="#666666"
   borderopacity="1"
   objecttolerance="10"
   gridtolerance="10"
   guidetolerance="10"
   inkscape:pageopacity="0"
   inkscape:pageshadow="2"
   inkscape:window-width="1365"
   inkscape:window-height="1276"
   id="namedview32"
   showgrid="false"
   units="mm"
   inkscape:zoom="0.74564394"
   inkscape:cx="561.25984"
   inkscape:cy="396.85039"
   inkscape:window-x="148"
   inkscape:window-y="65"
   inkscape:window-maximized="0"
   inkscape:current-layer="Layer_1" /><defs
   id="defs60"><inkscape:path-effect
     id="path-effect1129" /><inkscape:path-effect
     id="path-effect1125" /><inkscape:path-effect
     id="path-effect1121" /><inkscape:path-effect
     id="path-effect1113" /><inkscape:path-effect
     id="path-effect1109" /><inkscape:path-effect
     id="path-effect1105" /><inkscape:path-effect
     id="path-effect1101" /><inkscape:path-effect
     id="path-effect1097" /><inkscape:path-effect
     id="path-effect1093" /><inkscape:path-effect
     id="path-effect1085" /><inkscape:path-effect
     id="path-effect1081" /><inkscape:path-effect
     id="path-effect1077" /><inkscape:path-effect
     id="path-effect1073" /><inkscape:path-effect
     id="path-effect1069" /><inkscape:path-effect
     id="path-effect1050" /><inkscape:path-effect
     id="path-effect1042" /><inkscape:path-effect
     id="path-effect1038" /><inkscape:path-effect
     id="path-effect1034" /><inkscape:path-effect
     id="path-effect1030" /><inkscape:path-effect
     id="path-effect1026" /><inkscape:path-effect
     id="path-effect1022" /><inkscape:path-effect
     id="path-effect1018" /><inkscape:path-effect
     id="path-effect1014" /></defs>
    
    
    
<path
   inkscape:connector-curvature="0"
   d="m 679.11042,103.30586 c 5.6106,0.65772 11.11181,-2.68196 16.11807,-3.1472 10.56254,-0.981475 7.61522,-8.160223 3.75592,-14.887895 4.10355,1.1536 9.19891,2.682585 11.85367,0.532594 2.27268,-1.840333 3.85806,-7.842486 4.45055,-13.102328 2.18859,-0.709541 4.60951,-1.392515 5.48704,-3.323766 7.51767,-16.545896 1.83081,-55.020153 -21.5051,-51.725397 -1.56971,0.22181 -2.81016,1.375723 -3.94039,2.672309 -2.0028,-4.962027 -6.06587,-8.228524 -10.53484,-8.712872 -3.20303,-0.3465 -6.59164,0.769004 -9.55788,3.644702 -0.69394,-0.90491 -1.32692,-1.565578 -1.8394,-1.798416 -11.68418,-5.3087145 -17.78602,16.939265 -20.61774,23.934675 l -1.40197,-6.671906 c -0.26567,-1.881124 -1.5095,-6.60505 -3.4415,-7.309578 -0.36342,-0.132836 -0.72101,-0.228076 -1.07014,-0.288228 -9.87637,-1.70236 -13.94916,24.751926 -10.46404,34.228726 -3.26719,-6.89121 -6.61082,-12.681453 -9.18313,-15.069169 -10.29004,-9.552177 -14.58287,11.340881 -12.92707,18.849964 1.43061,6.487879 -0.25063,13.283786 -0.90986,19.963211 -0.56079,-2.430511 -0.98624,-4.895359 -1.48683,-7.165903 -0.43121,-1.955061 -3.86401,-14.930256 -4.10943,-14.956008 -5.5349,-0.581468 -10.9324,19.410002 -13.45157,30.43753 -1.04258,-5.769002 -2.42094,-12.248799 -6.89368,-15.105323 -1.3714,-0.875898 -3.15513,0.07707 -4.08897,0.833542 -1.61856,1.310684 -3.06356,1.668024 -4.39205,3.74815 -2.81338,4.404996 -2.97091,15.528015 -2.95216,21.861626 -4.23876,-1.322899 -8.45539,-2.204876 -12.18768,-1.381986 -2.74852,0.605905 -7.19928,5.089286 -11.75159,10.514986 -1.48567,-7.59035 -3.24645,-15.081452 -2.41229,-23.017988 0.18403,-1.750795 -0.53992,-8.124448 -3.37929,-7.498368 -6.10388,1.345898 -9.67532,6.842399 -12.10447,13.717381 -0.69715,-0.607158 -1.43108,-1.155166 -2.27369,-1.538008 -1.41837,-0.644314 -2.70708,-3.099826 -3.75057,-3.965825 -1.83869,-1.525977 -4.07573,-2.208513 -6.44492,-2.399683 -0.35647,-1.006854 -0.80004,-1.890272 -1.3656,-2.58866 -1.40461,-1.734567 -3.64399,-3.758865 -4.74371,-5.854342 -1.10805,-2.111456 -3.25073,-6.515449 -5.178,-7.391223 -6.28813,-2.8569 -7.94822,9.503242 -9.13958,13.325893 -1.19737,3.841949 -2.255,7.322799 -3.18816,10.601076 -1.1377,-4.476489 -3.04039,-8.857362 -3.98456,-13.139234 -0.78109,-3.542381 -4.03188,-6.641454 -5.90567,-8.955421 -3.6341,-4.48783 -6.04562,-22.534202 -16.33387,-8.863314 -2.44868,3.25384 -4.03018,7.870432 -4.97937,13.053329 -6.4294,-8.413177 -3.02675,-7.639223 -14.18949,-14.768472 -6.47375,-4.134563 -11.62564,0.602772 -15.67304,7.524309 -1.62024,-0.340234 -3.42598,-0.600892 -5.5717,-0.82665 -4.27594,-0.449259 -11.14153,-2.129626 -14.55009,-0.34086 -10.92166,5.731595 -24.08127,46.4346 -15.51542,57.01243 2.4465,3.02125 7.17871,5.12908 10.18221,7.91724 5.08125,4.71678 9.05708,10.33866 15.86695,13.27451 l 0.30984,-0.93436 c 1.4722,2.90452 2.98881,5.33892 4.14048,6.76107 1.28902,1.59183 4.65868,1.85512 8.44049,1.72072 0.43153,2.75621 1.54637,5.13008 3.5064,6.38193 5.1342,3.27909 10.18545,1.96264 16.10172,2.58446 1.41258,0.1485 2.85225,-0.0702 4.31106,-0.40665 -2.20798,2.08808 -3.57074,4.26771 -2.83836,6.21982 0.83422,2.22312 9.02338,1.7701 11.15622,1.46884 8.8545,-1.25016 16.54035,-1.67254 25.37651,-3.50905 -5.51798,5.24656 -34.71265,31.01536 -33.86423,33.27664 0.95432,2.54373 14.69616,1.05428 16.96955,-0.004 13.32976,-6.20547 40.98743,-21.58856 55.68715,-20.04354 3.44849,0.36217 11.41602,0.0376 12.14901,3.36061 0.9951,4.51277 5.83485,9.52117 7.47143,13.8833 7.14638,19.04784 14.04902,40.62481 17.27086,62.24258 5.58631,37.48294 9.01997,75.96547 9.7638,113.84259 0.38949,19.83238 -7.28576,48.94438 -5.86058,64.27834 1.42516,15.33396 0.46649,28.86575 2.88894,46.14506 2.42247,17.2795 -16.35772,57.48957 -26.42614,70.15217 -10.06842,12.66271 -22.52296,27.03901 -37.24252,48.47456 -14.71956,21.43543 -12.46947,38.45039 -16.81907,63.72056 -4.3496,25.27011 -5.56205,57.91709 -0.15877,72.31895 5.40327,14.40186 6.21341,36.42038 12.30991,41.48003 6.09651,5.05965 22.9615,4.30055 27.62922,0.52069 12.2536,-13.75303 22.67408,-32.04183 33.36841,-51.26486 6.84608,-12.25043 29.00298,-39.07922 33.75738,-52.11613 15.41371,-29.23412 16.64118,-43.87389 19.49796,-75.04772 1.34834,-12.82864 -5.68247,-28.54995 -10.20508,-44.53086 -4.52255,-15.98091 12.01145,-56.33654 10.77577,-74.18027 -1.23568,-17.8438 -4.59153,-27.12749 -2.25526,-49.35391 2.33609,-22.22637 2.27475,-49.15579 0.14224,-80.65375 -2.85985,-31.3893 -8.12884,-55.70394 -13.26183,-86.22982 -1.79031,-8.11918 -3.30097,-16.64884 -3.84895,-25.70533 -0.45509,-7.48565 0.42438,-15.49211 -0.59099,-22.68652 -0.95877,-6.78889 -4.96987,-44.73381 -3.2309,-48.5611 1.62769,-3.58236 10.58692,-2.59041 13.21575,-3.96996 6.13511,-3.21969 16.68907,-3.12508 23.61649,-3.76901 11.04407,-1.02616 37.16997,-8.55159 45.02561,-14.91297 1.60574,-1.3004 1.2756,-6.4677 1.48688,-8.47802 0.17482,-1.66032 0.87997,-6.22998 -0.10902,-7.45094 -2.22506,-2.74787 -9.26821,-4.99762 -17.40507,-6.84985 0.49437,-0.87083 0.5658,-1.80043 -0.18045,-2.72476 -2.1577,-2.66466 -5.51643,-4.39948 -9.01401,-6.05259 0.54137,-0.16855 1.05266,-0.3277 1.48682,-0.42294 5.47168,-1.20649 12.01,-0.37282 17.5639,-0.88912 1.29239,-0.1178 13.54989,-3.96483 11.42666,-6.58676 -1.63168,-2.01552 -10.0265,-2.94875 -12.91899,-3.25271 z"
   id="path1146"
   style="color:#000000;display:inline;overflow:visible;visibility:visible;fill:#000000;fill-opacity:1;fill-rule:evenodd;stroke:none;stroke-width:3.77952766;marker:none;enable-background:accumulate" /></svg>