<?xml version="1.0" encoding="UTF-8" standalone="no"?>
<!-- Created with Inkscape (http://www.inkscape.org/) -->

<svg
   xmlns:dc="http://purl.org/dc/elements/1.1/"
   xmlns:cc="http://creativecommons.org/ns#"
   xmlns:rdf="http://www.w3.org/1999/02/22-rdf-syntax-ns#"
   xmlns:svg="http://www.w3.org/2000/svg"
   xmlns="http://www.w3.org/2000/svg"
   xmlns:sodipodi="http://sodipodi.sourceforge.net/DTD/sodipodi-0.dtd"
   xmlns:inkscape="http://www.inkscape.org/namespaces/inkscape"
   version="1.1"
   width="297mm"
   height="210mm"
   viewBox="0 0 1122.5197 793.70079"
   id="Layer_1"
   xml:space="preserve"
   sodipodi:docname="platyhelminthes.svg"
   inkscape:version="0.92.3 (unknown)"><metadata
   id="metadata34"><rdf:RDF><cc:Work
       rdf:about=""><dc:format>image/svg+xml</dc:format><dc:type
         rdf:resource="http://purl.org/dc/dcmitype/StillImage" /><dc:title /></cc:Work></rdf:RDF></metadata><sodipodi:namedview
   pagecolor="#ffffff"
   bordercolor="#666666"
   borderopacity="1"
   objecttolerance="10"
   gridtolerance="10"
   guidetolerance="10"
   inkscape:pageopacity="0"
   inkscape:pageshadow="2"
   inkscape:window-width="2495"
   inkscape:window-height="1416"
   id="namedview32"
   showgrid="false"
   units="mm"
   inkscape:zoom="0.58618126"
   inkscape:cx="561.25984"
   inkscape:cy="669.80351"
   inkscape:window-x="65"
   inkscape:window-y="24"
   inkscape:window-maximized="1"
   inkscape:current-layer="Layer_1" /><defs
   id="defs60" />
    
    
    
<path
   style="fill:#000000;fill-opacity:1;fill-rule:evenodd;stroke:#000000;stroke-width:1px;stroke-linecap:butt;stroke-linejoin:miter;stroke-opacity:1"
   d="m 694.03391,360.75962 c 53.98416,5.8156 110.68352,-11.36621 162.40284,12.76727 75.84951,25.06697 138.23738,93.58101 151.11345,176.37915 13.8103,48.33344 13.006,104.83282 -16.85657,146.52319 -30.6941,23.03302 -73.43336,-3.53808 -96.02884,-28.18381 -37.40561,-39.48 -37.03648,-101.29578 -72.24582,-142.84287 -33.55236,-44.90838 -91.69325,-47.89793 -141.75829,-46.81078 -50.39152,-0.86399 -99.60158,-21.98552 -129.36891,-65.74839 -26.8139,-32.71668 -44.1986,-84.23649 -88.95869,-93.68774 -53.18738,-5.593 -97.51465,33.79675 -145.11824,51.98344 -42.13581,26.19881 -96.22385,6.68491 -131.61691,-22.79561 -28.21403,-29.04482 -62.38133,-69.39716 -42.57098,-113.35693 29.64201,-38.8033 5.94931,-79.31733 -31.25104,-97.26617 -26.125727,-50.115561 48.55794,-57.279701 79.00085,-42.330561 47.7167,10.677171 95.03791,45.721901 107.5645,96.429441 -18.98962,39.38854 -74.68976,-8.10649 -96.88401,33.80693 -10.9004,38.45091 12.94307,87.60589 55.47972,85.68441 51.87142,2.97568 90.00327,-40.62756 131.967,-65.47868 50.92571,-41.48325 129.83914,-42.64002 180.04236,0.1413 30.59462,36.76336 49.03915,88.53753 96.70772,105.89389 9.14326,3.93785 18.65852,6.96136 28.37986,8.89252 z"
   id="path822"
   inkscape:connector-curvature="0" /></svg>