<?xml version="1.0" encoding="UTF-8" standalone="no"?>
<!-- Created with Inkscape (http://www.inkscape.org/) -->

<svg
   xmlns:dc="http://purl.org/dc/elements/1.1/"
   xmlns:cc="http://creativecommons.org/ns#"
   xmlns:rdf="http://www.w3.org/1999/02/22-rdf-syntax-ns#"
   xmlns:svg="http://www.w3.org/2000/svg"
   xmlns="http://www.w3.org/2000/svg"
   xmlns:sodipodi="http://sodipodi.sourceforge.net/DTD/sodipodi-0.dtd"
   xmlns:inkscape="http://www.inkscape.org/namespaces/inkscape"
   version="1.1"
   width="297mm"
   height="210mm"
   viewBox="0 0 1122.5197 793.70079"
   id="Layer_1"
   xml:space="preserve"
   sodipodi:docname="priapulida.svg"
   inkscape:version="0.92.3 (unknown)"><metadata
   id="metadata34"><rdf:RDF><cc:Work
       rdf:about=""><dc:format>image/svg+xml</dc:format><dc:type
         rdf:resource="http://purl.org/dc/dcmitype/StillImage" /><dc:title /></cc:Work></rdf:RDF></metadata><sodipodi:namedview
   pagecolor="#ffffff"
   bordercolor="#666666"
   borderopacity="1"
   objecttolerance="10"
   gridtolerance="10"
   guidetolerance="10"
   inkscape:pageopacity="0"
   inkscape:pageshadow="2"
   inkscape:window-width="2495"
   inkscape:window-height="1416"
   id="namedview32"
   showgrid="false"
   units="mm"
   inkscape:zoom="0.80256944"
   inkscape:cx="561.25984"
   inkscape:cy="396.85039"
   inkscape:window-x="65"
   inkscape:window-y="24"
   inkscape:window-maximized="1"
   inkscape:current-layer="Layer_1" /><defs
   id="defs60" />
    
    
    
<path
   inkscape:connector-curvature="0"
   id="path824"
   d="m 571.81534,703.0777 c -13.05787,-2.36556 -17.77632,-2.98873 -24.77989,-3.27271 -10.86969,-0.44074 -41.13683,-6.79763 -59.09053,-12.41055 -4.31614,-1.34938 -28.3669,-12.81176 -30.1171,-14.35356 -0.62903,-0.55412 -6.46183,-3.72715 -12.96179,-7.05117 -19.02465,-9.72905 -28.83461,-15.66988 -34.28931,-20.76533 -1.453,-1.35731 -4.57367,-3.98558 -6.93482,-5.84061 -2.36116,-1.85503 -7.50919,-7.05128 -11.44006,-11.54722 -3.93087,-4.49595 -8.39919,-9.45757 -9.92962,-11.02584 -1.53041,-1.56827 -4.71101,-5.74951 -7.06799,-9.29165 -2.35699,-3.54214 -4.62276,-6.64872 -5.03504,-6.90352 -0.41229,-0.2548 -2.02026,-2.42103 -3.57326,-4.81383 -1.55301,-2.3928 -3.7915,-5.27475 -4.97444,-6.40433 -1.18294,-1.12958 -2.1508,-2.60899 -2.1508,-3.28757 0,-1.24484 -5.96245,-12.84036 -8.43827,-16.41039 -1.96863,-2.83869 -5.01201,-8.45986 -9.65565,-17.83412 -2.26815,-4.57879 -5.5964,-10.41159 -7.39612,-12.96179 -1.79971,-2.55019 -4.20636,-6.52371 -5.3481,-8.83001 -1.14174,-2.30632 -3.19064,-5.56583 -4.55311,-7.24336 -1.36247,-1.67753 -2.79181,-3.62034 -3.17629,-4.31736 -0.38449,-0.69701 -1.98245,-2.65141 -3.55105,-4.3431 -1.56859,-1.6917 -3.45568,-4.38092 -4.19352,-5.97606 -0.73784,-1.59514 -1.63625,-3.11515 -1.99645,-3.37781 -0.8583,-0.62588 -3.59312,-5.17552 -6.81688,-11.34054 -1.42534,-2.72579 -3.70562,-6.82845 -5.0673,-9.11703 -1.36166,-2.28857 -3.15599,-5.89118 -3.98738,-8.00581 -0.83138,-2.11462 -2.26815,-4.87408 -3.19281,-6.13214 -2.15711,-2.9349 -3.23098,-5.43784 -5.02153,-11.70407 -0.7968,-2.78851 -2.87477,-8.67263 -4.61771,-13.07582 -3.27818,-8.2817 -4.77486,-15.01204 -6.10392,-27.4485 -0.42575,-3.98385 -0.96283,-7.75668 -1.19352,-8.38408 -0.23068,-0.62739 -0.41265,-7.66108 -0.40437,-15.6304 0.0133,-12.86427 -0.34335,-17.81315 -1.93743,-26.87962 -0.41509,-2.36095 -0.9748,-2.81452 -3.12806,-2.53491 -0.62574,0.0813 -0.95307,-0.93519 -0.95307,-2.95949 0,-3.46081 -1.34491,-4.03978 -4.4051,-1.89634 -1.60829,1.1265 -1.69457,1.09494 -1.69457,-0.6198 0,-1.02751 1.01588,-2.77257 2.35545,-4.04615 2.86832,-2.72701 4.15158,-5.14388 4.73288,-8.9138 0.99935,-6.4811 7.76874,-16.62443 12.88834,-19.31203 2.86686,-1.50499 9.75921,-1.46061 9.75921,0.0628 0,0.63538 0.67774,1.14369 1.52492,1.14369 0.84938,0 1.52491,-0.50831 1.52491,-1.14744 0,-0.90706 0.96941,-1.12552 4.62748,-1.04283 4.4504,0.10061 4.77295,0.24631 8.42966,3.80805 l 3.80219,3.70345 5.4852,-0.0714 c 5.2175,-0.0679 11.20364,1.52385 11.20364,2.97909 0,0.32115 -0.73709,1.08853 -1.63797,1.7053 -0.90089,0.61677 -2.50694,1.84328 -3.56899,2.72558 l -1.93101,1.60419 1.26081,4.43205 c 1.2422,4.36662 4.44683,8.75243 6.39524,8.75243 1.34151,0 4.81913,3.08792 4.81913,4.2791 0,1.05512 3.93104,4.10794 5.28971,4.10794 1.16851,0 4.73649,3.69954 11.03452,11.44137 5.52074,6.78636 15.00888,16.40489 18.3274,18.57927 1.0705,0.70141 1.94637,1.9448 1.94637,2.76306 0,0.88191 0.93148,1.96945 2.28737,2.67061 1.25806,0.65057 2.28738,1.50833 2.28738,1.90615 0,0.39781 1.02932,1.25557 2.28737,1.90614 1.25806,0.65057 2.28738,1.60751 2.28738,2.12652 0,0.51902 1.54932,2.48307 3.44295,4.36456 1.89362,1.88149 4.64993,5.53299 6.12513,8.11445 1.47521,2.58146 3.18538,4.88666 3.80041,5.12266 0.61502,0.23601 1.11822,1.12318 1.11822,1.97149 0,0.84831 0.695,1.97418 1.54445,2.50192 0.84945,0.52775 1.89609,2.26143 2.32588,3.85265 0.51062,1.89042 1.4386,3.19253 2.67754,3.75702 1.04284,0.47516 2.42866,2.08967 3.07959,3.58779 2.05129,4.72108 3.5705,7.268 4.91147,8.2339 0.71415,0.51441 1.52873,1.85281 1.81019,2.97424 0.28147,1.12141 1.35956,2.70583 2.39577,3.52091 1.03622,0.8151 2.61005,2.90775 3.4974,4.65036 0.88736,1.74261 2.33599,3.67477 3.21918,4.29369 2.47001,1.73095 6.4836,6.15457 8.80774,9.70755 1.15426,1.76456 3.09398,4.201 4.31049,5.41431 4.25139,4.24024 7.04487,7.60827 8.26111,9.96022 0.67419,1.30374 2.07643,2.92778 3.11608,3.60898 1.03965,0.68121 1.89027,1.71603 1.89027,2.2996 0,0.58358 0.83277,1.78512 1.85059,2.67011 1.01783,0.88498 2.22577,2.51247 2.68433,3.61663 0.45855,1.10417 2.01592,2.81583 3.46082,3.80371 1.44489,0.98787 2.8564,2.51861 3.13665,3.40164 0.28027,0.88303 1.52626,2.62219 2.76888,3.86481 1.24261,1.24262 3.08786,3.57182 4.10054,5.17602 1.13899,1.80427 2.42639,2.9167 3.37547,2.9167 0.90419,0 1.81102,0.72804 2.20827,1.7729 0.37073,0.9751 1.57949,2.36616 2.68614,3.09126 1.10664,0.7251 2.59652,2.27941 3.31085,3.45403 1.44582,2.37746 16.72251,15.31802 18.08336,15.31802 0.47609,0 1.69742,0.90437 2.71407,2.00971 1.01663,1.10535 3.57884,3.12917 5.69378,4.49738 2.11493,1.36823 4.32013,3.05978 4.90044,3.75901 1.49322,1.79922 4.94773,3.45815 7.20115,3.45815 1.13684,0 2.24936,0.62068 2.73329,1.52492 0.44886,0.8387 1.27668,1.52491 1.83961,1.52491 0.56293,0 1.45063,0.51466 1.97268,1.14369 0.52205,0.62903 1.75329,1.14369 2.7361,1.14369 0.9828,0 2.91365,0.47414 4.29077,1.05366 5.10458,2.14807 10.21062,3.52852 13.03779,3.52486 1.60014,-0.002 3.6138,0.37324 4.47481,0.83404 0.861,0.46079 3.15441,0.92423 5.09646,1.02986 1.94205,0.10563 5.86028,0.46569 8.70717,0.80012 3.25799,0.38274 5.80095,0.31762 6.86213,-0.1757 0.92728,-0.43108 6.39289,-1.34214 12.1458,-2.02459 5.75291,-0.68245 11.41417,-1.6291 12.58056,-2.10367 2.83513,-1.15352 9.28632,-4.2542 11.65146,-5.60012 1.04838,-0.5966 2.84339,-1.27609 3.98892,-1.50999 2.39993,-0.49001 7.44795,-4.65257 7.44795,-6.14151 0,-0.55307 1.28665,-1.40938 2.85922,-1.90293 5.63037,-1.76707 9.38776,-3.96353 10.51751,-6.14821 0.62468,-1.20801 2.07353,-2.6976 3.21965,-3.31019 1.14612,-0.61259 3.79938,-3.06297 5.89614,-5.44527 2.09676,-2.38231 4.92739,-5.47808 6.29028,-6.8795 1.3629,-1.40141 2.47799,-2.87806 2.47799,-3.28144 0,-0.40338 0.42889,-1.19204 0.95308,-1.75258 0.52419,-0.56054 1.62229,-2.38636 2.44022,-4.05737 0.81794,-1.671 1.87653,-3.55286 2.35242,-4.18189 0.47589,-0.62902 1.3217,-2.34456 1.87956,-3.81229 0.55787,-1.46773 1.96199,-3.44604 3.12028,-4.39625 1.15828,-0.9502 2.52449,-3.00884 3.03601,-4.57475 1.28725,-3.94059 5.2835,-10.90215 6.53372,-11.38191 0.56845,-0.21814 1.03355,-0.74349 1.03355,-1.16745 0,-0.42396 1.02932,-1.94318 2.28737,-3.37602 1.25806,-1.43285 2.28738,-3.04124 2.28738,-3.57421 0,-0.53296 0.85776,-2.13165 1.90614,-3.55266 1.04838,-1.421 1.90615,-3.43999 1.90615,-4.48665 0,-1.04666 1.0022,-3.98218 2.22711,-6.52338 2.07315,-4.30095 4.63501,-13.20707 4.63501,-16.11328 0,-0.69716 1.01488,-2.42345 2.25529,-3.8362 1.24042,-1.41274 2.64378,-4.01135 3.1186,-5.77467 0.47481,-1.76333 2.04421,-4.6472 3.48754,-6.4086 3.15628,-3.85183 6.14386,-11.17321 7.16324,-17.55429 0.73893,-4.6255 2.18051,-9.42836 3.66412,-12.2076 0.97109,-1.81915 3.95305,-12.46659 3.94984,-14.10337 -0.002,-0.67732 0.68379,-2.10386 1.5225,-3.1701 0.91202,-1.15944 1.53219,-3.11607 1.54302,-4.86819 0.01,-1.61126 0.9074,-4.9882 1.99432,-7.50432 1.62006,-3.75023 2.0342,-6.08636 2.29787,-12.96179 0.4486,-11.69787 0.37615,-15.07498 -0.48253,-22.49252 -0.41264,-3.56449 -0.95568,-8.8 -1.20675,-11.63446 -0.42359,-4.78198 -1.6386,-7.427 -3.41165,-7.427 -0.89136,0 -5.32406,4.29582 -7.01954,6.80278 l -1.32928,1.96549 -0.005,-3.07099 c -0.004,-2.12887 -0.47552,-3.47385 -1.53866,-4.38414 -2.19156,-1.87646 -3.60904,-1.64191 -6.75149,1.1172 -3.344,2.93607 -3.95415,1.81577 -1.724,-3.16544 1.54581,-3.45267 1.39268,-5.10643 -0.61804,-6.67462 -1.70012,-1.32594 -3.88006,-1.18806 -5.64432,0.35699 -1.46454,1.28255 -1.50131,1.27516 -0.94825,-0.19062 1.50962,-4.00088 1.4037,-6.25743 -0.35141,-7.48675 -1.27811,-0.89523 -2.10267,-1.00745 -3.17711,-0.43242 -1.32304,0.70806 -1.41132,0.55353 -1.00076,-1.7518 0.60448,-3.39237 -1.85213,-7.48434 -4.4929,-7.48434 -1.28142,0 -2.01965,-0.53742 -2.35654,-1.71553 -0.97757,-3.41866 -3.83599,-8.22171 -5.14002,-8.63686 -1.50828,-0.48018 -1.48933,-0.37561 -1.34029,-7.39635 0.10866,-5.11933 0.0876,-5.17589 -2.22953,-5.98364 -2.79667,-0.97493 -2.988,-2.3532 -0.54853,-3.95159 1.51879,-0.99515 1.86168,-2.0201 2.25824,-6.75021 0.27081,-3.23028 0.15898,-5.88547 -0.26578,-6.31023 -1.09651,-1.09651 -0.88652,-1.95326 0.47876,-1.95326 1.30235,0 4.05803,-2.88026 4.09976,-4.2851 0.0139,-0.46972 2.25555,-4.1897 4.98134,-8.26663 2.72579,-4.07692 4.95407,-7.80987 4.95173,-8.29545 -0.0112,-2.31589 -1.70346,-6.60131 -2.60683,-6.60131 -0.55797,0 -1.48539,-0.5708 -2.06093,-1.26845 -0.95669,-1.15968 -0.76487,-1.2237 2.23682,-0.74661 2.96088,0.47061 3.50362,0.30147 5.52782,-1.72273 2.67274,-2.67274 2.97276,-6.0413 0.71966,-8.08032 -2.57984,-2.33473 -1.92841,-3.28923 1.94677,-2.85244 3.06197,0.34514 3.7434,0.13162 5.77421,-1.80918 1.73024,-1.65358 2.22673,-2.72165 1.99758,-4.29726 -0.29694,-2.04169 -0.20758,-2.09676 3.40212,-2.09676 5.54729,0 7.4657,-1.57836 7.4657,-6.14236 0,-4.31523 0.87625,-5.26262 2.33918,-2.5291 0.91542,1.71046 1.39159,1.89534 3.86358,1.50006 1.55072,-0.24798 4.13476,-0.8826 5.74233,-1.41028 2.57544,-0.84537 2.94719,-1.27598 3.1277,-3.62283 0.49605,-6.44936 0.60847,-7.28127 1.08469,-8.02714 1.0011,-1.56793 1.4529,-9.96916 0.73392,-13.64746 -0.42026,-2.15006 -0.45632,-4.49584 -0.0842,-5.47468 0.84138,-2.21299 -1.22081,-4.9225 -5.78006,-7.59439 -5.21671,-3.0572 -8.70328,-9.84041 -8.72822,-16.98097 -0.0128,-3.66211 1.91673,-11.05498 3.52785,-13.51684 0.56921,-0.86977 1.85507,-3.95773 2.85748,-6.86213 1.00241,-2.9044 2.37281,-6.31005 3.04534,-7.56811 0.67253,-1.25805 1.22489,-3.19372 1.22747,-4.30147 0.004,-1.55853 0.47801,-2.1329 2.0972,-2.53929 2.76102,-0.69297 4.00717,-1.79564 4.00717,-3.54578 0,-0.93844 0.54254,-1.43156 1.57504,-1.43156 2.48387,0 4.306,-1.312508 4.85416,-3.496538 0.4758,-1.89573 0.58544,-1.93898 1.89983,-0.74948 2.11954,1.91816 7.43418,0.12762 9.39442,-3.16504 1.36965,-2.30063 1.56799,-2.38535 3.15305,-1.34679 2.45591,1.60918 11.36414,1.66579 13.77288,0.0875 2.39548,-1.56959 2.4491,-1.56331 2.94815,0.34505 0.382,1.46076 0.76723,1.54381 4.85429,1.04655 2.44165,-0.29707 5.38721,-1.02211 6.54567,-1.6112 1.99211,-1.013 2.14612,-0.9664 2.84035,0.85959 0.66134,1.73944 1.14496,1.93067 4.8829,1.93067 2.28187,0 4.26954,0.36207 4.41705,0.80461 0.14751,0.44253 2.14298,0.87141 4.43437,0.95307 2.42836,0.0865 4.70548,0.62552 5.45912,1.29215 2.38868,2.11291 3.64024,3.068088 6.92318,5.283718 2.63095,1.77561 3.55038,3.03985 4.72595,6.49829 2.17512,6.3991 1.80763,12.33922 -1.42181,22.98268 -2.73812,9.02415 -3.76529,10.87811 -7.77473,14.03264 -8.82387,6.94241 -7.98938,5.39841 -8.45578,15.64512 -0.67476,14.82436 2.74371,24.06827 9.10278,24.61489 2.2782,0.19584 2.68681,0.51435 2.68681,2.09441 0,3.71386 2.91454,5.21943 5.83076,3.01202 1.78312,-1.34972 2.74689,-0.84043 2.74689,1.45157 0,0.95864 0.65377,2.33462 1.45282,3.05775 1.60267,1.4504 8.0692,3.63211 8.74939,2.95191 0.23625,-0.23624 0.77376,0.47581 1.19446,1.58235 0.81272,2.13761 1.3955,2.30524 7.09295,2.04019 2.07359,-0.0965 3.62167,0.16543 3.62167,0.61269 0,1.44917 2.77486,1.67575 6.11027,0.49896 1.82307,-0.64322 3.58587,-0.8983 3.91733,-0.56683 0.33146,0.33145 0.0979,2.27972 -0.51895,4.32946 -1.54427,5.13123 -1.48415,5.4467 1.6109,8.4524 2.11579,2.05471 3.14829,2.54927 4.57475,2.19125 1.48839,-0.37357 1.84225,-0.16927 1.84225,1.06362 0,0.8393 -0.51466,1.72349 -1.14369,1.96488 -0.77815,0.2986 -1.14369,1.51705 -1.14369,3.81229 0,3.80323 1.31836,4.8967 4.05814,3.36588 1.81683,-1.01514 6.6584,-2.84938 7.56935,-2.86767 0.31451,-0.006 0.57184,0.89143 0.57184,1.99499 0,1.36142 -1.10302,3.10949 -3.43106,5.43753 -2.99292,2.99292 -3.43106,3.84598 -3.43106,6.68023 0,3.5975 1.22135,4.66608 3.53415,3.09208 2.27817,-1.55042 4.85289,-1.97332 4.85289,-0.79708 0,0.56502 -0.33195,1.23247 -0.73768,1.48322 -0.93751,0.57942 -5.07261,9.22691 -5.78884,12.10587 -0.68867,2.76817 0.59304,3.64689 4.42976,3.037 2.24986,-0.35764 2.85922,-0.20739 2.85922,0.70505 0,0.63776 -0.49467,1.34938 -1.09926,1.58139 -1.77082,0.67953 -3.3182,3.67052 -3.87347,7.48715 l -0.51682,3.5523 3.56338,1.57625 c 3.99788,1.76845 3.9361,2.46984 -0.41294,4.68855 -2.50121,1.27603 -3.01522,1.93764 -3.10143,3.99201 -0.0568,1.35438 -0.16354,3.87618 -0.23714,5.60402 -0.10247,2.40592 -0.7924,3.91094 -2.9465,6.42752 -3.15549,3.68648 -3.30691,4.25149 -1.63461,6.09936 1.62782,1.79872 1.77048,5.28373 0.25659,6.26836 -0.93998,0.61137 -1.81032,0.39212 -3.65359,-0.92041 -1.71022,-1.21779 -2.99173,-1.57938 -4.37076,-1.23327 -1.74901,0.43898 -1.91261,0.78233 -1.57956,3.3151 0.20435,1.55397 0.62206,3.59739 0.92825,4.54093 0.65962,2.03265 -1.13902,2.41774 -2.67097,0.57184 -1.33486,-1.60839 -4.33074,-1.42128 -6.93504,0.43315 -1.87401,1.33442 -2.21446,2.09636 -2.21446,4.95598 0,3.68542 -0.67073,4.08305 -4.18582,2.48146 -1.58649,-0.72284 -2.18343,-0.68442 -3.06519,0.19734 -1.1388,1.1388 -1.76472,8.21577 -0.8566,9.68515 0.4835,0.78232 0.92429,4.55353 2.78193,23.8009 0.86937,9.00778 1.43217,20.31415 1.82176,36.598 0.14548,6.0806 0.47513,14.29054 0.73258,18.24429 0.25743,3.95375 0.13396,10.13799 -0.2744,13.74275 -0.40835,3.60477 -0.92031,13.06482 -1.13771,21.02233 -0.85213,31.19308 -0.96729,32.5706 -3.05034,36.48828 -1.04962,1.97406 -2.12843,5.03234 -2.39737,6.79618 -0.26895,1.76384 -0.74005,3.55009 -1.0469,3.96945 -0.30684,0.41935 -0.98561,3.1642 -1.50835,6.09966 -1.09509,6.14949 -3.91466,15.66321 -6.44012,21.73006 -0.9601,2.30644 -2.33924,6.23917 -3.06475,8.7394 -0.72551,2.50023 -2.14613,5.52874 -3.15694,6.73001 -1.0108,1.20127 -1.83783,2.86658 -1.83783,3.70068 0,1.68234 -1.03779,3.87977 -2.80961,5.94911 -0.64157,0.7493 -2.03311,3.55278 -3.09231,6.22996 -1.0592,2.67719 -2.39477,5.40929 -2.96792,6.07134 -0.57316,0.66205 -1.04211,1.60855 -1.04211,2.10336 0,0.4948 -1.02932,2.32057 -2.28738,4.05727 -1.25806,1.7367 -2.29902,3.70658 -2.31325,4.37753 -0.0142,0.67095 -0.68879,2.59233 -1.49904,4.26974 -0.81025,1.67741 -1.48482,3.48099 -1.49905,4.00794 -0.0143,0.52697 -0.88363,1.70394 -1.93201,2.61549 -1.04838,0.91156 -1.90615,2.08091 -1.90615,2.59856 0,0.51765 -1.80131,3.35255 -4.00291,6.29978 -2.20159,2.94724 -6.03366,8.55196 -8.5157,12.45496 -11.99576,18.86328 -12.89855,20.00413 -27.85566,35.20074 -14.75408,14.99032 -18.00356,17.83055 -28.89716,25.25773 -12.03627,8.20625 -16.51915,11.5168 -20.69865,15.28575 -2.44273,2.20276 -8.48102,5.81887 -18.84641,11.28639 -2.56974,1.3555 -5.94446,2.32768 -9.53073,2.74559 -3.05375,0.35587 -6.51814,1.02665 -7.69866,1.49064 -1.18051,0.46398 -3.07704,0.8436 -4.21448,0.8436 -1.13745,0 -2.74575,0.47465 -3.574,1.05478 -2.39588,1.67814 -10.9686,4.07335 -16.76396,4.68385 -2.92842,0.30848 -7.89771,1.4977 -11.04285,2.6427 -6.88999,2.50834 -10.67859,2.96467 -28.90571,3.48172 -7.72078,0.21902 -14.23979,0.49203 -14.48671,0.6067 -0.24691,0.11468 -1.82136,-0.0401 -3.49877,-0.34401 z"
   style="fill:#0d0d0d;stroke-width:0.99999994"
   sodipodi:nodetypes="csccscccccccsscsscsccscccccccsccccscscscsssccccscscssssscssscscccscccccccccccscsccccccsccssccsscssscccsccscccsccsccsscccsccssscsssccssccsccsscsscccscccccccsccccccsscccsccsccccsscccccsccccsccsssscsccssccscccsccsscsssccccscccscscsccssscscssscccscccsscsccsccscscsscccsccscscssccsscsccscsssccccssccsccc" /></svg>