<?xml version="1.0" encoding="UTF-8" standalone="no"?>
<!-- Created with Inkscape (http://www.inkscape.org/) -->

<svg
   xmlns:dc="http://purl.org/dc/elements/1.1/"
   xmlns:cc="http://creativecommons.org/ns#"
   xmlns:rdf="http://www.w3.org/1999/02/22-rdf-syntax-ns#"
   xmlns:svg="http://www.w3.org/2000/svg"
   xmlns="http://www.w3.org/2000/svg"
   xmlns:sodipodi="http://sodipodi.sourceforge.net/DTD/sodipodi-0.dtd"
   xmlns:inkscape="http://www.inkscape.org/namespaces/inkscape"
   version="1.1"
   width="297mm"
   height="210mm"
   viewBox="0 0 1122.5197 793.70079"
   id="Layer_1"
   xml:space="preserve"
   sodipodi:docname="rotifera.svg"
   inkscape:version="0.92.3 (unknown)"><sodipodi:namedview
   pagecolor="#ffffff"
   bordercolor="#666666"
   borderopacity="1"
   objecttolerance="10"
   gridtolerance="10"
   guidetolerance="10"
   inkscape:pageopacity="0"
   inkscape:pageshadow="2"
   inkscape:window-width="2495"
   inkscape:window-height="1416"
   id="namedview32"
   showgrid="false"
   units="mm"
   inkscape:zoom="0.80256944"
   inkscape:cx="561.25984"
   inkscape:cy="396.85039"
   inkscape:window-x="65"
   inkscape:window-y="24"
   inkscape:window-maximized="1"
   inkscape:current-layer="Layer_1" /><metadata
   id="metadata34"><rdf:RDF><cc:Work
       rdf:about=""><dc:format>image/svg+xml</dc:format><dc:type
         rdf:resource="http://purl.org/dc/dcmitype/StillImage" /><dc:title /></cc:Work></rdf:RDF></metadata><defs
   id="defs60" />
    
    
    
<path
   inkscape:connector-curvature="0"
   id="path824"
   d="m 272.70199,610.12306 c 0.4538,-0.73792 2.0095,-1.04335 3.97831,-0.78105 0.78999,0.10528 1.57024,0.0892 1.73386,-0.0356 0.16365,-0.12485 0.60688,-0.18634 0.98499,-0.13666 0.62054,0.0815 4.81114,-0.45752 7.70309,-0.99089 0.62066,-0.11447 1.22261,-0.0847 1.33767,0.0661 0.11506,0.15081 0.37799,0.14542 0.58433,-0.012 0.20632,-0.1574 1.11891,-0.32705 2.02798,-0.37699 0.90908,-0.0499 1.8454,-0.2377 2.08074,-0.41725 0.2353,-0.17953 0.65683,-0.18516 0.93673,-0.0125 0.2799,0.17262 0.71282,0.1583 0.962,-0.0318 0.24921,-0.19014 0.55468,-0.21255 0.67883,-0.0498 0.12416,0.16273 0.55072,0.0479 0.94796,-0.25514 0.39721,-0.30305 0.70292,-0.74693 0.67934,-0.98639 -0.0607,-0.61656 0.97269,-1.32371 1.48777,-1.01806 0.34512,0.20479 0.37964,0.17845 0.17261,-0.13169 -0.30496,-0.45678 0.81921,-1.42881 1.1504,-0.99471 0.13278,0.17404 1.26128,-0.49419 2.74064,-1.62285 1.3832,-1.0553 2.4242,-2.03763 2.31333,-2.18295 -0.4402,-0.57698 0.68619,-1.72022 5.93574,-6.0245 3.00915,-2.46731 6.5748,-5.66237 7.92365,-7.10014 1.34885,-1.43776 3.61388,-3.50762 5.03339,-4.59969 2.09293,-1.61012 2.51691,-2.06949 2.24234,-2.42938 -0.23648,-0.30996 -0.0263,-0.68209 0.69695,-1.23387 0.56955,-0.43453 0.93397,-0.92321 0.80982,-1.08594 -0.12415,-0.16272 0.32476,-0.71587 0.99761,-1.2292 1.8734,-1.4293 4.80509,-4.60603 10.11903,-10.96483 1.22791,-1.46935 2.77406,-3.08467 3.43593,-3.58964 0.66183,-0.50494 1.18678,-1.08653 1.1665,-1.29239 -0.0203,-0.20586 1.06433,-1.35441 2.41021,-2.55231 1.34589,-1.1979 3.60799,-3.27925 5.02689,-4.62522 1.41889,-1.34596 3.55018,-3.29852 4.73618,-4.33901 1.94656,-1.70773 2.11751,-1.96125 1.75692,-2.60548 -0.2671,-0.47715 -0.17938,-0.93351 0.26466,-1.37702 0.36527,-0.36485 0.69764,-0.88173 0.73859,-1.14862 0.041,-0.2669 0.83216,-1.06334 1.75821,-1.76986 1.76206,-1.34436 2.69772,-2.78096 3.80253,-5.83832 0.35004,-0.96865 0.84059,-1.91695 1.09013,-2.10733 0.42023,-0.32061 1.17166,-1.74677 1.24409,-2.3612 0.0839,-0.71136 2.53728,-3.33263 4.58114,-4.89454 1.4244,-1.08861 2.475,-2.14835 2.78472,-2.80921 0.27358,-0.58369 0.9236,-1.52629 1.4445,-2.09466 1.01194,-1.10416 1.4691,-2.49668 1.01505,-3.09181 -0.15271,-0.20016 -0.11119,-0.83597 0.0923,-1.41291 0.20345,-0.57695 0.23462,-1.22632 0.0693,-1.44307 -0.16536,-0.21674 -0.16757,-1.00011 -0.005,-1.74084 0.16268,-0.74071 0.20821,-1.6287 0.10117,-1.9733 -0.10703,-0.3446 0.14539,-1.02787 0.5609,-1.51834 0.41555,-0.49049 0.67196,-1.00134 0.56982,-1.13522 -0.27107,-0.35529 1.02725,-2.19661 2.15612,-3.05787 0.53568,-0.40869 0.95466,-0.93899 0.93107,-1.17844 -0.06,-0.60889 4.29089,-3.88568 4.6078,-3.47031 0.16054,0.21043 0.70194,-0.10401 1.54072,-0.89484 3.07254,-2.89685 4.41668,-5.18538 4.93753,-8.40656 0.57342,-3.5463 5.01924,-8.44513 8.77348,-9.66747 1.68755,-0.54944 1.72653,-0.78305 0.31541,-1.89073 -1.59563,-1.25254 -3.59686,-4.94897 -3.44015,-6.35422 0.0735,-0.65862 0.10669,-1.63873 0.0739,-2.17805 -0.0328,-0.53928 0.0505,-1.06453 0.18503,-1.1672 0.13459,-0.10268 0.29954,-0.7228 0.36657,-1.37805 0.13166,-1.28642 2.32727,-5.8262 3.10464,-6.41929 0.26149,-0.1995 0.37389,-0.49589 0.24974,-0.65862 -0.12416,-0.16273 0.10712,-0.54982 0.51394,-0.86021 0.40683,-0.31038 0.65547,-0.67471 0.55254,-0.80962 -0.10293,-0.13492 0.92676,-1.47717 2.28821,-2.98279 1.36144,-1.50562 3.33682,-3.78598 4.38975,-5.06747 1.0529,-1.28147 2.49523,-2.7731 3.20518,-3.31475 0.70991,-0.54162 1.18919,-1.11792 1.06503,-1.28065 -0.12415,-0.16273 0.24027,-0.6514 0.80982,-1.08594 0.56955,-0.43453 0.9442,-0.9098 0.83255,-1.05614 -0.11165,-0.14634 0.31662,-0.75839 0.95171,-1.36011 1.13846,-1.07864 2.69643,-2.93682 6.43337,-7.673 1.04711,-1.3271 2.51839,-2.98785 3.26952,-3.69056 0.75113,-0.70271 1.36438,-1.41742 1.36278,-1.58824 -0.002,-0.17081 0.60761,-1.02886 1.3538,-1.90677 0.74618,-0.87791 2.08243,-2.57761 2.96945,-3.7771 0.88701,-1.1995 2.37098,-3.11972 3.2977,-4.26717 0.92672,-1.14745 1.68716,-2.22141 1.68986,-2.38659 0.003,-0.16517 0.86218,-1.10167 1.90995,-2.08113 1.04774,-0.97944 1.89798,-1.93571 1.88941,-2.12504 -0.009,-0.18932 0.24507,-0.55474 0.56367,-0.81203 0.3186,-0.2573 1.83441,-2.0854 3.36848,-4.06249 1.53403,-1.97706 3.37147,-4.03893 4.08316,-4.5819 0.71166,-0.54296 1.27466,-1.18314 1.25108,-1.4226 -0.0236,-0.23945 0.48184,-0.83571 1.12314,-1.32498 0.64134,-0.4893 1.08012,-1.00222 0.97511,-1.13986 -0.105,-0.13763 1.5055,-1.68493 3.5789,-3.43844 2.0734,-1.75351 4.32098,-3.84623 4.99464,-4.65049 1.89823,-2.26625 31.13527,-24.28083 33.89236,-25.51989 1.1503,-0.51695 2.79196,-1.47124 3.64812,-2.12064 0.85614,-0.64944 1.65824,-1.04758 1.7824,-0.88485 0.1254,0.16437 1.01472,-0.30608 2.00096,-1.05852 1.22052,-0.93119 1.86481,-1.23991 2.06193,-0.98802 0.19112,0.24426 0.26943,0.14551 0.2349,-0.29624 -0.0293,-0.37448 0.0642,-0.51473 0.21486,-0.32253 0.15775,0.20124 1.00679,-0.13033 2.07921,-0.81197 0.99692,-0.63364 2.962,-1.71618 4.36686,-2.40565 1.40485,-0.68947 3.46127,-1.72132 4.56982,-2.293 4.81673,-2.48399 8.28025,-4.11223 8.64256,-4.06297 0.2148,0.0292 0.80413,-0.25607 1.30963,-0.63396 0.5055,-0.37789 2.3878,-1.38488 4.18289,-2.23776 5.81203,-2.76141 8.29483,-4.04482 11.5816,-5.98681 1.77456,-1.04851 3.36564,-1.86201 3.53574,-1.80779 0.17009,0.0542 0.96409,-0.28553 1.76444,-0.755 2.66556,-1.56359 5.75004,-3.13553 9.43723,-4.80949 2.00779,-0.91152 4.81431,-2.34067 6.2367,-3.17588 3.30957,-1.94334 11.93915,-6.00073 14.72923,-6.92528 1.18243,-0.39182 2.4822,-0.96594 2.88838,-1.27583 0.40617,-0.30989 0.82127,-0.45495 0.92243,-0.32236 0.22836,0.29932 2.87328,-0.23308 3.48806,-0.70212 0.4895,-0.37346 2.17516,-1.0094 8.0378,-3.03237 2.08075,-0.71798 3.97874,-1.45462 4.21774,-1.63696 0.239,-0.18235 0.75566,-0.28836 1.14814,-0.23558 0.39248,0.0528 1.07799,-0.0347 1.52336,-0.19451 0.44538,-0.15975 0.90451,-0.16629 1.02029,-0.0145 0.11579,0.15177 0.42826,0.10982 0.69437,-0.0932 0.26612,-0.20303 1.04628,-0.27164 1.73369,-0.15247 0.68742,0.11917 1.42561,0.0887 1.64043,-0.0676 0.4388,-0.31938 3.5505,-0.1305 3.8273,0.2323 0.0983,0.12886 0.59884,0.25799 1.11228,0.28696 0.87231,0.0492 0.9413,-0.0228 1.0518,-1.09747 0.13018,-1.26618 2.49999,-4.81549 3.26555,-4.89088 0.26529,-0.0261 0.35952,-0.20848 0.2094,-0.40524 -0.20792,-0.27254 1.00803,-1.2725 5.10541,-4.19853 4.33689,-3.09706 5.87471,-4.02183 7.94169,-4.77573 4.53483,-1.65403 7.02744,-2.43852 7.36422,-2.31771 0.18078,0.0648 0.76335,-0.0689 1.29461,-0.29713 0.69933,-0.30049 0.88092,-0.52643 0.65795,-0.81869 -0.35453,-0.46468 0.48706,-2.14935 1.71549,-3.43406 0.46367,-0.4849 0.83749,-1.02696 0.83071,-1.20457 -0.015,-0.393 2.6508,-3.32151 5.14476,-5.65176 1.83317,-1.71283 7.46198,-4.86773 8.6602,-4.85396 0.28964,0.003 1.17156,-0.35923 1.95983,-0.80567 0.78826,-0.44646 1.56774,-0.72742 1.73218,-0.62436 0.16445,0.10305 0.54791,-0.003 0.85215,-0.23466 0.30425,-0.23212 0.95192,-0.53358 1.43929,-0.66992 0.48736,-0.13633 2.10516,-0.72073 3.59512,-1.29866 3.61373,-1.40172 4.4813,-1.62311 4.52737,-1.15532 0.0213,0.21611 0.25491,0.11622 0.51917,-0.22198 0.50075,-0.64085 2.95419,-0.40448 3.52289,0.33941 0.43341,0.56686 0.92816,0.003 2.1704,-2.47161 0.62666,-1.24857 1.59241,-2.66997 2.14612,-3.15866 0.5537,-0.4887 0.93082,-0.9886 0.83803,-1.1109 -0.0928,-0.12227 0.29729,-0.57788 0.86684,-1.01242 0.56956,-0.43453 1.11552,-0.68525 1.21325,-0.55715 0.0977,0.12809 0.47755,0.0379 0.84404,-0.20038 0.88036,-0.57245 3.08963,-1.02688 3.98729,-0.82016 0.96756,0.22282 1.30955,-0.10385 1.53646,-1.46759 0.16278,-0.97837 0.53591,-1.41148 2.47028,-2.86745 2.44849,-1.84291 2.30445,-1.56463 3.00335,-5.80256 0.15785,-0.95714 0.40906,-1.83338 0.55823,-1.94719 0.14917,-0.11381 0.13804,-0.52554 -0.0247,-0.91494 -0.16279,-0.38941 -0.11252,-0.97692 0.11171,-1.30558 0.22424,-0.32867 0.67572,-1.07454 1.00331,-1.6575 1.0882,-1.93653 2.57434,-3.93997 4.38437,-5.91054 2.42598,-2.64115 2.43913,-2.66315 1.8192,-3.04551 -0.86491,-0.53344 -1.2541,-3.9443 -0.51445,-4.50861 0.188,-0.14344 0.3551,-0.58457 0.37133,-0.98029 0.0162,-0.39573 0.15203,-0.7347 0.30177,-0.75328 0.14974,-0.0186 0.50228,-0.42253 0.78338,-0.89769 0.28112,-0.47515 0.79523,-1.14704 1.14247,-1.49309 0.34725,-0.34605 0.89798,-1.1427 1.22386,-1.77032 0.32587,-0.62763 1.02128,-1.61449 1.54533,-2.19302 0.54488,-0.6015 0.82202,-1.22333 0.6473,-1.45233 -0.44765,-0.58675 0.14241,-1.54951 1.79571,-2.92997 1.4004,-1.1693 2.80075,-1.47551 3.36507,-0.73584 0.33279,0.43619 1.54194,-0.19672 2.10359,-1.1011 0.40251,-0.64811 0.3809,-0.98479 -0.0866,-1.3501 -0.34256,-0.26768 -0.81489,-0.34017 -1.0496,-0.16109 -0.23472,0.17907 -0.44619,0.12828 -0.46994,-0.11287 -0.0238,-0.24115 -0.34215,-0.35076 -0.70757,-0.24357 -0.36541,0.10719 -1.0164,0.16871 -1.44664,0.13674 -2.38458,-0.17725 -3.70938,-0.0961 -4.17078,0.25537 -0.62559,0.47683 -1.10416,-0.0203 -0.68063,-0.707 0.16668,-0.27024 0.81334,-0.44103 1.43703,-0.37953 0.62368,0.0615 1.25613,0.0186 1.40544,-0.0953 0.14931,-0.11392 0.78724,-0.074 1.41763,0.0887 0.63039,0.16267 1.28594,0.18913 1.45679,0.0588 0.17844,-0.13614 -0.021,-0.31337 -0.46874,-0.41647 -0.42865,-0.0987 -0.78383,-0.2468 -0.78929,-0.32909 -0.005,-0.0823 -0.2508,-0.29817 -0.5452,-0.47975 -0.77498,-0.47798 -0.56271,-1.62661 0.24521,-1.32685 0.33865,0.12566 0.79554,0.4599 1.0153,0.74278 0.21963,0.28297 0.5327,0.41274 0.69543,0.28859 0.16273,-0.12416 0.60061,0.17369 0.97307,0.66188 0.37246,0.48819 0.81034,0.78603 0.97307,0.66188 0.16273,-0.12415 0.44133,-0.0351 0.6191,0.19793 0.17777,0.23301 0.92473,0.40383 1.65991,0.37959 1.33457,-0.044 1.33625,-0.0452 1.07085,-0.78512 -0.21256,-0.59261 -0.009,-0.93667 1.01402,-1.7175 0.75071,-0.57275 1.22201,-1.17422 1.13998,-1.45485 -0.16316,-0.55812 1.14874,-3.56796 1.75764,-4.03251 0.22872,-0.1745 0.31427,-0.45041 0.19012,-0.61314 -0.12415,-0.16273 -0.0831,-0.40471 0.0913,-0.53773 0.40963,-0.31252 0.58807,-1.63953 0.27555,-2.04916 -0.13302,-0.17435 0.0126,-0.51114 0.32359,-0.74841 0.47575,-0.36297 0.6936,-1.75808 0.62459,-4.00002 -0.0403,-1.30948 -0.60908,-3.5445 -0.91239,-3.58528 -0.18987,-0.0255 -1.12367,0.45143 -2.07511,1.05992 -0.95144,0.60849 -1.832,0.97251 -1.95682,0.80891 -0.14629,-0.19175 0.67005,-0.86571 2.29758,-1.89682 1.69989,-1.07696 2.44669,-1.70138 2.28629,-1.91161 -0.35728,-0.4683 0.3191,-3.98534 0.91603,-4.7632 0.40894,-0.53288 0.38484,-0.69662 -0.11189,-0.76019 -0.3482,-0.0446 -0.93341,0.009 -1.30045,0.11795 -0.36705,0.10943 -0.77213,0.0617 -0.90018,-0.10619 -0.29658,-0.38873 -0.10603,-0.52694 0.96537,-0.7002 1.27254,-0.2058 2.70924,-1.06652 2.65749,-1.59208 -0.0248,-0.25222 -0.35396,-0.36268 -0.73139,-0.24546 -0.37742,0.11723 -1.18962,0.21177 -1.80488,0.21009 -0.61526,-0.002 -1.36698,0.18642 -1.6705,0.41798 -0.30351,0.23156 -0.65342,0.28788 -0.77757,0.12515 -0.12415,-0.16273 -0.54749,-0.0504 -0.94076,0.24965 -0.39326,0.30004 -0.859,0.44883 -1.03499,0.33065 -0.17598,-0.11818 -1.75725,0.74016 -3.51394,1.90743 -2.1022,1.39685 -3.24119,1.98271 -3.3321,1.71393 -0.15118,-0.447 2.91029,-2.88554 4.86071,-3.87169 2.72575,-1.37817 4.51773,-2.0545 4.7247,-1.78322 0.12143,0.15915 0.28682,0.11681 0.36753,-0.0941 0.0807,-0.21091 0.3839,-0.29668 0.67375,-0.19059 0.28985,0.10609 1.18288,0.16644 1.98451,0.13411 1.71041,-0.069 4.05827,-1.60788 3.52315,-2.30926 -0.1789,-0.23449 -0.49589,-0.40955 -0.70442,-0.38901 -0.20853,0.0205 -0.73829,-0.27231 -1.17725,-0.65076 -0.43895,-0.37845 -1.37487,-0.81026 -2.07981,-0.95957 -0.70494,-0.14932 -1.79553,-0.42313 -2.42354,-0.60847 -0.628,-0.18534 -1.32289,-0.19885 -1.54419,-0.03 -0.2213,0.16884 -0.87181,0.24386 -1.44557,0.16671 -0.57377,-0.0772 -1.25402,0.0205 -1.51168,0.21713 -0.25765,0.19657 -0.54063,0.14916 -0.62883,-0.10536 -0.19936,-0.5753 0.891,-1.74952 1.22188,-1.31584 0.13278,0.17405 0.38062,0.21026 0.55075,0.0805 0.17012,-0.1298 0.87791,-0.15954 1.57286,-0.0661 0.69495,0.0935 1.59962,0.0494 2.01038,-0.098 0.41077,-0.14734 0.84884,-0.13421 0.97349,0.0292 0.12466,0.16338 0.53466,0.35567 0.91113,0.4273 1.41129,0.26854 1.90998,0.44216 3.20783,1.11686 0.73277,0.38093 1.49471,0.90548 1.69322,1.16566 0.27058,0.35466 0.65713,0.24706 1.5444,-0.42987 1.1813,-0.90126 1.29258,-1.58162 0.20658,-1.26307 -0.31555,0.0926 -0.73925,-0.0487 -0.94155,-0.3138 -0.46524,-0.6098 -9.10463,-1.7765 -10.86156,-1.46679 -0.72319,0.12748 -1.41193,0.10459 -1.53053,-0.0509 -0.1186,-0.15545 -0.61223,-0.11223 -1.09695,0.096 -0.48473,0.20828 -0.97189,0.25998 -1.08258,0.11489 -0.11069,-0.14509 -0.40098,-0.11143 -0.64507,0.0748 -0.24409,0.18623 -0.52059,0.23796 -0.61444,0.11495 -0.31917,-0.41835 -5.49651,1.08169 -5.88011,1.70366 -0.15454,0.25055 -0.55923,0.47991 -0.89933,0.5097 -0.52309,0.0458 -0.555,-0.005 -0.20715,-0.32715 0.90272,-0.83706 3.49464,-2.49371 3.77585,-2.41337 0.34145,0.0976 3.00786,-0.57185 4.24562,-1.06586 0.45536,-0.18174 1.1954,-0.10222 1.64454,0.17671 0.44913,0.27894 1.0181,0.35343 1.26436,0.16555 0.49361,-0.3766 1.65524,-0.40677 4.28733,-0.11136 0.95605,0.10731 1.8581,0.10368 2.00456,-0.008 0.14645,-0.11173 0.39692,-0.0395 0.55659,0.16047 0.15966,0.2 0.99383,0.35349 1.85369,0.3411 0.85985,-0.0124 2.30166,0.30582 3.20402,0.70715 2.53234,1.12627 2.01053,-0.21607 -1.33083,-3.42354 -0.18679,-0.17931 -0.42336,-0.26212 -0.52571,-0.18404 -0.10235,0.0781 -0.59726,-0.3278 -1.09981,-0.90197 -0.50254,-0.57417 -1.07541,-1.03233 -1.27303,-1.01814 -0.19762,0.0142 -0.81982,-0.39243 -1.38267,-0.90359 -0.56285,-0.51116 -1.29118,-0.85083 -1.61851,-0.75481 -0.32732,0.096 -0.66459,-0.0282 -0.74947,-0.27603 -0.0849,-0.24783 -0.77117,-0.48009 -1.52509,-0.51614 -0.75391,-0.036 -1.47242,-0.19879 -1.59667,-0.36165 -0.33773,-0.44267 -2.32891,-0.44664 -2.93004,-0.006 -0.2889,0.21185 -0.6285,0.24989 -0.75467,0.0845 -0.12616,-0.16536 -0.86492,-0.16735 -1.64169,-0.004 -1.82304,0.38239 -2.10958,0.007 -0.45987,-0.60276 0.70292,-0.25974 1.36257,-0.36144 1.46589,-0.22602 0.10333,0.13543 0.46456,0.0351 0.80274,-0.22288 0.34068,-0.25992 1.56992,-0.31061 2.75653,-0.11368 1.1779,0.1955 2.2517,0.2102 2.38622,0.0327 0.13451,-0.17751 0.32237,-0.0575 0.41745,0.26663 0.10671,0.3638 0.33704,0.46414 0.60177,0.26217 0.23589,-0.17997 0.76637,-0.0581 1.17886,0.27082 0.41249,0.32893 0.86869,0.50748 1.01378,0.39678 0.14509,-0.11069 0.47852,0.0802 0.74096,0.42417 0.26244,0.34398 1.09679,0.91862 1.8541,1.27696 1.21472,0.57477 2.88162,1.81222 4.95771,3.68044 0.72532,0.65269 1.3438,2.39198 1.08814,3.06005 -0.24331,0.63581 0.53075,0.81478 2.09316,0.48394 1.51762,-0.32135 1.92139,-0.86083 1.2767,-1.70583 -0.23365,-0.30625 -0.35928,-0.7281 -0.27916,-0.93744 0.16784,-0.4386 -1.27301,-2.05794 -2.84706,-3.19973 -0.59397,-0.43086 -1.06621,-0.88555 -1.04942,-1.01043 0.0168,-0.12487 -0.31253,-0.27317 -0.73183,-0.32955 -0.4193,-0.0564 -0.78132,-0.29499 -0.80448,-0.53023 -0.0232,-0.23525 -0.39907,-0.51074 -0.83533,-0.61222 -0.43627,-0.10147 -1.76544,-0.65393 -2.95371,-1.22768 -1.18828,-0.57376 -2.33211,-0.91227 -2.54185,-0.75226 -0.20973,0.16002 -0.4872,0.15217 -0.61659,-0.0174 -0.12939,-0.1696 -0.49356,-0.36571 -0.80926,-0.4358 -2.01773,-0.44797 -2.66898,-0.52073 -4.08531,-0.45648 -0.87041,0.0395 -1.82353,-0.0232 -2.11803,-0.13942 -0.29451,-0.11616 -0.72857,-0.0639 -0.96458,0.11618 -0.23601,0.18006 -0.53068,0.19424 -0.65484,0.0315 -0.12415,-0.16273 -0.42725,-0.14212 -0.67355,0.0458 -0.2463,0.18791 -0.76874,0.40044 -1.16098,0.47228 -0.79979,0.14648 -2.03265,0.47311 -3.93574,1.04272 -0.70656,0.21148 -2.12413,1.04534 -3.15014,1.85304 -1.87265,1.47417 -3.09366,1.60207 -1.35621,0.14207 1.7769,-1.49316 4.60032,-3.32897 4.93102,-3.20619 0.1832,0.068 0.80383,-0.0848 1.37918,-0.33966 1.23992,-0.54919 3.15032,-0.87777 4.50977,-0.77566 0.5376,0.0404 1.07944,-0.004 1.20409,-0.0995 0.12465,-0.0951 0.81343,-0.094 1.53064,0.002 0.71721,0.0964 1.48082,0.0404 1.69692,-0.12442 0.2161,-0.16487 1.51635,-0.0607 2.88946,0.23154 1.37311,0.29222 2.91197,0.59265 3.41971,0.66761 0.50773,0.075 1.06953,0.32816 1.24843,0.56265 0.1789,0.23449 0.5212,0.40706 0.76066,0.38348 0.23946,-0.0236 0.63254,0.21555 0.87352,0.5314 0.24098,0.31586 0.53879,0.4975 0.66179,0.40366 0.12301,-0.0939 0.73059,0.12719 1.35018,0.49119 0.61959,0.364 1.44518,0.84 1.83463,1.05778 0.59613,0.33333 2.26279,1.86713 3.0284,2.78697 0.11664,0.14012 0.29937,-0.57856 0.4061,-1.59708 0.10672,-1.01851 0.38639,-1.99859 0.62149,-2.17796 0.23509,-0.17936 0.44072,-0.64989 0.45695,-1.04562 0.0162,-0.39572 0.1865,-0.73495 0.37838,-0.75385 0.19187,-0.0189 0.2854,-0.21962 0.20786,-0.44603 -0.0776,-0.22643 0.60062,-1.07856 1.50705,-1.89363 0.90643,-0.81507 1.79388,-1.80189 1.97212,-2.19293 0.36258,-0.79548 5.0215,-4.23157 5.76748,-4.25368 0.26347,-0.008 1.29469,-0.54964 2.29159,-1.20407 0.9969,-0.65442 2.03678,-1.10406 2.31083,-0.99918 0.27406,0.10488 0.57458,0.11449 0.66783,0.0213 0.74325,-0.74231 1.52966,-0.99129 3.58106,-1.13379 1.29936,-0.0902 2.52546,-0.28845 2.72466,-0.44043 0.19921,-0.15198 0.85118,-0.22811 1.44882,-0.16918 0.59765,0.0589 1.29191,-0.0495 1.54281,-0.24088 0.2509,-0.19142 0.55776,-0.2149 0.68191,-0.0522 0.12415,0.16273 0.39686,0.17505 0.60601,0.0274 0.20915,-0.14767 0.90539,-0.13239 1.5472,0.0339 0.64181,0.16634 1.70624,0.38813 2.36542,0.49287 1.39785,0.22211 1.86001,0.66448 1.21129,1.15942 -0.25256,0.19268 -0.90318,0.0571 -1.44583,-0.30121 -0.54264,-0.35834 -1.11698,-0.55208 -1.2763,-0.43052 -0.15933,0.12155 -0.99386,0.12632 -1.85451,0.0106 -1.56937,-0.21103 -1.90701,-0.12698 -2.78296,0.69276 -0.2596,0.24294 -0.9724,0.39237 -1.58402,0.33205 -0.61161,-0.0603 -1.63074,0.15143 -2.26474,0.47052 -0.87654,0.44116 -1.21437,0.43272 -1.40999,-0.0352 -0.20197,-0.48315 -0.74905,-0.45302 -2.54554,0.14016 -2.37876,0.78544 -4.19713,1.62806 -4.01853,1.86215 0.0569,0.0746 0.5941,0.0195 1.19373,-0.12258 0.95027,-0.2251 0.65212,0.0929 -2.32267,2.47747 -1.8771,1.50464 -3.32585,2.84981 -3.21945,2.98927 0.10639,0.13945 -0.23034,0.72367 -0.74831,1.29825 -0.51796,0.57459 -1.00146,1.54618 -1.07444,2.15909 -0.073,0.61291 -0.26445,1.42555 -0.42549,1.80586 -0.16104,0.38032 -0.21214,1.26187 -0.11355,1.95901 0.0986,0.69714 0.094,1.50097 -0.0101,1.78629 -0.10413,0.28533 -0.042,0.71187 0.13806,0.94788 0.18006,0.23601 0.19424,0.53069 0.0315,0.65484 -0.40255,0.30712 -0.63319,-0.0577 -1.02366,-1.61934 -0.78036,-3.12097 0.37502,-6.96706 3.00595,-10.00636 0.97972,-1.13179 2.07429,-2.24766 2.43236,-2.47971 1.1174,-0.72414 1.39043,-1.07275 0.96708,-1.23475 -0.50355,-0.19271 -5.77704,3.77836 -5.49992,4.14158 0.10969,0.14377 -0.61985,0.97322 -1.62121,1.84322 -1.36004,1.18164 -1.86981,1.87164 -2.01498,2.72738 -0.10689,0.63005 -0.49115,1.51577 -0.85392,1.96826 -0.36276,0.45249 -0.56175,0.95093 -0.44219,1.10764 0.28048,0.36764 0.10103,1.71111 -0.26596,1.9911 -0.22688,0.1731 0.67128,3.44846 1.09956,4.00981 0.0599,0.0785 0.55283,-0.0637 1.09535,-0.3162 1.0066,-0.4684 2.43478,-0.58662 3.92361,-0.32478 0.76947,0.13532 0.84727,-0.004 1.02902,-1.83828 0.1316,-1.32846 0.4518,-2.17938 0.9684,-2.57351 0.42449,-0.32386 0.70039,-0.79766 0.61313,-1.0529 -0.22956,-0.67138 12.57951,-10.44394 13.16608,-10.04494 0.22299,0.15169 0.7272,0.0303 1.12046,-0.26973 0.39326,-0.30003 0.80476,-0.4279 0.91444,-0.28414 0.10968,0.14376 0.55335,0.10408 0.98593,-0.0882 1.81392,-0.80618 3.73812,-1.20585 5.07826,-1.05478 0.78627,0.0886 1.58873,0.0397 1.78324,-0.10867 0.19451,-0.1484 0.45523,-0.13667 0.57938,0.0261 0.12415,0.16273 0.41393,0.15229 0.64395,-0.0232 0.57313,-0.43727 4.25772,0.66366 3.91372,1.1694 -0.1449,0.21302 -0.58923,0.29091 -0.9874,0.17309 -0.39818,-0.11782 -0.8757,-0.0984 -1.06118,0.0431 -0.18547,0.1415 -0.52321,0.0135 -0.75054,-0.28447 -0.22732,-0.29796 -0.9236,-0.45133 -1.54728,-0.34082 -0.62367,0.11051 -1.43687,0.16873 -1.80709,0.12938 -0.37023,-0.0393 -0.86222,0.0727 -1.09331,0.24901 -0.23109,0.17631 -0.78962,0.18116 -1.24118,0.0108 -0.85497,-0.32261 -1.73277,0.0406 -1.34056,0.55467 0.12416,0.16273 0.026,0.44824 -0.21807,0.63447 -0.2441,0.18623 -0.53438,0.21989 -0.64507,0.0748 -0.11069,-0.14509 -0.59785,-0.0934 -1.08258,0.11489 -0.48472,0.20827 -1.00739,0.21558 -1.16149,0.0162 -0.56279,-0.72804 -2.55737,0.17371 -6.63423,2.99931 -2.84216,1.96985 -4.71093,3.49394 -5.9153,4.82423 -1.81658,2.00654 -3.66632,5.27534 -3.27525,5.78793 0.12207,0.15999 0.0222,0.44326 -0.22187,0.62949 -0.6461,0.49293 -0.0701,1.0359 0.73978,0.69735 0.37942,-0.15861 0.94087,-0.0439 1.24766,0.25488 0.81924,0.79788 1.45478,0.39256 1.00947,-0.64381 -0.25305,-0.58893 -0.18093,-1.05257 0.21012,-1.35092 0.32746,-0.24984 0.52266,-0.70219 0.43377,-1.00522 -0.46171,-1.57407 8.66559,-11.14544 11.39057,-11.94476 1.30653,-0.38324 0.94555,0.44365 -0.7101,1.62662 -2.69652,1.92668 -8.08059,6.74105 -7.86085,7.02906 0.10818,0.1418 -0.13616,0.51176 -0.54299,0.82214 -0.40682,0.31039 -0.6381,0.69748 -0.51395,0.86021 0.12416,0.16273 0.0907,0.39887 -0.0743,0.52477 -0.58456,0.44598 -1.27937,3.03077 -1.12675,4.19169 0.13496,1.02663 0.24479,1.18129 0.85673,1.20639 0.54895,0.0225 0.91036,-0.26209 1.65824,-1.30582 1.15413,-1.61069 10.21286,-8.95878 11.00933,-8.93034 0.30256,0.0108 1.13478,-0.29648 1.84938,-0.68285 1.83735,-0.99343 5.07612,-2.21061 5.47548,-2.05778 0.1851,0.0708 0.77274,-0.0613 1.30587,-0.29371 1.41046,-0.61477 5.19395,-1.32737 5.42683,-1.02212 0.10959,0.14363 0.39896,0.10878 0.64305,-0.0774 0.24656,-0.18811 0.64446,-0.0756 0.89528,0.25314 0.58309,0.76428 -0.19177,1.35545 -1.25216,0.95532 -0.45155,-0.17039 -0.99821,-0.17461 -1.21478,-0.009 -0.21657,0.16523 -0.72925,0.25531 -1.13927,0.20017 -0.96671,-0.12999 -3.5804,1.14179 -7.38568,3.59374 -2.62884,1.69391 -3.33464,2.32481 -5.14854,4.60216 -1.15614,1.45153 -2.39465,2.87686 -2.75224,3.1674 -0.35761,0.29053 -0.54861,0.66139 -0.42445,0.82412 0.12415,0.16273 -0.0201,0.48343 -0.32056,0.71266 -1.21302,0.92547 -2.43419,4.26616 -1.84281,5.0413 0.25749,0.3375 0.53434,0.20279 1.27752,-0.62163 0.52183,-0.57888 1.00014,-1.1867 1.06291,-1.35073 0.19841,-0.51847 7.12677,-5.85959 7.37919,-5.68867 0.13261,0.0898 1.16649,-0.41843 2.29752,-1.12938 1.13102,-0.71094 2.19403,-1.20426 2.36225,-1.09626 0.16822,0.10801 0.49447,0.0525 0.725,-0.12341 0.23053,-0.17588 0.52073,-0.18665 0.64488,-0.0239 0.12416,0.16273 0.62476,-0.009 1.11245,-0.38063 0.78115,-0.59598 5.75032,-1.66703 8.23093,-1.7741 0.49163,-0.0212 1.26368,-0.32071 1.71566,-0.66555 0.55956,-0.42691 0.93822,-0.47435 1.18669,-0.14867 0.28344,0.3715 0.15024,0.57365 -0.59654,0.90533 -0.5288,0.23486 -2.80897,1.59464 -5.06704,3.02174 -2.25807,1.4271 -4.24823,2.54874 -4.42256,2.49253 -0.52308,-0.16864 -10.98547,7.66027 -10.95736,8.19929 0.0135,0.25966 -0.41196,1.06474 -0.94555,1.78907 -0.84487,1.14687 -0.89978,1.50361 -0.42517,2.76209 0.57572,1.52659 1.19531,1.95518 1.33413,0.92285 0.0973,-0.72359 7.54155,-6.54772 7.85089,-6.14227 0.2092,0.2742 -2.33366,2.78332 -4.4813,4.42184 -1.6936,1.29211 -3.11707,3.24553 -2.90124,3.98133 0.13681,0.4664 0.34527,0.38259 1.14265,-0.45941 0.53643,-0.56644 0.91677,-1.20083 0.84522,-1.40976 -0.081,-0.23655 1.54298,-1.65633 4.30444,-3.76317 3.60798,-2.75267 4.58503,-3.36306 5.2418,-3.27475 1.2042,0.16193 0.94622,0.51255 -1.23897,1.68389 -2.70319,1.449 -5.00583,3.41381 -7.38541,6.30188 -1.76165,2.13809 -1.9448,2.51259 -1.50847,3.08449 0.27315,0.35802 0.42627,0.83481 0.34027,1.05954 -0.18119,0.47347 0.60401,1.62823 0.9591,1.41049 0.13155,-0.0807 0.5062,-0.27982 0.83257,-0.44257 0.73419,-0.36613 0.66767,-0.46652 -0.40464,-0.61072 -1.06877,-0.14372 -1.03144,-0.62768 0.062,-0.80452 0.45745,-0.074 1.46941,-0.56568 2.2488,-1.09266 0.77939,-0.52698 1.49333,-0.85835 1.58653,-0.73637 0.0932,0.12198 0.4436,0.0126 0.77867,-0.24301 0.33506,-0.25563 0.62647,-0.28939 0.64758,-0.075 0.0211,0.21436 0.30965,0.31018 0.64121,0.21293 0.93062,-0.27297 1.76304,-1.0099 1.51218,-1.3387 -0.13615,-0.17846 1.00707,-1.23643 2.88092,-2.66607 1.87386,-1.42964 3.19624,-2.25278 3.33239,-2.07432 0.12415,0.16273 0.69173,-0.0597 1.26128,-0.49419 0.56956,-0.43454 1.13713,-0.65692 1.26129,-0.49419 0.12415,0.16273 0.48113,0.10102 0.79328,-0.13713 0.91068,-0.6948 1.71779,-0.81298 1.87569,-0.27464 0.11436,0.38985 -0.36463,0.66033 -2.18758,1.23533 -2.56365,0.80862 -9.17651,4.95863 -8.76365,5.49977 0.13343,0.17488 -1.02912,1.24879 -2.88307,2.66325 -1.87386,1.42963 -3.19623,2.25278 -3.33239,2.07432 -0.12415,-0.16273 -0.62516,0.009 -1.11335,0.38132 -0.69036,0.52671 -0.78729,0.8087 -0.43615,1.26894 0.24831,0.32546 0.3225,0.69014 0.16488,0.8104 -0.34115,0.26027 0.62795,0.91734 1.54303,1.04619 0.35609,0.0501 0.92984,-0.12429 1.275,-0.38763 0.34516,-0.26334 1.16976,-0.57437 1.83243,-0.69118 0.66267,-0.11682 1.28984,-0.31641 1.3937,-0.44355 0.10387,-0.12713 1.3013,-0.91275 2.66096,-1.74582 2.31349,-1.41748 3.17726,-1.62207 2.57694,-0.61036 -0.69359,1.16887 4.87417,-3.25358 5.80136,-4.608 0.75175,-1.09814 2.03156,-1.81911 1.9334,-1.08917 -0.028,0.20841 -0.13094,0.45815 -0.2287,0.55497 -0.0978,0.0968 -0.32122,0.40214 -0.49657,0.67847 -0.71297,1.12362 -3.8522,4.23728 -5.67141,5.62523 -2.96269,2.26036 -9.46385,4.73472 -10.94788,4.16681 -0.7502,-0.28709 -0.84681,0.10488 -0.4552,1.8469 0.20939,0.93146 0.3632,2.08841 0.3418,2.57099 -0.0254,0.57163 0.12183,0.86719 0.42229,0.84805 0.25367,-0.0162 0.69602,0.12018 0.983,0.30299 0.58126,0.37027 2.54373,-0.27292 6.28386,-2.05949 1.67748,-0.80129 6.36742,-4.53817 6.35265,-5.06171 -0.007,-0.23777 0.40531,-0.80685 0.9156,-1.2646 1.17951,-1.05808 1.61645,-0.24564 0.46487,0.86438 -0.43361,0.41797 -0.84848,1.01892 -0.92193,1.33545 -0.18172,0.7831 -6.57474,5.61788 -7.29962,5.52041 -0.31116,-0.0418 -0.92227,0.19594 -1.35804,0.52841 -0.97139,0.74111 -3.24071,1.36424 -4.4004,1.20831 -0.47257,-0.0636 -0.87831,0.0265 -0.90165,0.20005 -0.0233,0.17358 0.52385,0.32397 1.21597,0.3342 1.81236,0.0268 2.78751,0.18883 3.02721,0.50301 0.37368,0.48979 -0.34054,0.71978 -1.12494,0.36226 -0.41999,-0.19144 -1.15563,-0.17962 -1.63476,0.0263 -0.47913,0.20587 -0.96171,0.2556 -1.0724,0.11051 -0.1107,-0.14508 -0.33441,-0.16221 -0.49714,-0.0381 -0.16273,0.12415 -0.18703,0.36838 -0.054,0.54274 0.29675,0.38896 1.63145,0.59423 2.00595,0.30851 0.15059,-0.1149 0.86834,-0.15184 1.59499,-0.0821 1.51321,0.14523 4.02561,-1.1578 6.44528,-3.34277 1.3638,-1.23151 1.55677,-1.30857 1.95844,-0.7821 0.42383,0.55553 0.28044,0.69805 -2.93914,2.9214 -2.5178,1.73872 -3.61378,2.31813 -4.27909,2.26222 -0.49192,-0.0413 -0.98958,-0.003 -1.10591,0.0862 -0.11634,0.0888 -0.82444,0.1024 -1.57356,0.0303 -1.34794,-0.12972 -2.59975,0.40656 -2.19312,0.93953 0.11578,0.15177 0.009,0.56361 -0.23794,0.91522 -0.99369,1.41653 0.31702,1.59106 2.82421,0.37605 1.3995,-0.6782 2.0533,-0.11852 0.89441,0.76565 -0.50175,0.3828 -1.01385,0.56286 -1.13801,0.40014 -0.12415,-0.16273 -0.59853,-0.0114 -1.05417,0.33617 -0.45564,0.34763 -1.08361,0.59774 -1.39549,0.55581 -0.40834,-0.0549 -0.55401,0.0562 -0.52045,0.39706 0.0256,0.26033 -0.22132,0.67774 -0.5488,0.92759 -0.65385,0.49885 -0.94561,1.74822 -0.53419,2.28749 0.31954,0.41882 2.62692,6.91342 3.1707,8.92461 0.2164,0.80034 0.28053,1.54132 0.14252,1.64662 -0.13802,0.1053 -0.0874,0.40584 0.11254,0.66787 0.19991,0.26203 0.21276,1.53987 0.0285,2.83964 -0.33415,2.35772 -0.33254,2.36346 0.69033,2.46433 0.5639,0.0556 1.11508,0.0326 1.22484,-0.0512 0.30656,-0.23389 1.90605,0.16504 3.43301,0.85624 0.75722,0.34276 1.46723,0.55418 1.57781,0.46981 0.11058,-0.0844 0.99007,0.40317 1.95443,1.0834 0.96436,0.68023 1.85659,1.15804 1.98274,1.06179 0.12615,-0.0962 0.7469,0.32539 1.37944,0.93696 1.43849,1.39081 2.70365,2.03308 3.22351,1.63646 0.27889,-0.21277 0.51434,-0.0374 0.7801,0.58114 0.51452,1.19744 1.648,1.45523 2.09421,0.47628 0.22631,-0.49651 0.406,-0.63048 0.56541,-0.42154 0.12853,0.16845 0.49391,0.10773 0.81197,-0.13493 0.31807,-0.24266 1.1651,-0.3623 1.88231,-0.26585 0.7172,0.0964 1.42626,0.0821 1.57568,-0.0319 0.14942,-0.114 1.02524,-0.045 1.94628,0.15342 0.92103,0.19839 1.82607,0.24514 2.0112,0.1039 0.18513,-0.14124 0.53975,0.009 0.78806,0.33494 0.66847,0.87618 1.31113,0.13477 0.97681,-1.12689 -0.41637,-1.57128 0.58819,-2.87567 4.53183,-5.88443 3.99728,-3.04969 5.41696,-3.82332 5.88657,-3.20779 0.25162,0.32981 0.0948,0.55062 -0.62052,0.8739 -2.08999,0.94452 -6.0328,3.72771 -5.98393,4.22399 0.0267,0.27112 -0.26748,0.73404 -0.65374,1.02873 -0.44243,0.33755 -0.60472,0.80777 -0.43862,1.27083 0.145,0.40427 0.0687,0.88375 -0.16951,1.06551 -0.23823,0.18176 -0.35934,0.5821 -0.26913,0.88965 0.0902,0.30755 -0.0239,0.82701 -0.2535,1.15437 -0.35469,0.50561 -0.28475,0.66627 0.46474,1.06752 0.95725,0.51248 1.26029,0.40932 1.71289,-0.58309 0.71637,-1.57078 7.60327,-7.75018 8.34762,-7.49006 0.22571,0.0789 1.38456,-0.33961 2.57522,-0.92997 1.39337,-0.69086 2.6357,-1.02806 3.48614,-0.94622 0.72671,0.0699 1.42252,0.0499 1.54623,-0.0445 0.12371,-0.0944 0.3773,0.0281 0.56352,0.2722 0.51179,0.6708 -0.18126,0.98271 -1.62674,0.73212 -0.71143,-0.12333 -2.2591,0.0885 -3.43926,0.47075 -1.86244,0.60324 -2.70961,1.14718 -6.41647,4.11983 -2.71299,2.17563 -4.3003,3.6448 -4.35182,4.02792 -0.0614,0.45641 0.37741,0.96676 1.80389,2.09812 2.29523,1.8204 2.86716,1.95358 3.09593,0.72091 0.14194,-0.76478 0.85467,-1.43676 4.36253,-4.11304 2.598,-1.98213 4.27874,-3.08638 4.41861,-2.90305 0.12415,0.16273 0.5925,0.0173 1.04077,-0.32307 0.44818,-0.34053 1.34814,-0.711 1.99971,-0.82352 0.65157,-0.11252 1.40569,-0.3665 1.67581,-0.56441 0.27013,-0.19789 0.89872,-0.36151 1.39688,-0.36359 0.49816,-0.002 1.22101,-0.24431 1.60634,-0.53829 0.38532,-0.29398 0.71727,-0.36511 0.73766,-0.15806 0.0204,0.20705 -0.28986,0.57595 -0.68944,0.81978 -0.39957,0.24384 -0.89638,0.54606 -1.10402,0.67162 -0.20763,0.12555 -0.68576,0.18908 -1.06252,0.14117 -0.91278,-0.11607 -6.61668,2.84931 -9.04667,4.70325 -1.77525,1.35441 -4.58827,4.18253 -4.65519,4.68017 -0.0153,0.11384 0.33898,0.59927 0.78731,1.07874 l 0.81515,0.87177 0.24125,-1.17739 c 0.13268,-0.64756 0.52495,-1.51386 0.87171,-1.92512 0.34675,-0.41125 0.97768,-1.18477 1.40206,-1.71894 0.42438,-0.53417 1.04139,-1.1059 1.37113,-1.27052 0.32974,-0.16462 0.90687,-0.51768 1.28251,-0.78457 0.37564,-0.2669 0.78456,-0.35212 0.90871,-0.18939 0.12487,0.16367 -0.55093,0.88842 -1.51251,1.62205 -2.43612,1.85861 -3.12778,2.73805 -3.553,4.5176 -0.31055,1.2997 -0.23875,1.65516 0.44437,2.19988 0.52713,0.42035 1.01234,0.49897 1.37443,0.22271 0.30782,-0.23484 0.45809,-0.56013 0.33394,-0.72286 -0.26969,-0.35348 6.87095,-5.87587 11.21521,-8.67356 2.60257,-1.67605 2.15866,-1.26819 -3.75438,3.44948 -5.77048,4.60393 -6.7617,5.5086 -7.1056,6.48515 -0.28816,0.81829 -0.20957,1.384 0.28176,2.02799 l 0.68141,0.89313 2.1438,-1.94499 c 1.17908,-1.06975 2.6466,-2.52837 3.26115,-3.24138 3.14402,-3.64778 5.14624,-5.66387 7.21373,-7.26372 1.31408,-1.01686 2.18535,-1.89053 2.05531,-2.06098 -0.12505,-0.16391 0.55504,-0.89155 1.52484,-1.63145 0.96282,-0.73458 1.70085,-1.49279 1.64007,-1.68494 -0.0993,-0.31397 1.8943,-2.08861 4.25122,-3.78429 1.267,-0.91154 1.00155,-0.15005 -0.38875,1.1152 -1.07509,0.97839 -3.38299,3.31581 -5.35202,5.42049 -1.72035,1.83885 -4.51981,4.68236 -5.80188,5.89318 -0.74817,0.70659 -1.39458,1.50208 -1.43647,1.76775 -0.0419,0.26567 -0.71524,0.97062 -1.49634,1.56656 -0.7811,0.59593 -1.3186,1.21666 -1.19445,1.37939 0.12415,0.16273 0.0423,0.43583 -0.18194,0.6069 -0.22422,0.17107 -0.75422,0.92587 -1.17777,1.67734 -0.75457,1.33875 -0.75159,1.35963 0.14755,1.03525 0.55376,-0.19978 0.1678,0.14586 -0.97331,0.87164 l -1.89097,1.20271 1.40816,0.12424 c 0.77448,0.0683 1.60043,-0.0225 1.83545,-0.20176 0.23502,-0.17931 0.52889,-0.19287 0.65304,-0.0301 0.26454,0.34673 9.6837,-6.7244 9.57364,-7.1871 -0.0389,-0.16343 0.46388,-1.11319 1.11722,-2.11058 0.65333,-0.99739 1.25193,-2.086 1.3302,-2.41914 0.3335,-1.41939 0.45215,-1.80892 0.80097,-2.62953 0.44418,-1.04494 0.88853,-1.42752 1.19359,-1.02766 0.12416,0.16273 0.10081,0.39118 -0.0519,0.50767 -0.15269,0.11649 -0.41019,0.94487 -0.57223,1.84085 -0.16204,0.89598 -0.53123,1.80958 -0.82042,2.03021 -0.2892,0.22064 -0.42423,0.5343 -0.30008,0.69703 0.12416,0.16273 -0.096,0.54136 -0.48929,0.84139 -0.39326,0.30004 -0.66185,0.70725 -0.59686,0.90491 0.15445,0.46977 -5.93686,6.12399 -7.93444,7.3651 -3.41459,2.1215 0.1582,1.11917 3.9791,-1.11632 1.85136,-1.08318 2.63353,-1.27703 2.54668,-0.63116 -0.0814,0.60531 -7.76887,4.3383 -8.08385,3.92546 -0.20623,-0.27031 -2.60366,0.17223 -3.13687,0.57904 -0.21771,0.1661 -0.7653,0.16259 -1.21686,-0.008 -1.15389,-0.4354 -1.82844,0.16242 -0.949,0.84106 0.37747,0.29128 0.76112,0.62389 0.85256,0.73914 0.0914,0.11524 0.3075,-0.0195 0.48013,-0.29937 0.17263,-0.2799 0.41947,-0.37049 0.54854,-0.20132 0.12907,0.16917 0.60448,0.1711 1.05647,0.004 0.45199,-0.16682 1.23209,-0.23842 1.73355,-0.15911 2.04281,0.32311 4.80302,-1.13131 10.77982,-5.68012 4.75709,-3.62053 5.77987,-4.5318 6.6183,-5.89678 0.54543,-0.88796 0.89851,-1.7366 0.78463,-1.88587 -0.11389,-0.14927 -0.007,-0.42377 0.23674,-0.61 0.2441,-0.18623 0.57222,-0.1703 0.72916,0.0354 0.35459,0.46477 -0.95933,2.86553 -2.27222,4.15173 -0.53973,0.52876 -1.01471,1.20966 -1.05551,1.51312 -0.0976,0.72596 -8.4483,7.1228 -8.76186,6.71181 -0.12415,-0.16273 -0.54843,-0.0497 -0.94284,0.25124 -1.17121,0.89357 -4.36341,2.24101 -5.09777,2.15179 -0.37496,-0.0456 -0.81766,0.0209 -0.98378,0.14761 -0.16612,0.12674 -0.84004,0.22249 -1.49758,0.21277 -1.4657,-0.0217 -1.68386,0.42512 -0.78369,1.60499 0.46037,0.60342 1.06995,0.90719 1.84342,0.91863 0.63558,0.009 1.42407,0.20542 1.7522,0.4356 0.40543,0.28441 1.47339,0.10322 3.33263,-0.56541 2.43151,-0.87443 3.69027,-1.00983 2.75511,-0.29636 -0.49996,0.38144 -3.96093,1.56916 -5.2433,1.79938 -0.99947,0.17943 -1.09092,0.25734 -0.78015,0.66466 0.19502,0.25562 1.05436,0.28738 1.9267,0.0712 0.86606,-0.21461 1.65228,-0.28847 1.74714,-0.16413 0.28568,0.37445 1.02084,-0.37691 0.87786,-0.89719 -0.0897,-0.32646 -0.0136,-0.34305 0.23412,-0.051 1.28067,1.50959 9.81314,-2.61443 13.41841,-6.48555 2.49501,-2.679 2.61663,-2.85023 2.80397,-3.94794 0.0962,-0.5634 0.34712,-1.40236 0.55769,-1.86435 0.21058,-0.46199 0.23407,-1.035 0.0522,-1.27337 -0.18186,-0.23837 -0.13094,-0.58577 0.11315,-0.772 0.2441,-0.18623 0.54539,-0.20546 0.66954,-0.0427 0.12416,0.16273 0.0926,0.39745 -0.0701,0.52161 -0.16273,0.12415 -0.11303,0.46538 0.11045,0.7583 0.47947,0.62845 0.40087,1.66014 -0.15902,2.08731 -0.21835,0.16659 -0.47595,0.76545 -0.57244,1.33081 -0.13871,0.81277 -0.79909,1.57467 -3.15501,3.64009 -3.54421,3.10717 -8.72172,6.66853 -9.21094,6.33576 -0.19027,-0.12942 -0.72642,0.055 -1.19144,0.40975 -0.46503,0.35479 -1.02937,0.5747 -1.25409,0.4887 -0.22473,-0.086 -0.66702,0.0408 -0.98288,0.28179 -0.31585,0.24097 -0.65574,0.33137 -0.7553,0.20088 -0.0996,-0.1305 -1.39557,-0.0369 -2.88003,0.2079 -1.48446,0.24484 -2.83558,0.2685 -3.00249,0.0526 -0.43386,-0.56127 -0.9129,0.30174 -0.56124,1.01111 0.65248,1.31619 1.79676,1.73355 4.3641,1.59174 1.44935,-0.0801 2.65479,-0.29142 2.67877,-0.46971 0.024,-0.17828 0.1621,-0.16882 0.30694,0.021 0.36429,0.47749 -0.59979,1.11565 -1.6923,1.12021 -0.49816,0.002 -1.08952,0.14399 -1.31414,0.31536 -0.54934,0.41911 -1.81539,0.22036 -2.25341,-0.35376 -0.1951,-0.25572 -0.55443,-0.31258 -0.79853,-0.12635 -0.24409,0.18623 -0.24911,0.59379 -0.0112,0.90569 0.23796,0.3119 0.3583,0.69402 0.26744,0.84917 -0.0909,0.15514 -0.1486,1.42793 -0.12828,2.82841 0.0203,1.40048 -0.0762,3.2322 -0.21446,4.0705 l -0.25138,1.52417 2.00202,0.29982 c 1.10112,0.1649 2.15075,0.18635 2.33252,0.0477 0.18178,-0.13868 0.43208,-0.11901 0.55623,0.0437 0.12415,0.16273 0.40562,0.15863 0.62547,-0.009 0.21986,-0.16773 1.22284,-0.44064 2.22885,-0.60645 3.16844,-0.52222 6.41046,-1.772 8.26288,-3.18528 0.96612,-0.73709 1.94045,-1.26981 2.16518,-1.18381 0.53206,0.20361 3.69746,-2.20934 3.40365,-2.59445 -0.12519,-0.16409 0.50559,-0.82543 1.42464,-1.49368 0.90713,-0.65955 1.66607,-1.02895 1.68656,-0.82086 0.0204,0.208 -0.22123,0.57542 -0.53708,0.8164 -0.31586,0.24098 -0.4727,0.57128 -0.34855,0.73401 0.27487,0.36028 -3.25872,3.06471 -6.20611,4.74982 -2.6635,1.52282 -7.25132,3.58539 -7.67142,3.44889 -0.17459,-0.0567 -0.75246,0.0838 -1.28417,0.31225 -1.52792,0.65651 -3.86357,0.98364 -4.82926,0.67638 -0.48676,-0.15488 -1.06822,-0.14183 -1.29212,0.029 -0.2239,0.17082 -0.69443,0.10902 -1.04562,-0.13735 -0.86719,-0.60833 -2.38156,0.0747 -2.52464,1.13874 -0.0842,0.62607 0.0435,0.85939 0.53206,0.97189 1.33248,0.30685 5.6146,7.78155 6.17046,10.7709 0.11869,0.6383 0.41073,1.41605 0.64897,1.72832 0.23825,0.31227 0.30003,0.66934 0.1373,0.7935 -0.16273,0.12415 -0.0907,0.49466 0.16008,0.82335 0.25077,0.32869 0.53288,1.42997 0.62691,2.44728 0.18116,1.96009 -0.25707,6.59083 -0.65433,6.91416 -0.12972,0.10557 -0.41829,0.85776 -0.64128,1.67152 -0.22299,0.81375 -0.54821,1.58848 -0.7227,1.7216 -0.17449,0.13313 -0.26885,0.39753 -0.20968,0.58756 0.15529,0.49876 -3.84874,4.05618 -4.13827,3.6767 -0.12702,-0.1665 0.0917,-0.54892 0.48616,-0.84983 1.17121,-0.89356 3.31404,-3.61644 3.42198,-4.34828 0.0551,-0.37367 0.19043,-0.74849 0.3007,-0.83294 0.11027,-0.0844 0.33352,-0.78137 0.4961,-1.54873 0.16259,-0.76736 0.40805,-1.48097 0.54547,-1.58582 0.13742,-0.10484 0.0975,-0.39033 -0.0888,-0.63442 -0.18623,-0.2441 -0.20546,-0.54539 -0.0427,-0.66955 0.16273,-0.12415 0.16779,-0.39362 0.0112,-0.59882 -0.15655,-0.20519 -0.13693,-1.00775 0.0436,-1.78346 0.18053,-0.77572 0.11888,-1.68479 -0.13699,-2.02017 -0.25588,-0.33538 -0.44719,-0.82366 -0.42514,-1.08506 0.0221,-0.26141 -0.27281,-1.39508 -0.65525,-2.51928 -0.38244,-1.1242 -0.70615,-2.2464 -0.71938,-2.49376 -0.0132,-0.24736 -0.48513,-1.25649 -1.04869,-2.24251 -0.56356,-0.98601 -0.96536,-1.95397 -0.8929,-2.15102 0.0725,-0.19705 -0.57683,-1.35979 -1.44287,-2.58386 -1.3042,-1.84338 -1.7071,-2.21482 -2.34594,-2.16288 -1.12674,0.0916 -1.43734,1.26471 -0.70035,2.64513 0.33453,0.62658 0.63169,1.37749 0.66037,1.66868 0.0287,0.29119 0.27932,0.61638 0.55699,0.72264 0.6032,0.23084 1.91734,2.21179 1.91009,2.87931 -0.003,0.2596 0.44809,1.19363 1.00201,2.07562 0.91345,1.45443 1.1827,2.27632 1.58665,4.84314 0.0724,0.4597 0.3437,1.62184 0.60302,2.58253 0.53278,1.97376 0.53391,2.00614 0.19197,5.51471 -0.13743,1.41014 -0.45311,2.5839 -0.70151,2.60836 -0.75026,0.0739 -0.91479,-0.4831 -0.28472,-0.96381 0.32546,-0.2483 0.49644,-0.57639 0.37995,-0.72907 -0.11649,-0.15269 -0.14389,-1.02702 -0.0609,-1.94295 0.083,-0.91594 0.003,-2.0115 -0.17688,-2.43459 -0.18029,-0.42308 -0.19506,-0.98447 -0.0328,-1.24753 0.16224,-0.26305 0.11486,-0.71608 -0.10531,-1.00674 -0.22027,-0.29056 -0.49235,-1.06155 -0.60487,-1.71312 -0.11252,-0.65157 -0.33688,-1.35808 -0.49857,-1.57001 -0.16169,-0.21193 -0.17814,-0.55564 -0.0366,-0.7638 0.1416,-0.20816 -0.0589,-0.86856 -0.44545,-1.46755 -0.3866,-0.59899 -0.84763,-1.6047 -1.02453,-2.23491 -0.17691,-0.63021 -0.6216,-1.65423 -0.98822,-2.2756 l -0.66657,-1.12977 0.071,1.58414 c 0.0391,0.87127 0.20727,1.63816 0.3738,1.7042 0.16652,0.066 0.16178,0.22764 -0.0106,0.35913 -0.17234,0.13148 -0.16097,0.43877 0.0253,0.68286 0.18623,0.2441 0.20546,0.54539 0.0427,0.66954 -0.16273,0.12416 -0.17191,0.39447 -0.0204,0.60069 0.1515,0.20623 0.0803,1.26112 -0.15831,2.34422 -0.23858,1.0831 -0.58356,2.66281 -0.76661,3.51045 -0.18305,0.84765 -0.48166,1.65474 -0.6636,1.79354 -0.18192,0.1388 -0.3901,0.69357 -0.46261,1.23281 -0.21123,1.57086 -2.09486,3.95296 -4.95743,6.26936 -1.46265,1.18358 -2.80777,2.132 -2.98914,2.10762 -0.18137,-0.0244 0.76776,-1.03616 2.10919,-2.24837 1.85637,-1.67754 2.64793,-2.66556 3.31379,-4.13623 0.48116,-1.06272 1.18117,-2.31359 1.55558,-2.77971 0.3744,-0.46612 0.73286,-1.10064 0.79658,-1.41005 0.0637,-0.3094 0.31967,-1.65467 0.56878,-2.98948 0.24911,-1.3348 0.56301,-2.5109 0.69755,-2.61354 0.13454,-0.10265 0.0912,-0.38771 -0.0963,-0.63347 -0.1875,-0.24577 -0.38073,-1.46535 -0.42939,-2.7102 -0.0487,-1.24484 -0.19111,-2.39786 -0.31653,-2.56226 -0.12543,-0.1644 -0.10549,-0.39242 0.0443,-0.5067 0.22235,-0.16964 -0.30719,-1.80456 -0.87127,-2.68994 -0.0736,-0.11548 -0.11011,-0.38603 -0.0812,-0.60119 0.11317,-0.84166 -0.372,-0.84741 -1.46003,-0.0173 l -1.1364,0.86701 0.92334,1.98707 c 0.50784,1.0929 0.90351,2.31818 0.87927,2.72285 -0.0242,0.40467 0.10525,1.35908 0.28777,2.12091 0.18251,0.76183 0.28673,2.05149 0.23159,2.86591 l -0.10025,1.48076 -0.58224,-1.19411 c -0.32024,-0.65676 -0.52826,-1.34261 -0.46227,-1.52411 0.066,-0.18151 0.021,-0.55091 -0.1,-0.8209 -0.12097,-0.26998 -0.17204,-0.9213 -0.11347,-1.44737 0.0586,-0.52607 -0.0707,-1.02429 -0.28719,-1.10715 -0.21653,-0.0829 -0.26751,-0.24692 -0.11329,-0.36459 0.15423,-0.11766 0.0102,-0.75086 -0.32011,-1.4071 -0.33029,-0.65624 -0.43678,-1.20929 -0.23664,-1.229 0.44262,-0.0436 -0.12335,-1.51156 -0.66228,-1.71781 -0.21152,-0.0809 -0.98545,0.40984 -1.71985,1.09062 -0.73441,0.68079 -1.42196,1.12419 -1.52788,0.98535 -0.10593,-0.13884 -0.6955,0.13124 -1.31015,0.60018 -0.82376,0.62848 -1.19354,1.27284 -1.40663,2.45107 -0.15899,0.87914 -0.20821,1.7066 -0.10936,1.83878 0.21843,0.29183 -0.68166,2.06775 -1.27876,2.52331 -0.29365,0.22404 -0.35763,-0.0211 -0.20167,-0.77261 0.12563,-0.60541 0.39906,-1.11755 0.60761,-1.13808 0.20855,-0.0205 0.27942,-0.16811 0.15749,-0.32792 -0.12193,-0.15981 -0.12677,-0.99644 -0.0108,-1.85916 0.21068,-1.56678 0.20997,-1.56824 -0.61286,-1.26344 -0.45309,0.16783 -1.79975,0.33801 -2.99259,0.37818 -2.16553,0.0729 -2.17402,0.077 -5.61996,2.70606 -1.89813,1.44816 -3.4325,2.49432 -3.4097,2.3248 0.0228,-0.16952 1.18324,-1.17934 2.57876,-2.24405 1.39553,-1.0647 2.46954,-2.02294 2.38668,-2.12941 -0.16635,-0.21374 -2.06269,-0.0246 -4.54066,0.453 -0.88544,0.17065 -2.59141,0.35858 -3.79102,0.41763 -1.24736,0.0614 -2.81389,0.45543 -3.65917,0.92038 -0.81293,0.44715 -1.6407,0.75075 -1.83949,0.67468 -0.1988,-0.0761 -1.34127,0.60922 -2.53883,1.52289 -2.36355,1.80325 -3.23933,2.82734 -2.34234,2.73901 0.38413,-0.0378 0.49363,0.34731 0.39377,1.38499 -0.0761,0.79057 0.083,1.72744 0.35342,2.08193 0.72809,0.95432 0.90026,1.81371 0.43453,2.16903 -0.55167,0.42089 -1.08345,-0.33493 -0.94742,-1.34656 0.0603,-0.44862 -0.0484,-0.87616 -0.24161,-0.9501 -0.19321,-0.0739 -0.48135,-0.84815 -0.64032,-1.72046 -0.3461,-1.89929 -0.31008,-1.8401 -0.8631,-1.41818 -0.24409,0.18623 -0.55613,0.19138 -0.69341,0.0114 -0.35665,-0.46747 -0.63753,2.87558 -0.32898,3.91558 0.23525,0.79295 0.0717,1.01112 -1.86599,2.48948 -1.65814,1.26506 -2.5962,1.72098 -4.27795,2.07917 -2.10501,0.44835 -3.51963,1.02057 -7.27682,2.94352 -1.01834,0.52119 -1.9926,0.85475 -2.16502,0.74124 -0.17242,-0.11351 -0.50211,-0.0625 -0.73264,0.1134 -0.23053,0.17588 -0.50443,0.20802 -0.60865,0.0714 -0.10422,-0.13661 -0.64969,-0.14344 -1.21215,-0.0152 -0.74543,0.16999 -1.09007,0.0453 -1.27134,-0.46012 -0.39014,-1.08765 -1.74638,-1.05362 -3.23373,0.0811 -0.72066,0.54982 -1.41187,0.86653 -1.53602,0.7038 -0.12415,-0.16273 -0.59557,-0.0137 -1.04759,0.33116 -0.45573,0.34769 -1.24871,0.53562 -1.77999,0.42184 -0.52698,-0.11285 -1.1516,-0.0576 -1.38806,0.12282 -0.23646,0.18041 -0.80288,0.20935 -1.25871,0.0643 -0.45583,-0.14503 -1.39434,0.021 -2.08558,0.36886 -0.69126,0.3479 -1.34709,0.51423 -1.45743,0.36961 -0.11033,-0.14462 -0.56994,0.0122 -1.02135,0.34852 -2.16669,1.6142 -7.9848,4.29244 -10.0182,4.61164 -2.05503,0.3226 -2.19224,0.39766 -2.80712,1.53572 -0.35556,0.6581 -0.93566,1.67118 -1.28909,2.25127 -0.89066,1.46185 -4.58359,3.70568 -7.59381,4.61402 l -1.45927,0.44033 0.87971,0.74528 c 0.55515,0.47032 0.76187,0.83517 0.56032,0.98894 -0.17566,0.13402 -0.21054,0.38632 -0.0775,0.56067 0.6627,0.86862 -0.88703,4.06482 -3.36495,6.93994 -1.47644,1.7131 -3.359,4.4832 -3.19573,4.70235 0.0916,0.12317 -0.21194,0.51277 -0.67482,0.86592 -0.46288,0.35315 -0.9681,1.23793 -1.12272,1.96617 -0.19212,0.90484 -1.07904,2.2656 -2.80109,4.29756 -2.13979,2.52488 -3.17714,3.4465 -6.87614,6.10905 -4.01303,2.88859 -4.52874,3.16716 -6.54648,3.53623 -2.40538,0.43997 -3.18125,0.84154 -2.74095,1.41865 0.8261,1.08279 -1.69364,7.36554 -4.39447,10.9572 -2.21588,2.94676 -16.14605,12.79101 -17.5144,12.37716 -0.38779,-0.11728 -2.1711,0.0564 -2.4041,0.2342 -0.0621,0.0474 0.24103,0.70681 0.67371,1.46533 0.43269,0.75851 0.67545,1.54268 0.53946,1.74259 -0.13597,0.19992 -0.29336,0.83125 -0.34974,1.40297 -0.1439,1.45932 -1.26664,4.58525 -1.79414,4.99522 -0.24251,0.1883 -0.85664,1.17794 -1.36493,2.19895 -0.50828,1.02101 -1.19708,2.0712 -1.53066,2.33376 -0.33358,0.26255 -1.46463,1.65866 -2.51343,3.10247 -1.04881,1.4438 -2.28289,2.91194 -2.7424,3.26252 -0.45951,0.35058 -0.74859,0.7513 -0.64238,0.8905 0.10619,0.1392 -0.58854,0.97376 -1.54386,1.85457 -0.95533,0.88082 -3.70314,3.83639 -6.10626,6.56793 -2.40312,2.73155 -5.26398,5.79545 -6.35747,6.80867 -1.09349,1.01322 -1.89971,1.95816 -1.7916,2.09986 0.10811,0.1417 -0.336,0.66396 -0.98692,1.16057 -0.65092,0.49661 -1.08191,1.03607 -0.95775,1.1988 0.12415,0.16273 -0.35607,0.73975 -1.06715,1.28226 -1.39971,1.0679 -3.56593,3.97407 -4.68858,6.29014 -1.05295,2.17227 -3.15348,4.85423 -5.25463,6.70912 -2.53085,2.23423 -6.91712,7.00882 -6.7001,7.29327 0.0963,0.12616 -0.39751,0.66618 -1.09724,1.20003 -0.69974,0.53386 -1.30393,1.19141 -1.34266,1.46123 -0.0387,0.26982 -0.83512,1.28284 -1.76977,2.25117 -2.62307,2.71759 -6.49308,7.68551 -6.33853,8.13674 0.0762,0.22256 -0.44945,0.85331 -1.16817,1.40165 -0.71872,0.54834 -1.21472,1.11763 -1.10222,1.26509 0.1125,0.14746 -0.3913,0.86757 -1.11958,1.60023 -0.72827,0.73267 -1.25747,1.4195 -1.17601,1.52627 0.0815,0.10678 -0.20668,0.48835 -0.64033,0.84793 -0.43365,0.35959 -2.77423,2.72458 -5.2013,5.25554 -2.42707,2.53097 -4.88728,4.96621 -5.46712,5.41165 -0.57975,0.44559 -1.6337,1.56895 -2.34189,2.49666 -0.82652,1.08274 -3.20709,3.23541 -6.64784,6.01145 -2.94813,2.37857 -5.8937,4.86786 -6.54572,5.53175 -4.18631,4.2625 -7.18211,6.67621 -9.91888,7.99161 -1.45053,0.69718 -3.80794,2.1607 -5.23868,3.25223 -1.93704,1.47779 -3.34901,2.25824 -5.52878,3.05596 -1.61007,0.58921 -4.16612,1.79447 -5.68012,2.67833 -1.514,0.88386 -3.38097,1.88793 -4.14883,2.23126 -0.76786,0.34334 -1.83813,0.87316 -2.37838,1.17738 -1.41961,0.7994 -4.42773,2.06934 -4.95677,2.09259 -0.2491,0.0109 -1.20951,0.54671 -2.13425,1.19059 -0.92474,0.64387 -1.81924,1.08198 -1.98776,0.97355 -0.16855,-0.1084 -0.47731,-0.0667 -0.68614,0.0926 -0.32714,0.24959 -1.44985,0.60852 -5.2871,1.69029 -0.42376,0.11946 -1.35855,0.41272 -2.07732,0.65168 -1.40687,0.46773 -1.52683,0.50376 -5.4342,1.63234 -1.42818,0.41251 -2.76876,0.88129 -2.97907,1.04174 -0.2103,0.16046 -1.16792,0.45232 -2.12805,0.64862 -0.96011,0.19626 -2.25095,0.62693 -2.86847,0.95699 -0.61753,0.33006 -1.19978,0.49922 -1.29388,0.37589 -0.0941,-0.12333 -0.73404,0.0591 -1.42211,0.40542 -0.68808,0.34631 -1.66447,0.64651 -2.16971,0.66708 -0.50528,0.0206 -1.13034,0.19893 -1.38902,0.39628 -0.25869,0.19736 -1.23451,0.51506 -2.16849,0.706 -0.93402,0.19095 -2.18808,0.60074 -2.78685,0.91065 -0.59874,0.30989 -1.62278,0.69165 -2.2756,0.84831 -0.65283,0.15667 -1.62425,0.47358 -2.15867,0.70421 -0.53445,0.23065 -1.13523,0.35681 -1.33507,0.28035 -0.19981,-0.0765 -0.60193,0.043 -0.89354,0.26548 -0.29161,0.22248 -1.34582,0.54997 -2.34272,0.72777 -0.99686,0.17778 -2.37082,0.69578 -3.05323,1.1511 -0.68242,0.45533 -1.38496,0.73089 -1.5612,0.61236 -0.17626,-0.11851 -0.64391,0.0313 -1.03923,0.33288 -0.39531,0.3016 -1.8949,1.00496 -3.33242,1.56302 -1.43749,0.55803 -3.30544,1.35026 -4.15099,1.76048 -0.84555,0.41023 -2.23282,0.93869 -3.08283,1.17435 -1.72721,0.47886 -7.97487,3.10875 -8.7257,3.67301 -0.26642,0.19998 -0.77335,0.2973 -1.12674,0.21591 -0.35339,-0.0814 -1.42466,0.31528 -2.38055,0.88145 -1.6013,0.94845 -4.96693,1.85851 -5.59726,1.51348 -0.14737,-0.0806 -0.5897,0.0988 -0.98294,0.39886 -0.44017,0.33582 -0.84595,0.37393 -1.05559,0.0992 -0.1873,-0.2455 -1.16066,-0.69302 -2.16301,-0.99449 -1.00236,-0.30146 -2.0124,-0.79707 -2.24454,-1.10134 -0.23215,-0.30428 -1.13672,-0.81895 -2.01018,-1.1437 -1.18078,-0.439 -1.56775,-0.74167 -1.50881,-1.18002 0.0589,-0.43836 -0.0163,-0.51668 -0.29322,-0.30537 -0.20489,0.15632 -0.39438,0.0623 -0.42109,-0.20902 -0.0356,-0.36221 -0.45867,-0.0705 -1.5923,1.09781 -0.84905,0.87506 -2.36055,2.20547 -3.35889,2.95645 -1.84895,1.39084 -4.73322,2.629 -5.0764,2.17919 -0.10428,-0.13669 -0.3986,-0.0891 -0.65406,0.10584 -0.62491,0.47677 -7.94302,0.83728 -8.69048,0.4281 -0.14738,-0.0807 -2.25398,1.36858 -4.68134,3.22052 -2.74504,2.0943 -4.49877,3.25533 -4.63917,3.07131 -0.12415,-0.16273 -0.48932,-0.0948 -0.8115,0.15103 -0.8456,0.64515 -3.68688,1.41058 -4.88645,1.3164 -0.56535,-0.0444 -1.18577,0.0397 -1.3787,0.18691 -0.19291,0.14718 -0.4614,0.12259 -0.59663,-0.0547 -0.13522,-0.17724 -1.24093,-0.45312 -2.45711,-0.61305 -1.21619,-0.15993 -3.00697,-0.46002 -3.97953,-0.66684 -0.97253,-0.20685 -2.02959,-0.17669 -2.34902,0.067 -0.31942,0.2437 -0.88537,0.37293 -1.2577,0.28721 -0.37231,-0.0857 -1.16764,0.21703 -1.7674,0.67283 -0.59981,0.45575 -2.3802,1.48508 -3.9565,2.28728 -1.5763,0.8022 -3.23228,1.73771 -3.67996,2.07891 -0.44767,0.3412 -0.91553,0.48721 -1.03969,0.32449 -0.12415,-0.16273 -0.62515,0.009 -1.11334,0.38132 -0.48819,0.37246 -0.9892,0.54406 -1.11335,0.38133 -0.12415,-0.16273 -0.75043,0.10444 -1.39176,0.59374 -0.64131,0.48927 -1.3499,0.81924 -1.57462,0.73324 -0.22472,-0.086 -0.66702,0.0408 -0.98286,0.28178 -0.31588,0.24099 -0.65979,0.32608 -0.76428,0.18912 -0.1045,-0.13697 -1.20013,0.15254 -2.43474,0.64336 -1.23461,0.4908 -2.56797,0.94813 -2.96302,1.01626 -0.39508,0.0682 -1.4524,0.68397 -2.3496,1.36849 -0.89723,0.68453 -1.7329,1.11145 -1.85705,0.94872 -0.12415,-0.16273 -0.60886,-0.004 -1.07713,0.3537 -0.88641,0.67627 -2.19446,0.63274 -2.26419,-0.0754 -0.0422,-0.4287 -0.79858,-0.30464 -2.24994,0.36909 -0.86642,0.4022 -0.99526,0.5012 -2.5083,1.9274 -0.44926,0.42348 -1.0784,0.77323 -1.39809,0.77724 -0.31969,0.004 -1.84694,0.90117 -3.39389,1.99371 -2.49099,1.75926 -4.25757,2.89082 -7.62386,4.88334 -0.79617,0.47126 -3.14665,1.71643 -3.83362,2.03088 -0.0954,0.0437 -1.50442,0.81971 -3.13116,1.72453 -1.62673,0.90482 -3.5864,1.78739 -4.35483,1.96126 -0.76843,0.17386 -1.4737,0.35382 -1.56726,0.39991 -0.0936,0.0461 -0.94854,0.51267 -1.89995,1.03686 -0.95141,0.52419 -1.89646,0.88929 -2.10014,0.81135 -0.20368,-0.0779 -1.0693,0.39157 -1.9236,1.04336 -0.9077,0.69252 -1.92972,1.18662 -2.45903,1.18884 -0.63777,0.003 -1.70213,0.60697 -3.59763,2.04264 -1.48053,1.12136 -4.15664,2.85947 -5.94692,3.86246 -3.91387,2.19271 -13.30095,8.67546 -19.05473,13.15926 -3.60303,2.80776 -4.32809,3.51512 -5.2757,5.14682 -0.6042,1.0404 -1.03231,2.30128 -0.95136,2.80195 0.0959,0.59312 -0.26706,1.43517 -1.04181,2.41676 -0.65398,0.82857 -1.122,1.73498 -1.04007,2.01427 0.0819,0.2793 -0.34417,1.35692 -0.94686,2.3947 -0.60268,1.03779 -1.01291,1.99553 -0.9116,2.12831 0.10131,0.13279 -0.13916,0.48813 -0.53436,0.78965 -0.39519,0.30151 -0.76522,0.89535 -0.82226,1.31963 -0.15017,1.11669 -1.68347,4.33683 -2.28273,4.79403 -0.28128,0.2146 -0.82956,0.31694 -1.21837,0.2274 -0.58296,-0.13423 -0.61539,-0.23263 -0.18495,-0.56103 0.28708,-0.21902 0.59894,-1.08888 0.69301,-1.933 0.0941,-0.84415 0.29338,-1.62811 0.44289,-1.74217 0.1495,-0.11407 0.27971,-0.74001 0.28931,-1.39097 0.01,-0.65097 0.11653,-1.25913 0.23757,-1.35148 0.37987,-0.28982 1.4578,-5.06602 1.22042,-5.40764 -0.12432,-0.17891 0.10046,-0.86366 0.49952,-1.52167 0.39905,-0.65802 0.64293,-1.30468 0.54195,-1.43704 -0.10098,-0.13235 -0.0258,-0.36107 0.16716,-0.50825 0.19294,-0.1472 0.43308,-0.76231 0.53369,-1.36693 0.1578,-0.94846 -0.0127,-1.3161 -1.24304,-2.67935 -0.78426,-0.86904 -1.66803,-1.63817 -1.96393,-1.70919 -0.3431,-0.0824 -0.45067,-0.25749 -0.29701,-0.48341 0.3249,-0.47765 -2.50908,-3.18636 -3.81589,-3.64718 -0.53695,-0.18934 -1.81084,-0.18501 -2.83086,0.01 -1.02004,0.19464 -2.80484,0.24059 -3.96619,0.1021 -1.16138,-0.13848 -2.1605,-0.21446 -2.22026,-0.16886 -0.0598,0.0456 -1.1282,-0.0345 -2.37429,-0.17796 -1.24608,-0.14348 -2.94671,-0.26551 -3.77919,-0.27118 -0.83244,-0.006 -1.6366,-0.17162 -1.78698,-0.36873 -0.15038,-0.19711 -0.60622,-0.31143 -1.01297,-0.25403 -0.69948,0.0987 -0.71896,0.0709 -0.35969,-0.51318 z M 711.73986,228.61871 c 0.33507,-0.25564 0.43337,-0.53208 0.21846,-0.61432 -0.21491,-0.0822 -0.52897,0.0746 -0.69792,0.3485 -0.43254,0.70131 -0.23494,0.81086 0.47946,0.26582 z m 73.63918,27.84024 c 0.23946,-0.0236 0.32781,-0.18387 0.19633,-0.3562 -0.13148,-0.17234 -0.3722,-0.21176 -0.53493,-0.0876 -0.16273,0.12416 -0.25108,0.28445 -0.19633,0.35621 0.0548,0.0718 0.29547,0.11118 0.53493,0.0876 z m 32.34231,31.72986 c 0.0614,-0.0469 0.11667,-0.45763 0.12274,-0.9128 0.01,-0.75006 -0.008,-0.75254 -0.19693,-0.0265 -0.19796,0.76253 -0.16933,1.12507 0.0742,0.93928 z m -69.46997,-95.06544 c 0.41161,-0.005 0.68679,-0.16342 0.62451,-0.35945 -0.0612,-0.19274 0.0662,-0.48587 0.28317,-0.65141 0.21697,-0.16554 0.33673,-0.46964 0.26612,-0.67577 -0.0706,-0.20614 0.11944,-0.65237 0.42232,-0.99162 0.30288,-0.33925 0.71336,-0.9737 0.91217,-1.4099 0.19882,-0.43619 0.41722,-0.72004 0.48533,-0.63076 0.0681,0.0893 0.45236,-0.40712 0.85389,-1.1031 0.40154,-0.69597 1.12108,-1.56374 1.599,-1.92836 0.50396,-0.38449 0.69732,-0.72863 0.46036,-0.81932 -0.263,-0.10064 0.83075,-1.11362 3.06949,-2.84283 2.21752,-1.71281 3.19331,-2.61501 2.69235,-2.48929 -0.43216,0.10845 -1.14793,0.4587 -1.5906,0.77834 -0.44268,0.31962 -0.95082,0.48188 -1.12921,0.36054 -0.45155,-0.30714 -10.02734,6.97392 -10.12478,7.69848 -0.0407,0.30288 -0.32246,0.74021 -0.62607,0.97185 -0.30361,0.23163 -0.70485,0.75645 -0.89163,1.16625 -0.28629,0.62809 -0.15923,0.91708 0.80905,1.84023 0.63177,0.60231 1.47981,1.09107 1.88452,1.08611 z m 6.03897,2.80052 c 3.53206,-2.14954 3.66994,-2.25677 5.62172,-4.37198 2.39032,-2.59046 6.08115,-5.43335 6.90935,-5.32199 0.56403,0.0759 2.92062,-1.19024 2.7156,-1.45896 -0.14368,-0.18832 -4.82665,1.56202 -5.44853,2.03648 -0.33212,0.25338 -0.73286,0.29582 -0.89054,0.0943 -0.21096,-0.26959 -0.27299,-0.20906 -0.23479,0.22911 0.0362,0.41511 -0.0851,0.54307 -0.40031,0.42243 -0.24871,-0.0952 -0.91035,0.17648 -1.4703,0.60369 -0.55995,0.4272 -1.11967,0.6436 -1.24382,0.48087 -0.13616,-0.17846 -1.45853,0.64468 -3.33239,2.07432 -1.87385,1.42964 -3.01707,2.4876 -2.88092,2.66606 0.12415,0.16273 0.0242,0.44962 -0.22209,0.63754 -0.2463,0.18791 -0.58485,0.64147 -0.75233,1.0079 -0.16748,0.36643 -0.48249,0.91612 -0.70002,1.22152 -0.82947,1.16452 0.0982,1.03657 2.32937,-0.3213 z m 0.64826,2.04257 c 0.4811,-0.6333 0.70868,-1.21501 0.50573,-1.29267 -0.48086,-0.18402 -2.18358,1.30019 -2.16511,1.88725 0.0263,0.83594 0.77699,0.56697 1.65938,-0.59458 z m 8.12659,9.91893 c 0.17263,-0.2799 0.27395,-0.56123 0.22516,-0.62518 -0.0488,-0.064 -0.28843,0.0361 -0.53252,0.22231 -0.2441,0.18623 -0.34542,0.46757 -0.22516,0.62519 0.12025,0.15762 0.35989,0.0576 0.53252,-0.22232 z m 48.42791,60.7144 c 0.48819,-0.37246 0.78603,-0.81034 0.66188,-0.97307 -0.12415,-0.16273 0.37341,-0.75298 1.10569,-1.31167 0.98624,-0.75244 1.24364,-1.13085 0.99282,-1.4596 -0.38333,-0.50244 -0.91734,-0.24162 -0.85254,0.4164 0.0236,0.23946 -0.74812,1.03886 -1.7149,1.77645 -1.36521,1.04158 -1.68215,1.44019 -1.41917,1.78488 0.22574,0.29587 0.63447,0.21808 1.22622,-0.23339 z m 5.82387,7.78684 c 0.76552,0.0102 0.76117,-0.009 -0.0579,-0.24955 -0.48703,-0.14332 -0.96552,-0.28732 -1.06329,-0.31999 -0.0978,-0.0327 -0.0717,0.0796 0.0579,0.24955 0.12964,0.16992 0.60812,0.31392 1.06329,0.31999 z m -47.09679,-65.55036 c 1.14016,-0.69604 1.52344,-1.0477 1.10139,-1.01053 -0.60104,0.0529 -3.52189,2.01993 -3.05893,2.05999 0.11485,0.01 0.99574,-0.46232 1.95754,-1.04946 z m -4.77439,-4.46832 c 0.15313,-0.11683 0.17683,-0.34555 0.0527,-0.50828 -0.12415,-0.16273 -0.4333,-0.13751 -0.687,0.056 -0.2537,0.19355 -0.27741,0.42228 -0.0527,0.50828 0.22473,0.086 0.53388,0.0608 0.687,-0.056 z m -1.84239,-16.28465 c 1.28394,-1.11664 2.28932,-1.78524 2.54334,-1.6914 0.23105,0.0854 1.78467,-0.74811 3.45249,-1.85216 2.46763,-1.63349 2.97445,-2.08331 2.72125,-2.41519 -0.23922,-0.31355 -1.17672,0.18182 -4.05562,2.143 -5.10256,3.47599 -8.06232,5.77319 -7.35975,5.71223 0.31627,-0.0274 1.53051,-0.88086 2.69829,-1.89648 z m -56.2132,32.25905 c 0.32452,-0.84801 1.07037,-0.43979 2.41389,1.32118 1.38525,1.81568 1.17225,2.42367 -0.37323,1.06533 -1.88764,-1.65907 -2.18567,-2.0076 -2.04066,-2.38651 z m 71.88145,87.89798 c 0.41781,-0.67742 1.14386,-0.77406 1.57453,-0.20958 0.1789,0.2345 0.46054,0.32316 0.62585,0.19703 0.16531,-0.12612 0.57487,0.19333 0.91014,0.7099 0.33526,0.51657 0.50474,1.01919 0.37662,1.11693 -0.12811,0.0978 -0.0298,0.44401 0.21853,0.76946 0.26434,0.34648 0.25422,0.74224 -0.0244,0.95482 -0.46964,0.35831 -0.74355,-0.0221 -1.56015,-2.16662 -0.12981,-0.34092 -0.71822,-0.65434 -1.34437,-0.71608 -0.96549,-0.0952 -1.06875,-0.1824 -0.77673,-0.65586 z m 3.86892,4.33156 c 0.24409,-0.18623 0.53295,-0.22176 0.6419,-0.079 0.10895,0.1428 0.12484,0.57776 0.0353,0.96657 -0.13601,0.59061 -0.24163,0.6036 -0.6419,0.079 -0.27539,-0.36095 -0.29039,-0.77195 -0.0353,-0.96657 z m -68.29286,-102.2835 c 0.69732,-1.21061 1.05022,-1.49781 1.35291,-1.10107 0.31919,0.41837 -0.20631,1.19108 -1.14214,1.67942 -0.75901,0.39608 -0.76406,0.38222 -0.21077,-0.57835 z m 82.78767,102.92713 c 0.58312,-0.44488 1.16179,-0.67573 1.28594,-0.513 0.12415,0.16272 0.81702,-0.15525 1.5397,-0.70661 0.72267,-0.55136 1.29466,-1.19839 1.27108,-1.43785 -0.0236,-0.23947 0.54447,-0.88349 1.26232,-1.43117 1.18767,-0.90612 1.81209,-1.85437 4.1796,-6.34713 0.34745,-0.65935 0.44684,-1.31284 0.22087,-1.45221 -0.26035,-0.16058 -0.10218,-0.5031 0.4318,-0.93505 0.46346,-0.37489 0.91486,-0.58699 1.00312,-0.47131 0.27428,0.35951 -0.23023,2.13208 -0.99435,3.49359 -2.83519,5.05172 -4.15421,6.64413 -7.48036,9.03081 -2.04267,1.46572 -3.0968,2.0451 -3.37515,1.8551 -0.27348,-0.18667 -0.0609,-0.53867 0.65543,-1.08517 z M 701.37077,176.68903 c 0.2704,-0.50508 0.68508,-1.06591 0.92152,-1.2463 0.23643,-0.18038 0.3283,-0.46112 0.20415,-0.62385 -0.12415,-0.16273 0.1737,-0.60061 0.66188,-0.97307 0.48819,-0.37245 0.78604,-0.81034 0.66189,-0.97306 -0.12416,-0.16273 0.22396,-0.63897 0.77359,-1.0583 0.54962,-0.41933 1.01156,-1.06084 1.02652,-1.42556 0.0177,-0.43232 1.02264,-1.54377 2.88712,-3.19321 4.19008,-3.70682 6.63074,-5.37911 9.17443,-6.28612 1.24445,-0.44374 2.84443,-1.25067 3.55552,-1.79318 0.71108,-0.54252 1.39446,-0.85325 1.51861,-0.69052 0.12415,0.16273 0.6173,-0.003 1.09589,-0.36801 0.47858,-0.36513 1.05402,-0.59351 1.27874,-0.50751 0.22473,0.086 0.73359,-0.0916 1.13081,-0.39465 0.39722,-0.30305 0.82598,-0.41501 0.95279,-0.24879 0.12681,0.16621 0.72033,0.18489 1.31891,0.0415 0.59859,-0.14339 1.39244,-0.22697 1.76412,-0.18572 0.37167,0.0413 0.87159,-0.0744 1.11093,-0.257 0.46265,-0.35297 0.52527,-0.35574 3.57082,-0.15824 1.0834,0.0703 2.26221,0.0278 2.61957,-0.0943 0.35736,-0.12213 0.7289,-0.11831 0.82564,0.008 0.18195,0.23849 2.60376,0.61225 5.26635,0.81277 0.83967,0.0632 1.62988,0.25026 1.75603,0.4156 0.12615,0.16535 0.3625,0.19905 0.52523,0.0749 0.16273,-0.12416 0.46564,-0.003 0.67313,0.26874 0.20749,0.27197 0.72015,0.56542 1.13924,0.65213 1.07197,0.2218 4.22877,2.28441 5.74008,3.75051 0.99625,0.96644 1.18337,1.3022 0.86224,1.5472 -0.3858,0.29435 -2.96724,-1.53267 -3.90825,-2.76607 -0.21364,-0.28001 -0.48995,-0.43166 -0.61403,-0.33699 -0.12408,0.0947 -1.10347,-0.48169 -2.17642,-1.28079 -1.46805,-1.09336 -2.27559,-1.43293 -3.26314,-1.37218 -0.72177,0.0444 -1.38888,-0.0188 -1.48246,-0.14053 -0.0936,-0.12169 -0.36987,-0.0689 -0.61396,0.11735 -0.65806,0.50206 -0.006,1.10981 1.46534,1.3648 0.71383,0.12375 1.84883,0.60509 2.52222,1.06963 0.67339,0.46454 1.4461,0.83019 1.71715,0.81254 0.31187,-0.0203 0.31647,0.10509 0.0125,0.34152 -0.52342,0.40716 -2.34883,-0.0938 -2.88033,-0.79044 -0.433,-0.56754 -5.74553,-1.32139 -6.75653,-0.95875 -0.43024,0.15433 -0.92904,0.0882 -1.10844,-0.14695 -0.17941,-0.23515 -1.35731,-0.32284 -2.61756,-0.19486 -1.26025,0.12798 -2.682,0.26613 -3.15945,0.30699 -0.47745,0.0409 -1.51123,0.19765 -2.29728,0.34842 -0.78606,0.15076 -1.56831,0.23544 -1.73833,0.18818 -0.51218,-0.14238 -2.39433,0.51019 -3.16304,1.09667 -0.39622,0.3023 -0.81392,0.42707 -0.92821,0.27727 -0.11429,-0.1498 -0.70529,-0.0271 -1.31333,0.27259 -0.60804,0.29973 -1.49544,0.62199 -1.97199,0.71614 -0.60433,0.11939 -1.6729,0.93761 -3.5321,2.7046 -1.4661,1.39338 -2.77816,2.51828 -2.91569,2.49979 -0.56604,-0.0761 0.0311,-1.05876 1.79692,-2.95711 1.46645,-1.57648 2.26214,-2.18841 3.68753,-2.8359 2.70992,-1.23099 4.98008,-1.97186 6.50116,-2.12166 0.74664,-0.0735 1.64138,-0.35026 1.98832,-0.61495 0.34693,-0.26469 0.73236,-0.34811 0.85652,-0.18538 0.12415,0.16273 0.48092,0.10118 0.79282,-0.13678 0.3119,-0.23796 0.69635,-0.35526 0.85434,-0.26066 0.158,0.0946 1.39142,0.10074 2.74095,0.0136 1.34952,-0.0871 2.71642,-0.14745 3.03754,-0.13412 0.32112,0.0133 0.67017,-0.0416 0.77566,-0.12209 0.1055,-0.0805 0.70759,-0.0132 1.33798,0.14943 0.63039,0.16268 1.33621,0.15078 1.56849,-0.0264 0.23229,-0.17721 0.57471,-0.1225 0.76094,0.1216 0.18623,0.24409 0.53831,0.29144 0.7824,0.10521 0.8192,-0.625 -0.34719,-1.39688 -2.39553,-1.58529 -1.11688,-0.10273 -2.15818,-0.0895 -2.31399,0.0294 -0.15581,0.11887 -0.96975,0.10793 -1.80875,-0.0243 -0.839,-0.13225 -1.67746,-0.12447 -1.86326,0.0173 -0.18579,0.14175 -0.41662,0.15442 -0.51295,0.0282 -0.0963,-0.12626 -0.97355,-0.0362 -1.94938,0.20001 -0.97584,0.23627 -1.85169,0.33068 -1.94635,0.20981 -0.0947,-0.12087 -0.48819,0.0214 -0.87451,0.31614 -0.38633,0.29474 -1.53106,0.65795 -2.54384,0.80712 -1.01278,0.14917 -2.67555,0.69642 -3.69504,1.2161 -1.01949,0.51969 -2.33767,1.08765 -2.9293,1.26214 -0.62355,0.18391 -3.31757,2.02769 -6.40941,4.38658 -4.88572,3.72752 -5.359,4.16723 -5.63454,5.23501 -0.16545,0.64113 -0.59987,1.39384 -0.96537,1.6727 -0.3655,0.27886 -1.29492,1.51455 -2.06537,2.74599 -0.77045,1.23143 -1.53092,2.33822 -1.68993,2.45954 -0.55805,0.42576 -0.66313,-0.28549 -0.17648,-1.19449 z m 7.06815,-4.83627 c 1.62017,-0.91802 5.27986,-1.95774 5.56687,-1.58155 0.099,0.12976 0.65687,0.014 1.2397,-0.25718 0.58283,-0.2712 1.30389,-0.34249 1.60235,-0.15841 0.29846,0.18408 1.27884,0.4524 2.17863,0.59626 3.06116,0.48943 4.20341,0.86584 4.7327,1.55959 0.78725,1.03187 -0.19774,1.53626 -1.22856,0.62912 -0.4701,-0.4137 -0.97122,-0.6633 -1.11361,-0.55466 -0.14239,0.10863 -0.40039,0.012 -0.57333,-0.21464 -0.17295,-0.22668 -0.57264,-0.33642 -0.88819,-0.24386 -0.31556,0.0926 -0.71007,0.002 -0.87669,-0.20038 -0.16663,-0.20276 -1.13772,-0.36372 -2.15798,-0.35767 -1.02027,0.006 -2.12074,3.5e-4 -2.44549,-0.0127 -1.57801,-0.0633 -3.05112,0.22748 -3.71376,0.73304 -0.40295,0.30742 -0.9165,0.48859 -1.14122,0.40259 -0.22473,-0.086 -0.80017,0.14238 -1.27875,0.50751 -0.47858,0.36514 -0.98554,0.51264 -1.12657,0.32779 -0.17428,-0.22844 0.21773,-0.60475 1.2239,-1.17487 z m 115.55427,151.80695 c 0.31935,-0.24364 1.57038,-0.74234 2.78005,-1.10822 1.51111,-0.45704 3.23803,-1.37174 5.51828,-2.92286 1.82538,-1.24171 3.4517,-2.14834 3.61404,-2.01475 0.1789,0.14722 -0.93241,1.2318 -2.82138,2.7535 -2.00548,1.61556 -3.19974,2.40157 -3.34992,2.20472 -0.12836,-0.16823 -0.49966,-0.10272 -0.82512,0.14559 -0.32546,0.2483 -0.67237,0.34578 -0.77091,0.21662 -0.0985,-0.12916 -1.11323,0.19741 -2.25487,0.72572 -1.99371,0.92262 -3.09964,0.92243 -1.89017,-3.2e-4 z m 1.78673,-3.67445 c 0.51337,-0.66691 1.06853,-1.73624 1.2337,-2.37628 0.16516,-0.64004 0.39673,-1.23728 0.51457,-1.32719 0.30503,-0.23271 0.63715,-3.74208 0.38538,-4.07208 -0.11532,-0.15114 -0.10464,-0.35494 0.0237,-0.45288 0.59586,-0.4546 -1.06345,-6.44264 -2.62061,-9.45714 -0.82182,-1.59093 -0.81497,-3.15146 0.009,-2.07136 0.61479,0.80582 2.67946,5.76641 2.82754,6.79345 0.0581,0.40274 0.25932,0.93378 0.44723,1.18008 0.18792,0.2463 0.20852,0.5494 0.0458,0.67356 -0.16273,0.12415 -0.091,0.49422 0.15933,0.82237 0.57767,0.75715 -0.12949,7.11243 -0.8528,7.66428 -0.29764,0.22708 -0.5885,0.76495 -0.64637,1.19528 -0.0961,0.71458 0.12064,0.81005 0.6295,0.27729 0.24053,-0.25182 0.81429,0.45708 0.75098,0.92787 -0.0254,0.18877 -0.3148,0.33219 -0.64315,0.31873 -0.32835,-0.0135 -1.06623,0.24783 -1.63974,0.58067 -1.51261,0.87783 -1.68059,0.69574 -0.62417,-0.67665 z m 6.83682,-4.43585 c 0.0281,-0.20919 0.45871,-0.69741 0.95686,-1.08494 0.49813,-0.38753 1.99161,-2.18025 3.31882,-3.98383 1.32721,-1.80357 2.75726,-3.65642 3.17789,-4.11744 0.42062,-0.46101 0.79591,-1.21152 0.83398,-1.6678 0.0381,-0.45628 0.37739,-1.35075 0.75405,-1.98772 0.37667,-0.63697 0.90312,-1.81056 1.16989,-2.60799 0.26676,-0.79742 0.54481,-1.3715 0.61789,-1.27573 0.0731,0.0958 0.32767,-0.53682 0.56579,-1.40578 0.23812,-0.86895 0.4879,-1.50787 0.55508,-1.41982 0.0672,0.0881 0.21448,-0.27106 0.32734,-0.79803 0.11285,-0.52698 0.079,-1.12357 -0.0753,-1.32578 -0.15427,-0.2022 -0.12293,-0.71331 0.0696,-1.1358 0.19257,-0.42248 0.17715,-0.99739 -0.0343,-1.27757 -0.21142,-0.28018 -0.22617,-1.12779 -0.0328,-1.88358 0.19339,-0.75579 0.24051,-1.52898 0.10471,-1.71821 -0.54379,-0.7577 0.0635,-3.57757 0.61484,-2.85493 0.13617,0.17848 0.25719,2.73006 0.17336,3.65505 -0.0297,0.32785 0.0366,1.65214 0.14727,2.94286 0.11072,1.29073 0.13113,2.47179 0.0454,2.62458 -0.0858,0.15278 -0.19726,0.56382 -0.24776,0.91341 -0.1961,1.35763 -1.43878,4.66138 -1.87994,4.99796 -0.25546,0.1949 -0.3739,0.47307 -0.26321,0.61816 0.11069,0.14508 -0.0431,0.57022 -0.34174,0.94474 -0.29865,0.37453 -0.62179,1.12436 -0.71809,1.66631 -0.22892,1.28815 -2.39207,4.75421 -3.48975,5.59168 -0.47371,0.36141 -0.77884,0.76517 -0.67807,0.89725 0.21025,0.27558 -4.63142,5.69942 -5.2886,5.92451 -0.23891,0.0818 -0.41138,-0.0224 -0.38324,-0.23156 z m -104.316,-141.45994 c 0.52957,-2.16278 1.49785,-3.35843 4.58647,-5.66345 1.72136,-1.28465 3.58429,-2.47057 4.13984,-2.63539 0.55554,-0.16482 1.32476,-0.53976 1.70937,-0.83319 0.3846,-0.29343 1.00338,-0.49976 1.37505,-0.45851 1.01529,0.11268 2.79765,-0.38456 3.61574,-1.00871 0.54079,-0.41259 0.84697,-0.39483 1.20137,0.0697 0.36629,0.48011 0.3181,0.66374 -0.20966,0.79888 -0.37691,0.0965 -1.23533,0.34666 -1.90762,0.55589 -0.67228,0.20922 -1.38319,0.35877 -1.57981,0.33233 -0.19661,-0.0264 -0.64159,0.1687 -0.98885,0.43364 -0.7399,0.5645 -2.71179,1.05549 -2.96004,0.73703 -0.0944,-0.12107 -1.65384,0.91072 -3.46546,2.29287 -2.83431,2.16242 -3.30238,2.64027 -3.35501,3.42512 -0.0336,0.50166 -0.4897,1.38576 -1.01347,1.96466 -0.95846,1.05935 -1.40892,1.05509 -1.14792,-0.0109 z m 60.69004,78.05378 c 0.0575,-1.06771 1.51262,-2.84098 2.13566,-2.60255 0.20496,0.0784 0.0415,0.39529 -0.36336,0.70413 -0.81618,0.6227 -1.08504,1.74838 -0.68438,2.86538 0.14458,0.40307 0.1387,0.82759 -0.0131,0.94338 -0.4603,0.35117 -1.13231,-0.84318 -1.07486,-1.91034 z m -26.12206,-34.79836 c -0.23238,-0.84557 0.67615,-1.16157 1.23472,-0.42945 0.72429,0.94934 1.8534,0.93663 4.40899,-0.0496 1.19334,-0.46055 2.33685,-0.89437 2.54114,-0.96405 0.20428,-0.0697 -0.32595,0.42198 -1.17829,1.0926 -1.29266,1.01702 -1.9479,1.25227 -3.95006,1.41811 -2.28984,0.18965 -2.7557,0.0269 -3.0565,-1.06756 z M 840.54454,312.66 c 0.92786,-0.89286 1.6727,-1.79105 1.6552,-1.99596 -0.0175,-0.20492 0.38541,-0.7443 0.89536,-1.19863 0.50995,-0.45433 0.86263,-1.0461 0.78374,-1.31504 -0.0789,-0.26894 0.17518,-0.73207 0.5646,-1.02917 0.38941,-0.2971 0.62871,-0.64413 0.53178,-0.77118 -0.0969,-0.12706 0.065,-0.67411 0.35976,-1.21568 0.78366,-1.43962 1.25678,-2.67947 1.5323,-4.01554 0.13403,-0.64998 0.38534,-1.28985 0.55845,-1.42193 0.17312,-0.13208 0.3614,-0.58699 0.41841,-1.01092 0.057,-0.42394 0.19931,-1.11498 0.31624,-1.53566 0.11694,-0.42068 0.15982,-1.1286 0.0953,-1.57316 -0.0645,-0.44456 0.0212,-1.13867 0.19047,-1.54247 0.6025,-1.43727 0.72003,-2.43818 0.34415,-2.93086 -0.2097,-0.27485 -0.23025,-1.75127 -0.0457,-3.28091 0.18458,-1.52966 0.33522,-3.47192 0.33475,-4.31615 -4.7e-4,-0.84423 0.0149,-1.79206 0.0341,-2.1063 0.0192,-0.31424 -0.12914,-1.06088 -0.32968,-1.65919 -0.43945,-1.3111 -0.009,-2.15526 0.65544,-1.28468 0.25726,0.3372 0.45412,1.90665 0.43745,3.48768 -0.0167,1.58102 0.0418,3.32924 0.12987,3.88492 0.0881,0.55569 0.0314,1.10862 -0.12607,1.22873 -0.15743,0.12012 -0.21419,1.06599 -0.12614,2.10195 0.16211,1.90721 0.15255,3.08055 -0.0346,4.24534 -0.0567,0.35272 -0.28463,1.84854 -0.50656,3.32404 -0.22193,1.47549 -0.85143,3.53557 -1.39888,4.57795 -0.54745,1.04238 -0.89774,2.18938 -0.77843,2.54888 0.11932,0.35951 0.0608,0.77547 -0.1301,0.92436 -0.19086,0.14889 -0.83563,1.28684 -1.4328,2.52879 -0.59717,1.24195 -1.66006,2.81679 -2.36198,3.49964 -0.70191,0.68285 -1.18878,1.35615 -1.08192,1.49621 0.10686,0.14006 -0.47142,0.76256 -1.28507,1.38332 -2.08515,1.59085 -2.21668,0.91276 -0.19947,-1.02838 z m -12.34513,-14.67781 c 0.29291,-0.22348 0.75418,-0.37813 1.02505,-0.34367 0.94101,0.1197 6.99798,-3.98011 9.63092,-6.51894 1.37205,-1.323 2.41162,-2.51426 2.31016,-2.64725 -0.10146,-0.13299 0.14838,-0.49574 0.55521,-0.80612 1.2919,-0.98565 1.22452,-0.0527 -0.13156,1.82155 -1.92393,2.65906 -8.5061,7.6636 -11.40549,8.6718 -2.07751,0.72241 -3.04975,0.6355 -1.98429,-0.17737 z m -8.60796,-12.32561 c 0.24103,-0.3908 0.4918,-0.27571 1.08047,0.49588 0.51992,0.68146 1.11613,1.01871 1.8528,1.04804 0.59741,0.0238 1.42854,0.19488 1.84696,0.3802 1.65083,0.73119 6.9251,-0.0604 8.05619,-1.2091 0.18241,-0.18522 0.67578,-0.36683 1.0964,-0.40354 0.58896,-0.0514 0.30018,0.2421 -1.25617,1.27677 -2.11795,1.40801 -4.05555,1.78666 -6.75124,1.31933 -0.68954,-0.11954 -1.36345,-0.13361 -1.49759,-0.0313 -0.40922,0.31221 -3.71931,-1.02736 -4.2467,-1.71861 -0.27224,-0.35684 -0.35375,-0.8778 -0.18112,-1.1577 z m -0.0125,-2.62974 c 0.28632,-0.21844 0.88749,-0.25871 1.33594,-0.0895 1.21928,0.46008 6.40565,-0.66786 7.73527,-1.68227 0.63819,-0.48691 1.30203,-0.73978 1.53165,-0.58345 0.29928,0.20374 1.85747,-0.79008 5.95719,-3.7995 4.77021,-3.50159 5.56764,-4.19237 5.66362,-4.90612 0.0614,-0.45689 0.2943,-0.97001 0.51747,-1.14028 0.22317,-0.17027 0.44088,-0.57071 0.48379,-0.88986 0.0429,-0.31916 0.287,-0.65186 0.5424,-0.73934 0.25541,-0.0875 0.19441,0.50523 -0.13555,1.31711 -0.32996,0.81189 -0.5232,1.73773 -0.42943,2.05742 0.14399,0.49087 -0.67581,1.22695 -5.27147,4.73317 -2.99309,2.28354 -5.52498,4.0431 -5.62643,3.91012 -0.10145,-0.13297 -1.36147,0.28415 -2.80005,0.92693 -1.43857,0.64279 -2.78408,1.10423 -2.99004,1.02541 -0.20595,-0.0788 -0.69945,0.10466 -1.09667,0.40771 -0.39722,0.30306 -0.8238,0.41787 -0.94795,0.25514 -0.12415,-0.16273 -0.36668,-0.18834 -0.53895,-0.0569 -0.40391,0.30815 -4.01639,0.2215 -4.26341,-0.10227 -0.10337,-0.13549 0.0463,-0.42507 0.33262,-0.64352 z M 800.5415,257.17832 c -0.14205,-1.11752 0.002,-1.757 0.47813,-2.12013 0.37484,-0.28598 0.58178,-0.6507 0.45987,-0.81049 -0.12877,-0.16878 0.83811,-1.08683 2.30734,-2.19079 1.39094,-1.04515 2.61533,-1.7871 2.72086,-1.64878 0.10553,0.13832 0.46766,0.1298 0.80472,-0.0189 0.33707,-0.14872 0.10102,0.0351 -0.52457,0.40851 -2.83306,1.69104 -4.13628,2.88682 -4.90871,4.50401 -0.43258,0.90568 -0.65823,1.95355 -0.50145,2.3286 0.15679,0.37506 0.10088,0.82245 -0.12423,0.99419 -0.50815,0.38769 -0.46867,0.46788 -0.71197,-1.4462 z m 10.51297,6.70517 c 0.41936,-0.37832 0.70615,-0.8537 0.63731,-1.05641 -0.16316,-0.48046 1.14974,-1.47897 1.67863,-1.27649 0.22714,0.0869 0.10581,0.38865 -0.27319,0.6794 -0.37506,0.28756 -0.9114,1.01289 -1.19204,1.6116 -0.62504,1.33341 -0.94688,1.60308 -1.32372,1.10914 -0.15916,-0.20861 0.0537,-0.68881 0.4731,-1.06713 z m 8.60105,0.0765 c 2.19685,-1.67606 3.1311,-2.31515 2.07611,-1.42019 -1.055,0.89496 -2.85242,2.26629 -3.99427,3.04739 -1.14186,0.7811 -0.27868,0.0489 1.91816,-1.6272 z m 6.06762,15.31538 c 0.16273,-0.12415 0.39745,-0.0926 0.5216,0.0701 0.12416,0.16273 0.0926,0.39745 -0.0701,0.5216 -0.16273,0.12415 -0.39746,0.0926 -0.52161,-0.0701 -0.12415,-0.16273 -0.0926,-0.39745 0.0701,-0.5216 z m -78.9669,-107.79808 c 0.16273,-0.12416 0.39745,-0.0926 0.5216,0.0701 0.12415,0.16273 0.0926,0.39746 -0.0701,0.52161 -0.16273,0.12415 -0.39745,0.0926 -0.5216,-0.0701 -0.12416,-0.16273 -0.0926,-0.39745 0.0701,-0.5216 z m 5.41758,7.10092 c 0.16273,-0.12416 0.39745,-0.0926 0.5216,0.0701 0.12416,0.16273 0.0926,0.39745 -0.0701,0.5216 -0.16273,0.12415 -0.39745,0.0926 -0.5216,-0.0701 -0.12415,-0.16273 -0.0926,-0.39745 0.0701,-0.5216 z m 15.39057,16.03132 c 3.33279,-2.01888 11.2528,-3.88784 11.3714,-2.68342 0.0465,0.47211 -1.01934,0.75284 -2.62836,0.69234 -0.74925,-0.0282 -1.55176,0.0933 -1.78337,0.27003 -0.23161,0.17671 -0.52269,0.18814 -0.64684,0.0254 -0.12415,-0.16273 -0.59519,-0.0209 -1.04675,0.31523 -0.45157,0.3361 -1.74982,0.91221 -2.88504,1.28022 -1.13521,0.368 -2.43347,0.9441 -2.88503,1.28021 -0.45157,0.33609 -0.93707,0.45899 -1.07891,0.27308 -0.17964,-0.23546 0.30064,-0.67636 1.5829,-1.4531 z m -21.21962,-30.98847 c 0.14831,-0.38754 2.12406,-0.62452 3.82448,-0.45872 0.58757,0.0573 0.53672,0.14317 -0.30128,0.50885 -0.55448,0.24196 -1.14891,0.39348 -1.32095,0.33671 -0.17204,-0.0568 -0.6052,0.0428 -0.96257,0.22134 -0.74629,0.37278 -1.47775,0.0139 -1.23968,-0.60818 z m 84.83545,107.55092 c 0.10899,-0.28479 0.33902,-0.49885 0.51119,-0.4757 0.46681,0.0628 0.29764,0.6486 -0.24053,0.83293 -0.37712,0.12917 -0.43006,0.0593 -0.27067,-0.35722 z m -78.95587,-106.6751 c 0.17234,-0.13148 0.33263,-0.0431 0.35621,0.19633 0.0236,0.23946 -0.0158,0.48018 -0.0876,0.53493 -0.0718,0.0548 -0.23206,-0.0336 -0.35621,-0.19633 -0.12415,-0.16273 -0.0847,-0.40345 0.0876,-0.53493 z m 91.1539,114.87178 c 0.29634,-0.47717 0.67854,-0.97419 0.84933,-1.1045 0.59745,-0.45582 1.99843,-4.01924 1.72242,-4.38101 -0.37331,-0.48931 0.1377,-1.26058 0.88389,-1.33406 0.4897,-0.0482 0.53447,0.0493 0.24107,0.52499 -0.19818,0.32132 -0.24073,0.74098 -0.0946,0.93258 0.31742,0.41604 -0.48198,2.52498 -1.1504,3.03495 -0.25967,0.19811 -0.38384,0.47592 -0.27593,0.61736 0.10791,0.14143 -0.18108,0.65996 -0.64219,1.15226 -0.46111,0.49231 -1.00108,1.16502 -1.19994,1.49491 -0.21558,0.35764 -0.46469,0.4646 -0.61702,0.26494 -0.14051,-0.18417 -0.013,-0.72526 0.28332,-1.20242 z m -20.73513,-27.70133 c 0.23078,-0.17607 0.59299,-0.59861 0.80491,-0.93898 0.3609,-0.57964 0.37807,-0.56309 0.27107,0.26129 -0.12505,0.9634 -0.91098,1.76409 -1.26986,1.2937 -0.12415,-0.16273 -0.0369,-0.43993 0.19388,-0.61601 z"
   style="fill:#0d0d0d;stroke-width:1" /></svg>