<?xml version="1.0" encoding="UTF-8" standalone="no"?>
<!-- Created with Inkscape (http://www.inkscape.org/) -->

<svg
   xmlns:dc="http://purl.org/dc/elements/1.1/"
   xmlns:cc="http://creativecommons.org/ns#"
   xmlns:rdf="http://www.w3.org/1999/02/22-rdf-syntax-ns#"
   xmlns:svg="http://www.w3.org/2000/svg"
   xmlns="http://www.w3.org/2000/svg"
   xmlns:sodipodi="http://sodipodi.sourceforge.net/DTD/sodipodi-0.dtd"
   xmlns:inkscape="http://www.inkscape.org/namespaces/inkscape"
   width="297mm"
   height="210mm"
   viewBox="0 0 297 210"
   version="1.1"
   id="svg11109"
   inkscape:version="0.92.3 (2405546, 2018-03-11)"
   sodipodi:docname="tardigrada.svg">
  <defs
     id="defs11103" />
  <sodipodi:namedview
     id="base"
     pagecolor="#ffffff"
     bordercolor="#666666"
     borderopacity="1.0"
     inkscape:pageopacity="0.0"
     inkscape:pageshadow="2"
     inkscape:zoom="1.063373"
     inkscape:cx="561.25984"
     inkscape:cy="396.85039"
     inkscape:document-units="mm"
     inkscape:current-layer="layer1"
     showgrid="false"
     inkscape:window-width="1865"
     inkscape:window-height="1025"
     inkscape:window-x="55"
     inkscape:window-y="27"
     inkscape:window-maximized="1" />
  <metadata
     id="metadata11106">
    <rdf:RDF>
      <cc:Work
         rdf:about="">
        <dc:format>image/svg+xml</dc:format>
        <dc:type
           rdf:resource="http://purl.org/dc/dcmitype/StillImage" />
        <dc:title></dc:title>
      </cc:Work>
    </rdf:RDF>
  </metadata>
  <g
     inkscape:label="Layer 1"
     inkscape:groupmode="layer"
     id="layer1"
     transform="translate(0,-87)">
    <path
       inkscape:connector-curvature="0"
       style="overflow:inherit;fill:#000000;stroke-width:0.26458332"
       d="m 173.17481,146.96926 c -0.48564,-0.0152 -0.89242,0.0563 -1.82625,0.19585 -2.58125,0.38563 -5.60329,0.46325 -7.51272,0.19327 -2.08242,-0.29444 -6.2924,-0.28149 -8.23464,0.0253 -1.21408,0.19178 -5.12682,0.33918 -5.77381,0.21756 -0.68089,-0.128 -2.27161,-0.12799 -3.83129,-5.3e-4 -0.72196,0.0591 -1.92275,0.0586 -2.66857,-5.3e-4 -1.29775,-0.1031 -2.40608,0.004 -8.49354,0.81752 -1.03262,0.13808 -2.50263,0.40797 -3.26646,0.59945 -1.13415,0.2843 -4.59964,0.73256 -6.19498,0.8015 -0.47267,0.0204 -1.8676,0.12672 -3.31607,0.2527 -0.64409,0.056 -1.71359,0.24763 -2.3766,0.42581 -3.07594,0.82667 -3.80309,0.91077 -6.15466,0.70952 -1.92222,-0.16451 -4.84183,-0.16639 -6.34173,-0.004 -1.08937,0.11784 -3.97179,0.9309 -5.8353,1.64641 -0.81797,0.31407 -6.652566,2.00547 -9.006166,2.61069 -1.243,0.31964 -3.17592,0.68178 -4.29535,0.80461 -2.19655,0.24098 -6.56825,1.1935 -8.11061,1.76733 -3.76787,1.40184 -4.60487,1.71696 -5.85391,2.20245 -0.77341,0.30062 -2.31094,0.77383 -3.41684,1.05162 -1.50655,0.37839 -2.29652,0.66618 -3.15072,1.14825 -0.62704,0.3539 -1.5902,0.84848 -2.13992,1.09864 -5.67855,2.58422 -8.33933,4.40797 -13.36042,9.1581 -2.46249,2.32961 -4.29872,4.04278 -4.96249,4.62969 -0.52177,0.46133 -1.83418,1.76675 -2.82412,2.80913 -1.48779,1.56659 -3.11386,2.68799 -4.83588,3.33572 -0.501,0.18844 -1.28018,0.57446 -1.73168,0.85731 -0.45153,0.28285 -1.2446,0.71217 -1.76216,0.95446 -1.32376,0.61971 -3.60564,1.96221 -4.16978,2.45308 -0.26125,0.22735 -1.26741,1.12513 -2.23603,1.99523 -0.96864,0.87009 -2.07422,1.81281 -2.4567,2.09496 -1.51331,1.11646 -1.72823,1.3503 -2.35025,2.55178 -0.32159,0.62115 -0.5934,1.25013 -0.60358,1.39785 -0.0101,0.14771 0.18549,0.56431 0.4346,0.92552 0.3093,0.44849 0.44528,0.80935 0.42892,1.1374 -0.0132,0.26422 -0.0168,0.72675 -0.008,1.02785 0.0201,0.67349 -0.0669,0.81995 -0.88264,1.48466 -0.35618,0.29026 -0.88701,0.80325 -1.17977,1.1405 -0.29276,0.33725 -0.9633,0.9056 -1.48983,1.26297 -1.75172,1.18894 -2.36404,1.81243 -3.03444,3.08767 -0.97062,1.8463 -0.99144,3.00659 -0.0744,4.18269 0.47625,0.61081 0.54478,0.65849 1.25625,0.87488 1.1403,0.34681 3.70494,0.20037 2.65203,-0.15141 -0.16087,-0.0538 -0.68023,-0.15456 -1.15445,-0.22427 -1.57781,-0.23194 -2.38286,-1.00777 -2.2288,-2.14871 0.082,-0.60762 0.19831,-0.83881 1.16117,-2.30839 0.92119,-1.40601 1.16531,-1.70254 1.75648,-2.13217 1.16239,-0.84475 2.9678,-1.23661 4.3248,-0.93844 0.34166,0.0751 1.03136,0.20788 1.53272,0.29507 1.22613,0.21324 1.52706,0.41484 1.57045,1.0511 0.0191,0.27999 0.16342,0.68696 0.32039,0.90485 0.57642,0.80005 0.55113,0.94709 -0.39842,2.34611 -0.9643,1.4207 -1.41091,2.59504 -1.21027,3.18172 0.097,0.28355 0.48895,0.77902 1.29502,1.63711 0.0774,0.0824 -0.0224,0.35483 -0.28784,0.78703 -0.25423,0.41403 -0.39764,0.79563 -0.38396,1.02216 0.0249,0.41184 0.29859,0.64792 0.45527,0.39274 0.35356,-0.57578 0.29545,1.06616 -0.076,2.14664 -0.2604,0.75764 -0.11147,1.47494 0.42634,2.05311 0.45252,0.48647 0.67876,0.61522 1.40973,0.80047 0.61768,0.15653 1.13214,0.11292 1.54926,-0.13075 0.20552,-0.12007 0.20999,-0.1533 0.0233,-0.1881 -0.12496,-0.0233 -0.19691,-0.0923 -0.15968,-0.15296 0.0372,-0.0606 0.11266,-0.0825 0.16795,-0.0486 0.15701,0.0964 0.53565,-0.27351 1.1808,-1.15496 l 0.59325,-0.81081 0.31677,0.2496 c 0.47944,0.37787 0.63411,0.72653 0.74518,1.68 0.14907,1.27993 0.93858,2.5115 2.04432,3.18792 0.82772,0.50637 2.08608,0.95989 2.43292,0.87695 0.13499,-0.0323 0.0755,-0.11989 -0.1974,-0.29094 -0.36842,-0.23086 -0.37213,-0.24576 -0.0636,-0.26665 0.59613,-0.0403 1.17572,-0.21114 1.93373,-0.56999 1.23051,-0.58256 1.247,-1.01105 0.0258,-0.67283 -1.0382,0.28755 -2.20586,0.2346 -2.97501,-0.13487 -0.64186,-0.30835 -0.6615,-0.33372 -0.83974,-1.06299 -0.27835,-1.13877 -0.0709,-1.26804 0.77514,-0.48369 1.30547,1.21029 2.7239,1.66056 3.75533,1.19269 0.42683,-0.19363 0.56572,-0.34824 0.98547,-1.09502 0.27504,-0.48934 0.44625,-0.91971 0.39119,-0.98495 -0.0538,-0.0638 -0.36274,0.12971 -0.68626,0.43046 -0.81781,0.76024 -1.35594,0.85291 -2.14406,0.36897 -0.68385,-0.41991 -0.94154,-0.88555 -0.9834,-1.77715 -0.0413,-0.87931 0.3763,-1.31266 2.19108,-2.27635 0.78547,-0.41708 2.04288,-1.45244 2.78277,-2.29082 0.33771,-0.38265 0.83418,-0.77006 1.24282,-0.96996 0.80838,-0.39543 2.93461,-1.14554 3.55483,-1.25419 0.49331,-0.0864 2.17471,0.12673 2.99206,0.37931 0.62373,0.19273 2.1599,0.18402 2.99723,-0.0171 0.3183,-0.0764 1.12385,-0.42304 1.79008,-0.76998 1.75138,-0.91204 2.68478,-1.23911 5.00279,-1.75235 1.13468,-0.25123 2.57634,-0.59934 3.20342,-0.77359 3.47185,-0.96473 7.32569,-1.29761 11.74037,-1.01389 0.91188,0.0586 2.0387,0.1181 2.50424,0.13177 0.46556,0.0137 1.6308,0.12486 2.58951,0.24753 1.70663,0.21835 3.70334,0.21599 4.94543,-0.006 0.6148,-0.10997 5.00841,-0.55006 6.8368,-0.68471 0.51713,-0.0381 1.17867,-0.0113 1.47019,0.0594 0.29152,0.0708 1.27404,0.1226 2.18333,0.11524 2.20564,-0.0178 3.042396,0.0731 4.553206,0.49455 2.8245,0.78784 3.70495,1.21931 4.99814,2.44946 0.38078,0.3622 1.24173,1.13808 1.91358,1.72444 0.95918,0.83712 1.44758,1.38504 2.27325,2.54972 0.57833,0.81576 1.15594,1.59967 1.28364,1.74253 0.25533,0.28563 1.43876,2.58566 1.60714,3.12332 0.16795,0.53629 0.55985,0.99386 1.37304,1.60404 0.66379,0.49805 0.79874,0.67304 1.10588,1.4335 0.20882,0.51702 0.30224,0.97723 0.23151,1.14153 -0.155,0.36001 0.43074,1.88752 0.92293,2.40657 0.50281,0.53025 0.70691,1.08963 0.46509,1.27486 -0.23703,0.18159 -0.67587,-0.0221 -1.43195,-0.66404 -0.32708,-0.2777 -0.64567,-0.49239 -0.70797,-0.47749 -0.19826,0.0474 0.14317,0.79103 0.56018,1.2206 0.55409,0.57075 0.90169,0.76477 1.75441,0.97823 0.58603,0.14673 0.76025,0.23798 0.86816,0.45475 0.25837,0.51906 1.29074,1.02257 2.22467,1.08469 0.47214,0.0314 0.96235,0.12098 1.08934,0.19896 0.3823,0.23474 1.72866,3.031 1.98024,4.11293 0.20494,0.88131 0.19971,1.06832 -0.0413,1.46089 -0.38782,0.63158 -1.25098,0.83404 -2.82877,0.66352 l -1.2485,-0.13487 0.41651,0.39429 c 0.34753,0.32876 0.56699,0.41991 1.32033,0.54932 0.49681,0.0853 1.00462,0.21738 1.12862,0.29352 0.26714,0.16403 1.25493,-0.0357 1.79885,-0.3638 0.46676,-0.28162 0.97244,-1.25544 1.02526,-1.97353 0.0464,-0.62997 -0.33273,-2.14204 -0.83664,-3.33571 -0.67457,-1.59795 -0.81065,-2.47161 -0.54208,-3.48299 0.35351,-1.3313 0.61834,-1.68987 1.3503,-1.82883 0.82705,-0.15703 1.44969,-0.64959 2.22622,-1.7601 1.22137,-1.74666 1.69345,-3.96679 1.5844,-7.45639 -0.0724,-2.31613 -0.0234,-2.86514 0.37879,-4.21938 0.14613,-0.492 0.23217,-0.99462 0.19069,-1.11673 -0.16138,-0.47518 0.5423,-0.90047 1.01234,-0.61185 0.25126,0.15429 1.903,0.35359 2.61224,0.31523 0.29331,-0.0159 1.3854,-0.27496 2.42673,-0.57568 1.04133,-0.30072 2.09653,-0.54636 2.34456,-0.5457 0.62928,0.002 2.76048,-0.67457 3.60908,-1.14515 0.89309,-0.49525 2.06319,-0.6858 3.92379,-0.63975 0.80423,0.0199 2.36867,-0.0877 3.47627,-0.23875 3.45328,-0.47089 3.93713,-0.52135 4.97851,-0.51986 1.60805,0.002 2.66403,0.12349 4.35736,0.49971 1.92481,0.42765 3.42452,1.08505 5.29321,2.32079 l 1.38028,0.9126 0.60617,1.0542 c 0.33338,0.57973 0.71985,1.37254 0.85937,1.76165 0.25468,0.71021 1.01509,1.64778 1.3932,1.71824 0.11935,0.0223 0.32219,0.43665 0.49455,1.00976 0.42585,1.41601 0.68128,1.75241 1.91047,2.51768 1.01838,0.63409 1.04528,0.66225 1.19631,1.25263 0.085,0.33224 0.21306,0.63999 0.28422,0.68368 0.0712,0.0437 0.22621,0.2055 0.34469,0.35915 l 0.21548,0.27906 -0.52037,0.32659 c -0.29999,0.18834 -0.50312,0.39431 -0.47956,0.48627 0.0225,0.0877 0.32586,0.50806 0.67437,0.9338 0.65369,0.79853 1.26173,1.88047 1.15446,2.05517 -0.14085,0.22938 -0.8759,0.10532 -1.45004,-0.24494 -0.69072,-0.42125 -1.05931,-0.48346 -0.93431,-0.15762 0.25579,0.66686 0.75786,1.05754 2.03088,1.58078 0.46766,0.19222 0.30477,0.60329 -0.49609,1.25367 -1.67627,1.36132 -2.10584,1.35096 -3.37448,-0.0816 -0.25797,-0.29132 -0.36096,-0.14688 -0.29559,0.41497 0.0376,0.32309 0.20462,0.56323 0.68679,0.9865 0.81459,0.71507 1.4998,0.95552 2.10529,0.73794 0.66077,-0.23745 2.38531,-1.34127 3.07475,-1.96784 0.59029,-0.53647 1.20567,-0.78095 1.50379,-0.5979 0.0852,0.0523 0.36821,0.11055 0.6289,0.12971 0.4433,0.0326 0.50621,0.0736 0.97358,0.63407 0.64267,0.77068 0.92679,1.92938 0.79892,3.25923 -0.0856,0.89045 -0.13621,1.03474 -0.45475,1.3038 -0.19702,0.16637 -0.55026,0.34212 -0.78549,0.39068 -0.62884,0.12976 -2.16833,-0.22628 -2.88716,-0.66766 -0.76032,-0.46687 -1.0034,-0.37603 -0.57722,0.21548 0.32591,0.45238 1.55491,1.18858 2.31923,1.38907 0.26909,0.0706 0.29291,0.11088 0.13746,0.22996 -0.39277,0.30089 0.59906,0.51618 1.38028,0.29972 0.68579,-0.19003 1.73202,-0.95887 2.0867,-1.53376 0.59405,-0.96295 0.60463,-1.52145 0.0785,-4.09949 -0.49302,-2.41594 -0.49328,-2.41928 -0.14159,-2.78226 0.42427,-0.43787 0.88824,-1.20404 1.17409,-1.93993 0.15788,-0.40648 0.32559,-0.62038 0.67076,-0.85473 0.38195,-0.25935 0.62477,-0.59504 1.42937,-1.97559 l 0.96945,-1.66346 0.14934,-1.74253 c 0.10702,-1.24996 0.08,-2.17379 -0.0956,-3.26854 -0.32935,-2.05325 -0.33791,-3.21169 -0.0331,-4.44262 0.14037,-0.56682 0.32514,-1.51629 0.41083,-2.10995 0.19633,-1.36029 0.79661,-2.55826 1.74253,-3.4773 0.93648,-0.90989 2.69147,-1.68375 4.2509,-1.87431 1.32515,-0.16193 5.12792,-0.73521 7.13031,-1.07487 1.1148,-0.18909 2.08927,-0.30899 3.78324,-0.46612 0.33615,-0.0312 1.28796,-0.0108 2.11511,0.0455 3.00465,0.20435 5.1866,0.59456 8.39949,1.50224 1.90577,0.5384 2.35731,0.71435 3.34915,1.30638 1.07945,0.64434 1.18256,0.7381 1.75907,1.60094 0.61555,0.92119 1.12332,2.11994 1.68051,3.96668 0.16534,0.548 0.44317,1.13186 0.61753,1.29708 0.28377,0.26886 1.44511,1.52986 2.18075,2.36833 0.17449,0.19887 0.78709,0.56631 1.66036,0.9958 0.76111,0.37431 1.90948,1.02523 2.55179,1.44643 1.14121,0.74836 1.16523,0.77322 1.06091,1.09192 -0.0953,0.2911 -0.0515,0.35786 0.40876,0.62115 0.28363,0.16225 0.67948,0.34401 0.87954,0.40411 0.20211,0.0607 0.33526,0.15554 0.29972,0.21342 -0.0866,0.14105 -0.90882,-0.039 -1.32137,-0.28939 -0.18384,-0.11163 -0.44042,-0.20168 -0.56999,-0.19998 -0.48048,0.006 -0.14552,0.44391 0.87075,1.13688 1.07121,0.73042 1.20708,0.98194 0.72967,1.35134 -0.62533,0.48383 -2.3797,0.19641 -3.14709,-0.51573 -0.31391,-0.29132 -0.31747,-0.29087 -0.25167,0.061 0.11254,0.60172 0.66837,1.11698 1.52291,1.41129 0.4088,0.14078 0.9673,0.28624 1.24075,0.32349 0.66408,0.0904 2.12609,-0.21866 2.42724,-0.51314 0.25781,-0.2521 0.56271,-0.166 0.56896,0.16071 0.0169,0.88929 -0.46382,1.81672 -1.05523,2.03502 -0.62003,0.22886 -0.99865,0.17493 -1.86087,-0.26407 -0.5929,-0.30187 -0.81022,-0.35559 -0.92553,-0.22892 -0.10566,0.11608 -0.0321,0.3197 0.2465,0.68212 0.75149,0.97772 2.31066,1.40301 3.35793,0.91571 0.50485,-0.23492 0.98138,-0.74955 1.61851,-1.74821 0.34073,-0.53408 0.62147,-0.31645 0.87075,0.67489 0.12521,0.49795 0.2145,1.10231 0.19844,1.34307 -0.0416,0.62248 -0.50969,2.18524 -0.7922,2.64532 -0.47818,0.77873 -2.51065,1.20087 -3.35174,0.69608 -0.61645,-0.37001 -1.0856,-0.13658 -0.60565,0.30127 0.33797,0.30832 1.28704,0.52357 2.40916,0.54674 0.48231,0.01 0.9244,0.0476 0.98237,0.0832 0.43991,0.27012 1.75064,-0.87678 2.34146,-2.04846 0.45965,-0.91158 0.72434,-2.44332 0.62011,-3.59099 -0.034,-0.37445 -0.13116,-1.3859 -0.21549,-2.24741 -0.1988,-2.03043 0.0809,-3.24192 0.89297,-3.86798 0.19222,-0.1482 0.38185,-0.53808 0.63511,-1.30483 1.37175,-4.15304 1.43892,-4.58145 1.02267,-6.57014 -0.333,-1.59109 -0.51391,-2.77803 -0.66301,-4.35632 -0.1008,-1.06722 -0.29261,-1.72005 -1.15135,-3.91346 -0.40657,-1.03855 -0.3275,-1.49491 0.28939,-1.66295 0.22982,-0.0626 0.6164,-0.0753 0.85886,-0.0279 1.45212,0.28361 1.92734,0.32255 3.54862,0.28887 2.15295,-0.0447 4.23508,0.20285 5.49476,0.65319 0.98279,0.35135 2.21843,0.52603 3.63802,0.5147 0.47628,-0.004 1.34686,0.12469 1.93477,0.28576 0.76432,0.20942 1.22018,0.25206 1.59938,0.14883 1.17864,-0.32083 2.7834,-0.96823 3.99717,-1.61282 1.01415,-0.53857 1.60598,-0.74043 2.82309,-0.96273 1.62632,-0.29703 2.4174,-0.47738 3.52124,-0.8015 0.37158,-0.10912 1.27174,-0.32606 1.99988,-0.48214 0.72813,-0.15607 1.87319,-0.51043 2.54452,-0.78755 0.67136,-0.27712 1.47153,-0.58956 1.77819,-0.69453 0.51406,-0.17597 1.12135,-0.59656 2.05052,-1.41955 0.31586,-0.27972 0.38497,-0.45108 0.5054,-1.25626 0.0161,-0.10746 0.0354,-0.20147 0.0522,-0.30592 l 0.0894,0.0413 c 2.07021,0.96237 4.5117,0.0709 5.47407,-1.99936 l 1.08003,-2.32338 c 0.96237,-2.0702 0.0703,-4.5117 -1.99985,-5.47408 l -3.21017,-1.49242 c -0.0365,-0.15061 -0.0725,-0.27792 -0.10644,-0.36586 -0.35089,-0.90866 -2.27933,-3.82086 -3.16156,-4.77439 -0.4772,-0.51578 -1.22298,-1.35883 -1.65777,-1.87379 -0.43482,-0.51495 -1.30368,-1.39701 -1.93064,-1.95957 -2.41035,-2.16281 -3.3016,-3.0071 -4.93096,-4.67258 -0.92644,-0.947 -2.04267,-1.99938 -2.48048,-2.33887 -1.3517,-1.04817 -10.99597,-6.9099 -12.20752,-7.41971 -0.58206,-0.24493 -1.81108,-0.76899 -2.73162,-1.16427 -0.92056,-0.39529 -2.33284,-0.90859 -3.13831,-1.1405 -0.80544,-0.23191 -1.97395,-0.56837 -2.59622,-0.74776 -0.6223,-0.1794 -2.2774,-0.64097 -3.67833,-1.02578 -1.40091,-0.3848 -2.82495,-0.82174 -3.16415,-0.971 -0.83532,-0.36756 -1.4383,-0.46628 -3.48764,-0.57051 -0.96095,-0.0489 -2.12413,-0.16361 -2.58486,-0.25528 -0.46072,-0.0917 -1.3312,-0.16414 -1.93425,-0.16071 -0.60306,0.003 -1.13991,-0.0203 -1.19269,-0.0527 -0.0528,-0.0324 -0.52694,-0.001 -1.05368,0.0693 -1.20568,0.16118 -1.76998,0.11599 -3.83904,-0.30696 -0.91528,-0.18711 -2.06288,-0.34537 -2.55023,-0.35192 -0.48736,-0.006 -1.42881,-0.0863 -2.09187,-0.17725 -1.34786,-0.18484 -2.87902,-0.32415 -4.57698,-0.41599 -1.53561,-0.0831 -5.95263,-0.75463 -7.02076,-1.06764 -0.98692,-0.28921 -1.31497,-0.32547 -2.67477,-0.29404 -0.53884,0.0125 -1.53328,-0.11556 -2.20968,-0.28473 -1.23493,-0.30886 -2.59226,-0.49135 -4.42247,-0.59428 -0.54141,-0.0305 -1.50834,-0.16223 -2.14871,-0.29301 -0.64036,-0.13076 -1.64609,-0.24848 -2.235,-0.26148 -0.58893,-0.013 -1.41881,-0.10152 -1.84434,-0.19637 -0.77008,-0.17165 -1.54387,-0.15552 -2.44222,0.0506 -0.61278,0.14062 -5.67906,-0.31273 -8.22948,-0.73639 -1.25028,-0.20769 -1.815,-0.30937 -2.30063,-0.32453 z M 32.483144,215.97538 c 0.0787,0.003 0.1362,0.0126 0.1664,0.0279 0.12076,0.0613 0.28691,0.1453 0.36897,0.18707 0.0821,0.0418 0.0973,0.1324 0.0336,0.20102 -0.0637,0.0686 -0.0391,0.17181 0.0548,0.22944 0.13139,0.0807 0.0805,0.25107 -0.22066,0.74156 -0.35177,0.57288 -0.45406,0.65227 -1.01544,0.78651 -0.78157,0.1869 -1.49924,-0.17288 -1.62936,-0.817 -0.16635,-0.82336 0.027,-1.03123 1.15652,-1.24489 0.42575,-0.0805 0.84922,-0.1218 1.0852,-0.11162 z"
       id="path3346" />
  </g>
</svg>
