<?xml version="1.0" encoding="UTF-8" standalone="no"?>
<!-- Generator: Adobe Illustrator 12.0.1, SVG Export Plug-In . SVG Version: 6.00 Build 51448)  -->

<svg
   xmlns:dc="http://purl.org/dc/elements/1.1/"
   xmlns:cc="http://creativecommons.org/ns#"
   xmlns:rdf="http://www.w3.org/1999/02/22-rdf-syntax-ns#"
   xmlns:svg="http://www.w3.org/2000/svg"
   xmlns="http://www.w3.org/2000/svg"
   xmlns:sodipodi="http://sodipodi.sourceforge.net/DTD/sodipodi-0.dtd"
   xmlns:inkscape="http://www.inkscape.org/namespaces/inkscape"
   id="Layer_1"
   xml:space="preserve"
   overflow="visible"
   viewBox="0 0 1122.5197 793.7008"
   version="1.1"
   enable-background="new 0 0 272.668 392.75"
   sodipodi:docname="Turtle.svg"
   width="297mm"
   height="210mm"
   style="overflow:visible"
   inkscape:version="0.92.3 (unknown)"><defs
   id="defs225">
	
	
	
	
	
	
	
	
	
	
	
	
	
	
	
	
	
	
	
	
	
	
	
	
	
	
	
	
	
	
	
	
	
	
	
	
	
	
	
	
	
	
	
	
	
	
	
	
	
	
	
	
	
	
	
	
	
	
	
	
	
	
	
	
	
	
	
	
	
	
	
	
	
	
	
	
	
	
	
	
	
	
	
	
	
	
	
	
	
	
	
	
	
	
	
	
	
	
	
	
	
	
	
	
	
	
	
	
</defs><sodipodi:namedview
   pagecolor="#ffffff"
   bordercolor="#666666"
   borderopacity="1"
   objecttolerance="10"
   gridtolerance="10"
   guidetolerance="10"
   inkscape:pageopacity="0"
   inkscape:pageshadow="2"
   inkscape:window-width="1695"
   inkscape:window-height="1244"
   id="namedview223"
   showgrid="false"
   units="mm"
   inkscape:zoom="0.60089115"
   inkscape:cx="136.334"
   inkscape:cy="196.375"
   inkscape:window-x="75"
   inkscape:window-y="34"
   inkscape:window-maximized="0"
   inkscape:current-layer="Layer_1" />
<path
   style="clip-rule:evenodd;fill:#000000;fill-opacity:1;fill-rule:evenodd;stroke-width:1.00000012"
   d="m 763.24389,70.661701 c -4.24678,-2.497322 -12.13912,0.0949 -15.97694,-0.382512 l -3.33449,5.127564 c -4.54155,-4.188374 -10.50481,0.617859 -12.2626,-3.595149 -4.87173,4.178186 -12.51312,5.466975 -17.18776,10.719252 -3.20876,3.604216 -3.33581,8.351929 -5.64799,10.927633 -2.9255,3.262915 -7.91934,3.928336 -11.79848,6.923651 -14.36183,11.0877 -18.31291,22.49699 -23.40253,31.49523 -0.4666,0.82863 -4.67436,3.04967 -0.97355,3.74621 -9.74253,7.27747 -8.31293,25.96531 -16.26854,31.75095 -5.00555,-10.80507 -23.45846,-11.01609 -27.34322,-16.31885 -1.26197,-1.72281 -26.12739,-0.74353 -33.24295,1.7368 -1.16388,0.40582 -5.16874,7.94823 -8.77707,4.51345 5.21635,-3.2468 -3.27802,0.0406 -5.43568,-0.61816 -7.43072,-12.37561 -8.24531,-26.96519 -23.4913,-35.71048 -10.17849,-1.1669 -21.56283,-2.52671 -31.95934,-4.72877 4.3454,0.92085 -3.04311,-1.01775 -2.7183,-0.30508 -3.00131,-6.59386 -0.24926,-14.79558 -12.3623,-12.4186 -5.58517,-6.139245 -8.06977,-10.012529 -14.36076,-9.338921 -1.2637,0.135103 -0.20229,4.718618 -3.33449,5.127563 -3.53584,0.463959 -4.72536,-8.205537 -12.97943,-6.977985 -0.75397,0.987705 -4.26453,5.307382 -7.44345,2.515348 l -2.00148,3.077734 c 1.75059,4.203921 5.86954,1.257362 6.82394,2.975031 4.35355,7.8345 -5.83772,1.66688 -10.15842,2.15253 -7.84715,0.88128 -10.58668,4.42718 -14.20972,3.89726 0.52917,1.66447 -0.78312,2.75982 -2.66994,4.10564 l 6.15547,4.00296 c 7.03483,-3.48751 16.86088,-3.58329 17.69722,4.20834 -3.19705,0.70399 -0.59848,2.25368 -3.33644,5.13058 -5.8323,-0.62436 -12.44477,3.38531 -12.46498,7.94854 -1.31309,-0.62401 -2.79999,-2.06833 -3.74621,-0.97355 1.5882,2.02253 -3.23229,2.74815 -1.64308,4.76915 6.32554,-4.83121 -0.53998,2.56104 2.40928,3.02941 5.72459,0.91121 8.1195,-11.14224 17.54918,-9.02589 3.11244,19.45371 19.88154,16.08218 32.4688,19.65635 -2.41486,10.53183 17.76204,10.43193 23.18919,9.23816 14.59796,10.8967 -1.7396,12.94815 -9.65092,17.08312 -5.32399,2.78267 -13.02179,10.01692 -15.13493,12.05421 -0.20143,0.19525 -1.38536,-2.36136 -1.38435,-2.3629 -3.51378,3.33583 -5.85127,6.86285 -9.38922,9.95303 -13.83867,12.09138 -30.10247,19.04972 -38.99663,33.02963 -5.69937,-3.6538 -5.85707,7.81812 -12.52131,3.53688 -10.57477,8.9916 -21.00344,14.32738 -25.55011,21.33577 0.40731,-0.62631 0.98661,-1.08606 1.69142,-0.3584 -9.83519,4.86771 -17.153,20.14423 -32.27434,27.18421 -1.16403,5.83388 -10.31601,15.7354 -12.98541,22.21068 -6.55608,15.90326 -28.71357,39.83718 -32.63873,54.68144 -0.37372,1.41331 0.0336,1.9809 0.34522,2.19176 0.4243,0.10481 0.26372,0.17842 0,0 -0.27218,-0.0672 -0.76005,-0.13401 -1.68019,-0.13896 2.34812,3.83051 0.68949,5.67069 -1.95313,7.48848 1.10392,0.94563 3.02816,1.71744 2.41123,3.02637 -6.38934,7.44797 1.60388,28.47064 -6.72721,35.03906 3.44425,4.89586 -1.22267,6.80295 -3.2881,9.54131 5.90852,1.19068 -1.59922,6.61075 3.79754,5.38627 -4.36454,6.85969 0.14392,27.72261 6.50595,34.88603 -0.98989,12.92996 -6.5503,10.70216 -9.23816,23.1892 -5.68997,-3.0083 -3.13218,2.1497 -8.41566,6.20683 -10.23644,-2.89939 -12.25662,7.50373 -21.29341,8.0493 -0.0822,-2.66139 -3.49726,-1.14436 -4.4591,-4.36239 -11.93421,2.11881 -44.13227,14.16518 -40.43431,26.25703 0.97895,3.19851 4.11799,-0.002 6.46358,1.28661 0.93965,-3.76823 2.77027,-3.52591 -1.07626,-5.07921 6.51704,2.80385 5.28967,-9.04986 10.46548,-4.87383 2.84435,2.2964 2.58451,16.2047 -4.15895,22.11294 -5.92429,5.19067 -18.15273,11.77563 -8.31399,15.02729 -2.89479,-3.90574 3.12087,1.8105 3.38583,-0.71485 0.4718,-1.71205 1.15771,-5.98909 5.02787,-5.48897 3.1662,6.09453 7.24278,8.08866 7.28309,13.49486 -8.09187,6.33859 -13.38272,17.38033 -6.51986,23.4943 7.25709,-1.45551 5.52903,-16.76167 13.03376,-17.79995 7.93441,8.01513 6.7882,-1.13855 13.954,3.23676 -2.58181,2.90616 -1.44468,5.02301 -0.25673,7.12904 2.35284,-0.57419 10.90151,2.375 16.3139,1.85041 1.82096,-4.93152 2.32378,-5.00091 5.64301,-10.92659 2.8769,2.73796 4.42658,0.13932 5.13057,3.33643 6.45942,-3.6734 4.62506,-9.37481 8.6724,-13.33585 5.5725,-5.45448 18.92482,-0.831 22.21562,-16.20822 -0.52749,-2.6772 1.47559,-8.95953 5.33791,-8.20831 -0.32403,-0.0641 0.0147,3.15449 0.71787,3.38781 9.46031,3.15008 13.1714,23.12447 27.748,22.42401 -0.5785,1.59668 0.18892,2.90814 -1.64006,4.77112 6.12067,6.30571 12.32761,20.92692 25.74653,25.50176 -8.68184,19.28993 -13.42026,27.47867 -18.83578,44.68201 0.21031,-0.66684 1.13817,-1.05318 1.69142,-0.35841 -9.68823,16.71954 -7.99852,22.90933 -14.88417,34.11384 2.97868,1.70933 1.4586,5.07389 -0.61817,5.43565 3.83881,7.07717 -7.43062,15.73964 7.3828,22.31833 1.3803,-3.035 2.03384,-3.00633 2.97804,-6.82199 -0.27843,1.12178 4.42622,-13.76956 5.59466,-15.33733 0.16943,-0.22698 1.27504,3.13049 2.04981,1.33301 0.40976,-0.94659 -1.77125,-2.84883 -1.07625,-5.07922 1.74667,-5.59512 9.02085,-8.89849 8.31596,-15.03028 0.0329,0.28627 -1.71069,0.93704 -1.02792,-0.66847 6.98575,-16.39897 16.93502,-31.43572 25.6094,-46.11471 9.45167,1.45623 14.61003,11.28556 26.62339,12.93405 6.4034,0.87751 14.10154,-2.44141 16.3139,1.85042 8.46497,16.40492 29.73674,16.26811 48.32355,10.9869 13.79931,9.13144 16.69356,4.47527 30.6807,11.19324 -5.27677,2.90535 1.47527,6.93057 -6.98399,12.97551 2.86831,7.47519 -2.54925,10.26706 1.22731,18.31538 2.5231,5.37633 10.50426,6.83102 11.74716,17.85622 -0.12868,-1.14565 0.1698,2.74893 3.43719,3.69787 -3.66556,8.54921 8.67581,12.03354 10.35783,15.49437 5.47661,-3.59651 7.44369,1.95478 12.87671,-1.84743 -3.21699,-1.08698 -0.60305,-3.40951 -1.07626,-5.07921 7.67559,-2.26065 11.73165,2.57319 18.67483,0.46906 1.48604,5.47268 -0.21132,8.25778 -1.23031,10.87523 2.70894,-2.47533 -2.08628,8.53176 2.09818,5.74377 0.94292,-2.18738 4.50141,-4.41686 6.67092,-10.25814 -5.22799,-3.03851 3.75133,-6.29065 -2.09816,-5.74377 1.81674,-8.20122 3.18808,-5.01687 8.00589,-12.31094 2.6604,2.81832 3.80113,-1.53513 6.46254,1.28167 -2.36576,4.03858 3.60299,6.31504 -1.23227,10.87821 3.67874,1.39383 4.11335,2.84353 5.79407,2.30959 1.96385,-2.003 0.57303,-6.80064 3.2881,-9.54131 -3.12965,-3.60523 -3.60308,-5.83345 -1.43768,-6.77258 -3.02738,-2.89714 -7.00457,-5.59301 -7.23174,-9.08217 3.34889,-0.33811 1.71959,-6.58706 6.72123,-5.85038 2.14947,11.09579 13.82693,15.88033 11.59414,4.62305 -1.39474,-0.95299 -10.01073,-17.95749 -11.69084,-13.44456 2.33751,-12.9382 -18.82791,-16.20724 -22.31534,-21.80782 -1.11614,-1.79219 3.99461,-4.47267 -3.12608,-6.41222 3.21559,-11.70589 20.22837,-9.20609 23.55057,-18.26105 4.21426,3.88356 6.80658,-5.5103 10.15845,-2.15252 3.9694,-8.69321 15.64507,-5.88917 18.52572,-12.7701 2.69474,1.59036 4.81159,0.45323 7.12904,0.25673 2.02675,-3.27151 7.17693,-9.86775 13.79996,-10.00139 3.13906,-4.7597 6.40895,-15.71424 15.39965,-19.18233 -3.30181,-9.63361 13.32091,-21.19113 14.67683,-22.56909 7.78313,-7.90728 15.62332,-19.44409 20.86147,-29.77769 -1.1221,1.47204 -5.80132,0.45555 -4.59099,-1.97624 5.01695,3.63917 8.75131,-7.3659 5.02486,-5.49093 8.07366,-9.67435 2.32941,-19.18187 15.34333,-23.59401 6.98614,-8.55758 6.74833,-17.43136 15.55565,-35.13978 -2.4e-4,-3.23209 -3.34435,-0.33559 -2.41123,-3.02639 5.36449,-16.85552 15.24028,-27.89351 21.24699,-41.65564 -1.10139,-0.94615 -3.02662,-1.71646 -2.41123,-3.02639 4.1851,-21.55729 9.63341,-35.4373 14.73614,-47.34803 -1.5653,-0.95004 -2.42229,-1.71308 -2.40931,-3.02939 0.0321,-3.4804 0.8748,-24.31217 1.74772,-25.13931 8.44924,-7.9959 15.59517,13.8246 18.1594,14.73012 -4.1443,11.44415 20.59467,21.3476 25.41614,26.26627 -0.0242,-0.22606 0.0345,-0.47051 0.33036,-0.76451 0.0894,0.57413 0.21152,1.13439 0.35331,1.67954 0.002,0.004 0.006,0.009 0.007,0.0147 -0.002,-0.002 -0.004,-0.002 -0.005,-0.004 1.04079,3.99176 3.45343,7.07855 6.87634,7.3927 2.46733,-3.30251 5.67182,-4.46581 8.77709,-4.51347 7.11666,-0.10812 14.61812,9.09458 16.05517,8.98248 4.75078,-0.36583 4.66869,-7.77866 0.87687,-12.56771 l 3.33645,-5.13058 c 10.07103,3.79687 3.55192,7.23212 9.64102,12.11156 8.7979,-13.26956 -3.40672,-12.09515 -3.3315,-24.06306 0.5323,3.90216 5.15264,2.05673 5.48897,5.02787 1.06061,-2.58383 -0.0765,-4.70066 0.25675,-7.12904 -5.52539,-2.86405 -13.1823,-19.35653 -20.97844,-23.86365 -9.11276,-5.26703 -24.26809,12.75822 -23.80433,-3.80054 -5.44212,-2.17052 -8.02036,-20.31117 -12.40765,-16.82739 -3.37173,-23.30095 -36.50803,-19.27015 -43.08834,-28.02065 -11.4098,-6.671 -5.91784,-12.35515 -8.71583,-20.2685 -7.64528,-21.62849 -27.54999,-30.73864 -39.85656,-41.97361 -4.46493,-4.07723 -17.12148,-9.03646 -2.56034,-16.26556 -1.32952,-3.62575 3.28364,-2.98186 2.97503,-6.82394 2.1022,-1.21235 4.42251,-1.38296 6.41224,-3.12608 -4.85082,-6.43681 22.41591,-22.4695 18.63338,-33.13832 8.85754,-4.42835 4.77233,-22.29876 11.55073,-28.9813 -1.92271,-9.24916 7.88259,-16.74419 5.799,-26.884057 -1.3339,-0.709807 -6.63308,-10.602155 -8.6131,-11.443082 l 0.009,-0.04589 c 2.87102,-2.192569 2.0452,-9.340186 1.89576,-11.905097 -0.31988,-2.265755 -1.33259,-3.661856 -2.74818,-4.494302 z m 67.52104,297.751189 c -8.2e-4,-0.004 -0.001,-0.007 -0.002,-0.009 -0.12997,-0.2823 -0.36262,-0.58748 -0.68367,-0.91503 0.0374,0.34914 0.33102,0.64372 0.68576,0.92496 z m -73.45757,-250.6766 c 0.004,0.002 0.004,0.005 0.007,0.009 0.18748,0.4544 0.34578,0.91752 0.47722,1.38379 -0.13254,-0.47037 -0.29464,-0.93438 -0.48428,-1.39265 z m -17.75262,-8.62797 0.0129,0.007 c -3.80542,2.94252 0.62251,5.82421 -3.9546,10.56623 l -0.004,-0.002 c -0.004,-0.002 -0.006,-0.004 -0.009,-0.006 4.57711,-4.742 0.14924,-7.62371 3.9546,-10.56623 z m -5.10006,0.90446 c -1.77625,2.66033 -2.63717,4.64787 -1.5431,6.73302 -1.10056,-2.089 -0.23935,-4.07504 1.5431,-6.73302 z m -12.49552,3.70765 c -7.5e-4,0.009 10e-4,0.0165 3.1e-4,0.0259 -2.88739,1.14414 -1.50236,4.45847 -2.29319,5.74913 -0.006,0.007 -0.0128,0.0147 -0.0185,0.022 l -0.009,-0.006 c 0.8276,-1.27265 -0.61436,-4.64525 2.32053,-5.79122 z m -0.62012,5.43867 c 0.004,0.004 0.007,0.004 0.0129,0.007 -0.38172,1.73676 -4.11702,4.18386 -2.68347,5.53381 -1.45947,-1.34885 2.28892,-3.80121 2.67143,-5.54163 z m -19.23455,9.38819 0.006,0.004 c 0.24932,0.60991 0.50326,1.21535 0.82497,1.53295 -0.32479,-0.31448 -0.58511,-0.92225 -0.83593,-1.53581 0,0 0.006,-10e-4 0.006,-10e-4 z m 2.04981,1.33301 c -0.73479,3.0256 -3.53586,7.33289 -6.00441,9.2332 1.59165,5.31367 -0.11161,5.87225 -3.59515,12.26263 0,0 -0.004,-0.002 -0.004,-0.002 3.48286,-6.38924 5.18836,-6.94962 3.59816,-12.26066 0,0 -0.004,-0.002 -0.004,-0.002 2.46685,-1.89899 5.26336,-6.20191 6.0005,-9.2272 0.002,-0.002 0.006,-0.002 0.007,-0.004 z m 16.76407,41.55696 c 0,0 0.004,0.002 0.004,0.002 -2.40936,5.80233 -1.15453,10.98512 -6.97604,12.97641 -0.002,-0.001 -0.006,1.3e-4 -0.007,-9e-4 5.82487,-1.99055 4.57123,-7.17416 6.98099,-12.97746 z m -10.86082,-6.06639 c 0.004,0.001 0.006,0.004 0.009,0.006 -2.34524,-0.93502 -4.93698,-1.38894 -6.53535,-0.86714 0,0 -0.004,-0.002 -0.004,-0.002 l -0.005,-0.004 c 1.59888,-0.52255 4.19011,-0.0679 6.53537,0.86716 z m -33.36357,-20.24676 c -0.40999,-0.0358 -0.83142,-0.009 -1.28177,0.0901 -0.67989,0.14905 -1.42645,0.4623 -2.29698,0.9739 0.327,0.10775 0.60833,0.23815 0.84777,0.39306 -0.24188,-0.15566 -0.5254,-0.28577 -0.85574,-0.39396 0.8739,-0.51358 1.62295,-0.82472 2.30495,-0.973 0.45026,-0.0978 0.87173,-0.12685 1.28177,-0.0901 z m -1.74166,17.30409 c 0.44559,0.19236 0.76721,0.94602 1.07955,1.70706 -8.7e-4,0.002 -0.004,0.004 -0.004,0.006 -0.31391,-0.76524 -0.63562,-1.52057 -1.0836,-1.71398 0.002,0.001 0.006,-1.6e-4 0.007,9e-4 z m -0.96924,0.37901 c 0,0 10e-4,0.006 10e-4,0.006 l -0.006,-0.004 c 0,0 0.006,-0.001 0.006,-0.001 z m -1.65334,16.93814 c 1.28249,1.26728 2.35491,2.72902 3.14319,4.42615 0.52613,1.13275 0.92562,2.37099 1.1732,3.72669 4.7e-4,0.002 0.004,0.004 0.004,0.007 -0.54941,0.17218 -1.10981,0.17971 -1.67574,0.0778 0.56372,0.10059 1.12438,0.0868 1.67166,-0.0846 l -0.005,-0.004 c -0.24686,-1.35445 -0.6423,-2.5908 -1.16718,-3.72278 -0.78733,-1.69798 -1.86138,-3.15816 -3.14319,-4.42615 z m -18.52589,-8.15574 c 0.98479,0.62666 1.78836,1.21845 2.45479,1.78882 -0.66674,-0.5702 -1.46969,-1.16236 -2.45479,-1.78882 z m 93.39294,62.37202 c 10.73403,10.48825 19.14694,24.27336 19.31699,35.73726 -0.004,-0.002 -0.005,-0.004 -0.009,-0.006 -0.16998,-11.46118 -8.57758,-25.24405 -19.30797,-35.7314 z M 633.30166,159.91627 c -4.764,-1.12558 -9.83605,-1.15561 -13.54932,-2.19521 -0.53181,-0.14887 -1.03434,-0.31636 -1.50547,-0.51286 0.47051,0.19562 0.97473,0.36452 1.50547,0.51286 3.7151,1.03837 8.78718,1.06922 13.54932,2.19521 z m 97.96635,64.37531 c 0.0128,0.29853 0.0608,0.57793 0.14374,0.83766 0.0831,0.25974 0.20316,0.50094 0.3484,0.72693 -0.14593,-0.22643 -0.26525,-0.46655 -0.3484,-0.72693 0,0 -0.004,-0.002 -0.004,-0.002 -0.0826,-0.25934 -0.12959,-0.53764 -0.14079,-0.83571 z m -57.14044,-36.53869 c -0.84741,-0.30345 -1.69296,-0.80588 -2.51155,-1.35955 0.81778,0.55277 1.66513,1.05699 2.51155,1.35955 z m -5.57664,-3.47254 c 0.8888,0.5225 1.88996,1.3045 2.93676,2.02097 -1.58892,-1.08811 -3.06962,-2.32628 -4.22292,-2.57512 0.39424,0.0855 0.82514,0.28312 1.28616,0.55415 z m -1.28917,-0.55609 c -0.78865,-0.16906 -1.42564,0.12978 -1.84626,1.25415 -0.49614,-0.30488 -0.94277,-0.60483 -1.34575,-0.89653 0.4023,0.291 0.8466,0.58553 1.3417,0.88963 0.42118,-1.12584 1.06015,-1.41775 1.85031,-1.24725 z m -4.9947,-1.19102 c 0.45823,0.47128 1.00421,0.95773 1.68532,1.45948 -0.68082,-0.50197 -1.22737,-0.98802 -1.68532,-1.45948 z m -46.40649,-26.86405 c 0,0 0.004,0.002 0.004,0.002 l -2.00148,3.07774 c 0,0 -0.004,-0.002 -0.004,-0.002 z m 6.89969,9.26395 c -1.91889,-0.69661 -3.83127,-1.36812 -5.72892,-1.91652 1.89824,0.54831 3.8094,1.21977 5.72892,1.91652 z m -13.17498,-7.64399 c 0.002,4.6e-4 0.004,0.004 0.006,0.004 -1.28767,-0.24671 -2.70295,-0.39123 -4.16627,-0.39995 1.46036,0.009 2.87506,0.14979 4.16025,0.39604 z m -8.61556,0.0165 c -2.94983,0.59054 -5.75943,1.85495 -7.78092,4.0536 0.348,1.1821 0.78586,1.55354 1.24877,1.72303 -0.46553,-0.16815 -0.90743,-0.53581 -1.25675,-1.72393 2.02321,-2.19951 4.83731,-3.46256 7.7889,-4.0527 z m 30.42158,21.60094 c 0.004,0.004 0.004,0.006 0.007,0.009 -0.14006,0.12078 -0.29153,0.19184 -0.44151,0.26459 0.14924,-0.0745 0.29626,-0.14942 0.43445,-0.27346 z m 24.62192,16.0118 c 0.002,0.004 5.7e-4,0.007 0.002,0.009 -0.11858,0.12354 -0.24157,0.23074 -0.36726,0.3214 0.1263,-0.0931 0.24671,-0.2039 0.36517,-0.33133 z m 77.9804,50.71117 c 0.16025,4.7134 -6.27874,5.94112 -7.33939,11.28606 -0.35914,-0.23316 -0.6579,-0.45799 -0.90964,-0.6728 0.2504,0.21306 0.54961,0.43481 0.90558,0.66586 1.06003,-5.34176 7.48887,-6.56854 7.33653,-11.27507 0.002,-0.002 0.006,-0.001 0.007,-0.004 z m -1.63986,-0.35221 c 0.0854,0.10427 0.16337,0.22366 0.24356,0.3423 -0.0791,-0.1173 -0.15934,-0.23849 -0.24356,-0.3423 z m 0.24657,0.34426 c 0.0791,0.1173 0.16043,0.23179 0.24733,0.32335 -0.0883,-0.0918 -0.16704,-0.20469 -0.24733,-0.32335 z m -103.92536,-67.02312 0.004,0.002 c 0.27178,0.23618 0.53056,0.41554 0.77785,0.54005 -0.24634,-0.12317 -0.50159,-0.29699 -0.77078,-0.53118 -3.30573,8.61835 -7.00099,7.16841 -5.59692,15.31449 -0.004,0.007 -0.006,0.007 -0.009,0.0147 -1.41657,-8.17556 2.28734,-6.71271 5.59662,-15.34036 z m 102.60233,66.72297 0.006,0.004 c 2.18192,2.73928 -3.83094,0.77351 -4.7298,2.76183 0,0 10e-4,0.006 10e-4,0.006 l -0.0129,-0.007 c 0.88451,-1.99986 6.90038,-0.0321 4.73285,-2.75986 0,0 0.002,-0.004 0.002,-0.004 z m -77.96292,-49.61352 c -0.22459,-0.0189 -0.44829,-0.0367 -0.67394,-0.0619 -1.34401,4.61448 -4.00729,4.03609 -1.95928,7.47166 -10e-4,0.004 -0.004,0.005 -0.006,0.009 -2.0684,-3.45591 0.60674,-2.86583 1.95313,-7.48848 l 0.004,0.002 c 0.22854,0.0272 0.45656,0.0477 0.68295,0.0677 z m 89.59337,58.63952 c -10e-4,0.006 -0.006,0.011 -0.007,0.0165 -5.44221,2.27259 -8.4245,10.67674 -11.02056,14.70414 0,0 -0.002,0.004 -0.002,0.004 0,0 -0.004,-0.002 -0.004,-0.002 l -0.006,-0.004 c 2.59955,-4.0311 5.5826,-12.457 11.03829,-14.71828 z m -51.70016,-32.81697 c 0.004,0.001 0.005,0.006 0.009,0.006 -0.39813,-0.12464 -1.21695,0.40668 -2.61985,1.8716 -1.96796,2.05712 -4.06147,7.13128 -6.30667,11.94051 -0.004,0.004 -0.006,0.004 -0.009,0.007 2.24595,-4.81062 4.33921,-9.89139 6.30952,-11.95148 l -0.006,-0.004 c 1.4029,-1.4649 2.22473,-1.99429 2.62287,-1.86965 z m 117.72803,77.21367 c 0.32667,1.3012 1.91188,1.88242 2.9354,2.77278 1.02873,0.89493 1.49095,2.10058 -0.47283,4.6663 l -0.005,-0.004 c 0,0 -0.004,-0.002 -0.004,-0.002 1.956,-2.55703 1.50449,-3.76639 0.48183,-4.66044 -1.01973,-0.89147 -2.60408,-1.47206 -2.9393,-2.76676 0.002,-0.002 0.002,-0.004 0.004,-0.006 z M 554.92296,133.64383 c 1.81093,1.88042 -0.61355,5.07143 -2.72329,5.44379 0,0 -0.004,-0.002 -0.004,-0.002 2.10649,-0.37298 4.52714,-3.56161 2.7263,-5.44184 z m 253.55472,165.66668 c -1.1394,1.41128 -1.39971,2.63599 -0.92832,3.70292 -0.47547,-1.06867 -0.22,-2.29176 0.92832,-3.70292 z m -14.29652,-9.02341 c 0.74366,0.69661 1.27539,2.25855 1.81626,2.73783 -0.54594,-0.46346 -1.07589,-2.03033 -1.81626,-2.73783 z m -25.93166,-16.54278 -9e-4,0.007 c -1.22431,1.1789 -2.72983,1.01226 -3.68989,3.4381 -0.0184,0.11106 -0.0218,0.2187 -0.009,0.3233 -0.0147,-0.10757 -0.0129,-0.21576 0.006,-0.3302 0.96107,-2.4274 2.47157,-2.26179 3.69486,-3.43915 z m -14.36968,-9.33185 c 5.9e-4,0.006 -3.8e-4,0.007 1.7e-4,0.0129 -0.18533,0.2149 -0.34584,0.35101 -0.48542,0.4242 0.14098,-0.0773 0.29813,-0.2167 0.48525,-0.43712 z m -2.24249,-0.61582 c -0.1318,0.0404 -0.28436,0.13492 -0.45893,0.30455 0.27586,0.87694 0.24803,1.65975 -0.009,2.3808 0.25029,-0.7195 0.27344,-1.50299 -0.006,-2.37764 0.18395,-0.17934 0.33701,-0.27045 0.47382,-0.30771 z m 40.99747,27.44784 c 0.58882,1.16521 -1.52695,2.90211 -0.37855,3.94924 0,0 -0.002,0.004 -0.002,0.004 -1.16176,-1.04483 0.96107,-2.78477 0.38051,-3.95225 z M 559.27951,139.56469 c -0.46665,-0.25945 -1.17562,-0.0147 -2.31475,1.15908 0,0 -0.004,-0.002 -0.004,-0.002 1.14148,-1.17529 1.85114,-1.41921 2.31776,-1.15714 z m 36.54012,24.02318 c 0.2947,0.24649 0.56946,0.67311 0.80231,1.46261 0,0 -0.002,0.004 -0.002,0.004 -0.23199,-0.78806 -0.50702,-1.21759 -0.80034,-1.4656 z m 10.02755,7.46612 c 4.9e-4,0.006 7.3e-4,0.011 10e-4,0.0184 -0.67224,2.03059 -1.82326,1.81031 -2.91745,1.84914 1.09636,-0.0375 2.24685,0.18209 2.91624,-1.86702 z m 37.46816,24.39145 c -0.38723,0.18898 -0.77506,0.3268 -1.15666,0.42391 0.38169,-0.0971 0.76928,-0.23502 1.15666,-0.42391 z m 164.27551,107.62917 c 0.13271,0.28249 0.30422,0.55811 0.52648,0.82136 -0.22382,-0.26363 -0.39279,-0.53868 -0.52648,-0.82136 z M 558.74259,141.83714 c 0.12923,0.13933 0.2367,0.28062 0.32907,0.42782 -0.0916,-0.14649 -0.20102,-0.28908 -0.32907,-0.42782 z m 3.34673,2.21917 c 0.004,0.001 0.004,0.004 0.005,0.004 -0.36892,0.27437 -0.6527,0.35002 -0.87782,0.28447 0.22404,0.062 0.5066,-0.0165 0.8718,-0.28838 z M 793.4751,294.98988 c 0.16245,0.15842 0.30606,0.39019 0.44307,0.66023 -0.13602,-0.26839 -0.28214,-0.50137 -0.44307,-0.66023 z m 0.4461,0.66217 c 0.13492,0.26615 0.25996,0.57089 0.38488,0.87469 0,0 -0.002,0.004 -0.002,0.004 -0.12556,-0.3054 -0.24744,-0.60993 -0.38291,-0.8777 z M 559.45008,143.18249 c 0,0 0.004,0.002 0.004,0.002 0.23555,0.94517 0.12299,1.96173 0.39408,2.89925 0.0903,0.3125 0.22496,0.61836 0.42802,0.90701 -0.20457,-0.28937 -0.33712,-0.59357 -0.42802,-0.90701 0,0 -0.004,-0.002 -0.004,-0.002 -0.27107,-0.93752 -0.1586,-1.95406 -0.39406,-2.89923 z m -23.67604,-14.77656 c 10e-4,0.002 0.002,0.004 0.004,0.007 -2.88872,1.55899 -1.10686,1.99076 -4.36045,4.4561 l -0.004,-0.002 c 3.25486,-2.4663 1.46589,-2.90059 4.3594,-4.46106 z m 66.50638,44.58812 c 0,0 0.004,0.002 0.004,0.002 -0.42171,0.0984 -0.81883,0.31973 -1.15404,0.82762 0.99411,6.14708 -8.22158,14.45861 -4.4355,20.01285 -3.79087,-5.55426 5.42677,-13.86673 4.43249,-20.01482 l 0.002,-0.004 c 0.33471,-0.50711 0.73068,-0.72671 1.15208,-0.82461 z M 856.2203,338.25259 c 2e-5,0.009 0.002,0.0128 0.002,0.0229 -0.62673,0.70738 -1.44654,0.50085 -2.29663,0.13161 -1.41534,-0.61477 -2.9206,-1.67972 -3.80072,0.26116 -0.004,-0.004 -0.009,-0.006 -0.0128,-0.007 l -0.004,-0.002 c 0.88279,-1.94675 2.39673,-0.86523 3.81575,-0.25139 0.85141,0.36832 1.6691,0.56714 2.29438,-0.15456 z M 586.39923,162.79043 c -0.75576,-0.0723 -1.52744,-0.11454 -2.3086,-0.13272 0.78129,0.0184 1.55262,0.0606 2.3086,0.13272 z m 181.10105,118.41271 c 0.011,0.22139 -0.0404,0.45342 -0.17696,0.70608 -7.3243,2.61611 -11.88197,12.01505 -19.85272,14.82386 -0.002,-0.002 -0.002,-0.006 -0.004,-0.007 7.97177,-2.81035 12.53441,-12.21033 19.8577,-14.82489 0.13419,-0.24833 0.18483,-0.48004 0.17604,-0.69813 z M 490.55086,103.01704 c 0.002,3.7e-4 0.004,0.004 0.006,0.004 -0.25124,-0.0439 -0.48969,-0.0609 -0.70957,-0.0466 -0.43972,0.0288 -0.80728,0.18008 -1.07144,0.48358 -0.26417,0.30347 -0.4247,0.75697 -0.44656,1.39036 0,0 -0.006,0.001 -0.006,0.001 0.0219,-0.63339 0.18735,-1.08794 0.45152,-1.39141 0.26394,-0.30108 0.63346,-0.45489 1.07144,-0.48358 0.21905,-0.0147 0.45343,-0.001 0.70355,0.0426 z m 9.36658,6.45041 c -0.0228,0.0404 -0.0518,0.0587 -0.0754,0.0964 -0.0898,0.1105 -0.18424,0.22318 -0.27782,0.31542 -0.24317,0.23861 -0.50249,0.38981 -0.81606,0.29473 0.31135,0.0903 0.57408,-0.0562 0.81606,-0.29473 0.12207,-0.12024 0.23685,-0.26467 0.35329,-0.41174 z m 81.80473,53.21526 c -1.58629,0.0729 -3.17833,0.25753 -4.72123,0.55209 1.54213,-0.29475 3.13551,-0.47881 4.72123,-0.55209 z m -91.27492,-57.32955 c -0.48863,-0.24757 -0.96382,-0.42991 -1.41377,-0.49599 0,0 0.005,-0.001 0.005,-0.001 0.44882,0.0661 0.92144,0.25025 1.40882,0.49704 z m 7.06296,4.83687 c -0.37172,-0.14502 -0.76207,-0.34701 -1.17041,-0.60718 0.40847,0.26055 0.79849,0.46163 1.17041,0.60718 z m 113.38846,78.96763 c 0.229,1.1381 0.66052,2.32057 1.3094,3.5501 -0.002,0.002 -0.004,0.007 -0.006,0.009 -0.64701,-1.23243 -1.07574,-2.41916 -1.30354,-3.55911 z m 134.42637,88.26515 c 0.31323,0.21863 0.61753,0.54172 0.91619,0.98497 -0.002,0.004 -0.004,0.006 -0.006,0.009 -0.60174,-0.89714 -1.22992,-1.30225 -1.90191,-1.35658 0.34222,0.0246 0.67049,0.13841 0.99159,0.36259 z m -87.32716,-56.38317 c 7.3e-4,0.002 0.004,0.004 0.004,0.007 -2.4839,-0.15548 -4.89122,-0.68557 -7.20184,-1.40748 2.31032,0.72071 4.71438,1.24681 7.19778,1.40054 z M 493.20011,115.31181 c -0.004,6.1e-4 -0.009,-4.4e-4 -0.0128,1.5e-4 -0.77094,-0.45834 -1.6072,-0.83243 -2.48648,-1.16793 0.88368,0.33521 1.72397,0.70993 2.4994,1.16778 z m 278.38193,182.50052 c -0.0465,0.35856 -0.074,0.72367 -0.083,1.08786 0.009,-0.36485 0.0318,-0.72756 0.078,-1.08681 0,0 0.006,-10e-4 0.006,-10e-4 z M 576.64861,171.0501 c 0,0 0.001,0.006 0.001,0.006 -1.22359,1.16494 -2.72419,1.01337 -3.68102,3.43104 5.90954,1.45848 -3.01702,5.94927 2.45958,7.43714 -2.0834,3.60386 -4.73734,7.28129 -8.57983,8.55058 -0.42704,0.14098 -0.86648,0.2542 -1.32377,0.33233 0.45627,-0.0789 0.89765,-0.19076 1.32377,-0.33233 3.83496,-1.27394 6.48468,-4.94888 8.56494,-8.54743 -5.47505,-1.48685 3.4485,-5.97961 -2.46257,-7.4391 0.96107,-2.4274 2.47302,-2.26083 3.69785,-3.43719 z m 74.1345,48.58222 c -3.53666,-1.10669 -6.82676,-2.6481 -9.8607,-4.00042 3.03454,1.35287 6.32376,2.89537 9.8607,4.00042 z M 482.79784,112.21653 c -1.42361,-0.24945 -2.94305,-0.50325 -4.57351,-0.79309 -8.6e-4,-0.002 -0.004,-0.004 -0.004,-0.007 1.62969,0.29399 3.15388,0.54838 4.57757,0.79999 z m 78.39482,51.21162 c -1.25107,0.38306 -2.46289,0.74571 -3.61272,1.05058 -0.37942,0.10059 -0.82721,0.18667 -1.2468,0.27973 0.41505,-0.0922 0.85822,-0.17989 1.23388,-0.27958 1.15291,-0.30568 2.37099,-0.66651 3.62564,-1.05073 z m 18.15802,11.99644 c -0.2891,0.011 -0.61098,-0.13969 -0.93932,-0.31147 -0.002,-0.004 -0.004,-0.007 -0.006,-0.011 0.3282,0.17236 0.65392,0.32819 0.94443,0.32335 z m 94.84615,61.96562 c -0.20426,0.0692 -0.39575,0.16594 -0.57241,0.29492 -0.17659,0.12904 -0.33879,0.2912 -0.48272,0.48582 l -0.002,0.004 c 1.06673,0.69369 2.13106,1.38127 3.14854,2.01757 -1.02139,-0.6359 -2.08917,-1.32553 -3.16146,-2.01742 0.14795,-0.20007 0.31518,-0.35816 0.4976,-0.48898 0.17678,-0.12685 0.36844,-0.22724 0.57241,-0.29492 z m 8.83362,5.75739 -0.004,0.006 c 0,0 -10e-4,-0.006 -10e-4,-0.006 0,0 0.006,-0.001 0.006,-0.001 z m -29.26138,-19.01176 c 3.94131,2.57537 6.32133,6.28369 5.7812,12.50963 -6.46045,13.58082 -15.6618,20.89829 -14.93581,29.67526 -0.004,0.006 -0.011,0.011 -0.0147,0.0165 -0.74641,-8.78856 8.46868,-16.10686 14.93553,-29.70111 0.63014,-7.26362 -2.72014,-11.09843 -7.88021,-13.70783 0.743,0.37507 1.45244,0.77565 2.11402,1.20796 z m -13.79514,-8.91975 c -1.90778,-0.83573 -3.70016,-1.56744 -5.35703,-2.00827 -2.8195,-0.75015 -5.25272,-0.67829 -7.22538,1.06198 -0.007,-0.004 -0.0129,-0.006 -0.02,-0.009 1.97663,-1.74374 4.41868,-1.80818 7.24537,-1.05324 1.65724,0.44261 3.44914,1.17213 5.35704,2.00827 z m 97.18748,63.65928 c -0.22808,0.50383 -0.41007,1.03713 -0.53166,1.60014 -0.12097,0.56055 -0.18265,1.15073 -0.18063,1.7771 -0.004,0.002 -0.005,0.006 -0.009,0.007 0,0.002 -9e-4,0.006 -9e-4,0.007 l -0.006,-0.004 c 0.002,-0.002 0.006,-0.002 0.007,-0.004 -10e-4,-0.62829 0.0666,-1.22216 0.18946,-1.78418 0.12317,-0.5636 0.30165,-1.0959 0.53166,-1.60013 z m -66.08142,-42.03233 c 0,0 -0.002,0.004 -0.002,0.004 -0.32761,-0.15236 -0.62611,-0.31156 -0.93615,-0.46765 0.31032,0.15603 0.61023,0.31228 0.93809,0.46464 z m 22.73172,17.42558 c 3.17416,2.02345 6.77755,4.50838 10.25681,7.25168 -5.78997,-4.56327 -11.92384,-8.40678 -15.84202,-10.60581 0.50944,0.66038 1.03207,1.31671 1.57577,1.96989 -0.54788,-0.65782 -1.07875,-1.3195 -1.59185,-1.98463 1.56727,0.87963 3.48866,2.02209 5.60129,3.36887 z M 491.39768,123.19337 c -0.67829,-0.14776 -1.5384,-0.20597 -2.49903,-0.1753 0.96055,-0.0305 1.82114,0.0273 2.49903,0.1753 z m 70.13703,46.67975 c 0.60944,0.38257 1.23591,0.82219 1.88765,1.32594 l -0.005,0.009 c -0.77353,0.66296 -1.2563,1.45224 -1.51507,2.30348 0.25625,-0.85541 0.73503,-1.64619 1.51103,-2.3104 -3.2582,-2.51843 -5.96291,-3.45377 -8.34338,-3.4927 -0.94862,-0.0147 -1.84497,0.11161 -2.704,0.33715 0.85888,-0.22646 1.75556,-0.35158 2.704,-0.33715 1.90713,0.029 4.02353,0.63174 6.46564,2.16467 z m 205.01542,133.42128 5.13055,3.33643 c -0.002,0.002 -0.005,0.002 -0.007,0.004 l -5.12411,-3.33216 c -2.17553,-0.53015 -3.08185,4.91742 -5.38432,3.79456 l -2.04981,-1.33301 c 0,0 0.006,-0.001 0.006,-0.001 l 2.0408,1.32716 c 2.30245,1.12288 3.21374,-4.32574 5.38927,-3.79558 z M 488.89564,123.01609 c -0.96126,0.0308 -2.0229,0.15181 -3.10245,0.36456 -1.61558,0.3185 -3.27119,0.8441 -4.6926,1.58001 -0.006,0.001 -0.0147,0.002 -0.0198,0.004 1.42507,-0.73932 3.09163,-1.26463 4.71245,-1.58422 1.0796,-0.21271 2.14137,-0.33381 3.10245,-0.36456 z m 202.62068,131.84256 c 1.16848,1.29411 2.41777,2.57161 3.76287,3.82839 -1.34661,-1.25733 -2.59319,-2.53367 -3.76287,-3.82839 z m -94.81943,-61.02021 c 0.25133,0.36825 0.56356,0.72371 0.93599,1.06629 0,0 -0.002,0.004 -0.002,0.004 -0.37433,-0.3435 -0.68165,-0.69996 -0.93405,-1.0693 z m -88.10904,-57.01566 c 1.25524,0.70693 2.72908,2.45817 3.88935,2.7132 l -0.002,0.004 c -1.85427,-0.41565 -4.51429,-4.62976 -5.78909,-2.31062 0,0 -0.004,-0.002 -0.004,-0.002 0.47802,-0.87648 1.15156,-0.82775 1.9047,-0.4036 z m 186.86116,122.01744 c 1.02525,0.95109 2.12204,1.88561 3.26499,2.81179 -1.14273,-0.92542 -2.23987,-1.86147 -3.26499,-2.81179 z m 9.22441,7.14913 c 0.006,0.004 0.011,0.007 0.0184,0.011 -14.35512,16.4876 -35.91284,34.05952 -49.57127,49.3367 -0.0354,0.0363 -0.0901,0.0525 -0.1173,0.0947 13.65265,-15.30066 35.28264,-32.91878 49.67051,-49.44322 z M 507.06904,138.19157 c -0.18575,0.44843 -0.94587,0.77018 -1.71982,1.09261 0,0 -10e-4,-0.005 -10e-4,-0.005 l 0.004,-0.006 c 0.76783,-0.31989 1.52368,-0.63875 1.71697,-1.08163 z m 70.08707,47.78912 c -0.28577,-0.0314 -0.54882,-0.0367 -0.79478,-0.0207 0.24502,-0.0165 0.51007,-0.009 0.79478,0.0207 z m 18.31249,14.29083 c -4.39092,-2.63083 -10.82379,-3.30466 -17.75829,-4.68 6.94105,1.36534 13.37341,2.04003 17.75829,4.68 z m -50.41806,-32.44077 c -2.10063,1.14098 -3.48954,2.78107 -3.32641,5.31243 -0.004,9.1e-4 -0.007,0.001 -0.009,0.002 -0.16283,-2.53389 1.23168,-4.17336 3.33632,-5.31453 z m 53.35862,34.88335 c 0.58595,0.46435 1.10467,0.94351 0.35044,1.69052 0,0 -0.004,-0.002 -0.004,-0.002 0.74713,-0.74573 0.22624,-1.22397 -0.36036,-1.68841 -10.97934,-3.37195 -26.03391,-5.31643 -38.12861,0.1676 12.08841,-5.48581 27.1373,-3.5463 38.11856,-0.17843 0.004,0.004 0.007,0.007 0.009,0.011 0.004,1.1e-4 0.009,-2.4e-4 0.0129,-1.4e-4 z m 4.36324,3.54309 c 5.95444,3.76268 3.21305,18.0275 0.0701,21.57441 3.76841,-4.26995 6.95061,-23.9383 -4.75642,-22.39803 -0.51892,-0.47649 -0.48877,-0.82517 -0.2631,-1.00931 -0.22299,0.18476 -0.24667,0.53082 0.27002,1.00526 1.95118,-0.25672 3.48918,0.0756 4.6793,0.82767 z m -36.86314,-23.22394 c 0.007,0.004 0.0147,0.011 0.0211,0.0128 l -0.004,0.006 c -0.007,-0.007 -0.009,-0.0129 -0.0165,-0.0196 z m 154.27839,101.78662 c 5.15703,4.22514 20.59852,13.90555 25.6982,21.09102 -0.3702,1.88557 -0.83579,3.238 -1.29232,4.30872 0.45489,-1.06884 0.91566,-2.41806 1.2845,-4.2967 -5.08434,-7.16388 -20.439,-16.80085 -25.64199,-21.04591 -0.0147,-0.0193 -0.0336,-0.0378 -0.0485,-0.0571 z m 55.38835,36.02368 c -2.2e-4,0.004 -6.8e-4,0.006 -9e-4,0.007 -8.75904,-0.67599 -19.13962,-1.39059 -20.8466,-7.86873 1.71132,6.47467 12.08972,7.18485 20.8475,7.86075 z m -52.26283,-32.53707 c 4.16547,4.18066 9.46404,8.122 13.6112,12.31982 -4.15232,-4.18989 -9.45003,-8.13257 -13.6112,-12.31982 z m -64.1753,-41.26747 c -3.38379,3.94445 -6.62145,8.61171 -9.37293,12.51253 2.74933,-3.9031 5.98598,-8.56983 9.37293,-12.51253 z M 553.60116,179.11347 c -0.29153,0.0147 -0.61887,-0.1408 -0.95027,-0.31436 10e-4,-0.002 -3.7e-4,-0.006 9e-4,-0.007 0.33098,0.17384 0.65699,0.32998 0.94937,0.32232 z m -4.20487,-1.16922 c -2.84459,1.78893 -0.16062,9.17507 0.99532,11.05668 1.65794,2.70071 8.6912,5.65977 15.10325,5.21151 -6.41615,0.45403 -13.46189,-2.50747 -15.12115,-5.2103 -1.15759,-1.88427 -3.84156,-9.28219 -0.97742,-11.05789 z M 781.7938,329.26208 c 0.6928,5.51738 1.11863,10.0816 -1.49397,18.00832 0,0 -0.004,-0.002 -0.004,-0.002 2.60843,-7.91971 2.18161,-12.47964 1.48916,-17.99436 -1.19506,1.30021 -2.8093,0.63552 -4.04543,1.7357 0,0 -10e-4,-0.006 -10e-4,-0.006 1.23728,-1.11134 2.85639,-0.43942 4.05431,-1.74276 z M 575.57733,195.1624 c -0.29578,0.48291 -0.69845,0.8732 -1.18871,1.18998 0.48527,-0.31573 0.88353,-0.70529 1.17683,-1.18487 l 0.004,-0.005 c 0.002,5.8e-4 0.006,3.3e-4 0.007,9.1e-4 z m -20.63501,-13.29078 c -0.51967,0.1896 -0.91145,0.35934 -1.14871,0.51032 0.23207,-0.15125 0.632,-0.32043 1.14871,-0.51032 z m -18.65865,-9.33263 c 0.75704,11.76065 -21.98347,11.69385 -23.75241,22.97099 1.76172,-11.27998 24.49203,-11.21687 23.74745,-22.96994 0,0 0.006,-0.001 0.006,-0.001 z m 243.04497,161.86857 c 0.10482,0.36298 0.18516,0.72436 0.25198,1.07906 -0.0665,-0.35518 -0.14758,-0.71546 -0.25198,-1.07906 z m -35.97536,-21.59028 c -0.68971,1.5 -0.96487,2.85239 -0.0376,6.02272 -0.004,-9.9e-4 -0.006,-0.006 -0.009,-0.006 -0.92294,-3.16399 -0.6446,-4.51624 0.0466,-6.01686 z m 36.44903,24.75513 c 0.065,2.04274 -0.24939,3.97258 -0.22521,5.88363 -0.0257,-1.90815 0.2897,-3.83936 0.22521,-5.88363 z M 557.62139,198.08609 c -1.0664,2.15516 -2.26399,3.81387 -3.47546,5.14708 1.20952,-1.33261 2.40086,-2.99258 3.46555,-5.14497 0.004,-5.1e-4 0.007,-0.002 0.009,-0.002 z m -23.17926,-9.24025 c 0.7843,8.13683 -2.94871,13.74841 -8.14557,17.32647 -0.7411,0.51027 -1.51415,0.97983 -2.30592,1.40858 0.79249,-0.4295 1.5643,-0.89737 2.30592,-1.40858 5.18967,-3.57721 8.91226,-9.19137 8.13173,-17.31836 0.006,-0.002 0.009,-0.005 0.0147,-0.007 z m 232.88235,151.4535 c -8.20855,9.16181 -11.79234,16.01419 -10.50357,23.93156 0.58581,3.5988 2.17989,7.41981 4.80124,11.77398 -0.002,-6.6e-4 -0.004,-0.004 -0.005,-0.004 -2.62077,-4.3532 -4.20912,-8.172 -4.79524,-11.77007 -1.28952,-7.91605 2.28751,-14.7678 10.49167,-23.92646 0.004,-8.8e-4 0.007,-0.004 0.011,-0.006 z m 11.64834,9.0248 c 2.8418,10.63731 -4.89421,23.70835 -5.44555,28.5765 l -0.006,0.009 c -0.002,-0.002 -0.002,-0.006 -0.004,-0.007 -0.56152,-0.63407 -0.86303,-1.31194 -1.01964,-2.0359 -0.0523,-0.24148 -0.089,-0.48867 -0.1129,-0.74057 -0.28454,-3.0082 1.15842,-6.76351 -2.75284,-11.43837 3.91864,4.66823 2.46582,8.42323 2.75284,11.43837 0.0239,0.25139 0.0606,0.4994 0.1129,0.74057 0.15676,0.7235 0.45966,1.40076 1.01964,2.0359 0.5511,-4.86591 8.28047,-17.92851 5.44873,-28.56164 0.004,-0.005 0.004,-0.011 0.007,-0.0165 z M 549.72219,207.0237 c -0.78648,0.55862 -1.54824,1.08865 -2.16469,1.58598 -0.28193,0.22747 -0.54516,0.45694 -0.7787,0.69106 -0.23353,0.23412 -0.44117,0.47408 -0.61819,0.72703 -0.88402,1.2632 -1.00716,2.83794 0.12024,5.48392 -0.004,0.005 -0.007,0.011 -0.011,0.0183 -1.13588,-2.65979 -1.00093,-4.23535 -0.10849,-5.50194 0.17714,-0.25143 0.38514,-0.49412 0.61819,-0.72703 0.23478,-0.23465 0.49527,-0.46291 0.7787,-0.69106 0.61683,-0.49653 1.37877,-1.02758 2.16468,-1.58598 z m 52.92266,40.77537 c 0.002,0.002 0.002,0.006 0.004,0.007 l -0.007,0.004 c 0.002,-0.004 10e-4,-0.007 0.004,-0.011 z m 37.95085,24.68828 c -0.005,0.0147 -0.009,0.0277 -0.0147,0.0418 -6.81342,5.23263 -10.53125,10.7337 -21.06049,25.67099 -7.31637,-0.45467 -11.40332,-1.65089 -14.64472,-3.6346 3.23853,1.97712 7.3258,3.16603 14.62864,3.61987 10.54633,-14.96155 14.25641,-20.45791 21.091,-25.69817 z m -128.12342,-74.5652 c 3.1e-4,0.004 0.002,0.007 0.002,0.009 -6.50562,-0.37686 -9.04166,2.52623 -17.2391,6.30652 -7.5e-4,-0.004 -0.001,-0.007 -0.002,-0.009 8.19745,-3.7803 10.73348,-6.6834 17.23912,-6.30654 z m 6.58217,11.76459 c -0.84187,0.2746 -1.68439,0.50983 -2.52372,0.711 0.83843,-0.20131 1.68283,-0.43642 2.52372,-0.711 z m 76.60251,51.09387 c 4.7e-4,0.004 -3.3e-4,0.009 1.4e-4,0.0128 l -0.011,-0.004 c 0.004,-0.004 0.007,-0.007 0.011,-0.009 z M 488.47157,205.66923 c -10.95677,12.19188 -11.88931,21.75416 -29.55803,27.4923 -0.002,-0.004 -0.004,-0.007 -0.005,-0.011 17.64474,-5.73064 18.59558,-15.27483 29.51576,-27.44706 0.0165,-0.009 0.0312,-0.0242 0.0474,-0.0334 z m 167.58051,109.50475 c 0.16025,0.14648 0.20902,0.44182 -0.006,0.93682 -6.54958,1.43632 -11.91987,-0.16301 -17.14667,-2.75977 5.22184,2.59219 10.58563,4.18291 17.12864,2.74804 0.20943,-0.48166 0.17421,-0.77461 0.0242,-0.92509 z M 589.4317,277.15337 c -0.004,0.002 -0.006,0.006 -0.009,0.007 -5.45365,4.22453 -14.94094,-0.0424 -22.06158,0.25377 -9.29315,0.38762 -17.17971,5.89197 -21.64986,6.35488 -4.20374,0.43497 -7.75582,-0.50695 -10.89966,-2.32391 3.13984,1.81098 6.68509,2.74664 10.88162,2.31218 4.47014,-0.46291 12.35767,-5.96875 21.65182,-6.3579 7.12065,-0.29611 16.60597,3.97378 22.05963,-0.25075 z m -98.67808,-61.91292 c 0.76291,0.54726 1.63022,1.44484 2.95016,2.58567 l -0.002,0.004 c -1.29706,0.69612 -1.76824,0.98633 -1.78283,1.15004 -0.011,-0.15952 0.44085,-0.44039 1.76989,-1.14987 -2.63116,-2.27594 -3.47063,-3.57182 -5.25596,-3.08442 0.89816,-0.24968 1.5578,-0.0516 2.32069,0.49559 z m 140.29221,93.72626 c -2.66317,-1.53971 -5.41855,-3.07225 -8.39595,-4.35228 4.3e-4,-0.002 4.8e-4,-0.006 9e-4,-0.007 2.97665,1.28105 5.73217,2.82049 8.39505,4.36025 z m -137.4579,-89.18025 c 0.37587,0.29044 0.70941,0.71262 0.83265,1.4225 -3.22723,4.34984 -7.05503,7.7004 -10.05572,10.97793 -0.17989,0.17549 -0.33412,0.26767 -0.46884,0.30666 0.1307,-0.042 0.27949,-0.13253 0.45201,-0.30049 3.00069,-3.27753 6.83148,-6.62615 10.05873,-10.97599 l 0.004,-0.005 c -0.12042,-0.70836 -0.45148,-1.13201 -0.82274,-1.42459 z m 264.48939,172.88876 c -12.15025,4.3366 -21.75095,22.44003 -11.49637,33.39599 -0.004,7.9e-4 -0.009,-6.4e-4 -0.0128,1.4e-4 -10.25456,-10.95595 -0.65287,-29.06091 11.49639,-33.39597 l -10e-4,-0.005 c 0.006,0.002 0.009,0.002 0.0147,0.005 z M 644.3704,319.17565 c 0.39593,0.31878 0.78176,0.65106 1.16673,0.98111 -0.3855,-0.33082 -0.77022,-0.66162 -1.16673,-0.98111 z m 1.66173,1.39711 c 9.65794,8.5101 15.35773,20.56528 5.69774,33.60349 -0.006,-0.006 -0.0128,-0.007 -0.0184,-0.011 9.65452,-13.0308 3.96826,-25.08246 -5.67971,-33.59176 z m 119.59195,78.46426 c 3.66645,6.77195 -7.66912,21.28386 -10.82792,32.36804 -0.004,-0.0147 -0.007,-0.0316 -0.0129,-0.0466 3.16849,-11.07008 14.46408,-25.54106 10.83152,-32.31441 0.004,-0.002 0.006,-0.006 0.009,-0.007 z M 599.61266,292.48569 c 1.82096,1.5679 3.64302,3.1508 5.46892,4.66414 -1.82667,-1.51332 -3.64726,-3.09547 -5.46892,-4.66414 z m 13.8453,10.5262 c 0.006,0.004 0.011,0.009 0.0184,0.011 -2.32231,0.50536 -2.10444,0.99144 -1.40807,1.65888 0.3444,0.3301 0.80168,0.70542 1.12986,1.14959 0.33535,0.45388 0.53544,0.9773 0.32656,1.6023 -15.41935,10.3679 -14.92038,24.21943 -27.76193,35.95629 -0.007,-0.004 -0.011,-0.007 -0.0184,-0.011 12.84526,-11.73891 12.34251,-25.58919 27.76192,-35.95629 0.20665,-0.61832 0.0202,-1.13999 -0.30852,-1.59057 -0.32425,-0.44435 -0.78329,-0.81923 -1.12986,-1.14959 -0.70773,-0.6746 -0.94831,-1.16176 1.39004,-1.6706 z m -43.27692,-17.87924 c 0.42184,0.4411 0.50635,1.06188 0.73109,1.3222 -0.2315,-0.24839 -0.31342,-0.87359 -0.73109,-1.3222 z m -88.05113,-53.68497 c -0.13988,0.0778 -0.30116,0.21405 -0.48634,0.43216 0,0 -0.004,-0.002 -0.004,-0.002 0.18922,-0.22151 0.34751,-0.35568 0.48933,-0.43022 z m 26.11549,21.40942 c 0.3696,0.2593 0.74018,0.51631 1.09898,0.79594 -0.35894,-0.27931 -0.72921,-0.53698 -1.09898,-0.79594 z m -2.09358,-1.3315 c 0.006,0.004 0.009,0.007 0.0147,0.009 -2.76634,-1.5364 -5.85059,-2.46729 -9.39419,-2.50816 2.6155,2.68462 -3.77086,7.27681 -0.57687,9.83754 0,0 -0.006,10e-4 -0.006,10e-4 -3.22921,-2.55981 3.18395,-7.16537 0.56577,-9.85333 3.54382,0.0409 6.62871,0.97662 9.39523,2.51311 z m -26.5007,-16.56215 c -3.9006,2.31587 -7.15888,7.64959 -12.03818,5.35219 4.86448,2.27051 8.11989,-3.04609 12.01324,-5.35986 0.009,0.004 0.0165,0.006 0.025,0.007 z m 188.0826,123.78253 c -0.2211,0.51805 -0.17127,0.83918 0.0437,1.0377 -0.22076,-0.19131 -0.27707,-0.50865 -0.0742,-1.0105 0.009,-0.011 0.0222,-0.0165 0.0305,-0.0272 z m 2.05284,1.33497 c -1.94167,1.58168 2.48225,8.48975 0.15107,13.23618 0.0129,-0.0259 -0.009,-0.0191 -0.009,-0.0318 2.30708,-4.73418 -2.07402,-11.60403 -0.17053,-13.20611 0.009,-2.6e-4 0.0189,0.002 0.0288,0.002 z M 513.727,262.72994 c 0.85548,0.70151 1.67537,1.51868 2.45163,2.47101 0.40028,0.49108 0.79082,1.01776 1.16465,1.58279 -2.38555,0.95991 -2.0707,3.45098 -1.14818,4.30409 -0.93508,-0.83817 -1.26678,-3.35253 1.1321,-4.31883 -0.37014,-0.55943 -0.75249,-1.08112 -1.14857,-1.56805 -0.77477,-0.95244 -1.59769,-1.76893 -2.45163,-2.47101 z m 227.03086,147.77224 c -0.0345,-0.006 -0.0732,0.004 -0.11711,0.0222 -0.002,0.006 -0.004,0.011 -0.007,0.0165 l -0.004,-0.0147 c 0.004,-0.002 0.006,-4.4e-4 0.009,-0.002 0,0 0.002,-0.004 0.002,-0.004 0.0409,-0.0147 0.083,-0.0274 0.11509,-0.0193 z m -31.85188,-17.96785 c -1.51683,-1.00046 -3.07654,-1.89326 -4.66087,-2.69742 -6.35829,-3.22723 -13.09766,-5.01398 -18.9188,-6.51241 0.002,-0.004 0.004,-0.006 0.006,-0.009 5.82262,1.49805 12.55692,3.29186 18.91295,6.52144 1.58304,0.80436 3.14542,1.69689 4.66087,2.69743 z M 518.06008,270.16658 c 1.06972,4.48554 4.01452,7.8394 6.85136,11.04155 -2.83407,-3.19896 -5.78081,-6.54806 -6.85812,-11.02457 0.002,-0.006 0.004,-0.011 0.007,-0.0165 z m -60.2363,-38.73585 c 0.0914,0.0395 0.17567,0.1072 0.25772,0.18896 -0.32155,-0.31525 -0.70746,-0.33922 -1.21778,0.20881 -7.6e-4,-0.007 -4.6e-4,-0.011 -10e-4,-0.0184 0.3813,-0.40709 0.69377,-0.49538 0.96126,-0.37988 z m 228.81946,149.82922 c 0.004,0.004 0.004,0.005 0.007,0.009 -2.03597,-0.11656 -3.78936,-0.60315 -5.30805,-1.37339 1.51711,0.766 3.26874,1.24958 5.30098,1.36453 z m 16.77176,11.38577 c 0.68724,0.54082 1.33436,1.1609 1.94435,1.85031 3.32666,3.7599 5.6483,9.35559 8.52218,12.71403 0.40996,0.47907 0.83069,0.91008 1.26768,1.28626 -0.43666,-0.37442 -0.85803,-0.80899 -1.26768,-1.28626 -2.87647,-3.35156 -5.19768,-8.94782 -8.52218,-12.71403 -0.60934,-0.69029 -1.25793,-1.30815 -1.94435,-1.85031 z m -33.51722,-19.41865 c 0.0129,-0.004 4.4e-4,0.0191 0.007,0.0218 -0.70408,0.2114 -9.25203,8.07572 -12.07895,9.70927 -4.13449,2.39131 -8.88309,0.63245 -12.51635,3.53583 -4.91429,3.92715 -5.50682,5.36356 -9.75061,8.25967 -7.01797,4.78819 -17.5916,11.91938 -23.59998,13.84532 -0.007,-0.004 -0.011,-0.009 -0.0183,-0.011 6.00839,-1.92594 16.58298,-9.0586 23.60192,-13.84833 4.24482,-2.89764 4.83538,-4.33104 9.74867,-8.25666 3.63226,-2.90186 8.38282,-1.14599 12.51831,-3.53883 2.83477,-1.63809 11.42568,-9.54719 12.08782,-9.71635 z M 524.92453,281.22091 c 4.73363,5.3431 9.15135,10.27421 4.00585,19.36958 -0.005,-0.004 -0.0129,-0.007 -0.0183,-0.011 5.1439,-9.08953 0.74169,-14.01947 -3.98783,-19.35786 z m -71.42025,-44.2725 c 0.009,0.007 0.0184,0.0147 0.0281,0.0226 -5.62866,0.31167 -6.25212,3.32437 -10.46654,4.86886 -0.006,-0.007 -0.007,-0.0128 -0.0128,-0.0207 4.20849,-1.54115 4.84025,-4.55303 10.45061,-4.87067 z M 668.65294,379.7777 c 0.28177,0.26523 0.69053,0.56659 1.0599,0.85603 -0.37062,-0.28975 -0.77863,-0.5874 -1.06187,-0.85302 0,0 0.002,-0.004 0.002,-0.004 z M 486.41876,262.71938 c -2.88495,8.28829 -10.92056,11.79279 -14.42007,15.44006 -10.84122,11.29702 -19.76583,23.10473 -33.55601,33.64673 l -0.0183,-0.011 c 13.78498,-10.54176 22.70998,-22.35142 33.55104,-33.64567 3.49603,-3.64315 11.52017,-7.14292 14.41136,-15.42009 0.011,-0.002 0.0207,-0.007 0.0318,-0.009 z m -38.67394,-24.78639 c -0.57419,-0.15401 -1.44047,-0.73506 -2.10971,-1.00417 0.66641,0.2602 1.53122,0.84007 2.10971,1.00417 z m -3.03394,-0.86534 c 0.091,0.11877 0.16337,0.23326 0.21275,0.34363 -0.0518,-0.11032 -0.12133,-0.22187 -0.21469,-0.34062 z m 7.81172,9.27543 c 0.39486,0.51928 0.73229,1.23149 1.05142,1.77002 0.15603,0.26325 0.30973,0.48048 0.46249,0.61723 -0.15309,-0.13253 -0.30617,-0.35452 -0.46249,-0.61723 -0.31882,-0.53579 -0.6563,-1.24586 -1.05142,-1.77002 z m 2.50362,1.79918 c 2.95533,6.13455 -11.81701,25.2358 -17.8429,25.9843 -0.18511,0.023 -0.36393,0.0345 -0.53177,0.022 -0.61624,0.0802 -1.16009,0.0938 -1.65107,0.0597 0.48542,0.0323 1.01981,0.0165 1.62717,-0.0624 0.17604,0.0128 0.36069,0.007 0.55567,-0.0193 6.03525,-0.79997 20.72262,-19.80076 17.82832,-25.95527 0.006,-0.011 0.009,-0.0165 0.0147,-0.029 z m -13.64592,-5.95307 c -4.54019,5.96815 -6.7841,19.74235 -18.11596,18.87424 -5.33277,7.41248 -8.55804,5.42237 -11.08365,10.30948 -0.004,-0.0129 -0.006,-0.0263 -0.009,-0.0396 2.52273,-4.83959 5.74605,-2.88097 11.06515,-10.27448 11.28999,0.86579 13.55868,-12.7965 18.06411,-18.80104 0.0285,-0.031 0.049,-0.0336 0.0787,-0.0685 z m -1.91305,-0.58973 c 0.40459,0.20289 0.62006,0.96852 1.0436,1.08495 -0.43806,-0.0936 -0.65747,-0.87877 -1.0675,-1.08767 0.007,0.004 0.0165,-8.1e-4 0.0239,0.002 z m 91.65475,60.72419 c 0.31549,0.3816 0.45228,0.79845 0.21767,1.29624 -3.64047,4.64956 -7.14164,18.42996 -5.44992,28.54376 -0.004,0.006 -0.007,0.011 -0.011,0.0183 -1.7045,-10.1167 1.80029,-23.92057 5.44361,-28.57351 0.23173,-0.49144 0.10628,-0.90701 -0.19963,-1.28451 z m 55.89009,42.08498 c 1.85946,2.07347 -3.18523,2.2088 -3.91961,3.0877 -0.0286,0.034 1.28746,2.61962 0.71785,3.3878 -5.07861,6.83983 -15.12723,20.08657 -19.449,20.92406 -0.005,-0.006 -0.0128,-0.007 -0.0183,-0.011 4.32178,-0.8375 14.37235,-14.08724 19.45095,-20.92708 0.57017,-0.76565 -0.74844,-3.35086 -0.71981,-3.38478 0.73255,-0.87667 5.75818,-1.01821 3.93766,-3.07597 z m 152.33818,101.77793 c 1.91109,5.2871 -5.51672,1.46615 -7.4391,2.46261 -8.15476,8.59025 -12.77483,10.95052 -14.36976,19.84779 3.953,2.40644 4.2099,5.59738 2.81903,9.13351 l -0.024,-0.0165 c 1.38938,-3.5348 1.12881,-6.72182 -2.82297,-9.12749 1.59496,-8.89727 6.21597,-11.25903 14.37175,-19.85082 1.91909,-0.99474 9.3183,2.81214 7.44238,-2.43476 0.007,-0.007 0.0147,-0.007 0.0228,-0.0147 z m -0.25661,0.17108 c -1.24038,0.56119 -3.22636,-3.35648 -5.70052,-1.86814 2.46322,-1.5408 4.44964,2.33882 5.70052,1.86814 z m 3.13782,13.36517 c -2.29793,11.05237 -9.18039,22.17786 -13.60252,27.65128 0.007,-0.0189 0.011,-0.0418 0.0184,-0.0608 4.42009,-5.48729 11.25225,-16.54994 13.54987,-27.55722 0.0128,-0.011 0.0224,-0.0226 0.0345,-0.0332 z M 439.29758,270.04017 c 0,0 -0.002,0.004 -0.002,0.004 -1.03186,-0.34314 -2.34737,-0.67046 -3.73314,-0.87526 1.38735,0.20317 2.69902,0.52955 3.7351,0.87225 z m 87.83024,63.34343 c 0.005,7.1e-4 0.005,0.009 0.009,0.011 -0.15547,-0.0165 -0.43282,0.12923 -0.88536,0.4934 -2.50597,10.19971 -8.20558,16.25202 -16.6737,16.81422 -0.04,5.4e-4 -0.0857,-0.005 -0.12538,-0.004 8.52949,-0.51637 14.26508,-6.57864 16.781,-16.82139 0.45584,-0.36678 0.73859,-0.512 0.89335,-0.49251 z m 166.78455,109.38058 c 1.85,1.05891 -0.69257,7.89838 -0.99589,9.71903 -1.28741,7.73748 0.20367,17.34743 -7.54973,22.82884 l -0.006,0.009 c -0.006,-0.006 -0.009,-0.011 -0.0147,-0.0184 7.75015,-5.48173 6.25752,-15.09128 7.54476,-22.82779 0.30336,-1.82065 2.84891,-8.65816 0.99893,-9.71707 0.005,0.004 0.0165,0.002 0.022,0.006 z M 429.55493,272.72396 c -0.74933,0.0147 -1.62032,0.24473 -2.75176,0.85778 -2.6e-4,-0.006 1.3e-4,-0.009 -1.5e-4,-0.0129 1.12968,-0.60719 2.00361,-0.83601 2.75191,-0.84486 z m 97.75581,66.23135 c 0.006,0.006 0.006,0.009 0.011,0.0165 -0.91883,0.60043 -1.39733,0.6878 -1.59585,0.45477 0.20796,0.21218 0.6835,0.11968 1.58473,-0.47053 z m 29.73823,27.59721 c 1.05992,0.67115 2.14449,1.40898 3.24391,2.18654 -2.30526,-1.62955 -4.5336,-3.02545 -6.66119,-4.2249 1.11288,0.62772 2.25483,1.3023 3.41728,2.03836 z m 24.73179,16.57934 c 0.006,0.006 0.0128,0.0147 0.0165,0.0197 1.32606,4.16546 3.09428,7.35627 5.11608,9.90881 0.67023,0.84618 1.36819,1.62311 2.08718,2.34094 -0.71939,-0.71728 -1.41649,-1.49541 -2.08718,-2.34094 -2.0274,-2.55597 -3.80447,-5.75273 -5.13322,-9.92853 z m -31.44389,-20.38401 c 0.006,0.004 0.011,0.009 0.0184,0.011 -5.33929,-2.71418 -10.0113,-4.4512 -13.88012,-6.52021 -1.54688,-0.82723 -2.96474,-1.70517 -4.24649,-2.72302 1.2817,1.0157 2.70025,1.89689 4.24649,2.72302 3.86557,2.06536 8.53017,3.79817 13.86207,6.50848 z m 10.27826,8.08679 c 1.68795,4.1588 3.98827,7.59478 1.48603,11.18332 -8.724,12.51618 -23.61808,35.3184 -38.07937,54.06434 -6.20995,1.66348 -6.17096,-2.76707 -10.87328,-1.23331 0.9199,1.32627 1.41,1.76653 2.1114,2.28398 -0.70614,-0.51991 -1.20042,-0.96215 -2.11936,-2.28488 l 0.009,-0.0147 c 0,0 -0.004,-0.002 -0.004,-0.002 4.68237,-1.51729 4.65305,2.8998 10.85645,1.23948 14.45975,-18.74695 29.35381,-41.54915 38.07936,-54.06434 2.4992,-3.58416 0.21142,-7.0205 -1.47595,-11.17251 0.002,-3.9e-4 0.006,10e-4 0.007,9.1e-4 z m 9.58864,7.69387 c 0.0666,0.043 0.11289,0.0901 0.16851,0.13528 -0.0543,-0.045 -0.10555,-0.0894 -0.17053,-0.13235 0,0 0.002,-0.004 0.002,-0.004 z m 145.63761,94.71339 c -0.14924,-0.0784 -0.29829,-0.15089 -0.44289,-0.20677 0.14483,0.0538 0.29314,0.12868 0.44289,0.20677 z M 570.74185,379.06235 c 0.3739,0.57898 0.325,1.24771 0.83201,1.79838 -3.9e-4,0.006 -10e-4,0.011 -0.002,0.0165 -0.52868,-0.55071 -0.46069,-1.2295 -0.83019,-1.81431 z M 410.53974,276.15199 c -1.22429,0.50334 -2.43106,1.0276 -1.33799,2.05088 0.006,-0.006 0.007,-0.007 0.0128,-0.0129 l -0.009,0.0147 c 0,0 -0.004,-0.002 -0.004,-0.002 -0.23854,0.25475 -0.44433,0.36773 -0.61406,0.39185 0.16668,-0.0384 0.36436,-0.15548 0.59303,-0.40553 -1.09368,-1.02089 0.10096,-1.54284 1.32113,-2.04471 0.0129,0.004 0.0248,0.004 0.0378,0.007 z m 190.39839,125.3313 c 2.69891,2.10337 5.5442,4.09663 8.66465,5.85279 -3.12045,-1.75732 -5.96572,-3.74833 -8.66465,-5.85279 z m -192.78233,-123.9606 -0.009,0.0147 c -0.005,0.009 -10e-4,0.0211 -0.007,0.0299 -9.99048,6.1226 -18.92976,20.1644 -20.33076,29.05366 -8.02385,-1.28271 -10.18851,17.66482 -16.86257,13.85595 6.6557,3.75121 8.82106,-15.15476 16.83553,-13.87353 1.40294,-8.90169 10.36837,-22.97109 20.37419,-29.08101 z m 197.52108,129.30033 c 0.7126,0.58 1.41104,1.1783 2.04084,1.85319 2.02148,2.16625 3.57045,4.90073 4.34108,8.74621 -0.007,-0.0396 -0.0198,-0.022 -0.0285,-0.0485 -0.77132,-3.81581 -2.30525,-6.54136 -4.31268,-8.69782 -0.6299,-0.67666 -1.32778,-1.2719 -2.04083,-1.8532 z M 508.07497,348.3256 c 0.006,0.004 0.007,0.006 0.0129,0.007 -0.69888,1.05364 -1.78245,0.28911 -2.78763,-0.10647 -0.6031,-0.23731 -1.17731,-0.34015 -1.62507,0.15787 -4.42435,1.8437 -12.71848,0.67823 -17.90562,7.33142 l -0.009,0.0147 c -5.70111,-2.02143 -11.92243,5.49469 -21.332,3.62353 0.007,0.002 0.009,-0.0184 0.0165,-0.0191 9.41022,1.8426 15.62742,-5.6617 21.31305,-3.62729 5.18717,-6.65319 13.48128,-5.48772 17.90562,-7.33142 0.45018,-0.50057 1.0305,-0.38993 1.63712,-0.14998 1.00243,0.39656 2.07896,1.14886 2.77559,0.0986 z m 103.87128,68.90819 c 0.004,-0.002 0.007,0.0211 0.0129,0.0207 -0.24274,0.18044 -0.58267,3.90805 -0.51673,5.60852 0.19935,5.15492 -5.14476,17.6794 -3.80355,23.80239 1.15275,5.25909 2.74937,6.41101 3.17609,10.79413 -0.004,0.006 -0.007,0.0129 -0.011,0.0184 -0.42151,-4.41258 -2.02457,-5.55358 -3.18043,-10.8269 -1.34124,-6.12299 4.0029,-18.64749 3.80354,-23.80239 -0.0663,-1.70999 0.27765,-5.47327 0.52065,-5.61454 z M 405.25708,288.76699 c 17.09814,11.54382 -2.13616,25.80416 -12.16785,34.42195 -0.007,-0.004 -0.0165,-0.006 -0.0229,-0.011 10.02652,-8.61565 29.24501,-22.86854 12.18092,-34.40915 0.004,-9e-4 0.006,-0.001 0.009,-0.002 z m 30.08292,21.03003 0.024,0.0165 c 0.0274,3.25537 -1.17946,3.97963 -2.78434,3.49241 1.59479,0.47367 2.78981,-0.26073 2.76029,-3.50805 z m 279.34333,185.61903 c 0.27338,0.28783 0.5428,0.59811 0.80421,0.93354 -4.57793,-0.72827 -8.70693,0.66806 -12.87971,1.84548 l -0.002,0.004 c -0.13657,-0.1263 -0.23179,-0.24097 -0.29934,-0.34863 0.067,0.10169 0.15952,0.20994 0.28717,0.32788 4.17279,-1.17744 8.29682,-2.57273 12.87476,-1.84444 -0.25641,-0.32903 -0.5172,-0.63364 -0.78514,-0.91685 z m -13.81632,-1.27828 c 0.68857,0.58502 1.6869,1.10583 2.19358,1.73013 -0.51463,-0.62166 -1.51257,-1.14192 -2.19553,-1.72712 0,0 0.002,-0.004 0.002,-0.004 z m 18.46448,12.01183 c 3.09016,5.45389 -9.79845,18.08432 -14.62549,26.98181 -0.006,-0.009 -0.006,-0.0193 -0.011,-0.0286 4.8254,-8.8731 17.63475,-21.44465 14.63417,-26.91627 -8.3e-4,-0.0128 0.004,-0.024 0.002,-0.0369 z m -6.43522,6.60091 c 0.27871,0.31353 0.33741,1.18464 1.07626,1.59375 0,0 10e-4,0.006 10e-4,0.006 -0.90429,-0.47914 -0.81565,-1.6339 -1.29042,-1.71161 0.0857,0.007 0.15493,0.0476 0.2131,0.11289 z m -19.3736,-7.32564 c -0.0165,2.72463 -2.18536,6.06092 -4.66946,7.18039 -1.10481,8.48026 6.49455,13.14188 3.94364,18.62348 l -0.006,-0.011 c 0,0 -0.004,-0.002 -0.004,-0.002 2.53598,-5.47694 -5.05254,-10.13478 -3.94845,-18.60949 2.48172,-1.11841 4.65064,-4.45223 4.6705,-7.17543 0.004,-0.002 0.007,-0.004 0.011,-0.006 z M 444.46621,347.11836 c 0.004,0.002 0.007,0.005 0.0128,0.007 -1.55992,-0.71216 -3.16058,-1.39203 -4.79928,-2.01765 -9.82838,-3.75217 -21.0552,-5.62145 -33.46345,-1.72531 -0.009,-0.001 -0.0183,-0.004 -0.027,-0.005 12.4183,-3.90358 23.6557,-2.02624 33.49036,1.72996 1.63521,0.62456 3.23049,1.29913 4.78725,2.00983 z M 612.5488,459.05374 c 0.004,0.002 0.007,0.005 0.0129,0.007 -0.63772,-0.32418 -1.41519,-0.52211 -2.40693,-0.56024 -0.1072,3.40743 -0.0824,3.53086 1.07626,5.07921 l -0.0129,-0.007 c -0.81464,0.61296 -1.60166,1.15741 -2.36789,1.64198 0.76539,-0.48512 1.55121,-1.03034 2.36488,-1.64394 -1.15868,-1.54833 -1.1835,-1.67178 -1.07626,-5.07922 0.99174,0.0382 1.77222,0.23803 2.40994,0.56221 z M 464.80296,363.55096 c 6.61764,6.60733 9.4284,15.4056 5.41502,27.304 l -0.011,-0.007 c 4.01189,-11.89395 1.20914,-20.68979 -5.403,-27.29617 z m 187.85521,126.42736 c 1.62557,1.45277 2.632,4.15135 4.55022,5.6362 -1.92317,-1.47921 -2.92703,-4.17756 -4.55022,-5.6362 z m 7.16733,6.66244 c -1.78525,6.40866 3.12646,7.42842 3.89532,14.21272 l -0.004,-0.002 c -0.63311,0.29115 -1.19061,0.3531 -1.68778,0.24102 0.49456,0.10885 1.05008,0.0422 1.67877,-0.24688 -0.76868,-6.78263 -5.67578,-7.80333 -3.89427,-14.20777 0.004,3.4e-4 0.007,0.002 0.011,0.004 z m -3.39981,0.71003 0.005,0.004 c 0.002,0.004 0.004,0.009 0.006,0.011 -0.74716,1.10708 -1.25129,1.31912 -1.6794,0.9778 0.42578,0.32496 0.92735,0.10646 1.66828,-0.99358 z M 372.0515,324.10425 c 0.12574,0.3057 0.25301,0.61334 0.38896,0.88158 0.13455,0.26555 0.27894,0.4895 0.43798,0.64835 -0.1608,-0.15474 -0.30231,-0.38368 -0.43798,-0.64835 -0.13676,-0.26655 -0.26872,-0.56642 -0.39481,-0.87257 0.002,-0.004 0.004,-0.006 0.006,-0.009 z m 2.05284,1.33495 c -4.57964,8.98174 -11.46419,12.33928 -14.62848,26.97984 6.5101,9.91608 -17.8153,25.76405 -14.52983,35.79833 -0.004,-0.004 -0.007,-0.004 -0.0129,-0.007 -3.30432,-10.03377 21.03797,-25.88598 14.52578,-35.80525 3.15773,-14.61027 10.02012,-17.98579 14.59824,-26.92677 0.0165,-0.0165 0.0301,-0.0209 0.0463,-0.0384 z m 99.17935,67.40941 0.0129,0.007 c -2.49956,3.6319 -2.75001,9.94773 -1.54952,13.57579 -0.002,0.004 -0.006,0.009 -0.007,0.0129 -1.20578,-3.62412 -0.95687,-9.95669 1.54532,-13.59564 z m -91.33125,-52.67892 c 1.99527,3.09185 1.03804,7.16966 0.24954,10.97369 -0.53704,2.59459 -0.6065,4.2724 -0.34141,4.58922 -0.28295,-0.27006 -0.21986,-1.96348 0.32729,-4.60696 0.78691,-3.79642 1.74407,-7.86636 -0.23542,-10.95595 z m 199.20797,135.34114 c -0.76185,0.60117 -1.54903,1.26955 -2.35866,2.01578 -1.95491,0.65244 -2.75319,0.9372 -2.75615,0.99605 -0.10738,-0.031 0.66382,-0.30956 2.74413,-1.00387 l 0.009,0.006 c 0.81061,-0.7456 1.59898,-1.41317 2.36167,-2.01381 z m -66.65767,-42.77058 -0.0264,0.0342 c -0.009,-0.006 -0.0165,-0.007 -0.0261,-0.0129 0.0184,-0.007 0.0343,-0.0147 0.0525,-0.0215 z M 371.87491,341.48098 c 0.0971,0.0899 0.21694,0.17787 0.36293,0.25739 0.002,0.002 0.002,0.006 0.004,0.007 -0.14887,-0.0824 -0.26977,-0.1709 -0.36698,-0.26432 z m 316.3642,205.7594 c 0.31189,0.75614 0.63012,1.50512 1.06965,1.70917 -0.44814,-0.18404 -0.77264,-0.93254 -1.08736,-1.69504 0.007,-0.004 0.011,-0.009 0.0183,-0.0147 z m 2.04985,1.33303 c 2.31238,3.28613 -4.04578,2.94166 -2.30855,5.79902 l 0.004,-0.006 c 0.26235,0.68573 0.27414,0.92036 0.15989,0.85241 0.0738,-0.004 0.0428,-0.25112 -0.18981,-0.85903 -1.73332,-2.85096 4.5871,-2.5128 2.31873,-5.77527 0.006,-0.006 0.011,-0.006 0.0165,-0.011 z M 473.12236,407.81469 c -3.20234,0.49744 -3.39139,6.17599 -2.96066,7.82119 -0.006,-0.0319 -0.0147,-0.0424 -0.0207,-0.0734 -0.41247,-1.71523 -0.19278,-7.26343 2.98138,-7.74784 z m 39.64882,26.03622 c -0.10959,0.26951 -0.0257,0.58579 0.36817,0.97928 -0.0281,-0.011 -0.0547,-0.0255 -0.083,-0.0369 0.002,0.002 0.002,0.005 0.004,0.007 -8.10193,-3.27534 -16.08695,-6.7281 -23.99575,-9.68142 7.90709,2.95244 15.89255,6.40024 23.99168,9.6745 -0.37023,-0.37521 -0.43096,-0.67904 -0.2852,-0.94244 z m 3.76142,4.22518 c 0.43167,0.33535 1.03391,0.85894 1.68112,1.43964 -0.64534,-0.57977 -1.24952,-1.10355 -1.68112,-1.43964 z m 2.08685,1.78902 c 0.007,0.007 0.009,0.009 0.0165,0.0147 -3.47089,0.75529 -1.27004,1.46644 -0.27821,2.80846 0.33539,0.45383 0.5352,0.97768 0.32657,1.6023 -4.68178,6.58989 -6.98179,15.5914 -14.98388,25.29036 -5.90138,7.15217 -12.61061,16.72853 -19.44898,20.92407 1.57153,5.11225 -5.29767,11.5606 -9.03082,11.64445 -0.004,-0.004 -0.007,-0.007 -0.009,-0.011 3.7348,-0.0922 10.59334,-6.53644 9.02284,-11.64534 6.83837,-4.19553 13.5511,-13.77391 19.45096,-20.92707 8.00055,-9.69997 10.30208,-18.70047 14.98386,-25.29037 0.2068,-0.61767 0.0183,-1.13711 -0.31049,-1.58756 -0.98629,-1.35134 -3.22133,-2.06515 0.26213,-2.8232 z m 16.25152,12.33047 c 2.36887,2.00262 4.97774,4.32675 7.66017,6.71351 -2.68146,-2.38577 -5.29125,-4.71018 -7.66017,-6.71351 z m 10.23163,8.96737 c 1.15969,1.0168 2.3247,2.04614 3.46005,2.99851 0.81851,0.68662 1.62666,1.35028 2.41718,1.97818 -0.79161,-0.62845 -1.5974,-1.2907 -2.41718,-1.97818 -1.1354,-0.95219 -2.30014,-1.98166 -3.46005,-2.99851 z m 27.97238,18.46859 c 1.3699,1.41422 -2.0393,1.24044 -0.326,2.71753 0.007,0.005 0.009,0.009 0.0165,0.0147 -0.005,-3.5e-4 -0.011,-10e-4 -0.0165,-0.002 -2.38435,-0.14429 -4.33355,1.76671 -6.39825,3.13091 1.02723,6.98296 -0.82351,5.82538 -4.26165,13.28752 -0.92484,0.45001 -1.30827,0.51982 -1.37143,0.33983 0.0885,0.15034 0.47345,0.0725 1.35729,-0.35758 3.43817,-7.46212 5.28692,-6.30153 4.25971,-13.28451 2.06556,-1.36475 4.01557,-3.27503 6.40125,-3.12895 -1.72063,-1.45611 1.62997,-1.29641 0.33515,-2.69873 0,0 0.002,-0.004 0.002,-0.004 z m -0.33894,2.71767 c 0.006,0.006 0.007,0.007 0.0129,0.0129 l -1.5e-4,-0.0129 c -0.004,-2.9e-4 -0.009,4.3e-4 -0.0128,1.5e-4 z m -190.4827,-126.79313 -0.011,0.0184 c -6.29142,8.98091 -10.68041,23.14103 -21.33604,32.80919 -0.004,-0.011 -0.006,-0.0202 -0.009,-0.0318 l 0.004,-0.006 c 10.62855,-9.64986 15.025,-23.73976 21.27153,-32.70999 0.0275,-0.031 0.0518,-0.0369 0.0817,-0.0795 z m 188.76698,122.75644 c 0.25064,0.60958 0.50732,1.2109 0.82694,1.52994 -0.32329,-0.31091 -0.58192,-0.91359 -0.83384,-1.52588 0.002,-0.002 0.005,-0.002 0.007,-0.004 z m -81.96359,-53.19458 c -7.93404,-2.96246 -15.79319,-5.42353 -23.6148,-6.70943 0,0 0.002,-0.004 0.002,-0.004 7.82286,1.285 15.67737,3.74967 23.61284,6.71242 z M 469.03469,413.7782 c -1.01458,0.09 -2.38023,2.78227 -3.59381,4.62535 -0.002,-9.7e-4 -0.004,-0.004 -0.006,-0.004 1.21641,-1.84864 2.58527,-4.54755 3.59981,-4.62144 z m 201.76623,132.60413 c 2.33186,1.67003 4.50403,4.19716 7.33414,7.42526 -1.64832,1.37537 -2.84467,1.55119 -3.7818,1.04752 0.93287,0.48515 2.11986,0.29459 3.75175,-1.06707 -2.81933,-3.21578 -4.98233,-5.73553 -7.30409,-7.40571 z m 0.12666,2.73821 c 0.002,0.004 0.004,0.007 0.005,0.011 -8.07847,-1.9188 -15.31919,1.84909 -14.80593,9.33865 -8.28232,-1.20382 -12.48486,14.94239 -9.59956,21.49583 l -0.0218,0.007 c -4.26735,-3.86651 -5.39651,-7.40244 -4.59174,-11.01763 -0.7945,3.60526 0.3397,7.13524 4.58649,10.99283 -2.88531,-6.55342 1.31724,-22.69963 9.59956,-21.49583 -0.51374,-7.49644 6.74042,-11.26398 14.82789,-9.33292 z M 462.0741,417.12934 c -0.13381,0.0641 -0.26114,0.16374 -0.37942,0.30066 -4.7428,5.61509 -13.66499,12.7899 -23.99618,16.68398 10.32712,-3.89497 19.24598,-11.07205 23.98821,-16.68488 0.12097,-0.14006 0.25014,-0.23579 0.38739,-0.29976 z m 216.15373,145.50575 0.007,0.009 c 3.38778,9.53846 -18.307,20.23917 -21.40616,28.40564 -0.006,-0.0147 -0.011,-0.0266 -0.0165,-0.0406 3.09879,-8.1686 24.73806,-18.85185 21.40857,-28.36988 0.002,-10e-4 0.004,-0.002 0.007,-0.004 z M 563.0471,493.13802 c 0.002,0.002 0.002,0.005 0.004,0.007 -0.26172,-0.2497 -0.69837,-0.4197 -1.36974,-0.47163 0.004,-0.004 0.004,-0.009 0.007,-0.0129 0.66525,0.0553 1.10113,0.22448 1.35786,0.47675 z m -1.65067,7.93749 c 0.004,0.002 0.007,0.006 0.0129,0.007 -0.1853,-0.10665 -0.40527,-0.19064 -0.66714,-0.24994 -7.68227,4.62114 -6.09093,25.64969 -19.70966,28.0591 -20.53208,-8.26338 -40.51767,-13.7408 -57.60615,-21.40704 0,0 0.002,-0.004 0.002,-0.004 17.08417,7.66164 37.06546,13.1361 57.58812,21.39531 13.61873,-2.40943 12.02542,-23.43495 19.70767,-28.0561 0.26447,0.0598 0.48678,0.14557 0.67315,0.25386 z M 446.98482,435.62394 c -0.0736,7e-4 -0.23336,-0.009 -0.47554,-0.0183 0.22771,0.009 0.39338,0.0165 0.47554,0.0183 z m -9.29626,-1.50785 c -2.29529,0.86462 -4.65995,1.56926 -7.06385,2.05655 2.40451,-0.48796 4.76805,-1.19119 7.06385,-2.05655 z m 204.50102,133.83085 c -0.0718,0.22716 -0.12813,0.45298 -0.1852,0.67933 0.0576,-0.22655 0.11289,-0.45195 0.1852,-0.67933 z M 360.11487,386.88972 c 0.004,0.004 0.009,0.009 0.0129,0.0128 -0.52624,-0.39143 -1.19978,-0.0457 -1.94366,1.17375 -1.01845,-0.54518 -1.81743,-1.02765 -2.45695,-1.45666 -0.63679,-0.42717 -1.10765,-0.79845 -1.45888,-1.13688 0.35303,0.33687 0.82407,0.71245 1.45888,1.13688 0.63603,0.42527 1.43602,0.89995 2.44284,1.43891 0.74532,-1.22188 1.418,-1.56382 1.9447,-1.16877 z m 66.87664,49.84547 c -0.99502,0.10573 -1.99221,0.1619 -2.99313,0.18338 1.00006,-0.0217 1.99898,-0.0775 2.99313,-0.18338 z m -56.74503,-33.52313 c 3.83258,6.26515 4.85636,13.12545 4.30506,20.31687 -0.77147,0.66171 -1.5339,0.68839 -2.23805,0.29802 0.6985,0.37836 1.45287,0.34328 2.21701,-0.31171 0.55118,-7.18979 -0.47354,-14.04789 -4.30402,-20.31188 0.006,0.004 0.0128,0.006 0.02,0.009 z m -23.60196,-15.34421 c 0.51088,1.44676 -1.4013,6.01016 -5.74768,2.10418 0,0 -10e-4,-0.006 -10e-4,-0.006 4.31322,3.86213 6.21832,-0.61643 5.73595,-2.08613 0.004,-0.006 0.009,-0.007 0.0128,-0.0129 z m 309.08347,201.44809 c 0.094,0.0406 0.18265,0.10959 0.26676,0.19486 -0.32155,-0.31529 -0.70777,-0.34369 -1.21883,0.20384 0.0301,-0.034 0.0574,-0.0675 0.0874,-0.10151 0.33617,-0.31824 0.62135,-0.40231 0.86474,-0.29724 z m -2.64847,0.75816 c 1.58769,2.02 -3.23073,2.74914 -1.64306,4.76914 -3.64231,1.03849 -7.74433,2.39329 -9.49192,1.12763 -0.007,-0.002 -0.007,-0.007 -0.0147,-0.009 1.74759,1.26565 5.8496,-0.0892 9.49192,-1.12764 -1.58322,-2.01433 3.20155,-2.74626 1.65419,-4.75337 10e-4,-0.002 0.004,-0.004 0.004,-0.006 z M 412.34023,434.96522 c -1.66561,4.15012 -5.76653,6.2219 -10.71997,8.45471 4.94927,-2.23123 9.04443,-4.31004 10.70899,-8.45755 0.004,10e-4 0.007,10e-4 0.011,0.004 z m -68.00229,-41.30136 c 0.29678,1.04369 1.04804,1.9899 2.18056,2.855 -1.13474,-0.86261 -1.88934,-1.80589 -2.19137,-2.84492 0.004,-0.004 0.007,-0.007 0.011,-0.009 z m 96.69816,64.08949 c 1.24246,0.81058 2.30131,1.58322 3.13569,2.28719 0.004,0.006 0.007,0.011 0.011,0.0165 -3.3482,-2.83288 -10.35998,-6.79043 -18.2655,-9.82536 5.93241,2.27658 11.36127,5.07104 15.11869,7.52238 z m -93.28004,-60.40832 c 0.007,0.004 0.0129,0.009 0.0211,0.0128 l -0.009,0.0147 c -4.03301,2.82956 -4.06889,7.17167 -3.68111,11.52672 0.14409,1.61911 0.34273,3.24077 0.42056,4.78538 0.13143,2.60873 -0.0903,5.00261 -1.55619,6.80576 -0.009,-0.004 -0.0147,-0.007 -0.0229,-0.011 l 0.009,-0.0147 c 1.46299,-1.79935 1.69558,-4.18367 1.5694,-6.78006 -0.0751,-1.54411 -0.2754,-3.1666 -0.42056,-4.78538 -0.39182,-4.3695 -0.37224,-8.72475 3.66984,-11.55543 z m 273.28022,179.16573 c 5.17485,5.07317 6.48381,17.13512 3.93476,18.63055 -0.011,-0.004 -0.0211,-0.0129 -0.0319,-0.0165 l -0.004,-0.002 c -0.11436,-0.0422 -0.22342,-0.10628 -0.32746,-0.2001 0.10591,0.0905 0.21791,0.1586 0.33436,0.19605 2.52282,-1.50147 1.21644,-13.50099 -3.92246,-18.59687 0,0 0.005,-10e-4 0.005,-10e-4 z m 3.90666,18.60799 c -0.002,10e-4 -0.002,0.006 -0.004,0.006 l 0.007,-0.004 c 0,0 -0.004,-0.002 -0.004,-0.002 z M 425.90644,450.2281 c -2.96374,-1.13735 -6.05185,-2.14563 -9.12041,-2.91601 3.06744,0.76972 6.15742,1.77936 9.12041,2.91601 z M 643.4319,592.54598 c 0.3356,0.37411 0.11345,0.86903 -0.15052,1.36906 -0.007,-0.004 -0.011,-0.004 -0.0165,-0.007 0.26202,-0.49636 0.4899,-0.98866 0.16741,-1.36229 z M 450.83257,467.54112 c 4.48513,3.50847 6.92525,14.64008 11.69277,20.49804 -0.0277,-0.0295 -0.0558,-0.0468 -0.0833,-0.0756 -5.45251,-6.7702 -7.86236,-20.42719 -13.84172,-21.45505 0.80262,0.13199 1.54233,0.49284 2.23235,1.03261 z m -34.0545,-20.22993 c -3.07107,-0.77063 -6.12135,-1.30236 -9.00469,-1.48932 2.88387,0.18621 5.93268,0.71884 9.00469,1.48932 z m 135.70453,88.98942 c 0.47383,0.35459 0.93502,0.72176 1.3869,1.10291 0.41482,0.3499 0.81983,0.7139 1.21465,1.085 -0.39542,-0.3722 -0.79912,-0.73409 -1.21465,-1.085 -0.45074,-0.38064 -0.91428,-0.7487 -1.3869,-1.10291 z m 3.94645,3.53292 c 6.83222,7.29433 9.82992,17.88864 4.403,28.2026 -0.007,-0.002 -0.011,-0.006 -0.02,-0.009 5.42758,-10.30847 2.44007,-20.89854 -4.38303,-28.19386 z m 61.90029,40.76739 5.1306,3.33645 c 0,0 -0.002,0.004 -0.002,0.004 l -5.10052,-3.3169 c -6.09387,2.55572 -11.13499,0.0481 -14.52277,6.61464 -0.005,-0.0147 -0.007,-0.0248 -0.0128,-0.0385 3.3877,-6.54527 8.41941,-4.04503 14.50803,-6.59855 z m -84.42669,-51.96515 c -0.64308,1.21363 -2.51026,0.63216 -1.34112,2.03598 -0.004,4.3e-4 -0.007,0.002 -0.009,0.002 -1.1926,-1.41971 0.67858,-0.83917 1.3291,-2.04381 0.007,0.002 0.0147,0.004 0.022,0.006 z m -132.2923,-85.21375 c -2.96974,1.33848 -6.24496,2.73856 -9.48728,4.67172 0.75442,0.55077 1.57983,0.91399 2.42232,1.12193 -0.84511,-0.20765 -1.67361,-0.57041 -2.43028,-1.12281 3.24551,-1.9351 6.52318,-3.33115 9.49524,-4.67084 z m 234.26193,152.96222 c 1.82927,10.38616 -5.76024,3.37012 -7.36028,11.28529 -7.837,-2.24552 -15.57343,10.21003 -27.39754,8.45906 0.30037,2.7638 -0.58183,2.95207 -3.38779,0.71787 -1.51179,4.00101 -13.92971,7.56783 -17.87247,4.13695 3.96747,3.39771 16.34343,-0.1652 17.85233,-4.1586 2.80597,2.23421 3.68619,2.04895 3.38583,-0.71485 11.81454,1.74952 19.54812,-10.68276 27.37861,-8.46284 1.57444,-7.89467 9.14229,-0.9123 7.36268,-11.24951 0.006,-0.004 0.011,-0.007 0.0165,-0.011 z m -7.40131,11.26288 c 0,0 -0.002,0.004 -0.002,0.004 l 0.0209,7.5e-4 c -0.005,-0.002 -0.0129,-0.002 -0.0189,-0.004 z M 459.66308,486.35744 c -2.76996,-0.40625 -5.35603,2.28011 -8.67752,1.47332 -14.16913,10.39409 -25.66502,21.06824 -39.76779,25.23212 0.0147,-0.009 0.0259,-0.0196 0.0404,-0.0294 14.07191,-4.17767 25.55208,-14.83278 39.69745,-25.20943 0.011,0.002 0.0196,0.004 0.0299,0.007 3.31977,0.7859 5.90371,-1.90446 8.67752,-1.47332 z m -90.1424,-57.34151 c 0.25112,0.61219 0.50888,1.21902 0.83098,1.53688 -0.327,-0.30804 -0.5918,-0.9125 -0.84482,-1.52875 0.004,-0.002 0.009,-0.005 0.0128,-0.007 z m 2.05282,1.33498 c 3.19788,2.45273 -3.80388,3.23919 -2.11345,4.50603 -1.7636,-1.27242 5.2569,-2.0564 2.11149,-4.50301 0,0 0.002,-0.004 0.002,-0.004 z m 95.97591,62.84572 c 0.006,0.004 0.009,0.011 0.0165,0.0147 -1.20115,-0.78096 -2.61787,-1.40569 -4.34317,-1.78517 -0.009,-0.006 -0.0165,-0.011 -0.0241,-0.0165 1.72896,0.37932 3.14812,1.00391 4.35112,1.78606 z m -2.89433,-0.74461 c 0.46074,0.34929 0.89381,0.69999 1.30378,1.05315 0.40812,0.35154 0.7926,0.70701 1.15273,1.06182 -0.36065,-0.356 -0.74382,-0.70909 -1.15273,-1.06182 -0.40891,-0.35272 -0.84427,-0.70429 -1.30378,-1.05315 z m 2.47259,2.1297 c 10.45898,10.32383 1.12977,21.90226 0.85286,27.67727 -14.48443,15.6578 -27.19896,33.62651 -37.70157,55.71277 -0.0129,0.009 -0.0239,0.0211 -0.0374,0.0312 10.50809,-22.10501 23.2271,-40.08778 37.72095,-55.75576 0.27819,-5.77118 9.59897,-17.34553 -0.83482,-27.66555 z m 40.54331,27.21237 c 0.006,0.004 0.0128,0.009 0.0184,0.011 3.30225,14.55182 -13.01261,31.23617 -9.96935,48.95534 -0.004,0.007 -0.007,0.0147 -0.011,0.0229 -3.07296,-17.73324 13.2666,-34.4279 9.96201,-48.99006 z M 369.93043,435.12008 c -4.254,2.6727 -9.17149,-1.66824 -10.82689,3.18044 l -0.0241,-0.0165 c 1.65506,-4.84765 6.57158,-0.50833 10.82493,-3.17745 0.011,0.006 0.0147,0.007 0.0261,0.0129 z m -23.80935,-12.69072 c 5.74174,4.88115 0.004,11.90223 -1.58673,18.07204 -0.72943,2.82544 3.86756,11.78389 -0.87384,12.56966 -0.006,-0.006 -0.009,-0.011 -0.0165,-0.0147 4.73235,-0.79177 0.13969,-9.74427 0.8689,-12.56863 1.58828,-6.16342 7.31986,-13.17784 1.60775,-18.05834 z m 9.18596,10.48985 c 0.004,0.004 0.004,0.006 0.007,0.009 -0.004,-7.3e-4 -0.009,8.8e-4 -0.0129,1.5e-4 z M 562.58316,568.9867 c 0.74035,0.73134 0.77909,1.60812 1.33582,2.37837 -0.56244,-0.76823 -0.60571,-1.64565 -1.33582,-2.37837 z m 31.78796,23.78106 0.0184,0.011 c -2.50922,3.42416 -3.37146,12.72343 -5.23822,17.03176 l 0.0165,-0.006 c -0.52581,0.41585 -0.85277,0.52648 -1.07206,0.43187 0.22177,0.065 0.53906,-0.0534 1.0381,-0.44542 1.86576,-4.30603 2.73118,-13.59519 5.23731,-17.02379 z M 379.28536,457.27966 c 2.08764,1.41455 4.19639,3.28665 6.23016,5.49274 -0.94178,1.08454 -0.96114,1.97622 -0.30705,2.72129 l -0.004,0.006 c -1.61412,1.09182 -2.65267,0.92955 -3.47994,0.13621 -0.16393,-0.15732 -0.32253,-0.3402 -0.47259,-0.54255 0.15071,0.20194 0.30778,0.38604 0.47259,0.54255 0.82393,0.78251 1.86112,0.93658 3.46296,-0.143 -0.65409,-0.74507 -0.63473,-1.63675 0.30705,-2.72129 -4.06755,-4.41221 -8.44008,-7.49022 -12.32849,-8.23542 1.95034,0.36972 4.02405,1.32377 6.11922,2.74343 z m -2.50547,1.17617 c 0.17108,0.12409 0.34752,0.24227 0.50357,0.38308 -0.15621,-0.14079 -0.33242,-0.25899 -0.50357,-0.38308 z m 0.60921,0.49026 c 0.20051,0.18959 0.39431,0.38699 0.57267,0.59907 -0.17843,-0.21198 -0.37209,-0.40955 -0.57267,-0.59907 z m -1.77525,-1.15019 c -2.37531,1.5515 -9.92143,0.1652 -9.13353,2.81903 -0.18795,0.18338 -0.34288,0.27146 -0.48177,0.30681 0.13272,-0.0406 0.28477,-0.13602 0.46088,-0.30756 -0.7879,-2.65386 6.75822,-1.26753 9.13351,-2.81904 l 0.004,-0.006 c 0.006,0.002 0.011,0.004 0.0165,0.007 z m 8.92224,8.73172 c 5.20213,8.84618 -1.30083,12.67073 -2.51887,17.34182 -3.43772,-0.79806 -8.7003,4.43127 -13.28247,1.58358 4.57846,2.82584 9.83067,-2.39246 13.26443,-1.59531 1.21615,-4.66384 7.69805,-8.4854 2.54022,-17.30228 -10e-4,-0.009 -0.002,-0.0187 -0.004,-0.0277 z m -19.93556,-6.72456 c 0.002,5.6e-4 0.004,0.004 0.006,0.004 -0.2128,-0.0457 -0.47587,0.0679 -0.84254,0.49984 0.006,-0.0129 0.0129,-0.0222 0.0185,-0.0351 0.3511,-0.39898 0.61177,-0.52009 0.81805,-0.46875 z m 220.80881,145.77883 c -0.21685,-0.0632 -0.45429,-0.11179 -0.72051,-0.13492 0.002,-0.002 0.006,-0.002 0.007,-0.004 0.26288,0.0261 0.49999,0.0731 0.71359,0.13896 z M 346.73825,455.07253 c -0.59721,12.25596 6.87794,21.24413 4.09861,31.85365 0,0 0.004,0.002 0.004,0.002 l -0.004,0.006 c 6.8e-4,-0.002 2.2e-4,-0.006 9e-4,-0.007 -0.007,-0.007 -0.0129,-0.0193 -0.0211,-0.0266 2.76738,-10.59795 -4.6883,-19.57474 -4.10118,-31.81682 0.005,-10e-4 0.0183,-0.009 0.0237,-0.011 z M 572.43118,601.8507 c -3.21794,2.57789 1.27056,11.93219 -6.00443,9.23323 l 0.002,-0.004 c 7.20908,2.65257 2.79319,-6.60988 5.95091,-9.2167 0.0165,-0.007 0.0358,-0.005 0.0516,-0.0129 z m -4.45798,-2.52271 c 0.96267,0.67444 2.01903,1.63903 2.92272,2.18721 -1.21024,-0.72528 -2.69724,-2.20483 -3.87086,-2.7482 0.29871,0.13529 0.61758,0.32941 0.94814,0.56099 z m -8.48154,-5.48993 c 0.40887,0.61106 0.74887,1.44744 1.04979,2.41045 0.11876,0.25644 0.22626,0.56555 0.30761,0.98696 -0.025,-0.10463 -0.0587,-0.17641 -0.0848,-0.27748 -0.0575,-0.24102 -0.12464,-0.449 -0.19704,-0.62425 -0.009,-0.0286 -0.0165,-0.0569 -0.0259,-0.0852 -0.011,-0.0228 -0.0198,-0.0497 -0.0307,-0.0712 -0.29394,-0.92871 -0.62357,-1.74196 -1.01915,-2.3392 z m -136.53769,-88.7144 c 0.19472,0.011 0.29603,0.32185 0.0654,1.01756 -0.007,-0.002 -0.011,-10e-4 -0.0189,-0.004 -0.002,0.006 3.5e-4,0.009 -0.002,0.0165 l -0.009,-0.0187 c 0.004,10e-4 0.007,10e-4 0.011,0.004 0.37717,-1.12132 -0.14006,-1.21472 -0.48788,-0.66369 0.13877,-0.23155 0.31169,-0.35764 0.44151,-0.3501 z m 136.91851,90.36479 c 0.11198,0.0492 0.21486,0.12097 0.31272,0.21618 -1.12841,-1.04678 -3.20127,1.18581 -5.5817,-0.86708 2.17772,1.85675 4.09867,0.13675 5.26898,0.6509 z M 421.69137,506.72317 c 0.2031,0.11308 0.41304,0.25598 0.62833,0.42145 10e-4,0.006 0.002,0.009 0.004,0.0147 -0.45333,-0.35321 -0.87702,-0.58803 -1.28207,-0.71825 0.21167,0.0655 0.42737,0.15768 0.65061,0.28194 z m 132.31362,87.51561 c 0.007,0.007 0.0129,0.0129 0.0202,0.0217 -3.62936,4.13651 -8.07363,10.21301 -15.08658,16.46497 -0.004,-0.011 -0.004,-0.0235 -0.007,-0.0347 7.00485,-6.24754 11.44686,-12.31813 15.0738,-16.4519 z M 393.66753,492.89123 c 1.64244,1.42063 1.19073,3.28372 -0.61815,5.43566 -5.94955,-0.45753 -9.04671,1.46312 -16.62097,0.87087 5.6e-4,-0.004 0.002,-0.007 0.004,-0.011 7.55555,0.58594 10.65726,-1.32864 16.60007,-0.87161 1.80242,-2.14424 2.25287,-4.00417 0.63122,-5.42289 0,0 0.006,-0.001 0.006,-0.001 z m -23.91292,-12.61692 c 0.10464,0.9938 0.43323,1.64121 0.92377,1.9992 -0.49641,-0.35285 -0.82631,-0.99595 -0.9346,-1.98914 0.004,-0.004 0.007,-0.006 0.011,-0.009 z m 26.09982,27.1813 c 0.005,0.004 0.009,0.006 0.0147,0.009 -0.14043,1.2093 -0.29411,2.41876 0.71486,3.38583 -4.7245,0.62124 -8.60349,6.91034 -12.73099,3.63575 4.12051,3.24531 7.99645,-3.03004 12.71491,-3.65047 -1.00763,-0.96579 -0.85411,-2.1732 -0.71379,-3.38088 z m 121.77458,82.11178 0.0147,0.009 c -3.66614,7.65108 -1.6506,10.40038 -6.92962,17.39017 -0.006,-0.004 -0.009,-0.007 -0.0147,-0.009 5.27904,-6.98977 3.2635,-9.73909 6.92963,-17.39017 z m 50.28679,32.70182 c -10.20914,4.6683 -25.63356,2.46353 -36.98917,0.76323 l -0.002,-0.009 c 11.3505,1.69938 26.752,3.89964 36.9534,-0.76082 0.0129,0.004 0.0248,0.004 0.0378,0.007 z M 426.38409,534.60525 c 3.40367,4.5454 3.65899,13.85512 8.63209,16.15548 -4.98332,-2.28889 -5.23835,-11.60075 -8.642,-16.15337 0.004,-10e-4 0.006,-10e-4 0.009,-0.002 z m 75.25507,50.3972 -0.004,0.0189 c 0.0487,0.1195 0.0984,0.22714 0.14814,0.34438 -0.0516,-0.11766 -0.10353,-0.22802 -0.15419,-0.34827 0.002,-0.004 0.007,-0.011 0.009,-0.0147 z m 2.05282,1.33496 c 1.14374,1.11383 -2.89567,4.18457 -2.08022,5.15205 -0.87164,-0.94255 3.15074,-4.00746 2.07136,-5.14499 0.004,-0.004 0.006,-0.004 0.009,-0.007 z m -33.88203,-22.02088 c 0.006,0.004 0.009,0.007 0.0147,0.009 -2.66365,9.746 4.05415,12.07606 0.25376,22.06158 -1.41998,0.62996 -1.85492,-0.0224 -2.1594,-0.65156 0.30417,0.62223 0.74065,1.25154 2.14422,0.62885 3.79887,-9.98156 -2.90877,-12.31239 -0.25361,-22.04865 z M 356.75309,492.18482 c 0.73726,1.73147 0.92008,3.57966 1.63187,5.31651 -0.71633,-1.73593 -0.89927,-3.58401 -1.63187,-5.31651 z m 137.00926,89.16648 c 0.007,0.005 0.0165,0.009 0.024,0.0165 -2.04012,4.93796 -5.87041,10.93292 -12.72174,15.07759 -7.1e-4,0.004 -0.002,0.007 -0.004,0.011 l -0.004,-0.007 c 0.002,-10e-4 0.004,-0.002 0.007,-0.004 0.004,-0.0129 0.009,-0.0331 0.0129,-0.0468 6.82684,-4.14296 10.64752,-10.11782 12.68431,-15.04633 z m 54.06516,36.32217 c -0.799,-0.35751 -1.59125,-0.77171 -2.38305,-1.25461 0,0 0.002,-0.004 0.002,-0.004 0.79179,0.48461 1.58225,0.89879 2.38109,1.25762 z M 400.78576,522.35063 c 1.74684,1.28574 -1.09089,3.54577 0.65878,4.83338 -1.78144,-1.27981 1.04642,-3.53729 -0.66073,-4.83039 0,0 0.002,-0.004 0.002,-0.004 z m 102.29108,69.42442 c -0.28359,3.21392 -4.01613,6.46872 -6.72426,5.84842 -0.75416,0.7489 -0.22933,1.22817 0.35843,1.69142 -0.29798,-0.11363 -0.55066,-0.25286 -0.76148,-0.41396 0.20708,0.15511 0.44808,0.28803 0.73741,0.3983 -0.58774,-0.46323 -1.11255,-0.94249 -0.35839,-1.6914 2.70372,0.61927 6.42814,-2.62367 6.72243,-5.83251 0.009,-5.7e-4 0.0165,3.5e-4 0.0259,-2.7e-4 z M 383.04305,513.72054 c 0.25057,0.27458 0.49743,0.506 0.74594,0.7075 -0.24859,-0.20303 -0.49721,-0.42824 -0.7479,-0.70447 z m 79.43956,51.95945 c 0.57188,0.37543 1.09757,0.90132 1.57588,1.54229 -1.89872,-2.53062 -4.55607,-3.23364 -7.77673,-0.0237 -3.04429,-0.45353 -5.71983,0.8392 -9.18487,-1.59369 0.002,-0.004 0.004,-0.006 0.006,-0.009 3.45582,2.41485 6.12665,1.12828 9.16381,1.57998 2.41551,-2.40752 4.51681,-2.61144 6.21605,-1.49596 z m -101.65219,-64.94185 -0.004,0.006 c 0,0 -0.004,-0.002 -0.004,-0.002 -1.02983,0.7968 -2.03006,1.00603 -2.96727,0.7946 0.93233,0.20175 1.92716,-0.0147 2.95119,-0.80934 0.006,0.006 0.011,0.009 0.0165,0.0147 0.002,-0.002 0.004,-0.002 0.007,-0.004 z m 41.01056,26.678 c 0.009,0.004 0.0128,0.009 0.0211,0.0129 -5.25661,1.83938 -4.84922,4.72411 -10.10211,6.5642 0,0 10e-4,0.006 10e-4,0.006 l -0.006,-0.004 c 0,0 0.006,-10e-4 0.006,-10e-4 -10e-4,-0.007 -10e-4,-0.0147 -0.002,-0.0229 5.22988,-1.84042 4.83399,-4.71819 10.08331,-6.55503 z m 34.23444,23.70839 c 0.64633,2.20489 -0.21398,5.43349 -2.30853,5.79905 -10e-4,-0.002 -0.004,-0.006 -0.004,-0.007 2.08711,-0.37425 2.94234,-3.59665 2.2986,-5.79695 0.006,10e-4 0.009,0.004 0.0147,0.006 z m -16.40944,-10.48298 c -0.20567,-0.0435 -0.41009,-0.0716 -0.61562,-0.0923 0.20502,0.0213 0.41047,0.0485 0.61562,0.0923 z m -1.45025,-0.11767 c -1.93169,0.11051 -3.84245,1.32077 -5.63459,4.08083 -0.25927,0.20357 -0.49627,0.29544 -0.71838,0.31547 0.21739,-0.0233 0.45155,-0.1217 0.70437,-0.32028 1.79708,-2.76766 3.71148,-3.97117 5.6486,-4.07602 z m -52.93405,-27.65767 c 11.35207,7.74085 9.01004,22.20134 23.23668,29.51907 -15.29889,-7.85682 -11.45834,-23.96222 -26.01359,-31.12819 -0.8631,-0.42494 -1.80545,-0.8118 -2.80573,-1.17026 1.00112,0.35815 1.94189,0.7456 2.80573,1.17026 1.00848,0.49579 1.93242,1.03328 2.77691,1.60912 z m 43.54712,29.79444 c -0.10169,-0.0228 -0.20678,-0.0329 -0.31545,-0.0213 -0.2174,0.0233 -0.44856,0.12373 -0.70138,0.32225 -0.002,-0.002 -0.002,-0.004 -0.004,-0.007 0.2548,-0.19761 0.48655,-0.29558 0.70542,-0.31535 0.10793,-0.009 0.2144,-0.004 0.31547,0.0213 z m 58.53912,42.24668 c 0.11344,0.0534 0.20139,0.16539 0.2819,0.30306 -0.23358,-0.38699 -0.53722,-0.52596 -1.31531,0.20099 0.006,-0.0129 0.009,-0.029 0.0147,-0.042 0.49946,-0.4584 0.80602,-0.56248 1.01899,-0.4621 z m -99.53414,-63.5559 -0.002,0.004 c -0.29075,0.002 -0.57129,-0.0215 -0.84107,-0.0679 -0.27085,-0.0466 -0.5308,-0.11326 -0.78197,-0.20488 0.25091,0.0899 0.51145,0.15971 0.78197,0.20488 0.2705,0.0453 0.55148,0.0681 0.84302,0.065 z m 146.71361,95.4131 c 0.10573,0.20805 0.18209,0.40241 0.24337,0.58592 1.82358,5.46024 -15.39586,0.34213 -15.96968,0.77694 0.3711,-0.50591 17.77063,4.69413 15.96968,-0.77694 -0.06,-0.18228 -0.14612,-0.37517 -0.25029,-0.58184 0.002,-0.002 0.005,-0.002 0.007,-0.004 z m -0.23225,0.2125 c -0.20688,0.2044 -0.41732,0.4101 -0.58959,0.53176 -0.23803,0.16815 -0.44678,0.26834 -0.63976,0.31955 0.19337,-0.0525 0.401,-0.15107 0.63976,-0.31955 0.17218,-0.12152 0.38321,-0.32924 0.58959,-0.53176 z m -3.52655,0.76021 c -0.42725,0.0991 -0.9759,0.38793 -1.6398,0.87094 0.66379,-0.48555 1.21347,-0.77332 1.6398,-0.87094 z M 390.16912,543.16791 c -1.21597,0.34453 -2.38243,0.35942 -3.50792,0.12648 -0.55721,-0.11528 -1.10328,-0.28844 -1.64178,-0.52025 0.53804,0.2299 1.08501,0.40666 1.64178,0.52025 1.11929,0.22837 2.27907,0.20649 3.48791,-0.13529 0.007,0.004 0.0128,0.006 0.02,0.009 z m 108.77111,75.11819 c 0.009,0.007 -4.2e-4,0.007 0.011,0.0165 -3.39967,2.04586 -9.34619,-7.92158 -12.26261,-3.59515 0.027,-0.0354 0.0329,-0.0608 0.0576,-0.0951 2.93942,-4.08159 8.81984,5.70493 12.19388,3.67449 z M 394.95347,550.851 c 1.01027,0.71089 1.70495,3.49269 2.77827,4.51384 -1.07589,-1.00539 -1.77046,-3.78481 -2.77827,-4.51384 z m 91.73221,62.01905 c 0.16154,0.0817 0.28728,0.18136 0.37525,0.29107 -1.08197,-1.30261 -7.7362,-0.314 -12.27102,-4.33194 4.16705,3.67954 10.11984,3.14211 11.89577,4.04087 z m -18.81485,-11.86764 -2.66798,4.10265 c -0.007,-0.002 -0.0128,-0.005 -0.02,-0.009 l 2.66015,-4.09062 c 0.009,-10e-4 0.0183,-0.002 0.0279,-0.004 z m -41.34861,-23.96829 c -1.6616,1.89519 -4.08409,0.20599 -5.7457,2.10117 -0.005,-0.006 -0.009,-0.006 -0.0147,-0.009 0,0 0.002,-0.004 0.002,-0.004 1.6607,-1.88972 4.08108,-0.20545 5.7418,-2.09517 0.006,0.002 0.011,0.004 0.0165,0.007 z M 307.92719,505.75718 c 1.37294,1.40741 -2.07158,1.2192 -0.30811,2.71633 -6.69377,-2.54216 -16.35503,-3.76033 -24.16275,-5.49195 0.004,-0.002 0.006,-0.006 0.009,-0.007 7.80379,1.72898 17.45449,2.95148 24.14186,5.49121 -1.75895,-1.49332 1.65709,-1.3137 0.31217,-2.70941 0.002,-7.4e-4 0.006,0.002 0.007,9e-4 z m 112.20346,77.69237 c 0.76071,0.65969 1.48926,1.51463 2.09152,2.45923 -2.31649,0.19644 -4.43132,1.33373 -7.12603,-0.2548 0,0 0.002,-0.004 0.002,-0.004 2.68361,1.57 4.79532,0.442 7.10604,0.24606 l -0.006,-0.004 c -0.5962,-0.93513 -1.31502,-1.78663 -2.06747,-2.44359 z M 299.309,523.49478 l -0.006,0.009 c -1.16266,3.01013 -11.49525,-1.47543 -14.87337,4.9112 -0.002,-0.006 -0.006,-0.009 -0.007,-0.0147 0,0 0.002,-0.004 0.002,-0.004 3.38842,-6.39812 13.71743,-1.91498 14.87141,-4.90818 0.004,0.002 0.009,0.002 0.0147,0.006 z m -4.86464,-0.77284 c -0.76306,-0.2316 -1.62923,-0.59416 -2.62776,-1.17428 0,0 0.002,-0.004 0.002,-0.004 0.99705,0.5805 1.86333,0.94438 2.62582,1.17727 z m 19.62615,16.21002 c 0.004,0.004 0.007,0.004 0.0129,0.007 -2.7207,2.46988 -6.59255,-0.49915 -8.77405,4.51541 -0.004,-0.006 -0.007,-0.011 -0.011,-0.0165 2.18235,-4.99986 6.05044,-2.03329 8.76925,-4.50143 z m -30.78116,-12.24222 c -0.25694,-0.0833 -0.55042,0.007 -0.9094,0.39224 1.5e-4,-0.005 0.002,-0.009 0.002,-0.0165 0.3578,-0.37682 0.65162,-0.46711 0.9076,-0.3763 z"
   id="path2"
   inkscape:connector-curvature="0" />
<metadata
   id="metadata220"><rdf:RDF><cc:Work><dc:format>image/svg+xml</dc:format><dc:type
         rdf:resource="http://purl.org/dc/dcmitype/StillImage" /><cc:license
         rdf:resource="http://creativecommons.org/publicdomain/zero/1.0/" /><dc:publisher><cc:Agent
           rdf:about="http://openclipart.org/"><dc:title>Openclipart</dc:title></cc:Agent></dc:publisher><dc:title></dc:title><dc:date>2006-10-30T13:56:06</dc:date><dc:description>a top view of a turtle</dc:description><dc:source>https://openclipart.org/detail/1024/turtle-by-johnny_automatic</dc:source><dc:creator><cc:Agent><dc:title>johnny_automatic</dc:title></cc:Agent></dc:creator><dc:subject><rdf:Bag><rdf:li>amphibian</rdf:li><rdf:li>animal</rdf:li><rdf:li>reptile</rdf:li><rdf:li>turtle</rdf:li></rdf:Bag></dc:subject></cc:Work><cc:License
       rdf:about="http://creativecommons.org/publicdomain/zero/1.0/"><cc:permits
         rdf:resource="http://creativecommons.org/ns#Reproduction" /><cc:permits
         rdf:resource="http://creativecommons.org/ns#Distribution" /><cc:permits
         rdf:resource="http://creativecommons.org/ns#DerivativeWorks" /></cc:License></rdf:RDF></metadata></svg>