<?xml version="1.0" encoding="UTF-8" standalone="no"?>
<!-- Created with Inkscape (http://www.inkscape.org/) -->

<svg
   xmlns:dc="http://purl.org/dc/elements/1.1/"
   xmlns:cc="http://creativecommons.org/ns#"
   xmlns:rdf="http://www.w3.org/1999/02/22-rdf-syntax-ns#"
   xmlns:svg="http://www.w3.org/2000/svg"
   xmlns="http://www.w3.org/2000/svg"
   xmlns:sodipodi="http://sodipodi.sourceforge.net/DTD/sodipodi-0.dtd"
   xmlns:inkscape="http://www.inkscape.org/namespaces/inkscape"
   version="1.2"
   width="297mm"
   height="210mm"
   viewBox="0 0 1122.5197 793.70078"
   id="Layer_1"
   xml:space="preserve"
   style="overflow:inherit"
   sodipodi:docname="tunicata.svg"
   inkscape:version="0.92.3 (2405546, 2018-03-11)"><sodipodi:namedview
   pagecolor="#ffffff"
   bordercolor="#666666"
   borderopacity="1"
   objecttolerance="10"
   gridtolerance="10"
   guidetolerance="10"
   inkscape:pageopacity="0"
   inkscape:pageshadow="2"
   inkscape:window-width="1865"
   inkscape:window-height="1025"
   id="namedview5"
   showgrid="false"
   units="mm"
   inkscape:zoom="0.5316865"
   inkscape:cx="893.21863"
   inkscape:cy="648.09013"
   inkscape:window-x="55"
   inkscape:window-y="27"
   inkscape:window-maximized="1"
   inkscape:current-layer="Layer_1"
   showguides="true"
   inkscape:guide-bbox="true" /><metadata
   id="metadata7"><rdf:RDF><cc:Work
       rdf:about=""><dc:format>image/svg+xml</dc:format><dc:type
         rdf:resource="http://purl.org/dc/dcmitype/StillImage" /><dc:title /></cc:Work></rdf:RDF></metadata><defs
   id="defs7">
	

	
	
	
	
	
	
	
	
	
	
	
	
	
	
	
	
	
	
	
	
	
	
	
	
	
	
	
	
	
	
	
	
	
	
	
	
	
	
	
	
	
</defs>


	<style
   id="style3"
   type="text/css" /><path
   style="fill:#000000;fill-opacity:1;stroke:#070000;stroke-width:3.78653908;stroke-linecap:butt;stroke-linejoin:miter;stroke-miterlimit:4;stroke-dasharray:none;stroke-opacity:1"
   d="m 539.39998,32.515074 c -3.93008,-0.03702 -8.10392,0.08329 -12.59392,0.461133 -7.55425,2.849205 -13.09868,10.830068 -15.37673,16.737335 -0.47972,1.244004 -4.77502,9.304186 -0.24564,2.663446 1.31949,-1.934573 5.67292,-4.783097 5.67292,-4.783097 0,0 5.78041,-3.812834 17.7789,-5.264795 12.70681,-1.537669 48.0105,3.097972 69.62325,11.322911 11.29331,4.297785 31.17141,8.61755 29.61524,19.198305 -0.44014,2.992676 -8.49682,0.60864 -9.68257,3.445969 -2.48122,5.937202 10.25167,16.737321 10.25167,16.737321 0,0 -5.69531,4.430396 -19.36357,-3.445968 -13.66825,-7.876352 -7.97368,15.259816 -7.97368,15.259816 0,0 -6.26435,-6.399848 -22.21066,-17.229826 -15.9463,-10.829991 -24.48862,9.354456 -24.48862,9.354456 0,0 1.13937,-4.92311 -11.38987,-20.675799 -12.52924,-15.752722 -22.78131,2.953459 -22.78131,2.953459 0,0 -4.49505,-10.762767 -7.56861,-14.27506 -3.07358,-3.512312 -10.51229,-7.084387 -10.51229,-7.084387 0,0 -11.53337,14.467124 -17.2285,30.219827 -5.6951,15.7527 -0.99354,34.88936 -8.54279,49.22699 -7.0851,13.45613 -11.64969,25.22351 -19.36357,34.45967 -11.31947,13.55326 -34.37658,24.13871 -47.26837,40.3666 -16.45381,20.71166 -38.69029,42.46625 -48.97879,65.96431 -12.38999,28.29769 -20.3589,57.31912 -27.3357,86.64012 -4.40257,18.5024 -10.05308,37.24673 -9.1119,56.11893 1.02338,20.52046 13.44185,42.05339 15.94581,60.05738 2.90405,20.88066 -0.91763,14.43721 -15.94581,45.28851 -9.11218,18.70633 -30.4339,87.46145 -19.36357,112.23784 19.11645,42.78432 49.13837,79.39254 124.15354,110.26939 47.8389,19.69087 130.08675,14.32829 189.07659,-4.92348 48.43494,-15.80711 90.475,-48.65574 119.59759,-85.65512 11.68416,-14.84437 17.63989,-33.30311 19.36357,-51.19544 1.68877,-17.52999 -3.3273,-35.31697 -9.1119,-52.182 -5.21605,-15.20746 -14.39939,-29.20814 -22.78132,-43.3185 -14.60568,-24.58763 -40.79357,-49.79753 -47.83903,-71.87281 -6.70981,-21.02352 -7.83487,-33.1355 -6.83392,-52.18044 0.96408,-18.34361 8.23273,-32.45735 21.64154,-55.13392 13.448,-22.74283 43.62055,-39.74162 66.06283,-59.07394 16.17187,-13.93082 40.9883,-23.28769 49.40994,-41.00183 2.35868,-4.961 0.0849,-10.90869 -1.53644,-16.09112 -1.62138,-5.18243 -4.88733,-9.34616 -6.15213,-10.86432 -1.45265,-1.7436 -5.4145,-7.03081 -5.68693,-6.58326 -0.51328,0.84322 4.95153,10.32256 7.24959,16.63227 1.68081,4.61495 0.17559,5.77828 0.83309,9.37769 -3.41706,13.78362 -17.72388,4.86374 -10.88975,-2.02806 6.83412,-6.8918 1.13909,-10.25447 -2.27798,-6.3163 -3.41706,3.93819 0.73672,1.62123 -5.89013,7.64794 -7.72836,7.02847 -3.41773,-9.84458 -3.41773,-14.7673 0,-4.92272 -10.25149,-0.98501 -17.08561,-0.98501 -6.83412,-1e-5 -3.41631,-6.89253 1.13978,-14.76888 4.55608,-7.87635 -3.94677,-7.40814 -7.36384,-4.45451 -3.41705,2.95363 -11.43048,4.4556 -15.98657,3.47106 -4.55609,-0.98455 4.04485,-11.0594 4.04485,-11.0594 0,0 -9.38859,-2.38974 -7.42027,-5.94143 6.50116,-11.73095 49.15801,14.47467 54.64474,20.74325 -3.46307,-5.96737 -24.54299,-33.79016 -56.39438,-32.29516 -21.94396,1.02994 -50.26927,18.50625 -50.11702,19.69079 2e-5,0 -20.85204,20.13535 -38.12824,34.97727 -11.92429,10.24412 -27.93518,10.31185 -33.63031,8.34278 -5.6951,-1.9691 3.41775,-21.65924 3.41775,-21.65924 0,0 28.60145,-76.75583 30.75344,-97.47053 0.8307,-7.996181 0.2364,-24.55345 -2.84864,-36.428112 -1.25129,-4.816439 -2.88808,-9.801869 -6.26326,-13.783882 -3.03132,-3.576355 -7.51671,-6.153964 -11.96054,-8.367883 -5.98691,-2.982676 -13.72681,-4.805551 -19.36357,-6.399428 -15.34409,-2.780914 -26.35552,-5.734258 -43.28308,-8.369452 -9.30769,-0.29306 -18.89734,-1.825832 -30.6876,-1.937079 z m -8.62746,283.557476 -11.00107,213.51821 c 0,0 7.62861,128.35824 6.86685,153.06244 -23.00633,-47.61875 -35.27378,-100.52045 -25.57665,-151.83588 -14.06629,-73.47834 12.35795,-160.0327 29.71087,-214.74477 z m 69.46647,14.91317 c 18.58178,37.50228 26.82195,79.22545 30.01189,120.70454 1.24301,24.72939 3.56467,56.79388 -5.07489,75.91009 10.392,23.15997 4.57326,82.92271 -22.66529,126.177 l 1.48781,-148.39775 c -8.74678,-31.4555 -10.58042,-64.59352 -7.56764,-97.15997 2.54336,-25.51463 3.04636,-52.5297 3.80812,-77.23391 z m -158.07232,13.92347 -1.48781,148.39775 c 8.74678,31.45548 10.58042,64.5935 7.56764,97.15997 -2.54335,25.51463 -3.04637,52.52969 -3.80811,77.2339 -18.58179,-37.50227 -22.55135,-56.79764 -25.74127,-98.27674 -0.74232,-14.7681 9.43798,-57.8866 9.43798,-57.8866 0,0 -13.31285,-41.92298 -11.48393,-86.45975 1.22462,-29.82113 13.35951,-61.40329 25.5155,-80.16853 z"
   id="path2997"
   inkscape:connector-curvature="0"
   sodipodi:nodetypes="cccscsscccscscsczcscssssssssssssssssssczscscsccscssccccscsccscscccsccccccccccccccccccscc" /></svg>