<?xml version="1.0" encoding="UTF-8" standalone="no"?>
<!-- Created with Inkscape (http://www.inkscape.org/) -->

<svg
   xmlns:dc="http://purl.org/dc/elements/1.1/"
   xmlns:cc="http://creativecommons.org/ns#"
   xmlns:rdf="http://www.w3.org/1999/02/22-rdf-syntax-ns#"
   xmlns:svg="http://www.w3.org/2000/svg"
   xmlns="http://www.w3.org/2000/svg"
   xmlns:sodipodi="http://sodipodi.sourceforge.net/DTD/sodipodi-0.dtd"
   xmlns:inkscape="http://www.inkscape.org/namespaces/inkscape"
   width="297mm"
   height="210mm"
   viewBox="0 0 297 210"
   version="1.1"
   id="svg8"
   inkscape:version="0.92.3 (2405546, 2018-03-11)"
   sodipodi:docname="xenacoelomorpha.svg">
  <defs
     id="defs2" />
  <sodipodi:namedview
     id="base"
     pagecolor="#ffffff"
     bordercolor="#666666"
     borderopacity="1.0"
     inkscape:pageopacity="0.0"
     inkscape:pageshadow="2"
     inkscape:zoom="0.24748737"
     inkscape:cx="-483.78652"
     inkscape:cy="1034.0497"
     inkscape:document-units="mm"
     inkscape:current-layer="layer1"
     showgrid="false"
     inkscape:window-width="1865"
     inkscape:window-height="1025"
     inkscape:window-x="55"
     inkscape:window-y="27"
     inkscape:window-maximized="1" />
  <metadata
     id="metadata5">
    <rdf:RDF>
      <cc:Work
         rdf:about="">
        <dc:format>image/svg+xml</dc:format>
        <dc:type
           rdf:resource="http://purl.org/dc/dcmitype/StillImage" />
        <dc:title></dc:title>
      </cc:Work>
    </rdf:RDF>
  </metadata>
  <g
     inkscape:label="Layer 1"
     inkscape:groupmode="layer"
     id="layer1"
     transform="translate(0,-87)">
    <g
       id="g868"
       transform="matrix(-0.91412801,0.33605271,-0.32659799,-0.9405912,-16.169299,316.07739)"
       style="stroke-width:1.01556873">
      <path
         id="path838"
         transform="matrix(0.26458333,0,0,0.26458333,0,87)"
         d="m -969.74023,-249.75391 c -14.17241,0.0757 -27.58821,1.05225 -38.83207,2.91993 -4.675,0.77654 -20.425,2.54762 -35,3.93554 -25.9411,2.47026 -35.1931,3.80793 -61.5,8.89453 -7.15,1.38248 -16.6,3.01881 -21,3.63672 -11.8108,1.65857 -41.1746,9.20844 -60.0371,15.43555 -23.6376,7.80359 -48.2268,21.77615 -65.5781,37.26367 -7.7948,6.95754 -20.5015,22.25132 -25.1699,30.29688 -5.9731,10.29388 -11.6037,33.7156 -10.1719,42.31054 1.3694,8.220025 6.4437,20.135592 11.3652,26.691409 2.6847,3.576152 10.6978,12.176248 17.8086,19.109375 10.4572,10.195843 14.35,13.30149 20.3575,16.248047 9.7071,4.76126 19.9609,7.275429 35.1093,8.609375 6.7748,0.596599 17.0414,1.756204 22.8164,2.576172 5.775,0.819969 16.8,1.865901 24.5,2.326172 7.7001,0.460233 15.7832,0.904249 17.961,0.984375 5.6573,0.208328 27.7494,-2.493277 43.539,-5.324219 26.7264,-4.791798 38.7465,-6.506108 53.5,-7.625 17.3573,-1.316334 17.0343,-1.312564 58.50003,-0.589844 147.33238,2.567963 140.50732,2.523627 154,0.990235 24.43745,-2.77731 50.84325,-3.68732 71.51954,-2.466797 10.98943,0.648718 26.50547,1.178717 34.48046,1.177734 7.975,-10e-4 30.92501,0.650756 51,1.449219 41.22206,1.639559 86.27662,0.819081 100.63868,-1.832031 4.47583,-0.826167 20.00078,-2.236006 34.5,-3.132813 73.42287,-4.541367 122.24803,-10.255548 153.86132,-18.007812 7.42498,-1.820788 21.22108,-4.707379 30.65625,-6.414063 9.43518,-1.706683 18.66021,-3.726618 20.5,-4.490234 1.83984,-0.763578 7.84375,-2.353424 13.34375,-3.533203 18.0268,-3.866797 36.822,-9.066154 47,-13 5.50001,-2.125758 11.81825,-4.34889 14.03907,-4.941406 2.22089,-0.592555 7.17092,-3.314016 11,-6.046871 3.82923,-2.73291 9.04124,-6.09346 11.58203,-7.46875 4.90881,-2.65697 9.8789,-7.79455 9.8789,-10.20899 0,-3.08852 -2.95075,-8.06065 -7.13476,-12.02148 -10.833,-10.25522 -22.16082,-16.67717 -41.01953,-23.25196 -6.23921,-2.17523 -18.32068,-6.74745 -26.84571,-10.16211 -8.52498,-3.41461 -20.44999,-7.90081 -26.5,-9.96875 -6.05,-2.06793 -14.15002,-5.20568 -18,-6.97265 -7.52995,-3.45585 -29.0417,-10.53372 -50,-16.45117 -7.14999,-2.01873 -15.70001,-4.52263 -19,-5.56446 -17.08879,-5.39512 -49.17947,-12.03275 -77.5,-16.02929 -7.97499,-1.12543 -15.1965,-2.25585 -16.04882,-2.51172 -0.85233,-0.25573 -12.7773,-1.12497 -26.5,-1.9336 -13.72267,-0.80863 -27.42619,-1.9565 -30.45118,-2.54882 -3.02502,-0.59237 -15.39999,-1.47962 -27.5,-1.97266 -12.09996,-0.49308 -32.34999,-1.59889 -45,-2.45703 -12.64996,-0.85811 -30.19997,-2.00968 -39,-2.56055 -8.79998,-0.55086 -17.57501,-1.24016 -19.5,-1.5293 -1.92498,-0.28928 -6.42502,-0.68262 -10,-0.875 -11.21896,-0.60325 -39.58088,-2.50052 -64,-4.28125 -15.29019,-1.11503 -31.7098,-1.6099 -47,-1.41601 -17.40963,0.22087 -26.86915,-0.12729 -36.5,-1.34766 -8.12953,-1.03011 -23.03574,-1.78425 -39.78906,-2.01367 -14.73471,-0.20167 -30.70971,-0.84284 -35.5,-1.42383 -14.27618,-1.7314 -29.2065,-2.55615 -43.3789,-2.48047 z m 136.6875,59.98829 c 6.1557,-0.0162 12.31298,0.054 18.46875,0.2246 157.12704,4.35408 314.24536,32.10135 469.91796,45.3125 -155.26003,-0.95758 -310.4328,-18.55688 -465.59375,-22.52343 -65.68043,-1.67907 -131.35945,6.77838 -197.04103,8.93945 -54.2074,1.78354 -108.4157,11.3647 -162.6308,10.25391 -9.194,-0.20107 -18.3879,-0.39877 -27.5821,-0.59375 61.8625,-6.93605 123.9066,-22.44516 186.0449,-27.91993 59.41291,-5.23462 118.91095,-13.53706 178.41607,-13.69335 z m 24.01367,70.17187 c 4.99595,0.003 10.00475,0.0223 15.02539,0.0586 155.17462,1.19093 310.32068,4.19587 465.55273,7.19532 -155.81387,4.34669 -313.27626,17.386379 -470.42187,16.382809 -75.1968,-0.480227 -150.29813,-1.156436 -225.21099,-7.261719 -52.5164,-4.28001 -104.9401,-5.26366 -157.2382,-9.99609 50.3962,0.51812 102.2405,-3.2774 155.6132,-3.14258 69.57232,0.17573 141.74038,-3.28175 216.67974,-3.23633 z"
         style="fill:#000000;stroke-width:3.83837032"
         inkscape:connector-curvature="0" />
    </g>
  </g>
</svg>
