<?xml version="1.0" encoding="UTF-8" standalone="no"?>
<!-- Generator: Adobe Illustrator 12.0.1, SVG Export Plug-In . SVG Version: 6.00 Build 51448)  -->

<svg
   xmlns:dc="http://purl.org/dc/elements/1.1/"
   xmlns:cc="http://creativecommons.org/ns#"
   xmlns:rdf="http://www.w3.org/1999/02/22-rdf-syntax-ns#"
   xmlns:svg="http://www.w3.org/2000/svg"
   xmlns="http://www.w3.org/2000/svg"
   xmlns:sodipodi="http://sodipodi.sourceforge.net/DTD/sodipodi-0.dtd"
   xmlns:inkscape="http://www.inkscape.org/namespaces/inkscape"
   id="Layer_1"
   xml:space="preserve"
   overflow="visible"
   viewBox="0 0 1122.5197 793.7008"
   version="1.1"
   enable-background="new 0 0 272.668 392.75"
   sodipodi:docname="xiphosura.svg"
   width="297mm"
   height="210mm"
   style="overflow:visible"
   inkscape:version="0.92.3 (unknown)"><defs
   id="defs225">
	
	
	
	
	
	
	
	
	
	
	
	
	
	
	
	
	
	
	
	
	
	
	
	
	
	
	
	
	
	
	
	
	
	
	
	
	
	
	
	
	
	
	
	
	
	
	
	
	
	
	
	
	
	
	
	
	
	
	
	
	
	
	
	
	
	
	
	
	
	
	
	
	
	
	
	
	
	
	
	
	
	
	
	
	
	
	
	
	
	
	
	
	
	
	
	
	
	
	
	
	
	
	
	
	
	
	
	
</defs><sodipodi:namedview
   pagecolor="#ffffff"
   bordercolor="#666666"
   borderopacity="1"
   objecttolerance="10"
   gridtolerance="10"
   guidetolerance="10"
   inkscape:pageopacity="0"
   inkscape:pageshadow="2"
   inkscape:window-width="1695"
   inkscape:window-height="1244"
   id="namedview223"
   showgrid="false"
   units="mm"
   inkscape:zoom="0.73512619"
   inkscape:cx="429.44998"
   inkscape:cy="396.85039"
   inkscape:window-x="729"
   inkscape:window-y="67"
   inkscape:window-maximized="0"
   inkscape:current-layer="Layer_1" />

<metadata
   id="metadata220"><rdf:RDF><cc:Work><dc:format>image/svg+xml</dc:format><dc:type
         rdf:resource="http://purl.org/dc/dcmitype/StillImage" /><cc:license
         rdf:resource="http://creativecommons.org/publicdomain/zero/1.0/" /><dc:publisher><cc:Agent
           rdf:about="http://openclipart.org/"><dc:title>Openclipart</dc:title></cc:Agent></dc:publisher><dc:title /><dc:date>2006-10-30T13:56:06</dc:date><dc:description>a top view of a turtle</dc:description><dc:source>https://openclipart.org/detail/1024/turtle-by-johnny_automatic</dc:source><dc:creator><cc:Agent><dc:title>johnny_automatic</dc:title></cc:Agent></dc:creator><dc:subject><rdf:Bag><rdf:li>amphibian</rdf:li><rdf:li>animal</rdf:li><rdf:li>reptile</rdf:li><rdf:li>turtle</rdf:li></rdf:Bag></dc:subject></cc:Work><cc:License
       rdf:about="http://creativecommons.org/publicdomain/zero/1.0/"><cc:permits
         rdf:resource="http://creativecommons.org/ns#Reproduction" /><cc:permits
         rdf:resource="http://creativecommons.org/ns#Distribution" /><cc:permits
         rdf:resource="http://creativecommons.org/ns#DerivativeWorks" /></cc:License></rdf:RDF></metadata><path
   inkscape:connector-curvature="0"
   d="m 780.32624,183.17578 c 39.69435,-4.96636 74.12923,-3.03958 103.30464,5.78035 8.89759,2.58706 17.3599,5.8402 25.39479,9.76793 4.77247,1.47066 9.47707,3.31368 14.11347,5.54545 38.13228,18.25896 66.28855,57.90597 84.47866,118.93806 20.691,69.4968 16.1703,125.38417 -13.5544,167.65435 -21.18361,33.13664 -55.44833,61.31948 -102.79716,84.53859 -40.39509,26.846 -67.72526,37.25073 -81.98704,31.20771 -3.69079,-2.05852 -2.11228,-5.68749 4.74396,-10.89488 3.29058,-11.57234 1.86203,-24.69083 -4.28068,-39.35694 -15.78637,-23.28283 -19.74146,-36.55306 -11.86377,-39.80569 -4.05055,-6.91933 -6.45362,-13.78247 -7.22215,-20.59643 -4.60088,5.15822 -9.41239,6.59225 -14.42956,4.30061 5.87905,13.05437 6.63225,22.85263 2.25964,29.39477 2.95382,8.94735 3.00007,16.97344 0.1308,24.06979 9.49702,28.22917 -2.19993,48.06055 -35.09231,59.48918 -4.86435,-5.41445 -7.47659,-12.67034 -7.84316,-21.77119 -6.79814,10.51026 -14.76528,16.4984 -23.89793,17.958 -2.81672,-3.59759 -3.70277,-8.38824 -2.6596,-14.37689 -2.48014,4.74828 -12.06254,7.42546 -28.76013,8.02454 -0.6401,-1.34785 -0.42381,-5.47558 0.64388,-12.38173 -8.42037,5.26724 -14.70332,8.58093 -18.83938,9.9545 -4.1097,1.37115 -6.4613,2.11537 -7.05479,2.23266 -1.28009,-1.93185 -1.13503,-5.98959 0.43217,-12.18319 -7.4328,4.74535 -13.9062,6.6747 -19.40032,5.78211 -3.35799,-4.59567 -3.54026,-9.1518 -0.55233,-13.65053 -7.07136,5.35818 -14.10369,7.81169 -21.10045,7.36696 -1.68396,-3.83228 -1.79558,-8.13318 -0.32344,-12.90067 -6.75542,2.78271 -12.09641,2.74923 -16.01302,-0.10339 l 0.44478,-1.21609 c 0.55215,-1.74654 0.58225,-4.37225 0.0902,-7.87715 -0.60765,-4.45645 0.71583,-10.63159 3.96199,-18.51748 -2.57973,-3.20231 -3.93962,-7.76504 -4.07818,-13.68321 -3.94492,2.94193 -7.76149,5.56929 -11.46462,7.88654 l 0.0356,0.11941 c -8.97941,5.02754 -17.21567,8.29494 -24.70878,9.80223 3.94013,-8.5749 5.52832,-15.3707 4.76102,-20.38093 -13.32891,9.21149 -22.24895,14.12922 -26.75663,14.74672 2.0686,-8.20132 2.1426,-16.44202 0.2135,-24.71416 -10.08486,5.53576 -20.7363,9.78847 -31.94992,12.77304 11.4231,-11.35233 17.17023,-21.46266 17.23787,-30.32451 -23.29771,12.71897 -47.76276,16.66786 -73.40011,11.84816 L 410.2,516.42733 c -14.41983,-1.11997 -28.8392,1.08806 -44.54086,2.33841 -12.04582,2.54373 -238.48602,67.26494 -252.48445,71.69085 -5.75129,1.81837 -10.67548,-0.19169 -11.00906,-0.64223 0.0323,-0.55703 3.27965,-4.68813 8.62762,-6.36448 14.20835,-4.4537 239.50546,-73.18479 251.21389,-76.93745 14.11933,-6.55944 27.69285,-11.60549 39.44333,-19.4418 l 35.52168,-21.69324 c 19.40661,-14.2681 42.54046,-22.70159 69.39461,-25.28755 -5.00891,-7.71723 -14.84412,-14.359 -29.50411,-19.92036 9.89377,-1.32344 20.68667,-2.10221 32.35385,-2.32891 -2.91926,-7.97705 -6.10469,-15.33841 -9.55831,-22.07265 1.34442,-0.94245 10.26665,-0.7086 26.75376,0.69459 -2.10078,-4.61279 -5.88108,-9.71647 -11.3359,-15.3125 5.27605,-2.29304 12.81116,-3.36859 22.60828,-3.21672 l -0.0371,-0.12438 c 4.22477,-0.0944 8.86195,0.0134 13.91152,0.32338 -3.12398,-5.02839 -4.48387,-9.59112 -4.07818,-13.68322 -7.01883,-4.77231 -11.50052,-9.21184 -13.45301,-13.32707 -1.4867,-3.1705 -2.50331,-4.76371 -3.04982,-4.77961 0.1409,-6.18025 3.79794,-9.97906 10.96118,-11.39344 l -6.79335,-10.97778 c 5.61168,-4.20259 12.12668,-6.86488 19.55844,-7.99633 2.83357,-0.50862 1.20788,-3.54559 -4.8771,-9.11093 4.114,-3.7562 10.5874,-5.68555 19.40031,-5.78211 -4.73196,-4.37035 -6.62732,-6.78519 -5.67614,-7.24747 -0.429,-2.03922 1.4541,-3.5919 5.65279,-4.66451 4.35939,-1.11508 11.47605,-1.79503 21.33801,-2.02546 -4.59582,-5.13149 -5.95683,-8.78913 -4.08304,-10.97291 12.08385,-7.93566 20.49362,-10.62091 25.23281,-8.0622 0.2693,-5.67675 -0.8577,-9.76712 -3.38449,-12.26464 6.9367,-4.5921 16.12327,-5.88897 27.55765,-3.8792 l -5.3387,-17.91256 c 4.21404,-1.03925 13.89846,-1.26552 29.05625,-0.66888 15.18169,0.56786 27.00205,13.88853 35.47305,39.94761 5.82331,2.56064 9.97981,8.63573 12.47446,18.22377 2.275,-0.45592 4.94193,1.82106 7.99435,6.82744 3.05547,4.96213 4.45498,9.05797 4.20499,12.29098 2.94249,-4.66937 7.58198,-6.68059 13.91053,-6.04211 -2.6416,-4.755 -4.17801,-10.98252 -4.61625,-18.66966 l -0.12936,0.0386 c 0.6209,-1.53407 -0.80804,-2.69015 -4.28304,-3.46396 -3.48169,-0.79349 -5.21872,-6.91247 -5.20113,-18.35991 0.0294,-11.4076 0.16057,-17.94794 0.38337,-19.61798 -1.8458,-15.88175 -7.04594,-27.87615 -15.60043,-35.98316 -8.35335,-0.76097 -11.45847,-2.99945 -9.31241,-6.70549 9.28975,-13.05695 37.77066,-19.29169 85.44569,-18.69428 z"
   id="path3"
   style="fill-rule:evenodd;stroke-width:1"
   sodipodi:nodetypes="ccccccccccccccccccccccccccccccccccccccccccccscscccccccccccccccccccccccccccccccccccccccccc" /></svg>