<?xml version="1.0" encoding="UTF-8" standalone="no"?> <svg width="91.0167mm" height="103.011mm"  viewBox="0 0 258.979 292"  xmlns="http://www.w3.org/2000/svg" xmlns:xlink="http://www.w3.org/1999/xlink"  version="1.2" baseProfile="tiny"> <title>Generated with ETE http://etetoolkit.org</title> <desc>Generated with ETE http://etetoolkit.org</desc> <defs> </defs> <g fill="none" stroke="black" stroke-width="1" fill-rule="evenodd" stroke-linecap="square" stroke-linejoin="bevel" >      <g fill="none" stroke="none" transform="matrix(1,0,0,1,0,0)" font-family="Ubuntu" font-size="11pt" font-weight="400" font-style="normal"  > <path vector-effect="non-scaling-stroke" fill-rule="evenodd" d="M0,0 L258.979,0 L258.979,292 L0,292 L0,0"/> </g>      <g fill="none" stroke="none" transform="matrix(1,0,0,1,1,1)" font-family="Ubuntu" font-size="11pt" font-weight="400" font-style="normal"  > <path vector-effect="non-scaling-stroke" fill-rule="evenodd" d="M0,0 L256.979,0 L256.979,240 L0,240 L0,0"/> </g>                                                                                                                      <g fill="none" stroke="#000000" stroke-opacity="1" stroke-width="1" stroke-linecap="butt" stroke-linejoin="bevel" transform="matrix(1,0,0,1,1,1)" font-family="Ubuntu" font-size="11pt" font-weight="400" font-style="normal"  > <polyline fill="none" vector-effect="non-scaling-stroke" points="3,8 3,74.625 " /> </g>                  <g fill="#0030c1" fill-opacity="1" stroke="#0030c1" stroke-opacity="1" stroke-width="1" stroke-linecap="square" stroke-linejoin="bevel" transform="matrix(1,0,0,1,1,40.8125)" font-family="Ubuntu" font-size="11pt" font-weight="400" font-style="normal"  > <path vector-effect="non-scaling-stroke" fill-rule="evenodd" d="M3,1.5 C3,2.32843 2.32843,3 1.5,3 C0.671573,3 0,2.32843 0,1.5 C0,0.671573 0.671573,0 1.5,0 C2.32843,0 3,0.671573 3,1.5 "/> </g>                        <g fill="none" stroke="#000000" stroke-opacity="1" stroke-width="1" stroke-linecap="butt" stroke-linejoin="bevel" transform="matrix(1,0,0,1,4,1)" font-family="Ubuntu" font-size="11pt" font-weight="400" font-style="normal"  > <polyline fill="none" vector-effect="non-scaling-stroke" points="0,8 10.7631,8 " /> </g>      <g fill="#0030c1" fill-opacity="1" stroke="#0030c1" stroke-opacity="1" stroke-width="1" stroke-linecap="square" stroke-linejoin="bevel" transform="matrix(1,0,0,1,14.7631,7.5)" font-family="Ubuntu" font-size="11pt" font-weight="400" font-style="normal"  > <path vector-effect="non-scaling-stroke" fill-rule="evenodd" d="M3,1.5 C3,2.32843 2.32843,3 1.5,3 C0.671573,3 0,2.32843 0,1.5 C0,0.671573 0.671573,0 1.5,0 C2.32843,0 3,0.671573 3,1.5 "/> </g>          <g fill="none" stroke="#000000" stroke-opacity="1" stroke-width="1" stroke-linecap="square" stroke-linejoin="bevel" transform="matrix(1,0,0,1,17.7631,1)" font-family="Arial" font-size="10pt" font-weight="400" font-style="normal"  > <text fill="#000000" fill-opacity="1" stroke="none" xml:space="preserve" x="0" y="13" font-family="Arial" font-size="10pt" font-weight="400" font-style="normal"   >PDGF-C</text> </g>                    <g fill="none" stroke="#000000" stroke-opacity="1" stroke-width="1" stroke-linecap="butt" stroke-linejoin="bevel" transform="matrix(1,0,0,1,4,17)" font-family="Ubuntu" font-size="11pt" font-weight="400" font-style="normal"  > <polyline fill="none" vector-effect="non-scaling-stroke" points="0,8 6.76463,8 " /> </g>      <g fill="#0030c1" fill-opacity="1" stroke="#0030c1" stroke-opacity="1" stroke-width="1" stroke-linecap="square" stroke-linejoin="bevel" transform="matrix(1,0,0,1,10.7646,23.5)" font-family="Ubuntu" font-size="11pt" font-weight="400" font-style="normal"  > <path vector-effect="non-scaling-stroke" fill-rule="evenodd" d="M3,1.5 C3,2.32843 2.32843,3 1.5,3 C0.671573,3 0,2.32843 0,1.5 C0,0.671573 0.671573,0 1.5,0 C2.32843,0 3,0.671573 3,1.5 "/> </g>          <g fill="none" stroke="#000000" stroke-opacity="1" stroke-width="1" stroke-linecap="square" stroke-linejoin="bevel" transform="matrix(1,0,0,1,13.7646,17)" font-family="Arial" font-size="10pt" font-weight="400" font-style="normal"  > <text fill="#000000" fill-opacity="1" stroke="none" xml:space="preserve" x="0" y="13" font-family="Arial" font-size="10pt" font-weight="400" font-style="normal"   >PDGF-D</text> </g>              <g fill="none" stroke="#000000" stroke-opacity="1" stroke-width="1" stroke-linecap="butt" stroke-linejoin="bevel" transform="matrix(1,0,0,1,4,33)" font-family="Ubuntu" font-size="11pt" font-weight="400" font-style="normal"  > <polyline fill="none" vector-effect="non-scaling-stroke" points="98.7247,8 98.7247,77.25 " /> </g>            <g fill="none" stroke="#000000" stroke-opacity="1" stroke-width="1" stroke-linecap="butt" stroke-linejoin="bevel" transform="matrix(1,0,0,1,4,33)" font-family="Ubuntu" font-size="11pt" font-weight="400" font-style="normal"  > <polyline fill="none" vector-effect="non-scaling-stroke" points="0,42.625 95.7247,42.625 " /> </g>      <g fill="#0030c1" fill-opacity="1" stroke="#0030c1" stroke-opacity="1" stroke-width="1" stroke-linecap="square" stroke-linejoin="bevel" transform="matrix(1,0,0,1,99.7247,74.125)" font-family="Ubuntu" font-size="11pt" font-weight="400" font-style="normal"  > <path vector-effect="non-scaling-stroke" fill-rule="evenodd" d="M3,1.5 C3,2.32843 2.32843,3 1.5,3 C0.671573,3 0,2.32843 0,1.5 C0,0.671573 0.671573,0 1.5,0 C2.32843,0 3,0.671573 3,1.5 "/> </g>                        <g fill="none" stroke="#000000" stroke-opacity="1" stroke-width="1" stroke-linecap="butt" stroke-linejoin="bevel" transform="matrix(1,0,0,1,102.725,33)" font-family="Ubuntu" font-size="11pt" font-weight="400" font-style="normal"  > <polyline fill="none" vector-effect="non-scaling-stroke" points="0,8 6.1946,8 " /> </g>      <g fill="#0030c1" fill-opacity="1" stroke="#0030c1" stroke-opacity="1" stroke-width="1" stroke-linecap="square" stroke-linejoin="bevel" transform="matrix(1,0,0,1,108.919,39.5)" font-family="Ubuntu" font-size="11pt" font-weight="400" font-style="normal"  > <path vector-effect="non-scaling-stroke" fill-rule="evenodd" d="M3,1.5 C3,2.32843 2.32843,3 1.5,3 C0.671573,3 0,2.32843 0,1.5 C0,0.671573 0.671573,0 1.5,0 C2.32843,0 3,0.671573 3,1.5 "/> </g>          <g fill="none" stroke="#000000" stroke-opacity="1" stroke-width="1" stroke-linecap="square" stroke-linejoin="bevel" transform="matrix(1,0,0,1,111.919,33)" font-family="Arial" font-size="10pt" font-weight="400" font-style="normal"  > <text fill="#000000" fill-opacity="1" stroke="none" xml:space="preserve" x="0" y="13" font-family="Arial" font-size="10pt" font-weight="400" font-style="normal"   >VEGF-C</text> </g>              <g fill="none" stroke="#000000" stroke-opacity="1" stroke-width="1" stroke-linecap="butt" stroke-linejoin="bevel" transform="matrix(1,0,0,1,102.725,49)" font-family="Ubuntu" font-size="11pt" font-weight="400" font-style="normal"  > <polyline fill="none" vector-effect="non-scaling-stroke" points="8.92211,8 8.92211,114.5 " /> </g>            <g fill="none" stroke="#000000" stroke-opacity="1" stroke-width="1" stroke-linecap="butt" stroke-linejoin="bevel" transform="matrix(1,0,0,1,102.725,49)" font-family="Ubuntu" font-size="11pt" font-weight="400" font-style="normal"  > <polyline fill="none" vector-effect="non-scaling-stroke" points="0,61.25 5.92211,61.25 " /> </g>      <g fill="#0030c1" fill-opacity="1" stroke="#0030c1" stroke-opacity="1" stroke-width="1" stroke-linecap="square" stroke-linejoin="bevel" transform="matrix(1,0,0,1,108.647,108.75)" font-family="Ubuntu" font-size="11pt" font-weight="400" font-style="normal"  > <path vector-effect="non-scaling-stroke" fill-rule="evenodd" d="M3,1.5 C3,2.32843 2.32843,3 1.5,3 C0.671573,3 0,2.32843 0,1.5 C0,0.671573 0.671573,0 1.5,0 C2.32843,0 3,0.671573 3,1.5 "/> </g>                        <g fill="none" stroke="#000000" stroke-opacity="1" stroke-width="1" stroke-linecap="butt" stroke-linejoin="bevel" transform="matrix(1,0,0,1,111.647,49)" font-family="Ubuntu" font-size="11pt" font-weight="400" font-style="normal"  > <polyline fill="none" vector-effect="non-scaling-stroke" points="0,8 7.34298,8 " /> </g>      <g fill="#0030c1" fill-opacity="1" stroke="#0030c1" stroke-opacity="1" stroke-width="1" stroke-linecap="square" stroke-linejoin="bevel" transform="matrix(1,0,0,1,118.99,55.5)" font-family="Ubuntu" font-size="11pt" font-weight="400" font-style="normal"  > <path vector-effect="non-scaling-stroke" fill-rule="evenodd" d="M3,1.5 C3,2.32843 2.32843,3 1.5,3 C0.671573,3 0,2.32843 0,1.5 C0,0.671573 0.671573,0 1.5,0 C2.32843,0 3,0.671573 3,1.5 "/> </g>          <g fill="none" stroke="#000000" stroke-opacity="1" stroke-width="1" stroke-linecap="square" stroke-linejoin="bevel" transform="matrix(1,0,0,1,121.99,49)" font-family="Arial" font-size="10pt" font-weight="400" font-style="normal"  > <text fill="#000000" fill-opacity="1" stroke="none" xml:space="preserve" x="0" y="13" font-family="Arial" font-size="10pt" font-weight="400" font-style="normal"   >VEGF-D</text> </g>              <g fill="none" stroke="#000000" stroke-opacity="1" stroke-width="1" stroke-linecap="butt" stroke-linejoin="bevel" transform="matrix(1,0,0,1,111.647,65)" font-family="Ubuntu" font-size="11pt" font-weight="400" font-style="normal"  > <polyline fill="none" vector-effect="non-scaling-stroke" points="19.5656,53 19.5656,144 " /> </g>            <g fill="none" stroke="#000000" stroke-opacity="1" stroke-width="1" stroke-linecap="butt" stroke-linejoin="bevel" transform="matrix(1,0,0,1,111.647,65)" font-family="Ubuntu" font-size="11pt" font-weight="400" font-style="normal"  > <polyline fill="none" vector-effect="non-scaling-stroke" points="0,98.5 16.5656,98.5 " /> </g>      <g fill="#0030c1" fill-opacity="1" stroke="#0030c1" stroke-opacity="1" stroke-width="1" stroke-linecap="square" stroke-linejoin="bevel" transform="matrix(1,0,0,1,128.212,162)" font-family="Ubuntu" font-size="11pt" font-weight="400" font-style="normal"  > <path vector-effect="non-scaling-stroke" fill-rule="evenodd" d="M3,1.5 C3,2.32843 2.32843,3 1.5,3 C0.671573,3 0,2.32843 0,1.5 C0,0.671573 0.671573,0 1.5,0 C2.32843,0 3,0.671573 3,1.5 "/> </g>                  <g fill="none" stroke="#000000" stroke-opacity="1" stroke-width="1" stroke-linecap="butt" stroke-linejoin="bevel" transform="matrix(1,0,0,1,131.212,65)" font-family="Ubuntu" font-size="11pt" font-weight="400" font-style="normal"  > <polyline fill="none" vector-effect="non-scaling-stroke" points="20.7005,22 20.7005,84 " /> </g>            <g fill="none" stroke="#000000" stroke-opacity="1" stroke-width="1" stroke-linecap="butt" stroke-linejoin="bevel" transform="matrix(1,0,0,1,131.212,65)" font-family="Ubuntu" font-size="11pt" font-weight="400" font-style="normal"  > <polyline fill="none" vector-effect="non-scaling-stroke" points="0,53 17.7005,53 " /> </g>      <g fill="#0030c1" fill-opacity="1" stroke="#0030c1" stroke-opacity="1" stroke-width="1" stroke-linecap="square" stroke-linejoin="bevel" transform="matrix(1,0,0,1,148.913,116.5)" font-family="Ubuntu" font-size="11pt" font-weight="400" font-style="normal"  > <path vector-effect="non-scaling-stroke" fill-rule="evenodd" d="M3,1.5 C3,2.32843 2.32843,3 1.5,3 C0.671573,3 0,2.32843 0,1.5 C0,0.671573 0.671573,0 1.5,0 C2.32843,0 3,0.671573 3,1.5 "/> </g>                  <g fill="none" stroke="#000000" stroke-opacity="1" stroke-width="1" stroke-linecap="butt" stroke-linejoin="bevel" transform="matrix(1,0,0,1,151.913,65)" font-family="Ubuntu" font-size="11pt" font-weight="400" font-style="normal"  > <polyline fill="none" vector-effect="non-scaling-stroke" points="6.9313,8 6.9313,36 " /> </g>            <g fill="none" stroke="#000000" stroke-opacity="1" stroke-width="1" stroke-linecap="butt" stroke-linejoin="bevel" transform="matrix(1,0,0,1,151.913,65)" font-family="Ubuntu" font-size="11pt" font-weight="400" font-style="normal"  > <polyline fill="none" vector-effect="non-scaling-stroke" points="0,22 3.9313,22 " /> </g>      <g fill="#0030c1" fill-opacity="1" stroke="#0030c1" stroke-opacity="1" stroke-width="1" stroke-linecap="square" stroke-linejoin="bevel" transform="matrix(1,0,0,1,155.844,85.5)" font-family="Ubuntu" font-size="11pt" font-weight="400" font-style="normal"  > <path vector-effect="non-scaling-stroke" fill-rule="evenodd" d="M3,1.5 C3,2.32843 2.32843,3 1.5,3 C0.671573,3 0,2.32843 0,1.5 C0,0.671573 0.671573,0 1.5,0 C2.32843,0 3,0.671573 3,1.5 "/> </g>                        <g fill="none" stroke="#000000" stroke-opacity="1" stroke-width="1" stroke-linecap="butt" stroke-linejoin="bevel" transform="matrix(1,0,0,1,158.844,65)" font-family="Ubuntu" font-size="11pt" font-weight="400" font-style="normal"  > <polyline fill="none" vector-effect="non-scaling-stroke" points="0,8 15.0465,8 " /> </g>      <g fill="#0030c1" fill-opacity="1" stroke="#0030c1" stroke-opacity="1" stroke-width="1" stroke-linecap="square" stroke-linejoin="bevel" transform="matrix(1,0,0,1,173.891,71.5)" font-family="Ubuntu" font-size="11pt" font-weight="400" font-style="normal"  > <path vector-effect="non-scaling-stroke" fill-rule="evenodd" d="M3,1.5 C3,2.32843 2.32843,3 1.5,3 C0.671573,3 0,2.32843 0,1.5 C0,0.671573 0.671573,0 1.5,0 C2.32843,0 3,0.671573 3,1.5 "/> </g>          <g fill="none" stroke="#000000" stroke-opacity="1" stroke-width="1" stroke-linecap="square" stroke-linejoin="bevel" transform="matrix(1,0,0,1,176.891,65)" font-family="Arial" font-size="10pt" font-weight="400" font-style="normal"  > <text fill="#000000" fill-opacity="1" stroke="none" xml:space="preserve" x="0" y="13" font-family="Arial" font-size="10pt" font-weight="400" font-style="normal"   >PlGF-1</text> </g>              <g fill="none" stroke="#000000" stroke-opacity="1" stroke-width="1" stroke-linecap="butt" stroke-linejoin="bevel" transform="matrix(1,0,0,1,158.844,81)" font-family="Ubuntu" font-size="11pt" font-weight="400" font-style="normal"  > <polyline fill="none" vector-effect="non-scaling-stroke" points="12.0574,8 12.0574,32 " /> </g>            <g fill="none" stroke="#000000" stroke-opacity="1" stroke-width="1" stroke-linecap="butt" stroke-linejoin="bevel" transform="matrix(1,0,0,1,158.844,81)" font-family="Ubuntu" font-size="11pt" font-weight="400" font-style="normal"  > <polyline fill="none" vector-effect="non-scaling-stroke" points="0,20 9.0574,20 " /> </g>      <g fill="#0030c1" fill-opacity="1" stroke="#0030c1" stroke-opacity="1" stroke-width="1" stroke-linecap="square" stroke-linejoin="bevel" transform="matrix(1,0,0,1,167.902,99.5)" font-family="Ubuntu" font-size="11pt" font-weight="400" font-style="normal"  > <path vector-effect="non-scaling-stroke" fill-rule="evenodd" d="M3,1.5 C3,2.32843 2.32843,3 1.5,3 C0.671573,3 0,2.32843 0,1.5 C0,0.671573 0.671573,0 1.5,0 C2.32843,0 3,0.671573 3,1.5 "/> </g>                        <g fill="none" stroke="#000000" stroke-opacity="1" stroke-width="1" stroke-linecap="butt" stroke-linejoin="bevel" transform="matrix(1,0,0,1,170.902,81)" font-family="Ubuntu" font-size="11pt" font-weight="400" font-style="normal"  > <polyline fill="none" vector-effect="non-scaling-stroke" points="0,8 0.0606473,8 " /> </g>      <g fill="#0030c1" fill-opacity="1" stroke="#0030c1" stroke-opacity="1" stroke-width="1" stroke-linecap="square" stroke-linejoin="bevel" transform="matrix(1,0,0,1,170.962,87.5)" font-family="Ubuntu" font-size="11pt" font-weight="400" font-style="normal"  > <path vector-effect="non-scaling-stroke" fill-rule="evenodd" d="M3,1.5 C3,2.32843 2.32843,3 1.5,3 C0.671573,3 0,2.32843 0,1.5 C0,0.671573 0.671573,0 1.5,0 C2.32843,0 3,0.671573 3,1.5 "/> </g>          <g fill="none" stroke="#000000" stroke-opacity="1" stroke-width="1" stroke-linecap="square" stroke-linejoin="bevel" transform="matrix(1,0,0,1,173.962,81)" font-family="Arial" font-size="10pt" font-weight="400" font-style="normal"  > <text fill="#000000" fill-opacity="1" stroke="none" xml:space="preserve" x="0" y="13" font-family="Arial" font-size="10pt" font-weight="400" font-style="normal"   >VEGF-A165</text> </g>              <g fill="none" stroke="#000000" stroke-opacity="1" stroke-width="1" stroke-linecap="butt" stroke-linejoin="bevel" transform="matrix(1,0,0,1,170.902,97)" font-family="Ubuntu" font-size="11pt" font-weight="400" font-style="normal"  > <polyline fill="none" vector-effect="non-scaling-stroke" points="3.00608,8 3.00608,24 " /> </g>            <g fill="none" stroke="#000000" stroke-opacity="1" stroke-width="1" stroke-linecap="butt" stroke-linejoin="bevel" transform="matrix(1,0,0,1,170.902,97)" font-family="Ubuntu" font-size="11pt" font-weight="400" font-style="normal"  > <polyline fill="none" vector-effect="non-scaling-stroke" points="0,16 0.00607775,16 " /> </g>      <g fill="#0030c1" fill-opacity="1" stroke="#0030c1" stroke-opacity="1" stroke-width="1" stroke-linecap="square" stroke-linejoin="bevel" transform="matrix(1,0,0,1,170.908,111.5)" font-family="Ubuntu" font-size="11pt" font-weight="400" font-style="normal"  > <path vector-effect="non-scaling-stroke" fill-rule="evenodd" d="M3,1.5 C3,2.32843 2.32843,3 1.5,3 C0.671573,3 0,2.32843 0,1.5 C0,0.671573 0.671573,0 1.5,0 C2.32843,0 3,0.671573 3,1.5 "/> </g>                        <g fill="none" stroke="#000000" stroke-opacity="1" stroke-width="1" stroke-linecap="butt" stroke-linejoin="bevel" transform="matrix(1,0,0,1,173.908,97)" font-family="Ubuntu" font-size="11pt" font-weight="400" font-style="normal"  > <polyline fill="none" vector-effect="non-scaling-stroke" points="0,8 0.0208074,8 " /> </g>      <g fill="#0030c1" fill-opacity="1" stroke="#0030c1" stroke-opacity="1" stroke-width="1" stroke-linecap="square" stroke-linejoin="bevel" transform="matrix(1,0,0,1,173.928,103.5)" font-family="Ubuntu" font-size="11pt" font-weight="400" font-style="normal"  > <path vector-effect="non-scaling-stroke" fill-rule="evenodd" d="M3,1.5 C3,2.32843 2.32843,3 1.5,3 C0.671573,3 0,2.32843 0,1.5 C0,0.671573 0.671573,0 1.5,0 C2.32843,0 3,0.671573 3,1.5 "/> </g>          <g fill="none" stroke="#000000" stroke-opacity="1" stroke-width="1" stroke-linecap="square" stroke-linejoin="bevel" transform="matrix(1,0,0,1,176.928,97)" font-family="Arial" font-size="10pt" font-weight="400" font-style="normal"  > <text fill="#000000" fill-opacity="1" stroke="none" xml:space="preserve" x="0" y="13" font-family="Arial" font-size="10pt" font-weight="400" font-style="normal"   >VEGF-A206</text> </g>                    <g fill="none" stroke="#000000" stroke-opacity="1" stroke-width="1" stroke-linecap="butt" stroke-linejoin="bevel" transform="matrix(1,0,0,1,173.908,113)" font-family="Ubuntu" font-size="11pt" font-weight="400" font-style="normal"  > <polyline fill="none" vector-effect="non-scaling-stroke" points="0,8 0.121925,8 " /> </g>      <g fill="#0030c1" fill-opacity="1" stroke="#0030c1" stroke-opacity="1" stroke-width="1" stroke-linecap="square" stroke-linejoin="bevel" transform="matrix(1,0,0,1,174.03,119.5)" font-family="Ubuntu" font-size="11pt" font-weight="400" font-style="normal"  > <path vector-effect="non-scaling-stroke" fill-rule="evenodd" d="M3,1.5 C3,2.32843 2.32843,3 1.5,3 C0.671573,3 0,2.32843 0,1.5 C0,0.671573 0.671573,0 1.5,0 C2.32843,0 3,0.671573 3,1.5 "/> </g>          <g fill="none" stroke="#000000" stroke-opacity="1" stroke-width="1" stroke-linecap="square" stroke-linejoin="bevel" transform="matrix(1,0,0,1,177.03,113)" font-family="Arial" font-size="10pt" font-weight="400" font-style="normal"  > <text fill="#000000" fill-opacity="1" stroke="none" xml:space="preserve" x="0" y="13" font-family="Arial" font-size="10pt" font-weight="400" font-style="normal"   >VEGF-A121</text> </g>              <g fill="none" stroke="#000000" stroke-opacity="1" stroke-width="1" stroke-linecap="butt" stroke-linejoin="bevel" transform="matrix(1,0,0,1,151.913,129)" font-family="Ubuntu" font-size="11pt" font-weight="400" font-style="normal"  > <polyline fill="none" vector-effect="non-scaling-stroke" points="6.90561,8 6.90561,32 " /> </g>            <g fill="none" stroke="#000000" stroke-opacity="1" stroke-width="1" stroke-linecap="butt" stroke-linejoin="bevel" transform="matrix(1,0,0,1,151.913,129)" font-family="Ubuntu" font-size="11pt" font-weight="400" font-style="normal"  > <polyline fill="none" vector-effect="non-scaling-stroke" points="0,20 3.90561,20 " /> </g>      <g fill="#0030c1" fill-opacity="1" stroke="#0030c1" stroke-opacity="1" stroke-width="1" stroke-linecap="square" stroke-linejoin="bevel" transform="matrix(1,0,0,1,155.818,147.5)" font-family="Ubuntu" font-size="11pt" font-weight="400" font-style="normal"  > <path vector-effect="non-scaling-stroke" fill-rule="evenodd" d="M3,1.5 C3,2.32843 2.32843,3 1.5,3 C0.671573,3 0,2.32843 0,1.5 C0,0.671573 0.671573,0 1.5,0 C2.32843,0 3,0.671573 3,1.5 "/> </g>                        <g fill="none" stroke="#000000" stroke-opacity="1" stroke-width="1" stroke-linecap="butt" stroke-linejoin="bevel" transform="matrix(1,0,0,1,158.818,129)" font-family="Ubuntu" font-size="11pt" font-weight="400" font-style="normal"  > <polyline fill="none" vector-effect="non-scaling-stroke" points="0,8 12.9333,8 " /> </g>      <g fill="#0030c1" fill-opacity="1" stroke="#0030c1" stroke-opacity="1" stroke-width="1" stroke-linecap="square" stroke-linejoin="bevel" transform="matrix(1,0,0,1,171.752,135.5)" font-family="Ubuntu" font-size="11pt" font-weight="400" font-style="normal"  > <path vector-effect="non-scaling-stroke" fill-rule="evenodd" d="M3,1.5 C3,2.32843 2.32843,3 1.5,3 C0.671573,3 0,2.32843 0,1.5 C0,0.671573 0.671573,0 1.5,0 C2.32843,0 3,0.671573 3,1.5 "/> </g>          <g fill="none" stroke="#000000" stroke-opacity="1" stroke-width="1" stroke-linecap="square" stroke-linejoin="bevel" transform="matrix(1,0,0,1,174.752,129)" font-family="Arial" font-size="10pt" font-weight="400" font-style="normal"  > <text fill="#000000" fill-opacity="1" stroke="none" xml:space="preserve" x="0" y="13" font-family="Arial" font-size="10pt" font-weight="400" font-style="normal"   >VEGF-F</text> </g>              <g fill="none" stroke="#000000" stroke-opacity="1" stroke-width="1" stroke-linecap="butt" stroke-linejoin="bevel" transform="matrix(1,0,0,1,158.818,145)" font-family="Ubuntu" font-size="11pt" font-weight="400" font-style="normal"  > <polyline fill="none" vector-effect="non-scaling-stroke" points="19.2947,8 19.2947,24 " /> </g>            <g fill="none" stroke="#000000" stroke-opacity="1" stroke-width="1" stroke-linecap="butt" stroke-linejoin="bevel" transform="matrix(1,0,0,1,158.818,145)" font-family="Ubuntu" font-size="11pt" font-weight="400" font-style="normal"  > <polyline fill="none" vector-effect="non-scaling-stroke" points="0,16 16.2947,16 " /> </g>      <g fill="#0030c1" fill-opacity="1" stroke="#0030c1" stroke-opacity="1" stroke-width="1" stroke-linecap="square" stroke-linejoin="bevel" transform="matrix(1,0,0,1,175.113,159.5)" font-family="Ubuntu" font-size="11pt" font-weight="400" font-style="normal"  > <path vector-effect="non-scaling-stroke" fill-rule="evenodd" d="M3,1.5 C3,2.32843 2.32843,3 1.5,3 C0.671573,3 0,2.32843 0,1.5 C0,0.671573 0.671573,0 1.5,0 C2.32843,0 3,0.671573 3,1.5 "/> </g>                        <g fill="none" stroke="#000000" stroke-opacity="1" stroke-width="1" stroke-linecap="butt" stroke-linejoin="bevel" transform="matrix(1,0,0,1,178.113,145)" font-family="Ubuntu" font-size="11pt" font-weight="400" font-style="normal"  > <polyline fill="none" vector-effect="non-scaling-stroke" points="0,8 3.86546,8 " /> </g>      <g fill="#0030c1" fill-opacity="1" stroke="#0030c1" stroke-opacity="1" stroke-width="1" stroke-linecap="square" stroke-linejoin="bevel" transform="matrix(1,0,0,1,181.979,151.5)" font-family="Ubuntu" font-size="11pt" font-weight="400" font-style="normal"  > <path vector-effect="non-scaling-stroke" fill-rule="evenodd" d="M3,1.5 C3,2.32843 2.32843,3 1.5,3 C0.671573,3 0,2.32843 0,1.5 C0,0.671573 0.671573,0 1.5,0 C2.32843,0 3,0.671573 3,1.5 "/> </g>          <g fill="none" stroke="#000000" stroke-opacity="1" stroke-width="1" stroke-linecap="square" stroke-linejoin="bevel" transform="matrix(1,0,0,1,184.979,145)" font-family="Arial" font-size="10pt" font-weight="400" font-style="normal"  > <text fill="#000000" fill-opacity="1" stroke="none" xml:space="preserve" x="0" y="13" font-family="Arial" font-size="10pt" font-weight="400" font-style="normal"   >VEGF-B186</text> </g>                    <g fill="none" stroke="#000000" stroke-opacity="1" stroke-width="1" stroke-linecap="butt" stroke-linejoin="bevel" transform="matrix(1,0,0,1,178.113,161)" font-family="Ubuntu" font-size="11pt" font-weight="400" font-style="normal"  > <polyline fill="none" vector-effect="non-scaling-stroke" points="0,8 1.46759,8 " /> </g>      <g fill="#0030c1" fill-opacity="1" stroke="#0030c1" stroke-opacity="1" stroke-width="1" stroke-linecap="square" stroke-linejoin="bevel" transform="matrix(1,0,0,1,179.581,167.5)" font-family="Ubuntu" font-size="11pt" font-weight="400" font-style="normal"  > <path vector-effect="non-scaling-stroke" fill-rule="evenodd" d="M3,1.5 C3,2.32843 2.32843,3 1.5,3 C0.671573,3 0,2.32843 0,1.5 C0,0.671573 0.671573,0 1.5,0 C2.32843,0 3,0.671573 3,1.5 "/> </g>          <g fill="none" stroke="#000000" stroke-opacity="1" stroke-width="1" stroke-linecap="square" stroke-linejoin="bevel" transform="matrix(1,0,0,1,182.581,161)" font-family="Arial" font-size="10pt" font-weight="400" font-style="normal"  > <text fill="#000000" fill-opacity="1" stroke="none" xml:space="preserve" x="0" y="13" font-family="Arial" font-size="10pt" font-weight="400" font-style="normal"   >VEGF-B167</text> </g>              <g fill="none" stroke="#000000" stroke-opacity="1" stroke-width="1" stroke-linecap="butt" stroke-linejoin="bevel" transform="matrix(1,0,0,1,131.212,177)" font-family="Ubuntu" font-size="11pt" font-weight="400" font-style="normal"  > <polyline fill="none" vector-effect="non-scaling-stroke" points="18.4815,16 18.4815,48 " /> </g>            <g fill="none" stroke="#000000" stroke-opacity="1" stroke-width="1" stroke-linecap="butt" stroke-linejoin="bevel" transform="matrix(1,0,0,1,131.212,177)" font-family="Ubuntu" font-size="11pt" font-weight="400" font-style="normal"  > <polyline fill="none" vector-effect="non-scaling-stroke" points="0,32 15.4815,32 " /> </g>      <g fill="#0030c1" fill-opacity="1" stroke="#0030c1" stroke-opacity="1" stroke-width="1" stroke-linecap="square" stroke-linejoin="bevel" transform="matrix(1,0,0,1,146.694,207.5)" font-family="Ubuntu" font-size="11pt" font-weight="400" font-style="normal"  > <path vector-effect="non-scaling-stroke" fill-rule="evenodd" d="M3,1.5 C3,2.32843 2.32843,3 1.5,3 C0.671573,3 0,2.32843 0,1.5 C0,0.671573 0.671573,0 1.5,0 C2.32843,0 3,0.671573 3,1.5 "/> </g>                  <g fill="none" stroke="#000000" stroke-opacity="1" stroke-width="1" stroke-linecap="butt" stroke-linejoin="bevel" transform="matrix(1,0,0,1,149.694,177)" font-family="Ubuntu" font-size="11pt" font-weight="400" font-style="normal"  > <polyline fill="none" vector-effect="non-scaling-stroke" points="30.3117,8 30.3117,24 " /> </g>            <g fill="none" stroke="#000000" stroke-opacity="1" stroke-width="1" stroke-linecap="butt" stroke-linejoin="bevel" transform="matrix(1,0,0,1,149.694,177)" font-family="Ubuntu" font-size="11pt" font-weight="400" font-style="normal"  > <polyline fill="none" vector-effect="non-scaling-stroke" points="0,16 27.3117,16 " /> </g>      <g fill="#0030c1" fill-opacity="1" stroke="#0030c1" stroke-opacity="1" stroke-width="1" stroke-linecap="square" stroke-linejoin="bevel" transform="matrix(1,0,0,1,177.006,191.5)" font-family="Ubuntu" font-size="11pt" font-weight="400" font-style="normal"  > <path vector-effect="non-scaling-stroke" fill-rule="evenodd" d="M3,1.5 C3,2.32843 2.32843,3 1.5,3 C0.671573,3 0,2.32843 0,1.5 C0,0.671573 0.671573,0 1.5,0 C2.32843,0 3,0.671573 3,1.5 "/> </g>                        <g fill="none" stroke="#000000" stroke-opacity="1" stroke-width="1" stroke-linecap="butt" stroke-linejoin="bevel" transform="matrix(1,0,0,1,180.006,177)" font-family="Ubuntu" font-size="11pt" font-weight="400" font-style="normal"  > <polyline fill="none" vector-effect="non-scaling-stroke" points="0,8 5.90826,8 " /> </g>      <g fill="#0030c1" fill-opacity="1" stroke="#0030c1" stroke-opacity="1" stroke-width="1" stroke-linecap="square" stroke-linejoin="bevel" transform="matrix(1,0,0,1,185.914,183.5)" font-family="Ubuntu" font-size="11pt" font-weight="400" font-style="normal"  > <path vector-effect="non-scaling-stroke" fill-rule="evenodd" d="M3,1.5 C3,2.32843 2.32843,3 1.5,3 C0.671573,3 0,2.32843 0,1.5 C0,0.671573 0.671573,0 1.5,0 C2.32843,0 3,0.671573 3,1.5 "/> </g>          <g fill="none" stroke="#000000" stroke-opacity="1" stroke-width="1" stroke-linecap="square" stroke-linejoin="bevel" transform="matrix(1,0,0,1,188.914,177)" font-family="Arial" font-size="10pt" font-weight="400" font-style="normal"  > <text fill="#000000" fill-opacity="1" stroke="none" xml:space="preserve" x="0" y="13" font-family="Arial" font-size="10pt" font-weight="400" font-style="normal"   >PDGF-B</text> </g>                    <g fill="none" stroke="#000000" stroke-opacity="1" stroke-width="1" stroke-linecap="butt" stroke-linejoin="bevel" transform="matrix(1,0,0,1,180.006,193)" font-family="Ubuntu" font-size="11pt" font-weight="400" font-style="normal"  > <polyline fill="none" vector-effect="non-scaling-stroke" points="0,8 18.9944,8 " /> </g>      <g fill="#0030c1" fill-opacity="1" stroke="#0030c1" stroke-opacity="1" stroke-width="1" stroke-linecap="square" stroke-linejoin="bevel" transform="matrix(1,0,0,1,199,199.5)" font-family="Ubuntu" font-size="11pt" font-weight="400" font-style="normal"  > <path vector-effect="non-scaling-stroke" fill-rule="evenodd" d="M3,1.5 C3,2.32843 2.32843,3 1.5,3 C0.671573,3 0,2.32843 0,1.5 C0,0.671573 0.671573,0 1.5,0 C2.32843,0 3,0.671573 3,1.5 "/> </g>          <g fill="none" stroke="#000000" stroke-opacity="1" stroke-width="1" stroke-linecap="square" stroke-linejoin="bevel" transform="matrix(1,0,0,1,202,193)" font-family="Arial" font-size="10pt" font-weight="400" font-style="normal"  > <text fill="#000000" fill-opacity="1" stroke="none" xml:space="preserve" x="0" y="13" font-family="Arial" font-size="10pt" font-weight="400" font-style="normal"   >PDGF-A</text> </g>              <g fill="none" stroke="#000000" stroke-opacity="1" stroke-width="1" stroke-linecap="butt" stroke-linejoin="bevel" transform="matrix(1,0,0,1,149.694,209)" font-family="Ubuntu" font-size="11pt" font-weight="400" font-style="normal"  > <polyline fill="none" vector-effect="non-scaling-stroke" points="26.4996,8 26.4996,24 " /> </g>            <g fill="none" stroke="#000000" stroke-opacity="1" stroke-width="1" stroke-linecap="butt" stroke-linejoin="bevel" transform="matrix(1,0,0,1,149.694,209)" font-family="Ubuntu" font-size="11pt" font-weight="400" font-style="normal"  > <polyline fill="none" vector-effect="non-scaling-stroke" points="0,16 23.4996,16 " /> </g>      <g fill="#0030c1" fill-opacity="1" stroke="#0030c1" stroke-opacity="1" stroke-width="1" stroke-linecap="square" stroke-linejoin="bevel" transform="matrix(1,0,0,1,173.193,223.5)" font-family="Ubuntu" font-size="11pt" font-weight="400" font-style="normal"  > <path vector-effect="non-scaling-stroke" fill-rule="evenodd" d="M3,1.5 C3,2.32843 2.32843,3 1.5,3 C0.671573,3 0,2.32843 0,1.5 C0,0.671573 0.671573,0 1.5,0 C2.32843,0 3,0.671573 3,1.5 "/> </g>                              <g fill="#0030c1" fill-opacity="1" stroke="#0030c1" stroke-opacity="1" stroke-width="1" stroke-linecap="square" stroke-linejoin="bevel" transform="matrix(1,0,0,1,176.193,215.5)" font-family="Ubuntu" font-size="11pt" font-weight="400" font-style="normal"  > <path vector-effect="non-scaling-stroke" fill-rule="evenodd" d="M3,1.5 C3,2.32843 2.32843,3 1.5,3 C0.671573,3 0,2.32843 0,1.5 C0,0.671573 0.671573,0 1.5,0 C2.32843,0 3,0.671573 3,1.5 "/> </g>          <g fill="none" stroke="#000000" stroke-opacity="1" stroke-width="1" stroke-linecap="square" stroke-linejoin="bevel" transform="matrix(1,0,0,1,179.193,209)" font-family="Arial" font-size="10pt" font-weight="400" font-style="normal"  > <text fill="#000000" fill-opacity="1" stroke="none" xml:space="preserve" x="0" y="13" font-family="Arial" font-size="10pt" font-weight="400" font-style="normal"   >RNA09057.1</text> </g>                          <g fill="#0030c1" fill-opacity="1" stroke="#0030c1" stroke-opacity="1" stroke-width="1" stroke-linecap="square" stroke-linejoin="bevel" transform="matrix(1,0,0,1,176.193,231.5)" font-family="Ubuntu" font-size="11pt" font-weight="400" font-style="normal"  > <path vector-effect="non-scaling-stroke" fill-rule="evenodd" d="M3,1.5 C3,2.32843 2.32843,3 1.5,3 C0.671573,3 0,2.32843 0,1.5 C0,0.671573 0.671573,0 1.5,0 C2.32843,0 3,0.671573 3,1.5 "/> </g>          <g fill="none" stroke="#000000" stroke-opacity="1" stroke-width="1" stroke-linecap="square" stroke-linejoin="bevel" transform="matrix(1,0,0,1,179.193,225)" font-family="Arial" font-size="10pt" font-weight="400" font-style="normal"  > <text fill="#000000" fill-opacity="1" stroke="none" xml:space="preserve" x="0" y="13" font-family="Arial" font-size="10pt" font-weight="400" font-style="normal"   >RNA09057.1</text> </g>                                                                                                                              <g fill="none" stroke="#000000" stroke-opacity="1" stroke-width="1" stroke-linecap="square" stroke-linejoin="bevel" transform="matrix(1,0,0,1,1,242)" font-family="Ubuntu" font-size="11pt" font-weight="400" font-style="normal"  > <polyline fill="none" vector-effect="none" points="0,5 50,5 " /> </g>      <g fill="none" stroke="#000000" stroke-opacity="1" stroke-width="1" stroke-linecap="square" stroke-linejoin="bevel" transform="matrix(1,0,0,1,1,242)" font-family="Ubuntu" font-size="11pt" font-weight="400" font-style="normal"  > <polyline fill="none" vector-effect="none" points="0,0 0,10 " /> </g>      <g fill="none" stroke="#000000" stroke-opacity="1" stroke-width="1" stroke-linecap="square" stroke-linejoin="bevel" transform="matrix(1,0,0,1,1,242)" font-family="Ubuntu" font-size="11pt" font-weight="400" font-style="normal"  > <polyline fill="none" vector-effect="none" points="50,0 50,10 " /> </g>      <g fill="none" stroke="#000000" stroke-opacity="1" stroke-width="1" stroke-linecap="square" stroke-linejoin="bevel" transform="matrix(1,0,0,1,1,252)" font-family="Ubuntu" font-size="11pt" font-weight="400" font-style="normal"  > <text fill="#000000" fill-opacity="1" stroke="none" xml:space="preserve" x="0" y="14" font-family="Ubuntu" font-size="11pt" font-weight="400" font-style="normal"   >3.42331</text> </g>     </g> </svg> 